<svg width="41" height="41" viewBox="0 0 41 41" fill="none" xmlns="http://www.w3.org/2000/svg">
<path d="M20.4963 0C9.17643 0 0 9.17937 0 20.5007C0 31.8206 9.17643 41 20.4963 41C31.8221 41 41 31.8192 41 20.5007C41 9.17937 31.8221 0 20.4963 0ZM29.3106 26.0515L26.0456 29.3121C26.0456 29.3121 20.8805 23.7702 20.4949 23.7702C20.1151 23.7702 14.9485 29.3121 14.9485 29.3121L11.682 26.0515C11.682 26.0515 17.2298 20.9611 17.2298 20.5081C17.2298 20.0477 11.682 14.9559 11.682 14.9559L14.9485 11.6879C14.9485 11.6879 20.1577 17.2328 20.4949 17.2328C20.835 17.2328 26.0456 11.6879 26.0456 11.6879L29.3106 14.9559C29.3106 14.9559 23.7614 20.121 23.7614 20.5081C23.7614 20.8761 29.3106 26.0515 29.3106 26.0515Z" fill="#4980A8"/>
</svg>
