<svg width="121" height="125" viewBox="0 0 121 125" fill="none" xmlns="http://www.w3.org/2000/svg">
<g clip-path="url(#clip0)">
<path d="M92.621 7.00772L82.7951 0C80.8291 2.21815 77.5249 2.65399 75.06 0.896896L25.8174 74.1717C28.2822 75.9288 29.0481 79.2686 27.7255 81.9479L37.5514 88.9556C39.5197 86.7374 42.8216 86.3016 45.2864 88.0587C47.7513 89.8158 48.5172 93.1556 47.1946 95.8348L57.0204 102.843C58.9865 100.624 62.2907 100.189 64.7555 101.946L114 28.6709C111.536 26.9138 110.767 23.5739 112.092 20.8947L102.266 13.887C100.3 16.1051 96.9961 16.541 94.5313 14.7839C92.0643 13.0268 91.2984 9.68694 92.621 7.00772Z" fill="#4980A8"/>
<path d="M68.7961 22.4592L35.1807 72.4836L62.9997 92.3244L96.6151 42.3L68.7961 22.4592Z" fill="white"/>
<path opacity="0.1" d="M54.9431 101.361L73.575 19.5664L67.7525 18.158L68.2468 12.8615L67.1914 12.6069L25.8174 74.1739C28.2822 75.931 29.0481 79.2708 27.7255 81.9501L37.5514 88.9578C39.5174 86.7396 42.8217 86.3038 45.2865 88.0609C47.7513 89.818 48.5172 93.1578 47.1946 95.837L54.9431 101.361Z" fill="black"/>
<path d="M38.2791 12.3913L26.6431 9.57906C25.601 12.3867 22.682 14.0383 19.763 13.3341L0 100.099C2.91902 100.806 4.82051 103.622 4.53996 106.614L16.176 109.426C17.218 106.618 20.137 104.967 23.0561 105.673C25.9751 106.38 27.8766 109.197 27.596 112.188L39.232 115C40.2741 112.192 43.1931 110.541 46.1121 111.247L65.8751 24.4822C62.9561 23.778 61.0546 20.9589 61.3351 17.9677L49.6969 15.1531C48.6549 17.9608 45.7358 19.6124 42.8168 18.9059C39.9 18.2016 37.9985 15.3825 38.2791 12.3913Z" fill="#4980A8"/>
<path d="M20.6264 28.8543C20.4817 28.8543 20.3325 28.8383 20.1855 28.8016L16.4449 27.8978C15.4118 27.6478 14.7705 26.5834 15.0132 25.5191C15.2559 24.4547 16.2891 23.7941 17.3222 24.0441L21.0628 24.9479C22.0959 25.1979 22.7372 26.2623 22.4945 27.3266C22.2874 28.2396 21.4992 28.8543 20.6264 28.8543Z" fill="white"/>
<path d="M51.5311 36.3255C51.3864 36.3255 51.2372 36.3094 51.0902 36.2727L43.3641 34.4055C42.3309 34.1555 41.6897 33.0911 41.9324 32.0268C42.1751 30.9624 43.2082 30.3018 44.2413 30.5518L51.9675 32.419C53.0006 32.6691 53.6419 33.7334 53.3992 34.7978C53.1921 35.7084 52.4017 36.3255 51.5311 36.3255ZM36.0787 32.5888C35.934 32.5888 35.7848 32.5727 35.6379 32.536L27.9117 30.6688C26.8786 30.4188 26.2373 29.3544 26.48 28.2901C26.7227 27.2257 27.7559 26.5651 28.789 26.8151L36.5152 28.6823C37.5483 28.9324 38.1895 29.9967 37.9468 31.0611C37.7398 31.974 36.9516 32.5888 36.0787 32.5888Z" fill="white"/>
<path d="M62.9975 39.0965C62.8528 39.0965 62.7036 39.0804 62.5566 39.0437L58.816 38.14C57.7829 37.8899 57.1416 36.8256 57.3843 35.7612C57.627 34.6969 58.6602 34.0363 59.6933 34.2863L63.4339 35.1901C64.467 35.4401 65.1083 36.5044 64.8656 37.5688C64.6585 38.4817 63.8681 39.0965 62.9975 39.0965Z" fill="white"/>
<path d="M21.6103 35.7619L8.11523 94.994L41.0535 102.959L54.5486 43.7268L21.6103 35.7619Z" fill="white"/>
<path d="M71.0446 15.7999C70.666 15.7999 70.2853 15.6852 69.9535 15.4467L66.794 13.1941C65.9212 12.5725 65.703 11.3384 66.3087 10.4392C66.9121 9.54001 68.1099 9.31522 68.9828 9.93914L72.1423 12.1917C73.0151 12.8133 73.2333 14.0474 72.6276 14.9466C72.2514 15.504 71.6524 15.7999 71.0446 15.7999Z" fill="white"/>
<path d="M97.1423 34.4169C96.7638 34.4169 96.3831 34.3022 96.0513 34.0637L89.5275 29.4094C88.6547 28.7878 88.4365 27.5537 89.0421 26.6545C89.6455 25.7553 90.8434 25.5305 91.7162 26.1545L98.24 30.8087C99.1128 31.4303 99.331 32.6644 98.7254 33.5636C98.3513 34.1187 97.7524 34.4169 97.1423 34.4169ZM84.0925 25.1085C83.7139 25.1085 83.3332 24.9938 83.0015 24.7552L76.4776 20.101C75.6048 19.4793 75.3866 18.2453 75.9922 17.3461C76.5956 16.4469 77.7935 16.2221 78.6663 16.846L85.1902 21.5002C86.063 22.1219 86.2812 23.356 85.6756 24.2551C85.3015 24.8103 84.7025 25.1085 84.0925 25.1085Z" fill="white"/>
<path d="M106.826 41.3235C106.447 41.3235 106.067 41.2088 105.735 40.9703L102.575 38.7177C101.702 38.0961 101.484 36.862 102.09 35.9628C102.693 35.0636 103.891 34.8388 104.764 35.4627L107.923 37.7153C108.796 38.3369 109.014 39.571 108.409 40.4702C108.035 41.0253 107.436 41.3235 106.826 41.3235Z" fill="white"/>
</g>
<path d="M120.024 66.7144L118.026 64.2904C117.398 63.5281 116.561 63.1088 115.667 63.1088C114.774 63.1088 113.936 63.5281 113.308 64.2904L85.2317 98.3497L67.69 77.0689C67.0621 76.3079 66.2245 75.8879 65.3308 75.8879C64.4376 75.8879 63.6005 76.3079 62.9721 77.0689L60.9735 79.4923C60.3452 80.2558 60 81.2725 60 82.3554C60 83.439 60.3452 84.4551 60.9735 85.2174L80.7792 109.243C80.8055 109.288 80.8332 109.33 80.8655 109.368L82.8641 111.753C83.4919 112.512 84.3296 112.892 85.2302 112.892H85.2406C86.1348 112.892 86.9724 112.512 87.5993 111.753L89.5984 109.347C89.6306 109.309 89.6579 109.277 89.6743 109.244L120.024 72.431C121.325 70.8553 121.325 68.2918 120.024 66.7144Z" fill="#B32B32"/>
<defs>
<clipPath id="clip0">
<rect width="114" height="115" fill="white"/>
</clipPath>
</defs>
</svg>
