<svg width="238" height="36" viewBox="0 0 238 36" fill="none" xmlns="http://www.w3.org/2000/svg">
<path d="M62.7539 8.02881C62.6787 8.69124 62.4227 9.19971 61.9858 9.5542C61.5526 9.90869 60.9761 10.0859 60.2563 10.0859C59.4972 10.0859 58.8813 9.82992 58.4087 9.31787C57.9396 8.80583 57.7051 8.10042 57.7051 7.20166V6.51416C57.7051 5.9484 57.8107 5.44889 58.022 5.01562C58.2368 4.57878 58.5394 4.24398 58.9297 4.01123C59.32 3.7749 59.7729 3.65674 60.2886 3.65674C61.0047 3.65674 61.5758 3.83757 62.002 4.19922C62.4281 4.55729 62.6787 5.06755 62.7539 5.72998H62.1094C62.0449 5.243 61.8677 4.86882 61.5776 4.60742C61.2876 4.34245 60.8579 4.20996 60.2886 4.20996C59.687 4.20996 59.2126 4.41406 58.8652 4.82227C58.5179 5.23047 58.3442 5.7998 58.3442 6.53027V7.23926C58.3442 7.95182 58.5143 8.514 58.8545 8.92578C59.1982 9.33757 59.6655 9.54346 60.2563 9.54346C60.8328 9.54346 61.2679 9.41813 61.5615 9.16748C61.8587 8.91683 62.0413 8.53727 62.1094 8.02881H62.7539ZM66.6211 7.48633H64.7197V10H64.0806V3.74268H66.2988C67.0186 3.74268 67.5807 3.91097 67.9854 4.24756C68.3936 4.58415 68.5977 5.04606 68.5977 5.6333C68.5977 6.04508 68.4723 6.40495 68.2217 6.71289C67.971 7.01725 67.6398 7.22673 67.228 7.34131L68.8823 9.94629V10H68.1948L66.6211 7.48633ZM64.7197 6.93848H66.417C66.8825 6.93848 67.2549 6.81852 67.5342 6.57861C67.8135 6.3387 67.9531 6.02897 67.9531 5.64941C67.9531 5.23047 67.8081 4.90104 67.5181 4.66113C67.2316 4.42122 66.8306 4.29948 66.3149 4.2959H64.7197V6.93848ZM73.856 7.02979H70.7568V9.45752H74.3286V10H70.1177V3.74268H74.3071V4.2959H70.7568V6.48193H73.856V7.02979ZM75.4888 10V3.74268H77.3901C77.9416 3.74268 78.4357 3.86084 78.8726 4.09717C79.3094 4.3335 79.6496 4.66829 79.8931 5.10156C80.1401 5.53125 80.2673 6.01644 80.2744 6.55713V7.14258C80.2744 7.69759 80.1545 8.19173 79.9146 8.625C79.6782 9.05469 79.3398 9.38949 78.8994 9.62939C78.4626 9.8693 77.9631 9.99284 77.4009 10H75.4888ZM76.1279 4.2959V9.45752H77.3525C78.0472 9.45752 78.6004 9.24805 79.0122 8.8291C79.4276 8.41016 79.6353 7.83724 79.6353 7.11035V6.6001C79.6353 5.90186 79.4329 5.34326 79.0283 4.92432C78.6237 4.50537 78.0723 4.2959 77.374 4.2959H76.1279ZM82.4443 10H81.7998V3.74268H82.4443V10ZM88.8359 4.2959H86.5479V10H85.9087V4.2959H83.626V3.74268H88.8359V4.2959ZM97.3867 8.02881C97.3115 8.69124 97.0555 9.19971 96.6187 9.5542C96.1854 9.90869 95.6089 10.0859 94.8892 10.0859C94.13 10.0859 93.5142 9.82992 93.0415 9.31787C92.5724 8.80583 92.3379 8.10042 92.3379 7.20166V6.51416C92.3379 5.9484 92.4435 5.44889 92.6548 5.01562C92.8696 4.57878 93.1722 4.24398 93.5625 4.01123C93.9528 3.7749 94.4058 3.65674 94.9214 3.65674C95.6375 3.65674 96.2087 3.83757 96.6348 4.19922C97.0609 4.55729 97.3115 5.06755 97.3867 5.72998H96.7422C96.6777 5.243 96.5005 4.86882 96.2104 4.60742C95.9204 4.34245 95.4907 4.20996 94.9214 4.20996C94.3198 4.20996 93.8454 4.41406 93.498 4.82227C93.1507 5.23047 92.9771 5.7998 92.9771 6.53027V7.23926C92.9771 7.95182 93.1471 8.514 93.4873 8.92578C93.8311 9.33757 94.2983 9.54346 94.8892 9.54346C95.4657 9.54346 95.9007 9.41813 96.1943 9.16748C96.4915 8.91683 96.6742 8.53727 96.7422 8.02881H97.3867ZM102.387 8.32959H99.3525L98.6865 10H98.0205L100.566 3.74268H101.184L103.708 10H103.048L102.387 8.32959ZM99.5674 7.78174H102.167L100.873 4.51074L99.5674 7.78174ZM107.205 7.48633H105.304V10H104.665V3.74268H106.883C107.603 3.74268 108.165 3.91097 108.569 4.24756C108.978 4.58415 109.182 5.04606 109.182 5.6333C109.182 6.04508 109.056 6.40495 108.806 6.71289C108.555 7.01725 108.224 7.22673 107.812 7.34131L109.466 9.94629V10H108.779L107.205 7.48633ZM105.304 6.93848H107.001C107.466 6.93848 107.839 6.81852 108.118 6.57861C108.397 6.3387 108.537 6.02897 108.537 5.64941C108.537 5.23047 108.392 4.90104 108.102 4.66113C107.816 4.42122 107.415 4.29948 106.899 4.2959H105.304V6.93848ZM110.702 10V3.74268H112.603C113.154 3.74268 113.649 3.86084 114.085 4.09717C114.522 4.3335 114.862 4.66829 115.106 5.10156C115.353 5.53125 115.48 6.01644 115.487 6.55713V7.14258C115.487 7.69759 115.367 8.19173 115.127 8.625C114.891 9.05469 114.553 9.38949 114.112 9.62939C113.675 9.8693 113.176 9.99284 112.614 10H110.702ZM111.341 4.2959V9.45752H112.565C113.26 9.45752 113.813 9.24805 114.225 8.8291C114.64 8.41016 114.848 7.83724 114.848 7.11035V6.6001C114.848 5.90186 114.646 5.34326 114.241 4.92432C113.837 4.50537 113.285 4.2959 112.587 4.2959H111.341ZM120.332 10H119.688V3.74268H120.332V10ZM127.159 10H126.52L122.749 4.75244V10H122.11V3.74268H122.749L126.52 8.99023V3.74268H127.159V10ZM132.551 7.13721H129.452V10H128.813V3.74268H133.002V4.2959H129.452V6.58936H132.551V7.13721ZM139.131 7.18555C139.131 8.06641 138.893 8.77002 138.417 9.29639C137.94 9.82275 137.301 10.0859 136.499 10.0859C135.701 10.0859 135.06 9.82096 134.576 9.29102C134.096 8.76107 133.856 8.05029 133.856 7.15869V6.56787C133.856 5.99137 133.964 5.48291 134.179 5.04248C134.394 4.60205 134.701 4.26188 135.103 4.02197C135.507 3.77848 135.969 3.65674 136.488 3.65674C137.265 3.65674 137.894 3.91097 138.374 4.41943C138.857 4.92432 139.109 5.60465 139.131 6.46045V7.18555ZM138.497 6.55713C138.497 5.82666 138.316 5.25553 137.955 4.84375C137.597 4.42839 137.108 4.2207 136.488 4.2207C135.876 4.2207 135.389 4.42839 135.027 4.84375C134.669 5.25553 134.49 5.8374 134.49 6.58936V7.18555C134.49 7.91243 134.671 8.48535 135.033 8.9043C135.394 9.32324 135.883 9.53271 136.499 9.53271C137.122 9.53271 137.611 9.32503 137.965 8.90967C138.32 8.4943 138.497 7.91243 138.497 7.16406V6.55713ZM143.062 7.48633H141.161V10H140.522V3.74268H142.74C143.46 3.74268 144.022 3.91097 144.427 4.24756C144.835 4.58415 145.039 5.04606 145.039 5.6333C145.039 6.04508 144.914 6.40495 144.663 6.71289C144.412 7.01725 144.081 7.22673 143.669 7.34131L145.324 9.94629V10H144.636L143.062 7.48633ZM141.161 6.93848H142.858C143.324 6.93848 143.696 6.81852 143.976 6.57861C144.255 6.3387 144.395 6.02897 144.395 5.64941C144.395 5.23047 144.25 4.90104 143.959 4.66113C143.673 4.42122 143.272 4.29948 142.756 4.2959H141.161V6.93848ZM147.402 3.74268L149.819 9.1084L152.236 3.74268H153.09V10H152.451V7.43799L152.51 4.52148L150.061 10H149.578L147.139 4.55908L147.198 7.43799V10H146.559V3.74268H147.402ZM158.418 8.32959H155.384L154.718 10H154.052L156.598 3.74268H157.215L159.74 10H159.079L158.418 8.32959ZM155.599 7.78174H158.198L156.904 4.51074L155.599 7.78174ZM164.977 4.2959H162.688V10H162.049V4.2959H159.767V3.74268H164.977V4.2959ZM166.813 10H166.169V3.74268H166.813V10ZM173.603 7.18555C173.603 8.06641 173.364 8.77002 172.888 9.29639C172.412 9.82275 171.773 10.0859 170.971 10.0859C170.172 10.0859 169.531 9.82096 169.048 9.29102C168.568 8.76107 168.328 8.05029 168.328 7.15869V6.56787C168.328 5.99137 168.436 5.48291 168.65 5.04248C168.865 4.60205 169.173 4.26188 169.574 4.02197C169.979 3.77848 170.441 3.65674 170.96 3.65674C171.737 3.65674 172.365 3.91097 172.845 4.41943C173.329 4.92432 173.581 5.60465 173.603 6.46045V7.18555ZM172.969 6.55713C172.969 5.82666 172.788 5.25553 172.426 4.84375C172.068 4.42839 171.579 4.2207 170.96 4.2207C170.348 4.2207 169.861 4.42839 169.499 4.84375C169.141 5.25553 168.962 5.8374 168.962 6.58936V7.18555C168.962 7.91243 169.143 8.48535 169.504 8.9043C169.866 9.32324 170.355 9.53271 170.971 9.53271C171.594 9.53271 172.083 9.32503 172.437 8.90967C172.792 8.4943 172.969 7.91243 172.969 7.16406V6.55713ZM180.053 10H179.414L175.644 4.75244V10H175.004V3.74268H175.644L179.414 8.99023V3.74268H180.053V10Z" fill="#333333" fill-opacity="0.4"/>
<line y1="7.85" x2="53" y2="7.85" stroke="#333333" stroke-opacity="0.4" stroke-width="0.3"/>
<line x1="185" y1="7.85" x2="238" y2="7.85" stroke="#333333" stroke-opacity="0.4" stroke-width="0.3"/>
<circle cx="118.5" cy="27.5" r="8.5" fill="#4980A8"/>
<g clip-path="url(#clip0)">
<path d="M122.619 24.381C122.111 23.873 121.284 23.873 120.776 24.381L115.554 29.6026C115.552 29.6051 115.55 29.6081 115.548 29.6107C115.545 29.6142 115.542 29.618 115.54 29.6217C115.532 29.6324 115.526 29.6439 115.522 29.6563C115.52 29.6601 115.518 29.6634 115.517 29.6672C115.517 29.6686 115.516 29.6701 115.516 29.6715L115.004 31.8218C115.001 31.8315 115.001 31.8413 115.001 31.851C115.001 31.8529 115 31.8546 115 31.8565C115 31.873 115.004 31.8891 115.009 31.9046C115.011 31.9082 115.012 31.9114 115.014 31.9149C115.021 31.9304 115.03 31.9453 115.042 31.9577C115.056 31.9715 115.072 31.982 115.09 31.9893C115.107 31.9965 115.126 32.0001 115.145 32.0001C115.156 32.0001 115.167 31.9988 115.178 31.9962L117.328 31.4844C117.332 31.4835 117.336 31.4813 117.339 31.48C117.344 31.4784 117.349 31.4766 117.354 31.4744C117.364 31.4696 117.374 31.4637 117.383 31.4566C117.386 31.4538 117.39 31.4518 117.393 31.4488C117.394 31.4476 117.396 31.447 117.397 31.4459L122.619 26.2241C123.127 25.7158 123.127 24.889 122.619 24.381ZM122.414 24.5857C122.774 24.9461 122.805 25.512 122.508 25.9087L121.091 24.4916C121.488 24.1948 122.054 24.2254 122.414 24.5857ZM121.697 26.7359L120.264 25.3024L120.469 25.0977L121.902 26.5312L121.697 26.7359ZM115.718 31.2815C115.662 31.2249 115.57 31.2249 115.514 31.2815L115.404 31.3911L115.774 29.8378L116.414 29.7667L116.332 30.5083C116.331 30.5138 116.333 30.5189 116.333 30.5242C116.333 30.5297 116.331 30.5347 116.332 30.5402C116.332 30.5449 116.335 30.5489 116.336 30.5535C116.337 30.5619 116.34 30.5696 116.343 30.5774C116.347 30.5868 116.351 30.5953 116.357 30.6036C116.361 30.6102 116.366 30.6162 116.371 30.622C116.378 30.6294 116.386 30.6356 116.394 30.6414C116.4 30.6459 116.407 30.6501 116.414 30.6535C116.423 30.658 116.433 30.6606 116.444 30.6631C116.449 30.6644 116.454 30.6674 116.46 30.6682C116.465 30.6687 116.47 30.669 116.475 30.669H116.475H116.476H116.476H116.476C116.481 30.669 116.486 30.6687 116.492 30.6682L117.233 30.5858L117.162 31.2261L115.609 31.5959L115.718 31.4863C115.775 31.4298 115.775 31.3381 115.718 31.2815ZM117.536 30.4882L120.776 27.2478C120.832 27.1912 120.832 27.0997 120.776 27.043C120.719 26.9864 120.628 26.9864 120.571 27.043L117.331 30.2834L116.64 30.3602L116.716 29.6691L119.957 26.4288C120.014 26.3722 120.014 26.2807 119.957 26.2241C119.9 26.1675 119.809 26.1675 119.752 26.2241L116.512 29.4643L116.051 29.5156L120.059 25.5072L121.493 26.9407L117.484 30.9491L117.536 30.4882ZM122.107 26.3264L120.673 24.893L120.878 24.6881L122.312 26.1216L122.107 26.3264Z" fill="#FAFAFA"/>
</g>
<defs>
<clipPath id="clip0">
<rect width="8" height="8" fill="white" transform="translate(115 24)"/>
</clipPath>
</defs>
</svg>
