<svg width="30" height="25" viewBox="0 0 30 25" fill="none" xmlns="http://www.w3.org/2000/svg">
<g clip-path="url(#clip0)">
<path d="M7.50509 16.4606H21.2801C22.8421 16.4606 24.1163 15.1864 24.1163 13.6244V7.82876C24.1163 7.82363 24.1163 7.81335 24.1163 7.80821C24.1163 7.7928 24.1163 7.78252 24.1163 7.76711C24.1163 7.75683 24.1163 7.74656 24.1112 7.73628C24.1112 7.726 24.106 7.71059 24.106 7.70031C24.106 7.69004 24.1009 7.67976 24.1009 7.66949C24.0957 7.65921 24.0957 7.64893 24.0906 7.63352C24.0855 7.62324 24.0855 7.61297 24.0803 7.60269C24.0752 7.59241 24.0752 7.58214 24.0701 7.57186C24.0649 7.56159 24.0598 7.55131 24.0546 7.5359C24.0495 7.52562 24.0444 7.51535 24.0392 7.51021C24.0341 7.49993 24.029 7.48966 24.0238 7.47938C24.0187 7.4691 24.0135 7.46396 24.0084 7.45369C24.0033 7.44341 23.993 7.43314 23.9878 7.42286C23.9827 7.41258 23.9776 7.40745 23.9673 7.39717C23.9622 7.38689 23.9519 7.38176 23.9467 7.37148C23.9416 7.3612 23.9313 7.35607 23.9262 7.34579C23.9211 7.33551 23.9108 7.33038 23.9056 7.32524C23.8954 7.31496 23.8902 7.30982 23.88 7.29955C23.8697 7.29441 23.8645 7.28413 23.8543 7.279C23.844 7.27386 23.8337 7.26358 23.8234 7.25844C23.8132 7.25331 23.808 7.24817 23.7977 7.24303C23.7875 7.23789 23.7772 7.23275 23.7669 7.22248C23.7566 7.21734 23.7464 7.2122 23.7361 7.20706C23.7258 7.20193 23.7155 7.19679 23.7053 7.19165C23.695 7.18651 23.6847 7.18137 23.6744 7.17624C23.6642 7.1711 23.6539 7.1711 23.6436 7.16596C23.6333 7.16082 23.6179 7.15568 23.6076 7.15568C23.5974 7.15568 23.5871 7.15055 23.5819 7.15055C23.5665 7.14541 23.5563 7.14541 23.5408 7.14541C23.5357 7.14541 23.5306 7.14027 23.5203 7.14027L6.06131 4.73054V2.29512C6.06131 2.26943 6.06131 2.24374 6.05617 2.22319C6.05617 2.21805 6.05617 2.21291 6.05103 2.20263C6.05103 2.18722 6.04589 2.17181 6.04589 2.15639C6.04075 2.14098 6.04075 2.1307 6.03562 2.11529C6.03562 2.10501 6.03048 2.09987 6.03048 2.0896C6.02534 2.07418 6.0202 2.05877 6.01506 2.04336C6.01506 2.03822 6.00993 2.02794 6.00993 2.0228C6.00479 2.00739 5.99965 1.99711 5.98937 1.9817C5.98423 1.97656 5.98424 1.96629 5.9791 1.96115C5.97396 1.95087 5.96882 1.9406 5.95855 1.93032C5.95341 1.92004 5.94827 1.91491 5.94313 1.90463C5.93799 1.89435 5.93286 1.88922 5.92772 1.87894C5.92258 1.86866 5.9123 1.85839 5.90716 1.84811C5.90203 1.84297 5.89689 1.83784 5.89175 1.8327C5.88147 1.82242 5.8712 1.81214 5.86092 1.80187C5.85578 1.79673 5.85065 1.79159 5.84551 1.78646C5.83523 1.77618 5.82496 1.7659 5.80954 1.75563C5.8044 1.75049 5.79413 1.74535 5.78899 1.74021C5.77871 1.72994 5.76844 1.7248 5.75816 1.71452C5.74275 1.70425 5.72733 1.69397 5.71706 1.68883C5.71192 1.68369 5.70678 1.68369 5.70164 1.67856C5.68109 1.66828 5.6554 1.658 5.63485 1.64773L1.84813 0.0549431C1.49361 -0.0940594 1.0877 0.0703571 0.938702 0.42488C0.789699 0.779404 0.954116 1.18531 1.30864 1.33431L4.6689 2.7524V5.89687V6.39526V10.2179V13.6347V17.9507C4.6689 19.3893 5.74789 20.5813 7.14029 20.7612C6.88853 21.1825 6.73952 21.6757 6.73952 22.1998C6.73952 23.7463 7.99834 25 9.53974 25C11.0811 25 12.34 23.7412 12.34 22.1998C12.34 21.686 12.2012 21.1979 11.9546 20.7868H18.1922C17.9455 21.203 17.8068 21.686 17.8068 22.1998C17.8068 23.7463 19.0656 25 20.607 25C22.1484 25 23.4073 23.7412 23.4073 22.1998C23.4073 20.6584 22.1484 19.3996 20.607 19.3996H7.50509C6.70356 19.3996 6.05617 18.7471 6.05617 17.9507V16.0701C6.47748 16.3168 6.97587 16.4606 7.50509 16.4606ZM10.9578 22.1947C10.9578 22.9756 10.3207 23.6076 9.54488 23.6076C8.76904 23.6076 8.13193 22.9705 8.13193 22.1947C8.13193 21.4188 8.76904 20.7817 9.54488 20.7817C10.3207 20.7817 10.9578 21.4137 10.9578 22.1947ZM22.0251 22.1947C22.0251 22.9756 21.388 23.6076 20.6122 23.6076C19.8363 23.6076 19.1992 22.9705 19.1992 22.1947C19.1992 21.4188 19.8363 20.7817 20.6122 20.7817C21.388 20.7817 22.0251 21.4137 22.0251 22.1947ZM21.2801 15.0734H7.50509C6.70356 15.0734 6.05617 14.4208 6.05617 13.6244V10.2077V6.38498V6.12808L22.729 8.42477V13.6193C22.729 14.426 22.0765 15.0734 21.2801 15.0734Z" fill="white"/>
</g>
<circle cx="24" cy="6" r="6" fill="#B32B32"/>
<path d="M21.9102 5.11719V4.16992C22.3496 4.15039 22.6572 4.12109 22.833 4.08203C23.113 4.02018 23.3408 3.89648 23.5166 3.71094C23.637 3.58398 23.7282 3.41471 23.79 3.20312C23.8258 3.07617 23.8438 2.98177 23.8438 2.91992H25.001V10H23.5752V5.11719H21.9102Z" fill="#FAFAFA"/>
<defs>
<clipPath id="clip0">
<rect width="25" height="25" fill="white"/>
</clipPath>
</defs>
</svg>
