<svg width="178" height="143" viewBox="0 0 178 143" fill="none" xmlns="http://www.w3.org/2000/svg">
<rect width="178" height="143" fill="#E9EDEB" fill-opacity="0.59"/>
<path d="M50.5 111C48.8033 111 47 111.526 47 112.5C47 113.474 48.8033 114 50.5 114C52.1967 114 54 113.474 54 112.5C54 111.526 52.1967 111 50.5 111Z" fill="#333333"/>
<path d="M50.5 101C48.0187 101 46 103.088 46 105.655C46 107.248 46.7328 108.961 48.1782 110.747C49.2424 112.062 50.2911 112.906 50.3353 112.942C50.3837 112.981 50.4419 113 50.5 113C50.5581 113 50.6162 112.981 50.6647 112.942C50.7088 112.906 51.7577 112.062 52.8218 110.747C54.2672 108.961 55 107.248 55 105.655C55 103.088 52.9813 101 50.5 101ZM52.1875 105.655C52.1875 106.619 51.432 107.4 50.5 107.4C49.5681 107.4 48.8126 106.619 48.8126 105.655C48.8126 104.691 49.5681 103.909 50.5 103.909C51.432 103.909 52.1875 104.691 52.1875 105.655Z" fill="#4980A8"/>
<path d="M18.2959 15.3477H14.6489V19H13.9883V11.1797H18.833V11.7437H14.6489V14.7837H18.2959V15.3477ZM22.5713 13.7363C22.4352 13.7113 22.2902 13.6987 22.1362 13.6987C21.7352 13.6987 21.395 13.8115 21.1157 14.0371C20.84 14.2591 20.6431 14.5832 20.5249 15.0093V19H19.8857V13.1885H20.5142L20.5249 14.1123C20.8651 13.4248 21.4111 13.0811 22.1631 13.0811C22.3421 13.0811 22.4836 13.1043 22.5874 13.1509L22.5713 13.7363ZM23.1299 16.0083C23.1299 15.4497 23.2373 14.9466 23.4521 14.499C23.6706 14.0514 23.9767 13.7041 24.3706 13.457C24.7681 13.2064 25.2174 13.0811 25.7188 13.0811C26.4922 13.0811 27.1188 13.3532 27.5986 13.8975C28.0785 14.4382 28.3184 15.1561 28.3184 16.0513V16.1855C28.3184 16.7477 28.2091 17.2544 27.9907 17.7056C27.7759 18.1532 27.4715 18.4987 27.0776 18.7422C26.6838 18.9857 26.2344 19.1074 25.7295 19.1074C24.9596 19.1074 24.333 18.8371 23.8496 18.2964C23.3698 17.7521 23.1299 17.0324 23.1299 16.1372V16.0083ZM23.7744 16.1855C23.7744 16.8802 23.9535 17.4513 24.3115 17.8989C24.6732 18.3429 25.1458 18.5649 25.7295 18.5649C26.3096 18.5649 26.7786 18.3429 27.1367 17.8989C27.4984 17.4513 27.6792 16.8623 27.6792 16.1318V16.0083C27.6792 15.5643 27.5968 15.1579 27.4321 14.7891C27.2674 14.4202 27.0365 14.1356 26.7393 13.9351C26.4421 13.731 26.1019 13.6289 25.7188 13.6289C25.1458 13.6289 24.6785 13.8545 24.3169 14.3057C23.9552 14.7533 23.7744 15.3405 23.7744 16.0674V16.1855ZM30.2358 13.1885L30.2573 14.1338C30.4722 13.7829 30.7407 13.5197 31.063 13.3442C31.3853 13.1688 31.7433 13.0811 32.1372 13.0811C33.0539 13.0811 33.6357 13.457 33.8828 14.209C34.0905 13.8473 34.368 13.5698 34.7153 13.3765C35.0627 13.1795 35.4458 13.0811 35.8647 13.0811C37.1108 13.0811 37.7464 13.7614 37.7715 15.1221V19H37.127V15.1704C37.1234 14.6512 37.0106 14.2663 36.7886 14.0156C36.5701 13.765 36.2121 13.6396 35.7144 13.6396C35.2524 13.6468 34.8621 13.7972 34.5435 14.0908C34.2248 14.3809 34.0475 14.7354 34.0117 15.1543V19H33.3672V15.1221C33.3636 14.6243 33.2454 14.2537 33.0127 14.0103C32.7835 13.7632 32.429 13.6396 31.9492 13.6396C31.5446 13.6396 31.1973 13.756 30.9072 13.9888C30.6172 14.2179 30.4023 14.5599 30.2627 15.0146V19H29.6182V13.1885H30.2358Z" fill="#333333"/>
<path d="M33.2949 100.744H30.6147V108H29.9541V100.744H27.2793V100.18H33.2949V100.744ZM33.5205 105.008C33.5205 104.45 33.6279 103.947 33.8428 103.499C34.0612 103.051 34.3674 102.704 34.7612 102.457C35.1587 102.206 35.6081 102.081 36.1094 102.081C36.8828 102.081 37.5094 102.353 37.9893 102.897C38.4691 103.438 38.709 104.156 38.709 105.051V105.186C38.709 105.748 38.5998 106.254 38.3813 106.706C38.1665 107.153 37.8621 107.499 37.4683 107.742C37.0744 107.986 36.625 108.107 36.1201 108.107C35.3503 108.107 34.7236 107.837 34.2402 107.296C33.7604 106.752 33.5205 106.032 33.5205 105.137V105.008ZM34.165 105.186C34.165 105.88 34.3441 106.451 34.7021 106.899C35.0638 107.343 35.5365 107.565 36.1201 107.565C36.7002 107.565 37.1693 107.343 37.5273 106.899C37.889 106.451 38.0698 105.862 38.0698 105.132V105.008C38.0698 104.564 37.9875 104.158 37.8228 103.789C37.658 103.42 37.4271 103.136 37.1299 102.935C36.8327 102.731 36.4925 102.629 36.1094 102.629C35.5365 102.629 35.0692 102.854 34.7075 103.306C34.3459 103.753 34.165 104.34 34.165 105.067V105.186Z" fill="#333333"/>
<circle cx="50" cy="16" r="3" fill="#B32B32"/>
<line x1="50.25" y1="23" x2="50.25" y2="28" stroke="#333333" stroke-width="0.5"/>
<line x1="50.25" y1="30" x2="50.25" y2="35" stroke="#333333" stroke-width="0.5"/>
<line x1="50.25" y1="37" x2="50.25" y2="42" stroke="#333333" stroke-width="0.5"/>
<line x1="50.25" y1="44" x2="50.25" y2="49" stroke="#333333" stroke-width="0.5"/>
<line x1="50.25" y1="51" x2="50.25" y2="56" stroke="#333333" stroke-width="0.5"/>
<line x1="50.25" y1="58" x2="50.25" y2="63" stroke="#333333" stroke-width="0.5"/>
<line x1="50.25" y1="65" x2="50.25" y2="70" stroke="#333333" stroke-width="0.5"/>
<line x1="50.25" y1="72" x2="50.25" y2="77" stroke="#333333" stroke-width="0.5"/>
<line x1="50.25" y1="79" x2="50.25" y2="84" stroke="#333333" stroke-width="0.5"/>
<line x1="50.25" y1="86" x2="50.25" y2="91" stroke="#333333" stroke-width="0.5"/>
<line x1="50.25" y1="93" x2="50.25" y2="98" stroke="#333333" stroke-width="0.5"/>
<path d="M62.8296 68H62.5923L63.1372 64.8271H59.1821L58.6328 68H58.3955L59.4985 61.6016H59.7358L59.2217 64.5898H63.1768L63.6953 61.6016H63.9282L62.8296 68ZM67.4746 68C67.4658 67.7422 67.4937 67.4521 67.5581 67.1299C67.312 67.4316 67.019 67.6675 66.6792 67.8374C66.3423 68.0073 65.9761 68.0908 65.5806 68.0879C65.1821 68.0879 64.8643 67.9648 64.627 67.7188C64.3896 67.4727 64.3003 67.165 64.3589 66.7959C64.4321 66.3477 64.6797 65.9976 65.1016 65.7456C65.5264 65.4937 66.064 65.3604 66.7144 65.3457H67.8438L67.9712 64.6514C68.0327 64.2617 67.9551 63.9556 67.7383 63.7329C67.5215 63.5073 67.2095 63.3945 66.8022 63.3945C66.4038 63.3945 66.0435 63.5015 65.7212 63.7153C65.3989 63.9263 65.1968 64.2046 65.1147 64.5503L64.8774 64.5415C64.9595 64.1343 65.1851 63.8018 65.5542 63.5439C65.9233 63.2861 66.3394 63.1572 66.8022 63.1572C67.2856 63.1572 67.6562 63.2949 67.9141 63.5703C68.1719 63.8428 68.2671 64.2061 68.1997 64.6602L67.7646 67.2002L67.7339 67.499C67.7192 67.6543 67.7251 67.8081 67.7515 67.9604L67.7471 68H67.4746ZM65.5762 67.855C65.9688 67.8608 66.3423 67.7671 66.6968 67.5737C67.0513 67.3774 67.353 67.0918 67.6021 66.7168L67.8042 65.5874H66.7407C66.1489 65.5991 65.6597 65.7134 65.2729 65.9302C64.8892 66.144 64.6621 66.4385 64.5918 66.8135C64.5391 67.1035 64.6079 67.3481 64.7983 67.5474C64.9917 67.7466 65.251 67.8491 65.5762 67.855ZM69.9619 64.3525C70.1992 63.9688 70.479 63.6743 70.8013 63.4692C71.1235 63.2612 71.4561 63.1572 71.7988 63.1572C72.1621 63.1572 72.4478 63.251 72.6558 63.4385C72.8638 63.626 72.9839 63.897 73.0161 64.2515C73.0337 64.4741 73.022 64.707 72.981 64.9502L72.4536 68H72.2163L72.7437 64.9502C72.7788 64.7451 72.7935 64.543 72.7876 64.3438C72.7729 64.0332 72.6807 63.7959 72.5107 63.6318C72.3438 63.4678 72.1035 63.3872 71.79 63.3901C71.3887 63.396 71.002 63.5527 70.6299 63.8604C70.2607 64.165 70.0103 64.5298 69.8784 64.9546L69.3511 68H69.1138L69.9312 63.2451H70.1685L69.9619 64.3525ZM77.0327 66.8354C77.1382 66.2847 76.7368 65.8936 75.8286 65.6621L75.3408 65.5215C74.667 65.3018 74.3711 64.9136 74.4531 64.3569C74.5059 63.9966 74.6963 63.7065 75.0244 63.4868C75.3525 63.2671 75.7334 63.1572 76.167 63.1572C76.6445 63.1572 77.0181 63.2803 77.2876 63.5264C77.5571 63.7725 77.6714 64.1021 77.6304 64.5151H77.3931C77.4282 64.1812 77.3301 63.9116 77.0986 63.7065C76.8672 63.4985 76.5581 63.3945 76.1714 63.3945C75.7964 63.3945 75.4697 63.481 75.1914 63.6538C74.9131 63.8267 74.7461 64.0581 74.6904 64.3481C74.6025 64.814 74.8721 65.145 75.499 65.3413L76.1538 65.5303L76.3735 65.605C77.0562 65.854 77.355 66.2656 77.27 66.8398C77.2144 67.2178 77.0181 67.521 76.6812 67.7495C76.3442 67.9751 75.9414 68.0879 75.4727 68.0879C74.9834 68.0879 74.5923 67.9692 74.2993 67.7319C74.0063 67.4917 73.8804 67.1782 73.9214 66.7915H74.1543C74.1396 67.1196 74.248 67.3789 74.4795 67.5693C74.7139 67.7568 75.0435 67.8506 75.4683 67.8506C75.8726 67.8418 76.2212 67.7451 76.5142 67.5605C76.8071 67.373 76.98 67.1313 77.0327 66.8354ZM86.04 61.6016H86.2773L85.5215 65.9829C85.4102 66.6274 85.1597 67.1401 84.77 67.521C84.3833 67.8989 83.9219 68.0879 83.3857 68.0879C82.8291 68.0879 82.4189 67.918 82.1553 67.5781C81.8916 67.2354 81.8022 66.7886 81.8872 66.2378H82.1245C82.0864 66.4722 82.0835 66.6875 82.1157 66.8838C82.1655 67.1973 82.2988 67.4375 82.5156 67.6045C82.7354 67.7686 83.0239 67.8506 83.3813 67.8506C83.8589 67.8506 84.2705 67.6777 84.6162 67.332C84.9619 66.9863 85.1831 66.5366 85.2798 65.9829L86.04 61.6016ZM88.4482 68.0879C88.0674 68.0879 87.7393 67.981 87.4639 67.7671C87.1885 67.5532 86.9893 67.2617 86.8662 66.8926C86.7461 66.5205 86.7153 66.1309 86.7739 65.7236L86.8091 65.5039C86.8794 65.0762 87.0288 64.6763 87.2573 64.3042C87.4888 63.9321 87.7627 63.6479 88.0791 63.4517C88.3955 63.2554 88.7339 63.1572 89.0942 63.1572C89.5747 63.1572 89.9512 63.3345 90.2236 63.689C90.4961 64.0435 90.6118 64.4976 90.5708 65.0513L90.5576 65.1875L90.5181 65.4644H87.064L87.0156 65.7236C86.9746 65.9697 86.9731 66.2188 87.0112 66.4707C87.0757 66.8896 87.2354 67.2251 87.4902 67.4771C87.748 67.7261 88.0659 67.8521 88.4438 67.855C88.9917 67.8608 89.4854 67.644 89.9248 67.2046L90.083 67.3276C89.6494 67.8345 89.1045 68.0879 88.4482 68.0879ZM89.0942 63.3945C88.6431 63.3945 88.2388 63.5645 87.8813 63.9043C87.5269 64.2412 87.2632 64.6821 87.0903 65.2271H90.2983L90.3115 65.1699C90.3496 64.959 90.3525 64.748 90.3203 64.5371C90.2676 64.1914 90.1299 63.9146 89.9072 63.7065C89.6875 63.4985 89.4165 63.3945 89.0942 63.3945ZM92.0078 64.3525C92.2451 63.9688 92.5249 63.6743 92.8472 63.4692C93.1694 63.2612 93.502 63.1572 93.8447 63.1572C94.208 63.1572 94.4937 63.251 94.7017 63.4385C94.9097 63.626 95.0298 63.897 95.062 64.2515C95.0796 64.4741 95.0679 64.707 95.0269 64.9502L94.4995 68H94.2622L94.7896 64.9502C94.8247 64.7451 94.8394 64.543 94.8335 64.3438C94.8188 64.0332 94.7266 63.7959 94.5566 63.6318C94.3896 63.4678 94.1494 63.3872 93.8359 63.3901C93.4346 63.396 93.0479 63.5527 92.6758 63.8604C92.3066 64.165 92.0562 64.5298 91.9243 64.9546L91.397 68H91.1597L91.9771 63.2451H92.2144L92.0078 64.3525ZM99.0786 66.8354C99.1841 66.2847 98.7827 65.8936 97.8745 65.6621L97.3867 65.5215C96.7129 65.3018 96.417 64.9136 96.499 64.3569C96.5518 63.9966 96.7422 63.7065 97.0703 63.4868C97.3984 63.2671 97.7793 63.1572 98.2129 63.1572C98.6904 63.1572 99.064 63.2803 99.3335 63.5264C99.603 63.7725 99.7173 64.1021 99.6763 64.5151H99.439C99.4741 64.1812 99.376 63.9116 99.1445 63.7065C98.9131 63.4985 98.604 63.3945 98.2173 63.3945C97.8423 63.3945 97.5156 63.481 97.2373 63.6538C96.959 63.8267 96.792 64.0581 96.7363 64.3481C96.6484 64.814 96.918 65.145 97.5449 65.3413L98.1997 65.5303L98.4194 65.605C99.1021 65.854 99.4009 66.2656 99.3159 66.8398C99.2603 67.2178 99.064 67.521 98.7271 67.7495C98.3901 67.9751 97.9873 68.0879 97.5186 68.0879C97.0293 68.0879 96.6382 67.9692 96.3452 67.7319C96.0522 67.4917 95.9263 67.1782 95.9673 66.7915H96.2002C96.1855 67.1196 96.2939 67.3789 96.5254 67.5693C96.7598 67.7568 97.0894 67.8506 97.5142 67.8506C97.9185 67.8418 98.2671 67.7451 98.5601 67.5605C98.853 67.373 99.0259 67.1313 99.0786 66.8354ZM102.106 68.0879C101.726 68.0879 101.397 67.981 101.122 67.7671C100.847 67.5532 100.647 67.2617 100.524 66.8926C100.404 66.5205 100.374 66.1309 100.432 65.7236L100.467 65.5039C100.538 65.0762 100.687 64.6763 100.916 64.3042C101.147 63.9321 101.421 63.6479 101.737 63.4517C102.054 63.2554 102.392 63.1572 102.752 63.1572C103.233 63.1572 103.609 63.3345 103.882 63.689C104.154 64.0435 104.27 64.4976 104.229 65.0513L104.216 65.1875L104.176 65.4644H100.722L100.674 65.7236C100.633 65.9697 100.631 66.2188 100.669 66.4707C100.734 66.8896 100.894 67.2251 101.148 67.4771C101.406 67.7261 101.724 67.8521 102.102 67.855C102.65 67.8608 103.144 67.644 103.583 67.2046L103.741 67.3276C103.308 67.8345 102.763 68.0879 102.106 68.0879ZM102.752 63.3945C102.301 63.3945 101.897 63.5645 101.54 63.9043C101.185 64.2412 100.921 64.6821 100.749 65.2271H103.957L103.97 65.1699C104.008 64.959 104.011 64.748 103.979 64.5371C103.926 64.1914 103.788 63.9146 103.565 63.7065C103.346 63.4985 103.075 63.3945 102.752 63.3945ZM105.666 64.3525C105.903 63.9688 106.183 63.6743 106.505 63.4692C106.828 63.2612 107.16 63.1572 107.503 63.1572C107.866 63.1572 108.152 63.251 108.36 63.4385C108.568 63.626 108.688 63.897 108.72 64.2515C108.738 64.4741 108.726 64.707 108.685 64.9502L108.158 68H107.92L108.448 64.9502C108.483 64.7451 108.498 64.543 108.492 64.3438C108.477 64.0332 108.385 63.7959 108.215 63.6318C108.048 63.4678 107.808 63.3872 107.494 63.3901C107.093 63.396 106.706 63.5527 106.334 63.8604C105.965 64.165 105.714 64.5298 105.583 64.9546L105.055 68H104.818L105.635 63.2451H105.873L105.666 64.3525ZM112.737 66.8354C112.842 66.2847 112.441 65.8936 111.533 65.6621L111.045 65.5215C110.371 65.3018 110.075 64.9136 110.157 64.3569C110.21 63.9966 110.4 63.7065 110.729 63.4868C111.057 63.2671 111.438 63.1572 111.871 63.1572C112.349 63.1572 112.722 63.2803 112.992 63.5264C113.261 63.7725 113.375 64.1021 113.334 64.5151H113.097C113.132 64.1812 113.034 63.9116 112.803 63.7065C112.571 63.4985 112.262 63.3945 111.875 63.3945C111.5 63.3945 111.174 63.481 110.896 63.6538C110.617 63.8267 110.45 64.0581 110.395 64.3481C110.307 64.814 110.576 65.145 111.203 65.3413L111.858 65.5303L112.078 65.605C112.76 65.854 113.059 66.2656 112.974 66.8398C112.918 67.2178 112.722 67.521 112.385 67.7495C112.048 67.9751 111.646 68.0879 111.177 68.0879C110.688 68.0879 110.296 67.9692 110.003 67.7319C109.71 67.4917 109.584 67.1782 109.625 66.7915H109.858C109.844 67.1196 109.952 67.3789 110.184 67.5693C110.418 67.7568 110.748 67.8506 111.172 67.8506C111.577 67.8418 111.925 67.7451 112.218 67.5605C112.511 67.373 112.684 67.1313 112.737 66.8354ZM121.731 66.0093C121.672 65.7427 121.519 65.5215 121.27 65.3457C121.021 65.167 120.635 65 120.114 64.8447C119.592 64.6865 119.207 64.5283 118.958 64.3701C118.709 64.209 118.533 64.02 118.431 63.8032C118.331 63.5864 118.305 63.3447 118.352 63.0781C118.401 62.7646 118.535 62.4907 118.751 62.2563C118.968 62.019 119.245 61.8359 119.582 61.707C119.922 61.5781 120.282 61.5137 120.663 61.5137C121.041 61.5137 121.375 61.5957 121.665 61.7598C121.958 61.9238 122.17 62.1494 122.302 62.4365C122.437 62.7236 122.481 63.0459 122.434 63.4033H122.197C122.27 62.9258 122.162 62.5317 121.872 62.2212C121.582 61.9077 121.18 61.751 120.667 61.751C120.19 61.751 119.758 61.8594 119.371 62.0762C118.984 62.29 118.737 62.5757 118.628 62.9331C118.564 63.147 118.552 63.3389 118.593 63.5088C118.652 63.7695 118.812 63.9863 119.072 64.1592C119.336 64.3291 119.699 64.48 120.162 64.6118C120.877 64.814 121.375 65.0645 121.656 65.3633C121.938 65.6621 122.042 66.0269 121.968 66.4575C121.918 66.7827 121.782 67.0684 121.56 67.3145C121.34 67.5576 121.056 67.748 120.707 67.8857C120.358 68.0205 119.989 68.0879 119.6 68.0879C118.932 68.0879 118.413 67.915 118.044 67.5693C117.675 67.2236 117.53 66.7651 117.609 66.1938H117.846C117.773 66.6978 117.897 67.1006 118.22 67.4023C118.542 67.7012 119 67.8506 119.595 67.8506C120.073 67.8506 120.505 67.7451 120.892 67.5342C121.278 67.3203 121.536 67.0361 121.665 66.6816C121.753 66.4385 121.775 66.2144 121.731 66.0093ZM124.35 61.9619L124.13 63.2451H125.172L125.141 63.4868H124.086L123.484 66.9673L123.467 67.209C123.458 67.4082 123.499 67.5649 123.59 67.6792C123.681 67.7905 123.818 67.8477 124.003 67.8506C124.085 67.8506 124.245 67.8374 124.482 67.811L124.491 68.0352C124.356 68.0703 124.196 68.0879 124.012 68.0879C123.514 68.0879 123.254 67.8315 123.234 67.3188C123.228 67.1694 123.238 67.0171 123.265 66.8618L123.845 63.4868H122.997L123.032 63.2451H123.889L124.108 61.9619H124.35ZM128.433 63.4121L128.147 63.3901C127.754 63.3901 127.39 63.5352 127.053 63.8252C126.716 64.1152 126.49 64.4683 126.376 64.8843L125.835 68H125.598L126.416 63.2451H126.653L126.468 64.2339C126.667 63.894 126.911 63.6304 127.198 63.4429C127.485 63.2524 127.804 63.1572 128.156 63.1572C128.267 63.1572 128.378 63.1748 128.49 63.21L128.433 63.4121ZM133.284 68.0879C132.912 68.0879 132.59 67.9927 132.317 67.8022C132.045 67.6089 131.857 67.3379 131.755 66.9893L131.742 67.0508H131.75C131.542 67.376 131.26 67.6309 130.902 67.8154C130.548 67.9971 130.176 68.0879 129.786 68.0879C129.341 68.0879 128.995 67.9634 128.749 67.7144C128.506 67.4653 128.417 67.1445 128.481 66.752C128.557 66.2803 128.787 65.9097 129.171 65.6401C129.558 65.3677 130.044 65.2314 130.63 65.2314H131.812L131.882 64.8359C131.915 64.6455 131.923 64.4624 131.909 64.2866C131.885 64.0054 131.787 63.7871 131.614 63.6318C131.441 63.4736 131.207 63.3945 130.911 63.3945C130.483 63.3945 130.113 63.5059 129.799 63.7285C129.489 63.9482 129.291 64.2412 129.206 64.6074L128.978 64.5767C129.065 64.1431 129.288 63.7988 129.646 63.5439C130.006 63.2861 130.428 63.1572 130.911 63.1572C131.295 63.1572 131.597 63.2715 131.816 63.5C132.039 63.7285 132.147 64.0361 132.142 64.4229C132.37 64.0332 132.65 63.7256 132.981 63.5C133.312 63.2715 133.662 63.1572 134.031 63.1572C134.421 63.1572 134.74 63.2656 134.989 63.4824C135.241 63.6963 135.395 63.9907 135.451 64.3657C135.486 64.603 135.483 64.8462 135.442 65.0952L135.376 65.4644H132.036L132.023 65.5215L131.966 65.8027C131.919 66.0518 131.906 66.2993 131.926 66.5454C131.961 66.9526 132.096 67.272 132.331 67.5034C132.568 67.7349 132.884 67.8506 133.28 67.8506C133.819 67.8506 134.327 67.6602 134.805 67.2793L134.915 67.4727C134.452 67.8828 133.908 68.0879 133.284 68.0879ZM129.782 67.8594C130.113 67.8594 130.442 67.7817 130.771 67.6265C131.099 67.4683 131.342 67.2632 131.5 67.0112L131.772 65.4731H130.639C130.132 65.4731 129.704 65.5889 129.355 65.8203C129.007 66.0518 128.794 66.3682 128.718 66.7695C128.657 67.0918 128.723 67.354 128.916 67.5562C129.109 67.7583 129.398 67.8594 129.782 67.8594ZM134.031 63.3945C133.601 63.3945 133.212 63.5557 132.867 63.8779C132.524 64.1973 132.257 64.6455 132.067 65.2227H135.169L135.2 65.082C135.241 64.8682 135.25 64.6587 135.227 64.4536C135.183 64.1226 135.055 63.8633 134.844 63.6758C134.633 63.4883 134.362 63.3945 134.031 63.3945ZM136.215 65.5742C136.297 65.0967 136.441 64.6689 136.646 64.291C136.854 63.9131 137.104 63.6304 137.397 63.4429C137.69 63.2524 138.01 63.1572 138.355 63.1572C138.689 63.1572 138.979 63.2407 139.226 63.4077C139.475 63.5747 139.655 63.812 139.766 64.1196L140.267 61.25H140.504L139.34 68H139.103L139.252 67.2397C139.041 67.5063 138.789 67.7144 138.496 67.8638C138.203 68.0132 137.884 68.0879 137.538 68.0879C137.228 68.0879 136.967 68.0117 136.756 67.8594C136.545 67.7041 136.388 67.4785 136.286 67.1826C136.186 66.8838 136.142 66.5557 136.154 66.1982C136.16 66.0312 136.18 65.8232 136.215 65.5742ZM136.396 66.1323C136.372 66.4546 136.397 66.7505 136.47 67.02C136.543 67.2896 136.669 67.4961 136.848 67.6396C137.03 67.7803 137.257 67.8506 137.529 67.8506C137.91 67.8535 138.251 67.7627 138.553 67.5781C138.858 67.3936 139.107 67.1416 139.3 66.8223L139.696 64.5942C139.634 64.2134 139.486 63.9189 139.252 63.7109C139.021 63.5 138.722 63.3945 138.355 63.3945C137.983 63.3945 137.652 63.519 137.362 63.7681C137.072 64.0142 136.845 64.3569 136.681 64.7964C136.517 65.2358 136.422 65.6812 136.396 66.1323ZM142.565 68.0879C142.185 68.0879 141.856 67.981 141.581 67.7671C141.306 67.5532 141.106 67.2617 140.983 66.8926C140.863 66.5205 140.833 66.1309 140.891 65.7236L140.926 65.5039C140.997 65.0762 141.146 64.6763 141.375 64.3042C141.606 63.9321 141.88 63.6479 142.196 63.4517C142.513 63.2554 142.851 63.1572 143.211 63.1572C143.692 63.1572 144.068 63.3345 144.341 63.689C144.613 64.0435 144.729 64.4976 144.688 65.0513L144.675 65.1875L144.635 65.4644H141.181L141.133 65.7236C141.092 65.9697 141.09 66.2188 141.128 66.4707C141.193 66.8896 141.353 67.2251 141.607 67.4771C141.865 67.7261 142.183 67.8521 142.561 67.855C143.109 67.8608 143.603 67.644 144.042 67.2046L144.2 67.3276C143.767 67.8345 143.222 68.0879 142.565 68.0879ZM143.211 63.3945C142.76 63.3945 142.356 63.5645 141.999 63.9043C141.644 64.2412 141.38 64.6821 141.208 65.2271H144.416L144.429 65.1699C144.467 64.959 144.47 64.748 144.438 64.5371C144.385 64.1914 144.247 63.9146 144.024 63.7065C143.805 63.4985 143.534 63.3945 143.211 63.3945ZM61.4805 77.0181H62.5483L62.5176 77.2554H61.4409L61.1377 79H60.9048L61.2036 77.2554L58.1978 77.251L58.2153 77.1235L61.9507 72.606L62.2407 72.6016L61.4805 77.0181ZM58.6108 77.0181H61.2432L61.9551 72.9224L61.5068 73.5068L58.6108 77.0181ZM63.9414 75.647L64.7017 72.6016H67.7295L67.7031 72.8345H64.8862L64.2139 75.4009C64.5947 75.1226 65.0474 74.9805 65.5718 74.9746C65.9292 74.9746 66.2339 75.061 66.4858 75.2339C66.7407 75.4067 66.9224 75.6455 67.0308 75.9502C67.1421 76.2549 67.1714 76.5918 67.1187 76.9609C67.022 77.6143 66.792 78.1328 66.4287 78.5166C66.0654 78.8975 65.6069 79.0879 65.0532 79.0879C64.5464 79.0879 64.1494 78.9268 63.8623 78.6045C63.5752 78.2822 63.4434 77.853 63.4668 77.3169H63.7041C63.6807 77.7944 63.7861 78.1694 64.0205 78.4419C64.2578 78.7144 64.6021 78.8506 65.0532 78.8506C65.4517 78.8506 65.7974 78.7349 66.0903 78.5034C66.3833 78.272 66.603 77.9351 66.7495 77.4927C66.896 77.0474 66.9399 76.6519 66.8813 76.3062C66.8198 75.9634 66.6733 75.6968 66.4419 75.5063C66.2134 75.313 65.9263 75.2148 65.5806 75.2119C65.0503 75.2061 64.5625 75.3745 64.1172 75.7173L63.9414 75.647ZM67.5625 80.1206L67.4131 79.9712C67.7266 79.6196 67.9155 79.2593 67.98 78.8901L68.0811 78.3013H68.3184L68.2261 78.855C68.1411 79.3589 67.9199 79.7808 67.5625 80.1206ZM72.5811 75.647L73.3413 72.6016H76.3691L76.3428 72.8345H73.5259L72.8535 75.4009C73.2344 75.1226 73.687 74.9805 74.2114 74.9746C74.5688 74.9746 74.8735 75.061 75.1255 75.2339C75.3804 75.4067 75.562 75.6455 75.6704 75.9502C75.7817 76.2549 75.811 76.5918 75.7583 76.9609C75.6616 77.6143 75.4316 78.1328 75.0684 78.5166C74.7051 78.8975 74.2466 79.0879 73.6929 79.0879C73.186 79.0879 72.7891 78.9268 72.502 78.6045C72.2148 78.2822 72.083 77.853 72.1064 77.3169H72.3438C72.3203 77.7944 72.4258 78.1694 72.6602 78.4419C72.8975 78.7144 73.2417 78.8506 73.6929 78.8506C74.0913 78.8506 74.437 78.7349 74.73 78.5034C75.0229 78.272 75.2427 77.9351 75.3892 77.4927C75.5356 77.0474 75.5796 76.6519 75.521 76.3062C75.4595 75.9634 75.313 75.6968 75.0815 75.5063C74.853 75.313 74.5659 75.2148 74.2202 75.2119C73.6899 75.2061 73.2021 75.3745 72.7568 75.7173L72.5811 75.647ZM78.25 79.0879C77.916 79.0879 77.6348 79.0044 77.4062 78.8374C77.1777 78.6704 77.0093 78.4243 76.9009 78.0991C76.7954 77.771 76.7515 77.3975 76.769 76.9785L76.8042 76.5566L77.0151 75.3086C77.1646 74.4385 77.4385 73.7544 77.8369 73.2563C78.2354 72.7583 78.7349 72.5093 79.3354 72.5093C79.6753 72.5093 79.9595 72.5942 80.188 72.7642C80.4165 72.9312 80.5835 73.1802 80.689 73.5112C80.7944 73.8423 80.8369 74.2129 80.8164 74.623L80.7725 75.0977L80.5571 76.3457C80.4048 77.21 80.1294 77.8838 79.731 78.3672C79.3325 78.8477 78.8389 79.0879 78.25 79.0879ZM80.5791 74.1396C80.541 73.6768 80.4165 73.3296 80.2056 73.0981C79.9946 72.8638 79.7061 72.7466 79.3398 72.7466C78.8125 72.7466 78.3672 72.9722 78.0039 73.4233C77.6436 73.8716 77.3916 74.5088 77.248 75.335L77.0459 76.5215L77.0107 76.895C76.9814 77.2583 77.0063 77.5938 77.0854 77.9014C77.1646 78.209 77.3022 78.4448 77.4985 78.6089C77.6948 78.77 77.9438 78.8506 78.2456 78.8506C78.77 78.8506 79.2109 78.6294 79.5684 78.187C79.9287 77.7417 80.1792 77.1235 80.3198 76.3325L80.5044 75.2866C80.5806 74.856 80.6055 74.4736 80.5791 74.1396ZM83.0752 79.0879C82.7412 79.0879 82.46 79.0044 82.2314 78.8374C82.0029 78.6704 81.8345 78.4243 81.7261 78.0991C81.6206 77.771 81.5767 77.3975 81.5942 76.9785L81.6294 76.5566L81.8403 75.3086C81.9897 74.4385 82.2637 73.7544 82.6621 73.2563C83.0605 72.7583 83.5601 72.5093 84.1606 72.5093C84.5005 72.5093 84.7847 72.5942 85.0132 72.7642C85.2417 72.9312 85.4087 73.1802 85.5142 73.5112C85.6196 73.8423 85.6621 74.2129 85.6416 74.623L85.5977 75.0977L85.3823 76.3457C85.23 77.21 84.9546 77.8838 84.5562 78.3672C84.1577 78.8477 83.6641 79.0879 83.0752 79.0879ZM85.4043 74.1396C85.3662 73.6768 85.2417 73.3296 85.0308 73.0981C84.8198 72.8638 84.5312 72.7466 84.165 72.7466C83.6377 72.7466 83.1924 72.9722 82.8291 73.4233C82.4688 73.8716 82.2168 74.5088 82.0732 75.335L81.8711 76.5215L81.8359 76.895C81.8066 77.2583 81.8315 77.5938 81.9106 77.9014C81.9897 78.209 82.1274 78.4448 82.3237 78.6089C82.52 78.77 82.769 78.8506 83.0708 78.8506C83.5952 78.8506 84.0361 78.6294 84.3936 78.187C84.7539 77.7417 85.0044 77.1235 85.145 76.3325L85.3296 75.2866C85.4058 74.856 85.4307 74.4736 85.4043 74.1396ZM87.9004 79.0879C87.5664 79.0879 87.2852 79.0044 87.0566 78.8374C86.8281 78.6704 86.6597 78.4243 86.5513 78.0991C86.4458 77.771 86.4019 77.3975 86.4194 76.9785L86.4546 76.5566L86.6655 75.3086C86.8149 74.4385 87.0889 73.7544 87.4873 73.2563C87.8857 72.7583 88.3853 72.5093 88.9858 72.5093C89.3257 72.5093 89.6099 72.5942 89.8384 72.7642C90.0669 72.9312 90.2339 73.1802 90.3394 73.5112C90.4448 73.8423 90.4873 74.2129 90.4668 74.623L90.4229 75.0977L90.2075 76.3457C90.0552 77.21 89.7798 77.8838 89.3813 78.3672C88.9829 78.8477 88.4893 79.0879 87.9004 79.0879ZM90.2295 74.1396C90.1914 73.6768 90.0669 73.3296 89.856 73.0981C89.645 72.8638 89.3564 72.7466 88.9902 72.7466C88.4629 72.7466 88.0176 72.9722 87.6543 73.4233C87.2939 73.8716 87.042 74.5088 86.8984 75.335L86.6963 76.5215L86.6611 76.895C86.6318 77.2583 86.6567 77.5938 86.7358 77.9014C86.8149 78.209 86.9526 78.4448 87.1489 78.6089C87.3452 78.77 87.5942 78.8506 87.896 78.8506C88.4204 78.8506 88.8613 78.6294 89.2188 78.187C89.5791 77.7417 89.8296 77.1235 89.9702 76.3325L90.1548 75.2866C90.231 74.856 90.2559 74.4736 90.2295 74.1396ZM95.3623 79.0879C94.9814 79.0879 94.646 79.0015 94.356 78.8286C94.0688 78.6558 93.8462 78.4038 93.688 78.0728C93.5298 77.7417 93.4448 77.3696 93.4331 76.9565C93.4272 76.731 93.4434 76.5054 93.4814 76.2798L93.6309 75.4009C93.7275 74.8296 93.9121 74.3213 94.1846 73.876C94.46 73.4307 94.7925 73.0923 95.1821 72.8608C95.5747 72.6294 95.998 72.5137 96.4521 72.5137C96.8359 72.5137 97.1714 72.6016 97.4585 72.7773C97.7485 72.9502 97.9727 73.2036 98.1309 73.5376C98.2891 73.8687 98.3726 74.2363 98.3813 74.6406C98.3843 74.8867 98.3667 75.1226 98.3286 75.3481L98.1792 76.2314C98.0884 76.7705 97.9082 77.2612 97.6387 77.7036C97.3721 78.146 97.0425 78.4873 96.6499 78.7275C96.2573 78.9678 95.8281 79.0879 95.3623 79.0879ZM98.1528 74.6978C98.144 74.0913 97.9902 73.6152 97.6914 73.2695C97.3926 72.9238 96.9795 72.751 96.4521 72.751C95.8047 72.751 95.2466 72.9956 94.7778 73.4849C94.312 73.9741 94.0103 74.6157 93.8726 75.4097L93.7188 76.3062C93.6865 76.5024 93.6719 76.6987 93.6748 76.895C93.6748 77.4956 93.8242 77.9717 94.123 78.3232C94.4219 78.6748 94.835 78.8506 95.3623 78.8506C95.7637 78.8506 96.1387 78.751 96.4873 78.5518C96.8389 78.3525 97.1406 78.0552 97.3926 77.6597C97.6475 77.2642 97.8247 76.8115 97.9243 76.3018L98.0957 75.3394C98.1338 75.1255 98.1528 74.9116 98.1528 74.6978ZM99.2515 76.5742C99.3335 76.0967 99.4771 75.6689 99.6821 75.291C99.8901 74.9131 100.141 74.6304 100.434 74.4429C100.727 74.2524 101.046 74.1572 101.392 74.1572C101.726 74.1572 102.016 74.2407 102.262 74.4077C102.511 74.5747 102.691 74.812 102.802 75.1196L103.303 72.25H103.541L102.376 79H102.139L102.288 78.2397C102.077 78.5063 101.825 78.7144 101.532 78.8638C101.239 79.0132 100.92 79.0879 100.574 79.0879C100.264 79.0879 100.003 79.0117 99.792 78.8594C99.5811 78.7041 99.4243 78.4785 99.3218 78.1826C99.2222 77.8838 99.1782 77.5557 99.1899 77.1982C99.1958 77.0312 99.2163 76.8232 99.2515 76.5742ZM99.4316 77.1323C99.4082 77.4546 99.4331 77.7505 99.5063 78.02C99.5796 78.2896 99.7056 78.4961 99.8843 78.6396C100.066 78.7803 100.293 78.8506 100.565 78.8506C100.946 78.8535 101.288 78.7627 101.589 78.5781C101.894 78.3936 102.143 78.1416 102.336 77.8223L102.732 75.5942C102.67 75.2134 102.522 74.9189 102.288 74.7109C102.057 74.5 101.758 74.3945 101.392 74.3945C101.02 74.3945 100.688 74.519 100.398 74.7681C100.108 75.0142 99.8813 75.3569 99.7173 75.7964C99.5532 76.2358 99.458 76.6812 99.4316 77.1323ZM105.602 79.0879C105.221 79.0879 104.893 78.981 104.617 78.7671C104.342 78.5532 104.143 78.2617 104.02 77.8926C103.899 77.5205 103.869 77.1309 103.927 76.7236L103.962 76.5039C104.033 76.0762 104.182 75.6763 104.411 75.3042C104.642 74.9321 104.916 74.6479 105.232 74.4517C105.549 74.2554 105.887 74.1572 106.248 74.1572C106.728 74.1572 107.104 74.3345 107.377 74.689C107.649 75.0435 107.765 75.4976 107.724 76.0513L107.711 76.1875L107.671 76.4644H104.217L104.169 76.7236C104.128 76.9697 104.126 77.2188 104.165 77.4707C104.229 77.8896 104.389 78.2251 104.644 78.4771C104.901 78.7261 105.219 78.8521 105.597 78.855C106.145 78.8608 106.639 78.644 107.078 78.2046L107.236 78.3276C106.803 78.8345 106.258 79.0879 105.602 79.0879ZM106.248 74.3945C105.796 74.3945 105.392 74.5645 105.035 74.9043C104.68 75.2412 104.417 75.6821 104.244 76.2271H107.452L107.465 76.1699C107.503 75.959 107.506 75.748 107.474 75.5371C107.421 75.1914 107.283 74.9146 107.061 74.7065C106.841 74.4985 106.57 74.3945 106.248 74.3945ZM109.161 75.3525C109.398 74.9688 109.678 74.6743 110 74.4692C110.323 74.2612 110.655 74.1572 110.998 74.1572C111.361 74.1572 111.647 74.251 111.855 74.4385C112.063 74.626 112.183 74.897 112.215 75.2515C112.233 75.4741 112.221 75.707 112.18 75.9502L111.653 79H111.416L111.943 75.9502C111.978 75.7451 111.993 75.543 111.987 75.3438C111.972 75.0332 111.88 74.7959 111.71 74.6318C111.543 74.4678 111.303 74.3872 110.989 74.3901C110.588 74.396 110.201 74.5527 109.829 74.8604C109.46 75.165 109.209 75.5298 109.078 75.9546L108.55 79H108.313L109.13 74.2451H109.368L109.161 75.3525ZM116.232 77.8354C116.337 77.2847 115.936 76.8936 115.028 76.6621L114.54 76.5215C113.866 76.3018 113.57 75.9136 113.652 75.3569C113.705 74.9966 113.896 74.7065 114.224 74.4868C114.552 74.2671 114.933 74.1572 115.366 74.1572C115.844 74.1572 116.217 74.2803 116.487 74.5264C116.756 74.7725 116.871 75.1021 116.83 75.5151H116.592C116.627 75.1812 116.529 74.9116 116.298 74.7065C116.066 74.4985 115.757 74.3945 115.371 74.3945C114.996 74.3945 114.669 74.481 114.391 74.6538C114.112 74.8267 113.945 75.0581 113.89 75.3481C113.802 75.814 114.071 76.145 114.698 76.3413L115.353 76.5303L115.573 76.605C116.255 76.854 116.554 77.2656 116.469 77.8398C116.414 78.2178 116.217 78.521 115.88 78.7495C115.543 78.9751 115.141 79.0879 114.672 79.0879C114.183 79.0879 113.792 78.9692 113.499 78.7319C113.206 78.4917 113.08 78.1782 113.121 77.7915H113.354C113.339 78.1196 113.447 78.3789 113.679 78.5693C113.913 78.7568 114.243 78.8506 114.667 78.8506C115.072 78.8418 115.42 78.7451 115.713 78.5605C116.006 78.373 116.179 78.1313 116.232 77.8354ZM119.26 79.0879C118.879 79.0879 118.551 78.981 118.275 78.7671C118 78.5532 117.801 78.2617 117.678 77.8926C117.558 77.5205 117.527 77.1309 117.585 76.7236L117.621 76.5039C117.691 76.0762 117.84 75.6763 118.069 75.3042C118.3 74.9321 118.574 74.6479 118.891 74.4517C119.207 74.2554 119.545 74.1572 119.906 74.1572C120.386 74.1572 120.763 74.3345 121.035 74.689C121.308 75.0435 121.423 75.4976 121.382 76.0513L121.369 76.1875L121.33 76.4644H117.875L117.827 76.7236C117.786 76.9697 117.785 77.2188 117.823 77.4707C117.887 77.8896 118.047 78.2251 118.302 78.4771C118.56 78.7261 118.877 78.8521 119.255 78.855C119.803 78.8608 120.297 78.644 120.736 78.2046L120.895 78.3276C120.461 78.8345 119.916 79.0879 119.26 79.0879ZM119.906 74.3945C119.455 74.3945 119.05 74.5645 118.693 74.9043C118.338 75.2412 118.075 75.6821 117.902 76.2271H121.11L121.123 76.1699C121.161 75.959 121.164 75.748 121.132 75.5371C121.079 75.1914 120.941 74.9146 120.719 74.7065C120.499 74.4985 120.228 74.3945 119.906 74.3945Z" fill="#707070"/>
<path d="M58.3911 121L59.5029 114.602H61.1157C61.7485 114.607 62.2217 114.755 62.5352 115.045C62.8516 115.335 62.9688 115.734 62.8867 116.241C62.8223 116.616 62.6743 116.931 62.4429 117.186C62.2114 117.438 61.9111 117.607 61.542 117.695C61.917 117.76 62.21 117.938 62.4209 118.231C62.6318 118.524 62.708 118.86 62.6494 119.238C62.5645 119.774 62.3154 120.202 61.9023 120.521C61.4893 120.84 60.9839 121 60.3862 121H58.3911ZM59.1777 117.84L58.6724 120.763H60.3818C60.918 120.763 61.3677 120.626 61.731 120.354C62.0972 120.082 62.3242 119.712 62.4121 119.247C62.4883 118.831 62.3901 118.492 62.1177 118.231C61.8481 117.971 61.4644 117.84 60.9663 117.84H59.1777ZM59.2173 117.603H60.6104C61.1846 117.603 61.646 117.486 61.9946 117.251C62.3462 117.014 62.5645 116.671 62.6494 116.223C62.7285 115.795 62.6392 115.461 62.3813 115.221C62.1235 114.981 61.7148 114.854 61.1553 114.839H59.7007L59.2173 117.603ZM66.6045 121C66.5957 120.742 66.6235 120.452 66.688 120.13C66.4419 120.432 66.1489 120.667 65.8091 120.837C65.4722 121.007 65.106 121.091 64.7104 121.088C64.312 121.088 63.9941 120.965 63.7568 120.719C63.5195 120.473 63.4302 120.165 63.4888 119.796C63.562 119.348 63.8096 118.998 64.2314 118.746C64.6562 118.494 65.1938 118.36 65.8442 118.346H66.9736L67.1011 117.651C67.1626 117.262 67.085 116.956 66.8682 116.733C66.6514 116.507 66.3394 116.395 65.9321 116.395C65.5337 116.395 65.1733 116.501 64.8511 116.715C64.5288 116.926 64.3267 117.205 64.2446 117.55L64.0073 117.542C64.0894 117.134 64.3149 116.802 64.6841 116.544C65.0532 116.286 65.4692 116.157 65.9321 116.157C66.4155 116.157 66.7861 116.295 67.0439 116.57C67.3018 116.843 67.397 117.206 67.3296 117.66L66.8945 120.2L66.8638 120.499C66.8491 120.654 66.855 120.808 66.8813 120.96L66.877 121H66.6045ZM64.7061 120.855C65.0986 120.861 65.4722 120.767 65.8267 120.574C66.1812 120.377 66.4829 120.092 66.7319 119.717L66.9341 118.587H65.8706C65.2788 118.599 64.7896 118.713 64.4028 118.93C64.019 119.144 63.792 119.438 63.7217 119.813C63.6689 120.104 63.7378 120.348 63.9282 120.547C64.1216 120.747 64.3809 120.849 64.7061 120.855ZM69.0918 117.353C69.3291 116.969 69.6089 116.674 69.9312 116.469C70.2534 116.261 70.5859 116.157 70.9287 116.157C71.292 116.157 71.5776 116.251 71.7856 116.438C71.9937 116.626 72.1138 116.897 72.146 117.251C72.1636 117.474 72.1519 117.707 72.1108 117.95L71.5835 121H71.3462L71.8735 117.95C71.9087 117.745 71.9233 117.543 71.9175 117.344C71.9028 117.033 71.8105 116.796 71.6406 116.632C71.4736 116.468 71.2334 116.387 70.9199 116.39C70.5186 116.396 70.1318 116.553 69.7598 116.86C69.3906 117.165 69.1401 117.53 69.0083 117.955L68.481 121H68.2437L69.061 116.245H69.2983L69.0918 117.353ZM74.8047 121.088C74.4238 121.088 74.0957 120.981 73.8203 120.767C73.5449 120.553 73.3457 120.262 73.2227 119.893C73.1025 119.521 73.0718 119.131 73.1304 118.724L73.1655 118.504C73.2358 118.076 73.3853 117.676 73.6138 117.304C73.8452 116.932 74.1191 116.648 74.4355 116.452C74.752 116.255 75.0903 116.157 75.4507 116.157C75.9312 116.157 76.3076 116.334 76.5801 116.689C76.8525 117.043 76.9683 117.498 76.9272 118.051L76.9141 118.188L76.8745 118.464H73.4204L73.3721 118.724C73.3311 118.97 73.3296 119.219 73.3677 119.471C73.4321 119.89 73.5918 120.225 73.8467 120.477C74.1045 120.726 74.4224 120.852 74.8003 120.855C75.3481 120.861 75.8418 120.644 76.2812 120.205L76.4395 120.328C76.0059 120.834 75.4609 121.088 74.8047 121.088ZM75.4507 116.395C74.9995 116.395 74.5952 116.564 74.2378 116.904C73.8833 117.241 73.6196 117.682 73.4468 118.227H76.6548L76.668 118.17C76.7061 117.959 76.709 117.748 76.6768 117.537C76.624 117.191 76.4863 116.915 76.2637 116.707C76.0439 116.499 75.7729 116.395 75.4507 116.395ZM77.7139 118.574C77.7959 118.097 77.9395 117.669 78.1445 117.291C78.3525 116.913 78.603 116.63 78.896 116.443C79.189 116.252 79.5083 116.157 79.854 116.157C80.1968 116.157 80.4897 116.244 80.7329 116.417C80.979 116.586 81.1548 116.819 81.2603 117.115L81.4185 116.245H81.6558L80.8691 120.833C80.7578 121.486 80.5132 121.996 80.1353 122.362C79.7603 122.731 79.3091 122.916 78.7817 122.916C78.1812 122.916 77.7153 122.646 77.3843 122.107L77.5645 121.958C77.8662 122.441 78.2676 122.683 78.7686 122.683C79.2256 122.683 79.6182 122.528 79.9463 122.217C80.2773 121.91 80.4985 121.475 80.6099 120.912L80.7417 120.249C80.5308 120.515 80.2788 120.722 79.9858 120.868C79.6958 121.015 79.3794 121.088 79.0366 121.088C78.7261 121.088 78.4653 121.012 78.2544 120.859C78.0435 120.704 77.8867 120.479 77.7842 120.183C77.6846 119.884 77.6406 119.556 77.6523 119.198C77.6582 119.031 77.6787 118.823 77.7139 118.574ZM77.8896 119.132C77.8516 119.666 77.9307 120.086 78.127 120.394C78.3262 120.698 78.6265 120.851 79.0278 120.851C79.4058 120.851 79.7471 120.758 80.0518 120.574C80.3564 120.386 80.6055 120.124 80.7988 119.787L81.1855 117.629C81.127 117.228 80.9819 116.922 80.7505 116.711C80.522 116.5 80.2231 116.395 79.854 116.395C79.479 116.395 79.145 116.521 78.8521 116.772C78.5591 117.024 78.332 117.37 78.1709 117.81C78.0098 118.249 77.916 118.69 77.8896 119.132ZM85.3691 121C85.3604 120.742 85.3882 120.452 85.4526 120.13C85.2065 120.432 84.9136 120.667 84.5737 120.837C84.2368 121.007 83.8706 121.091 83.4751 121.088C83.0767 121.088 82.7588 120.965 82.5215 120.719C82.2842 120.473 82.1948 120.165 82.2534 119.796C82.3267 119.348 82.5742 118.998 82.9961 118.746C83.4209 118.494 83.9585 118.36 84.6089 118.346H85.7383L85.8657 117.651C85.9272 117.262 85.8496 116.956 85.6328 116.733C85.416 116.507 85.104 116.395 84.6968 116.395C84.2983 116.395 83.938 116.501 83.6157 116.715C83.2935 116.926 83.0913 117.205 83.0093 117.55L82.772 117.542C82.854 117.134 83.0796 116.802 83.4487 116.544C83.8179 116.286 84.2339 116.157 84.6968 116.157C85.1802 116.157 85.5508 116.295 85.8086 116.57C86.0664 116.843 86.1616 117.206 86.0942 117.66L85.6592 120.2L85.6284 120.499C85.6138 120.654 85.6196 120.808 85.646 120.96L85.6416 121H85.3691ZM83.4707 120.855C83.8633 120.861 84.2368 120.767 84.5913 120.574C84.9458 120.377 85.2476 120.092 85.4966 119.717L85.6987 118.587H84.6353C84.0435 118.599 83.5542 118.713 83.1675 118.93C82.7837 119.144 82.5566 119.438 82.4863 119.813C82.4336 120.104 82.5024 120.348 82.6929 120.547C82.8862 120.747 83.1455 120.849 83.4707 120.855ZM84.4287 114.927C84.4668 114.704 84.5693 114.521 84.7363 114.377C84.9033 114.234 85.0835 114.162 85.2769 114.162C85.4819 114.162 85.6431 114.24 85.7603 114.395C85.8804 114.547 85.9258 114.726 85.8965 114.931C85.8672 115.133 85.7705 115.308 85.6064 115.454C85.4453 115.601 85.2607 115.674 85.0527 115.674C84.8594 115.674 84.6982 115.602 84.5693 115.458C84.4434 115.315 84.3965 115.138 84.4287 114.927ZM84.666 115.12C84.707 115.328 84.8374 115.432 85.0571 115.432C85.2124 115.432 85.3442 115.382 85.4526 115.283C85.564 115.18 85.6343 115.062 85.6636 114.927C85.6753 114.859 85.6768 114.793 85.668 114.729C85.6475 114.626 85.6006 114.547 85.5273 114.492C85.457 114.433 85.3721 114.404 85.2725 114.404C85.0791 114.404 84.9209 114.484 84.7979 114.646C84.6748 114.804 84.6309 114.962 84.666 115.12ZM89.8428 116.412L89.5571 116.39C89.1646 116.39 88.7998 116.535 88.4629 116.825C88.126 117.115 87.9004 117.468 87.7861 117.884L87.2456 121H87.0083L87.8257 116.245H88.063L87.8784 117.234C88.0776 116.894 88.3208 116.63 88.6079 116.443C88.895 116.252 89.2144 116.157 89.5659 116.157C89.6772 116.157 89.7886 116.175 89.8999 116.21L89.8428 116.412ZM90.0933 118.574C90.1753 118.097 90.3188 117.669 90.5239 117.291C90.7319 116.913 90.9824 116.63 91.2754 116.443C91.5684 116.252 91.8877 116.157 92.2334 116.157C92.5674 116.157 92.8574 116.241 93.1035 116.408C93.3525 116.575 93.5327 116.812 93.644 117.12L94.145 114.25H94.3823L93.2178 121H92.9805L93.1299 120.24C92.9189 120.506 92.667 120.714 92.374 120.864C92.0811 121.013 91.7617 121.088 91.416 121.088C91.1055 121.088 90.8447 121.012 90.6338 120.859C90.4229 120.704 90.2661 120.479 90.1636 120.183C90.064 119.884 90.02 119.556 90.0317 119.198C90.0376 119.031 90.0581 118.823 90.0933 118.574ZM90.2734 119.132C90.25 119.455 90.2749 119.75 90.3481 120.02C90.4214 120.29 90.5474 120.496 90.7261 120.64C90.9077 120.78 91.1348 120.851 91.4072 120.851C91.7881 120.854 92.1294 120.763 92.4312 120.578C92.7358 120.394 92.9849 120.142 93.1782 119.822L93.5737 117.594C93.5122 117.213 93.3643 116.919 93.1299 116.711C92.8984 116.5 92.5996 116.395 92.2334 116.395C91.8613 116.395 91.5303 116.519 91.2402 116.768C90.9502 117.014 90.7231 117.357 90.5591 117.796C90.395 118.236 90.2998 118.681 90.2734 119.132ZM97.8013 119.835C97.9067 119.285 97.5054 118.894 96.5972 118.662L96.1094 118.521C95.4355 118.302 95.1396 117.914 95.2217 117.357C95.2744 116.997 95.4648 116.707 95.793 116.487C96.1211 116.267 96.502 116.157 96.9355 116.157C97.4131 116.157 97.7866 116.28 98.0562 116.526C98.3257 116.772 98.4399 117.102 98.3989 117.515H98.1616C98.1968 117.181 98.0986 116.912 97.8672 116.707C97.6357 116.499 97.3267 116.395 96.9399 116.395C96.5649 116.395 96.2383 116.481 95.96 116.654C95.6816 116.827 95.5146 117.058 95.459 117.348C95.3711 117.814 95.6406 118.145 96.2676 118.341L96.9224 118.53L97.1421 118.605C97.8247 118.854 98.1235 119.266 98.0386 119.84C97.9829 120.218 97.7866 120.521 97.4497 120.75C97.1128 120.975 96.71 121.088 96.2412 121.088C95.752 121.088 95.3608 120.969 95.0679 120.732C94.7749 120.492 94.6489 120.178 94.6899 119.792H94.9229C94.9082 120.12 95.0166 120.379 95.248 120.569C95.4824 120.757 95.812 120.851 96.2368 120.851C96.6411 120.842 96.9897 120.745 97.2827 120.561C97.5757 120.373 97.7485 120.131 97.8013 119.835ZM100.895 121.088C100.558 121.088 100.264 121.015 100.012 120.868C99.7598 120.722 99.5752 120.52 99.458 120.262L99.0054 122.828H98.7681L99.9019 116.245H100.139L99.9766 117.093C100.185 116.812 100.434 116.586 100.724 116.417C101.017 116.244 101.342 116.157 101.699 116.157C102.007 116.157 102.269 116.233 102.486 116.386C102.703 116.538 102.861 116.762 102.96 117.058C103.063 117.351 103.108 117.676 103.097 118.034C103.088 118.221 103.07 118.401 103.044 118.574L102.987 118.864C102.834 119.553 102.574 120.096 102.205 120.495C101.835 120.89 101.399 121.088 100.895 121.088ZM102.802 118.574L102.855 118.104C102.884 117.547 102.798 117.124 102.596 116.834C102.394 116.541 102.096 116.395 101.704 116.395C101.317 116.395 100.951 116.51 100.605 116.742C100.262 116.97 100.032 117.254 99.915 117.594L99.5195 119.818C99.5869 120.149 99.7437 120.404 99.9897 120.583C100.239 120.761 100.541 120.851 100.895 120.851C101.37 120.851 101.771 120.657 102.099 120.271C102.427 119.881 102.657 119.34 102.789 118.649L102.802 118.574ZM104.213 121H103.976L105.136 114.25H105.373L104.213 121ZM108.783 121C108.774 120.742 108.802 120.452 108.867 120.13C108.621 120.432 108.328 120.667 107.988 120.837C107.651 121.007 107.285 121.091 106.889 121.088C106.491 121.088 106.173 120.965 105.936 120.719C105.698 120.473 105.609 120.165 105.667 119.796C105.741 119.348 105.988 118.998 106.41 118.746C106.835 118.494 107.373 118.36 108.023 118.346H109.152L109.28 117.651C109.341 117.262 109.264 116.956 109.047 116.733C108.83 116.507 108.518 116.395 108.111 116.395C107.712 116.395 107.352 116.501 107.03 116.715C106.708 116.926 106.505 117.205 106.423 117.55L106.186 117.542C106.268 117.134 106.494 116.802 106.863 116.544C107.232 116.286 107.648 116.157 108.111 116.157C108.594 116.157 108.965 116.295 109.223 116.57C109.48 116.843 109.576 117.206 109.508 117.66L109.073 120.2L109.042 120.499C109.028 120.654 109.034 120.808 109.06 120.96L109.056 121H108.783ZM106.885 120.855C107.277 120.861 107.651 120.767 108.005 120.574C108.36 120.377 108.662 120.092 108.911 119.717L109.113 118.587H108.049C107.458 118.599 106.968 118.713 106.582 118.93C106.198 119.144 105.971 119.438 105.9 119.813C105.848 120.104 105.917 120.348 106.107 120.547C106.3 120.747 106.56 120.849 106.885 120.855ZM110.633 118.574C110.715 118.097 110.859 117.669 111.064 117.291C111.272 116.913 111.522 116.63 111.815 116.443C112.108 116.252 112.428 116.157 112.773 116.157C113.107 116.157 113.397 116.241 113.644 116.408C113.893 116.575 114.073 116.812 114.184 117.12L114.685 114.25H114.922L113.758 121H113.521L113.67 120.24C113.459 120.506 113.207 120.714 112.914 120.864C112.621 121.013 112.302 121.088 111.956 121.088C111.646 121.088 111.385 121.012 111.174 120.859C110.963 120.704 110.806 120.479 110.704 120.183C110.604 119.884 110.56 119.556 110.572 119.198C110.578 119.031 110.598 118.823 110.633 118.574ZM110.813 119.132C110.79 119.455 110.815 119.75 110.888 120.02C110.961 120.29 111.087 120.496 111.266 120.64C111.448 120.78 111.675 120.851 111.947 120.851C112.328 120.854 112.669 120.763 112.971 120.578C113.276 120.394 113.525 120.142 113.718 119.822L114.114 117.594C114.052 117.213 113.904 116.919 113.67 116.711C113.438 116.5 113.14 116.395 112.773 116.395C112.401 116.395 112.07 116.519 111.78 116.768C111.49 117.014 111.263 117.357 111.099 117.796C110.935 118.236 110.84 118.681 110.813 119.132ZM118.341 119.835C118.447 119.285 118.045 118.894 117.137 118.662L116.649 118.521C115.976 118.302 115.68 117.914 115.762 117.357C115.814 116.997 116.005 116.707 116.333 116.487C116.661 116.267 117.042 116.157 117.476 116.157C117.953 116.157 118.327 116.28 118.596 116.526C118.866 116.772 118.98 117.102 118.939 117.515H118.702C118.737 117.181 118.639 116.912 118.407 116.707C118.176 116.499 117.867 116.395 117.48 116.395C117.105 116.395 116.778 116.481 116.5 116.654C116.222 116.827 116.055 117.058 115.999 117.348C115.911 117.814 116.181 118.145 116.808 118.341L117.462 118.53L117.682 118.605C118.365 118.854 118.664 119.266 118.579 119.84C118.523 120.218 118.327 120.521 117.99 120.75C117.653 120.975 117.25 121.088 116.781 121.088C116.292 121.088 115.901 120.969 115.608 120.732C115.315 120.492 115.189 120.178 115.23 119.792H115.463C115.448 120.12 115.557 120.379 115.788 120.569C116.022 120.757 116.352 120.851 116.777 120.851C117.181 120.842 117.53 120.745 117.823 120.561C118.116 120.373 118.289 120.131 118.341 119.835ZM121.369 121.088C120.988 121.088 120.66 120.981 120.385 120.767C120.109 120.553 119.91 120.262 119.787 119.893C119.667 119.521 119.636 119.131 119.695 118.724L119.73 118.504C119.8 118.076 119.95 117.676 120.178 117.304C120.41 116.932 120.684 116.648 121 116.452C121.316 116.255 121.655 116.157 122.015 116.157C122.496 116.157 122.872 116.334 123.145 116.689C123.417 117.043 123.533 117.498 123.492 118.051L123.479 118.188L123.439 118.464H119.985L119.937 118.724C119.896 118.97 119.894 119.219 119.932 119.471C119.997 119.89 120.156 120.225 120.411 120.477C120.669 120.726 120.987 120.852 121.365 120.855C121.913 120.861 122.406 120.644 122.846 120.205L123.004 120.328C122.57 120.834 122.025 121.088 121.369 121.088ZM122.015 116.395C121.564 116.395 121.16 116.564 120.802 116.904C120.448 117.241 120.184 117.682 120.011 118.227H123.219L123.232 118.17C123.271 117.959 123.273 117.748 123.241 117.537C123.188 117.191 123.051 116.915 122.828 116.707C122.608 116.499 122.337 116.395 122.015 116.395ZM124.929 117.353C125.166 116.969 125.446 116.674 125.768 116.469C126.09 116.261 126.423 116.157 126.766 116.157C127.129 116.157 127.415 116.251 127.623 116.438C127.831 116.626 127.951 116.897 127.983 117.251C128 117.474 127.989 117.707 127.948 117.95L127.42 121H127.183L127.71 117.95C127.746 117.745 127.76 117.543 127.754 117.344C127.74 117.033 127.647 116.796 127.478 116.632C127.311 116.468 127.07 116.387 126.757 116.39C126.355 116.396 125.969 116.553 125.597 116.86C125.228 117.165 124.977 117.53 124.845 117.955L124.318 121H124.081L124.898 116.245H125.135L124.929 117.353ZM133.856 121H133.619L134.673 114.914L132.779 115.586L132.814 115.331L134.897 114.584H134.955L133.856 121ZM136.233 122.121L136.084 121.971C136.397 121.62 136.586 121.259 136.651 120.89L136.752 120.301H136.989L136.897 120.855C136.812 121.359 136.591 121.781 136.233 122.121ZM62.5967 127.228C62.5381 127.576 62.3843 127.882 62.1353 128.146C61.8862 128.407 61.5684 128.602 61.1816 128.73C61.5508 128.854 61.832 129.06 62.0254 129.35C62.2217 129.637 62.292 129.965 62.2363 130.334C62.1543 130.859 61.9023 131.282 61.4805 131.604C61.0586 131.927 60.5576 132.088 59.9775 132.088C59.6055 132.088 59.2773 132.015 58.9932 131.868C58.7119 131.719 58.5068 131.512 58.3779 131.249C58.249 130.982 58.2139 130.677 58.2725 130.334C58.3369 129.954 58.5068 129.624 58.7822 129.346C59.0576 129.064 59.418 128.856 59.8633 128.722C59.5381 128.596 59.2964 128.398 59.1382 128.128C58.9829 127.859 58.9316 127.559 58.9844 127.228C59.0635 126.727 59.2964 126.316 59.6831 125.997C60.0698 125.675 60.5269 125.514 61.0542 125.514C61.3853 125.514 61.6797 125.588 61.9375 125.738C62.1982 125.884 62.3857 126.089 62.5 126.353C62.6172 126.614 62.6494 126.905 62.5967 127.228ZM61.9902 130.356C62.043 130.075 62.0137 129.82 61.9023 129.592C61.7939 129.363 61.6152 129.182 61.3662 129.047C61.1172 128.912 60.8389 128.845 60.5312 128.845C60.0391 128.845 59.5981 128.985 59.2085 129.267C58.8218 129.548 58.5874 129.911 58.5054 130.356C58.4263 130.799 58.5259 131.159 58.8042 131.438C59.0854 131.713 59.4751 131.851 59.9731 131.851C60.4771 131.851 60.918 131.713 61.2959 131.438C61.6768 131.159 61.9082 130.799 61.9902 130.356ZM62.3638 127.206C62.437 126.798 62.3433 126.454 62.0825 126.173C61.8218 125.892 61.4805 125.751 61.0586 125.751C60.6045 125.751 60.2046 125.889 59.8589 126.164C59.5161 126.437 59.3052 126.784 59.2261 127.206C59.1499 127.61 59.2378 127.945 59.4897 128.212C59.7446 128.476 60.0903 128.607 60.5269 128.607C60.9722 128.607 61.3691 128.477 61.7178 128.216C62.0693 127.956 62.2847 127.619 62.3638 127.206ZM64.7852 132.088C64.4512 132.088 64.1699 132.004 63.9414 131.837C63.7129 131.67 63.5444 131.424 63.436 131.099C63.3306 130.771 63.2866 130.397 63.3042 129.979L63.3394 129.557L63.5503 128.309C63.6997 127.438 63.9736 126.754 64.3721 126.256C64.7705 125.758 65.27 125.509 65.8706 125.509C66.2104 125.509 66.4946 125.594 66.7231 125.764C66.9517 125.931 67.1187 126.18 67.2241 126.511C67.3296 126.842 67.3721 127.213 67.3516 127.623L67.3076 128.098L67.0923 129.346C66.9399 130.21 66.6646 130.884 66.2661 131.367C65.8677 131.848 65.374 132.088 64.7852 132.088ZM67.1143 127.14C67.0762 126.677 66.9517 126.33 66.7407 126.098C66.5298 125.864 66.2412 125.747 65.875 125.747C65.3477 125.747 64.9023 125.972 64.5391 126.423C64.1787 126.872 63.9268 127.509 63.7832 128.335L63.5811 129.521L63.5459 129.895C63.5166 130.258 63.5415 130.594 63.6206 130.901C63.6997 131.209 63.8374 131.445 64.0337 131.609C64.23 131.77 64.479 131.851 64.7808 131.851C65.3052 131.851 65.7461 131.629 66.1035 131.187C66.4639 130.742 66.7144 130.124 66.855 129.333L67.0396 128.287C67.1157 127.856 67.1406 127.474 67.1143 127.14ZM69.6104 132.088C69.2764 132.088 68.9951 132.004 68.7666 131.837C68.5381 131.67 68.3696 131.424 68.2612 131.099C68.1558 130.771 68.1118 130.397 68.1294 129.979L68.1646 129.557L68.3755 128.309C68.5249 127.438 68.7988 126.754 69.1973 126.256C69.5957 125.758 70.0952 125.509 70.6958 125.509C71.0356 125.509 71.3198 125.594 71.5483 125.764C71.7769 125.931 71.9438 126.18 72.0493 126.511C72.1548 126.842 72.1973 127.213 72.1768 127.623L72.1328 128.098L71.9175 129.346C71.7651 130.21 71.4897 130.884 71.0913 131.367C70.6929 131.848 70.1992 132.088 69.6104 132.088ZM71.9395 127.14C71.9014 126.677 71.7769 126.33 71.5659 126.098C71.355 125.864 71.0664 125.747 70.7002 125.747C70.1729 125.747 69.7275 125.972 69.3643 126.423C69.0039 126.872 68.752 127.509 68.6084 128.335L68.4062 129.521L68.3711 129.895C68.3418 130.258 68.3667 130.594 68.4458 130.901C68.5249 131.209 68.6626 131.445 68.8589 131.609C69.0552 131.77 69.3042 131.851 69.606 131.851C70.1304 131.851 70.5713 131.629 70.9287 131.187C71.2891 130.742 71.5396 130.124 71.6802 129.333L71.8647 128.287C71.9409 127.856 71.9658 127.474 71.9395 127.14ZM74.4355 132.088C74.1016 132.088 73.8203 132.004 73.5918 131.837C73.3633 131.67 73.1948 131.424 73.0864 131.099C72.981 130.771 72.937 130.397 72.9546 129.979L72.9897 129.557L73.2007 128.309C73.3501 127.438 73.624 126.754 74.0225 126.256C74.4209 125.758 74.9204 125.509 75.521 125.509C75.8608 125.509 76.145 125.594 76.3735 125.764C76.6021 125.931 76.769 126.18 76.8745 126.511C76.98 126.842 77.0225 127.213 77.002 127.623L76.958 128.098L76.7427 129.346C76.5903 130.21 76.3149 130.884 75.9165 131.367C75.5181 131.848 75.0244 132.088 74.4355 132.088ZM76.7646 127.14C76.7266 126.677 76.6021 126.33 76.3911 126.098C76.1802 125.864 75.8916 125.747 75.5254 125.747C74.998 125.747 74.5527 125.972 74.1895 126.423C73.8291 126.872 73.5771 127.509 73.4336 128.335L73.2314 129.521L73.1963 129.895C73.167 130.258 73.1919 130.594 73.271 130.901C73.3501 131.209 73.4878 131.445 73.6841 131.609C73.8804 131.77 74.1294 131.851 74.4312 131.851C74.9556 131.851 75.3965 131.629 75.7539 131.187C76.1143 130.742 76.3647 130.124 76.5054 129.333L76.6899 128.287C76.7661 127.856 76.791 127.474 76.7646 127.14ZM83.4399 130.088H80.4077L79.3838 132H79.1201L82.5391 125.606L82.8247 125.602L84.0552 132H83.8047L83.4399 130.088ZM80.5308 129.851H83.3916L82.6533 125.9L80.5308 129.851ZM87.9883 132C87.9795 131.742 88.0073 131.452 88.0718 131.13C87.8257 131.432 87.5327 131.667 87.1929 131.837C86.856 132.007 86.4897 132.091 86.0942 132.088C85.6958 132.088 85.3779 131.965 85.1406 131.719C84.9033 131.473 84.814 131.165 84.8726 130.796C84.9458 130.348 85.1934 129.998 85.6152 129.746C86.04 129.494 86.5776 129.36 87.228 129.346H88.3574L88.4849 128.651C88.5464 128.262 88.4688 127.956 88.252 127.733C88.0352 127.507 87.7231 127.395 87.3159 127.395C86.9175 127.395 86.5571 127.501 86.2349 127.715C85.9126 127.926 85.7104 128.205 85.6284 128.55L85.3911 128.542C85.4731 128.134 85.6987 127.802 86.0679 127.544C86.437 127.286 86.853 127.157 87.3159 127.157C87.7993 127.157 88.1699 127.295 88.4277 127.57C88.6855 127.843 88.7808 128.206 88.7134 128.66L88.2783 131.2L88.2476 131.499C88.2329 131.654 88.2388 131.808 88.2651 131.96L88.2607 132H87.9883ZM86.0898 131.855C86.4824 131.861 86.856 131.767 87.2104 131.574C87.5649 131.377 87.8667 131.092 88.1157 130.717L88.3179 129.587H87.2544C86.6626 129.599 86.1733 129.713 85.7866 129.93C85.4028 130.144 85.1758 130.438 85.1055 130.813C85.0527 131.104 85.1216 131.348 85.312 131.547C85.5054 131.747 85.7646 131.849 86.0898 131.855ZM92.4619 127.412L92.1763 127.39C91.7837 127.39 91.4189 127.535 91.082 127.825C90.7451 128.115 90.5195 128.468 90.4053 128.884L89.8647 132H89.6274L90.4448 127.245H90.6821L90.4976 128.234C90.6968 127.894 90.9399 127.63 91.2271 127.443C91.5142 127.252 91.8335 127.157 92.1851 127.157C92.2964 127.157 92.4077 127.175 92.519 127.21L92.4619 127.412ZM93.4375 128.353C93.6748 127.969 93.9546 127.674 94.2769 127.469C94.5991 127.261 94.9316 127.157 95.2744 127.157C95.6377 127.157 95.9233 127.251 96.1313 127.438C96.3394 127.626 96.4595 127.897 96.4917 128.251C96.5093 128.474 96.4976 128.707 96.4565 128.95L95.9292 132H95.6919L96.2192 128.95C96.2544 128.745 96.269 128.543 96.2632 128.344C96.2485 128.033 96.1562 127.796 95.9863 127.632C95.8193 127.468 95.5791 127.387 95.2656 127.39C94.8643 127.396 94.4775 127.553 94.1055 127.86C93.7363 128.165 93.4858 128.53 93.354 128.955L92.8267 132H92.5894L93.7539 125.25H93.9912L93.4375 128.353ZM100.504 132L100.653 131.231C100.445 131.518 100.193 131.733 99.8975 131.877C99.6016 132.018 99.2764 132.088 98.9219 132.088C98.5527 132.088 98.2598 131.99 98.043 131.793C97.8291 131.597 97.7046 131.317 97.6694 130.954C97.6489 130.723 97.6592 130.484 97.7002 130.238L98.2144 127.245H98.4517L97.9287 130.273C97.8965 130.472 97.8862 130.666 97.8979 130.853C97.9126 131.169 98.0078 131.416 98.1836 131.591C98.3594 131.764 98.6025 131.851 98.9131 131.851C99.3408 131.851 99.7261 131.735 100.069 131.503C100.412 131.269 100.637 130.964 100.746 130.589L101.321 127.245H101.563L100.746 132H100.504ZM105.333 130.835C105.439 130.285 105.038 129.894 104.129 129.662L103.642 129.521C102.968 129.302 102.672 128.914 102.754 128.357C102.807 127.997 102.997 127.707 103.325 127.487C103.653 127.267 104.034 127.157 104.468 127.157C104.945 127.157 105.319 127.28 105.588 127.526C105.858 127.772 105.972 128.102 105.931 128.515H105.694C105.729 128.181 105.631 127.912 105.399 127.707C105.168 127.499 104.859 127.395 104.472 127.395C104.097 127.395 103.771 127.481 103.492 127.654C103.214 127.827 103.047 128.058 102.991 128.348C102.903 128.814 103.173 129.145 103.8 129.341L104.455 129.53L104.674 129.605C105.357 129.854 105.656 130.266 105.571 130.84C105.515 131.218 105.319 131.521 104.982 131.75C104.645 131.975 104.242 132.088 103.773 132.088C103.284 132.088 102.893 131.969 102.6 131.732C102.307 131.492 102.181 131.178 102.222 130.792H102.455C102.44 131.12 102.549 131.379 102.78 131.569C103.015 131.757 103.344 131.851 103.769 131.851C104.173 131.842 104.522 131.745 104.815 131.561C105.108 131.373 105.281 131.131 105.333 130.835Z" fill="#707070"/>
<path d="M59.1279 21V10.2041H61.3618V14.3203H65.5806V10.2041H67.8218V21H65.5806V16.1807H61.3618V21H59.1279ZM69.7773 18.8174H71.9966V21H69.7773V18.8174ZM77.8633 15.6899C77.8633 13.8052 78.3687 12.3525 79.3794 11.332C80.2583 10.4434 81.3765 9.99902 82.7339 9.99902C84.5503 9.99902 85.8784 10.5947 86.7183 11.7861C87.1821 12.4551 87.4312 13.1265 87.4653 13.8003H85.2095C85.063 13.2827 84.875 12.8921 84.6455 12.6284C84.2354 12.1597 83.6274 11.9253 82.8218 11.9253C82.0015 11.9253 81.3545 12.2573 80.8809 12.9214C80.4072 13.5806 80.1704 14.5156 80.1704 15.7266C80.1704 16.9375 80.4194 17.8457 80.9175 18.4512C81.4204 19.0518 82.0576 19.3521 82.8291 19.3521C83.6201 19.3521 84.2231 19.0933 84.6382 18.5757C84.8677 18.2974 85.0581 17.8799 85.2095 17.3232H87.4434C87.248 18.5 86.7476 19.457 85.9419 20.1943C85.1411 20.9316 84.1133 21.3003 82.8584 21.3003C81.3057 21.3003 80.085 20.8022 79.1963 19.8062C78.3076 18.8052 77.8633 17.4331 77.8633 15.6899ZM88.9668 18.8174H91.186V21H88.9668V18.8174ZM61.8159 33.9204H64.5552L63.2075 29.6724L61.8159 33.9204ZM61.9551 27.2041H64.5039L68.3271 38H65.8809L65.1851 35.7808H61.208L60.4609 38H58.1025L61.9551 27.2041ZM73.9595 29.8262C74.7847 29.8262 75.4585 30.0435 75.981 30.478C76.5083 30.9077 76.772 31.623 76.772 32.624V38H74.6333V33.144C74.6333 32.7241 74.5771 32.4019 74.4648 32.1772C74.2598 31.7671 73.8691 31.562 73.293 31.562C72.585 31.562 72.0991 31.8623 71.8354 32.4629C71.6987 32.7803 71.6304 33.1855 71.6304 33.6787V38H69.5503V30.0312H71.5645V31.1958C71.833 30.7856 72.0869 30.4902 72.3262 30.3096C72.7559 29.9873 73.3003 29.8262 73.9595 29.8262ZM81.6499 29.8262C82.1333 29.8262 82.563 29.9336 82.939 30.1484C83.3149 30.3584 83.6201 30.6514 83.8545 31.0273V27.2188H85.9712V38H83.9424V36.894C83.6445 37.3677 83.3052 37.7119 82.9243 37.9268C82.5435 38.1416 82.0698 38.249 81.5034 38.249C80.5708 38.249 79.7847 37.873 79.145 37.1211C78.5103 36.3643 78.1929 35.395 78.1929 34.2134C78.1929 32.8511 78.5054 31.7793 79.1304 30.998C79.7603 30.2168 80.6001 29.8262 81.6499 29.8262ZM82.104 36.4912C82.6948 36.4912 83.144 36.2715 83.4517 35.832C83.7593 35.3926 83.9131 34.8237 83.9131 34.1255C83.9131 33.1489 83.6665 32.4507 83.1733 32.0308C82.8706 31.7769 82.519 31.6499 82.1187 31.6499C81.5083 31.6499 81.0591 31.8818 80.771 32.3457C80.4878 32.8047 80.3462 33.376 80.3462 34.0596C80.3462 34.7969 80.4902 35.3877 80.7783 35.832C81.0713 36.2715 81.5132 36.4912 82.104 36.4912ZM91.0249 31.5254C90.5415 31.5254 90.1655 31.6768 89.897 31.9795C89.6333 32.2822 89.4673 32.6924 89.3989 33.21H92.6436C92.6094 32.6582 92.4409 32.2407 92.1382 31.9575C91.8403 31.6694 91.4692 31.5254 91.0249 31.5254ZM91.0249 29.8042C91.689 29.8042 92.2871 29.9287 92.8193 30.1777C93.3516 30.4268 93.791 30.8198 94.1377 31.3569C94.4502 31.8306 94.6528 32.3799 94.7456 33.0049C94.7993 33.3711 94.8213 33.8984 94.8115 34.5869H89.3477C89.377 35.3877 89.6284 35.9492 90.1021 36.2715C90.3901 36.4717 90.7368 36.5718 91.1421 36.5718C91.5718 36.5718 91.9209 36.4497 92.1895 36.2056C92.3359 36.0737 92.4653 35.8906 92.5776 35.6562H94.709C94.6553 36.1299 94.4087 36.6108 93.9692 37.0991C93.2856 37.8755 92.3286 38.2637 91.0981 38.2637C90.0825 38.2637 89.1865 37.9365 88.4102 37.2822C87.6338 36.6279 87.2456 35.5635 87.2456 34.0889C87.2456 32.707 87.5947 31.6475 88.293 30.9102C88.9961 30.1729 89.9067 29.8042 91.0249 29.8042ZM100.561 29.8262C100.6 29.8262 100.632 29.8286 100.656 29.8335C100.686 29.8335 100.747 29.8359 100.839 29.8408V31.9795C100.708 31.9648 100.59 31.9551 100.488 31.9502C100.385 31.9453 100.302 31.9429 100.239 31.9429C99.3989 31.9429 98.835 32.2163 98.5469 32.7632C98.3857 33.0708 98.3052 33.5444 98.3052 34.1841V38H96.2031V30.0166H98.1953V31.4082C98.5176 30.876 98.7983 30.5122 99.0376 30.3169C99.4282 29.9897 99.936 29.8262 100.561 29.8262ZM103.696 35.4512C103.74 35.8223 103.835 36.0859 103.981 36.2422C104.24 36.5205 104.719 36.6597 105.417 36.6597C105.827 36.6597 106.152 36.5986 106.391 36.4766C106.635 36.3545 106.757 36.1714 106.757 35.9272C106.757 35.6929 106.66 35.5146 106.464 35.3926C106.269 35.2705 105.544 35.0605 104.289 34.7627C103.386 34.5381 102.749 34.2573 102.377 33.9204C102.006 33.5884 101.821 33.1099 101.821 32.4849C101.821 31.7476 102.109 31.1152 102.685 30.5879C103.266 30.0557 104.082 29.7896 105.131 29.7896C106.127 29.7896 106.938 29.9897 107.563 30.3901C108.193 30.7856 108.554 31.4717 108.647 32.4482H106.56C106.53 32.1797 106.455 31.9673 106.333 31.811C106.103 31.5278 105.712 31.3862 105.161 31.3862C104.707 31.3862 104.382 31.457 104.187 31.5986C103.996 31.7402 103.901 31.9062 103.901 32.0967C103.901 32.3359 104.003 32.5093 104.208 32.6167C104.414 32.729 105.139 32.9219 106.384 33.1953C107.214 33.3906 107.836 33.686 108.251 34.0815C108.662 34.4819 108.867 34.9824 108.867 35.583C108.867 36.374 108.571 37.021 107.98 37.5239C107.395 38.022 106.486 38.271 105.256 38.271C104.001 38.271 103.073 38.0073 102.473 37.48C101.877 36.9478 101.579 36.2715 101.579 35.4512H103.696ZM113.569 31.5254C113.085 31.5254 112.709 31.6768 112.441 31.9795C112.177 32.2822 112.011 32.6924 111.943 33.21H115.188C115.153 32.6582 114.985 32.2407 114.682 31.9575C114.384 31.6694 114.013 31.5254 113.569 31.5254ZM113.569 29.8042C114.233 29.8042 114.831 29.9287 115.363 30.1777C115.896 30.4268 116.335 30.8198 116.682 31.3569C116.994 31.8306 117.197 32.3799 117.29 33.0049C117.343 33.3711 117.365 33.8984 117.355 34.5869H111.892C111.921 35.3877 112.172 35.9492 112.646 36.2715C112.934 36.4717 113.281 36.5718 113.686 36.5718C114.116 36.5718 114.465 36.4497 114.733 36.2056C114.88 36.0737 115.009 35.8906 115.122 35.6562H117.253C117.199 36.1299 116.953 36.6108 116.513 37.0991C115.83 37.8755 114.873 38.2637 113.642 38.2637C112.626 38.2637 111.73 37.9365 110.954 37.2822C110.178 36.6279 109.79 35.5635 109.79 34.0889C109.79 32.707 110.139 31.6475 110.837 30.9102C111.54 30.1729 112.451 29.8042 113.569 29.8042ZM123.193 29.8262C124.018 29.8262 124.692 30.0435 125.214 30.478C125.742 30.9077 126.005 31.623 126.005 32.624V38H123.867V33.144C123.867 32.7241 123.811 32.4019 123.698 32.1772C123.493 31.7671 123.103 31.562 122.526 31.562C121.818 31.562 121.333 31.8623 121.069 32.4629C120.932 32.7803 120.864 33.1855 120.864 33.6787V38H118.784V30.0312H120.798V31.1958C121.066 30.7856 121.32 30.4902 121.56 30.3096C121.989 29.9873 122.534 29.8262 123.193 29.8262ZM129.565 35.4512C129.609 35.8223 129.704 36.0859 129.851 36.2422C130.109 36.5205 130.588 36.6597 131.286 36.6597C131.696 36.6597 132.021 36.5986 132.26 36.4766C132.504 36.3545 132.626 36.1714 132.626 35.9272C132.626 35.6929 132.529 35.5146 132.333 35.3926C132.138 35.2705 131.413 35.0605 130.158 34.7627C129.255 34.5381 128.618 34.2573 128.247 33.9204C127.875 33.5884 127.69 33.1099 127.69 32.4849C127.69 31.7476 127.978 31.1152 128.554 30.5879C129.135 30.0557 129.951 29.7896 131 29.7896C131.997 29.7896 132.807 29.9897 133.432 30.3901C134.062 30.7856 134.423 31.4717 134.516 32.4482H132.429C132.399 32.1797 132.324 31.9673 132.202 31.811C131.972 31.5278 131.582 31.3862 131.03 31.3862C130.576 31.3862 130.251 31.457 130.056 31.5986C129.865 31.7402 129.77 31.9062 129.77 32.0967C129.77 32.3359 129.873 32.5093 130.078 32.6167C130.283 32.729 131.008 32.9219 132.253 33.1953C133.083 33.3906 133.706 33.686 134.121 34.0815C134.531 34.4819 134.736 34.9824 134.736 35.583C134.736 36.374 134.44 37.021 133.85 37.5239C133.264 38.022 132.355 38.271 131.125 38.271C129.87 38.271 128.942 38.0073 128.342 37.48C127.746 36.9478 127.448 36.2715 127.448 35.4512H129.565ZM59.1279 55V44.2041H61.3618V48.3203H65.5806V44.2041H67.8218V55H65.5806V50.1807H61.3618V55H59.1279ZM73.3955 53.5278C74.0059 53.5278 74.4746 53.3105 74.8018 52.876C75.1289 52.4414 75.2925 51.8237 75.2925 51.0229C75.2925 50.2222 75.1289 49.6069 74.8018 49.1772C74.4746 48.7427 74.0059 48.5254 73.3955 48.5254C72.7852 48.5254 72.314 48.7427 71.9819 49.1772C71.6548 49.6069 71.4912 50.2222 71.4912 51.0229C71.4912 51.8237 71.6548 52.4414 71.9819 52.876C72.314 53.3105 72.7852 53.5278 73.3955 53.5278ZM77.4824 51.0229C77.4824 52.1948 77.1455 53.1982 76.4717 54.0332C75.7979 54.8633 74.7749 55.2783 73.4028 55.2783C72.0308 55.2783 71.0078 54.8633 70.334 54.0332C69.6602 53.1982 69.3232 52.1948 69.3232 51.0229C69.3232 49.8706 69.6602 48.8721 70.334 48.0273C71.0078 47.1826 72.0308 46.7603 73.4028 46.7603C74.7749 46.7603 75.7979 47.1826 76.4717 48.0273C77.1455 48.8721 77.4824 49.8706 77.4824 51.0229ZM81.064 47.0166V51.8286C81.064 52.2827 81.1177 52.6245 81.2251 52.854C81.4155 53.2593 81.7891 53.4619 82.3457 53.4619C83.0586 53.4619 83.5469 53.1738 83.8105 52.5977C83.9473 52.2852 84.0156 51.8726 84.0156 51.3599V47.0166H86.1323V55H84.1035V53.8721C84.084 53.8965 84.0352 53.9697 83.957 54.0918C83.8789 54.2139 83.7861 54.3213 83.6787 54.4141C83.3516 54.707 83.0342 54.9072 82.7266 55.0146C82.4238 55.1221 82.0674 55.1758 81.6572 55.1758C80.4756 55.1758 79.6797 54.751 79.2695 53.9014C79.04 53.4326 78.9253 52.7417 78.9253 51.8286V47.0166H81.064ZM89.7798 52.4512C89.8237 52.8223 89.9189 53.0859 90.0654 53.2422C90.3242 53.5205 90.8027 53.6597 91.501 53.6597C91.9111 53.6597 92.2358 53.5986 92.4751 53.4766C92.7192 53.3545 92.8413 53.1714 92.8413 52.9272C92.8413 52.6929 92.7437 52.5146 92.5483 52.3926C92.353 52.2705 91.6279 52.0605 90.373 51.7627C89.4697 51.5381 88.8325 51.2573 88.4614 50.9204C88.0903 50.5884 87.9048 50.1099 87.9048 49.4849C87.9048 48.7476 88.1929 48.1152 88.769 47.5879C89.3501 47.0557 90.1655 46.7896 91.2153 46.7896C92.2114 46.7896 93.022 46.9897 93.647 47.3901C94.2769 47.7856 94.6382 48.4717 94.731 49.4482H92.6436C92.6143 49.1797 92.5386 48.9673 92.4165 48.811C92.187 48.5278 91.7964 48.3862 91.2446 48.3862C90.7905 48.3862 90.4658 48.457 90.2705 48.5986C90.0801 48.7402 89.9849 48.9062 89.9849 49.0967C89.9849 49.3359 90.0874 49.5093 90.2925 49.6167C90.4976 49.729 91.2227 49.9219 92.4678 50.1953C93.2979 50.3906 93.9204 50.686 94.3354 51.0815C94.7456 51.4819 94.9507 51.9824 94.9507 52.583C94.9507 53.374 94.6553 54.021 94.0645 54.5239C93.4785 55.022 92.5703 55.271 91.3398 55.271C90.085 55.271 89.1572 55.0073 88.5566 54.48C87.9609 53.9478 87.6631 53.2715 87.6631 52.4512H89.7798ZM99.6528 48.5254C99.1694 48.5254 98.7935 48.6768 98.5249 48.9795C98.2612 49.2822 98.0952 49.6924 98.0269 50.21H101.271C101.237 49.6582 101.069 49.2407 100.766 48.9575C100.468 48.6694 100.097 48.5254 99.6528 48.5254ZM99.6528 46.8042C100.317 46.8042 100.915 46.9287 101.447 47.1777C101.979 47.4268 102.419 47.8198 102.766 48.3569C103.078 48.8306 103.281 49.3799 103.374 50.0049C103.427 50.3711 103.449 50.8984 103.439 51.5869H97.9756C98.0049 52.3877 98.2563 52.9492 98.73 53.2715C99.0181 53.4717 99.3647 53.5718 99.77 53.5718C100.2 53.5718 100.549 53.4497 100.817 53.2056C100.964 53.0737 101.093 52.8906 101.206 52.6562H103.337C103.283 53.1299 103.037 53.6108 102.597 54.0991C101.914 54.8755 100.957 55.2637 99.7261 55.2637C98.7104 55.2637 97.8145 54.9365 97.0381 54.2822C96.2617 53.6279 95.8735 52.5635 95.8735 51.0889C95.8735 49.707 96.2227 48.6475 96.9209 47.9102C97.624 47.1729 98.5347 46.8042 99.6528 46.8042Z" fill="#333333"/>
<path d="M62.0942 104.92H64.8335L63.4858 100.672L62.0942 104.92ZM62.2334 98.2041H64.7822L68.6055 109H66.1592L65.4634 106.781H61.4863L60.7393 109H58.3809L62.2334 98.2041ZM74.2158 105.118C74.084 105.201 73.9497 105.27 73.813 105.323C73.6812 105.372 73.498 105.418 73.2637 105.462L72.7949 105.55C72.3555 105.628 72.0405 105.724 71.8501 105.836C71.5278 106.026 71.3667 106.322 71.3667 106.722C71.3667 107.079 71.4644 107.337 71.6597 107.499C71.8599 107.655 72.1016 107.733 72.3848 107.733C72.834 107.733 73.2466 107.601 73.6226 107.337C74.0034 107.074 74.2012 106.593 74.2158 105.895V105.118ZM72.9487 104.144C73.3345 104.095 73.6104 104.034 73.7764 103.961C74.0742 103.834 74.2231 103.636 74.2231 103.368C74.2231 103.041 74.1084 102.816 73.8789 102.694C73.6543 102.567 73.3223 102.503 72.8828 102.503C72.3896 102.503 72.0405 102.625 71.8354 102.87C71.689 103.05 71.5913 103.294 71.5425 103.602H69.5283C69.5723 102.904 69.7676 102.33 70.1143 101.881C70.666 101.178 71.6133 100.826 72.9561 100.826C73.8301 100.826 74.6064 101 75.2852 101.346C75.9639 101.693 76.3032 102.347 76.3032 103.309V106.971C76.3032 107.225 76.3081 107.533 76.3179 107.894C76.3325 108.167 76.374 108.353 76.4424 108.451C76.5107 108.548 76.6133 108.629 76.75 108.692V109H74.4795C74.416 108.839 74.3721 108.688 74.3477 108.546C74.3232 108.404 74.3037 108.243 74.2891 108.062C74.001 108.375 73.6689 108.641 73.293 108.861C72.8438 109.12 72.3359 109.249 71.7695 109.249C71.0469 109.249 70.4487 109.044 69.9751 108.634C69.5063 108.219 69.272 107.633 69.272 106.876C69.272 105.895 69.6504 105.184 70.4072 104.745C70.8223 104.505 71.4326 104.334 72.2383 104.232L72.9487 104.144ZM82.4995 100.826C82.5386 100.826 82.5703 100.829 82.5947 100.833C82.624 100.833 82.6851 100.836 82.7778 100.841V102.979C82.646 102.965 82.5288 102.955 82.4263 102.95C82.3237 102.945 82.2407 102.943 82.1772 102.943C81.3374 102.943 80.7734 103.216 80.4854 103.763C80.3242 104.071 80.2437 104.544 80.2437 105.184V109H78.1416V101.017H80.1338V102.408C80.4561 101.876 80.7368 101.512 80.9761 101.317C81.3667 100.99 81.8745 100.826 82.4995 100.826ZM88.4102 100.812C88.9033 100.812 89.3501 100.897 89.7505 101.068C90.1558 101.239 90.4878 101.5 90.7466 101.852C90.9663 102.149 91.1006 102.457 91.1494 102.774C91.1982 103.087 91.2227 103.6 91.2227 104.312V109H89.0913V104.144C89.0913 103.714 89.0181 103.368 88.8716 103.104C88.6812 102.733 88.3198 102.547 87.7876 102.547C87.2358 102.547 86.8159 102.733 86.5278 103.104C86.2446 103.47 86.103 103.995 86.103 104.679V109H84.0229V98.2407H86.103V102.057C86.4058 101.593 86.7549 101.271 87.1504 101.09C87.5508 100.904 87.9707 100.812 88.4102 100.812ZM95.2583 101.017V105.829C95.2583 106.283 95.312 106.625 95.4194 106.854C95.6099 107.259 95.9834 107.462 96.54 107.462C97.2529 107.462 97.7412 107.174 98.0049 106.598C98.1416 106.285 98.21 105.873 98.21 105.36V101.017H100.327V109H98.2979V107.872C98.2783 107.896 98.2295 107.97 98.1514 108.092C98.0732 108.214 97.9805 108.321 97.873 108.414C97.5459 108.707 97.2285 108.907 96.9209 109.015C96.6182 109.122 96.2617 109.176 95.8516 109.176C94.6699 109.176 93.874 108.751 93.4639 107.901C93.2344 107.433 93.1196 106.742 93.1196 105.829V101.017H95.2583ZM103.974 106.451C104.018 106.822 104.113 107.086 104.26 107.242C104.519 107.521 104.997 107.66 105.695 107.66C106.105 107.66 106.43 107.599 106.669 107.477C106.914 107.354 107.036 107.171 107.036 106.927C107.036 106.693 106.938 106.515 106.743 106.393C106.547 106.271 105.822 106.061 104.567 105.763C103.664 105.538 103.027 105.257 102.656 104.92C102.285 104.588 102.099 104.11 102.099 103.485C102.099 102.748 102.387 102.115 102.963 101.588C103.544 101.056 104.36 100.79 105.41 100.79C106.406 100.79 107.216 100.99 107.841 101.39C108.471 101.786 108.833 102.472 108.925 103.448H106.838C106.809 103.18 106.733 102.967 106.611 102.811C106.381 102.528 105.991 102.386 105.439 102.386C104.985 102.386 104.66 102.457 104.465 102.599C104.274 102.74 104.179 102.906 104.179 103.097C104.179 103.336 104.282 103.509 104.487 103.617C104.692 103.729 105.417 103.922 106.662 104.195C107.492 104.391 108.115 104.686 108.53 105.082C108.94 105.482 109.145 105.982 109.145 106.583C109.145 107.374 108.85 108.021 108.259 108.524C107.673 109.022 106.765 109.271 105.534 109.271C104.279 109.271 103.352 109.007 102.751 108.48C102.155 107.948 101.857 107.271 101.857 106.451H103.974ZM115.026 109V98.2041H117.26V102.32H121.479V98.2041H123.72V109H121.479V104.181H117.26V109H115.026Z" fill="#333333"/>
</svg>
