<svg width="375" height="68" viewBox="0 0 375 68" fill="none" xmlns="http://www.w3.org/2000/svg">
<rect width="375" height="68" fill="#4980A8"/>
<path d="M21.2959 34.3477H17.6489V38H16.9883V30.1797H21.833V30.7437H17.6489V33.7837H21.2959V34.3477ZM25.5713 32.7363C25.4352 32.7113 25.2902 32.6987 25.1362 32.6987C24.7352 32.6987 24.395 32.8115 24.1157 33.0371C23.84 33.2591 23.6431 33.5832 23.5249 34.0093V38H22.8857V32.1885H23.5142L23.5249 33.1123C23.8651 32.4248 24.4111 32.0811 25.1631 32.0811C25.3421 32.0811 25.4836 32.1043 25.5874 32.1509L25.5713 32.7363ZM26.1299 35.0083C26.1299 34.4497 26.2373 33.9466 26.4521 33.499C26.6706 33.0514 26.9767 32.7041 27.3706 32.457C27.7681 32.2064 28.2174 32.0811 28.7188 32.0811C29.4922 32.0811 30.1188 32.3532 30.5986 32.8975C31.0785 33.4382 31.3184 34.1561 31.3184 35.0513V35.1855C31.3184 35.7477 31.2091 36.2544 30.9907 36.7056C30.7759 37.1532 30.4715 37.4987 30.0776 37.7422C29.6838 37.9857 29.2344 38.1074 28.7295 38.1074C27.9596 38.1074 27.333 37.8371 26.8496 37.2964C26.3698 36.7521 26.1299 36.0324 26.1299 35.1372V35.0083ZM26.7744 35.1855C26.7744 35.8802 26.9535 36.4513 27.3115 36.8989C27.6732 37.3429 28.1458 37.5649 28.7295 37.5649C29.3096 37.5649 29.7786 37.3429 30.1367 36.8989C30.4984 36.4513 30.6792 35.8623 30.6792 35.1318V35.0083C30.6792 34.5643 30.5968 34.1579 30.4321 33.7891C30.2674 33.4202 30.0365 33.1356 29.7393 32.9351C29.4421 32.731 29.1019 32.6289 28.7188 32.6289C28.1458 32.6289 27.6785 32.8545 27.3169 33.3057C26.9552 33.7533 26.7744 34.3405 26.7744 35.0674V35.1855ZM33.2358 32.1885L33.2573 33.1338C33.4722 32.7829 33.7407 32.5197 34.063 32.3442C34.3853 32.1688 34.7433 32.0811 35.1372 32.0811C36.0539 32.0811 36.6357 32.457 36.8828 33.209C37.0905 32.8473 37.368 32.5698 37.7153 32.3765C38.0627 32.1795 38.4458 32.0811 38.8647 32.0811C40.1108 32.0811 40.7464 32.7614 40.7715 34.1221V38H40.127V34.1704C40.1234 33.6512 40.0106 33.2663 39.7886 33.0156C39.5701 32.765 39.2121 32.6396 38.7144 32.6396C38.2524 32.6468 37.8621 32.7972 37.5435 33.0908C37.2248 33.3809 37.0475 33.7354 37.0117 34.1543V38H36.3672V34.1221C36.3636 33.6243 36.2454 33.2537 36.0127 33.0103C35.7835 32.7632 35.429 32.6396 34.9492 32.6396C34.5446 32.6396 34.1973 32.756 33.9072 32.9888C33.6172 33.2179 33.4023 33.5599 33.2627 34.0146V38H32.6182V32.1885H33.2358Z" fill="#FAFAFA"/>
<path d="M52.3984 23.0791V25.9795H54.9546C55.4624 25.9795 55.8433 25.9209 56.0972 25.8037C56.5464 25.5986 56.771 25.1934 56.771 24.5879C56.771 23.9336 56.5537 23.4941 56.1191 23.2695C55.875 23.1426 55.5088 23.0791 55.0205 23.0791H52.3984ZM55.4893 21.2041C56.2461 21.2188 56.8271 21.3115 57.2324 21.4824C57.6426 21.6533 57.9893 21.9048 58.2725 22.2368C58.5068 22.5103 58.6924 22.813 58.8291 23.145C58.9658 23.4771 59.0342 23.8555 59.0342 24.2803C59.0342 24.793 58.9048 25.2983 58.646 25.7964C58.3872 26.2896 57.96 26.6387 57.3643 26.8438C57.8623 27.0439 58.2139 27.3296 58.4189 27.7007C58.6289 28.0669 58.7339 28.6284 58.7339 29.3853V30.1104C58.7339 30.6035 58.7534 30.938 58.7925 31.1138C58.8511 31.3921 58.9878 31.5972 59.2026 31.729V32H56.7197C56.6514 31.7607 56.6025 31.5679 56.5732 31.4214C56.5146 31.1187 56.4829 30.8086 56.478 30.4912L56.4634 29.4878C56.4536 28.7993 56.3267 28.3403 56.0825 28.1108C55.8433 27.8813 55.3916 27.7666 54.7275 27.7666H52.3984V32H50.1938V21.2041H55.4893ZM65.2158 28.1182C65.084 28.2012 64.9497 28.2695 64.813 28.3232C64.6812 28.3721 64.498 28.4185 64.2637 28.4624L63.7949 28.5503C63.3555 28.6284 63.0405 28.7236 62.8501 28.8359C62.5278 29.0264 62.3667 29.3218 62.3667 29.7222C62.3667 30.0786 62.4644 30.3374 62.6597 30.4985C62.8599 30.6548 63.1016 30.7329 63.3848 30.7329C63.834 30.7329 64.2466 30.6011 64.6226 30.3374C65.0034 30.0737 65.2012 29.5928 65.2158 28.8945V28.1182ZM63.9487 27.144C64.3345 27.0952 64.6104 27.0342 64.7764 26.9609C65.0742 26.834 65.2231 26.6362 65.2231 26.3677C65.2231 26.0405 65.1084 25.8159 64.8789 25.6938C64.6543 25.5669 64.3223 25.5034 63.8828 25.5034C63.3896 25.5034 63.0405 25.6255 62.8354 25.8696C62.689 26.0503 62.5913 26.2944 62.5425 26.6021H60.5283C60.5723 25.9038 60.7676 25.3301 61.1143 24.8809C61.666 24.1777 62.6133 23.8262 63.9561 23.8262C64.8301 23.8262 65.6064 23.9995 66.2852 24.3462C66.9639 24.6929 67.3032 25.3472 67.3032 26.3091V29.9712C67.3032 30.2251 67.3081 30.5327 67.3179 30.894C67.3325 31.1675 67.374 31.353 67.4424 31.4507C67.5107 31.5483 67.6133 31.6289 67.75 31.6924V32H65.4795C65.416 31.8389 65.3721 31.6875 65.3477 31.5459C65.3232 31.4043 65.3037 31.2432 65.2891 31.0625C65.001 31.375 64.6689 31.6411 64.293 31.8608C63.8438 32.1196 63.3359 32.249 62.7695 32.249C62.0469 32.249 61.4487 32.0439 60.9751 31.6338C60.5063 31.2188 60.272 30.6328 60.272 29.876C60.272 28.8945 60.6504 28.1841 61.4072 27.7446C61.8223 27.5054 62.4326 27.3345 63.2383 27.2319L63.9487 27.144ZM74.0854 24.0166H76.3267L73.4482 32H71.2437L68.3799 24.0166H70.7236L72.3862 29.9053L74.0854 24.0166ZM81.937 23.8262C82.7622 23.8262 83.436 24.0435 83.9585 24.478C84.4858 24.9077 84.7495 25.623 84.7495 26.624V32H82.6108V27.144C82.6108 26.7241 82.5547 26.4019 82.4424 26.1772C82.2373 25.7671 81.8467 25.562 81.2705 25.562C80.5625 25.562 80.0767 25.8623 79.813 26.4629C79.6763 26.7803 79.6079 27.1855 79.6079 27.6787V32H77.5278V24.0312H79.542V25.1958C79.8105 24.7856 80.0645 24.4902 80.3037 24.3096C80.7334 23.9873 81.2778 23.8262 81.937 23.8262ZM88.3091 29.4512C88.353 29.8223 88.4482 30.0859 88.5947 30.2422C88.8535 30.5205 89.332 30.6597 90.0303 30.6597C90.4404 30.6597 90.7651 30.5986 91.0044 30.4766C91.2485 30.3545 91.3706 30.1714 91.3706 29.9272C91.3706 29.6929 91.2729 29.5146 91.0776 29.3926C90.8823 29.2705 90.1572 29.0605 88.9023 28.7627C87.999 28.5381 87.3618 28.2573 86.9907 27.9204C86.6196 27.5884 86.4341 27.1099 86.4341 26.4849C86.4341 25.7476 86.7222 25.1152 87.2983 24.5879C87.8794 24.0557 88.6948 23.7896 89.7446 23.7896C90.7407 23.7896 91.5513 23.9897 92.1763 24.3901C92.8062 24.7856 93.1675 25.4717 93.2603 26.4482H91.1729C91.1436 26.1797 91.0679 25.9673 90.9458 25.811C90.7163 25.5278 90.3257 25.3862 89.7739 25.3862C89.3198 25.3862 88.9951 25.457 88.7998 25.5986C88.6094 25.7402 88.5142 25.9062 88.5142 26.0967C88.5142 26.3359 88.6167 26.5093 88.8218 26.6167C89.0269 26.729 89.752 26.9219 90.9971 27.1953C91.8271 27.3906 92.4497 27.686 92.8647 28.0815C93.2749 28.4819 93.48 28.9824 93.48 29.583C93.48 30.374 93.1846 31.021 92.5938 31.5239C92.0078 32.022 91.0996 32.271 89.8691 32.271C88.6143 32.271 87.6865 32.0073 87.0859 31.48C86.4902 30.9478 86.1924 30.2715 86.1924 29.4512H88.3091ZM99.3467 23.8408C100.396 23.8408 101.217 24.2192 101.808 24.9761C102.403 25.7329 102.701 26.7095 102.701 27.9058C102.701 29.146 102.408 30.1738 101.822 30.9893C101.236 31.8047 100.418 32.2124 99.3687 32.2124C98.7095 32.2124 98.1797 32.0806 97.7793 31.8169C97.54 31.6606 97.2812 31.3872 97.0029 30.9966V32H94.9595V21.2188H97.0396V25.0566C97.3032 24.6855 97.5938 24.4023 97.9111 24.207C98.2871 23.9629 98.7656 23.8408 99.3467 23.8408ZM98.812 30.4912C99.3491 30.4912 99.7666 30.2739 100.064 29.8394C100.362 29.4048 100.511 28.8335 100.511 28.1255C100.511 27.5591 100.438 27.0903 100.292 26.7192C100.013 26.0161 99.5005 25.6646 98.7534 25.6646C97.9966 25.6646 97.4766 26.0088 97.1934 26.6973C97.0469 27.0635 96.9736 27.5371 96.9736 28.1182C96.9736 28.8018 97.125 29.3682 97.4277 29.8174C97.7305 30.2666 98.1919 30.4912 98.812 30.4912ZM106.385 23.0645H104.298V21.1382H106.385V23.0645ZM103.294 33.5308C103.412 33.5405 103.495 33.5454 103.543 33.5454C103.592 33.5503 103.636 33.5527 103.675 33.5527C103.88 33.5527 104.034 33.5015 104.137 33.3989C104.244 33.3013 104.298 33.1084 104.298 32.8203V24.0532H106.385V32.8569C106.385 33.6626 106.227 34.2583 105.909 34.644C105.592 35.0298 104.969 35.2227 104.042 35.2227C103.978 35.2227 103.883 35.2202 103.756 35.2153C103.634 35.2104 103.48 35.2056 103.294 35.2007V33.5308ZM111.527 25.5254C111.043 25.5254 110.667 25.6768 110.399 25.9795C110.135 26.2822 109.969 26.6924 109.901 27.21H113.146C113.111 26.6582 112.943 26.2407 112.64 25.9575C112.342 25.6694 111.971 25.5254 111.527 25.5254ZM111.527 23.8042C112.191 23.8042 112.789 23.9287 113.321 24.1777C113.854 24.4268 114.293 24.8198 114.64 25.3569C114.952 25.8306 115.155 26.3799 115.248 27.0049C115.301 27.3711 115.323 27.8984 115.313 28.5869H109.85C109.879 29.3877 110.13 29.9492 110.604 30.2715C110.892 30.4717 111.239 30.5718 111.644 30.5718C112.074 30.5718 112.423 30.4497 112.691 30.2056C112.838 30.0737 112.967 29.8906 113.08 29.6562H115.211C115.157 30.1299 114.911 30.6108 114.471 31.0991C113.788 31.8755 112.831 32.2637 111.6 32.2637C110.584 32.2637 109.688 31.9365 108.912 31.2822C108.136 30.6279 107.748 29.5635 107.748 28.0889C107.748 26.707 108.097 25.6475 108.795 24.9102C109.498 24.1729 110.409 23.8042 111.527 23.8042ZM121.063 23.8262C121.102 23.8262 121.134 23.8286 121.158 23.8335C121.188 23.8335 121.249 23.8359 121.341 23.8408V25.9795C121.209 25.9648 121.092 25.9551 120.99 25.9502C120.887 25.9453 120.804 25.9429 120.741 25.9429C119.901 25.9429 119.337 26.2163 119.049 26.7632C118.888 27.0708 118.807 27.5444 118.807 28.1841V32H116.705V24.0166H118.697V25.4082C119.02 24.876 119.3 24.5122 119.54 24.3169C119.93 23.9897 120.438 23.8262 121.063 23.8262ZM126 30.2861C126.488 30.2861 126.9 30.103 127.237 29.7368C127.574 29.3657 127.743 28.7773 127.743 27.9717C127.743 27.2148 127.582 26.6387 127.259 26.2432C126.942 25.8477 126.515 25.6499 125.978 25.6499C125.245 25.6499 124.74 25.9941 124.461 26.6826C124.315 27.0488 124.242 27.5005 124.242 28.0376C124.242 28.5015 124.32 28.9141 124.476 29.2754C124.759 29.9492 125.267 30.2861 126 30.2861ZM125.479 23.8262C125.88 23.8262 126.229 23.8872 126.527 24.0093C127.035 24.2192 127.445 24.605 127.757 25.1665V24.0166H129.786V31.5898C129.786 32.6201 129.613 33.3965 129.266 33.9189C128.67 34.8174 127.528 35.2666 125.838 35.2666C124.818 35.2666 123.985 35.0664 123.341 34.666C122.696 34.2656 122.34 33.6675 122.271 32.8716H124.542C124.601 33.1157 124.696 33.2915 124.828 33.3989C125.052 33.5894 125.431 33.6846 125.963 33.6846C126.715 33.6846 127.218 33.4331 127.472 32.9302C127.638 32.6079 127.721 32.0659 127.721 31.3042V30.7915C127.521 31.1333 127.306 31.3896 127.076 31.5605C126.661 31.8779 126.122 32.0366 125.458 32.0366C124.432 32.0366 123.612 31.6777 122.997 30.96C122.386 30.2373 122.081 29.2607 122.081 28.0303C122.081 26.8438 122.376 25.8477 122.967 25.042C123.558 24.2314 124.396 23.8262 125.479 23.8262ZM49.9521 38.2407H52.0029V44.0562L54.603 41.0532H57.1885L54.3979 44.1074L57.2983 49H54.7788L52.8672 45.5869L52.0029 46.4878V49H49.9521V38.2407ZM61.9053 47.5278C62.5156 47.5278 62.9844 47.3105 63.3115 46.876C63.6387 46.4414 63.8022 45.8237 63.8022 45.0229C63.8022 44.2222 63.6387 43.6069 63.3115 43.1772C62.9844 42.7427 62.5156 42.5254 61.9053 42.5254C61.2949 42.5254 60.8237 42.7427 60.4917 43.1772C60.1646 43.6069 60.001 44.2222 60.001 45.0229C60.001 45.8237 60.1646 46.4414 60.4917 46.876C60.8237 47.3105 61.2949 47.5278 61.9053 47.5278ZM65.9922 45.0229C65.9922 46.1948 65.6553 47.1982 64.9814 48.0332C64.3076 48.8633 63.2847 49.2783 61.9126 49.2783C60.5405 49.2783 59.5176 48.8633 58.8438 48.0332C58.1699 47.1982 57.833 46.1948 57.833 45.0229C57.833 43.8706 58.1699 42.8721 58.8438 42.0273C59.5176 41.1826 60.5405 40.7603 61.9126 40.7603C63.2847 40.7603 64.3076 41.1826 64.9814 42.0273C65.6553 42.8721 65.9922 43.8706 65.9922 45.0229ZM69.625 49H67.5376V38.2041H69.625V49ZM73.7998 49H71.7124V38.2041H73.7998V49ZM78.9927 42.5254C78.5093 42.5254 78.1333 42.6768 77.8647 42.9795C77.6011 43.2822 77.4351 43.6924 77.3667 44.21H80.6113C80.5771 43.6582 80.4087 43.2407 80.106 42.9575C79.8081 42.6694 79.437 42.5254 78.9927 42.5254ZM78.9927 40.8042C79.6567 40.8042 80.2549 40.9287 80.7871 41.1777C81.3193 41.4268 81.7588 41.8198 82.1055 42.3569C82.418 42.8306 82.6206 43.3799 82.7134 44.0049C82.7671 44.3711 82.7891 44.8984 82.7793 45.5869H77.3154C77.3447 46.3877 77.5962 46.9492 78.0698 47.2715C78.3579 47.4717 78.7046 47.5718 79.1099 47.5718C79.5396 47.5718 79.8887 47.4497 80.1572 47.2056C80.3037 47.0737 80.4331 46.8906 80.5454 46.6562H82.6768C82.623 47.1299 82.3765 47.6108 81.937 48.0991C81.2534 48.8755 80.2964 49.2637 79.0659 49.2637C78.0503 49.2637 77.1543 48.9365 76.3779 48.2822C75.6016 47.6279 75.2134 46.5635 75.2134 45.0889C75.2134 43.707 75.5625 42.6475 76.2607 41.9102C76.9639 41.1729 77.8745 40.8042 78.9927 40.8042ZM87.6206 47.2861C88.1089 47.2861 88.5215 47.103 88.8584 46.7368C89.1953 46.3657 89.3638 45.7773 89.3638 44.9717C89.3638 44.2148 89.2026 43.6387 88.8804 43.2432C88.563 42.8477 88.1357 42.6499 87.5986 42.6499C86.8662 42.6499 86.3608 42.9941 86.0825 43.6826C85.936 44.0488 85.8628 44.5005 85.8628 45.0376C85.8628 45.5015 85.9409 45.9141 86.0972 46.2754C86.3804 46.9492 86.8882 47.2861 87.6206 47.2861ZM87.1006 40.8262C87.501 40.8262 87.8501 40.8872 88.1479 41.0093C88.6558 41.2192 89.0659 41.605 89.3784 42.1665V41.0166H91.4072V48.5898C91.4072 49.6201 91.2339 50.3965 90.8872 50.9189C90.2915 51.8174 89.1489 52.2666 87.4595 52.2666C86.439 52.2666 85.6064 52.0664 84.9619 51.666C84.3174 51.2656 83.9609 50.6675 83.8926 49.8716H86.1631C86.2217 50.1157 86.3169 50.2915 86.4487 50.3989C86.6733 50.5894 87.0518 50.6846 87.584 50.6846C88.3359 50.6846 88.8389 50.4331 89.0928 49.9302C89.2588 49.6079 89.3418 49.0659 89.3418 48.3042V47.7915C89.1416 48.1333 88.9268 48.3896 88.6973 48.5605C88.2822 48.8779 87.7427 49.0366 87.0786 49.0366C86.0532 49.0366 85.2329 48.6777 84.6177 47.96C84.0073 47.2373 83.7021 46.2607 83.7021 45.0303C83.7021 43.8438 83.9976 42.8477 84.5884 42.042C85.1792 41.2314 86.0166 40.8262 87.1006 40.8262ZM95.5088 40.0645H93.3921V38.1382H95.5088V40.0645ZM93.3921 41.0166H95.5088V49H93.3921V41.0166ZM100.687 42.5254C100.204 42.5254 99.8276 42.6768 99.5591 42.9795C99.2954 43.2822 99.1294 43.6924 99.061 44.21H102.306C102.271 43.6582 102.103 43.2407 101.8 42.9575C101.502 42.6694 101.131 42.5254 100.687 42.5254ZM100.687 40.8042C101.351 40.8042 101.949 40.9287 102.481 41.1777C103.014 41.4268 103.453 41.8198 103.8 42.3569C104.112 42.8306 104.315 43.3799 104.408 44.0049C104.461 44.3711 104.483 44.8984 104.474 45.5869H99.0098C99.0391 46.3877 99.2905 46.9492 99.7642 47.2715C100.052 47.4717 100.399 47.5718 100.804 47.5718C101.234 47.5718 101.583 47.4497 101.852 47.2056C101.998 47.0737 102.127 46.8906 102.24 46.6562H104.371C104.317 47.1299 104.071 47.6108 103.631 48.0991C102.948 48.8755 101.991 49.2637 100.76 49.2637C99.7446 49.2637 98.8486 48.9365 98.0723 48.2822C97.2959 47.6279 96.9077 46.5635 96.9077 45.0889C96.9077 43.707 97.2568 42.6475 97.9551 41.9102C98.6582 41.1729 99.5688 40.8042 100.687 40.8042ZM105.067 42.5767V41.0898H106.18V38.8633H108.246V41.0898H109.542V42.5767H108.246V46.7954C108.246 47.1226 108.287 47.3276 108.37 47.4106C108.453 47.4888 108.707 47.5278 109.132 47.5278C109.195 47.5278 109.261 47.5278 109.33 47.5278C109.403 47.5229 109.474 47.5181 109.542 47.5132V49.0732L108.553 49.1099C107.567 49.144 106.893 48.9731 106.532 48.5972C106.297 48.3579 106.18 47.9893 106.18 47.4912V42.5767H105.067Z" fill="#FAFAFA"/>
<path d="M218.361 34.3536C218.557 34.1583 218.557 33.8417 218.361 33.6464L215.179 30.4645C214.984 30.2692 214.668 30.2692 214.472 30.4645C214.277 30.6597 214.277 30.9763 214.472 31.1716L217.301 34L214.472 36.8284C214.277 37.0237 214.277 37.3403 214.472 37.5355C214.668 37.7308 214.984 37.7308 215.179 37.5355L218.361 34.3536ZM154 34.5H218.008V33.5H154V34.5Z" fill="#FAFAFA"/>
<path d="M242.295 30.7437H239.615V38H238.954V30.7437H236.279V30.1797H242.295V30.7437ZM242.521 35.0083C242.521 34.4497 242.628 33.9466 242.843 33.499C243.061 33.0514 243.367 32.7041 243.761 32.457C244.159 32.2064 244.608 32.0811 245.109 32.0811C245.883 32.0811 246.509 32.3532 246.989 32.8975C247.469 33.4382 247.709 34.1561 247.709 35.0513V35.1855C247.709 35.7477 247.6 36.2544 247.381 36.7056C247.167 37.1532 246.862 37.4987 246.468 37.7422C246.074 37.9857 245.625 38.1074 245.12 38.1074C244.35 38.1074 243.724 37.8371 243.24 37.2964C242.76 36.7521 242.521 36.0324 242.521 35.1372V35.0083ZM243.165 35.1855C243.165 35.8802 243.344 36.4513 243.702 36.8989C244.064 37.3429 244.536 37.5649 245.12 37.5649C245.7 37.5649 246.169 37.3429 246.527 36.8989C246.889 36.4513 247.07 35.8623 247.07 35.1318V35.0083C247.07 34.5643 246.987 34.1579 246.823 33.7891C246.658 33.4202 246.427 33.1356 246.13 32.9351C245.833 32.731 245.493 32.6289 245.109 32.6289C244.536 32.6289 244.069 32.8545 243.708 33.3057C243.346 33.7533 243.165 34.3405 243.165 35.0674V35.1855Z" fill="#FAFAFA"/>
<path d="M255.674 32.6899C255.674 30.8052 256.179 29.3525 257.19 28.332C258.069 27.4434 259.187 26.999 260.544 26.999C262.361 26.999 263.689 27.5947 264.529 28.7861C264.993 29.4551 265.242 30.1265 265.276 30.8003H263.02C262.874 30.2827 262.686 29.8921 262.456 29.6284C262.046 29.1597 261.438 28.9253 260.632 28.9253C259.812 28.9253 259.165 29.2573 258.691 29.9214C258.218 30.5806 257.981 31.5156 257.981 32.7266C257.981 33.9375 258.23 34.8457 258.728 35.4512C259.231 36.0518 259.868 36.3521 260.64 36.3521C261.431 36.3521 262.034 36.0933 262.449 35.5757C262.678 35.2974 262.869 34.8799 263.02 34.3232H265.254C265.059 35.5 264.558 36.457 263.752 37.1943C262.952 37.9316 261.924 38.3003 260.669 38.3003C259.116 38.3003 257.896 37.8022 257.007 36.8062C256.118 35.8052 255.674 34.4331 255.674 32.6899ZM270.396 36.5278C271.006 36.5278 271.475 36.3105 271.802 35.876C272.129 35.4414 272.292 34.8237 272.292 34.0229C272.292 33.2222 272.129 32.6069 271.802 32.1772C271.475 31.7427 271.006 31.5254 270.396 31.5254C269.785 31.5254 269.314 31.7427 268.982 32.1772C268.655 32.6069 268.491 33.2222 268.491 34.0229C268.491 34.8237 268.655 35.4414 268.982 35.876C269.314 36.3105 269.785 36.5278 270.396 36.5278ZM274.482 34.0229C274.482 35.1948 274.146 36.1982 273.472 37.0332C272.798 37.8633 271.775 38.2783 270.403 38.2783C269.031 38.2783 268.008 37.8633 267.334 37.0332C266.66 36.1982 266.323 35.1948 266.323 34.0229C266.323 32.8706 266.66 31.8721 267.334 31.0273C268.008 30.1826 269.031 29.7603 270.403 29.7603C271.775 29.7603 272.798 30.1826 273.472 31.0273C274.146 31.8721 274.482 32.8706 274.482 34.0229ZM281.484 34.0083C281.484 33.3931 281.343 32.8486 281.06 32.375C280.781 31.9014 280.327 31.6646 279.697 31.6646C278.94 31.6646 278.42 32.0234 278.137 32.7412C277.991 33.1221 277.917 33.6055 277.917 34.1914C277.917 35.1191 278.164 35.771 278.657 36.147C278.95 36.3667 279.297 36.4766 279.697 36.4766C280.278 36.4766 280.72 36.252 281.023 35.8027C281.331 35.3535 281.484 34.7554 281.484 34.0083ZM280.298 29.8408C281.23 29.8408 282.019 30.1851 282.664 30.8735C283.313 31.562 283.638 32.5728 283.638 33.9058C283.638 35.312 283.32 36.3838 282.686 37.1211C282.056 37.8584 281.243 38.2271 280.247 38.2271C279.612 38.2271 279.084 38.0684 278.665 37.751C278.435 37.5752 278.21 37.3188 277.991 36.9819V41.1421H275.925V30.0166H277.925V31.1958C278.149 30.8491 278.389 30.5757 278.643 30.3755C279.106 30.019 279.658 29.8408 280.298 29.8408ZM288.303 31.5254C287.82 31.5254 287.444 31.6768 287.175 31.9795C286.912 32.2822 286.746 32.6924 286.677 33.21H289.922C289.888 32.6582 289.719 32.2407 289.417 31.9575C289.119 31.6694 288.748 31.5254 288.303 31.5254ZM288.303 29.8042C288.967 29.8042 289.565 29.9287 290.098 30.1777C290.63 30.4268 291.069 30.8198 291.416 31.3569C291.729 31.8306 291.931 32.3799 292.024 33.0049C292.078 33.3711 292.1 33.8984 292.09 34.5869H286.626C286.655 35.3877 286.907 35.9492 287.38 36.2715C287.668 36.4717 288.015 36.5718 288.42 36.5718C288.85 36.5718 289.199 36.4497 289.468 36.2056C289.614 36.0737 289.744 35.8906 289.856 35.6562H291.987C291.934 36.1299 291.687 36.6108 291.248 37.0991C290.564 37.8755 289.607 38.2637 288.376 38.2637C287.361 38.2637 286.465 37.9365 285.688 37.2822C284.912 36.6279 284.524 35.5635 284.524 34.0889C284.524 32.707 284.873 31.6475 285.571 30.9102C286.274 30.1729 287.185 29.8042 288.303 29.8042ZM297.927 29.8262C298.752 29.8262 299.426 30.0435 299.949 30.478C300.476 30.9077 300.74 31.623 300.74 32.624V38H298.601V33.144C298.601 32.7241 298.545 32.4019 298.433 32.1772C298.228 31.7671 297.837 31.562 297.261 31.562C296.553 31.562 296.067 31.8623 295.803 32.4629C295.667 32.7803 295.598 33.1855 295.598 33.6787V38H293.518V30.0312H295.532V31.1958C295.801 30.7856 296.055 30.4902 296.294 30.3096C296.724 29.9873 297.268 29.8262 297.927 29.8262ZM307.075 34.1182C306.943 34.2012 306.809 34.2695 306.672 34.3232C306.541 34.3721 306.357 34.4185 306.123 34.4624L305.654 34.5503C305.215 34.6284 304.9 34.7236 304.709 34.8359C304.387 35.0264 304.226 35.3218 304.226 35.7222C304.226 36.0786 304.324 36.3374 304.519 36.4985C304.719 36.6548 304.961 36.7329 305.244 36.7329C305.693 36.7329 306.106 36.6011 306.482 36.3374C306.863 36.0737 307.061 35.5928 307.075 34.8945V34.1182ZM305.808 33.144C306.194 33.0952 306.47 33.0342 306.636 32.9609C306.934 32.834 307.083 32.6362 307.083 32.3677C307.083 32.0405 306.968 31.8159 306.738 31.6938C306.514 31.5669 306.182 31.5034 305.742 31.5034C305.249 31.5034 304.9 31.6255 304.695 31.8696C304.548 32.0503 304.451 32.2944 304.402 32.6021H302.388C302.432 31.9038 302.627 31.3301 302.974 30.8809C303.525 30.1777 304.473 29.8262 305.815 29.8262C306.689 29.8262 307.466 29.9995 308.145 30.3462C308.823 30.6929 309.163 31.3472 309.163 32.3091V35.9712C309.163 36.2251 309.167 36.5327 309.177 36.894C309.192 37.1675 309.233 37.353 309.302 37.4507C309.37 37.5483 309.473 37.6289 309.609 37.6924V38H307.339C307.275 37.8389 307.231 37.6875 307.207 37.5459C307.183 37.4043 307.163 37.2432 307.148 37.0625C306.86 37.375 306.528 37.6411 306.152 37.8608C305.703 38.1196 305.195 38.249 304.629 38.249C303.906 38.249 303.308 38.0439 302.834 37.6338C302.366 37.2188 302.131 36.6328 302.131 35.876C302.131 34.8945 302.51 34.1841 303.267 33.7446C303.682 33.5054 304.292 33.3345 305.098 33.2319L305.808 33.144ZM314.451 36.2861C314.939 36.2861 315.352 36.103 315.688 35.7368C316.025 35.3657 316.194 34.7773 316.194 33.9717C316.194 33.2148 316.033 32.6387 315.71 32.2432C315.393 31.8477 314.966 31.6499 314.429 31.6499C313.696 31.6499 313.191 31.9941 312.913 32.6826C312.766 33.0488 312.693 33.5005 312.693 34.0376C312.693 34.5015 312.771 34.9141 312.927 35.2754C313.21 35.9492 313.718 36.2861 314.451 36.2861ZM313.931 29.8262C314.331 29.8262 314.68 29.8872 314.978 30.0093C315.486 30.2192 315.896 30.605 316.208 31.1665V30.0166H318.237V37.5898C318.237 38.6201 318.064 39.3965 317.717 39.9189C317.122 40.8174 315.979 41.2666 314.29 41.2666C313.269 41.2666 312.437 41.0664 311.792 40.666C311.147 40.2656 310.791 39.6675 310.723 38.8716H312.993C313.052 39.1157 313.147 39.2915 313.279 39.3989C313.503 39.5894 313.882 39.6846 314.414 39.6846C315.166 39.6846 315.669 39.4331 315.923 38.9302C316.089 38.6079 316.172 38.0659 316.172 37.3042V36.7915C315.972 37.1333 315.757 37.3896 315.527 37.5605C315.112 37.8779 314.573 38.0366 313.909 38.0366C312.883 38.0366 312.063 37.6777 311.448 36.96C310.837 36.2373 310.532 35.2607 310.532 34.0303C310.532 32.8438 310.828 31.8477 311.418 31.042C312.009 30.2314 312.847 29.8262 313.931 29.8262ZM324.595 29.8115C325.088 29.8115 325.535 29.897 325.935 30.0679C326.34 30.2388 326.672 30.5 326.931 30.8516C327.151 31.1494 327.285 31.457 327.334 31.7744C327.383 32.0869 327.407 32.5996 327.407 33.3125V38H325.276V33.144C325.276 32.7144 325.203 32.3677 325.056 32.104C324.866 31.7329 324.504 31.5474 323.972 31.5474C323.42 31.5474 323 31.7329 322.712 32.104C322.429 32.4702 322.288 32.9951 322.288 33.6787V38H320.208V27.2407H322.288V31.0566C322.59 30.5928 322.939 30.2705 323.335 30.0898C323.735 29.9043 324.155 29.8115 324.595 29.8115ZM332.512 31.5254C332.029 31.5254 331.653 31.6768 331.384 31.9795C331.121 32.2822 330.955 32.6924 330.886 33.21H334.131C334.097 32.6582 333.928 32.2407 333.625 31.9575C333.328 31.6694 332.957 31.5254 332.512 31.5254ZM332.512 29.8042C333.176 29.8042 333.774 29.9287 334.307 30.1777C334.839 30.4268 335.278 30.8198 335.625 31.3569C335.938 31.8306 336.14 32.3799 336.233 33.0049C336.287 33.3711 336.309 33.8984 336.299 34.5869H330.835C330.864 35.3877 331.116 35.9492 331.589 36.2715C331.877 36.4717 332.224 36.5718 332.629 36.5718C333.059 36.5718 333.408 36.4497 333.677 36.2056C333.823 36.0737 333.953 35.8906 334.065 35.6562H336.196C336.143 36.1299 335.896 36.6108 335.457 37.0991C334.773 37.8755 333.816 38.2637 332.585 38.2637C331.57 38.2637 330.674 37.9365 329.897 37.2822C329.121 36.6279 328.733 35.5635 328.733 34.0889C328.733 32.707 329.082 31.6475 329.78 30.9102C330.483 30.1729 331.394 29.8042 332.512 29.8042ZM342.136 29.8262C342.961 29.8262 343.635 30.0435 344.158 30.478C344.685 30.9077 344.949 31.623 344.949 32.624V38H342.81V33.144C342.81 32.7241 342.754 32.4019 342.642 32.1772C342.437 31.7671 342.046 31.562 341.47 31.562C340.762 31.562 340.276 31.8623 340.012 32.4629C339.875 32.7803 339.807 33.1855 339.807 33.6787V38H337.727V30.0312H339.741V31.1958C340.01 30.7856 340.264 30.4902 340.503 30.3096C340.933 29.9873 341.477 29.8262 342.136 29.8262ZM351.211 38V27.2041H353.445V31.3203H357.664V27.2041H359.905V38H357.664V33.1807H353.445V38H351.211Z" fill="#FAFAFA"/>
</svg>
