<svg width="178" height="143" viewBox="0 0 178 143" fill="none" xmlns="http://www.w3.org/2000/svg">
<rect width="178" height="143" fill="#E9EDEB" fill-opacity="0.59"/>
<path d="M51.5 87C49.8033 87 48 87.5257 48 88.5C48 89.4742 49.8033 90 51.5 90C53.1967 90 55 89.4742 55 88.5C55 87.5257 53.1967 87 51.5 87Z" fill="#333333"/>
<path d="M51.5 77C49.0187 77 47 79.0881 47 81.6546C47 83.2482 47.7328 84.9615 49.1782 86.747C50.2424 88.0617 51.2911 88.9065 51.3353 88.9418C51.3837 88.9806 51.4419 89 51.5 89C51.5581 89 51.6162 88.9806 51.6647 88.9418C51.7088 88.9065 52.7577 88.0617 53.8218 86.747C55.2672 84.9615 56 83.2481 56 81.6546C56 79.0881 53.9813 77 51.5 77ZM53.1875 81.6546C53.1875 82.6186 52.432 83.4001 51.5 83.4001C50.5681 83.4001 49.8126 82.6186 49.8126 81.6546C49.8126 80.6907 50.5681 79.9092 51.5 79.9092C52.432 79.9092 53.1875 80.6907 53.1875 81.6546Z" fill="#4980A8"/>
<path d="M20.2959 17.3477H16.6489V21H15.9883V13.1797H20.833V13.7437H16.6489V16.7837H20.2959V17.3477ZM24.5713 15.7363C24.4352 15.7113 24.2902 15.6987 24.1362 15.6987C23.7352 15.6987 23.395 15.8115 23.1157 16.0371C22.84 16.2591 22.6431 16.5832 22.5249 17.0093V21H21.8857V15.1885H22.5142L22.5249 16.1123C22.8651 15.4248 23.4111 15.0811 24.1631 15.0811C24.3421 15.0811 24.4836 15.1043 24.5874 15.1509L24.5713 15.7363ZM25.1299 18.0083C25.1299 17.4497 25.2373 16.9466 25.4521 16.499C25.6706 16.0514 25.9767 15.7041 26.3706 15.457C26.7681 15.2064 27.2174 15.0811 27.7188 15.0811C28.4922 15.0811 29.1188 15.3532 29.5986 15.8975C30.0785 16.4382 30.3184 17.1561 30.3184 18.0513V18.1855C30.3184 18.7477 30.2091 19.2544 29.9907 19.7056C29.7759 20.1532 29.4715 20.4987 29.0776 20.7422C28.6838 20.9857 28.2344 21.1074 27.7295 21.1074C26.9596 21.1074 26.333 20.8371 25.8496 20.2964C25.3698 19.7521 25.1299 19.0324 25.1299 18.1372V18.0083ZM25.7744 18.1855C25.7744 18.8802 25.9535 19.4513 26.3115 19.8989C26.6732 20.3429 27.1458 20.5649 27.7295 20.5649C28.3096 20.5649 28.7786 20.3429 29.1367 19.8989C29.4984 19.4513 29.6792 18.8623 29.6792 18.1318V18.0083C29.6792 17.5643 29.5968 17.1579 29.4321 16.7891C29.2674 16.4202 29.0365 16.1356 28.7393 15.9351C28.4421 15.731 28.1019 15.6289 27.7188 15.6289C27.1458 15.6289 26.6785 15.8545 26.3169 16.3057C25.9552 16.7533 25.7744 17.3405 25.7744 18.0674V18.1855ZM32.2358 15.1885L32.2573 16.1338C32.4722 15.7829 32.7407 15.5197 33.063 15.3442C33.3853 15.1688 33.7433 15.0811 34.1372 15.0811C35.0539 15.0811 35.6357 15.457 35.8828 16.209C36.0905 15.8473 36.368 15.5698 36.7153 15.3765C37.0627 15.1795 37.4458 15.0811 37.8647 15.0811C39.1108 15.0811 39.7464 15.7614 39.7715 17.1221V21H39.127V17.1704C39.1234 16.6512 39.0106 16.2663 38.7886 16.0156C38.5701 15.765 38.2121 15.6396 37.7144 15.6396C37.2524 15.6468 36.8621 15.7972 36.5435 16.0908C36.2248 16.3809 36.0475 16.7354 36.0117 17.1543V21H35.3672V17.1221C35.3636 16.6243 35.2454 16.2537 35.0127 16.0103C34.7835 15.7632 34.429 15.6396 33.9492 15.6396C33.5446 15.6396 33.1973 15.756 32.9072 15.9888C32.6172 16.2179 32.4023 16.5599 32.2627 17.0146V21H31.6182V15.1885H32.2358Z" fill="#333333"/>
<path d="M35.2949 78.7437H32.6147V86H31.9541V78.7437H29.2793V78.1797H35.2949V78.7437ZM35.5205 83.0083C35.5205 82.4497 35.6279 81.9466 35.8428 81.499C36.0612 81.0514 36.3674 80.7041 36.7612 80.457C37.1587 80.2064 37.6081 80.0811 38.1094 80.0811C38.8828 80.0811 39.5094 80.3532 39.9893 80.8975C40.4691 81.4382 40.709 82.1561 40.709 83.0513V83.1855C40.709 83.7477 40.5998 84.2544 40.3813 84.7056C40.1665 85.1532 39.8621 85.4987 39.4683 85.7422C39.0744 85.9857 38.625 86.1074 38.1201 86.1074C37.3503 86.1074 36.7236 85.8371 36.2402 85.2964C35.7604 84.7521 35.5205 84.0324 35.5205 83.1372V83.0083ZM36.165 83.1855C36.165 83.8802 36.3441 84.4513 36.7021 84.8989C37.0638 85.3429 37.5365 85.5649 38.1201 85.5649C38.7002 85.5649 39.1693 85.3429 39.5273 84.8989C39.889 84.4513 40.0698 83.8623 40.0698 83.1318V83.0083C40.0698 82.5643 39.9875 82.1579 39.8228 81.7891C39.658 81.4202 39.4271 81.1356 39.1299 80.9351C38.8327 80.731 38.4925 80.6289 38.1094 80.6289C37.5365 80.6289 37.0692 80.8545 36.7075 81.3057C36.3459 81.7533 36.165 82.3405 36.165 83.0674V83.1855Z" fill="#333333"/>
<circle cx="52" cy="18" r="3" fill="#B32B32"/>
<line x1="52.25" y1="27" x2="52.25" y2="32" stroke="#333333" stroke-width="0.5"/>
<line x1="52.25" y1="34" x2="52.25" y2="39" stroke="#333333" stroke-width="0.5"/>
<line x1="52.25" y1="41" x2="52.25" y2="46" stroke="#333333" stroke-width="0.5"/>
<line x1="52.25" y1="48" x2="52.25" y2="53" stroke="#333333" stroke-width="0.5"/>
<line x1="52.25" y1="55" x2="52.25" y2="60" stroke="#333333" stroke-width="0.5"/>
<line x1="52.25" y1="62" x2="52.25" y2="67" stroke="#333333" stroke-width="0.5"/>
<line x1="52.25" y1="69" x2="52.25" y2="74" stroke="#333333" stroke-width="0.5"/>
<path d="M62.1709 33.376L62.228 33.7495L62.417 33.3584L65.3965 27.606H65.6602L62.3511 34H62.0654L60.7339 27.5972H60.9844L62.1709 33.376ZM67.0752 34.0879C66.6943 34.0879 66.3662 33.981 66.0908 33.7671C65.8154 33.5532 65.6162 33.2617 65.4932 32.8926C65.373 32.5205 65.3423 32.1309 65.4009 31.7236L65.436 31.5039C65.5063 31.0762 65.6558 30.6763 65.8843 30.3042C66.1157 29.9321 66.3896 29.6479 66.7061 29.4517C67.0225 29.2554 67.3608 29.1572 67.7212 29.1572C68.2017 29.1572 68.5781 29.3345 68.8506 29.689C69.123 30.0435 69.2388 30.4976 69.1978 31.0513L69.1846 31.1875L69.145 31.4644H65.6909L65.6426 31.7236C65.6016 31.9697 65.6001 32.2188 65.6382 32.4707C65.7026 32.8896 65.8623 33.2251 66.1172 33.4771C66.375 33.7261 66.6929 33.8521 67.0708 33.855C67.6187 33.8608 68.1123 33.644 68.5518 33.2046L68.71 33.3276C68.2764 33.8345 67.7314 34.0879 67.0752 34.0879ZM67.7212 29.3945C67.27 29.3945 66.8657 29.5645 66.5083 29.9043C66.1538 30.2412 65.8901 30.6821 65.7173 31.2271H68.9253L68.9385 31.1699C68.9766 30.959 68.9795 30.748 68.9473 30.5371C68.8945 30.1914 68.7568 29.9146 68.5342 29.7065C68.3145 29.4985 68.0435 29.3945 67.7212 29.3945ZM72.8804 32.8354C72.9858 32.2847 72.5845 31.8936 71.6763 31.6621L71.1885 31.5215C70.5146 31.3018 70.2188 30.9136 70.3008 30.3569C70.3535 29.9966 70.5439 29.7065 70.8721 29.4868C71.2002 29.2671 71.5811 29.1572 72.0146 29.1572C72.4922 29.1572 72.8657 29.2803 73.1353 29.5264C73.4048 29.7725 73.519 30.1021 73.478 30.5151H73.2407C73.2759 30.1812 73.1777 29.9116 72.9463 29.7065C72.7148 29.4985 72.4058 29.3945 72.019 29.3945C71.644 29.3945 71.3174 29.481 71.0391 29.6538C70.7607 29.8267 70.5938 30.0581 70.5381 30.3481C70.4502 30.814 70.7197 31.145 71.3467 31.3413L72.0015 31.5303L72.2212 31.605C72.9038 31.854 73.2026 32.2656 73.1177 32.8398C73.062 33.2178 72.8657 33.521 72.5288 33.7495C72.1919 33.9751 71.7891 34.0879 71.3203 34.0879C70.8311 34.0879 70.4399 33.9692 70.147 33.7319C69.854 33.4917 69.728 33.1782 69.769 32.7915H70.002C69.9873 33.1196 70.0957 33.3789 70.3271 33.5693C70.5615 33.7568 70.8911 33.8506 71.3159 33.8506C71.7202 33.8418 72.0688 33.7451 72.3618 33.5605C72.6548 33.373 72.8276 33.1313 72.8804 32.8354ZM75.7368 27.9619L75.5171 29.2451H76.5586L76.5278 29.4868H75.4731L74.8711 32.9673L74.8535 33.209C74.8447 33.4082 74.8857 33.5649 74.9766 33.6792C75.0674 33.7905 75.2051 33.8477 75.3896 33.8506C75.4717 33.8506 75.6313 33.8374 75.8687 33.811L75.8774 34.0352C75.7427 34.0703 75.583 34.0879 75.3984 34.0879C74.9004 34.0879 74.6411 33.8315 74.6206 33.3188C74.6147 33.1694 74.625 33.0171 74.6514 32.8618L75.2314 29.4868H74.3833L74.4185 29.2451H75.2754L75.4951 27.9619H75.7368ZM78.7207 34.0879C78.3398 34.0879 78.0117 33.981 77.7363 33.7671C77.4609 33.5532 77.2617 33.2617 77.1387 32.8926C77.0186 32.5205 76.9878 32.1309 77.0464 31.7236L77.0815 31.5039C77.1519 31.0762 77.3013 30.6763 77.5298 30.3042C77.7612 29.9321 78.0352 29.6479 78.3516 29.4517C78.668 29.2554 79.0063 29.1572 79.3667 29.1572C79.8472 29.1572 80.2236 29.3345 80.4961 29.689C80.7686 30.0435 80.8843 30.4976 80.8433 31.0513L80.8301 31.1875L80.7905 31.4644H77.3364L77.2881 31.7236C77.2471 31.9697 77.2456 32.2188 77.2837 32.4707C77.3481 32.8896 77.5078 33.2251 77.7627 33.4771C78.0205 33.7261 78.3384 33.8521 78.7163 33.855C79.2642 33.8608 79.7578 33.644 80.1973 33.2046L80.3555 33.3276C79.9219 33.8345 79.377 34.0879 78.7207 34.0879ZM79.3667 29.3945C78.9155 29.3945 78.5112 29.5645 78.1538 29.9043C77.7993 30.2412 77.5356 30.6821 77.3628 31.2271H80.5708L80.584 31.1699C80.6221 30.959 80.625 30.748 80.5928 30.5371C80.54 30.1914 80.4023 29.9146 80.1797 29.7065C79.96 29.4985 79.689 29.3945 79.3667 29.3945ZM84.2666 29.4121L83.981 29.3901C83.5884 29.3901 83.2236 29.5352 82.8867 29.8252C82.5498 30.1152 82.3242 30.4683 82.21 30.8843L81.6694 34H81.4321L82.2495 29.2451H82.4868L82.3022 30.2339C82.5015 29.894 82.7446 29.6304 83.0317 29.4429C83.3188 29.2524 83.6382 29.1572 83.9897 29.1572C84.1011 29.1572 84.2124 29.1748 84.3237 29.21L84.2666 29.4121ZM86.1958 34.0879C85.8677 34.0879 85.5762 34.0161 85.3213 33.8726C85.0693 33.729 84.8818 33.521 84.7588 33.2485L84.6226 34H84.3853L85.5498 27.25H85.7871L85.2773 30.1108C85.4971 29.8032 85.7534 29.5674 86.0464 29.4033C86.3423 29.2393 86.6602 29.1572 87 29.1572C87.3076 29.1572 87.5698 29.2334 87.7866 29.3857C88.0034 29.5381 88.1616 29.7622 88.2612 30.0581C88.3638 30.3511 88.4092 30.6763 88.3975 31.0337C88.3887 31.2212 88.3711 31.4014 88.3447 31.5742L88.2876 31.8643C88.1353 32.5527 87.8745 33.0962 87.5054 33.4946C87.1362 33.8901 86.6997 34.0879 86.1958 34.0879ZM88.0986 31.5742L88.1514 31.104C88.1748 30.7847 88.147 30.4888 88.0679 30.2163C87.9917 29.9438 87.8613 29.7388 87.6768 29.6011C87.4951 29.4634 87.271 29.3945 87.0044 29.3945C86.6147 29.3945 86.2471 29.5117 85.9014 29.7461C85.5586 29.9805 85.3286 30.2705 85.2114 30.6162L84.8203 32.7959C84.8906 33.1357 85.0474 33.3965 85.2905 33.5781C85.5366 33.7598 85.8384 33.8506 86.1958 33.8506C86.6675 33.8506 87.0674 33.6572 87.3955 33.2705C87.7236 32.8809 87.9521 32.3462 88.0811 31.6665L88.0986 31.5742ZM92.0537 29.4121L91.7681 29.3901C91.3755 29.3901 91.0107 29.5352 90.6738 29.8252C90.3369 30.1152 90.1113 30.4683 89.9971 30.8843L89.4565 34H89.2192L90.0366 29.2451H90.2739L90.0894 30.2339C90.2886 29.894 90.5317 29.6304 90.8188 29.4429C91.106 29.2524 91.4253 29.1572 91.7769 29.1572C91.8882 29.1572 91.9995 29.1748 92.1108 29.21L92.0537 29.4121ZM92.168 31.5303C92.2412 31.0879 92.3892 30.6851 92.6118 30.3218C92.8345 29.9585 93.1128 29.6743 93.4468 29.4692C93.7808 29.2612 94.1455 29.1572 94.541 29.1572C94.8633 29.1572 95.1489 29.229 95.3979 29.3726C95.647 29.5161 95.8447 29.73 95.9912 30.0142C96.1377 30.2954 96.2212 30.6074 96.2417 30.9502C96.2505 31.1494 96.2329 31.4043 96.189 31.7148C96.1157 32.1572 95.9663 32.5615 95.7407 32.9277C95.5181 33.2939 95.2397 33.5796 94.9058 33.7847C94.5747 33.9868 94.2129 34.0879 93.8203 34.0879C93.4951 34.0879 93.208 34.0161 92.959 33.8726C92.7129 33.7261 92.5151 33.5137 92.3657 33.2354C92.2192 32.9541 92.1372 32.6392 92.1196 32.2905C92.1079 32.0942 92.124 31.8408 92.168 31.5303ZM92.3745 32.4707C92.4331 32.8955 92.5898 33.2324 92.8447 33.4814C93.0996 33.7275 93.4233 33.8506 93.8159 33.8506C94.2759 33.8506 94.6904 33.6895 95.0596 33.3672C95.4316 33.0449 95.6997 32.6099 95.8638 32.062C95.9985 31.6079 96.0381 31.1787 95.9824 30.7744C95.918 30.3496 95.7583 30.0142 95.5034 29.7681C95.2515 29.519 94.9321 29.3945 94.5454 29.3945C94.0854 29.3945 93.6694 29.5586 93.2974 29.8867C92.9253 30.2119 92.6572 30.644 92.4932 31.1831C92.3584 31.6313 92.3188 32.0605 92.3745 32.4707ZM97.1426 31.5742C97.2246 31.0967 97.3682 30.6689 97.5732 30.291C97.7812 29.9131 98.0317 29.6304 98.3247 29.4429C98.6177 29.2524 98.937 29.1572 99.2827 29.1572C99.6255 29.1572 99.9185 29.2437 100.162 29.4165C100.408 29.5864 100.583 29.8193 100.689 30.1152L100.847 29.2451H101.084L100.298 33.833C100.187 34.4863 99.9419 34.9961 99.564 35.3623C99.189 35.7314 98.7378 35.916 98.2104 35.916C97.6099 35.916 97.144 35.6465 96.813 35.1074L96.9932 34.958C97.2949 35.4414 97.6963 35.6831 98.1973 35.6831C98.6543 35.6831 99.0469 35.5278 99.375 35.2173C99.7061 34.9097 99.9272 34.4746 100.039 33.9121L100.17 33.2485C99.9595 33.5151 99.7075 33.7217 99.4146 33.8682C99.1245 34.0146 98.8081 34.0879 98.4653 34.0879C98.1548 34.0879 97.894 34.0117 97.6831 33.8594C97.4722 33.7041 97.3154 33.4785 97.2129 33.1826C97.1133 32.8838 97.0693 32.5557 97.0811 32.1982C97.0869 32.0312 97.1074 31.8232 97.1426 31.5742ZM97.3184 32.1323C97.2803 32.6655 97.3594 33.0859 97.5557 33.3936C97.7549 33.6982 98.0552 33.8506 98.4565 33.8506C98.8345 33.8506 99.1758 33.7583 99.4805 33.5737C99.7852 33.3862 100.034 33.124 100.228 32.7871L100.614 30.6294C100.556 30.228 100.411 29.9219 100.179 29.7109C99.9507 29.5 99.6519 29.3945 99.2827 29.3945C98.9077 29.3945 98.5737 29.5205 98.2808 29.7725C97.9878 30.0244 97.7607 30.3701 97.5996 30.8096C97.4385 31.249 97.3447 31.6899 97.3184 32.1323ZM104.798 34C104.789 33.7422 104.817 33.4521 104.881 33.1299C104.635 33.4316 104.342 33.6675 104.002 33.8374C103.666 34.0073 103.299 34.0908 102.904 34.0879C102.505 34.0879 102.188 33.9648 101.95 33.7188C101.713 33.4727 101.624 33.165 101.682 32.7959C101.755 32.3477 102.003 31.9976 102.425 31.7456C102.85 31.4937 103.387 31.3604 104.038 31.3457H105.167L105.294 30.6514C105.356 30.2617 105.278 29.9556 105.062 29.7329C104.845 29.5073 104.533 29.3945 104.125 29.3945C103.727 29.3945 103.367 29.5015 103.044 29.7153C102.722 29.9263 102.52 30.2046 102.438 30.5503L102.201 30.5415C102.283 30.1343 102.508 29.8018 102.877 29.5439C103.247 29.2861 103.663 29.1572 104.125 29.1572C104.609 29.1572 104.979 29.2949 105.237 29.5703C105.495 29.8428 105.59 30.2061 105.523 30.6602L105.088 33.2002L105.057 33.499C105.042 33.6543 105.048 33.8081 105.075 33.9604L105.07 34H104.798ZM102.899 33.855C103.292 33.8608 103.666 33.7671 104.02 33.5737C104.375 33.3774 104.676 33.0918 104.925 32.7168L105.127 31.5874H104.064C103.472 31.5991 102.983 31.7134 102.596 31.9302C102.212 32.144 101.985 32.4385 101.915 32.8135C101.862 33.1035 101.931 33.3481 102.122 33.5474C102.315 33.7466 102.574 33.8491 102.899 33.855ZM106.648 31.5742C106.73 31.0967 106.874 30.6689 107.079 30.291C107.287 29.9131 107.537 29.6304 107.83 29.4429C108.123 29.2524 108.442 29.1572 108.788 29.1572C109.122 29.1572 109.412 29.2407 109.658 29.4077C109.907 29.5747 110.087 29.812 110.199 30.1196L110.7 27.25H110.937L109.772 34H109.535L109.685 33.2397C109.474 33.5063 109.222 33.7144 108.929 33.8638C108.636 34.0132 108.316 34.0879 107.971 34.0879C107.66 34.0879 107.399 34.0117 107.188 33.8594C106.978 33.7041 106.821 33.4785 106.718 33.1826C106.619 32.8838 106.575 32.5557 106.586 32.1982C106.592 32.0312 106.613 31.8232 106.648 31.5742ZM106.828 32.1323C106.805 32.4546 106.83 32.7505 106.903 33.02C106.976 33.2896 107.102 33.4961 107.281 33.6396C107.462 33.7803 107.689 33.8506 107.962 33.8506C108.343 33.8535 108.684 33.7627 108.986 33.5781C109.291 33.3936 109.54 33.1416 109.733 32.8223L110.128 30.5942C110.067 30.2134 109.919 29.9189 109.685 29.7109C109.453 29.5 109.154 29.3945 108.788 29.3945C108.416 29.3945 108.085 29.519 107.795 29.7681C107.505 30.0142 107.278 30.3569 107.114 30.7964C106.95 31.2358 106.854 31.6812 106.828 32.1323ZM112.998 34.0879C112.617 34.0879 112.289 33.981 112.014 33.7671C111.738 33.5532 111.539 33.2617 111.416 32.8926C111.296 32.5205 111.265 32.1309 111.324 31.7236L111.359 31.5039C111.429 31.0762 111.579 30.6763 111.807 30.3042C112.039 29.9321 112.312 29.6479 112.629 29.4517C112.945 29.2554 113.284 29.1572 113.644 29.1572C114.125 29.1572 114.501 29.3345 114.773 29.689C115.046 30.0435 115.162 30.4976 115.121 31.0513L115.107 31.1875L115.068 31.4644H111.614L111.565 31.7236C111.524 31.9697 111.523 32.2188 111.561 32.4707C111.625 32.8896 111.785 33.2251 112.04 33.4771C112.298 33.7261 112.616 33.8521 112.994 33.855C113.542 33.8608 114.035 33.644 114.475 33.2046L114.633 33.3276C114.199 33.8345 113.654 34.0879 112.998 34.0879ZM113.644 29.3945C113.193 29.3945 112.789 29.5645 112.431 29.9043C112.077 30.2412 111.813 30.6821 111.64 31.2271H114.848L114.861 31.1699C114.899 30.959 114.902 30.748 114.87 30.5371C114.817 30.1914 114.68 29.9146 114.457 29.7065C114.237 29.4985 113.966 29.3945 113.644 29.3945ZM120.217 30.6162H120.608C121.115 30.6162 121.551 30.4917 121.917 30.2427C122.284 29.9907 122.505 29.6538 122.581 29.2319C122.657 28.7983 122.577 28.4438 122.339 28.1685C122.102 27.8901 121.761 27.751 121.315 27.751C120.858 27.751 120.458 27.8916 120.116 28.1729C119.776 28.4512 119.558 28.8203 119.461 29.2803L119.224 29.2759C119.314 28.7544 119.556 28.3311 119.949 28.0059C120.341 27.6777 120.797 27.5137 121.315 27.5137C121.825 27.5137 122.222 27.6763 122.506 28.0015C122.791 28.3237 122.895 28.7397 122.818 29.2495C122.771 29.5806 122.626 29.8765 122.383 30.1372C122.143 30.3979 121.824 30.5957 121.425 30.7305C121.803 30.8359 122.087 31.0293 122.278 31.3105C122.471 31.5889 122.539 31.9199 122.48 32.3037C122.401 32.8281 122.165 33.2573 121.772 33.5913C121.38 33.9224 120.911 34.0879 120.366 34.0879C120.006 34.0879 119.684 34.0088 119.399 33.8506C119.118 33.6924 118.909 33.4697 118.771 33.1826C118.633 32.8926 118.585 32.5718 118.626 32.2202H118.863C118.802 32.6831 118.915 33.0713 119.202 33.3848C119.489 33.6953 119.875 33.8506 120.362 33.8506C120.851 33.8506 121.266 33.7114 121.605 33.4331C121.948 33.1548 122.159 32.7842 122.238 32.3213C122.314 31.8584 122.208 31.4995 121.917 31.2446C121.63 30.9897 121.189 30.8623 120.595 30.8623H120.186L120.217 30.6162ZM123.051 35.1206L122.902 34.9712C123.215 34.6196 123.404 34.2593 123.469 33.8901L123.57 33.3013H123.807L123.715 33.855C123.63 34.3589 123.409 34.7808 123.051 35.1206ZM130.059 34H129.822L130.876 27.9136L128.982 28.5859L129.018 28.3311L131.101 27.584H131.158L130.059 34ZM136.734 27.5137L136.704 27.751C135.877 27.751 135.18 28.019 134.612 28.5552C134.043 29.0884 133.642 29.8296 133.408 30.7788C133.595 30.5269 133.821 30.3174 134.084 30.1504C134.459 29.9131 134.865 29.7944 135.302 29.7944C135.656 29.7944 135.957 29.8867 136.203 30.0713C136.449 30.2559 136.622 30.5078 136.721 30.8271C136.824 31.1465 136.847 31.501 136.792 31.8906C136.73 32.2949 136.595 32.6699 136.387 33.0156C136.182 33.3613 135.933 33.6265 135.64 33.811C135.347 33.9956 135.038 34.0879 134.713 34.0879C134.326 34.0879 133.994 33.9897 133.715 33.7935C133.44 33.5942 133.241 33.3188 133.118 32.9673C132.995 32.6157 132.962 32.2393 133.021 31.8379L133.122 31.1831C133.298 30.0522 133.696 29.1587 134.317 28.5024C134.938 27.8433 135.744 27.5137 136.734 27.5137ZM135.271 30.0317C134.861 30.0317 134.462 30.1548 134.076 30.4009C133.692 30.644 133.45 30.9341 133.351 31.271L133.258 31.8335C133.203 32.1997 133.226 32.541 133.329 32.8574C133.431 33.1738 133.601 33.4199 133.838 33.5957C134.076 33.7715 134.366 33.8579 134.708 33.855C135.066 33.8521 135.394 33.7261 135.693 33.4771C135.995 33.228 136.229 32.8882 136.396 32.4575C136.563 32.0269 136.62 31.6094 136.567 31.2051C136.518 30.8359 136.378 30.5488 136.15 30.3438C135.921 30.1357 135.628 30.0317 135.271 30.0317ZM139.252 30.6162H139.644C140.15 30.6162 140.587 30.4917 140.953 30.2427C141.319 29.9907 141.541 29.6538 141.617 29.2319C141.693 28.7983 141.612 28.4438 141.375 28.1685C141.138 27.8901 140.796 27.751 140.351 27.751C139.894 27.751 139.494 27.8916 139.151 28.1729C138.812 28.4512 138.593 28.8203 138.497 29.2803L138.259 29.2759C138.35 28.7544 138.592 28.3311 138.984 28.0059C139.377 27.6777 139.833 27.5137 140.351 27.5137C140.861 27.5137 141.258 27.6763 141.542 28.0015C141.826 28.3237 141.93 28.7397 141.854 29.2495C141.807 29.5806 141.662 29.8765 141.419 30.1372C141.179 30.3979 140.859 30.5957 140.461 30.7305C140.839 30.8359 141.123 31.0293 141.313 31.3105C141.507 31.5889 141.574 31.9199 141.516 32.3037C141.437 32.8281 141.201 33.2573 140.808 33.5913C140.416 33.9224 139.947 34.0879 139.402 34.0879C139.042 34.0879 138.719 34.0088 138.435 33.8506C138.154 33.6924 137.944 33.4697 137.807 33.1826C137.669 32.8926 137.621 32.5718 137.662 32.2202H137.899C137.837 32.6831 137.95 33.0713 138.237 33.3848C138.524 33.6953 138.911 33.8506 139.397 33.8506C139.887 33.8506 140.301 33.7114 140.641 33.4331C140.984 33.1548 141.195 32.7842 141.274 32.3213C141.35 31.8584 141.243 31.4995 140.953 31.2446C140.666 30.9897 140.225 30.8623 139.63 30.8623H139.222L139.252 30.6162ZM144.135 34.0879C143.801 34.0879 143.52 34.0044 143.291 33.8374C143.062 33.6704 142.894 33.4243 142.786 33.0991C142.68 32.771 142.636 32.3975 142.654 31.9785L142.689 31.5566L142.9 30.3086C143.049 29.4385 143.323 28.7544 143.722 28.2563C144.12 27.7583 144.62 27.5093 145.22 27.5093C145.56 27.5093 145.844 27.5942 146.073 27.7642C146.301 27.9312 146.468 28.1802 146.574 28.5112C146.679 28.8423 146.722 29.2129 146.701 29.623L146.657 30.0977L146.442 31.3457C146.29 32.21 146.014 32.8838 145.616 33.3672C145.217 33.8477 144.724 34.0879 144.135 34.0879ZM146.464 29.1396C146.426 28.6768 146.301 28.3296 146.09 28.0981C145.879 27.8638 145.591 27.7466 145.225 27.7466C144.697 27.7466 144.252 27.9722 143.889 28.4233C143.528 28.8716 143.276 29.5088 143.133 30.335L142.931 31.5215L142.896 31.895C142.866 32.2583 142.891 32.5938 142.97 32.9014C143.049 33.209 143.187 33.4448 143.383 33.6089C143.58 33.77 143.829 33.8506 144.13 33.8506C144.655 33.8506 145.096 33.6294 145.453 33.187C145.813 32.7417 146.064 32.1235 146.205 31.3325L146.389 30.2866C146.465 29.856 146.49 29.4736 146.464 29.1396ZM62.2192 41.6382L61.0459 42.5918L60.6328 45H60.3955L61.4985 38.6016H61.7358L61.0986 42.2754L62.2764 41.2734L65.3174 38.6016L65.6865 38.606L62.3994 41.4888L64.7769 45H64.4868L62.2192 41.6382ZM68.3408 40.1572C68.6719 40.1572 68.9766 40.2378 69.2549 40.3989L69.7559 39.6475L70.0371 39.6519L69.457 40.5396C69.832 40.897 70.0195 41.3804 70.0195 41.9897C70.0195 42.1714 70.0063 42.3516 69.98 42.5303L69.9492 42.6973C69.8115 43.418 69.5215 43.9966 69.0791 44.4331C68.6396 44.8696 68.127 45.0879 67.541 45.0879C67.2363 45.0879 66.9507 45.0176 66.6841 44.877L66.1831 45.6328L65.8975 45.6284L66.4775 44.7495C66.0703 44.4067 65.8652 43.9131 65.8623 43.2686C65.8564 42.8906 65.9121 42.5083 66.0293 42.1216C66.1494 41.7349 66.3223 41.3936 66.5479 41.0977C66.7764 40.8018 67.0415 40.5718 67.3433 40.4077C67.6479 40.2407 67.9805 40.1572 68.3408 40.1572ZM66.1392 42.7148C66.1128 42.876 66.0981 43.0386 66.0952 43.2026C66.0894 43.4663 66.1304 43.7139 66.2183 43.9453C66.3062 44.1768 66.4321 44.3716 66.5962 44.5298L69.1318 40.623C68.8975 40.4707 68.6353 40.3945 68.3452 40.3945C67.8267 40.3945 67.3638 40.5996 66.9565 41.0098C66.5493 41.417 66.2842 41.9458 66.1611 42.5962L66.1392 42.7148ZM69.7427 42.5303C69.769 42.375 69.7822 42.2183 69.7822 42.0601C69.7822 41.5269 69.6299 41.0962 69.3252 40.7681L66.7983 44.666C67.0151 44.7891 67.2612 44.8506 67.5366 44.8506C68.0552 44.8506 68.5166 44.6484 68.9209 44.2441C69.3281 43.8398 69.5947 43.3081 69.7207 42.6489L69.7427 42.5303ZM72.4937 45.0879C72.1655 45.0879 71.874 45.0161 71.6191 44.8726C71.3672 44.729 71.1797 44.521 71.0566 44.2485L70.9204 45H70.6831L71.8477 38.25H72.085L71.5752 41.1108C71.7949 40.8032 72.0513 40.5674 72.3442 40.4033C72.6401 40.2393 72.958 40.1572 73.2979 40.1572C73.6055 40.1572 73.8677 40.2334 74.0845 40.3857C74.3013 40.5381 74.4595 40.7622 74.5591 41.0581C74.6616 41.3511 74.707 41.6763 74.6953 42.0337C74.6865 42.2212 74.6689 42.4014 74.6426 42.5742L74.5854 42.8643C74.4331 43.5527 74.1724 44.0962 73.8032 44.4946C73.4341 44.8901 72.9976 45.0879 72.4937 45.0879ZM74.3965 42.5742L74.4492 42.104C74.4727 41.7847 74.4448 41.4888 74.3657 41.2163C74.2896 40.9438 74.1592 40.7388 73.9746 40.6011C73.793 40.4634 73.5688 40.3945 73.3022 40.3945C72.9126 40.3945 72.5449 40.5117 72.1992 40.7461C71.8564 40.9805 71.6265 41.2705 71.5093 41.6162L71.1182 43.7959C71.1885 44.1357 71.3452 44.3965 71.5884 44.5781C71.8345 44.7598 72.1362 44.8506 72.4937 44.8506C72.9653 44.8506 73.3652 44.6572 73.6934 44.2705C74.0215 43.8809 74.25 43.3462 74.3789 42.6665L74.3965 42.5742ZM77.2529 45.0879C76.8721 45.0879 76.5439 44.981 76.2686 44.7671C75.9932 44.5532 75.7939 44.2617 75.6709 43.8926C75.5508 43.5205 75.52 43.1309 75.5786 42.7236L75.6138 42.5039C75.6841 42.0762 75.8335 41.6763 76.062 41.3042C76.2935 40.9321 76.5674 40.6479 76.8838 40.4517C77.2002 40.2554 77.5386 40.1572 77.8989 40.1572C78.3794 40.1572 78.7559 40.3345 79.0283 40.689C79.3008 41.0435 79.4165 41.4976 79.3755 42.0513L79.3623 42.1875L79.3228 42.4644H75.8687L75.8203 42.7236C75.7793 42.9697 75.7778 43.2188 75.8159 43.4707C75.8804 43.8896 76.04 44.2251 76.2949 44.4771C76.5527 44.7261 76.8706 44.8521 77.2485 44.855C77.7964 44.8608 78.29 44.644 78.7295 44.2046L78.8877 44.3276C78.4541 44.8345 77.9092 45.0879 77.2529 45.0879ZM77.8989 40.3945C77.4478 40.3945 77.0435 40.5645 76.686 40.9043C76.3315 41.2412 76.0679 41.6821 75.895 42.2271H79.103L79.1162 42.1699C79.1543 41.959 79.1572 41.748 79.125 41.5371C79.0723 41.1914 78.9346 40.9146 78.7119 40.7065C78.4922 40.4985 78.2212 40.3945 77.8989 40.3945ZM80.8125 41.3525C81.0498 40.9688 81.3296 40.6743 81.6519 40.4692C81.9741 40.2612 82.3066 40.1572 82.6494 40.1572C83.0127 40.1572 83.2983 40.251 83.5063 40.4385C83.7144 40.626 83.8345 40.897 83.8667 41.2515C83.8843 41.4741 83.8726 41.707 83.8315 41.9502L83.3042 45H83.0669L83.5942 41.9502C83.6294 41.7451 83.644 41.543 83.6382 41.3438C83.6235 41.0332 83.5312 40.7959 83.3613 40.6318C83.1943 40.4678 82.9541 40.3872 82.6406 40.3901C82.2393 40.396 81.8525 40.5527 81.4805 40.8604C81.1113 41.165 80.8608 41.5298 80.729 41.9546L80.2017 45H79.9644L80.7817 40.2451H81.019L80.8125 41.3525ZM85.6377 41.3525C85.875 40.9688 86.1548 40.6743 86.4771 40.4692C86.7993 40.2612 87.1318 40.1572 87.4746 40.1572C87.8379 40.1572 88.1235 40.251 88.3315 40.4385C88.5396 40.626 88.6597 40.897 88.6919 41.2515C88.7095 41.4741 88.6978 41.707 88.6567 41.9502L88.1294 45H87.8921L88.4194 41.9502C88.4546 41.7451 88.4692 41.543 88.4634 41.3438C88.4487 41.0332 88.3564 40.7959 88.1865 40.6318C88.0195 40.4678 87.7793 40.3872 87.4658 40.3901C87.0645 40.396 86.6777 40.5527 86.3057 40.8604C85.9365 41.165 85.686 41.5298 85.5542 41.9546L85.0269 45H84.7896L85.9541 38.25H86.1914L85.6377 41.3525ZM92.6338 45C92.625 44.7422 92.6528 44.4521 92.7173 44.1299C92.4712 44.4316 92.1782 44.6675 91.8384 44.8374C91.5015 45.0073 91.1353 45.0908 90.7397 45.0879C90.3413 45.0879 90.0234 44.9648 89.7861 44.7188C89.5488 44.4727 89.4595 44.165 89.5181 43.7959C89.5913 43.3477 89.8389 42.9976 90.2607 42.7456C90.6855 42.4937 91.2231 42.3604 91.8735 42.3457H93.0029L93.1304 41.6514C93.1919 41.2617 93.1143 40.9556 92.8975 40.7329C92.6807 40.5073 92.3687 40.3945 91.9614 40.3945C91.563 40.3945 91.2026 40.5015 90.8804 40.7153C90.5581 40.9263 90.356 41.2046 90.2739 41.5503L90.0366 41.5415C90.1187 41.1343 90.3442 40.8018 90.7134 40.5439C91.0825 40.2861 91.4985 40.1572 91.9614 40.1572C92.4448 40.1572 92.8154 40.2949 93.0732 40.5703C93.3311 40.8428 93.4263 41.2061 93.3589 41.6602L92.9238 44.2002L92.8931 44.499C92.8784 44.6543 92.8843 44.8081 92.9106 44.9604L92.9062 45H92.6338ZM90.7354 44.855C91.1279 44.8608 91.5015 44.7671 91.856 44.5737C92.2104 44.3774 92.5122 44.0918 92.7612 43.7168L92.9634 42.5874H91.8999C91.3081 42.5991 90.8188 42.7134 90.4321 42.9302C90.0483 43.144 89.8213 43.4385 89.751 43.8135C89.6982 44.1035 89.7671 44.3481 89.9575 44.5474C90.1509 44.7466 90.4102 44.8491 90.7354 44.855ZM95.6528 44.6133L97.9951 40.2495H98.2544L95.7275 45H95.4946L94.4355 40.2407H94.6816L95.6528 44.6133ZM99.2695 41.3525C99.5068 40.9688 99.7866 40.6743 100.109 40.4692C100.431 40.2612 100.764 40.1572 101.106 40.1572C101.47 40.1572 101.755 40.251 101.963 40.4385C102.171 40.626 102.292 40.897 102.324 41.2515C102.341 41.4741 102.33 41.707 102.289 41.9502L101.761 45H101.524L102.051 41.9502C102.086 41.7451 102.101 41.543 102.095 41.3438C102.081 41.0332 101.988 40.7959 101.818 40.6318C101.651 40.4678 101.411 40.3872 101.098 40.3901C100.696 40.396 100.31 40.5527 99.9375 40.8604C99.5684 41.165 99.3179 41.5298 99.186 41.9546L98.6587 45H98.4214L99.2388 40.2451H99.4761L99.2695 41.3525ZM107.276 44.376L107.333 44.7495L107.522 44.3584L110.502 38.606H110.766L107.457 45H107.171L105.839 38.5972H106.09L107.276 44.376Z" fill="#707070"/>
<path d="M60.3911 99L61.5029 92.6016H63.1157C63.7485 92.6074 64.2217 92.7554 64.5352 93.0454C64.8516 93.3354 64.9688 93.7339 64.8867 94.2407C64.8223 94.6157 64.6743 94.9307 64.4429 95.1855C64.2114 95.4375 63.9111 95.6074 63.542 95.6953C63.917 95.7598 64.21 95.9385 64.4209 96.2314C64.6318 96.5244 64.708 96.8599 64.6494 97.2378C64.5645 97.7739 64.3154 98.2017 63.9023 98.521C63.4893 98.8403 62.9839 99 62.3862 99H60.3911ZM61.1777 95.8403L60.6724 98.7627H62.3818C62.918 98.7627 63.3677 98.6265 63.731 98.354C64.0972 98.0815 64.3242 97.7124 64.4121 97.2466C64.4883 96.8306 64.3901 96.4922 64.1177 96.2314C63.8481 95.9707 63.4644 95.8403 62.9663 95.8403H61.1777ZM61.2173 95.603H62.6104C63.1846 95.603 63.646 95.4858 63.9946 95.2515C64.3462 95.0142 64.5645 94.6714 64.6494 94.2231C64.7285 93.7954 64.6392 93.4614 64.3813 93.2212C64.1235 92.981 63.7148 92.8535 63.1553 92.8389H61.7007L61.2173 95.603ZM68.6045 99C68.5957 98.7422 68.6235 98.4521 68.688 98.1299C68.4419 98.4316 68.1489 98.6675 67.8091 98.8374C67.4722 99.0073 67.106 99.0908 66.7104 99.0879C66.312 99.0879 65.9941 98.9648 65.7568 98.7188C65.5195 98.4727 65.4302 98.165 65.4888 97.7959C65.562 97.3477 65.8096 96.9976 66.2314 96.7456C66.6562 96.4937 67.1938 96.3604 67.8442 96.3457H68.9736L69.1011 95.6514C69.1626 95.2617 69.085 94.9556 68.8682 94.7329C68.6514 94.5073 68.3394 94.3945 67.9321 94.3945C67.5337 94.3945 67.1733 94.5015 66.8511 94.7153C66.5288 94.9263 66.3267 95.2046 66.2446 95.5503L66.0073 95.5415C66.0894 95.1343 66.3149 94.8018 66.6841 94.5439C67.0532 94.2861 67.4692 94.1572 67.9321 94.1572C68.4155 94.1572 68.7861 94.2949 69.0439 94.5703C69.3018 94.8428 69.397 95.2061 69.3296 95.6602L68.8945 98.2002L68.8638 98.499C68.8491 98.6543 68.855 98.8081 68.8813 98.9604L68.877 99H68.6045ZM66.7061 98.855C67.0986 98.8608 67.4722 98.7671 67.8267 98.5737C68.1812 98.3774 68.4829 98.0918 68.7319 97.7168L68.9341 96.5874H67.8706C67.2788 96.5991 66.7896 96.7134 66.4028 96.9302C66.019 97.144 65.792 97.4385 65.7217 97.8135C65.6689 98.1035 65.7378 98.3481 65.9282 98.5474C66.1216 98.7466 66.3809 98.8491 66.7061 98.855ZM71.0918 95.3525C71.3291 94.9688 71.6089 94.6743 71.9312 94.4692C72.2534 94.2612 72.5859 94.1572 72.9287 94.1572C73.292 94.1572 73.5776 94.251 73.7856 94.4385C73.9937 94.626 74.1138 94.897 74.146 95.2515C74.1636 95.4741 74.1519 95.707 74.1108 95.9502L73.5835 99H73.3462L73.8735 95.9502C73.9087 95.7451 73.9233 95.543 73.9175 95.3438C73.9028 95.0332 73.8105 94.7959 73.6406 94.6318C73.4736 94.4678 73.2334 94.3872 72.9199 94.3901C72.5186 94.396 72.1318 94.5527 71.7598 94.8604C71.3906 95.165 71.1401 95.5298 71.0083 95.9546L70.481 99H70.2437L71.061 94.2451H71.2983L71.0918 95.3525ZM76.8047 99.0879C76.4238 99.0879 76.0957 98.981 75.8203 98.7671C75.5449 98.5532 75.3457 98.2617 75.2227 97.8926C75.1025 97.5205 75.0718 97.1309 75.1304 96.7236L75.1655 96.5039C75.2358 96.0762 75.3853 95.6763 75.6138 95.3042C75.8452 94.9321 76.1191 94.6479 76.4355 94.4517C76.752 94.2554 77.0903 94.1572 77.4507 94.1572C77.9312 94.1572 78.3076 94.3345 78.5801 94.689C78.8525 95.0435 78.9683 95.4976 78.9272 96.0513L78.9141 96.1875L78.8745 96.4644H75.4204L75.3721 96.7236C75.3311 96.9697 75.3296 97.2188 75.3677 97.4707C75.4321 97.8896 75.5918 98.2251 75.8467 98.4771C76.1045 98.7261 76.4224 98.8521 76.8003 98.855C77.3481 98.8608 77.8418 98.644 78.2812 98.2046L78.4395 98.3276C78.0059 98.8345 77.4609 99.0879 76.8047 99.0879ZM77.4507 94.3945C76.9995 94.3945 76.5952 94.5645 76.2378 94.9043C75.8833 95.2412 75.6196 95.6821 75.4468 96.2271H78.6548L78.668 96.1699C78.7061 95.959 78.709 95.748 78.6768 95.5371C78.624 95.1914 78.4863 94.9146 78.2637 94.7065C78.0439 94.4985 77.7729 94.3945 77.4507 94.3945ZM79.7139 96.5742C79.7959 96.0967 79.9395 95.6689 80.1445 95.291C80.3525 94.9131 80.603 94.6304 80.896 94.4429C81.189 94.2524 81.5083 94.1572 81.854 94.1572C82.1968 94.1572 82.4897 94.2437 82.7329 94.4165C82.979 94.5864 83.1548 94.8193 83.2603 95.1152L83.4185 94.2451H83.6558L82.8691 98.833C82.7578 99.4863 82.5132 99.9961 82.1353 100.362C81.7603 100.731 81.3091 100.916 80.7817 100.916C80.1812 100.916 79.7153 100.646 79.3843 100.107L79.5645 99.958C79.8662 100.441 80.2676 100.683 80.7686 100.683C81.2256 100.683 81.6182 100.528 81.9463 100.217C82.2773 99.9097 82.4985 99.4746 82.6099 98.9121L82.7417 98.2485C82.5308 98.5151 82.2788 98.7217 81.9858 98.8682C81.6958 99.0146 81.3794 99.0879 81.0366 99.0879C80.7261 99.0879 80.4653 99.0117 80.2544 98.8594C80.0435 98.7041 79.8867 98.4785 79.7842 98.1826C79.6846 97.8838 79.6406 97.5557 79.6523 97.1982C79.6582 97.0312 79.6787 96.8232 79.7139 96.5742ZM79.8896 97.1323C79.8516 97.6655 79.9307 98.0859 80.127 98.3936C80.3262 98.6982 80.6265 98.8506 81.0278 98.8506C81.4058 98.8506 81.7471 98.7583 82.0518 98.5737C82.3564 98.3862 82.6055 98.124 82.7988 97.7871L83.1855 95.6294C83.127 95.228 82.9819 94.9219 82.7505 94.7109C82.522 94.5 82.2231 94.3945 81.854 94.3945C81.479 94.3945 81.145 94.5205 80.8521 94.7725C80.5591 95.0244 80.332 95.3701 80.1709 95.8096C80.0098 96.249 79.916 96.6899 79.8896 97.1323ZM87.3691 99C87.3604 98.7422 87.3882 98.4521 87.4526 98.1299C87.2065 98.4316 86.9136 98.6675 86.5737 98.8374C86.2368 99.0073 85.8706 99.0908 85.4751 99.0879C85.0767 99.0879 84.7588 98.9648 84.5215 98.7188C84.2842 98.4727 84.1948 98.165 84.2534 97.7959C84.3267 97.3477 84.5742 96.9976 84.9961 96.7456C85.4209 96.4937 85.9585 96.3604 86.6089 96.3457H87.7383L87.8657 95.6514C87.9272 95.2617 87.8496 94.9556 87.6328 94.7329C87.416 94.5073 87.104 94.3945 86.6968 94.3945C86.2983 94.3945 85.938 94.5015 85.6157 94.7153C85.2935 94.9263 85.0913 95.2046 85.0093 95.5503L84.772 95.5415C84.854 95.1343 85.0796 94.8018 85.4487 94.5439C85.8179 94.2861 86.2339 94.1572 86.6968 94.1572C87.1802 94.1572 87.5508 94.2949 87.8086 94.5703C88.0664 94.8428 88.1616 95.2061 88.0942 95.6602L87.6592 98.2002L87.6284 98.499C87.6138 98.6543 87.6196 98.8081 87.646 98.9604L87.6416 99H87.3691ZM85.4707 98.855C85.8633 98.8608 86.2368 98.7671 86.5913 98.5737C86.9458 98.3774 87.2476 98.0918 87.4966 97.7168L87.6987 96.5874H86.6353C86.0435 96.5991 85.5542 96.7134 85.1675 96.9302C84.7837 97.144 84.5566 97.4385 84.4863 97.8135C84.4336 98.1035 84.5024 98.3481 84.6929 98.5474C84.8862 98.7466 85.1455 98.8491 85.4707 98.855ZM86.4287 92.9268C86.4668 92.7041 86.5693 92.521 86.7363 92.3774C86.9033 92.2339 87.0835 92.1621 87.2769 92.1621C87.4819 92.1621 87.6431 92.2397 87.7603 92.395C87.8804 92.5474 87.9258 92.7261 87.8965 92.9312C87.8672 93.1333 87.7705 93.3076 87.6064 93.4541C87.4453 93.6006 87.2607 93.6738 87.0527 93.6738C86.8594 93.6738 86.6982 93.6021 86.5693 93.4585C86.4434 93.3149 86.3965 93.1377 86.4287 92.9268ZM86.666 93.1201C86.707 93.3281 86.8374 93.4321 87.0571 93.4321C87.2124 93.4321 87.3442 93.3823 87.4526 93.2827C87.564 93.1802 87.6343 93.0615 87.6636 92.9268C87.6753 92.8594 87.6768 92.7935 87.668 92.729C87.6475 92.6265 87.6006 92.5474 87.5273 92.4917C87.457 92.4331 87.3721 92.4038 87.2725 92.4038C87.0791 92.4038 86.9209 92.4844 86.7979 92.6455C86.6748 92.8037 86.6309 92.9619 86.666 93.1201ZM91.8428 94.4121L91.5571 94.3901C91.1646 94.3901 90.7998 94.5352 90.4629 94.8252C90.126 95.1152 89.9004 95.4683 89.7861 95.8843L89.2456 99H89.0083L89.8257 94.2451H90.063L89.8784 95.2339C90.0776 94.894 90.3208 94.6304 90.6079 94.4429C90.895 94.2524 91.2144 94.1572 91.5659 94.1572C91.6772 94.1572 91.7886 94.1748 91.8999 94.21L91.8428 94.4121ZM92.0933 96.5742C92.1753 96.0967 92.3188 95.6689 92.5239 95.291C92.7319 94.9131 92.9824 94.6304 93.2754 94.4429C93.5684 94.2524 93.8877 94.1572 94.2334 94.1572C94.5674 94.1572 94.8574 94.2407 95.1035 94.4077C95.3525 94.5747 95.5327 94.812 95.644 95.1196L96.145 92.25H96.3823L95.2178 99H94.9805L95.1299 98.2397C94.9189 98.5063 94.667 98.7144 94.374 98.8638C94.0811 99.0132 93.7617 99.0879 93.416 99.0879C93.1055 99.0879 92.8447 99.0117 92.6338 98.8594C92.4229 98.7041 92.2661 98.4785 92.1636 98.1826C92.064 97.8838 92.02 97.5557 92.0317 97.1982C92.0376 97.0312 92.0581 96.8232 92.0933 96.5742ZM92.2734 97.1323C92.25 97.4546 92.2749 97.7505 92.3481 98.02C92.4214 98.2896 92.5474 98.4961 92.7261 98.6396C92.9077 98.7803 93.1348 98.8506 93.4072 98.8506C93.7881 98.8535 94.1294 98.7627 94.4312 98.5781C94.7358 98.3936 94.9849 98.1416 95.1782 97.8223L95.5737 95.5942C95.5122 95.2134 95.3643 94.9189 95.1299 94.7109C94.8984 94.5 94.5996 94.3945 94.2334 94.3945C93.8613 94.3945 93.5303 94.519 93.2402 94.7681C92.9502 95.0142 92.7231 95.3569 92.5591 95.7964C92.395 96.2358 92.2998 96.6812 92.2734 97.1323ZM99.8013 97.8354C99.9067 97.2847 99.5054 96.8936 98.5972 96.6621L98.1094 96.5215C97.4355 96.3018 97.1396 95.9136 97.2217 95.3569C97.2744 94.9966 97.4648 94.7065 97.793 94.4868C98.1211 94.2671 98.502 94.1572 98.9355 94.1572C99.4131 94.1572 99.7866 94.2803 100.056 94.5264C100.326 94.7725 100.44 95.1021 100.399 95.5151H100.162C100.197 95.1812 100.099 94.9116 99.8672 94.7065C99.6357 94.4985 99.3267 94.3945 98.9399 94.3945C98.5649 94.3945 98.2383 94.481 97.96 94.6538C97.6816 94.8267 97.5146 95.0581 97.459 95.3481C97.3711 95.814 97.6406 96.145 98.2676 96.3413L98.9224 96.5303L99.1421 96.605C99.8247 96.854 100.124 97.2656 100.039 97.8398C99.9829 98.2178 99.7866 98.521 99.4497 98.7495C99.1128 98.9751 98.71 99.0879 98.2412 99.0879C97.752 99.0879 97.3608 98.9692 97.0679 98.7319C96.7749 98.4917 96.6489 98.1782 96.6899 97.7915H96.9229C96.9082 98.1196 97.0166 98.3789 97.248 98.5693C97.4824 98.7568 97.812 98.8506 98.2368 98.8506C98.6411 98.8418 98.9897 98.7451 99.2827 98.5605C99.5757 98.373 99.7485 98.1313 99.8013 97.8354ZM102.895 99.0879C102.558 99.0879 102.264 99.0146 102.012 98.8682C101.76 98.7217 101.575 98.5195 101.458 98.2617L101.005 100.828H100.768L101.902 94.2451H102.139L101.977 95.0933C102.185 94.812 102.434 94.5864 102.724 94.4165C103.017 94.2437 103.342 94.1572 103.699 94.1572C104.007 94.1572 104.269 94.2334 104.486 94.3857C104.703 94.5381 104.861 94.7622 104.96 95.0581C105.063 95.3511 105.108 95.6763 105.097 96.0337C105.088 96.2212 105.07 96.4014 105.044 96.5742L104.987 96.8643C104.834 97.5527 104.574 98.0962 104.205 98.4946C103.835 98.8901 103.399 99.0879 102.895 99.0879ZM104.802 96.5742L104.855 96.104C104.884 95.5474 104.798 95.124 104.596 94.834C104.394 94.541 104.096 94.3945 103.704 94.3945C103.317 94.3945 102.951 94.5103 102.605 94.7417C102.262 94.9702 102.032 95.2544 101.915 95.5942L101.52 97.8179C101.587 98.1489 101.744 98.4038 101.99 98.5825C102.239 98.7612 102.541 98.8506 102.895 98.8506C103.37 98.8506 103.771 98.6572 104.099 98.2705C104.427 97.8809 104.657 97.3403 104.789 96.6489L104.802 96.5742ZM106.213 99H105.976L107.136 92.25H107.373L106.213 99ZM110.783 99C110.774 98.7422 110.802 98.4521 110.867 98.1299C110.621 98.4316 110.328 98.6675 109.988 98.8374C109.651 99.0073 109.285 99.0908 108.889 99.0879C108.491 99.0879 108.173 98.9648 107.936 98.7188C107.698 98.4727 107.609 98.165 107.667 97.7959C107.741 97.3477 107.988 96.9976 108.41 96.7456C108.835 96.4937 109.373 96.3604 110.023 96.3457H111.152L111.28 95.6514C111.341 95.2617 111.264 94.9556 111.047 94.7329C110.83 94.5073 110.518 94.3945 110.111 94.3945C109.712 94.3945 109.352 94.5015 109.03 94.7153C108.708 94.9263 108.505 95.2046 108.423 95.5503L108.186 95.5415C108.268 95.1343 108.494 94.8018 108.863 94.5439C109.232 94.2861 109.648 94.1572 110.111 94.1572C110.594 94.1572 110.965 94.2949 111.223 94.5703C111.48 94.8428 111.576 95.2061 111.508 95.6602L111.073 98.2002L111.042 98.499C111.028 98.6543 111.034 98.8081 111.06 98.9604L111.056 99H110.783ZM108.885 98.855C109.277 98.8608 109.651 98.7671 110.005 98.5737C110.36 98.3774 110.662 98.0918 110.911 97.7168L111.113 96.5874H110.049C109.458 96.5991 108.968 96.7134 108.582 96.9302C108.198 97.144 107.971 97.4385 107.9 97.8135C107.848 98.1035 107.917 98.3481 108.107 98.5474C108.3 98.7466 108.56 98.8491 108.885 98.855ZM112.633 96.5742C112.715 96.0967 112.859 95.6689 113.064 95.291C113.272 94.9131 113.522 94.6304 113.815 94.4429C114.108 94.2524 114.428 94.1572 114.773 94.1572C115.107 94.1572 115.397 94.2407 115.644 94.4077C115.893 94.5747 116.073 94.812 116.184 95.1196L116.685 92.25H116.922L115.758 99H115.521L115.67 98.2397C115.459 98.5063 115.207 98.7144 114.914 98.8638C114.621 99.0132 114.302 99.0879 113.956 99.0879C113.646 99.0879 113.385 99.0117 113.174 98.8594C112.963 98.7041 112.806 98.4785 112.704 98.1826C112.604 97.8838 112.56 97.5557 112.572 97.1982C112.578 97.0312 112.598 96.8232 112.633 96.5742ZM112.813 97.1323C112.79 97.4546 112.815 97.7505 112.888 98.02C112.961 98.2896 113.087 98.4961 113.266 98.6396C113.448 98.7803 113.675 98.8506 113.947 98.8506C114.328 98.8535 114.669 98.7627 114.971 98.5781C115.276 98.3936 115.525 98.1416 115.718 97.8223L116.114 95.5942C116.052 95.2134 115.904 94.9189 115.67 94.7109C115.438 94.5 115.14 94.3945 114.773 94.3945C114.401 94.3945 114.07 94.519 113.78 94.7681C113.49 95.0142 113.263 95.3569 113.099 95.7964C112.935 96.2358 112.84 96.6812 112.813 97.1323ZM120.341 97.8354C120.447 97.2847 120.045 96.8936 119.137 96.6621L118.649 96.5215C117.976 96.3018 117.68 95.9136 117.762 95.3569C117.814 94.9966 118.005 94.7065 118.333 94.4868C118.661 94.2671 119.042 94.1572 119.476 94.1572C119.953 94.1572 120.327 94.2803 120.596 94.5264C120.866 94.7725 120.98 95.1021 120.939 95.5151H120.702C120.737 95.1812 120.639 94.9116 120.407 94.7065C120.176 94.4985 119.867 94.3945 119.48 94.3945C119.105 94.3945 118.778 94.481 118.5 94.6538C118.222 94.8267 118.055 95.0581 117.999 95.3481C117.911 95.814 118.181 96.145 118.808 96.3413L119.462 96.5303L119.682 96.605C120.365 96.854 120.664 97.2656 120.579 97.8398C120.523 98.2178 120.327 98.521 119.99 98.7495C119.653 98.9751 119.25 99.0879 118.781 99.0879C118.292 99.0879 117.901 98.9692 117.608 98.7319C117.315 98.4917 117.189 98.1782 117.23 97.7915H117.463C117.448 98.1196 117.557 98.3789 117.788 98.5693C118.022 98.7568 118.352 98.8506 118.777 98.8506C119.181 98.8418 119.53 98.7451 119.823 98.5605C120.116 98.373 120.289 98.1313 120.341 97.8354ZM123.369 99.0879C122.988 99.0879 122.66 98.981 122.385 98.7671C122.109 98.5532 121.91 98.2617 121.787 97.8926C121.667 97.5205 121.636 97.1309 121.695 96.7236L121.73 96.5039C121.8 96.0762 121.95 95.6763 122.178 95.3042C122.41 94.9321 122.684 94.6479 123 94.4517C123.316 94.2554 123.655 94.1572 124.015 94.1572C124.496 94.1572 124.872 94.3345 125.145 94.689C125.417 95.0435 125.533 95.4976 125.492 96.0513L125.479 96.1875L125.439 96.4644H121.985L121.937 96.7236C121.896 96.9697 121.894 97.2188 121.932 97.4707C121.997 97.8896 122.156 98.2251 122.411 98.4771C122.669 98.7261 122.987 98.8521 123.365 98.855C123.913 98.8608 124.406 98.644 124.846 98.2046L125.004 98.3276C124.57 98.8345 124.025 99.0879 123.369 99.0879ZM124.015 94.3945C123.564 94.3945 123.16 94.5645 122.802 94.9043C122.448 95.2412 122.184 95.6821 122.011 96.2271H125.219L125.232 96.1699C125.271 95.959 125.273 95.748 125.241 95.5371C125.188 95.1914 125.051 94.9146 124.828 94.7065C124.608 94.4985 124.337 94.3945 124.015 94.3945ZM126.929 95.3525C127.166 94.9688 127.446 94.6743 127.768 94.4692C128.09 94.2612 128.423 94.1572 128.766 94.1572C129.129 94.1572 129.415 94.251 129.623 94.4385C129.831 94.626 129.951 94.897 129.983 95.2515C130 95.4741 129.989 95.707 129.948 95.9502L129.42 99H129.183L129.71 95.9502C129.746 95.7451 129.76 95.543 129.754 95.3438C129.74 95.0332 129.647 94.7959 129.478 94.6318C129.311 94.4678 129.07 94.3872 128.757 94.3901C128.355 94.396 127.969 94.5527 127.597 94.8604C127.228 95.165 126.977 95.5298 126.845 95.9546L126.318 99H126.081L126.898 94.2451H127.135L126.929 95.3525ZM135.856 99H135.619L136.673 92.9136L134.779 93.5859L134.814 93.3311L136.897 92.584H136.955L135.856 99ZM138.233 100.121L138.084 99.9712C138.397 99.6196 138.586 99.2593 138.651 98.8901L138.752 98.3013H138.989L138.897 98.855C138.812 99.3589 138.591 99.7808 138.233 100.121ZM64.5967 105.228C64.5381 105.576 64.3843 105.882 64.1353 106.146C63.8862 106.407 63.5684 106.602 63.1816 106.73C63.5508 106.854 63.832 107.06 64.0254 107.35C64.2217 107.637 64.292 107.965 64.2363 108.334C64.1543 108.859 63.9023 109.282 63.4805 109.604C63.0586 109.927 62.5576 110.088 61.9775 110.088C61.6055 110.088 61.2773 110.015 60.9932 109.868C60.7119 109.719 60.5068 109.512 60.3779 109.249C60.249 108.982 60.2139 108.677 60.2725 108.334C60.3369 107.954 60.5068 107.624 60.7822 107.346C61.0576 107.064 61.418 106.856 61.8633 106.722C61.5381 106.596 61.2964 106.398 61.1382 106.128C60.9829 105.859 60.9316 105.559 60.9844 105.228C61.0635 104.727 61.2964 104.316 61.6831 103.997C62.0698 103.675 62.5269 103.514 63.0542 103.514C63.3853 103.514 63.6797 103.588 63.9375 103.738C64.1982 103.884 64.3857 104.089 64.5 104.353C64.6172 104.614 64.6494 104.905 64.5967 105.228ZM63.9902 108.356C64.043 108.075 64.0137 107.82 63.9023 107.592C63.7939 107.363 63.6152 107.182 63.3662 107.047C63.1172 106.912 62.8389 106.845 62.5312 106.845C62.0391 106.845 61.5981 106.985 61.2085 107.267C60.8218 107.548 60.5874 107.911 60.5054 108.356C60.4263 108.799 60.5259 109.159 60.8042 109.438C61.0854 109.713 61.4751 109.851 61.9731 109.851C62.4771 109.851 62.918 109.713 63.2959 109.438C63.6768 109.159 63.9082 108.799 63.9902 108.356ZM64.3638 105.206C64.437 104.798 64.3433 104.454 64.0825 104.173C63.8218 103.892 63.4805 103.751 63.0586 103.751C62.6045 103.751 62.2046 103.889 61.8589 104.164C61.5161 104.437 61.3052 104.784 61.2261 105.206C61.1499 105.61 61.2378 105.945 61.4897 106.212C61.7446 106.476 62.0903 106.607 62.5269 106.607C62.9722 106.607 63.3691 106.477 63.7178 106.216C64.0693 105.956 64.2847 105.619 64.3638 105.206ZM66.7852 110.088C66.4512 110.088 66.1699 110.004 65.9414 109.837C65.7129 109.67 65.5444 109.424 65.436 109.099C65.3306 108.771 65.2866 108.397 65.3042 107.979L65.3394 107.557L65.5503 106.309C65.6997 105.438 65.9736 104.754 66.3721 104.256C66.7705 103.758 67.27 103.509 67.8706 103.509C68.2104 103.509 68.4946 103.594 68.7231 103.764C68.9517 103.931 69.1187 104.18 69.2241 104.511C69.3296 104.842 69.3721 105.213 69.3516 105.623L69.3076 106.098L69.0923 107.346C68.9399 108.21 68.6646 108.884 68.2661 109.367C67.8677 109.848 67.374 110.088 66.7852 110.088ZM69.1143 105.14C69.0762 104.677 68.9517 104.33 68.7407 104.098C68.5298 103.864 68.2412 103.747 67.875 103.747C67.3477 103.747 66.9023 103.972 66.5391 104.423C66.1787 104.872 65.9268 105.509 65.7832 106.335L65.5811 107.521L65.5459 107.895C65.5166 108.258 65.5415 108.594 65.6206 108.901C65.6997 109.209 65.8374 109.445 66.0337 109.609C66.23 109.77 66.479 109.851 66.7808 109.851C67.3052 109.851 67.7461 109.629 68.1035 109.187C68.4639 108.742 68.7144 108.124 68.855 107.333L69.0396 106.287C69.1157 105.856 69.1406 105.474 69.1143 105.14ZM71.6104 110.088C71.2764 110.088 70.9951 110.004 70.7666 109.837C70.5381 109.67 70.3696 109.424 70.2612 109.099C70.1558 108.771 70.1118 108.397 70.1294 107.979L70.1646 107.557L70.3755 106.309C70.5249 105.438 70.7988 104.754 71.1973 104.256C71.5957 103.758 72.0952 103.509 72.6958 103.509C73.0356 103.509 73.3198 103.594 73.5483 103.764C73.7769 103.931 73.9438 104.18 74.0493 104.511C74.1548 104.842 74.1973 105.213 74.1768 105.623L74.1328 106.098L73.9175 107.346C73.7651 108.21 73.4897 108.884 73.0913 109.367C72.6929 109.848 72.1992 110.088 71.6104 110.088ZM73.9395 105.14C73.9014 104.677 73.7769 104.33 73.5659 104.098C73.355 103.864 73.0664 103.747 72.7002 103.747C72.1729 103.747 71.7275 103.972 71.3643 104.423C71.0039 104.872 70.752 105.509 70.6084 106.335L70.4062 107.521L70.3711 107.895C70.3418 108.258 70.3667 108.594 70.4458 108.901C70.5249 109.209 70.6626 109.445 70.8589 109.609C71.0552 109.77 71.3042 109.851 71.606 109.851C72.1304 109.851 72.5713 109.629 72.9287 109.187C73.2891 108.742 73.5396 108.124 73.6802 107.333L73.8647 106.287C73.9409 105.856 73.9658 105.474 73.9395 105.14ZM76.4355 110.088C76.1016 110.088 75.8203 110.004 75.5918 109.837C75.3633 109.67 75.1948 109.424 75.0864 109.099C74.981 108.771 74.937 108.397 74.9546 107.979L74.9897 107.557L75.2007 106.309C75.3501 105.438 75.624 104.754 76.0225 104.256C76.4209 103.758 76.9204 103.509 77.521 103.509C77.8608 103.509 78.145 103.594 78.3735 103.764C78.6021 103.931 78.769 104.18 78.8745 104.511C78.98 104.842 79.0225 105.213 79.002 105.623L78.958 106.098L78.7427 107.346C78.5903 108.21 78.3149 108.884 77.9165 109.367C77.5181 109.848 77.0244 110.088 76.4355 110.088ZM78.7646 105.14C78.7266 104.677 78.6021 104.33 78.3911 104.098C78.1802 103.864 77.8916 103.747 77.5254 103.747C76.998 103.747 76.5527 103.972 76.1895 104.423C75.8291 104.872 75.5771 105.509 75.4336 106.335L75.2314 107.521L75.1963 107.895C75.167 108.258 75.1919 108.594 75.271 108.901C75.3501 109.209 75.4878 109.445 75.6841 109.609C75.8804 109.77 76.1294 109.851 76.4312 109.851C76.9556 109.851 77.3965 109.629 77.7539 109.187C78.1143 108.742 78.3647 108.124 78.5054 107.333L78.6899 106.287C78.7661 105.856 78.791 105.474 78.7646 105.14ZM85.4399 108.088H82.4077L81.3838 110H81.1201L84.5391 103.606L84.8247 103.602L86.0552 110H85.8047L85.4399 108.088ZM82.5308 107.851H85.3916L84.6533 103.9L82.5308 107.851ZM89.9883 110C89.9795 109.742 90.0073 109.452 90.0718 109.13C89.8257 109.432 89.5327 109.667 89.1929 109.837C88.856 110.007 88.4897 110.091 88.0942 110.088C87.6958 110.088 87.3779 109.965 87.1406 109.719C86.9033 109.473 86.814 109.165 86.8726 108.796C86.9458 108.348 87.1934 107.998 87.6152 107.746C88.04 107.494 88.5776 107.36 89.228 107.346H90.3574L90.4849 106.651C90.5464 106.262 90.4688 105.956 90.252 105.733C90.0352 105.507 89.7231 105.395 89.3159 105.395C88.9175 105.395 88.5571 105.501 88.2349 105.715C87.9126 105.926 87.7104 106.205 87.6284 106.55L87.3911 106.542C87.4731 106.134 87.6987 105.802 88.0679 105.544C88.437 105.286 88.853 105.157 89.3159 105.157C89.7993 105.157 90.1699 105.295 90.4277 105.57C90.6855 105.843 90.7808 106.206 90.7134 106.66L90.2783 109.2L90.2476 109.499C90.2329 109.654 90.2388 109.808 90.2651 109.96L90.2607 110H89.9883ZM88.0898 109.855C88.4824 109.861 88.856 109.767 89.2104 109.574C89.5649 109.377 89.8667 109.092 90.1157 108.717L90.3179 107.587H89.2544C88.6626 107.599 88.1733 107.713 87.7866 107.93C87.4028 108.144 87.1758 108.438 87.1055 108.813C87.0527 109.104 87.1216 109.348 87.312 109.547C87.5054 109.747 87.7646 109.849 88.0898 109.855ZM94.4619 105.412L94.1763 105.39C93.7837 105.39 93.4189 105.535 93.082 105.825C92.7451 106.115 92.5195 106.468 92.4053 106.884L91.8647 110H91.6274L92.4448 105.245H92.6821L92.4976 106.234C92.6968 105.894 92.9399 105.63 93.2271 105.443C93.5142 105.252 93.8335 105.157 94.1851 105.157C94.2964 105.157 94.4077 105.175 94.519 105.21L94.4619 105.412ZM95.4375 106.353C95.6748 105.969 95.9546 105.674 96.2769 105.469C96.5991 105.261 96.9316 105.157 97.2744 105.157C97.6377 105.157 97.9233 105.251 98.1313 105.438C98.3394 105.626 98.4595 105.897 98.4917 106.251C98.5093 106.474 98.4976 106.707 98.4565 106.95L97.9292 110H97.6919L98.2192 106.95C98.2544 106.745 98.269 106.543 98.2632 106.344C98.2485 106.033 98.1562 105.796 97.9863 105.632C97.8193 105.468 97.5791 105.387 97.2656 105.39C96.8643 105.396 96.4775 105.553 96.1055 105.86C95.7363 106.165 95.4858 106.53 95.354 106.955L94.8267 110H94.5894L95.7539 103.25H95.9912L95.4375 106.353ZM102.504 110L102.653 109.231C102.445 109.518 102.193 109.733 101.897 109.877C101.602 110.018 101.276 110.088 100.922 110.088C100.553 110.088 100.26 109.99 100.043 109.793C99.8291 109.597 99.7046 109.317 99.6694 108.954C99.6489 108.723 99.6592 108.484 99.7002 108.238L100.214 105.245H100.452L99.9287 108.273C99.8965 108.472 99.8862 108.666 99.8979 108.853C99.9126 109.169 100.008 109.416 100.184 109.591C100.359 109.764 100.603 109.851 100.913 109.851C101.341 109.851 101.726 109.735 102.069 109.503C102.412 109.269 102.637 108.964 102.746 108.589L103.321 105.245H103.563L102.746 110H102.504ZM107.333 108.835C107.439 108.285 107.038 107.894 106.129 107.662L105.642 107.521C104.968 107.302 104.672 106.914 104.754 106.357C104.807 105.997 104.997 105.707 105.325 105.487C105.653 105.267 106.034 105.157 106.468 105.157C106.945 105.157 107.319 105.28 107.588 105.526C107.858 105.772 107.972 106.102 107.931 106.515H107.694C107.729 106.181 107.631 105.912 107.399 105.707C107.168 105.499 106.859 105.395 106.472 105.395C106.097 105.395 105.771 105.481 105.492 105.654C105.214 105.827 105.047 106.058 104.991 106.348C104.903 106.814 105.173 107.145 105.8 107.341L106.455 107.53L106.674 107.605C107.357 107.854 107.656 108.266 107.571 108.84C107.515 109.218 107.319 109.521 106.982 109.75C106.645 109.975 106.242 110.088 105.773 110.088C105.284 110.088 104.893 109.969 104.6 109.732C104.307 109.492 104.181 109.178 104.222 108.792H104.455C104.44 109.12 104.549 109.379 104.78 109.569C105.015 109.757 105.344 109.851 105.769 109.851C106.173 109.842 106.522 109.745 106.815 109.561C107.108 109.373 107.281 109.131 107.333 108.835Z" fill="#707070"/>
<path d="M68.9868 11.2041V13.1157H65.7568V22H63.4863V13.1157H60.2417V11.2041H68.9868ZM72.0264 13.0645H69.9097V11.1382H72.0264V13.0645ZM69.9097 14.0166H72.0264V22H69.9097V14.0166ZM78.9771 14.0166H81.2183L78.3398 22H76.1353L73.2715 14.0166H75.6152L77.2778 19.9053L78.9771 14.0166ZM85.9863 20.5278C86.5967 20.5278 87.0654 20.3105 87.3926 19.876C87.7197 19.4414 87.8833 18.8237 87.8833 18.0229C87.8833 17.2222 87.7197 16.6069 87.3926 16.1772C87.0654 15.7427 86.5967 15.5254 85.9863 15.5254C85.376 15.5254 84.9048 15.7427 84.5728 16.1772C84.2456 16.6069 84.082 17.2222 84.082 18.0229C84.082 18.8237 84.2456 19.4414 84.5728 19.876C84.9048 20.3105 85.376 20.5278 85.9863 20.5278ZM90.0732 18.0229C90.0732 19.1948 89.7363 20.1982 89.0625 21.0332C88.3887 21.8633 87.3657 22.2783 85.9937 22.2783C84.6216 22.2783 83.5986 21.8633 82.9248 21.0332C82.251 20.1982 81.9141 19.1948 81.9141 18.0229C81.9141 16.8706 82.251 15.8721 82.9248 15.0273C83.5986 14.1826 84.6216 13.7603 85.9937 13.7603C87.3657 13.7603 88.3887 14.1826 89.0625 15.0273C89.7363 15.8721 90.0732 16.8706 90.0732 18.0229ZM93.7061 22H91.6187V11.2041H93.7061V22ZM97.8955 13.0645H95.7788V11.1382H97.8955V13.0645ZM95.7788 14.0166H97.8955V22H95.7788V14.0166ZM111.526 14.5732C111.355 13.8359 110.938 13.3208 110.273 13.0278C109.902 12.8667 109.49 12.7861 109.036 12.7861C108.167 12.7861 107.451 13.1157 106.89 13.7749C106.333 14.4292 106.055 15.4155 106.055 16.7339C106.055 18.062 106.357 19.002 106.963 19.5537C107.568 20.1055 108.257 20.3813 109.028 20.3813C109.785 20.3813 110.405 20.1641 110.889 19.7295C111.372 19.29 111.67 18.7163 111.782 18.0083H109.285V16.2065H113.782V22H112.288L112.061 20.6523C111.626 21.165 111.235 21.5264 110.889 21.7363C110.293 22.1025 109.561 22.2856 108.691 22.2856C107.261 22.2856 106.089 21.79 105.176 20.7988C104.224 19.8027 103.748 18.4404 103.748 16.7119C103.748 14.9639 104.229 13.5625 105.19 12.5078C106.152 11.4531 107.424 10.9258 109.006 10.9258C110.378 10.9258 111.479 11.2749 112.31 11.9731C113.145 12.6665 113.623 13.5332 113.745 14.5732H111.526ZM120.176 18.1182C120.044 18.2012 119.91 18.2695 119.773 18.3232C119.641 18.3721 119.458 18.4185 119.224 18.4624L118.755 18.5503C118.315 18.6284 118 18.7236 117.81 18.8359C117.488 19.0264 117.327 19.3218 117.327 19.7222C117.327 20.0786 117.424 20.3374 117.62 20.4985C117.82 20.6548 118.062 20.7329 118.345 20.7329C118.794 20.7329 119.207 20.6011 119.583 20.3374C119.963 20.0737 120.161 19.5928 120.176 18.8945V18.1182ZM118.909 17.144C119.294 17.0952 119.57 17.0342 119.736 16.9609C120.034 16.834 120.183 16.6362 120.183 16.3677C120.183 16.0405 120.068 15.8159 119.839 15.6938C119.614 15.5669 119.282 15.5034 118.843 15.5034C118.35 15.5034 118 15.6255 117.795 15.8696C117.649 16.0503 117.551 16.2944 117.502 16.6021H115.488C115.532 15.9038 115.728 15.3301 116.074 14.8809C116.626 14.1777 117.573 13.8262 118.916 13.8262C119.79 13.8262 120.566 13.9995 121.245 14.3462C121.924 14.6929 122.263 15.3472 122.263 16.3091V19.9712C122.263 20.2251 122.268 20.5327 122.278 20.894C122.292 21.1675 122.334 21.353 122.402 21.4507C122.471 21.5483 122.573 21.6289 122.71 21.6924V22H120.439C120.376 21.8389 120.332 21.6875 120.308 21.5459C120.283 21.4043 120.264 21.2432 120.249 21.0625C119.961 21.375 119.629 21.6411 119.253 21.8608C118.804 22.1196 118.296 22.249 117.729 22.249C117.007 22.249 116.409 22.0439 115.935 21.6338C115.466 21.2188 115.232 20.6328 115.232 19.876C115.232 18.8945 115.61 18.1841 116.367 17.7446C116.782 17.5054 117.393 17.3345 118.198 17.2319L118.909 17.144ZM128.459 13.8262C128.499 13.8262 128.53 13.8286 128.555 13.8335C128.584 13.8335 128.645 13.8359 128.738 13.8408V15.9795C128.606 15.9648 128.489 15.9551 128.386 15.9502C128.284 15.9453 128.201 15.9429 128.137 15.9429C127.297 15.9429 126.733 16.2163 126.445 16.7632C126.284 17.0708 126.204 17.5444 126.204 18.1841V22H124.102V14.0166H126.094V15.4082C126.416 14.876 126.697 14.5122 126.936 14.3169C127.327 13.9897 127.834 13.8262 128.459 13.8262ZM132.913 13.8262C133.396 13.8262 133.826 13.9336 134.202 14.1484C134.578 14.3584 134.883 14.6514 135.117 15.0273V11.2188H137.234V22H135.205V20.894C134.907 21.3677 134.568 21.7119 134.187 21.9268C133.806 22.1416 133.333 22.249 132.766 22.249C131.833 22.249 131.047 21.873 130.408 21.1211C129.773 20.3643 129.456 19.395 129.456 18.2134C129.456 16.8511 129.768 15.7793 130.393 14.998C131.023 14.2168 131.863 13.8262 132.913 13.8262ZM133.367 20.4912C133.958 20.4912 134.407 20.2715 134.714 19.832C135.022 19.3926 135.176 18.8237 135.176 18.1255C135.176 17.1489 134.929 16.4507 134.436 16.0308C134.133 15.7769 133.782 15.6499 133.381 15.6499C132.771 15.6499 132.322 15.8818 132.034 16.3457C131.75 16.8047 131.609 17.376 131.609 18.0596C131.609 18.7969 131.753 19.3877 132.041 19.832C132.334 20.2715 132.776 20.4912 133.367 20.4912ZM142.288 15.5254C141.804 15.5254 141.428 15.6768 141.16 15.9795C140.896 16.2822 140.73 16.6924 140.662 17.21H143.906C143.872 16.6582 143.704 16.2407 143.401 15.9575C143.103 15.6694 142.732 15.5254 142.288 15.5254ZM142.288 13.8042C142.952 13.8042 143.55 13.9287 144.082 14.1777C144.614 14.4268 145.054 14.8198 145.4 15.3569C145.713 15.8306 145.916 16.3799 146.008 17.0049C146.062 17.3711 146.084 17.8984 146.074 18.5869H140.61C140.64 19.3877 140.891 19.9492 141.365 20.2715C141.653 20.4717 142 20.5718 142.405 20.5718C142.834 20.5718 143.184 20.4497 143.452 20.2056C143.599 20.0737 143.728 19.8906 143.84 19.6562H145.972C145.918 20.1299 145.671 20.6108 145.232 21.0991C144.548 21.8755 143.591 22.2637 142.361 22.2637C141.345 22.2637 140.449 21.9365 139.673 21.2822C138.896 20.6279 138.508 19.5635 138.508 18.0889C138.508 16.707 138.857 15.6475 139.556 14.9102C140.259 14.1729 141.169 13.8042 142.288 13.8042ZM151.912 13.8262C152.737 13.8262 153.411 14.0435 153.933 14.478C154.46 14.9077 154.724 15.623 154.724 16.624V22H152.585V17.144C152.585 16.7241 152.529 16.4019 152.417 16.1772C152.212 15.7671 151.821 15.562 151.245 15.562C150.537 15.562 150.051 15.8623 149.788 16.4629C149.651 16.7803 149.583 17.1855 149.583 17.6787V22H147.502V14.0312H149.517V15.1958C149.785 14.7856 150.039 14.4902 150.278 14.3096C150.708 13.9873 151.252 13.8262 151.912 13.8262ZM158.284 19.4512C158.328 19.8223 158.423 20.0859 158.569 20.2422C158.828 20.5205 159.307 20.6597 160.005 20.6597C160.415 20.6597 160.74 20.5986 160.979 20.4766C161.223 20.3545 161.345 20.1714 161.345 19.9272C161.345 19.6929 161.248 19.5146 161.052 19.3926C160.857 19.2705 160.132 19.0605 158.877 18.7627C157.974 18.5381 157.336 18.2573 156.965 17.9204C156.594 17.5884 156.409 17.1099 156.409 16.4849C156.409 15.7476 156.697 15.1152 157.273 14.5879C157.854 14.0557 158.669 13.7896 159.719 13.7896C160.715 13.7896 161.526 13.9897 162.151 14.3901C162.781 14.7856 163.142 15.4717 163.235 16.4482H161.147C161.118 16.1797 161.042 15.9673 160.92 15.811C160.691 15.5278 160.3 15.3862 159.749 15.3862C159.294 15.3862 158.97 15.457 158.774 15.5986C158.584 15.7402 158.489 15.9062 158.489 16.0967C158.489 16.3359 158.591 16.5093 158.796 16.6167C159.001 16.729 159.727 16.9219 160.972 17.1953C161.802 17.3906 162.424 17.686 162.839 18.0815C163.25 18.4819 163.455 18.9824 163.455 19.583C163.455 20.374 163.159 21.021 162.568 21.5239C161.982 22.022 161.074 22.271 159.844 22.271C158.589 22.271 157.661 22.0073 157.061 21.48C156.465 20.9478 156.167 20.2715 156.167 19.4512H158.284Z" fill="#333333"/>
<path d="M64.0942 82.9204H66.8335L65.4858 78.6724L64.0942 82.9204ZM64.2334 76.2041H66.7822L70.6055 87H68.1592L67.4634 84.7808H63.4863L62.7393 87H60.3809L64.2334 76.2041ZM76.2158 83.1182C76.084 83.2012 75.9497 83.2695 75.813 83.3232C75.6812 83.3721 75.498 83.4185 75.2637 83.4624L74.7949 83.5503C74.3555 83.6284 74.0405 83.7236 73.8501 83.8359C73.5278 84.0264 73.3667 84.3218 73.3667 84.7222C73.3667 85.0786 73.4644 85.3374 73.6597 85.4985C73.8599 85.6548 74.1016 85.7329 74.3848 85.7329C74.834 85.7329 75.2466 85.6011 75.6226 85.3374C76.0034 85.0737 76.2012 84.5928 76.2158 83.8945V83.1182ZM74.9487 82.144C75.3345 82.0952 75.6104 82.0342 75.7764 81.9609C76.0742 81.834 76.2231 81.6362 76.2231 81.3677C76.2231 81.0405 76.1084 80.8159 75.8789 80.6938C75.6543 80.5669 75.3223 80.5034 74.8828 80.5034C74.3896 80.5034 74.0405 80.6255 73.8354 80.8696C73.689 81.0503 73.5913 81.2944 73.5425 81.6021H71.5283C71.5723 80.9038 71.7676 80.3301 72.1143 79.8809C72.666 79.1777 73.6133 78.8262 74.9561 78.8262C75.8301 78.8262 76.6064 78.9995 77.2852 79.3462C77.9639 79.6929 78.3032 80.3472 78.3032 81.3091V84.9712C78.3032 85.2251 78.3081 85.5327 78.3179 85.894C78.3325 86.1675 78.374 86.353 78.4424 86.4507C78.5107 86.5483 78.6133 86.6289 78.75 86.6924V87H76.4795C76.416 86.8389 76.3721 86.6875 76.3477 86.5459C76.3232 86.4043 76.3037 86.2432 76.2891 86.0625C76.001 86.375 75.6689 86.6411 75.293 86.8608C74.8438 87.1196 74.3359 87.249 73.7695 87.249C73.0469 87.249 72.4487 87.0439 71.9751 86.6338C71.5063 86.2188 71.272 85.6328 71.272 84.876C71.272 83.8945 71.6504 83.1841 72.4072 82.7446C72.8223 82.5054 73.4326 82.3345 74.2383 82.2319L74.9487 82.144ZM84.4995 78.8262C84.5386 78.8262 84.5703 78.8286 84.5947 78.8335C84.624 78.8335 84.6851 78.8359 84.7778 78.8408V80.9795C84.646 80.9648 84.5288 80.9551 84.4263 80.9502C84.3237 80.9453 84.2407 80.9429 84.1772 80.9429C83.3374 80.9429 82.7734 81.2163 82.4854 81.7632C82.3242 82.0708 82.2437 82.5444 82.2437 83.1841V87H80.1416V79.0166H82.1338V80.4082C82.4561 79.876 82.7368 79.5122 82.9761 79.3169C83.3667 78.9897 83.8745 78.8262 84.4995 78.8262ZM90.4102 78.8115C90.9033 78.8115 91.3501 78.897 91.7505 79.0679C92.1558 79.2388 92.4878 79.5 92.7466 79.8516C92.9663 80.1494 93.1006 80.457 93.1494 80.7744C93.1982 81.0869 93.2227 81.5996 93.2227 82.3125V87H91.0913V82.144C91.0913 81.7144 91.0181 81.3677 90.8716 81.104C90.6812 80.7329 90.3198 80.5474 89.7876 80.5474C89.2358 80.5474 88.8159 80.7329 88.5278 81.104C88.2446 81.4702 88.103 81.9951 88.103 82.6787V87H86.0229V76.2407H88.103V80.0566C88.4058 79.5928 88.7549 79.2705 89.1504 79.0898C89.5508 78.9043 89.9707 78.8115 90.4102 78.8115ZM97.2583 79.0166V83.8286C97.2583 84.2827 97.312 84.6245 97.4194 84.854C97.6099 85.2593 97.9834 85.4619 98.54 85.4619C99.2529 85.4619 99.7412 85.1738 100.005 84.5977C100.142 84.2852 100.21 83.8726 100.21 83.3599V79.0166H102.327V87H100.298V85.8721C100.278 85.8965 100.229 85.9697 100.151 86.0918C100.073 86.2139 99.9805 86.3213 99.873 86.4141C99.5459 86.707 99.2285 86.9072 98.9209 87.0146C98.6182 87.1221 98.2617 87.1758 97.8516 87.1758C96.6699 87.1758 95.874 86.751 95.4639 85.9014C95.2344 85.4326 95.1196 84.7417 95.1196 83.8286V79.0166H97.2583ZM105.974 84.4512C106.018 84.8223 106.113 85.0859 106.26 85.2422C106.519 85.5205 106.997 85.6597 107.695 85.6597C108.105 85.6597 108.43 85.5986 108.669 85.4766C108.914 85.3545 109.036 85.1714 109.036 84.9272C109.036 84.6929 108.938 84.5146 108.743 84.3926C108.547 84.2705 107.822 84.0605 106.567 83.7627C105.664 83.5381 105.027 83.2573 104.656 82.9204C104.285 82.5884 104.099 82.1099 104.099 81.4849C104.099 80.7476 104.387 80.1152 104.963 79.5879C105.544 79.0557 106.36 78.7896 107.41 78.7896C108.406 78.7896 109.216 78.9897 109.841 79.3901C110.471 79.7856 110.833 80.4717 110.925 81.4482H108.838C108.809 81.1797 108.733 80.9673 108.611 80.811C108.381 80.5278 107.991 80.3862 107.439 80.3862C106.985 80.3862 106.66 80.457 106.465 80.5986C106.274 80.7402 106.179 80.9062 106.179 81.0967C106.179 81.3359 106.282 81.5093 106.487 81.6167C106.692 81.729 107.417 81.9219 108.662 82.1953C109.492 82.3906 110.115 82.686 110.53 83.0815C110.94 83.4819 111.145 83.9824 111.145 84.583C111.145 85.374 110.85 86.021 110.259 86.5239C109.673 87.022 108.765 87.271 107.534 87.271C106.279 87.271 105.352 87.0073 104.751 86.48C104.155 85.9478 103.857 85.2715 103.857 84.4512H105.974ZM117.026 87V76.2041H119.26V80.3203H123.479V76.2041H125.72V87H123.479V82.1807H119.26V87H117.026Z" fill="#333333"/>
</svg>
