<svg width="178" height="143" viewBox="0 0 178 143" fill="none" xmlns="http://www.w3.org/2000/svg">
<path d="M15.2959 19.3477H11.6489V23H10.9883V15.1797H15.833V15.7437H11.6489V18.7837H15.2959V19.3477ZM19.5713 17.7363C19.4352 17.7113 19.2902 17.6987 19.1362 17.6987C18.7352 17.6987 18.395 17.8115 18.1157 18.0371C17.84 18.2591 17.6431 18.5832 17.5249 19.0093V23H16.8857V17.1885H17.5142L17.5249 18.1123C17.8651 17.4248 18.4111 17.0811 19.1631 17.0811C19.3421 17.0811 19.4836 17.1043 19.5874 17.1509L19.5713 17.7363ZM20.1299 20.0083C20.1299 19.4497 20.2373 18.9466 20.4521 18.499C20.6706 18.0514 20.9767 17.7041 21.3706 17.457C21.7681 17.2064 22.2174 17.0811 22.7188 17.0811C23.4922 17.0811 24.1188 17.3532 24.5986 17.8975C25.0785 18.4382 25.3184 19.1561 25.3184 20.0513V20.1855C25.3184 20.7477 25.2091 21.2544 24.9907 21.7056C24.7759 22.1532 24.4715 22.4987 24.0776 22.7422C23.6838 22.9857 23.2344 23.1074 22.7295 23.1074C21.9596 23.1074 21.333 22.8371 20.8496 22.2964C20.3698 21.7521 20.1299 21.0324 20.1299 20.1372V20.0083ZM20.7744 20.1855C20.7744 20.8802 20.9535 21.4513 21.3115 21.8989C21.6732 22.3429 22.1458 22.5649 22.7295 22.5649C23.3096 22.5649 23.7786 22.3429 24.1367 21.8989C24.4984 21.4513 24.6792 20.8623 24.6792 20.1318V20.0083C24.6792 19.5643 24.5968 19.1579 24.4321 18.7891C24.2674 18.4202 24.0365 18.1356 23.7393 17.9351C23.4421 17.731 23.1019 17.6289 22.7188 17.6289C22.1458 17.6289 21.6785 17.8545 21.3169 18.3057C20.9552 18.7533 20.7744 19.3405 20.7744 20.0674V20.1855ZM27.2358 17.1885L27.2573 18.1338C27.4722 17.7829 27.7407 17.5197 28.063 17.3442C28.3853 17.1688 28.7433 17.0811 29.1372 17.0811C30.0539 17.0811 30.6357 17.457 30.8828 18.209C31.0905 17.8473 31.368 17.5698 31.7153 17.3765C32.0627 17.1795 32.4458 17.0811 32.8647 17.0811C34.1108 17.0811 34.7464 17.7614 34.7715 19.1221V23H34.127V19.1704C34.1234 18.6512 34.0106 18.2663 33.7886 18.0156C33.5701 17.765 33.2121 17.6396 32.7144 17.6396C32.2524 17.6468 31.8621 17.7972 31.5435 18.0908C31.2248 18.3809 31.0475 18.7354 31.0117 19.1543V23H30.3672V19.1221C30.3636 18.6243 30.2454 18.2537 30.0127 18.0103C29.7835 17.7632 29.429 17.6396 28.9492 17.6396C28.5446 17.6396 28.1973 17.756 27.9072 17.9888C27.6172 18.2179 27.4023 18.5599 27.2627 19.0146V23H26.6182V17.1885H27.2358Z" fill="#333333"/>
<path d="M30.2949 96.7437H27.6147V104H26.9541V96.7437H24.2793V96.1797H30.2949V96.7437ZM30.5205 101.008C30.5205 100.45 30.6279 99.9466 30.8428 99.499C31.0612 99.0514 31.3674 98.7041 31.7612 98.457C32.1587 98.2064 32.6081 98.0811 33.1094 98.0811C33.8828 98.0811 34.5094 98.3532 34.9893 98.8975C35.4691 99.4382 35.709 100.156 35.709 101.051V101.186C35.709 101.748 35.5998 102.254 35.3813 102.706C35.1665 103.153 34.8621 103.499 34.4683 103.742C34.0744 103.986 33.625 104.107 33.1201 104.107C32.3503 104.107 31.7236 103.837 31.2402 103.296C30.7604 102.752 30.5205 102.032 30.5205 101.137V101.008ZM31.165 101.186C31.165 101.88 31.3441 102.451 31.7021 102.899C32.0638 103.343 32.5365 103.565 33.1201 103.565C33.7002 103.565 34.1693 103.343 34.5273 102.899C34.889 102.451 35.0698 101.862 35.0698 101.132V101.008C35.0698 100.564 34.9875 100.158 34.8228 99.7891C34.658 99.4202 34.4271 99.1356 34.1299 98.9351C33.8327 98.731 33.4925 98.6289 33.1094 98.6289C32.5365 98.6289 32.0692 98.8545 31.7075 99.3057C31.3459 99.7533 31.165 100.34 31.165 101.067V101.186Z" fill="#333333"/>
<circle cx="47" cy="19" r="3" fill="#B32B32"/>
<line x1="47.25" y1="26" x2="47.25" y2="31" stroke="#333333" stroke-width="0.5"/>
<line x1="47.25" y1="33" x2="47.25" y2="38" stroke="#333333" stroke-width="0.5"/>
<line x1="47.25" y1="40" x2="47.25" y2="45" stroke="#333333" stroke-width="0.5"/>
<line x1="47.25" y1="47" x2="47.25" y2="52" stroke="#333333" stroke-width="0.5"/>
<line x1="47.25" y1="54" x2="47.25" y2="59" stroke="#333333" stroke-width="0.5"/>
<line x1="47.25" y1="61" x2="47.25" y2="66" stroke="#333333" stroke-width="0.5"/>
<line x1="47.25" y1="68" x2="47.25" y2="73" stroke="#333333" stroke-width="0.5"/>
<line x1="47.25" y1="75" x2="47.25" y2="80" stroke="#333333" stroke-width="0.5"/>
<line x1="47.25" y1="82" x2="47.25" y2="87" stroke="#333333" stroke-width="0.5"/>
<line x1="47.25" y1="89" x2="47.25" y2="94" stroke="#333333" stroke-width="0.5"/>
<path d="M59.8296 117H59.5923L60.1372 113.827H56.1821L55.6328 117H55.3955L56.4985 110.602H56.7358L56.2217 113.59H60.1768L60.6953 110.602H60.9282L59.8296 117ZM64.4746 117C64.4658 116.742 64.4937 116.452 64.5581 116.13C64.312 116.432 64.019 116.667 63.6792 116.837C63.3423 117.007 62.9761 117.091 62.5806 117.088C62.1821 117.088 61.8643 116.965 61.627 116.719C61.3896 116.473 61.3003 116.165 61.3589 115.796C61.4321 115.348 61.6797 114.998 62.1016 114.746C62.5264 114.494 63.064 114.36 63.7144 114.346H64.8438L64.9712 113.651C65.0327 113.262 64.9551 112.956 64.7383 112.733C64.5215 112.507 64.2095 112.395 63.8022 112.395C63.4038 112.395 63.0435 112.501 62.7212 112.715C62.3989 112.926 62.1968 113.205 62.1147 113.55L61.8774 113.542C61.9595 113.134 62.1851 112.802 62.5542 112.544C62.9233 112.286 63.3394 112.157 63.8022 112.157C64.2856 112.157 64.6562 112.295 64.9141 112.57C65.1719 112.843 65.2671 113.206 65.1997 113.66L64.7646 116.2L64.7339 116.499C64.7192 116.654 64.7251 116.808 64.7515 116.96L64.7471 117H64.4746ZM62.5762 116.855C62.9688 116.861 63.3423 116.767 63.6968 116.574C64.0513 116.377 64.353 116.092 64.6021 115.717L64.8042 114.587H63.7407C63.1489 114.599 62.6597 114.713 62.2729 114.93C61.8892 115.144 61.6621 115.438 61.5918 115.813C61.5391 116.104 61.6079 116.348 61.7983 116.547C61.9917 116.747 62.251 116.849 62.5762 116.855ZM67.7266 116.851C68.1426 116.851 68.5029 116.732 68.8076 116.495C69.1152 116.257 69.3203 115.947 69.4229 115.563H69.6602C69.5547 116.017 69.3247 116.385 68.9702 116.666C68.6157 116.947 68.2026 117.088 67.731 117.088C67.2944 117.088 66.9399 116.953 66.6675 116.684C66.3979 116.411 66.2354 116.035 66.1797 115.554C66.1475 115.276 66.1519 114.996 66.1929 114.715L66.2192 114.53C66.2954 114.064 66.4404 113.647 66.6543 113.278C66.8711 112.909 67.1318 112.63 67.4365 112.443C67.7441 112.252 68.0825 112.157 68.4517 112.157C68.9292 112.157 69.3042 112.312 69.5767 112.623C69.8521 112.934 69.9722 113.331 69.937 113.814H69.6997C69.7378 113.392 69.6396 113.051 69.4053 112.79C69.1738 112.526 68.8574 112.395 68.4561 112.395C67.9023 112.395 67.4424 112.622 67.0762 113.076C66.71 113.527 66.4873 114.132 66.4082 114.891L66.3906 115.211C66.3906 115.727 66.5063 116.13 66.7378 116.42C66.9692 116.707 67.2988 116.851 67.7266 116.851ZM71.9629 114.434L71.9497 114.442L71.1587 115.044L70.8247 117H70.5874L71.752 110.25H71.9893L71.2114 114.746L74.2656 112.25H74.6304L72.1387 114.284L73.9229 117H73.6328L71.9629 114.434ZM79.8514 113.638L78.6781 114.592L78.265 117H78.0277L79.1307 110.602H79.368L78.7308 114.275L79.9085 113.273L82.9495 110.602L83.3187 110.606L80.0316 113.489L82.409 117H82.119L79.8514 113.638ZM86.5179 117C86.5091 116.742 86.5369 116.452 86.6014 116.13C86.3553 116.432 86.0623 116.667 85.7225 116.837C85.3856 117.007 85.0194 117.091 84.6239 117.088C84.2254 117.088 83.9076 116.965 83.6702 116.719C83.4329 116.473 83.3436 116.165 83.4022 115.796C83.4754 115.348 83.723 114.998 84.1449 114.746C84.5697 114.494 85.1073 114.36 85.7577 114.346H86.887L87.0145 113.651C87.076 113.262 86.9984 112.956 86.7816 112.733C86.5648 112.507 86.2528 112.395 85.8455 112.395C85.4471 112.395 85.0868 112.501 84.7645 112.715C84.4422 112.926 84.2401 113.205 84.158 113.55L83.9207 113.542C84.0028 113.134 84.2284 112.802 84.5975 112.544C84.9666 112.286 85.3827 112.157 85.8455 112.157C86.3289 112.157 86.6995 112.295 86.9574 112.57C87.2152 112.843 87.3104 113.206 87.243 113.66L86.8079 116.2L86.7772 116.499C86.7625 116.654 86.7684 116.808 86.7948 116.96L86.7904 117H86.5179ZM84.6195 116.855C85.012 116.861 85.3856 116.767 85.7401 116.574C86.0946 116.377 86.3963 116.092 86.6453 115.717L86.8475 114.587H85.784C85.1922 114.599 84.703 114.713 84.3162 114.93C83.9325 115.144 83.7054 115.438 83.6351 115.813C83.5824 116.104 83.6512 116.348 83.8416 116.547C84.035 116.747 84.2943 116.849 84.6195 116.855ZM91.4618 117H91.2288L91.7738 113.836C91.806 113.637 91.8162 113.448 91.8045 113.269C91.7811 112.985 91.6815 112.767 91.5057 112.614C91.3328 112.462 91.0926 112.387 90.785 112.39C90.3748 112.396 89.9837 112.559 89.6117 112.878C89.2425 113.194 88.9964 113.566 88.8734 113.994L88.3504 117H88.1131L88.9305 112.245H89.1722L88.9613 113.37C89.1986 112.98 89.4769 112.682 89.7962 112.474C90.1156 112.263 90.4481 112.157 90.7938 112.157C91.1864 112.157 91.4881 112.255 91.6991 112.452C91.9129 112.645 92.0257 112.922 92.0374 113.282C92.2484 112.939 92.5208 112.667 92.8548 112.465C93.1888 112.26 93.5448 112.157 93.9227 112.157C94.2889 112.157 94.5775 112.252 94.7884 112.443C94.9993 112.633 95.1209 112.903 95.1532 113.251C95.1707 113.474 95.159 113.707 95.118 113.95L94.5907 117H94.3577L94.8851 113.924C94.9202 113.722 94.9334 113.527 94.9246 113.339C94.91 113.029 94.8162 112.793 94.6434 112.632C94.4735 112.468 94.2303 112.387 93.9139 112.39C93.6385 112.399 93.3646 112.468 93.0921 112.597C92.8226 112.726 92.5897 112.901 92.3934 113.124C92.2 113.344 92.0726 113.581 92.0111 113.836L91.4618 117ZM97.8338 117.088C97.4969 117.088 97.2025 117.015 96.9505 116.868C96.6986 116.722 96.514 116.52 96.3968 116.262L95.9442 118.828H95.7069L96.8407 112.245H97.078L96.9154 113.093C97.1234 112.812 97.3724 112.586 97.6624 112.417C97.9554 112.244 98.2806 112.157 98.638 112.157C98.9456 112.157 99.2078 112.233 99.4246 112.386C99.6414 112.538 99.7996 112.762 99.8993 113.058C100.002 113.351 100.047 113.676 100.035 114.034C100.027 114.221 100.009 114.401 99.9827 114.574L99.9256 114.864C99.7733 115.553 99.5125 116.096 99.1434 116.495C98.7743 116.89 98.3377 117.088 97.8338 117.088ZM99.741 114.574L99.7938 114.104C99.8231 113.547 99.7367 113.124 99.5345 112.834C99.3324 112.541 99.035 112.395 98.6424 112.395C98.2557 112.395 97.8895 112.51 97.5438 112.742C97.201 112.97 96.971 113.254 96.8538 113.594L96.4583 115.818C96.5257 116.149 96.6825 116.404 96.9285 116.583C97.1776 116.761 97.4793 116.851 97.8338 116.851C98.3084 116.851 98.7098 116.657 99.0379 116.271C99.366 115.881 99.596 115.34 99.7279 114.649L99.741 114.574ZM104.162 117H103.929L104.474 113.836C104.506 113.637 104.516 113.448 104.505 113.269C104.481 112.985 104.382 112.767 104.206 112.614C104.033 112.462 103.793 112.387 103.485 112.39C103.075 112.396 102.684 112.559 102.312 112.878C101.943 113.194 101.697 113.566 101.574 113.994L101.051 117H100.813L101.631 112.245H101.872L101.661 113.37C101.899 112.98 102.177 112.682 102.496 112.474C102.816 112.263 103.148 112.157 103.494 112.157C103.887 112.157 104.188 112.255 104.399 112.452C104.613 112.645 104.726 112.922 104.738 113.282C104.949 112.939 105.221 112.667 105.555 112.465C105.889 112.26 106.245 112.157 106.623 112.157C106.989 112.157 107.278 112.252 107.489 112.443C107.7 112.633 107.821 112.903 107.853 113.251C107.871 113.474 107.859 113.707 107.818 113.95L107.291 117H107.058L107.585 113.924C107.62 113.722 107.634 113.527 107.625 113.339C107.61 113.029 107.516 112.793 107.344 112.632C107.174 112.468 106.931 112.387 106.614 112.39C106.339 112.399 106.065 112.468 105.792 112.597C105.523 112.726 105.29 112.901 105.094 113.124C104.9 113.344 104.773 113.581 104.711 113.836L104.162 117ZM111.751 117C111.743 116.742 111.77 116.452 111.835 116.13C111.589 116.432 111.296 116.667 110.956 116.837C110.619 117.007 110.253 117.091 109.857 117.088C109.459 117.088 109.141 116.965 108.904 116.719C108.666 116.473 108.577 116.165 108.636 115.796C108.709 115.348 108.956 114.998 109.378 114.746C109.803 114.494 110.341 114.36 110.991 114.346H112.12L112.248 113.651C112.309 113.262 112.232 112.956 112.015 112.733C111.798 112.507 111.486 112.395 111.079 112.395C110.681 112.395 110.32 112.501 109.998 112.715C109.676 112.926 109.473 113.205 109.391 113.55L109.154 113.542C109.236 113.134 109.462 112.802 109.831 112.544C110.2 112.286 110.616 112.157 111.079 112.157C111.562 112.157 111.933 112.295 112.191 112.57C112.449 112.843 112.544 113.206 112.476 113.66L112.041 116.2L112.011 116.499C111.996 116.654 112.002 116.808 112.028 116.96L112.024 117H111.751ZM109.853 116.855C110.245 116.861 110.619 116.767 110.973 116.574C111.328 116.377 111.63 116.092 111.879 115.717L112.081 114.587H111.017C110.426 114.599 109.936 114.713 109.55 114.93C109.166 115.144 108.939 115.438 108.868 115.813C108.816 116.104 108.885 116.348 109.075 116.547C109.268 116.747 109.528 116.849 109.853 116.855ZM114.239 113.353C114.476 112.969 114.756 112.674 115.078 112.469C115.4 112.261 115.733 112.157 116.076 112.157C116.439 112.157 116.724 112.251 116.932 112.438C117.14 112.626 117.261 112.897 117.293 113.251C117.31 113.474 117.299 113.707 117.258 113.95L116.73 117H116.493L117.02 113.95C117.056 113.745 117.07 113.543 117.064 113.344C117.05 113.033 116.957 112.796 116.787 112.632C116.62 112.468 116.38 112.387 116.067 112.39C115.665 112.396 115.279 112.553 114.907 112.86C114.537 113.165 114.287 113.53 114.155 113.955L113.628 117H113.39L114.208 112.245H114.445L114.239 113.353ZM119.064 113.353C119.301 112.969 119.581 112.674 119.903 112.469C120.225 112.261 120.558 112.157 120.901 112.157C121.264 112.157 121.55 112.251 121.758 112.438C121.966 112.626 122.086 112.897 122.118 113.251C122.136 113.474 122.124 113.707 122.083 113.95L121.556 117H121.318L121.846 113.95C121.881 113.745 121.895 113.543 121.889 113.344C121.875 113.033 121.783 112.796 121.613 112.632C121.446 112.468 121.205 112.387 120.892 112.39C120.491 112.396 120.104 112.553 119.732 112.86C119.363 113.165 119.112 113.53 118.98 113.955L118.453 117H118.216L119.033 112.245H119.27L119.064 113.353ZM126.135 115.835C126.24 115.285 125.839 114.894 124.931 114.662L124.443 114.521C123.769 114.302 123.473 113.914 123.555 113.357C123.608 112.997 123.798 112.707 124.126 112.487C124.454 112.267 124.835 112.157 125.269 112.157C125.746 112.157 126.12 112.28 126.389 112.526C126.659 112.772 126.773 113.102 126.732 113.515H126.495C126.53 113.181 126.432 112.912 126.201 112.707C125.969 112.499 125.66 112.395 125.273 112.395C124.898 112.395 124.572 112.481 124.293 112.654C124.015 112.827 123.848 113.058 123.792 113.348C123.704 113.814 123.974 114.145 124.601 114.341L125.256 114.53L125.475 114.605C126.158 114.854 126.457 115.266 126.372 115.84C126.316 116.218 126.12 116.521 125.783 116.75C125.446 116.975 125.043 117.088 124.575 117.088C124.085 117.088 123.694 116.969 123.401 116.732C123.108 116.492 122.982 116.178 123.023 115.792H123.256C123.242 116.12 123.35 116.379 123.581 116.569C123.816 116.757 124.145 116.851 124.57 116.851C124.974 116.842 125.323 116.745 125.616 116.561C125.909 116.373 126.082 116.131 126.135 115.835ZM131.395 114.297L130.929 117H130.692L131.799 110.602H133.72C134.315 110.607 134.77 110.779 135.087 111.116C135.403 111.453 135.516 111.904 135.425 112.469C135.331 113.035 135.076 113.481 134.66 113.81C134.244 114.135 133.71 114.297 133.056 114.297H131.395ZM131.435 114.06H133.061C133.617 114.06 134.086 113.921 134.467 113.643C134.851 113.364 135.091 112.976 135.188 112.478C135.276 111.989 135.188 111.596 134.924 111.3C134.66 111.004 134.26 110.851 133.724 110.839H131.997L131.435 114.06ZM136.159 117H135.922L137.082 110.25H137.319L136.159 117ZM137.64 116.776C137.649 116.717 137.679 116.663 137.732 116.613C137.788 116.563 137.846 116.539 137.908 116.539C137.975 116.539 138.029 116.565 138.07 116.618C138.111 116.67 138.128 116.729 138.119 116.793C138.11 116.852 138.078 116.906 138.022 116.956C137.966 117.003 137.908 117.026 137.846 117.026C137.779 117.023 137.725 116.997 137.684 116.947C137.643 116.897 137.628 116.84 137.64 116.776ZM146.456 117H142.742L142.769 116.763L145.638 113.867C146.212 113.275 146.541 112.73 146.623 112.232C146.699 111.798 146.623 111.444 146.394 111.168C146.166 110.89 145.823 110.751 145.366 110.751C144.92 110.751 144.528 110.909 144.188 111.226C143.848 111.539 143.631 111.933 143.538 112.408H143.3C143.394 111.863 143.634 111.412 144.021 111.054C144.411 110.694 144.857 110.514 145.361 110.514C145.883 110.514 146.283 110.672 146.561 110.988C146.842 111.302 146.945 111.716 146.869 112.232C146.792 112.756 146.453 113.336 145.849 113.972L143.094 116.763H146.486L146.456 117ZM147.233 118.121L147.084 117.971C147.397 117.62 147.586 117.259 147.651 116.89L147.752 116.301H147.989L147.897 116.855C147.812 117.359 147.591 117.781 147.233 118.121ZM59.5967 123.228C59.5381 123.576 59.3843 123.882 59.1353 124.146C58.8862 124.407 58.5684 124.602 58.1816 124.73C58.5508 124.854 58.832 125.06 59.0254 125.35C59.2217 125.637 59.292 125.965 59.2363 126.334C59.1543 126.859 58.9023 127.282 58.4805 127.604C58.0586 127.927 57.5576 128.088 56.9775 128.088C56.6055 128.088 56.2773 128.015 55.9932 127.868C55.7119 127.719 55.5068 127.512 55.3779 127.249C55.249 126.982 55.2139 126.677 55.2725 126.334C55.3369 125.954 55.5068 125.624 55.7822 125.346C56.0576 125.064 56.418 124.856 56.8633 124.722C56.5381 124.596 56.2964 124.398 56.1382 124.128C55.9829 123.859 55.9316 123.559 55.9844 123.228C56.0635 122.727 56.2964 122.316 56.6831 121.997C57.0698 121.675 57.5269 121.514 58.0542 121.514C58.3853 121.514 58.6797 121.588 58.9375 121.738C59.1982 121.884 59.3857 122.089 59.5 122.353C59.6172 122.614 59.6494 122.905 59.5967 123.228ZM58.9902 126.356C59.043 126.075 59.0137 125.82 58.9023 125.592C58.7939 125.363 58.6152 125.182 58.3662 125.047C58.1172 124.912 57.8389 124.845 57.5312 124.845C57.0391 124.845 56.5981 124.985 56.2085 125.267C55.8218 125.548 55.5874 125.911 55.5054 126.356C55.4263 126.799 55.5259 127.159 55.8042 127.438C56.0854 127.713 56.4751 127.851 56.9731 127.851C57.4771 127.851 57.918 127.713 58.2959 127.438C58.6768 127.159 58.9082 126.799 58.9902 126.356ZM59.3638 123.206C59.437 122.798 59.3433 122.454 59.0825 122.173C58.8218 121.892 58.4805 121.751 58.0586 121.751C57.6045 121.751 57.2046 121.889 56.8589 122.164C56.5161 122.437 56.3052 122.784 56.2261 123.206C56.1499 123.61 56.2378 123.945 56.4897 124.212C56.7446 124.476 57.0903 124.607 57.5269 124.607C57.9722 124.607 58.3691 124.477 58.7178 124.216C59.0693 123.956 59.2847 123.619 59.3638 123.206ZM61.7852 128.088C61.4512 128.088 61.1699 128.004 60.9414 127.837C60.7129 127.67 60.5444 127.424 60.436 127.099C60.3306 126.771 60.2866 126.397 60.3042 125.979L60.3394 125.557L60.5503 124.309C60.6997 123.438 60.9736 122.754 61.3721 122.256C61.7705 121.758 62.27 121.509 62.8706 121.509C63.2104 121.509 63.4946 121.594 63.7231 121.764C63.9517 121.931 64.1187 122.18 64.2241 122.511C64.3296 122.842 64.3721 123.213 64.3516 123.623L64.3076 124.098L64.0923 125.346C63.9399 126.21 63.6646 126.884 63.2661 127.367C62.8677 127.848 62.374 128.088 61.7852 128.088ZM64.1143 123.14C64.0762 122.677 63.9517 122.33 63.7407 122.098C63.5298 121.864 63.2412 121.747 62.875 121.747C62.3477 121.747 61.9023 121.972 61.5391 122.423C61.1787 122.872 60.9268 123.509 60.7832 124.335L60.5811 125.521L60.5459 125.895C60.5166 126.258 60.5415 126.594 60.6206 126.901C60.6997 127.209 60.8374 127.445 61.0337 127.609C61.23 127.77 61.479 127.851 61.7808 127.851C62.3052 127.851 62.7461 127.629 63.1035 127.187C63.4639 126.742 63.7144 126.124 63.855 125.333L64.0396 124.287C64.1157 123.856 64.1406 123.474 64.1143 123.14ZM66.6104 128.088C66.2764 128.088 65.9951 128.004 65.7666 127.837C65.5381 127.67 65.3696 127.424 65.2612 127.099C65.1558 126.771 65.1118 126.397 65.1294 125.979L65.1646 125.557L65.3755 124.309C65.5249 123.438 65.7988 122.754 66.1973 122.256C66.5957 121.758 67.0952 121.509 67.6958 121.509C68.0356 121.509 68.3198 121.594 68.5483 121.764C68.7769 121.931 68.9438 122.18 69.0493 122.511C69.1548 122.842 69.1973 123.213 69.1768 123.623L69.1328 124.098L68.9175 125.346C68.7651 126.21 68.4897 126.884 68.0913 127.367C67.6929 127.848 67.1992 128.088 66.6104 128.088ZM68.9395 123.14C68.9014 122.677 68.7769 122.33 68.5659 122.098C68.355 121.864 68.0664 121.747 67.7002 121.747C67.1729 121.747 66.7275 121.972 66.3643 122.423C66.0039 122.872 65.752 123.509 65.6084 124.335L65.4062 125.521L65.3711 125.895C65.3418 126.258 65.3667 126.594 65.4458 126.901C65.5249 127.209 65.6626 127.445 65.8589 127.609C66.0552 127.77 66.3042 127.851 66.606 127.851C67.1304 127.851 67.5713 127.629 67.9287 127.187C68.2891 126.742 68.5396 126.124 68.6802 125.333L68.8647 124.287C68.9409 123.856 68.9658 123.474 68.9395 123.14ZM71.4355 128.088C71.1016 128.088 70.8203 128.004 70.5918 127.837C70.3633 127.67 70.1948 127.424 70.0864 127.099C69.981 126.771 69.937 126.397 69.9546 125.979L69.9897 125.557L70.2007 124.309C70.3501 123.438 70.624 122.754 71.0225 122.256C71.4209 121.758 71.9204 121.509 72.521 121.509C72.8608 121.509 73.145 121.594 73.3735 121.764C73.6021 121.931 73.769 122.18 73.8745 122.511C73.98 122.842 74.0225 123.213 74.002 123.623L73.958 124.098L73.7427 125.346C73.5903 126.21 73.3149 126.884 72.9165 127.367C72.5181 127.848 72.0244 128.088 71.4355 128.088ZM73.7646 123.14C73.7266 122.677 73.6021 122.33 73.3911 122.098C73.1802 121.864 72.8916 121.747 72.5254 121.747C71.998 121.747 71.5527 121.972 71.1895 122.423C70.8291 122.872 70.5771 123.509 70.4336 124.335L70.2314 125.521L70.1963 125.895C70.167 126.258 70.1919 126.594 70.271 126.901C70.3501 127.209 70.4878 127.445 70.6841 127.609C70.8804 127.77 71.1294 127.851 71.4312 127.851C71.9556 127.851 72.3965 127.629 72.7539 127.187C73.1143 126.742 73.3647 126.124 73.5054 125.333L73.6899 124.287C73.7661 123.856 73.791 123.474 73.7646 123.14ZM80.4399 126.088H77.4077L76.3838 128H76.1201L79.5391 121.606L79.8247 121.602L81.0552 128H80.8047L80.4399 126.088ZM77.5308 125.851H80.3916L79.6533 121.9L77.5308 125.851ZM84.9883 128C84.9795 127.742 85.0073 127.452 85.0718 127.13C84.8257 127.432 84.5327 127.667 84.1929 127.837C83.856 128.007 83.4897 128.091 83.0942 128.088C82.6958 128.088 82.3779 127.965 82.1406 127.719C81.9033 127.473 81.814 127.165 81.8726 126.796C81.9458 126.348 82.1934 125.998 82.6152 125.746C83.04 125.494 83.5776 125.36 84.228 125.346H85.3574L85.4849 124.651C85.5464 124.262 85.4688 123.956 85.252 123.733C85.0352 123.507 84.7231 123.395 84.3159 123.395C83.9175 123.395 83.5571 123.501 83.2349 123.715C82.9126 123.926 82.7104 124.205 82.6284 124.55L82.3911 124.542C82.4731 124.134 82.6987 123.802 83.0679 123.544C83.437 123.286 83.853 123.157 84.3159 123.157C84.7993 123.157 85.1699 123.295 85.4277 123.57C85.6855 123.843 85.7808 124.206 85.7134 124.66L85.2783 127.2L85.2476 127.499C85.2329 127.654 85.2388 127.808 85.2651 127.96L85.2607 128H84.9883ZM83.0898 127.855C83.4824 127.861 83.856 127.767 84.2104 127.574C84.5649 127.377 84.8667 127.092 85.1157 126.717L85.3179 125.587H84.2544C83.6626 125.599 83.1733 125.713 82.7866 125.93C82.4028 126.144 82.1758 126.438 82.1055 126.813C82.0527 127.104 82.1216 127.348 82.312 127.547C82.5054 127.747 82.7646 127.849 83.0898 127.855ZM89.4619 123.412L89.1763 123.39C88.7837 123.39 88.4189 123.535 88.082 123.825C87.7451 124.115 87.5195 124.468 87.4053 124.884L86.8647 128H86.6274L87.4448 123.245H87.6821L87.4976 124.234C87.6968 123.894 87.9399 123.63 88.2271 123.443C88.5142 123.252 88.8335 123.157 89.1851 123.157C89.2964 123.157 89.4077 123.175 89.519 123.21L89.4619 123.412ZM90.4375 124.353C90.6748 123.969 90.9546 123.674 91.2769 123.469C91.5991 123.261 91.9316 123.157 92.2744 123.157C92.6377 123.157 92.9233 123.251 93.1313 123.438C93.3394 123.626 93.4595 123.897 93.4917 124.251C93.5093 124.474 93.4976 124.707 93.4565 124.95L92.9292 128H92.6919L93.2192 124.95C93.2544 124.745 93.269 124.543 93.2632 124.344C93.2485 124.033 93.1562 123.796 92.9863 123.632C92.8193 123.468 92.5791 123.387 92.2656 123.39C91.8643 123.396 91.4775 123.553 91.1055 123.86C90.7363 124.165 90.4858 124.53 90.354 124.955L89.8267 128H89.5894L90.7539 121.25H90.9912L90.4375 124.353ZM97.5039 128L97.6533 127.231C97.4453 127.518 97.1934 127.733 96.8975 127.877C96.6016 128.018 96.2764 128.088 95.9219 128.088C95.5527 128.088 95.2598 127.99 95.043 127.793C94.8291 127.597 94.7046 127.317 94.6694 126.954C94.6489 126.723 94.6592 126.484 94.7002 126.238L95.2144 123.245H95.4517L94.9287 126.273C94.8965 126.472 94.8862 126.666 94.8979 126.853C94.9126 127.169 95.0078 127.416 95.1836 127.591C95.3594 127.764 95.6025 127.851 95.9131 127.851C96.3408 127.851 96.7261 127.735 97.0688 127.503C97.4116 127.269 97.6372 126.964 97.7456 126.589L98.3213 123.245H98.563L97.7456 128H97.5039ZM102.333 126.835C102.439 126.285 102.038 125.894 101.129 125.662L100.642 125.521C99.9678 125.302 99.6719 124.914 99.7539 124.357C99.8066 123.997 99.9971 123.707 100.325 123.487C100.653 123.267 101.034 123.157 101.468 123.157C101.945 123.157 102.319 123.28 102.588 123.526C102.858 123.772 102.972 124.102 102.931 124.515H102.694C102.729 124.181 102.631 123.912 102.399 123.707C102.168 123.499 101.859 123.395 101.472 123.395C101.097 123.395 100.771 123.481 100.492 123.654C100.214 123.827 100.047 124.058 99.9912 124.348C99.9033 124.814 100.173 125.145 100.8 125.341L101.455 125.53L101.674 125.605C102.357 125.854 102.656 126.266 102.571 126.84C102.515 127.218 102.319 127.521 101.982 127.75C101.645 127.975 101.242 128.088 100.773 128.088C100.284 128.088 99.8931 127.969 99.6001 127.732C99.3071 127.492 99.1812 127.178 99.2222 126.792H99.4551C99.4404 127.12 99.5488 127.379 99.7803 127.569C100.015 127.757 100.344 127.851 100.769 127.851C101.173 127.842 101.522 127.745 101.815 127.561C102.108 127.373 102.281 127.131 102.333 126.835Z" fill="#707070"/>
<path d="M58.3325 14.0791V16.4595H60.9839C61.4575 16.4595 61.8408 16.3716 62.1338 16.1958C62.4316 16.0151 62.5806 15.6978 62.5806 15.2437C62.5806 14.7407 62.3853 14.4087 61.9946 14.2476C61.6577 14.1353 61.228 14.0791 60.7056 14.0791H58.3325ZM58.3325 18.2466V21.125H60.9839C61.4575 21.125 61.8262 21.0615 62.0898 20.9346C62.5684 20.7002 62.8076 20.251 62.8076 19.5869C62.8076 19.0254 62.5757 18.6396 62.1118 18.4297C61.853 18.3125 61.4893 18.2515 61.0205 18.2466H58.3325ZM61.4233 12.2041C62.7466 12.2236 63.6841 12.6069 64.2358 13.354C64.5679 13.813 64.7339 14.3623 64.7339 15.002C64.7339 15.6611 64.5679 16.1909 64.2358 16.5913C64.0503 16.8159 63.7769 17.021 63.4155 17.2065C63.9673 17.4067 64.3823 17.7241 64.6606 18.1587C64.9438 18.5933 65.0854 19.1206 65.0854 19.7407C65.0854 20.3804 64.9243 20.9541 64.6021 21.4619C64.397 21.7988 64.1406 22.082 63.833 22.3115C63.4863 22.5752 63.0762 22.7559 62.6025 22.8535C62.1338 22.9512 61.6235 23 61.0718 23H56.1792V12.2041H61.4233ZM68.894 15.0166V19.8286C68.894 20.2827 68.9478 20.6245 69.0552 20.854C69.2456 21.2593 69.6191 21.4619 70.1758 21.4619C70.8887 21.4619 71.377 21.1738 71.6406 20.5977C71.7773 20.2852 71.8457 19.8726 71.8457 19.3599V15.0166H73.9624V23H71.9336V21.8721C71.9141 21.8965 71.8652 21.9697 71.7871 22.0918C71.709 22.2139 71.6162 22.3213 71.5088 22.4141C71.1816 22.707 70.8643 22.9072 70.5566 23.0146C70.2539 23.1221 69.8975 23.1758 69.4873 23.1758C68.3057 23.1758 67.5098 22.751 67.0996 21.9014C66.8701 21.4326 66.7554 20.7417 66.7554 19.8286V15.0166H68.894ZM77.6099 20.4512C77.6538 20.8223 77.749 21.0859 77.8955 21.2422C78.1543 21.5205 78.6328 21.6597 79.3311 21.6597C79.7412 21.6597 80.0659 21.5986 80.3052 21.4766C80.5493 21.3545 80.6714 21.1714 80.6714 20.9272C80.6714 20.6929 80.5737 20.5146 80.3784 20.3926C80.1831 20.2705 79.458 20.0605 78.2031 19.7627C77.2998 19.5381 76.6626 19.2573 76.2915 18.9204C75.9204 18.5884 75.7349 18.1099 75.7349 17.4849C75.7349 16.7476 76.0229 16.1152 76.5991 15.5879C77.1802 15.0557 77.9956 14.7896 79.0454 14.7896C80.0415 14.7896 80.8521 14.9897 81.4771 15.3901C82.1069 15.7856 82.4683 16.4717 82.561 17.4482H80.4736C80.4443 17.1797 80.3687 16.9673 80.2466 16.811C80.0171 16.5278 79.6265 16.3862 79.0747 16.3862C78.6206 16.3862 78.2959 16.457 78.1006 16.5986C77.9102 16.7402 77.8149 16.9062 77.8149 17.0967C77.8149 17.3359 77.9175 17.5093 78.1226 17.6167C78.3276 17.729 79.0527 17.9219 80.2979 18.1953C81.1279 18.3906 81.7505 18.686 82.1655 19.0815C82.5757 19.4819 82.7808 19.9824 82.7808 20.583C82.7808 21.374 82.4854 22.021 81.8945 22.5239C81.3086 23.022 80.4004 23.271 79.1699 23.271C77.915 23.271 76.9873 23.0073 76.3867 22.48C75.791 21.9478 75.4932 21.2715 75.4932 20.4512H77.6099ZM86.4795 14.0645H84.3628V12.1382H86.4795V14.0645ZM84.3628 15.0166H86.4795V23H84.3628V15.0166ZM92.9321 14.8262C93.7573 14.8262 94.4312 15.0435 94.9536 15.478C95.481 15.9077 95.7446 16.623 95.7446 17.624V23H93.606V18.144C93.606 17.7241 93.5498 17.4019 93.4375 17.1772C93.2324 16.7671 92.8418 16.562 92.2656 16.562C91.5576 16.562 91.0718 16.8623 90.8081 17.4629C90.6714 17.7803 90.603 18.1855 90.603 18.6787V23H88.5229V15.0312H90.5371V16.1958C90.8057 15.7856 91.0596 15.4902 91.2988 15.3096C91.7285 14.9873 92.2729 14.8262 92.9321 14.8262ZM100.828 16.5254C100.344 16.5254 99.9683 16.6768 99.6997 16.9795C99.436 17.2822 99.27 17.6924 99.2017 18.21H102.446C102.412 17.6582 102.244 17.2407 101.941 16.9575C101.643 16.6694 101.272 16.5254 100.828 16.5254ZM100.828 14.8042C101.492 14.8042 102.09 14.9287 102.622 15.1777C103.154 15.4268 103.594 15.8198 103.94 16.3569C104.253 16.8306 104.456 17.3799 104.548 18.0049C104.602 18.3711 104.624 18.8984 104.614 19.5869H99.1504C99.1797 20.3877 99.4312 20.9492 99.9048 21.2715C100.193 21.4717 100.54 21.5718 100.945 21.5718C101.375 21.5718 101.724 21.4497 101.992 21.2056C102.139 21.0737 102.268 20.8906 102.38 20.6562H104.512C104.458 21.1299 104.211 21.6108 103.772 22.0991C103.088 22.8755 102.131 23.2637 100.901 23.2637C99.8853 23.2637 98.9893 22.9365 98.2129 22.2822C97.4365 21.6279 97.0483 20.5635 97.0483 19.0889C97.0483 17.707 97.3975 16.6475 98.0957 15.9102C98.7988 15.1729 99.7095 14.8042 100.828 14.8042ZM107.654 20.4512C107.698 20.8223 107.793 21.0859 107.939 21.2422C108.198 21.5205 108.677 21.6597 109.375 21.6597C109.785 21.6597 110.11 21.5986 110.349 21.4766C110.593 21.3545 110.715 21.1714 110.715 20.9272C110.715 20.6929 110.618 20.5146 110.422 20.3926C110.227 20.2705 109.502 20.0605 108.247 19.7627C107.344 19.5381 106.707 19.2573 106.335 18.9204C105.964 18.5884 105.779 18.1099 105.779 17.4849C105.779 16.7476 106.067 16.1152 106.643 15.5879C107.224 15.0557 108.04 14.7896 109.089 14.7896C110.085 14.7896 110.896 14.9897 111.521 15.3901C112.151 15.7856 112.512 16.4717 112.605 17.4482H110.518C110.488 17.1797 110.413 16.9673 110.291 16.811C110.061 16.5278 109.67 16.3862 109.119 16.3862C108.665 16.3862 108.34 16.457 108.145 16.5986C107.954 16.7402 107.859 16.9062 107.859 17.0967C107.859 17.3359 107.961 17.5093 108.167 17.6167C108.372 17.729 109.097 17.9219 110.342 18.1953C111.172 18.3906 111.794 18.686 112.209 19.0815C112.62 19.4819 112.825 19.9824 112.825 20.583C112.825 21.374 112.529 22.021 111.938 22.5239C111.353 23.022 110.444 23.271 109.214 23.271C107.959 23.271 107.031 23.0073 106.431 22.48C105.835 21.9478 105.537 21.2715 105.537 20.4512H107.654ZM116.003 20.4512C116.047 20.8223 116.143 21.0859 116.289 21.2422C116.548 21.5205 117.026 21.6597 117.725 21.6597C118.135 21.6597 118.459 21.5986 118.699 21.4766C118.943 21.3545 119.065 21.1714 119.065 20.9272C119.065 20.6929 118.967 20.5146 118.772 20.3926C118.577 20.2705 117.852 20.0605 116.597 19.7627C115.693 19.5381 115.056 19.2573 114.685 18.9204C114.314 18.5884 114.128 18.1099 114.128 17.4849C114.128 16.7476 114.417 16.1152 114.993 15.5879C115.574 15.0557 116.389 14.7896 117.439 14.7896C118.435 14.7896 119.246 14.9897 119.871 15.3901C120.5 15.7856 120.862 16.4717 120.955 17.4482H118.867C118.838 17.1797 118.762 16.9673 118.64 16.811C118.411 16.5278 118.02 16.3862 117.468 16.3862C117.014 16.3862 116.689 16.457 116.494 16.5986C116.304 16.7402 116.208 16.9062 116.208 17.0967C116.208 17.3359 116.311 17.5093 116.516 17.6167C116.721 17.729 117.446 17.9219 118.691 18.1953C119.521 18.3906 120.144 18.686 120.559 19.0815C120.969 19.4819 121.174 19.9824 121.174 20.583C121.174 21.374 120.879 22.021 120.288 22.5239C119.702 23.022 118.794 23.271 117.563 23.271C116.309 23.271 115.381 23.0073 114.78 22.48C114.185 21.9478 113.887 21.2715 113.887 20.4512H116.003ZM58.8159 35.9204H61.5552L60.2075 31.6724L58.8159 35.9204ZM58.9551 29.2041H61.5039L65.3271 40H62.8809L62.1851 37.7808H58.208L57.4609 40H55.1025L58.9551 29.2041ZM71.3037 34.8804C71.2646 34.5825 71.1646 34.314 71.0034 34.0747C70.769 33.7524 70.4053 33.5913 69.9121 33.5913C69.209 33.5913 68.728 33.9404 68.4692 34.6387C68.3325 35.0098 68.2642 35.5029 68.2642 36.1182C68.2642 36.7041 68.3325 37.1753 68.4692 37.5317C68.7183 38.1958 69.187 38.5278 69.8755 38.5278C70.3638 38.5278 70.7104 38.396 70.9155 38.1323C71.1206 37.8687 71.2451 37.5269 71.2891 37.1069H73.4204C73.3716 37.7417 73.1421 38.3423 72.7319 38.9087C72.0776 39.8218 71.1084 40.2783 69.8242 40.2783C68.54 40.2783 67.5952 39.8975 66.9897 39.1357C66.3843 38.374 66.0815 37.3853 66.0815 36.1694C66.0815 34.7974 66.416 33.7305 67.085 32.9688C67.7539 32.207 68.6768 31.8262 69.8535 31.8262C70.8545 31.8262 71.6724 32.0508 72.3071 32.5C72.9468 32.9492 73.3252 33.7427 73.4424 34.8804H71.3037ZM79.2871 36.1182C79.1553 36.2012 79.021 36.2695 78.8843 36.3232C78.7524 36.3721 78.5693 36.4185 78.335 36.4624L77.8662 36.5503C77.4268 36.6284 77.1118 36.7236 76.9214 36.8359C76.5991 37.0264 76.438 37.3218 76.438 37.7222C76.438 38.0786 76.5356 38.3374 76.731 38.4985C76.9312 38.6548 77.1729 38.7329 77.4561 38.7329C77.9053 38.7329 78.3179 38.6011 78.6938 38.3374C79.0747 38.0737 79.2725 37.5928 79.2871 36.8945V36.1182ZM78.02 35.144C78.4058 35.0952 78.6816 35.0342 78.8477 34.9609C79.1455 34.834 79.2944 34.6362 79.2944 34.3677C79.2944 34.0405 79.1797 33.8159 78.9502 33.6938C78.7256 33.5669 78.3936 33.5034 77.9541 33.5034C77.4609 33.5034 77.1118 33.6255 76.9067 33.8696C76.7603 34.0503 76.6626 34.2944 76.6138 34.6021H74.5996C74.6436 33.9038 74.8389 33.3301 75.1855 32.8809C75.7373 32.1777 76.6846 31.8262 78.0273 31.8262C78.9014 31.8262 79.6777 31.9995 80.3564 32.3462C81.0352 32.6929 81.3745 33.3472 81.3745 34.3091V37.9712C81.3745 38.2251 81.3794 38.5327 81.3892 38.894C81.4038 39.1675 81.4453 39.353 81.5137 39.4507C81.582 39.5483 81.6846 39.6289 81.8213 39.6924V40H79.5508C79.4873 39.8389 79.4434 39.6875 79.4189 39.5459C79.3945 39.4043 79.375 39.2432 79.3604 39.0625C79.0723 39.375 78.7402 39.6411 78.3643 39.8608C77.915 40.1196 77.4072 40.249 76.8408 40.249C76.1182 40.249 75.52 40.0439 75.0464 39.6338C74.5776 39.2188 74.3433 38.6328 74.3433 37.876C74.3433 36.8945 74.7217 36.1841 75.4785 35.7446C75.8936 35.5054 76.5039 35.3345 77.3096 35.2319L78.02 35.144ZM86.1792 31.8262C86.6626 31.8262 87.0923 31.9336 87.4683 32.1484C87.8442 32.3584 88.1494 32.6514 88.3838 33.0273V29.2188H90.5005V40H88.4717V38.894C88.1738 39.3677 87.8345 39.7119 87.4536 39.9268C87.0728 40.1416 86.5991 40.249 86.0327 40.249C85.1001 40.249 84.314 39.873 83.6743 39.1211C83.0396 38.3643 82.7222 37.395 82.7222 36.2134C82.7222 34.8511 83.0347 33.7793 83.6597 32.998C84.2896 32.2168 85.1294 31.8262 86.1792 31.8262ZM86.6333 38.4912C87.2241 38.4912 87.6733 38.2715 87.981 37.832C88.2886 37.3926 88.4424 36.8237 88.4424 36.1255C88.4424 35.1489 88.1958 34.4507 87.7026 34.0308C87.3999 33.7769 87.0483 33.6499 86.6479 33.6499C86.0376 33.6499 85.5884 33.8818 85.3003 34.3457C85.0171 34.8047 84.8755 35.376 84.8755 36.0596C84.8755 36.7969 85.0195 37.3877 85.3076 37.832C85.6006 38.2715 86.0425 38.4912 86.6333 38.4912ZM95.5542 33.5254C95.0708 33.5254 94.6948 33.6768 94.4263 33.9795C94.1626 34.2822 93.9966 34.6924 93.9282 35.21H97.1729C97.1387 34.6582 96.9702 34.2407 96.6675 33.9575C96.3696 33.6694 95.9985 33.5254 95.5542 33.5254ZM95.5542 31.8042C96.2183 31.8042 96.8164 31.9287 97.3486 32.1777C97.8809 32.4268 98.3203 32.8198 98.667 33.3569C98.9795 33.8306 99.1821 34.3799 99.2749 35.0049C99.3286 35.3711 99.3506 35.8984 99.3408 36.5869H93.877C93.9062 37.3877 94.1577 37.9492 94.6313 38.2715C94.9194 38.4717 95.2661 38.5718 95.6714 38.5718C96.1011 38.5718 96.4502 38.4497 96.7188 38.2056C96.8652 38.0737 96.9946 37.8906 97.1069 37.6562H99.2383C99.1846 38.1299 98.938 38.6108 98.4985 39.0991C97.8149 39.8755 96.8579 40.2637 95.6274 40.2637C94.6118 40.2637 93.7158 39.9365 92.9395 39.2822C92.1631 38.6279 91.7749 37.5635 91.7749 36.0889C91.7749 34.707 92.124 33.6475 92.8223 32.9102C93.5254 32.1729 94.436 31.8042 95.5542 31.8042ZM109.675 31.8408C110.027 31.8408 110.374 31.9092 110.715 32.0459C111.057 32.1826 111.367 32.4219 111.646 32.7637C111.87 33.042 112.021 33.3838 112.1 33.7891C112.148 34.0576 112.173 34.4507 112.173 34.9683L112.158 40H110.02V34.917C110.02 34.6143 109.971 34.3652 109.873 34.1699C109.688 33.7988 109.346 33.6133 108.848 33.6133C108.271 33.6133 107.874 33.8525 107.654 34.3311C107.542 34.585 107.485 34.8901 107.485 35.2466V40H105.383V35.2466C105.383 34.7729 105.334 34.4287 105.237 34.2139C105.061 33.8281 104.717 33.6353 104.204 33.6353C103.608 33.6353 103.208 33.8281 103.003 34.2139C102.891 34.4336 102.834 34.7607 102.834 35.1953V40H100.718V32.0312H102.747V33.1958C103.005 32.7808 103.25 32.4854 103.479 32.3096C103.884 31.9971 104.409 31.8408 105.054 31.8408C105.664 31.8408 106.157 31.9751 106.533 32.2437C106.836 32.4927 107.065 32.8125 107.222 33.2031C107.495 32.7344 107.834 32.3901 108.24 32.1704C108.669 31.9507 109.148 31.8408 109.675 31.8408ZM114.421 41.5308L114.685 41.5454C114.89 41.5552 115.085 41.5479 115.271 41.5234C115.457 41.499 115.613 41.4429 115.74 41.355C115.862 41.272 115.974 41.0986 116.077 40.835C116.184 40.5713 116.228 40.4102 116.208 40.3516L113.279 32.0166H115.601L117.344 37.9053L118.992 32.0166H121.211L118.472 39.8682C117.944 41.3818 117.527 42.3193 117.219 42.6807C116.912 43.0469 116.296 43.23 115.374 43.23C115.188 43.23 115.039 43.2275 114.927 43.2227C114.814 43.2227 114.646 43.2153 114.421 43.2007V41.5308ZM58.8159 52.9204H61.5552L60.2075 48.6724L58.8159 52.9204ZM58.9551 46.2041H61.5039L65.3271 57H62.8809L62.1851 54.7808H58.208L57.4609 57H55.1025L58.9551 46.2041ZM70.9375 53.1182C70.8057 53.2012 70.6714 53.2695 70.5347 53.3232C70.4028 53.3721 70.2197 53.4185 69.9854 53.4624L69.5166 53.5503C69.0771 53.6284 68.7622 53.7236 68.5718 53.8359C68.2495 54.0264 68.0884 54.3218 68.0884 54.7222C68.0884 55.0786 68.186 55.3374 68.3813 55.4985C68.5815 55.6548 68.8232 55.7329 69.1064 55.7329C69.5557 55.7329 69.9683 55.6011 70.3442 55.3374C70.7251 55.0737 70.9229 54.5928 70.9375 53.8945V53.1182ZM69.6704 52.144C70.0562 52.0952 70.332 52.0342 70.498 51.9609C70.7959 51.834 70.9448 51.6362 70.9448 51.3677C70.9448 51.0405 70.8301 50.8159 70.6006 50.6938C70.376 50.5669 70.0439 50.5034 69.6045 50.5034C69.1113 50.5034 68.7622 50.6255 68.5571 50.8696C68.4106 51.0503 68.313 51.2944 68.2642 51.6021H66.25C66.2939 50.9038 66.4893 50.3301 66.8359 49.8809C67.3877 49.1777 68.335 48.8262 69.6777 48.8262C70.5518 48.8262 71.3281 48.9995 72.0068 49.3462C72.6855 49.6929 73.0249 50.3472 73.0249 51.3091V54.9712C73.0249 55.2251 73.0298 55.5327 73.0396 55.894C73.0542 56.1675 73.0957 56.353 73.1641 56.4507C73.2324 56.5483 73.335 56.6289 73.4717 56.6924V57H71.2012C71.1377 56.8389 71.0938 56.6875 71.0693 56.5459C71.0449 56.4043 71.0254 56.2432 71.0107 56.0625C70.7227 56.375 70.3906 56.6411 70.0146 56.8608C69.5654 57.1196 69.0576 57.249 68.4912 57.249C67.7686 57.249 67.1704 57.0439 66.6968 56.6338C66.228 56.2188 65.9937 55.6328 65.9937 54.876C65.9937 53.8945 66.3721 53.1841 67.1289 52.7446C67.5439 52.5054 68.1543 52.3345 68.96 52.2319L69.6704 52.144ZM79.2212 48.8262C79.2603 48.8262 79.292 48.8286 79.3164 48.8335C79.3457 48.8335 79.4067 48.8359 79.4995 48.8408V50.9795C79.3677 50.9648 79.2505 50.9551 79.1479 50.9502C79.0454 50.9453 78.9624 50.9429 78.8989 50.9429C78.0591 50.9429 77.4951 51.2163 77.207 51.7632C77.0459 52.0708 76.9653 52.5444 76.9653 53.1841V57H74.8633V49.0166H76.8555V50.4082C77.1777 49.876 77.4585 49.5122 77.6978 49.3169C78.0884 48.9897 78.5962 48.8262 79.2212 48.8262ZM85.1318 48.8115C85.625 48.8115 86.0718 48.897 86.4722 49.0679C86.8774 49.2388 87.2095 49.5 87.4683 49.8516C87.688 50.1494 87.8223 50.457 87.8711 50.7744C87.9199 51.0869 87.9443 51.5996 87.9443 52.3125V57H85.813V52.144C85.813 51.7144 85.7397 51.3677 85.5933 51.104C85.4028 50.7329 85.0415 50.5474 84.5093 50.5474C83.9575 50.5474 83.5376 50.7329 83.2495 51.104C82.9663 51.4702 82.8247 51.9951 82.8247 52.6787V57H80.7446V46.2407H82.8247V50.0566C83.1274 49.5928 83.4766 49.2705 83.8721 49.0898C84.2725 48.9043 84.6924 48.8115 85.1318 48.8115ZM91.98 49.0166V53.8286C91.98 54.2827 92.0337 54.6245 92.1411 54.854C92.3315 55.2593 92.7051 55.4619 93.2617 55.4619C93.9746 55.4619 94.4629 55.1738 94.7266 54.5977C94.8633 54.2852 94.9316 53.8726 94.9316 53.3599V49.0166H97.0483V57H95.0195V55.8721C95 55.8965 94.9512 55.9697 94.873 56.0918C94.7949 56.2139 94.7021 56.3213 94.5947 56.4141C94.2676 56.707 93.9502 56.9072 93.6426 57.0146C93.3398 57.1221 92.9834 57.1758 92.5732 57.1758C91.3916 57.1758 90.5957 56.751 90.1855 55.9014C89.9561 55.4326 89.8413 54.7417 89.8413 53.8286V49.0166H91.98ZM100.696 54.4512C100.74 54.8223 100.835 55.0859 100.981 55.2422C101.24 55.5205 101.719 55.6597 102.417 55.6597C102.827 55.6597 103.152 55.5986 103.391 55.4766C103.635 55.3545 103.757 55.1714 103.757 54.9272C103.757 54.6929 103.66 54.5146 103.464 54.3926C103.269 54.2705 102.544 54.0605 101.289 53.7627C100.386 53.5381 99.7485 53.2573 99.3774 52.9204C99.0063 52.5884 98.8208 52.1099 98.8208 51.4849C98.8208 50.7476 99.1089 50.1152 99.6851 49.5879C100.266 49.0557 101.082 48.7896 102.131 48.7896C103.127 48.7896 103.938 48.9897 104.563 49.3901C105.193 49.7856 105.554 50.4717 105.647 51.4482H103.56C103.53 51.1797 103.455 50.9673 103.333 50.811C103.103 50.5278 102.712 50.3862 102.161 50.3862C101.707 50.3862 101.382 50.457 101.187 50.5986C100.996 50.7402 100.901 50.9062 100.901 51.0967C100.901 51.3359 101.003 51.5093 101.208 51.6167C101.414 51.729 102.139 51.9219 103.384 52.1953C104.214 52.3906 104.836 52.686 105.251 53.0815C105.662 53.4819 105.867 53.9824 105.867 54.583C105.867 55.374 105.571 56.021 104.98 56.5239C104.395 57.022 103.486 57.271 102.256 57.271C101.001 57.271 100.073 57.0073 99.4727 56.48C98.877 55.9478 98.5791 55.2715 98.5791 54.4512H100.696Z" fill="#333333"/>
<path d="M58.3325 96.0791V103.125H60.4126C61.4771 103.125 62.2192 102.6 62.6392 101.55C62.8687 100.974 62.9834 100.288 62.9834 99.4922C62.9834 98.3936 62.8101 97.5513 62.4634 96.9653C62.1216 96.3745 61.438 96.0791 60.4126 96.0791H58.3325ZM60.7935 94.2041C61.4624 94.2139 62.019 94.292 62.4634 94.4385C63.2202 94.6875 63.833 95.144 64.3018 95.8081C64.6777 96.3452 64.9341 96.9263 65.0708 97.5513C65.2075 98.1763 65.2759 98.772 65.2759 99.3384C65.2759 100.774 64.9878 101.99 64.4116 102.986C63.6304 104.329 62.4243 105 60.7935 105H56.1426V94.2041H60.7935ZM71.7578 103.389C72.6514 103.389 73.3594 103.059 73.8818 102.4C74.4092 101.741 74.6729 100.803 74.6729 99.5874C74.6729 98.3765 74.4092 97.4414 73.8818 96.7822C73.3594 96.1182 72.6514 95.7861 71.7578 95.7861C70.8643 95.7861 70.1514 96.1157 69.6191 96.7749C69.0869 97.4341 68.8208 98.3716 68.8208 99.5874C68.8208 100.803 69.0869 101.741 69.6191 102.4C70.1514 103.059 70.8643 103.389 71.7578 103.389ZM76.9287 99.5874C76.9287 101.526 76.3843 103.01 75.2954 104.041C74.48 104.88 73.3008 105.3 71.7578 105.3C70.2148 105.3 69.0356 104.88 68.2202 104.041C67.1265 103.01 66.5796 101.526 66.5796 99.5874C66.5796 97.6099 67.1265 96.1255 68.2202 95.1343C69.0356 94.2944 70.2148 93.8745 71.7578 93.8745C73.3008 93.8745 74.48 94.2944 75.2954 95.1343C76.3843 96.1255 76.9287 97.6099 76.9287 99.5874ZM78.6938 94.2041H80.9131V98.6499L85.0806 94.2041H87.9956L83.5718 98.6499L88.2227 105H85.3223L81.9897 100.283L80.9131 101.389V105H78.6938V94.2041ZM89.5337 94.2041H91.7529V98.6499L95.9204 94.2041H98.8354L94.4116 98.6499L99.0625 105H96.1621L92.8296 100.283L91.7529 101.389V105H89.5337V94.2041ZM100.234 97.6758V96.2549C100.894 96.2256 101.355 96.1816 101.619 96.123C102.039 96.0303 102.38 95.8447 102.644 95.5664C102.825 95.376 102.961 95.1221 103.054 94.8047C103.108 94.6143 103.135 94.4727 103.135 94.3799H104.871V105H102.732V97.6758H100.234Z" fill="#333333"/>
<path d="M59.4341 68.0093C59.3755 67.7427 59.2217 67.5215 58.9727 67.3457C58.7236 67.167 58.3384 67 57.8169 66.8447C57.2954 66.6865 56.9102 66.5283 56.6611 66.3701C56.4121 66.209 56.2363 66.02 56.1338 65.8032C56.0342 65.5864 56.0078 65.3447 56.0547 65.0781C56.1045 64.7646 56.2378 64.4907 56.4546 64.2563C56.6714 64.019 56.9482 63.8359 57.2852 63.707C57.625 63.5781 57.9854 63.5137 58.3662 63.5137C58.7441 63.5137 59.0781 63.5957 59.3682 63.7598C59.6611 63.9238 59.8735 64.1494 60.0054 64.4365C60.1401 64.7236 60.1841 65.0459 60.1372 65.4033H59.8999C59.9731 64.9258 59.8647 64.5317 59.5747 64.2212C59.2847 63.9077 58.8833 63.751 58.3706 63.751C57.8931 63.751 57.4609 63.8594 57.0742 64.0762C56.6875 64.29 56.4399 64.5757 56.3315 64.9331C56.2671 65.147 56.2554 65.3389 56.2964 65.5088C56.355 65.7695 56.5146 65.9863 56.7754 66.1592C57.0391 66.3291 57.4023 66.48 57.8652 66.6118C58.5801 66.814 59.0781 67.0645 59.3594 67.3633C59.6406 67.6621 59.7446 68.0269 59.6714 68.4575C59.6216 68.7827 59.4854 69.0684 59.2627 69.3145C59.043 69.5576 58.7588 69.748 58.4102 69.8857C58.0615 70.0205 57.6924 70.0879 57.3027 70.0879C56.6348 70.0879 56.1162 69.915 55.7471 69.5693C55.3779 69.2236 55.2329 68.7651 55.312 68.1938H55.5493C55.4761 68.6978 55.6006 69.1006 55.9229 69.4023C56.2451 69.7012 56.7036 69.8506 57.2983 69.8506C57.7759 69.8506 58.208 69.7451 58.5947 69.5342C58.9814 69.3203 59.2393 69.0361 59.3682 68.6816C59.4561 68.4385 59.478 68.2144 59.4341 68.0093ZM62.9629 65.1572C63.2939 65.1572 63.5986 65.2378 63.877 65.3989L64.3779 64.6475L64.6592 64.6519L64.0791 65.5396C64.4541 65.897 64.6416 66.3804 64.6416 66.9897C64.6416 67.1714 64.6284 67.3516 64.6021 67.5303L64.5713 67.6973C64.4336 68.418 64.1436 68.9966 63.7012 69.4331C63.2617 69.8696 62.749 70.0879 62.1631 70.0879C61.8584 70.0879 61.5728 70.0176 61.3062 69.877L60.8052 70.6328L60.5195 70.6284L61.0996 69.7495C60.6924 69.4067 60.4873 68.9131 60.4844 68.2686C60.4785 67.8906 60.5342 67.5083 60.6514 67.1216C60.7715 66.7349 60.9443 66.3936 61.1699 66.0977C61.3984 65.8018 61.6636 65.5718 61.9653 65.4077C62.27 65.2407 62.6025 65.1572 62.9629 65.1572ZM60.7612 67.7148C60.7349 67.876 60.7202 68.0386 60.7173 68.2026C60.7114 68.4663 60.7524 68.7139 60.8403 68.9453C60.9282 69.1768 61.0542 69.3716 61.2183 69.5298L63.7539 65.623C63.5195 65.4707 63.2573 65.3945 62.9673 65.3945C62.4487 65.3945 61.9858 65.5996 61.5786 66.0098C61.1714 66.417 60.9062 66.9458 60.7832 67.5962L60.7612 67.7148ZM64.3647 67.5303C64.3911 67.375 64.4043 67.2183 64.4043 67.0601C64.4043 66.5269 64.252 66.0962 63.9473 65.7681L61.4204 69.666C61.6372 69.7891 61.8833 69.8506 62.1587 69.8506C62.6772 69.8506 63.1387 69.6484 63.543 69.2441C63.9502 68.8398 64.2168 68.3081 64.3428 67.6489L64.3647 67.5303ZM66.1621 66.3525C66.3994 65.9688 66.6792 65.6743 67.0015 65.4692C67.3237 65.2612 67.6562 65.1572 67.999 65.1572C68.3623 65.1572 68.6479 65.251 68.856 65.4385C69.064 65.626 69.1841 65.897 69.2163 66.2515C69.2339 66.4741 69.2222 66.707 69.1812 66.9502L68.6538 70H68.4165L68.9438 66.9502C68.979 66.7451 68.9937 66.543 68.9878 66.3438C68.9731 66.0332 68.8809 65.7959 68.7109 65.6318C68.5439 65.4678 68.3037 65.3872 67.9902 65.3901C67.5889 65.396 67.2021 65.5527 66.8301 65.8604C66.4609 66.165 66.2104 66.5298 66.0786 66.9546L65.5513 70H65.314L66.1313 65.2451H66.3687L66.1621 66.3525ZM70.3501 67.5742C70.4321 67.0967 70.5757 66.6689 70.7808 66.291C70.9888 65.9131 71.2393 65.6304 71.5322 65.4429C71.8252 65.2524 72.1445 65.1572 72.4902 65.1572C72.8242 65.1572 73.1143 65.2407 73.3604 65.4077C73.6094 65.5747 73.7896 65.812 73.9009 66.1196L74.4019 63.25H74.6392L73.4746 70H73.2373L73.3867 69.2397C73.1758 69.5063 72.9238 69.7144 72.6309 69.8638C72.3379 70.0132 72.0186 70.0879 71.6729 70.0879C71.3623 70.0879 71.1016 70.0117 70.8906 69.8594C70.6797 69.7041 70.5229 69.4785 70.4204 69.1826C70.3208 68.8838 70.2769 68.5557 70.2886 68.1982C70.2944 68.0312 70.3149 67.8232 70.3501 67.5742ZM70.5303 68.1323C70.5068 68.4546 70.5317 68.7505 70.605 69.02C70.6782 69.2896 70.8042 69.4961 70.9829 69.6396C71.1646 69.7803 71.3916 69.8506 71.6641 69.8506C72.0449 69.8535 72.3862 69.7627 72.688 69.5781C72.9927 69.3936 73.2417 69.1416 73.4351 68.8223L73.8306 66.5942C73.769 66.2134 73.6211 65.9189 73.3867 65.7109C73.1553 65.5 72.8564 65.3945 72.4902 65.3945C72.1182 65.3945 71.7871 65.519 71.4971 65.7681C71.207 66.0142 70.98 66.3569 70.8159 66.7964C70.6519 67.2358 70.5566 67.6812 70.5303 68.1323ZM76.7002 70.0879C76.3193 70.0879 75.9912 69.981 75.7158 69.7671C75.4404 69.5532 75.2412 69.2617 75.1182 68.8926C74.998 68.5205 74.9673 68.1309 75.0259 67.7236L75.061 67.5039C75.1313 67.0762 75.2808 66.6763 75.5093 66.3042C75.7407 65.9321 76.0146 65.6479 76.3311 65.4517C76.6475 65.2554 76.9858 65.1572 77.3462 65.1572C77.8267 65.1572 78.2031 65.3345 78.4756 65.689C78.748 66.0435 78.8638 66.4976 78.8228 67.0513L78.8096 67.1875L78.77 67.4644H75.3159L75.2676 67.7236C75.2266 67.9697 75.2251 68.2188 75.2632 68.4707C75.3276 68.8896 75.4873 69.2251 75.7422 69.4771C76 69.7261 76.3179 69.8521 76.6958 69.855C77.2437 69.8608 77.7373 69.644 78.1768 69.2046L78.335 69.3276C77.9014 69.8345 77.3564 70.0879 76.7002 70.0879ZM77.3462 65.3945C76.895 65.3945 76.4907 65.5645 76.1333 65.9043C75.7788 66.2412 75.5151 66.6821 75.3423 67.2271H78.5503L78.5635 67.1699C78.6016 66.959 78.6045 66.748 78.5723 66.5371C78.5195 66.1914 78.3818 65.9146 78.1592 65.7065C77.9395 65.4985 77.6685 65.3945 77.3462 65.3945ZM82.2461 65.4121L81.9604 65.3901C81.5679 65.3901 81.2031 65.5352 80.8662 65.8252C80.5293 66.1152 80.3037 66.4683 80.1895 66.8843L79.6489 70H79.4116L80.229 65.2451H80.4663L80.2817 66.2339C80.481 65.894 80.7241 65.6304 81.0112 65.4429C81.2983 65.2524 81.6177 65.1572 81.9692 65.1572C82.0806 65.1572 82.1919 65.1748 82.3032 65.21L82.2461 65.4121ZM83.2217 66.3525C83.459 65.9688 83.7388 65.6743 84.061 65.4692C84.3833 65.2612 84.7158 65.1572 85.0586 65.1572C85.4219 65.1572 85.7075 65.251 85.9155 65.4385C86.1235 65.626 86.2437 65.897 86.2759 66.2515C86.2935 66.4741 86.2817 66.707 86.2407 66.9502L85.7134 70H85.4761L86.0034 66.9502C86.0386 66.7451 86.0532 66.543 86.0474 66.3438C86.0327 66.0332 85.9404 65.7959 85.7705 65.6318C85.6035 65.4678 85.3633 65.3872 85.0498 65.3901C84.6484 65.396 84.2617 65.5527 83.8896 65.8604C83.5205 66.165 83.27 66.5298 83.1382 66.9546L82.6108 70H82.3735L83.5381 63.25H83.7754L83.2217 66.3525ZM89.6729 65.1572C90.0039 65.1572 90.3086 65.2378 90.5869 65.3989L91.0879 64.6475L91.3691 64.6519L90.7891 65.5396C91.1641 65.897 91.3516 66.3804 91.3516 66.9897C91.3516 67.1714 91.3384 67.3516 91.312 67.5303L91.2812 67.6973C91.1436 68.418 90.8535 68.9966 90.4111 69.4331C89.9717 69.8696 89.459 70.0879 88.873 70.0879C88.5684 70.0879 88.2827 70.0176 88.0161 69.877L87.5151 70.6328L87.2295 70.6284L87.8096 69.7495C87.4023 69.4067 87.1973 68.9131 87.1943 68.2686C87.1885 67.8906 87.2441 67.5083 87.3613 67.1216C87.4814 66.7349 87.6543 66.3936 87.8799 66.0977C88.1084 65.8018 88.3735 65.5718 88.6753 65.4077C88.98 65.2407 89.3125 65.1572 89.6729 65.1572ZM87.4712 67.7148C87.4448 67.876 87.4302 68.0386 87.4272 68.2026C87.4214 68.4663 87.4624 68.7139 87.5503 68.9453C87.6382 69.1768 87.7642 69.3716 87.9282 69.5298L90.4639 65.623C90.2295 65.4707 89.9673 65.3945 89.6772 65.3945C89.1587 65.3945 88.6958 65.5996 88.2886 66.0098C87.8813 66.417 87.6162 66.9458 87.4932 67.5962L87.4712 67.7148ZM91.0747 67.5303C91.1011 67.375 91.1143 67.2183 91.1143 67.0601C91.1143 66.5269 90.9619 66.0962 90.6572 65.7681L88.1304 69.666C88.3472 69.7891 88.5933 69.8506 88.8687 69.8506C89.3872 69.8506 89.8486 69.6484 90.2529 69.2441C90.6602 68.8398 90.9268 68.3081 91.0527 67.6489L91.0747 67.5303ZM93.1401 65.2451L92.2305 70.5186C92.1543 70.9609 91.9873 71.3052 91.7295 71.5513C91.4717 71.7974 91.1567 71.9204 90.7847 71.9204C90.6733 71.9204 90.5327 71.8911 90.3628 71.8325L90.4067 71.604C90.5444 71.6567 90.6719 71.6831 90.7891 71.6831C91.0879 71.689 91.3472 71.5864 91.5669 71.3755C91.7866 71.1646 91.9272 70.8789 91.9888 70.5186L92.9028 65.2451H93.1401ZM93.0654 63.751C93.0742 63.6924 93.105 63.6382 93.1577 63.5884C93.2134 63.5386 93.272 63.5137 93.3335 63.5137C93.4009 63.5137 93.4551 63.54 93.4961 63.5928C93.54 63.6455 93.5562 63.7041 93.5444 63.7686C93.5356 63.8271 93.5034 63.8813 93.4478 63.9312C93.3921 63.978 93.3335 64.0015 93.272 64.0015C93.2046 63.9985 93.1504 63.9722 93.1094 63.9224C93.0684 63.8726 93.0537 63.8154 93.0654 63.751ZM97.728 66.6162H98.1191C98.626 66.6162 99.0625 66.4917 99.4287 66.2427C99.7949 65.9907 100.016 65.6538 100.092 65.2319C100.168 64.7983 100.088 64.4438 99.8506 64.1685C99.6133 63.8901 99.272 63.751 98.8267 63.751C98.3696 63.751 97.9697 63.8916 97.627 64.1729C97.2871 64.4512 97.0688 64.8203 96.9722 65.2803L96.7349 65.2759C96.8257 64.7544 97.0674 64.3311 97.46 64.0059C97.8525 63.6777 98.3081 63.5137 98.8267 63.5137C99.3364 63.5137 99.7334 63.6763 100.018 64.0015C100.302 64.3237 100.406 64.7397 100.33 65.2495C100.283 65.5806 100.138 65.8765 99.8945 66.1372C99.6543 66.3979 99.335 66.5957 98.9365 66.7305C99.3145 66.8359 99.5986 67.0293 99.7891 67.3105C99.9824 67.5889 100.05 67.9199 99.9912 68.3037C99.9121 68.8281 99.6763 69.2573 99.2837 69.5913C98.8911 69.9224 98.4224 70.0879 97.8774 70.0879C97.5171 70.0879 97.1948 70.0088 96.9106 69.8506C96.6294 69.6924 96.4199 69.4697 96.2822 69.1826C96.1445 68.8926 96.0962 68.5718 96.1372 68.2202H96.3745C96.313 68.6831 96.4258 69.0713 96.7129 69.3848C97 69.6953 97.3867 69.8506 97.873 69.8506C98.3623 69.8506 98.7769 69.7114 99.1167 69.4331C99.4595 69.1548 99.6704 68.7842 99.7495 68.3213C99.8257 67.8584 99.7188 67.4995 99.4287 67.2446C99.1416 66.9897 98.7007 66.8623 98.106 66.8623H97.6973L97.728 66.6162ZM102.61 70.0879C102.276 70.0879 101.995 70.0044 101.767 69.8374C101.538 69.6704 101.37 69.4243 101.261 69.0991C101.156 68.771 101.112 68.3975 101.129 67.9785L101.165 67.5566L101.375 66.3086C101.525 65.4385 101.799 64.7544 102.197 64.2563C102.596 63.7583 103.095 63.5093 103.696 63.5093C104.036 63.5093 104.32 63.5942 104.548 63.7642C104.777 63.9312 104.944 64.1802 105.049 64.5112C105.155 64.8423 105.197 65.2129 105.177 65.623L105.133 66.0977L104.917 67.3457C104.765 68.21 104.49 68.8838 104.091 69.3672C103.693 69.8477 103.199 70.0879 102.61 70.0879ZM104.939 65.1396C104.901 64.6768 104.777 64.3296 104.566 64.0981C104.355 63.8638 104.066 63.7466 103.7 63.7466C103.173 63.7466 102.728 63.9722 102.364 64.4233C102.004 64.8716 101.752 65.5088 101.608 66.335L101.406 67.5215L101.371 67.895C101.342 68.2583 101.367 68.5938 101.446 68.9014C101.525 69.209 101.663 69.4448 101.859 69.6089C102.055 69.77 102.304 69.8506 102.606 69.8506C103.13 69.8506 103.571 69.6294 103.929 69.187C104.289 68.7417 104.54 68.1235 104.68 67.3325L104.865 66.2866C104.941 65.856 104.966 65.4736 104.939 65.1396ZM105.388 71.1206L105.238 70.9712C105.552 70.6196 105.741 70.2593 105.805 69.8901L105.906 69.3013H106.144L106.051 69.855C105.966 70.3589 105.745 70.7808 105.388 71.1206ZM113.887 65.2275C113.828 65.5762 113.674 65.8823 113.425 66.146C113.176 66.4067 112.858 66.6016 112.472 66.7305C112.841 66.8535 113.122 67.0601 113.315 67.3501C113.512 67.6372 113.582 67.9653 113.526 68.3345C113.444 68.8589 113.192 69.2822 112.771 69.6045C112.349 69.9268 111.848 70.0879 111.268 70.0879C110.896 70.0879 110.567 70.0146 110.283 69.8682C110.002 69.7188 109.797 69.5122 109.668 69.2485C109.539 68.9819 109.504 68.6772 109.562 68.3345C109.627 67.9536 109.797 67.624 110.072 67.3457C110.348 67.0645 110.708 66.8564 111.153 66.7217C110.828 66.5957 110.586 66.3979 110.428 66.1284C110.273 65.8589 110.222 65.5586 110.274 65.2275C110.354 64.7266 110.586 64.3164 110.973 63.9971C111.36 63.6748 111.817 63.5137 112.344 63.5137C112.675 63.5137 112.97 63.5884 113.228 63.7378C113.488 63.8843 113.676 64.0894 113.79 64.353C113.907 64.6138 113.939 64.9053 113.887 65.2275ZM113.28 68.3564C113.333 68.0752 113.304 67.8203 113.192 67.5918C113.084 67.3633 112.905 67.1816 112.656 67.0469C112.407 66.9121 112.129 66.8447 111.821 66.8447C111.329 66.8447 110.888 66.9854 110.499 67.2666C110.112 67.5479 109.877 67.9111 109.795 68.3564C109.716 68.7988 109.816 69.1592 110.094 69.4375C110.375 69.7129 110.765 69.8506 111.263 69.8506C111.767 69.8506 112.208 69.7129 112.586 69.4375C112.967 69.1592 113.198 68.7988 113.28 68.3564ZM113.654 65.2056C113.727 64.7983 113.633 64.4541 113.373 64.1729C113.112 63.8916 112.771 63.751 112.349 63.751C111.895 63.751 111.495 63.8887 111.149 64.1641C110.806 64.4365 110.595 64.7837 110.516 65.2056C110.44 65.6099 110.528 65.9453 110.78 66.2119C111.035 66.4756 111.38 66.6074 111.817 66.6074C112.262 66.6074 112.659 66.4771 113.008 66.2163C113.359 65.9556 113.575 65.6187 113.654 65.2056ZM118.075 70H114.361L114.388 69.7627L117.257 66.8667C117.832 66.2749 118.16 65.73 118.242 65.2319C118.318 64.7983 118.242 64.4438 118.013 64.1685C117.785 63.8901 117.442 63.751 116.985 63.751C116.54 63.751 116.147 63.9092 115.807 64.2256C115.467 64.5391 115.25 64.9331 115.157 65.4077H114.919C115.013 64.8628 115.253 64.4116 115.64 64.0542C116.03 63.6938 116.477 63.5137 116.98 63.5137C117.502 63.5137 117.902 63.6719 118.18 63.9883C118.461 64.3018 118.564 64.7163 118.488 65.2319C118.412 65.7563 118.072 66.3364 117.468 66.9722L114.713 69.7627H118.105L118.075 70ZM123.15 63.5137L123.12 63.751C122.293 63.751 121.596 64.019 121.028 64.5552C120.459 65.0884 120.058 65.8296 119.824 66.7788C120.011 66.5269 120.237 66.3174 120.5 66.1504C120.875 65.9131 121.281 65.7944 121.718 65.7944C122.072 65.7944 122.373 65.8867 122.619 66.0713C122.865 66.2559 123.038 66.5078 123.137 66.8271C123.24 67.1465 123.263 67.501 123.208 67.8906C123.146 68.2949 123.011 68.6699 122.803 69.0156C122.598 69.3613 122.349 69.6265 122.056 69.811C121.763 69.9956 121.454 70.0879 121.129 70.0879C120.742 70.0879 120.41 69.9897 120.131 69.7935C119.856 69.5942 119.657 69.3188 119.534 68.9673C119.411 68.6157 119.378 68.2393 119.437 67.8379L119.538 67.1831C119.714 66.0522 120.112 65.1587 120.733 64.5024C121.354 63.8433 122.16 63.5137 123.15 63.5137ZM121.687 66.0317C121.277 66.0317 120.878 66.1548 120.492 66.4009C120.108 66.644 119.866 66.9341 119.767 67.271L119.674 67.8335C119.619 68.1997 119.642 68.541 119.745 68.8574C119.847 69.1738 120.017 69.4199 120.254 69.5957C120.492 69.7715 120.782 69.8579 121.125 69.855C121.482 69.8521 121.81 69.7261 122.109 69.4771C122.411 69.228 122.645 68.8882 122.812 68.4575C122.979 68.0269 123.036 67.6094 122.983 67.2051C122.934 66.8359 122.794 66.5488 122.566 66.3438C122.337 66.1357 122.044 66.0317 121.687 66.0317ZM125.726 70.0879C125.392 70.0879 125.11 70.0044 124.882 69.8374C124.653 69.6704 124.485 69.4243 124.376 69.0991C124.271 68.771 124.227 68.3975 124.245 67.9785L124.28 67.5566L124.491 66.3086C124.64 65.4385 124.914 64.7544 125.312 64.2563C125.711 63.7583 126.21 63.5093 126.811 63.5093C127.151 63.5093 127.435 63.5942 127.664 63.7642C127.892 63.9312 128.059 64.1802 128.165 64.5112C128.27 64.8423 128.312 65.2129 128.292 65.623L128.248 66.0977L128.033 67.3457C127.88 68.21 127.605 68.8838 127.207 69.3672C126.808 69.8477 126.314 70.0879 125.726 70.0879ZM128.055 65.1396C128.017 64.6768 127.892 64.3296 127.681 64.0981C127.47 63.8638 127.182 63.7466 126.815 63.7466C126.288 63.7466 125.843 63.9722 125.479 64.4233C125.119 64.8716 124.867 65.5088 124.724 66.335L124.521 67.5215L124.486 67.895C124.457 68.2583 124.482 68.5938 124.561 68.9014C124.64 69.209 124.778 69.4448 124.974 69.6089C125.17 69.77 125.419 69.8506 125.721 69.8506C126.246 69.8506 126.687 69.6294 127.044 69.187C127.404 68.7417 127.655 68.1235 127.795 67.3325L127.98 66.2866C128.056 65.856 128.081 65.4736 128.055 65.1396ZM132.897 69.376L132.955 69.7495L133.144 69.3584L136.123 63.606H136.387L133.078 70H132.792L131.46 63.5972H131.711L132.897 69.376ZM136.554 70H136.316L137.134 65.2451H137.371L136.554 70ZM137.274 63.751C137.283 63.6924 137.314 63.6382 137.367 63.5884C137.422 63.5386 137.481 63.5137 137.542 63.5137C137.61 63.5137 137.664 63.54 137.705 63.5928C137.749 63.6455 137.765 63.7041 137.753 63.7686C137.745 63.8271 137.712 63.8813 137.657 63.9312C137.601 63.978 137.542 64.0015 137.481 64.0015C137.414 63.9985 137.359 63.9722 137.318 63.9224C137.277 63.8726 137.263 63.8154 137.274 63.751ZM139.907 70.0879C139.579 70.0879 139.287 70.0161 139.032 69.8726C138.78 69.729 138.593 69.521 138.47 69.2485L138.333 70H138.096L139.261 63.25H139.498L138.988 66.1108C139.208 65.8032 139.464 65.5674 139.757 65.4033C140.053 65.2393 140.371 65.1572 140.711 65.1572C141.019 65.1572 141.281 65.2334 141.498 65.3857C141.714 65.5381 141.873 65.7622 141.972 66.0581C142.075 66.3511 142.12 66.6763 142.108 67.0337C142.1 67.2212 142.082 67.4014 142.056 67.5742L141.999 67.8643C141.846 68.5527 141.585 69.0962 141.216 69.4946C140.847 69.8901 140.411 70.0879 139.907 70.0879ZM141.81 67.5742L141.862 67.104C141.886 66.7847 141.858 66.4888 141.779 66.2163C141.703 65.9438 141.572 65.7388 141.388 65.6011C141.206 65.4634 140.982 65.3945 140.715 65.3945C140.326 65.3945 139.958 65.5117 139.612 65.7461C139.27 65.9805 139.04 66.2705 138.922 66.6162L138.531 68.7959C138.602 69.1357 138.758 69.3965 139.001 69.5781C139.248 69.7598 139.549 69.8506 139.907 69.8506C140.378 69.8506 140.778 69.6572 141.106 69.2705C141.435 68.8809 141.663 68.3462 141.792 67.6665L141.81 67.5742ZM144.341 69.6309L144.385 69.5386L146.727 65.2495H146.995L143.989 70.7998C143.772 71.21 143.553 71.4971 143.33 71.6611C143.107 71.8281 142.86 71.9146 142.587 71.9204C142.476 71.9204 142.359 71.9043 142.236 71.8721L142.262 71.6479C142.412 71.6743 142.511 71.6875 142.561 71.6875C142.951 71.6875 143.288 71.4707 143.572 71.0371L143.748 70.7471L144.174 69.9517L143.146 65.2407H143.396L144.341 69.6309ZM153.402 63.6016H153.64L152.884 67.9829C152.772 68.6274 152.522 69.1401 152.132 69.521C151.746 69.8989 151.284 70.0879 150.748 70.0879C150.191 70.0879 149.781 69.918 149.518 69.5781C149.254 69.2354 149.165 68.7886 149.25 68.2378H149.487C149.449 68.4722 149.446 68.6875 149.478 68.8838C149.528 69.1973 149.661 69.4375 149.878 69.6045C150.098 69.7686 150.386 69.8506 150.744 69.8506C151.221 69.8506 151.633 69.6777 151.979 69.332C152.324 68.9863 152.545 68.5366 152.642 67.9829L153.402 63.6016Z" fill="#707070"/>
<path d="M47.5 108C45.8033 108 44 108.526 44 109.5C44 110.474 45.8033 111 47.5 111C49.1967 111 51 110.474 51 109.5C51 108.526 49.1967 108 47.5 108Z" fill="#333333"/>
<path d="M47.5 98C45.0187 98 43 100.088 43 102.655C43 104.248 43.7328 105.961 45.1782 107.747C46.2424 109.062 47.2911 109.906 47.3353 109.942C47.3837 109.981 47.4419 110 47.5 110C47.5581 110 47.6162 109.981 47.6647 109.942C47.7088 109.906 48.7577 109.062 49.8218 107.747C51.2672 105.961 52 104.248 52 102.655C52 100.088 49.9813 98 47.5 98ZM49.1875 102.655C49.1875 103.619 48.432 104.4 47.5 104.4C46.5681 104.4 45.8126 103.619 45.8126 102.655C45.8126 101.691 46.5681 100.909 47.5 100.909C48.432 100.909 49.1875 101.691 49.1875 102.655Z" fill="#4980A8"/>
</svg>
