<svg width="80" height="82" viewBox="0 0 80 82" fill="none" xmlns="http://www.w3.org/2000/svg">
<circle cx="40" cy="42" r="40" fill="#222222"/>
<path d="M21.1593 65.6256C14.6054 65.6256 7.64014 67.7941 7.64014 71.8126C7.64014 75.8311 14.6056 77.9997 21.1593 77.9997C27.7129 77.9997 34.6784 75.8311 34.6784 71.8126C34.6784 67.7941 27.7129 65.6256 21.1593 65.6256Z" fill="#FAFAFA"/>
<path d="M21.1596 23.446C10.6144 23.446 2.03516 32.0253 2.03516 42.5705C2.03516 49.1178 5.14967 56.1573 11.2923 63.4936C15.8148 68.8949 20.2719 72.3659 20.4596 72.5111C20.6656 72.6706 20.9127 72.7503 21.1596 72.7503C21.4066 72.7503 21.6535 72.6706 21.8596 72.5111C22.0472 72.3659 26.5046 68.8949 31.0269 63.4936C37.1696 56.1573 40.2841 49.1176 40.2841 42.5705C40.2841 32.0253 31.7049 23.446 21.1596 23.446ZM28.3312 42.5705C28.3312 46.5312 25.1204 49.7419 21.1596 49.7419C17.199 49.7419 13.9882 46.5312 13.9882 42.5705C13.9882 38.6099 17.199 35.3989 21.1596 35.3989C25.1204 35.3989 28.3312 38.6099 28.3312 42.5705Z" fill="#4980A8"/>
<path d="M72.1579 33.6379C70.2277 32.8514 67.6857 32.4181 65.0006 32.4181C62.3157 32.4181 59.7737 32.8514 57.8433 33.6379C55.5876 34.5572 54.3452 35.9068 54.3452 37.438C54.3452 38.9692 55.5874 40.319 57.8433 41.238C59.7735 42.0246 62.3154 42.4579 65.0006 42.4579C67.6857 42.4579 70.2275 42.0246 72.1579 41.238C74.4135 40.319 75.6557 38.9692 75.6557 37.438C75.6557 35.9068 74.4135 34.5573 72.1579 33.6379Z" fill="#FAFAFA"/>
<path d="M21.1593 75.1429C15.4302 75.1429 9.38691 73.4859 7.95656 70.3842C7.75074 70.8305 7.64014 71.3069 7.64014 71.8127C7.64014 75.8314 14.6056 77.9998 21.1593 77.9998C27.7129 77.9998 34.6784 75.8312 34.6784 71.8127C34.6784 71.3071 34.5678 70.8307 34.362 70.3842C32.9318 73.4857 26.8885 75.1429 21.1593 75.1429Z" fill="#C8C8C8"/>
<path d="M72.1577 38.3811C70.2275 39.1676 67.6857 39.6009 65.0004 39.6009C62.3154 39.6009 59.7735 39.1676 57.8432 38.3811C56.3217 37.7612 55.2635 36.9448 54.7345 36.0095C54.4791 36.4609 54.3452 36.9394 54.3452 37.438C54.3452 38.9693 55.5874 40.319 57.8433 41.2381C59.7735 42.0247 62.3154 42.4579 65.0006 42.4579C67.6857 42.4579 70.2275 42.0247 72.1579 41.2381C74.4135 40.319 75.6557 38.9693 75.6557 37.438C75.6557 36.9397 75.5218 36.4609 75.2664 36.0095C74.7373 36.9448 73.679 37.7612 72.1577 38.3811Z" fill="#C8C8C8"/>
<path d="M65.0013 0C56.7505 0 50.0381 6.71257 50.0381 14.9632C50.0381 20.0591 52.4527 25.5266 57.2147 31.2142C60.7087 35.3872 64.1564 38.0719 64.3014 38.1842C64.5075 38.3437 64.7545 38.4234 65.0014 38.4234C65.2484 38.4234 65.4952 38.3437 65.7015 38.1842C65.8465 38.0719 69.2943 35.3872 72.7882 31.2142C77.5501 25.5267 79.9646 20.0593 79.9646 14.9632C79.9643 6.71257 73.2519 0 65.0013 0ZM70.5132 14.9632C70.5132 18.0073 68.0454 20.4752 65.0013 20.4752C61.9572 20.4752 59.4893 18.0073 59.4893 14.9632C59.4893 11.9191 61.9572 9.45141 65.0013 9.45141C68.0454 9.45141 70.5132 11.9191 70.5132 14.9632Z" fill="#4980A8"/>
<path d="M21.1597 23.446C20.4313 23.446 19.7129 23.4884 19.0055 23.5681C28.5403 24.6418 35.9757 32.7535 35.9757 42.5705C35.9757 49.1178 32.8612 56.1573 26.7185 63.4936C23.7018 67.0965 20.7162 69.8384 19.0054 71.3094C19.8594 72.0437 20.3972 72.4626 20.4596 72.5109C20.6656 72.6704 20.9127 72.7501 21.1597 72.7501C21.4066 72.7501 21.6536 72.6704 21.8597 72.5109C22.0472 72.3657 26.5046 68.8947 31.027 63.4934C37.1696 56.1571 40.2841 49.1175 40.2841 42.5704C40.2841 32.0253 31.7049 23.446 21.1597 23.446Z" fill="#243F52"/>
<path d="M65.001 0C64.2696 0 63.5504 0.053625 62.8467 0.155695C70.0801 1.20321 75.6557 7.44397 75.6557 14.9632C75.6557 20.0591 73.2411 25.5266 68.4793 31.2142C66.3318 33.779 64.2033 35.7801 62.8467 36.9688C63.6972 37.7141 64.245 38.1409 64.301 38.184C64.5071 38.3436 64.754 38.4232 65.001 38.4232C65.2479 38.4232 65.4947 38.3436 65.701 38.184C65.846 38.0718 69.2939 35.387 72.7877 31.214C77.5497 25.5266 79.9642 20.0591 79.9642 14.9631C79.964 6.71257 73.2516 0 65.001 0Z" fill="#243F52"/>
<path d="M38.9015 72.9578C38.2723 72.9578 37.7607 72.4493 37.7578 71.8192C37.7549 71.1874 38.2647 70.673 38.8964 70.6702L40.4071 70.6634H40.4124C41.0416 70.6634 41.5533 71.1719 41.5561 71.802C41.559 72.4338 41.0492 72.9482 40.4174 72.951L38.9068 72.9578H38.9015ZM44.9442 72.9304C44.315 72.9304 43.8034 72.4219 43.8005 71.7918C43.7976 71.16 44.3074 70.6456 44.9392 70.6428L46.4498 70.636H46.4551C47.0843 70.636 47.5959 71.1445 47.5988 71.7746C47.6017 72.4063 47.0919 72.9208 46.4602 72.9236L44.9495 72.9304H44.9442ZM50.9871 72.9028C50.3579 72.9028 49.8463 72.3943 49.8434 71.7642C49.8405 71.1326 50.3503 70.618 50.982 70.6152L52.4925 70.6084H52.4978C53.127 70.6084 53.6386 71.1169 53.6415 71.747C53.6442 72.3788 53.1346 72.8932 52.5029 72.896L50.9924 72.9028H50.9871ZM57.0299 72.8754C56.4007 72.8754 55.8892 72.3669 55.8863 71.7368C55.8834 71.1052 56.3931 70.5906 57.0249 70.5878L58.5355 70.581H58.5409C59.17 70.581 59.6816 71.0895 59.6845 71.7196C59.6873 72.3512 59.1777 72.8658 58.5459 72.8686L57.0353 72.8754H57.0299ZM63.0726 72.8481C62.4435 72.8481 61.9319 72.3396 61.929 71.7095C61.9261 71.0778 62.4358 70.5633 63.0676 70.5605L64.5782 70.5537H64.5836C65.2128 70.5537 65.7243 71.0622 65.7272 71.6923C65.7301 72.3241 65.2204 72.8385 64.5886 72.8413L63.078 72.8481H63.0726ZM69.1155 72.8207C68.4865 72.8207 67.9749 72.3124 67.9719 71.6824C67.9687 71.0508 68.4782 70.5362 69.1102 70.5331L69.3242 70.5321C69.7069 70.5304 70.0903 70.5033 70.465 70.4515C71.0896 70.3643 71.6679 70.8022 71.7546 71.428C71.8409 72.0537 71.4039 72.6311 70.778 72.7176C70.3035 72.7831 69.8178 72.8175 69.3347 72.8197L69.1211 72.8207H69.1155ZM74.8057 71.0976C74.4433 71.0976 74.0868 70.9257 73.8647 70.6053C73.505 70.0861 73.6339 69.3736 74.153 69.0135C74.5175 68.7611 74.8646 68.4779 75.1856 68.1721C75.6427 67.7362 76.3668 67.7538 76.8028 68.2111C77.2385 68.6683 77.2211 69.3924 76.7638 69.8282C76.3575 70.2155 75.9176 70.5738 75.4567 70.8934C75.2575 71.0314 75.0306 71.0976 74.8057 71.0976ZM78.4229 66.381C78.2954 66.381 78.1656 66.3595 78.0387 66.3143C77.4437 66.1021 77.1335 65.4477 77.3454 64.8528C77.4941 64.4362 77.6108 64.0043 77.6928 63.5689C77.8098 62.9481 78.4085 62.5398 79.0284 62.6566C79.649 62.7735 80.0576 63.3716 79.9406 63.9922C79.8365 64.5445 79.6885 65.0926 79.4999 65.6211C79.3333 66.0891 78.8928 66.381 78.4229 66.381ZM78.608 60.4396C78.1109 60.4396 77.6532 60.1128 77.5093 59.611C77.3873 59.186 77.2304 58.7667 77.043 58.3653C76.776 57.7928 77.0235 57.1121 77.5959 56.845C78.169 56.5781 78.849 56.8255 79.1161 57.3979C79.3541 57.9076 79.553 58.4398 79.7081 58.9798C79.8822 59.5869 79.5315 60.2205 78.9243 60.3948C78.8187 60.4251 78.7126 60.4396 78.608 60.4396ZM75.2907 55.5053C75.0424 55.5053 74.7927 55.425 74.5827 55.2593C74.2349 54.9845 73.8627 54.7352 73.4773 54.518C72.9268 54.2081 72.732 53.5104 73.042 52.9601C73.352 52.4097 74.0499 52.2147 74.5999 52.5249C75.0883 52.8 75.5595 53.1158 76.0002 53.4636C76.4959 53.855 76.5806 54.5744 76.1891 55.0701C75.9635 55.3562 75.6288 55.5053 75.2907 55.5053ZM69.7229 53.4322C69.7058 53.4322 69.6886 53.4319 69.6714 53.431C69.5436 53.4254 69.4149 53.4225 69.2857 53.4225H68.2115C67.5797 53.4225 67.0677 52.9106 67.0677 52.2787C67.0677 51.6471 67.5796 51.1349 68.2115 51.1349H69.2857C69.447 51.1349 69.6108 51.1384 69.7726 51.1457C70.4036 51.1736 70.8926 51.7079 70.8644 52.3389C70.8376 52.953 70.3312 53.4322 69.7229 53.4322ZM63.6794 53.4226H62.1688C61.537 53.4226 61.025 52.9108 61.025 52.2788C61.025 51.6472 61.537 51.135 62.1688 51.135H63.6794C64.3112 51.135 64.8232 51.6472 64.8232 52.2788C64.8232 52.9106 64.3112 53.4226 63.6794 53.4226ZM57.6365 53.4226H56.1259C55.4941 53.4226 54.9821 52.9108 54.9821 52.2788C54.9821 51.6472 55.4941 51.135 56.1259 51.135H57.6365C58.2683 51.135 58.7803 51.6472 58.7803 52.2788C58.7803 52.9106 58.2683 53.4226 57.6365 53.4226ZM51.5935 53.4226H50.0829C49.4511 53.4226 48.9391 52.9108 48.9391 52.2788C48.9391 51.6472 49.4511 51.135 50.0829 51.135H51.5935C52.2253 51.135 52.7373 51.6472 52.7373 52.2788C52.7373 52.9106 52.2255 53.4226 51.5935 53.4226ZM45.7665 52.2849C45.558 52.2849 45.3468 52.228 45.1575 52.1085C44.6671 51.7993 44.2064 51.4381 43.7877 51.0357C43.3325 50.5979 43.3184 49.8738 43.7564 49.4186C44.1939 48.9637 44.9181 48.9492 45.3735 49.3872C45.6805 49.6823 46.0184 49.9472 46.3779 50.1738C46.9123 50.5107 47.0723 51.2172 46.7351 51.7514C46.5174 52.096 46.146 52.2849 45.7665 52.2849ZM42.4422 47.4395C41.9057 47.4395 41.4272 47.0605 41.3207 46.5145C41.2159 45.9764 41.1627 45.4237 41.1627 44.8713L41.1632 44.7811C41.1705 44.154 41.6811 43.6505 42.3067 43.6505C42.3112 43.6505 42.3158 43.6505 42.3202 43.6507C42.952 43.658 43.4581 44.176 43.4506 44.8076L43.4503 44.8711C43.4503 45.277 43.4893 45.6827 43.5661 46.0768C43.6869 46.6968 43.2823 47.2973 42.6622 47.4182C42.5883 47.4326 42.5146 47.4395 42.4422 47.4395ZM43.6922 41.699C43.461 41.699 43.2279 41.6292 43.0259 41.4842C42.5128 41.1157 42.3956 40.4011 42.764 39.888C43.1025 39.4166 43.4904 38.9783 43.9168 38.5851C44.3814 38.1569 45.1048 38.1863 45.533 38.6503C45.9614 39.1147 45.9321 39.8383 45.4678 40.2665C45.155 40.5551 44.8705 40.8767 44.6221 41.2225C44.3986 41.5334 44.0481 41.699 43.6922 41.699ZM48.7275 38.6723C48.1629 38.6723 47.6717 38.2542 47.5951 37.6791C47.5118 37.053 47.9519 36.4777 48.578 36.3944C48.9519 36.3447 49.334 36.3195 49.7142 36.3195H50.2365C50.8682 36.3195 51.3803 36.8315 51.3803 37.4633C51.3803 38.095 50.8682 38.6071 50.2365 38.6071H49.7142C49.4345 38.6071 49.1537 38.6255 48.8797 38.6619C48.8285 38.6691 48.7778 38.6723 48.7275 38.6723Z" fill="white"/>
</svg>
