<svg width="178" height="143" viewBox="0 0 178 143" fill="none" xmlns="http://www.w3.org/2000/svg">
<path d="M50.5 87C48.8033 87 47 87.5257 47 88.5C47 89.4742 48.8033 90 50.5 90C52.1967 90 54 89.4742 54 88.5C54 87.5257 52.1967 87 50.5 87Z" fill="#333333"/>
<path d="M50.5 77C48.0187 77 46 79.0881 46 81.6546C46 83.2482 46.7328 84.9615 48.1782 86.747C49.2424 88.0617 50.2911 88.9065 50.3353 88.9418C50.3837 88.9806 50.4419 89 50.5 89C50.5581 89 50.6162 88.9806 50.6647 88.9418C50.7088 88.9065 51.7577 88.0617 52.8218 86.747C54.2672 84.9615 55 83.2481 55 81.6546C55 79.0881 52.9813 77 50.5 77ZM52.1875 81.6546C52.1875 82.6186 51.432 83.4001 50.5 83.4001C49.5681 83.4001 48.8126 82.6186 48.8126 81.6546C48.8126 80.6907 49.5681 79.9092 50.5 79.9092C51.432 79.9092 52.1875 80.6907 52.1875 81.6546Z" fill="#4980A8"/>
<path d="M18.2959 17.3477H14.6489V21H13.9883V13.1797H18.833V13.7437H14.6489V16.7837H18.2959V17.3477ZM22.5713 15.7363C22.4352 15.7113 22.2902 15.6987 22.1362 15.6987C21.7352 15.6987 21.395 15.8115 21.1157 16.0371C20.84 16.2591 20.6431 16.5832 20.5249 17.0093V21H19.8857V15.1885H20.5142L20.5249 16.1123C20.8651 15.4248 21.4111 15.0811 22.1631 15.0811C22.3421 15.0811 22.4836 15.1043 22.5874 15.1509L22.5713 15.7363ZM23.1299 18.0083C23.1299 17.4497 23.2373 16.9466 23.4521 16.499C23.6706 16.0514 23.9767 15.7041 24.3706 15.457C24.7681 15.2064 25.2174 15.0811 25.7188 15.0811C26.4922 15.0811 27.1188 15.3532 27.5986 15.8975C28.0785 16.4382 28.3184 17.1561 28.3184 18.0513V18.1855C28.3184 18.7477 28.2091 19.2544 27.9907 19.7056C27.7759 20.1532 27.4715 20.4987 27.0776 20.7422C26.6838 20.9857 26.2344 21.1074 25.7295 21.1074C24.9596 21.1074 24.333 20.8371 23.8496 20.2964C23.3698 19.7521 23.1299 19.0324 23.1299 18.1372V18.0083ZM23.7744 18.1855C23.7744 18.8802 23.9535 19.4513 24.3115 19.8989C24.6732 20.3429 25.1458 20.5649 25.7295 20.5649C26.3096 20.5649 26.7786 20.3429 27.1367 19.8989C27.4984 19.4513 27.6792 18.8623 27.6792 18.1318V18.0083C27.6792 17.5643 27.5968 17.1579 27.4321 16.7891C27.2674 16.4202 27.0365 16.1356 26.7393 15.9351C26.4421 15.731 26.1019 15.6289 25.7188 15.6289C25.1458 15.6289 24.6785 15.8545 24.3169 16.3057C23.9552 16.7533 23.7744 17.3405 23.7744 18.0674V18.1855ZM30.2358 15.1885L30.2573 16.1338C30.4722 15.7829 30.7407 15.5197 31.063 15.3442C31.3853 15.1688 31.7433 15.0811 32.1372 15.0811C33.0539 15.0811 33.6357 15.457 33.8828 16.209C34.0905 15.8473 34.368 15.5698 34.7153 15.3765C35.0627 15.1795 35.4458 15.0811 35.8647 15.0811C37.1108 15.0811 37.7464 15.7614 37.7715 17.1221V21H37.127V17.1704C37.1234 16.6512 37.0106 16.2663 36.7886 16.0156C36.5701 15.765 36.2121 15.6396 35.7144 15.6396C35.2524 15.6468 34.8621 15.7972 34.5435 16.0908C34.2248 16.3809 34.0475 16.7354 34.0117 17.1543V21H33.3672V17.1221C33.3636 16.6243 33.2454 16.2537 33.0127 16.0103C32.7835 15.7632 32.429 15.6396 31.9492 15.6396C31.5446 15.6396 31.1973 15.756 30.9072 15.9888C30.6172 16.2179 30.4023 16.5599 30.2627 17.0146V21H29.6182V15.1885H30.2358Z" fill="#333333"/>
<path d="M33.2949 78.7437H30.6147V86H29.9541V78.7437H27.2793V78.1797H33.2949V78.7437ZM33.5205 83.0083C33.5205 82.4497 33.6279 81.9466 33.8428 81.499C34.0612 81.0514 34.3674 80.7041 34.7612 80.457C35.1587 80.2064 35.6081 80.0811 36.1094 80.0811C36.8828 80.0811 37.5094 80.3532 37.9893 80.8975C38.4691 81.4382 38.709 82.1561 38.709 83.0513V83.1855C38.709 83.7477 38.5998 84.2544 38.3813 84.7056C38.1665 85.1532 37.8621 85.4987 37.4683 85.7422C37.0744 85.9857 36.625 86.1074 36.1201 86.1074C35.3503 86.1074 34.7236 85.8371 34.2402 85.2964C33.7604 84.7521 33.5205 84.0324 33.5205 83.1372V83.0083ZM34.165 83.1855C34.165 83.8802 34.3441 84.4513 34.7021 84.8989C35.0638 85.3429 35.5365 85.5649 36.1201 85.5649C36.7002 85.5649 37.1693 85.3429 37.5273 84.8989C37.889 84.4513 38.0698 83.8623 38.0698 83.1318V83.0083C38.0698 82.5643 37.9875 82.1579 37.8228 81.7891C37.658 81.4202 37.4271 81.1356 37.1299 80.9351C36.8327 80.731 36.4925 80.6289 36.1094 80.6289C35.5365 80.6289 35.0692 80.8545 34.7075 81.3057C34.3459 81.7533 34.165 82.3405 34.165 83.0674V83.1855Z" fill="#333333"/>
<circle cx="50" cy="18" r="3" fill="#B32B32"/>
<line x1="50.25" y1="27" x2="50.25" y2="32" stroke="#333333" stroke-width="0.5"/>
<line x1="50.25" y1="34" x2="50.25" y2="39" stroke="#333333" stroke-width="0.5"/>
<line x1="50.25" y1="41" x2="50.25" y2="46" stroke="#333333" stroke-width="0.5"/>
<line x1="50.25" y1="48" x2="50.25" y2="53" stroke="#333333" stroke-width="0.5"/>
<line x1="50.25" y1="55" x2="50.25" y2="60" stroke="#333333" stroke-width="0.5"/>
<line x1="50.25" y1="62" x2="50.25" y2="67" stroke="#333333" stroke-width="0.5"/>
<line x1="50.25" y1="69" x2="50.25" y2="74" stroke="#333333" stroke-width="0.5"/>
<path d="M61.2388 51.2622H59.0854L58.6108 54H58.3779L59.481 47.6016H61.4409C61.8276 47.6045 62.1646 47.6851 62.4517 47.8433C62.7417 47.9985 62.9512 48.2153 63.0801 48.4937C63.209 48.772 63.2441 49.0898 63.1855 49.4473C63.1123 49.8809 62.9189 50.2588 62.6055 50.5811C62.2949 50.9004 61.9214 51.1084 61.4849 51.2051L62.667 53.9385L62.6582 54H62.4165L61.2388 51.2622ZM59.125 51.0249H61.0059C61.4893 51.0249 61.9111 50.877 62.2715 50.5811C62.6348 50.2852 62.8604 49.9072 62.9482 49.4473C63.0361 48.9639 62.9351 48.5757 62.645 48.2827C62.355 47.9868 61.9302 47.8389 61.3706 47.8389H59.6787L59.125 51.0249ZM64.3281 54H64.0908L64.9082 49.2451H65.1455L64.3281 54ZM65.0488 47.751C65.0576 47.6924 65.0884 47.6382 65.1411 47.5884C65.1968 47.5386 65.2554 47.5137 65.3169 47.5137C65.3843 47.5137 65.4385 47.54 65.4795 47.5928C65.5234 47.6455 65.5396 47.7041 65.5278 47.7686C65.519 47.8271 65.4868 47.8813 65.4312 47.9312C65.3755 47.978 65.3169 48.0015 65.2554 48.0015C65.188 47.9985 65.1338 47.9722 65.0928 47.9224C65.0518 47.8726 65.0371 47.8154 65.0488 47.751ZM68.9731 52.8354C69.0786 52.2847 68.6772 51.8936 67.769 51.6621L67.2812 51.5215C66.6074 51.3018 66.3115 50.9136 66.3936 50.3569C66.4463 49.9966 66.6367 49.7065 66.9648 49.4868C67.293 49.2671 67.6738 49.1572 68.1074 49.1572C68.585 49.1572 68.9585 49.2803 69.228 49.5264C69.4976 49.7725 69.6118 50.1021 69.5708 50.5151H69.3335C69.3687 50.1812 69.2705 49.9116 69.0391 49.7065C68.8076 49.4985 68.4985 49.3945 68.1118 49.3945C67.7368 49.3945 67.4102 49.481 67.1318 49.6538C66.8535 49.8267 66.6865 50.0581 66.6309 50.3481C66.543 50.814 66.8125 51.145 67.4395 51.3413L68.0942 51.5303L68.314 51.605C68.9966 51.854 69.2954 52.2656 69.2104 52.8398C69.1548 53.2178 68.9585 53.521 68.6216 53.7495C68.2847 53.9751 67.8818 54.0879 67.4131 54.0879C66.9238 54.0879 66.5327 53.9692 66.2397 53.7319C65.9468 53.4917 65.8208 53.1782 65.8618 52.7915H66.0947C66.0801 53.1196 66.1885 53.3789 66.4199 53.5693C66.6543 53.7568 66.9839 53.8506 67.4087 53.8506C67.813 53.8418 68.1616 53.7451 68.4546 53.5605C68.7476 53.373 68.9204 53.1313 68.9731 52.8354ZM70.4761 51.5742C70.5581 51.0967 70.7017 50.6689 70.9067 50.291C71.1147 49.9131 71.3652 49.6304 71.6582 49.4429C71.9512 49.2524 72.2705 49.1572 72.6162 49.1572C72.9502 49.1572 73.2402 49.2407 73.4863 49.4077C73.7354 49.5747 73.9155 49.812 74.0269 50.1196L74.5278 47.25H74.7651L73.6006 54H73.3633L73.5127 53.2397C73.3018 53.5063 73.0498 53.7144 72.7568 53.8638C72.4639 54.0132 72.1445 54.0879 71.7988 54.0879C71.4883 54.0879 71.2275 54.0117 71.0166 53.8594C70.8057 53.7041 70.6489 53.4785 70.5464 53.1826C70.4468 52.8838 70.4028 52.5557 70.4146 52.1982C70.4204 52.0312 70.4409 51.8232 70.4761 51.5742ZM70.6562 52.1323C70.6328 52.4546 70.6577 52.7505 70.731 53.02C70.8042 53.2896 70.9302 53.4961 71.1089 53.6396C71.2905 53.7803 71.5176 53.8506 71.79 53.8506C72.1709 53.8535 72.5122 53.7627 72.814 53.5781C73.1187 53.3936 73.3677 53.1416 73.561 52.8223L73.9565 50.5942C73.895 50.2134 73.7471 49.9189 73.5127 49.7109C73.2812 49.5 72.9824 49.3945 72.6162 49.3945C72.2441 49.3945 71.9131 49.519 71.623 49.7681C71.333 50.0142 71.106 50.3569 70.9419 50.7964C70.7778 51.2358 70.6826 51.6812 70.6562 52.1323ZM78.1094 54C78.1006 53.7422 78.1284 53.4521 78.1929 53.1299C77.9468 53.4316 77.6538 53.6675 77.314 53.8374C76.9771 54.0073 76.6108 54.0908 76.2153 54.0879C75.8169 54.0879 75.499 53.9648 75.2617 53.7188C75.0244 53.4727 74.9351 53.165 74.9937 52.7959C75.0669 52.3477 75.3145 51.9976 75.7363 51.7456C76.1611 51.4937 76.6987 51.3604 77.3491 51.3457H78.4785L78.606 50.6514C78.6675 50.2617 78.5898 49.9556 78.373 49.7329C78.1562 49.5073 77.8442 49.3945 77.437 49.3945C77.0386 49.3945 76.6782 49.5015 76.356 49.7153C76.0337 49.9263 75.8315 50.2046 75.7495 50.5503L75.5122 50.5415C75.5942 50.1343 75.8198 49.8018 76.189 49.5439C76.5581 49.2861 76.9741 49.1572 77.437 49.1572C77.9204 49.1572 78.291 49.2949 78.5488 49.5703C78.8066 49.8428 78.9019 50.2061 78.8345 50.6602L78.3994 53.2002L78.3687 53.499C78.354 53.6543 78.3599 53.8081 78.3862 53.9604L78.3818 54H78.1094ZM76.2109 53.855C76.6035 53.8608 76.9771 53.7671 77.3315 53.5737C77.686 53.3774 77.9878 53.0918 78.2368 52.7168L78.439 51.5874H77.3755C76.7837 51.5991 76.2944 51.7134 75.9077 51.9302C75.5239 52.144 75.2969 52.4385 75.2266 52.8135C75.1738 53.1035 75.2427 53.3481 75.4331 53.5474C75.6265 53.7466 75.8857 53.8491 76.2109 53.855ZM80.043 54H79.8057L80.9658 47.25H81.2031L80.043 54ZM84.688 52.8354C84.7935 52.2847 84.3921 51.8936 83.4839 51.6621L82.9961 51.5215C82.3223 51.3018 82.0264 50.9136 82.1084 50.3569C82.1611 49.9966 82.3516 49.7065 82.6797 49.4868C83.0078 49.2671 83.3887 49.1572 83.8223 49.1572C84.2998 49.1572 84.6733 49.2803 84.9429 49.5264C85.2124 49.7725 85.3267 50.1021 85.2856 50.5151H85.0483C85.0835 50.1812 84.9854 49.9116 84.7539 49.7065C84.5225 49.4985 84.2134 49.3945 83.8267 49.3945C83.4517 49.3945 83.125 49.481 82.8467 49.6538C82.5684 49.8267 82.4014 50.0581 82.3457 50.3481C82.2578 50.814 82.5273 51.145 83.1543 51.3413L83.8091 51.5303L84.0288 51.605C84.7114 51.854 85.0103 52.2656 84.9253 52.8398C84.8696 53.2178 84.6733 53.521 84.3364 53.7495C83.9995 53.9751 83.5967 54.0879 83.1279 54.0879C82.6387 54.0879 82.2476 53.9692 81.9546 53.7319C81.6616 53.4917 81.5356 53.1782 81.5767 52.7915H81.8096C81.7949 53.1196 81.9033 53.3789 82.1348 53.5693C82.3691 53.7568 82.6987 53.8506 83.1235 53.8506C83.5278 53.8418 83.8765 53.7451 84.1694 53.5605C84.4624 53.373 84.6353 53.1313 84.688 52.8354ZM87.4302 53.6133L89.7725 49.2495H90.0317L87.5049 54H87.272L86.2129 49.2407H86.459L87.4302 53.6133ZM91.873 54.0879C91.4922 54.0879 91.1641 53.981 90.8887 53.7671C90.6133 53.5532 90.4141 53.2617 90.291 52.8926C90.1709 52.5205 90.1401 52.1309 90.1987 51.7236L90.2339 51.5039C90.3042 51.0762 90.4536 50.6763 90.6821 50.3042C90.9136 49.9321 91.1875 49.6479 91.5039 49.4517C91.8203 49.2554 92.1587 49.1572 92.519 49.1572C92.9995 49.1572 93.376 49.3345 93.6484 49.689C93.9209 50.0435 94.0366 50.4976 93.9956 51.0513L93.9824 51.1875L93.9429 51.4644H90.4888L90.4404 51.7236C90.3994 51.9697 90.3979 52.2188 90.436 52.4707C90.5005 52.8896 90.6602 53.2251 90.915 53.4771C91.1729 53.7261 91.4907 53.8521 91.8687 53.855C92.4165 53.8608 92.9102 53.644 93.3496 53.2046L93.5078 53.3276C93.0742 53.8345 92.5293 54.0879 91.873 54.0879ZM92.519 49.3945C92.0679 49.3945 91.6636 49.5645 91.3062 49.9043C90.9517 50.2412 90.688 50.6821 90.5151 51.2271H93.7231L93.7363 51.1699C93.7744 50.959 93.7773 50.748 93.7451 50.5371C93.6924 50.1914 93.5547 49.9146 93.332 49.7065C93.1123 49.4985 92.8413 49.3945 92.519 49.3945ZM95.7007 49.2451L94.791 54.5186C94.7148 54.9609 94.5479 55.3052 94.29 55.5513C94.0322 55.7974 93.7173 55.9204 93.3452 55.9204C93.2339 55.9204 93.0933 55.8911 92.9233 55.8325L92.9673 55.604C93.105 55.6567 93.2324 55.6831 93.3496 55.6831C93.6484 55.689 93.9077 55.5864 94.1274 55.3755C94.3472 55.1646 94.4878 54.8789 94.5493 54.5186L95.4634 49.2451H95.7007ZM95.626 47.751C95.6348 47.6924 95.6655 47.6382 95.7183 47.5884C95.7739 47.5386 95.8325 47.5137 95.894 47.5137C95.9614 47.5137 96.0156 47.54 96.0566 47.5928C96.1006 47.6455 96.1167 47.7041 96.105 47.7686C96.0962 47.8271 96.064 47.8813 96.0083 47.9312C95.9526 47.978 95.894 48.0015 95.8325 48.0015C95.7651 47.9985 95.7109 47.9722 95.6699 47.9224C95.6289 47.8726 95.6143 47.8154 95.626 47.751ZM100.289 50.6162H100.68C101.187 50.6162 101.623 50.4917 101.989 50.2427C102.355 49.9907 102.577 49.6538 102.653 49.2319C102.729 48.7983 102.648 48.4438 102.411 48.1685C102.174 47.8901 101.833 47.751 101.387 47.751C100.93 47.751 100.53 47.8916 100.188 48.1729C99.8477 48.4512 99.6294 48.8203 99.5327 49.2803L99.2954 49.2759C99.3862 48.7544 99.6279 48.3311 100.021 48.0059C100.413 47.6777 100.869 47.5137 101.387 47.5137C101.897 47.5137 102.294 47.6763 102.578 48.0015C102.862 48.3237 102.966 48.7397 102.89 49.2495C102.843 49.5806 102.698 49.8765 102.455 50.1372C102.215 50.3979 101.896 50.5957 101.497 50.7305C101.875 50.8359 102.159 51.0293 102.35 51.3105C102.543 51.5889 102.61 51.9199 102.552 52.3037C102.473 52.8281 102.237 53.2573 101.844 53.5913C101.452 53.9224 100.983 54.0879 100.438 54.0879C100.078 54.0879 99.7554 54.0088 99.4712 53.8506C99.1899 53.6924 98.9805 53.4697 98.8428 53.1826C98.7051 52.8926 98.6567 52.5718 98.6978 52.2202H98.9351C98.8735 52.6831 98.9863 53.0713 99.2734 53.3848C99.5605 53.6953 99.9473 53.8506 100.434 53.8506C100.923 53.8506 101.337 53.7114 101.677 53.4331C102.02 53.1548 102.231 52.7842 102.31 52.3213C102.386 51.8584 102.279 51.4995 101.989 51.2446C101.702 50.9897 101.261 50.8623 100.667 50.8623H100.258L100.289 50.6162ZM106.691 52.0181H107.759L107.729 52.2554H106.652L106.349 54H106.116L106.415 52.2554L103.409 52.251L103.426 52.1235L107.162 47.606L107.452 47.6016L106.691 52.0181ZM103.822 52.0181H106.454L107.166 47.9224L106.718 48.5068L103.822 52.0181ZM107.948 55.1206L107.799 54.9712C108.112 54.6196 108.301 54.2593 108.366 53.8901L108.467 53.3013H108.704L108.612 53.855C108.527 54.3589 108.306 54.7808 107.948 55.1206ZM116.447 49.2275C116.389 49.5762 116.235 49.8823 115.986 50.146C115.737 50.4067 115.419 50.6016 115.032 50.7305C115.401 50.8535 115.683 51.0601 115.876 51.3501C116.072 51.6372 116.143 51.9653 116.087 52.3345C116.005 52.8589 115.753 53.2822 115.331 53.6045C114.909 53.9268 114.408 54.0879 113.828 54.0879C113.456 54.0879 113.128 54.0146 112.844 53.8682C112.562 53.7188 112.357 53.5122 112.229 53.2485C112.1 52.9819 112.064 52.6772 112.123 52.3345C112.188 51.9536 112.357 51.624 112.633 51.3457C112.908 51.0645 113.269 50.8564 113.714 50.7217C113.389 50.5957 113.147 50.3979 112.989 50.1284C112.833 49.8589 112.782 49.5586 112.835 49.2275C112.914 48.7266 113.147 48.3164 113.534 47.9971C113.92 47.6748 114.377 47.5137 114.905 47.5137C115.236 47.5137 115.53 47.5884 115.788 47.7378C116.049 47.8843 116.236 48.0894 116.351 48.353C116.468 48.6138 116.5 48.9053 116.447 49.2275ZM115.841 52.3564C115.894 52.0752 115.864 51.8203 115.753 51.5918C115.645 51.3633 115.466 51.1816 115.217 51.0469C114.968 50.9121 114.689 50.8447 114.382 50.8447C113.89 50.8447 113.449 50.9854 113.059 51.2666C112.672 51.5479 112.438 51.9111 112.356 52.3564C112.277 52.7988 112.376 53.1592 112.655 53.4375C112.936 53.7129 113.326 53.8506 113.824 53.8506C114.328 53.8506 114.769 53.7129 115.146 53.4375C115.527 53.1592 115.759 52.7988 115.841 52.3564ZM116.214 49.2056C116.288 48.7983 116.194 48.4541 115.933 48.1729C115.672 47.8916 115.331 47.751 114.909 47.751C114.455 47.751 114.055 47.8887 113.709 48.1641C113.367 48.4365 113.156 48.7837 113.077 49.2056C113 49.6099 113.088 49.9453 113.34 50.2119C113.595 50.4756 113.941 50.6074 114.377 50.6074C114.823 50.6074 115.22 50.4771 115.568 50.2163C115.92 49.9556 116.135 49.6187 116.214 49.2056ZM120.635 54H116.922L116.948 53.7627L119.818 50.8667C120.392 50.2749 120.72 49.73 120.802 49.2319C120.878 48.7983 120.802 48.4438 120.574 48.1685C120.345 47.8901 120.002 47.751 119.545 47.751C119.1 47.751 118.708 47.9092 118.368 48.2256C118.028 48.5391 117.811 48.9331 117.717 49.4077H117.48C117.574 48.8628 117.814 48.4116 118.201 48.0542C118.59 47.6938 119.037 47.5137 119.541 47.5137C120.062 47.5137 120.462 47.6719 120.741 47.9883C121.022 48.3018 121.125 48.7163 121.048 49.2319C120.972 49.7563 120.632 50.3364 120.029 50.9722L117.273 53.7627H120.666L120.635 54ZM125.711 47.5137L125.68 47.751C124.854 47.751 124.157 48.019 123.588 48.5552C123.02 49.0884 122.619 49.8296 122.384 50.7788C122.572 50.5269 122.797 50.3174 123.061 50.1504C123.436 49.9131 123.842 49.7944 124.278 49.7944C124.633 49.7944 124.933 49.8867 125.179 50.0713C125.425 50.2559 125.598 50.5078 125.698 50.8271C125.8 51.1465 125.824 51.501 125.768 51.8906C125.707 52.2949 125.572 52.6699 125.364 53.0156C125.159 53.3613 124.91 53.6265 124.617 53.811C124.324 53.9956 124.015 54.0879 123.689 54.0879C123.303 54.0879 122.97 53.9897 122.692 53.7935C122.417 53.5942 122.217 53.3188 122.094 52.9673C121.971 52.6157 121.939 52.2393 121.998 51.8379L122.099 51.1831C122.274 50.0522 122.673 49.1587 123.294 48.5024C123.915 47.8433 124.721 47.5137 125.711 47.5137ZM124.248 50.0317C123.837 50.0317 123.439 50.1548 123.052 50.4009C122.668 50.644 122.427 50.9341 122.327 51.271L122.235 51.8335C122.179 52.1997 122.203 52.541 122.305 52.8574C122.408 53.1738 122.578 53.4199 122.815 53.5957C123.052 53.7715 123.342 53.8579 123.685 53.855C124.042 53.8521 124.371 53.7261 124.669 53.4771C124.971 53.228 125.206 52.8882 125.373 52.4575C125.54 52.0269 125.597 51.6094 125.544 51.2051C125.494 50.8359 125.355 50.5488 125.126 50.3438C124.898 50.1357 124.605 50.0317 124.248 50.0317ZM128.286 54.0879C127.952 54.0879 127.671 54.0044 127.442 53.8374C127.214 53.6704 127.045 53.4243 126.937 53.0991C126.832 52.771 126.788 52.3975 126.805 51.9785L126.84 51.5566L127.051 50.3086C127.201 49.4385 127.475 48.7544 127.873 48.2563C128.271 47.7583 128.771 47.5093 129.372 47.5093C129.711 47.5093 129.996 47.5942 130.224 47.7642C130.453 47.9312 130.62 48.1802 130.725 48.5112C130.831 48.8423 130.873 49.2129 130.853 49.623L130.809 50.0977L130.593 51.3457C130.441 52.21 130.166 52.8838 129.767 53.3672C129.369 53.8477 128.875 54.0879 128.286 54.0879ZM130.615 49.1396C130.577 48.6768 130.453 48.3296 130.242 48.0981C130.031 47.8638 129.742 47.7466 129.376 47.7466C128.849 47.7466 128.403 47.9722 128.04 48.4233C127.68 48.8716 127.428 49.5088 127.284 50.335L127.082 51.5215L127.047 51.895C127.018 52.2583 127.042 52.5938 127.122 52.9014C127.201 53.209 127.338 53.4448 127.535 53.6089C127.731 53.77 127.98 53.8506 128.282 53.8506C128.806 53.8506 129.247 53.6294 129.604 53.187C129.965 52.7417 130.215 52.1235 130.356 51.3325L130.541 50.2866C130.617 49.856 130.642 49.4736 130.615 49.1396ZM135.458 53.376L135.515 53.7495L135.704 53.3584L138.684 47.606H138.947L135.638 54H135.353L134.021 47.5972H134.271L135.458 53.376ZM139.114 54H138.877L139.694 49.2451H139.932L139.114 54ZM139.835 47.751C139.844 47.6924 139.875 47.6382 139.927 47.5884C139.983 47.5386 140.042 47.5137 140.103 47.5137C140.17 47.5137 140.225 47.54 140.266 47.5928C140.31 47.6455 140.326 47.7041 140.314 47.7686C140.305 47.8271 140.273 47.8813 140.217 47.9312C140.162 47.978 140.103 48.0015 140.042 48.0015C139.974 47.9985 139.92 47.9722 139.879 47.9224C139.838 47.8726 139.823 47.8154 139.835 47.751ZM142.467 54.0879C142.139 54.0879 141.848 54.0161 141.593 53.8726C141.341 53.729 141.153 53.521 141.03 53.2485L140.894 54H140.657L141.821 47.25H142.059L141.549 50.1108C141.769 49.8032 142.025 49.5674 142.318 49.4033C142.614 49.2393 142.932 49.1572 143.271 49.1572C143.579 49.1572 143.841 49.2334 144.058 49.3857C144.275 49.5381 144.433 49.7622 144.533 50.0581C144.635 50.3511 144.681 50.6763 144.669 51.0337C144.66 51.2212 144.643 51.4014 144.616 51.5742L144.559 51.8643C144.407 52.5527 144.146 53.0962 143.777 53.4946C143.408 53.8901 142.971 54.0879 142.467 54.0879ZM144.37 51.5742L144.423 51.104C144.446 50.7847 144.418 50.4888 144.339 50.2163C144.263 49.9438 144.133 49.7388 143.948 49.6011C143.767 49.4634 143.542 49.3945 143.276 49.3945C142.886 49.3945 142.519 49.5117 142.173 49.7461C141.83 49.9805 141.6 50.2705 141.483 50.6162L141.092 52.7959C141.162 53.1357 141.319 53.3965 141.562 53.5781C141.808 53.7598 142.11 53.8506 142.467 53.8506C142.939 53.8506 143.339 53.6572 143.667 53.2705C143.995 52.8809 144.224 52.3462 144.353 51.6665L144.37 51.5742ZM146.901 53.6309L146.945 53.5386L149.288 49.2495H149.556L146.55 54.7998C146.333 55.21 146.113 55.4971 145.891 55.6611C145.668 55.8281 145.42 55.9146 145.148 55.9204C145.037 55.9204 144.919 55.9043 144.796 55.8721L144.823 55.6479C144.972 55.6743 145.072 55.6875 145.122 55.6875C145.511 55.6875 145.848 55.4707 146.132 55.0371L146.308 54.7471L146.734 53.9517L145.706 49.2407H145.957L146.901 53.6309ZM155.963 47.6016H156.2L155.444 51.9829C155.333 52.6274 155.083 53.1401 154.693 53.521C154.306 53.8989 153.845 54.0879 153.309 54.0879C152.752 54.0879 152.342 53.918 152.078 53.5781C151.814 53.2354 151.725 52.7886 151.81 52.2378H152.047C152.009 52.4722 152.006 52.6875 152.039 52.8838C152.088 53.1973 152.222 53.4375 152.438 53.6045C152.658 53.7686 152.947 53.8506 153.304 53.8506C153.782 53.8506 154.193 53.6777 154.539 53.332C154.885 52.9863 155.106 52.5366 155.203 51.9829L155.963 47.6016Z" fill="#707070"/>
<path d="M61.4805 118.018H62.5483L62.5176 118.255H61.4409L61.1377 120H60.9048L61.2036 118.255L58.1978 118.251L58.2153 118.124L61.9507 113.606L62.2407 113.602L61.4805 118.018ZM58.6108 118.018H61.2432L61.9551 113.922L61.5068 114.507L58.6108 118.018ZM66.1211 120C66.1123 119.742 66.1401 119.452 66.2046 119.13C65.9585 119.432 65.6655 119.667 65.3257 119.837C64.9888 120.007 64.6226 120.091 64.2271 120.088C63.8286 120.088 63.5107 119.965 63.2734 119.719C63.0361 119.473 62.9468 119.165 63.0054 118.796C63.0786 118.348 63.3262 117.998 63.748 117.746C64.1729 117.494 64.7104 117.36 65.3608 117.346H66.4902L66.6177 116.651C66.6792 116.262 66.6016 115.956 66.3848 115.733C66.168 115.507 65.856 115.395 65.4487 115.395C65.0503 115.395 64.6899 115.501 64.3677 115.715C64.0454 115.926 63.8433 116.205 63.7612 116.55L63.5239 116.542C63.606 116.134 63.8315 115.802 64.2007 115.544C64.5698 115.286 64.9858 115.157 65.4487 115.157C65.9321 115.157 66.3027 115.295 66.5605 115.57C66.8184 115.843 66.9136 116.206 66.8462 116.66L66.4111 119.2L66.3804 119.499C66.3657 119.654 66.3716 119.808 66.3979 119.96L66.3936 120H66.1211ZM64.2227 119.855C64.6152 119.861 64.9888 119.767 65.3433 119.574C65.6978 119.377 65.9995 119.092 66.2485 118.717L66.4507 117.587H65.3872C64.7954 117.599 64.3062 117.713 63.9194 117.93C63.5356 118.144 63.3086 118.438 63.2383 118.813C63.1855 119.104 63.2544 119.348 63.4448 119.547C63.6382 119.747 63.8975 119.849 64.2227 119.855ZM67.3955 121.121L67.2461 120.971C67.5596 120.62 67.7485 120.259 67.813 119.89L67.9141 119.301H68.1514L68.0591 119.855C67.9741 120.359 67.7529 120.781 67.3955 121.121ZM75.6688 118.088H72.6366L71.6127 120H71.349L74.768 113.606L75.0536 113.602L76.2841 120H76.0336L75.6688 118.088ZM72.7597 117.851H75.6205L74.8822 113.9L72.7597 117.851ZM77.1278 119.776C77.1366 119.717 77.1674 119.663 77.2201 119.613C77.2758 119.563 77.3344 119.539 77.3959 119.539C77.4633 119.539 77.5175 119.565 77.5585 119.618C77.5995 119.67 77.6156 119.729 77.6068 119.793C77.598 119.852 77.5658 119.906 77.5102 119.956C77.4545 120.003 77.3959 120.026 77.3344 120.026C77.267 120.023 77.2128 119.997 77.1718 119.947C77.1308 119.897 77.1161 119.84 77.1278 119.776ZM86.2977 118.044C86.1219 118.677 85.8113 119.177 85.366 119.543C84.9236 119.906 84.386 120.088 83.7532 120.088C83.3812 120.088 83.056 120 82.7776 119.824C82.5022 119.648 82.2898 119.394 82.1404 119.06C81.9939 118.726 81.9207 118.352 81.9207 117.939C81.9178 117.708 81.9354 117.479 81.9734 117.253L82.1185 116.396C82.262 115.55 82.5799 114.858 83.0721 114.322C83.5643 113.783 84.1561 113.514 84.8475 113.514C85.4598 113.514 85.9344 113.695 86.2713 114.059C86.6082 114.419 86.762 114.917 86.7327 115.553H86.4998C86.5232 114.987 86.3914 114.546 86.1043 114.23C85.8172 113.911 85.3997 113.751 84.8519 113.751C84.4651 113.751 84.1019 113.854 83.762 114.059C83.4251 114.264 83.1307 114.57 82.8787 114.977C82.6268 115.381 82.4554 115.843 82.3646 116.361L82.202 117.28C82.1697 117.473 82.1536 117.669 82.1536 117.869C82.1478 118.252 82.2063 118.598 82.3294 118.906C82.4554 119.21 82.6399 119.445 82.8831 119.609C83.1263 119.77 83.4148 119.851 83.7488 119.851C84.323 119.851 84.8079 119.692 85.2034 119.376C85.5989 119.06 85.8846 118.616 86.0604 118.044H86.2977ZM87.2513 119.776C87.2601 119.717 87.2908 119.663 87.3436 119.613C87.3992 119.563 87.4578 119.539 87.5193 119.539C87.5867 119.539 87.6409 119.565 87.6819 119.618C87.7229 119.67 87.7391 119.729 87.7303 119.793C87.7215 119.852 87.6893 119.906 87.6336 119.956C87.5779 120.003 87.5193 120.026 87.4578 120.026C87.3904 120.023 87.3362 119.997 87.2952 119.947C87.2542 119.897 87.2396 119.84 87.2513 119.776ZM92.2683 120H92.031L93.134 113.602H93.3713L92.2683 120ZM94.3557 120H94.1184L95.2785 113.25H95.5158L94.3557 120ZM96.2014 120H95.9641L97.1242 113.25H97.3615L96.2014 120ZM100.842 120L100.991 119.231C100.783 119.518 100.531 119.733 100.236 119.877C99.9396 120.018 99.6145 120.088 99.26 120.088C98.8908 120.088 98.5979 119.99 98.3811 119.793C98.1672 119.597 98.0427 119.317 98.0075 118.954C97.987 118.723 97.9973 118.484 98.0383 118.238L98.5524 115.245H98.7897L98.2668 118.273C98.2346 118.472 98.2243 118.666 98.236 118.853C98.2507 119.169 98.3459 119.416 98.5217 119.591C98.6975 119.764 98.9406 119.851 99.2512 119.851C99.6789 119.851 100.064 119.735 100.407 119.503C100.75 119.269 100.975 118.964 101.084 118.589L101.659 115.245H101.901L101.084 120H100.842ZM105.883 120H105.65L106.195 116.836C106.227 116.637 106.237 116.448 106.225 116.269C106.202 115.985 106.102 115.767 105.926 115.614C105.754 115.462 105.513 115.387 105.206 115.39C104.796 115.396 104.404 115.559 104.032 115.878C103.663 116.194 103.417 116.566 103.294 116.994L102.771 120H102.534L103.351 115.245H103.593L103.382 116.37C103.619 115.98 103.898 115.682 104.217 115.474C104.536 115.263 104.869 115.157 105.215 115.157C105.607 115.157 105.909 115.255 106.12 115.452C106.334 115.645 106.446 115.922 106.458 116.282C106.669 115.939 106.942 115.667 107.276 115.465C107.61 115.26 107.966 115.157 108.343 115.157C108.71 115.157 108.998 115.252 109.209 115.443C109.42 115.633 109.542 115.903 109.574 116.251C109.592 116.474 109.58 116.707 109.539 116.95L109.011 120H108.779L109.306 116.924C109.341 116.722 109.354 116.527 109.345 116.339C109.331 116.029 109.237 115.793 109.064 115.632C108.894 115.468 108.651 115.387 108.335 115.39C108.059 115.399 107.785 115.468 107.513 115.597C107.243 115.726 107.01 115.901 106.814 116.124C106.621 116.344 106.493 116.581 106.432 116.836L105.883 120ZM113.547 118.835C113.652 118.285 113.251 117.894 112.342 117.662L111.855 117.521C111.181 117.302 110.885 116.914 110.967 116.357C111.02 115.997 111.21 115.707 111.538 115.487C111.866 115.267 112.247 115.157 112.681 115.157C113.158 115.157 113.532 115.28 113.801 115.526C114.071 115.772 114.185 116.102 114.144 116.515H113.907C113.942 116.181 113.844 115.912 113.612 115.707C113.381 115.499 113.072 115.395 112.685 115.395C112.31 115.395 111.984 115.481 111.705 115.654C111.427 115.827 111.26 116.058 111.204 116.348C111.116 116.814 111.386 117.145 112.013 117.341L112.668 117.53L112.887 117.605C113.57 117.854 113.869 118.266 113.784 118.84C113.728 119.218 113.532 119.521 113.195 119.75C112.858 119.975 112.455 120.088 111.987 120.088C111.497 120.088 111.106 119.969 110.813 119.732C110.52 119.492 110.394 119.178 110.435 118.792H110.668C110.654 119.12 110.762 119.379 110.993 119.569C111.228 119.757 111.557 119.851 111.982 119.851C112.386 119.842 112.735 119.745 113.028 119.561C113.321 119.373 113.494 119.131 113.547 118.835ZM119.236 119.376L119.293 119.75L119.482 119.358L122.462 113.606H122.725L119.416 120H119.13L117.799 113.597H118.049L119.236 119.376ZM124.14 120.088C123.759 120.088 123.431 119.981 123.156 119.767C122.88 119.553 122.681 119.262 122.558 118.893C122.438 118.521 122.407 118.131 122.466 117.724L122.501 117.504C122.571 117.076 122.721 116.676 122.949 116.304C123.181 115.932 123.455 115.648 123.771 115.452C124.088 115.255 124.426 115.157 124.786 115.157C125.267 115.157 125.643 115.334 125.916 115.689C126.188 116.043 126.304 116.498 126.263 117.051L126.25 117.188L126.21 117.464H122.756L122.708 117.724C122.667 117.97 122.665 118.219 122.703 118.471C122.768 118.89 122.927 119.225 123.182 119.477C123.44 119.726 123.758 119.852 124.136 119.855C124.684 119.861 125.177 119.644 125.617 119.205L125.775 119.328C125.341 119.834 124.796 120.088 124.14 120.088ZM124.786 115.395C124.335 115.395 123.931 115.564 123.573 115.904C123.219 116.241 122.955 116.682 122.782 117.227H125.99L126.004 117.17C126.042 116.959 126.045 116.748 126.012 116.537C125.96 116.191 125.822 115.915 125.599 115.707C125.379 115.499 125.108 115.395 124.786 115.395ZM127.968 115.245L127.058 120.519C126.982 120.961 126.815 121.305 126.557 121.551C126.299 121.797 125.984 121.92 125.612 121.92C125.501 121.92 125.36 121.891 125.191 121.833L125.234 121.604C125.372 121.657 125.5 121.683 125.617 121.683C125.916 121.689 126.175 121.586 126.395 121.375C126.614 121.165 126.755 120.879 126.817 120.519L127.731 115.245H127.968ZM127.893 113.751C127.902 113.692 127.933 113.638 127.985 113.588C128.041 113.539 128.1 113.514 128.161 113.514C128.229 113.514 128.283 113.54 128.324 113.593C128.368 113.646 128.384 113.704 128.372 113.769C128.363 113.827 128.331 113.881 128.275 113.931C128.22 113.978 128.161 114.001 128.1 114.001C128.032 113.999 127.978 113.972 127.937 113.922C127.896 113.873 127.881 113.815 127.893 113.751ZM128.429 121.121L128.28 120.971C128.593 120.62 128.782 120.259 128.847 119.89L128.948 119.301H129.185L129.093 119.855C129.008 120.359 128.787 120.781 128.429 121.121ZM137.296 115.228C137.237 115.576 137.083 115.882 136.834 116.146C136.585 116.407 136.268 116.602 135.881 116.73C136.25 116.854 136.531 117.06 136.725 117.35C136.921 117.637 136.991 117.965 136.936 118.334C136.854 118.859 136.602 119.282 136.18 119.604C135.758 119.927 135.257 120.088 134.677 120.088C134.305 120.088 133.977 120.015 133.692 119.868C133.411 119.719 133.206 119.512 133.077 119.249C132.948 118.982 132.913 118.677 132.972 118.334C133.036 117.954 133.206 117.624 133.481 117.346C133.757 117.064 134.117 116.856 134.562 116.722C134.237 116.596 133.996 116.398 133.837 116.128C133.682 115.859 133.631 115.559 133.684 115.228C133.763 114.727 133.996 114.316 134.382 113.997C134.769 113.675 135.226 113.514 135.753 113.514C136.084 113.514 136.379 113.588 136.637 113.738C136.897 113.884 137.085 114.089 137.199 114.353C137.316 114.614 137.349 114.905 137.296 115.228ZM136.689 118.356C136.742 118.075 136.713 117.82 136.602 117.592C136.493 117.363 136.314 117.182 136.065 117.047C135.816 116.912 135.538 116.845 135.23 116.845C134.738 116.845 134.297 116.985 133.908 117.267C133.521 117.548 133.287 117.911 133.205 118.356C133.125 118.799 133.225 119.159 133.503 119.438C133.785 119.713 134.174 119.851 134.672 119.851C135.176 119.851 135.617 119.713 135.995 119.438C136.376 119.159 136.607 118.799 136.689 118.356ZM137.063 115.206C137.136 114.798 137.042 114.454 136.782 114.173C136.521 113.892 136.18 113.751 135.758 113.751C135.304 113.751 134.904 113.889 134.558 114.164C134.215 114.437 134.004 114.784 133.925 115.206C133.849 115.61 133.937 115.945 134.189 116.212C134.444 116.476 134.79 116.607 135.226 116.607C135.671 116.607 136.068 116.477 136.417 116.216C136.769 115.956 136.984 115.619 137.063 115.206ZM141.734 113.514L141.704 113.751C140.877 113.751 140.18 114.019 139.612 114.555C139.043 115.088 138.642 115.83 138.408 116.779C138.595 116.527 138.821 116.317 139.084 116.15C139.459 115.913 139.865 115.794 140.302 115.794C140.656 115.794 140.957 115.887 141.203 116.071C141.449 116.256 141.622 116.508 141.721 116.827C141.824 117.146 141.847 117.501 141.792 117.891C141.73 118.295 141.595 118.67 141.387 119.016C141.182 119.361 140.933 119.626 140.64 119.811C140.347 119.996 140.038 120.088 139.713 120.088C139.326 120.088 138.994 119.99 138.715 119.793C138.44 119.594 138.241 119.319 138.118 118.967C137.995 118.616 137.962 118.239 138.021 117.838L138.122 117.183C138.298 116.052 138.696 115.159 139.317 114.502C139.938 113.843 140.744 113.514 141.734 113.514ZM140.271 116.032C139.861 116.032 139.462 116.155 139.076 116.401C138.692 116.644 138.45 116.934 138.351 117.271L138.258 117.833C138.203 118.2 138.226 118.541 138.329 118.857C138.431 119.174 138.601 119.42 138.838 119.596C139.076 119.771 139.366 119.858 139.708 119.855C140.066 119.852 140.394 119.726 140.693 119.477C140.995 119.228 141.229 118.888 141.396 118.458C141.563 118.027 141.62 117.609 141.567 117.205C141.518 116.836 141.378 116.549 141.15 116.344C140.921 116.136 140.628 116.032 140.271 116.032ZM144.31 120.088C143.976 120.088 143.694 120.004 143.466 119.837C143.237 119.67 143.069 119.424 142.96 119.099C142.855 118.771 142.811 118.397 142.829 117.979L142.864 117.557L143.075 116.309C143.224 115.438 143.498 114.754 143.896 114.256C144.295 113.758 144.794 113.509 145.395 113.509C145.735 113.509 146.019 113.594 146.248 113.764C146.476 113.931 146.643 114.18 146.749 114.511C146.854 114.842 146.896 115.213 146.876 115.623L146.832 116.098L146.617 117.346C146.464 118.21 146.189 118.884 145.791 119.367C145.392 119.848 144.898 120.088 144.31 120.088ZM146.639 115.14C146.601 114.677 146.476 114.33 146.265 114.098C146.054 113.864 145.766 113.747 145.399 113.747C144.872 113.747 144.427 113.972 144.063 114.423C143.703 114.872 143.451 115.509 143.308 116.335L143.105 117.521L143.07 117.895C143.041 118.258 143.066 118.594 143.145 118.901C143.224 119.209 143.362 119.445 143.558 119.609C143.754 119.77 144.003 119.851 144.305 119.851C144.83 119.851 145.271 119.629 145.628 119.187C145.988 118.742 146.239 118.124 146.379 117.333L146.564 116.287C146.64 115.856 146.665 115.474 146.639 115.14ZM149.135 120.088C148.801 120.088 148.52 120.004 148.291 119.837C148.062 119.67 147.894 119.424 147.786 119.099C147.68 118.771 147.636 118.397 147.654 117.979L147.689 117.557L147.9 116.309C148.049 115.438 148.323 114.754 148.722 114.256C149.12 113.758 149.62 113.509 150.22 113.509C150.56 113.509 150.844 113.594 151.073 113.764C151.301 113.931 151.468 114.18 151.574 114.511C151.679 114.842 151.722 115.213 151.701 115.623L151.657 116.098L151.442 117.346C151.29 118.21 151.014 118.884 150.616 119.367C150.217 119.848 149.724 120.088 149.135 120.088ZM151.464 115.14C151.426 114.677 151.301 114.33 151.09 114.098C150.879 113.864 150.591 113.747 150.225 113.747C149.697 113.747 149.252 113.972 148.889 114.423C148.528 114.872 148.276 115.509 148.133 116.335L147.931 117.521L147.896 117.895C147.866 118.258 147.891 118.594 147.97 118.901C148.049 119.209 148.187 119.445 148.383 119.609C148.58 119.77 148.829 119.851 149.13 119.851C149.655 119.851 150.096 119.629 150.453 119.187C150.813 118.742 151.064 118.124 151.205 117.333L151.389 116.287C151.465 115.856 151.49 115.474 151.464 115.14ZM62.4341 129.009C62.3755 128.743 62.2217 128.521 61.9727 128.346C61.7236 128.167 61.3384 128 60.8169 127.845C60.2954 127.687 59.9102 127.528 59.6611 127.37C59.4121 127.209 59.2363 127.02 59.1338 126.803C59.0342 126.586 59.0078 126.345 59.0547 126.078C59.1045 125.765 59.2378 125.491 59.4546 125.256C59.6714 125.019 59.9482 124.836 60.2852 124.707C60.625 124.578 60.9854 124.514 61.3662 124.514C61.7441 124.514 62.0781 124.596 62.3682 124.76C62.6611 124.924 62.8735 125.149 63.0054 125.437C63.1401 125.724 63.1841 126.046 63.1372 126.403H62.8999C62.9731 125.926 62.8647 125.532 62.5747 125.221C62.2847 124.908 61.8833 124.751 61.3706 124.751C60.8931 124.751 60.4609 124.859 60.0742 125.076C59.6875 125.29 59.4399 125.576 59.3315 125.933C59.2671 126.147 59.2554 126.339 59.2964 126.509C59.355 126.77 59.5146 126.986 59.7754 127.159C60.0391 127.329 60.4023 127.48 60.8652 127.612C61.5801 127.814 62.0781 128.064 62.3594 128.363C62.6406 128.662 62.7446 129.027 62.6714 129.458C62.6216 129.783 62.4854 130.068 62.2627 130.314C62.043 130.558 61.7588 130.748 61.4102 130.886C61.0615 131.021 60.6924 131.088 60.3027 131.088C59.6348 131.088 59.1162 130.915 58.7471 130.569C58.3779 130.224 58.2329 129.765 58.312 129.194H58.5493C58.4761 129.698 58.6006 130.101 58.9229 130.402C59.2451 130.701 59.7036 130.851 60.2983 130.851C60.7759 130.851 61.208 130.745 61.5947 130.534C61.9814 130.32 62.2393 130.036 62.3682 129.682C62.4561 129.438 62.478 129.214 62.4341 129.009ZM63.7832 131H63.5459L64.3633 126.245H64.6006L63.7832 131ZM64.5039 124.751C64.5127 124.692 64.5435 124.638 64.5962 124.588C64.6519 124.539 64.7104 124.514 64.772 124.514C64.8394 124.514 64.8936 124.54 64.9346 124.593C64.9785 124.646 64.9946 124.704 64.9829 124.769C64.9741 124.827 64.9419 124.881 64.8862 124.931C64.8306 124.978 64.772 125.001 64.7104 125.001C64.6431 124.999 64.5889 124.972 64.5479 124.922C64.5068 124.873 64.4922 124.815 64.5039 124.751ZM65.6289 131H65.3916L66.5518 124.25H66.7891L65.6289 131ZM68.5557 128.434L68.5425 128.442L67.7515 129.044L67.4175 131H67.1802L68.3447 124.25H68.582L67.8042 128.746L70.8584 126.25H71.2231L68.7314 128.284L70.5156 131H70.2256L68.5557 128.434ZM73.0029 131.088C72.6221 131.088 72.2939 130.981 72.0186 130.767C71.7432 130.553 71.5439 130.262 71.4209 129.893C71.3008 129.521 71.27 129.131 71.3286 128.724L71.3638 128.504C71.4341 128.076 71.5835 127.676 71.812 127.304C72.0435 126.932 72.3174 126.648 72.6338 126.452C72.9502 126.255 73.2886 126.157 73.6489 126.157C74.1294 126.157 74.5059 126.334 74.7783 126.689C75.0508 127.043 75.1665 127.498 75.1255 128.051L75.1123 128.188L75.0728 128.464H71.6187L71.5703 128.724C71.5293 128.97 71.5278 129.219 71.5659 129.471C71.6304 129.89 71.79 130.225 72.0449 130.477C72.3027 130.726 72.6206 130.852 72.9985 130.855C73.5464 130.861 74.04 130.644 74.4795 130.205L74.6377 130.328C74.2041 130.834 73.6592 131.088 73.0029 131.088ZM73.6489 126.395C73.1978 126.395 72.7935 126.564 72.436 126.904C72.0815 127.241 71.8179 127.682 71.645 128.227H74.853L74.8662 128.17C74.9043 127.959 74.9072 127.748 74.875 127.537C74.8223 127.191 74.6846 126.915 74.4619 126.707C74.2422 126.499 73.9712 126.395 73.6489 126.395ZM77.5161 131.088C77.188 131.088 76.8965 131.016 76.6416 130.873C76.3896 130.729 76.2021 130.521 76.0791 130.249L75.9429 131H75.7056L76.8701 124.25H77.1074L76.5977 127.111C76.8174 126.803 77.0737 126.567 77.3667 126.403C77.6626 126.239 77.9805 126.157 78.3203 126.157C78.6279 126.157 78.8901 126.233 79.1069 126.386C79.3237 126.538 79.4819 126.762 79.5815 127.058C79.6841 127.351 79.7295 127.676 79.7178 128.034C79.709 128.221 79.6914 128.401 79.665 128.574L79.6079 128.864C79.4556 129.553 79.1948 130.096 78.8257 130.495C78.4565 130.89 78.02 131.088 77.5161 131.088ZM79.4189 128.574L79.4717 128.104C79.4951 127.785 79.4673 127.489 79.3882 127.216C79.312 126.944 79.1816 126.739 78.9971 126.601C78.8154 126.463 78.5913 126.395 78.3247 126.395C77.9351 126.395 77.5674 126.512 77.2217 126.746C76.8789 126.98 76.6489 127.271 76.5317 127.616L76.1406 129.796C76.2109 130.136 76.3677 130.396 76.6108 130.578C76.8569 130.76 77.1587 130.851 77.5161 130.851C77.9878 130.851 78.3877 130.657 78.7158 130.271C79.0439 129.881 79.2725 129.346 79.4014 128.667L79.4189 128.574ZM80.6143 128.53C80.6875 128.088 80.8354 127.685 81.0581 127.322C81.2808 126.958 81.5591 126.674 81.8931 126.469C82.2271 126.261 82.5918 126.157 82.9873 126.157C83.3096 126.157 83.5952 126.229 83.8442 126.373C84.0933 126.516 84.291 126.73 84.4375 127.014C84.584 127.295 84.6675 127.607 84.688 127.95C84.6968 128.149 84.6792 128.404 84.6353 128.715C84.562 129.157 84.4126 129.562 84.187 129.928C83.9644 130.294 83.686 130.58 83.3521 130.785C83.021 130.987 82.6592 131.088 82.2666 131.088C81.9414 131.088 81.6543 131.016 81.4053 130.873C81.1592 130.726 80.9614 130.514 80.812 130.235C80.6655 129.954 80.5835 129.639 80.5659 129.291C80.5542 129.094 80.5703 128.841 80.6143 128.53ZM80.8208 129.471C80.8794 129.896 81.0361 130.232 81.291 130.481C81.5459 130.728 81.8696 130.851 82.2622 130.851C82.7222 130.851 83.1367 130.689 83.5059 130.367C83.8779 130.045 84.146 129.61 84.3101 129.062C84.4448 128.608 84.4844 128.179 84.4287 127.774C84.3643 127.35 84.2046 127.014 83.9497 126.768C83.6978 126.519 83.3784 126.395 82.9917 126.395C82.5317 126.395 82.1157 126.559 81.7437 126.887C81.3716 127.212 81.1035 127.644 80.9395 128.183C80.8047 128.631 80.7651 129.061 80.8208 129.471ZM88.2256 126.412L87.9399 126.39C87.5474 126.39 87.1826 126.535 86.8457 126.825C86.5088 127.115 86.2832 127.468 86.1689 127.884L85.6284 131H85.3911L86.2085 126.245H86.4458L86.2612 127.234C86.4604 126.894 86.7036 126.63 86.9907 126.443C87.2778 126.252 87.5972 126.157 87.9487 126.157C88.0601 126.157 88.1714 126.175 88.2827 126.21L88.2256 126.412ZM88.4629 128.574C88.5449 128.097 88.6885 127.669 88.8936 127.291C89.1016 126.913 89.3521 126.63 89.645 126.443C89.938 126.252 90.2573 126.157 90.603 126.157C90.9458 126.157 91.2388 126.244 91.4819 126.417C91.728 126.586 91.9038 126.819 92.0093 127.115L92.1675 126.245H92.4048L91.6182 130.833C91.5068 131.486 91.2622 131.996 90.8843 132.362C90.5093 132.731 90.0581 132.916 89.5308 132.916C88.9302 132.916 88.4644 132.646 88.1333 132.107L88.3135 131.958C88.6152 132.441 89.0166 132.683 89.5176 132.683C89.9746 132.683 90.3672 132.528 90.6953 132.217C91.0264 131.91 91.2476 131.475 91.3589 130.912L91.4907 130.249C91.2798 130.515 91.0278 130.722 90.7349 130.868C90.4448 131.015 90.1284 131.088 89.7856 131.088C89.4751 131.088 89.2144 131.012 89.0034 130.859C88.7925 130.704 88.6357 130.479 88.5332 130.183C88.4336 129.884 88.3896 129.556 88.4014 129.198C88.4072 129.031 88.4277 128.823 88.4629 128.574ZM88.6387 129.132C88.6006 129.666 88.6797 130.086 88.876 130.394C89.0752 130.698 89.3755 130.851 89.7769 130.851C90.1548 130.851 90.4961 130.758 90.8008 130.574C91.1055 130.386 91.3545 130.124 91.5479 129.787L91.9346 127.629C91.876 127.228 91.731 126.922 91.4995 126.711C91.271 126.5 90.9722 126.395 90.603 126.395C90.228 126.395 89.894 126.521 89.6011 126.772C89.3081 127.024 89.0811 127.37 88.9199 127.81C88.7588 128.249 88.665 128.69 88.6387 129.132Z" fill="#707070"/>
<path d="M61.3984 13.0791V15.9795H63.9546C64.4624 15.9795 64.8433 15.9209 65.0972 15.8037C65.5464 15.5986 65.771 15.1934 65.771 14.5879C65.771 13.9336 65.5537 13.4941 65.1191 13.2695C64.875 13.1426 64.5088 13.0791 64.0205 13.0791H61.3984ZM64.4893 11.2041C65.2461 11.2188 65.8271 11.3115 66.2324 11.4824C66.6426 11.6533 66.9893 11.9048 67.2725 12.2368C67.5068 12.5103 67.6924 12.813 67.8291 13.145C67.9658 13.4771 68.0342 13.8555 68.0342 14.2803C68.0342 14.793 67.9048 15.2983 67.646 15.7964C67.3872 16.2896 66.96 16.6387 66.3643 16.8438C66.8623 17.0439 67.2139 17.3296 67.4189 17.7007C67.6289 18.0669 67.7339 18.6284 67.7339 19.3853V20.1104C67.7339 20.6035 67.7534 20.938 67.7925 21.1138C67.8511 21.3921 67.9878 21.5972 68.2026 21.729V22H65.7197C65.6514 21.7607 65.6025 21.5679 65.5732 21.4214C65.5146 21.1187 65.4829 20.8086 65.478 20.4912L65.4634 19.4878C65.4536 18.7993 65.3267 18.3403 65.0825 18.1108C64.8433 17.8813 64.3916 17.7666 63.7275 17.7666H61.3984V22H59.1938V11.2041H64.4893ZM74.2158 18.1182C74.084 18.2012 73.9497 18.2695 73.813 18.3232C73.6812 18.3721 73.498 18.4185 73.2637 18.4624L72.7949 18.5503C72.3555 18.6284 72.0405 18.7236 71.8501 18.8359C71.5278 19.0264 71.3667 19.3218 71.3667 19.7222C71.3667 20.0786 71.4644 20.3374 71.6597 20.4985C71.8599 20.6548 72.1016 20.7329 72.3848 20.7329C72.834 20.7329 73.2466 20.6011 73.6226 20.3374C74.0034 20.0737 74.2012 19.5928 74.2158 18.8945V18.1182ZM72.9487 17.144C73.3345 17.0952 73.6104 17.0342 73.7764 16.9609C74.0742 16.834 74.2231 16.6362 74.2231 16.3677C74.2231 16.0405 74.1084 15.8159 73.8789 15.6938C73.6543 15.5669 73.3223 15.5034 72.8828 15.5034C72.3896 15.5034 72.0405 15.6255 71.8354 15.8696C71.689 16.0503 71.5913 16.2944 71.5425 16.6021H69.5283C69.5723 15.9038 69.7676 15.3301 70.1143 14.8809C70.666 14.1777 71.6133 13.8262 72.9561 13.8262C73.8301 13.8262 74.6064 13.9995 75.2852 14.3462C75.9639 14.6929 76.3032 15.3472 76.3032 16.3091V19.9712C76.3032 20.2251 76.3081 20.5327 76.3179 20.894C76.3325 21.1675 76.374 21.353 76.4424 21.4507C76.5107 21.5483 76.6133 21.6289 76.75 21.6924V22H74.4795C74.416 21.8389 74.3721 21.6875 74.3477 21.5459C74.3232 21.4043 74.3037 21.2432 74.2891 21.0625C74.001 21.375 73.6689 21.6411 73.293 21.8608C72.8438 22.1196 72.3359 22.249 71.7695 22.249C71.0469 22.249 70.4487 22.0439 69.9751 21.6338C69.5063 21.2188 69.272 20.6328 69.272 19.876C69.272 18.8945 69.6504 18.1841 70.4072 17.7446C70.8223 17.5054 71.4326 17.3345 72.2383 17.2319L72.9487 17.144ZM83.0854 14.0166H85.3267L82.4482 22H80.2437L77.3799 14.0166H79.7236L81.3862 19.9053L83.0854 14.0166ZM90.937 13.8262C91.7622 13.8262 92.436 14.0435 92.9585 14.478C93.4858 14.9077 93.7495 15.623 93.7495 16.624V22H91.6108V17.144C91.6108 16.7241 91.5547 16.4019 91.4424 16.1772C91.2373 15.7671 90.8467 15.562 90.2705 15.562C89.5625 15.562 89.0767 15.8623 88.813 16.4629C88.6763 16.7803 88.6079 17.1855 88.6079 17.6787V22H86.5278V14.0312H88.542V15.1958C88.8105 14.7856 89.0645 14.4902 89.3037 14.3096C89.7334 13.9873 90.2778 13.8262 90.937 13.8262ZM97.3091 19.4512C97.353 19.8223 97.4482 20.0859 97.5947 20.2422C97.8535 20.5205 98.332 20.6597 99.0303 20.6597C99.4404 20.6597 99.7651 20.5986 100.004 20.4766C100.249 20.3545 100.371 20.1714 100.371 19.9272C100.371 19.6929 100.273 19.5146 100.078 19.3926C99.8823 19.2705 99.1572 19.0605 97.9023 18.7627C96.999 18.5381 96.3618 18.2573 95.9907 17.9204C95.6196 17.5884 95.4341 17.1099 95.4341 16.4849C95.4341 15.7476 95.7222 15.1152 96.2983 14.5879C96.8794 14.0557 97.6948 13.7896 98.7446 13.7896C99.7407 13.7896 100.551 13.9897 101.176 14.3901C101.806 14.7856 102.167 15.4717 102.26 16.4482H100.173C100.144 16.1797 100.068 15.9673 99.9458 15.811C99.7163 15.5278 99.3257 15.3862 98.7739 15.3862C98.3198 15.3862 97.9951 15.457 97.7998 15.5986C97.6094 15.7402 97.5142 15.9062 97.5142 16.0967C97.5142 16.3359 97.6167 16.5093 97.8218 16.6167C98.0269 16.729 98.752 16.9219 99.9971 17.1953C100.827 17.3906 101.45 17.686 101.865 18.0815C102.275 18.4819 102.48 18.9824 102.48 19.583C102.48 20.374 102.185 21.021 101.594 21.5239C101.008 22.022 100.1 22.271 98.8691 22.271C97.6143 22.271 96.6865 22.0073 96.0859 21.48C95.4902 20.9478 95.1924 20.2715 95.1924 19.4512H97.3091ZM108.347 13.8408C109.396 13.8408 110.217 14.2192 110.808 14.9761C111.403 15.7329 111.701 16.7095 111.701 17.9058C111.701 19.146 111.408 20.1738 110.822 20.9893C110.236 21.8047 109.418 22.2124 108.369 22.2124C107.709 22.2124 107.18 22.0806 106.779 21.8169C106.54 21.6606 106.281 21.3872 106.003 20.9966V22H103.959V11.2188H106.04V15.0566C106.303 14.6855 106.594 14.4023 106.911 14.207C107.287 13.9629 107.766 13.8408 108.347 13.8408ZM107.812 20.4912C108.349 20.4912 108.767 20.2739 109.064 19.8394C109.362 19.4048 109.511 18.8335 109.511 18.1255C109.511 17.5591 109.438 17.0903 109.292 16.7192C109.013 16.0161 108.5 15.6646 107.753 15.6646C106.997 15.6646 106.477 16.0088 106.193 16.6973C106.047 17.0635 105.974 17.5371 105.974 18.1182C105.974 18.8018 106.125 19.3682 106.428 19.8174C106.73 20.2666 107.192 20.4912 107.812 20.4912ZM115.385 13.0645H113.298V11.1382H115.385V13.0645ZM112.294 23.5308C112.412 23.5405 112.495 23.5454 112.543 23.5454C112.592 23.5503 112.636 23.5527 112.675 23.5527C112.88 23.5527 113.034 23.5015 113.137 23.3989C113.244 23.3013 113.298 23.1084 113.298 22.8203V14.0532H115.385V22.8569C115.385 23.6626 115.227 24.2583 114.909 24.644C114.592 25.0298 113.969 25.2227 113.042 25.2227C112.978 25.2227 112.883 25.2202 112.756 25.2153C112.634 25.2104 112.48 25.2056 112.294 25.2007V23.5308ZM120.527 15.5254C120.043 15.5254 119.667 15.6768 119.399 15.9795C119.135 16.2822 118.969 16.6924 118.901 17.21H122.146C122.111 16.6582 121.943 16.2407 121.64 15.9575C121.342 15.6694 120.971 15.5254 120.527 15.5254ZM120.527 13.8042C121.191 13.8042 121.789 13.9287 122.321 14.1777C122.854 14.4268 123.293 14.8198 123.64 15.3569C123.952 15.8306 124.155 16.3799 124.248 17.0049C124.301 17.3711 124.323 17.8984 124.313 18.5869H118.85C118.879 19.3877 119.13 19.9492 119.604 20.2715C119.892 20.4717 120.239 20.5718 120.644 20.5718C121.074 20.5718 121.423 20.4497 121.691 20.2056C121.838 20.0737 121.967 19.8906 122.08 19.6562H124.211C124.157 20.1299 123.911 20.6108 123.471 21.0991C122.788 21.8755 121.831 22.2637 120.6 22.2637C119.584 22.2637 118.688 21.9365 117.912 21.2822C117.136 20.6279 116.748 19.5635 116.748 18.0889C116.748 16.707 117.097 15.6475 117.795 14.9102C118.498 14.1729 119.409 13.8042 120.527 13.8042ZM130.063 13.8262C130.102 13.8262 130.134 13.8286 130.158 13.8335C130.188 13.8335 130.249 13.8359 130.341 13.8408V15.9795C130.209 15.9648 130.092 15.9551 129.99 15.9502C129.887 15.9453 129.804 15.9429 129.741 15.9429C128.901 15.9429 128.337 16.2163 128.049 16.7632C127.888 17.0708 127.807 17.5444 127.807 18.1841V22H125.705V14.0166H127.697V15.4082C128.02 14.876 128.3 14.5122 128.54 14.3169C128.93 13.9897 129.438 13.8262 130.063 13.8262ZM135 20.2861C135.488 20.2861 135.9 20.103 136.237 19.7368C136.574 19.3657 136.743 18.7773 136.743 17.9717C136.743 17.2148 136.582 16.6387 136.259 16.2432C135.942 15.8477 135.515 15.6499 134.978 15.6499C134.245 15.6499 133.74 15.9941 133.461 16.6826C133.315 17.0488 133.242 17.5005 133.242 18.0376C133.242 18.5015 133.32 18.9141 133.476 19.2754C133.759 19.9492 134.267 20.2861 135 20.2861ZM134.479 13.8262C134.88 13.8262 135.229 13.8872 135.527 14.0093C136.035 14.2192 136.445 14.605 136.757 15.1665V14.0166H138.786V21.5898C138.786 22.6201 138.613 23.3965 138.266 23.9189C137.67 24.8174 136.528 25.2666 134.838 25.2666C133.818 25.2666 132.985 25.0664 132.341 24.666C131.696 24.2656 131.34 23.6675 131.271 22.8716H133.542C133.601 23.1157 133.696 23.2915 133.828 23.3989C134.052 23.5894 134.431 23.6846 134.963 23.6846C135.715 23.6846 136.218 23.4331 136.472 22.9302C136.638 22.6079 136.721 22.0659 136.721 21.3042V20.7915C136.521 21.1333 136.306 21.3896 136.076 21.5605C135.661 21.8779 135.122 22.0366 134.458 22.0366C133.432 22.0366 132.612 21.6777 131.997 20.96C131.386 20.2373 131.081 19.2607 131.081 18.0303C131.081 16.8438 131.376 15.8477 131.967 15.042C132.558 14.2314 133.396 13.8262 134.479 13.8262ZM58.9521 28.2407H61.0029V34.0562L63.603 31.0532H66.1885L63.3979 34.1074L66.2983 39H63.7788L61.8672 35.5869L61.0029 36.4878V39H58.9521V28.2407ZM70.9053 37.5278C71.5156 37.5278 71.9844 37.3105 72.3115 36.876C72.6387 36.4414 72.8022 35.8237 72.8022 35.0229C72.8022 34.2222 72.6387 33.6069 72.3115 33.1772C71.9844 32.7427 71.5156 32.5254 70.9053 32.5254C70.2949 32.5254 69.8237 32.7427 69.4917 33.1772C69.1646 33.6069 69.001 34.2222 69.001 35.0229C69.001 35.8237 69.1646 36.4414 69.4917 36.876C69.8237 37.3105 70.2949 37.5278 70.9053 37.5278ZM74.9922 35.0229C74.9922 36.1948 74.6553 37.1982 73.9814 38.0332C73.3076 38.8633 72.2847 39.2783 70.9126 39.2783C69.5405 39.2783 68.5176 38.8633 67.8438 38.0332C67.1699 37.1982 66.833 36.1948 66.833 35.0229C66.833 33.8706 67.1699 32.8721 67.8438 32.0273C68.5176 31.1826 69.5405 30.7603 70.9126 30.7603C72.2847 30.7603 73.3076 31.1826 73.9814 32.0273C74.6553 32.8721 74.9922 33.8706 74.9922 35.0229ZM78.625 39H76.5376V28.2041H78.625V39ZM82.7998 39H80.7124V28.2041H82.7998V39ZM87.9927 32.5254C87.5093 32.5254 87.1333 32.6768 86.8647 32.9795C86.6011 33.2822 86.4351 33.6924 86.3667 34.21H89.6113C89.5771 33.6582 89.4087 33.2407 89.106 32.9575C88.8081 32.6694 88.437 32.5254 87.9927 32.5254ZM87.9927 30.8042C88.6567 30.8042 89.2549 30.9287 89.7871 31.1777C90.3193 31.4268 90.7588 31.8198 91.1055 32.3569C91.418 32.8306 91.6206 33.3799 91.7134 34.0049C91.7671 34.3711 91.7891 34.8984 91.7793 35.5869H86.3154C86.3447 36.3877 86.5962 36.9492 87.0698 37.2715C87.3579 37.4717 87.7046 37.5718 88.1099 37.5718C88.5396 37.5718 88.8887 37.4497 89.1572 37.2056C89.3037 37.0737 89.4331 36.8906 89.5454 36.6562H91.6768C91.623 37.1299 91.3765 37.6108 90.937 38.0991C90.2534 38.8755 89.2964 39.2637 88.0659 39.2637C87.0503 39.2637 86.1543 38.9365 85.3779 38.2822C84.6016 37.6279 84.2134 36.5635 84.2134 35.0889C84.2134 33.707 84.5625 32.6475 85.2607 31.9102C85.9639 31.1729 86.8745 30.8042 87.9927 30.8042ZM96.6206 37.2861C97.1089 37.2861 97.5215 37.103 97.8584 36.7368C98.1953 36.3657 98.3638 35.7773 98.3638 34.9717C98.3638 34.2148 98.2026 33.6387 97.8804 33.2432C97.563 32.8477 97.1357 32.6499 96.5986 32.6499C95.8662 32.6499 95.3608 32.9941 95.0825 33.6826C94.936 34.0488 94.8628 34.5005 94.8628 35.0376C94.8628 35.5015 94.9409 35.9141 95.0972 36.2754C95.3804 36.9492 95.8882 37.2861 96.6206 37.2861ZM96.1006 30.8262C96.501 30.8262 96.8501 30.8872 97.1479 31.0093C97.6558 31.2192 98.0659 31.605 98.3784 32.1665V31.0166H100.407V38.5898C100.407 39.6201 100.234 40.3965 99.8872 40.9189C99.2915 41.8174 98.1489 42.2666 96.4595 42.2666C95.439 42.2666 94.6064 42.0664 93.9619 41.666C93.3174 41.2656 92.9609 40.6675 92.8926 39.8716H95.1631C95.2217 40.1157 95.3169 40.2915 95.4487 40.3989C95.6733 40.5894 96.0518 40.6846 96.584 40.6846C97.3359 40.6846 97.8389 40.4331 98.0928 39.9302C98.2588 39.6079 98.3418 39.0659 98.3418 38.3042V37.7915C98.1416 38.1333 97.9268 38.3896 97.6973 38.5605C97.2822 38.8779 96.7427 39.0366 96.0786 39.0366C95.0532 39.0366 94.2329 38.6777 93.6177 37.96C93.0073 37.2373 92.7021 36.2607 92.7021 35.0303C92.7021 33.8438 92.9976 32.8477 93.5884 32.042C94.1792 31.2314 95.0166 30.8262 96.1006 30.8262ZM104.509 30.0645H102.392V28.1382H104.509V30.0645ZM102.392 31.0166H104.509V39H102.392V31.0166ZM109.687 32.5254C109.204 32.5254 108.828 32.6768 108.559 32.9795C108.295 33.2822 108.129 33.6924 108.061 34.21H111.306C111.271 33.6582 111.103 33.2407 110.8 32.9575C110.502 32.6694 110.131 32.5254 109.687 32.5254ZM109.687 30.8042C110.351 30.8042 110.949 30.9287 111.481 31.1777C112.014 31.4268 112.453 31.8198 112.8 32.3569C113.112 32.8306 113.315 33.3799 113.408 34.0049C113.461 34.3711 113.483 34.8984 113.474 35.5869H108.01C108.039 36.3877 108.291 36.9492 108.764 37.2715C109.052 37.4717 109.399 37.5718 109.804 37.5718C110.234 37.5718 110.583 37.4497 110.852 37.2056C110.998 37.0737 111.127 36.8906 111.24 36.6562H113.371C113.317 37.1299 113.071 37.6108 112.631 38.0991C111.948 38.8755 110.991 39.2637 109.76 39.2637C108.745 39.2637 107.849 38.9365 107.072 38.2822C106.296 37.6279 105.908 36.5635 105.908 35.0889C105.908 33.707 106.257 32.6475 106.955 31.9102C107.658 31.1729 108.569 30.8042 109.687 30.8042ZM114.067 32.5767V31.0898H115.18V28.8633H117.246V31.0898H118.542V32.5767H117.246V36.7954C117.246 37.1226 117.287 37.3276 117.37 37.4106C117.453 37.4888 117.707 37.5278 118.132 37.5278C118.195 37.5278 118.261 37.5278 118.33 37.5278C118.403 37.5229 118.474 37.5181 118.542 37.5132V39.0732L117.553 39.1099C116.567 39.144 115.893 38.9731 115.532 38.5972C115.297 38.3579 115.18 37.9893 115.18 37.4912V32.5767H114.067Z" fill="#333333"/>
<path d="M60.7759 83.6675C60.8442 84.1606 60.9785 84.5293 61.1787 84.7734C61.5449 85.2178 62.1724 85.4399 63.061 85.4399C63.5933 85.4399 64.0254 85.3813 64.3574 85.2642C64.9873 85.0396 65.3022 84.6221 65.3022 84.0117C65.3022 83.6553 65.146 83.3794 64.8335 83.1841C64.521 82.9937 64.0303 82.8252 63.3613 82.6787L62.2188 82.4224C61.0957 82.1685 60.3193 81.8926 59.8896 81.5947C59.1621 81.0967 58.7983 80.3179 58.7983 79.2583C58.7983 78.2915 59.1499 77.4883 59.853 76.8486C60.5562 76.209 61.5889 75.8892 62.9512 75.8892C64.0889 75.8892 65.0581 76.1919 65.8589 76.7974C66.6646 77.3979 67.0869 78.272 67.126 79.4194H64.958C64.9189 78.77 64.6357 78.3086 64.1084 78.0352C63.7568 77.8545 63.3198 77.7642 62.7974 77.7642C62.2163 77.7642 61.7524 77.8813 61.4058 78.1157C61.0591 78.3501 60.8857 78.6772 60.8857 79.0972C60.8857 79.4829 61.0566 79.771 61.3984 79.9614C61.6182 80.0884 62.0869 80.2373 62.8047 80.4082L64.665 80.855C65.4805 81.0503 66.0957 81.3115 66.5107 81.6387C67.1553 82.1465 67.4775 82.8813 67.4775 83.8433C67.4775 84.8296 67.0991 85.6499 66.3423 86.3042C65.5903 86.9536 64.5259 87.2783 63.1489 87.2783C61.7427 87.2783 60.6367 86.9585 59.8311 86.3188C59.0254 85.6743 58.6226 84.7905 58.6226 83.6675H60.7759ZM68.6787 81.6899C68.6787 79.8052 69.1841 78.3525 70.1948 77.332C71.0737 76.4434 72.1919 75.999 73.5493 75.999C75.3657 75.999 76.6938 76.5947 77.5337 77.7861C77.9976 78.4551 78.2466 79.1265 78.2808 79.8003H76.0249C75.8784 79.2827 75.6904 78.8921 75.4609 78.6284C75.0508 78.1597 74.4429 77.9253 73.6372 77.9253C72.8169 77.9253 72.1699 78.2573 71.6963 78.9214C71.2227 79.5806 70.9858 80.5156 70.9858 81.7266C70.9858 82.9375 71.2349 83.8457 71.7329 84.4512C72.2358 85.0518 72.873 85.3521 73.6445 85.3521C74.4355 85.3521 75.0386 85.0933 75.4536 84.5757C75.6831 84.2974 75.8735 83.8799 76.0249 83.3232H78.2588C78.0635 84.5 77.563 85.457 76.7573 86.1943C75.9565 86.9316 74.9287 87.3003 73.6738 87.3003C72.1211 87.3003 70.9004 86.8022 70.0117 85.8062C69.123 84.8052 68.6787 83.4331 68.6787 81.6899ZM82.939 82.9204H85.6782L84.3306 78.6724L82.939 82.9204ZM83.0781 76.2041H85.627L89.4502 87H87.0039L86.3081 84.7808H82.3311L81.584 87H79.2256L83.0781 76.2041ZM93.0171 78.0791V85.125H95.0972C96.1616 85.125 96.9038 84.6001 97.3237 83.5503C97.5532 82.9741 97.668 82.2881 97.668 81.4922C97.668 80.3936 97.4946 79.5513 97.1479 78.9653C96.8062 78.3745 96.1226 78.0791 95.0972 78.0791H93.0171ZM95.478 76.2041C96.147 76.2139 96.7036 76.292 97.1479 76.4385C97.9048 76.6875 98.5176 77.144 98.9863 77.8081C99.3623 78.3452 99.6187 78.9263 99.7554 79.5513C99.8921 80.1763 99.9604 80.772 99.9604 81.3384C99.9604 82.7739 99.6724 83.9897 99.0962 84.9858C98.3149 86.3286 97.1089 87 95.478 87H90.8271V76.2041H95.478ZM104.619 82.9204H107.358L106.01 78.6724L104.619 82.9204ZM104.758 76.2041H107.307L111.13 87H108.684L107.988 84.7808H104.011L103.264 87H100.905L104.758 76.2041ZM61.208 104H58.9668V93.2041H61.208V104ZM67.5728 95.8262C68.3979 95.8262 69.0718 96.0435 69.5942 96.478C70.1216 96.9077 70.3853 97.623 70.3853 98.624V104H68.2466V99.144C68.2466 98.7241 68.1904 98.4019 68.0781 98.1772C67.873 97.7671 67.4824 97.562 66.9062 97.562C66.1982 97.562 65.7124 97.8623 65.4487 98.4629C65.312 98.7803 65.2437 99.1855 65.2437 99.6787V104H63.1636V96.0312H65.1777V97.1958C65.4463 96.7856 65.7002 96.4902 65.9395 96.3096C66.3691 95.9873 66.9136 95.8262 67.5728 95.8262ZM71.4985 97.5767V96.0898H72.6118V93.8633H74.6772V96.0898H75.9736V97.5767H74.6772V101.795C74.6772 102.123 74.7188 102.328 74.8018 102.411C74.8848 102.489 75.1387 102.528 75.5635 102.528C75.627 102.528 75.6929 102.528 75.7612 102.528C75.8345 102.523 75.9053 102.518 75.9736 102.513V104.073L74.9849 104.11C73.9985 104.144 73.3247 103.973 72.9634 103.597C72.729 103.358 72.6118 102.989 72.6118 102.491V97.5767H71.4985ZM80.4634 97.5254C79.98 97.5254 79.604 97.6768 79.3354 97.9795C79.0718 98.2822 78.9058 98.6924 78.8374 99.21H82.082C82.0479 98.6582 81.8794 98.2407 81.5767 97.9575C81.2788 97.6694 80.9077 97.5254 80.4634 97.5254ZM80.4634 95.8042C81.1274 95.8042 81.7256 95.9287 82.2578 96.1777C82.79 96.4268 83.2295 96.8198 83.5762 97.3569C83.8887 97.8306 84.0913 98.3799 84.1841 99.0049C84.2378 99.3711 84.2598 99.8984 84.25 100.587H78.7861C78.8154 101.388 79.0669 101.949 79.5405 102.271C79.8286 102.472 80.1753 102.572 80.5806 102.572C81.0103 102.572 81.3594 102.45 81.6279 102.206C81.7744 102.074 81.9038 101.891 82.0161 101.656H84.1475C84.0938 102.13 83.8472 102.611 83.4077 103.099C82.7241 103.875 81.7671 104.264 80.5366 104.264C79.521 104.264 78.625 103.937 77.8486 103.282C77.0723 102.628 76.6841 101.563 76.6841 100.089C76.6841 98.707 77.0332 97.6475 77.7314 96.9102C78.4346 96.1729 79.3452 95.8042 80.4634 95.8042ZM89.9995 95.8262C90.0386 95.8262 90.0703 95.8286 90.0947 95.8335C90.124 95.8335 90.1851 95.8359 90.2778 95.8408V97.9795C90.146 97.9648 90.0288 97.9551 89.9263 97.9502C89.8237 97.9453 89.7407 97.9429 89.6772 97.9429C88.8374 97.9429 88.2734 98.2163 87.9854 98.7632C87.8242 99.0708 87.7437 99.5444 87.7437 100.184V104H85.6416V96.0166H87.6338V97.4082C87.9561 96.876 88.2368 96.5122 88.4761 96.3169C88.8667 95.9897 89.3745 95.8262 89.9995 95.8262ZM95.9321 95.8262C96.7573 95.8262 97.4312 96.0435 97.9536 96.478C98.481 96.9077 98.7446 97.623 98.7446 98.624V104H96.606V99.144C96.606 98.7241 96.5498 98.4019 96.4375 98.1772C96.2324 97.7671 95.8418 97.562 95.2656 97.562C94.5576 97.562 94.0718 97.8623 93.8081 98.4629C93.6714 98.7803 93.603 99.1855 93.603 99.6787V104H91.5229V96.0312H93.5371V97.1958C93.8057 96.7856 94.0596 96.4902 94.2988 96.3096C94.7285 95.9873 95.2729 95.8262 95.9321 95.8262ZM105.08 100.118C104.948 100.201 104.814 100.27 104.677 100.323C104.545 100.372 104.362 100.418 104.128 100.462L103.659 100.55C103.22 100.628 102.905 100.724 102.714 100.836C102.392 101.026 102.231 101.322 102.231 101.722C102.231 102.079 102.329 102.337 102.524 102.499C102.724 102.655 102.966 102.733 103.249 102.733C103.698 102.733 104.111 102.601 104.487 102.337C104.868 102.074 105.065 101.593 105.08 100.895V100.118ZM103.813 99.144C104.199 99.0952 104.475 99.0342 104.641 98.9609C104.938 98.834 105.087 98.6362 105.087 98.3677C105.087 98.0405 104.973 97.8159 104.743 97.6938C104.519 97.5669 104.187 97.5034 103.747 97.5034C103.254 97.5034 102.905 97.6255 102.7 97.8696C102.553 98.0503 102.456 98.2944 102.407 98.6021H100.393C100.437 97.9038 100.632 97.3301 100.979 96.8809C101.53 96.1777 102.478 95.8262 103.82 95.8262C104.694 95.8262 105.471 95.9995 106.149 96.3462C106.828 96.6929 107.167 97.3472 107.167 98.3091V101.971C107.167 102.225 107.172 102.533 107.182 102.894C107.197 103.167 107.238 103.353 107.307 103.451C107.375 103.548 107.478 103.629 107.614 103.692V104H105.344C105.28 103.839 105.236 103.688 105.212 103.546C105.188 103.404 105.168 103.243 105.153 103.062C104.865 103.375 104.533 103.641 104.157 103.861C103.708 104.12 103.2 104.249 102.634 104.249C101.911 104.249 101.313 104.044 100.839 103.634C100.371 103.219 100.136 102.633 100.136 101.876C100.136 100.895 100.515 100.184 101.271 99.7446C101.687 99.5054 102.297 99.3345 103.103 99.2319L103.813 99.144ZM108.208 97.5767V96.0898H109.321V93.8633H111.386V96.0898H112.683V97.5767H111.386V101.795C111.386 102.123 111.428 102.328 111.511 102.411C111.594 102.489 111.848 102.528 112.272 102.528C112.336 102.528 112.402 102.528 112.47 102.528C112.543 102.523 112.614 102.518 112.683 102.513V104.073L111.694 104.11C110.708 104.144 110.034 103.973 109.672 103.597C109.438 103.358 109.321 102.989 109.321 102.491V97.5767H108.208ZM116.169 95.0645H114.052V93.1382H116.169V95.0645ZM114.052 96.0166H116.169V104H114.052V96.0166ZM121.779 102.528C122.39 102.528 122.858 102.311 123.186 101.876C123.513 101.441 123.676 100.824 123.676 100.023C123.676 99.2222 123.513 98.6069 123.186 98.1772C122.858 97.7427 122.39 97.5254 121.779 97.5254C121.169 97.5254 120.698 97.7427 120.366 98.1772C120.039 98.6069 119.875 99.2222 119.875 100.023C119.875 100.824 120.039 101.441 120.366 101.876C120.698 102.311 121.169 102.528 121.779 102.528ZM125.866 100.023C125.866 101.195 125.529 102.198 124.855 103.033C124.182 103.863 123.159 104.278 121.787 104.278C120.415 104.278 119.392 103.863 118.718 103.033C118.044 102.198 117.707 101.195 117.707 100.023C117.707 98.8706 118.044 97.8721 118.718 97.0273C119.392 96.1826 120.415 95.7603 121.787 95.7603C123.159 95.7603 124.182 96.1826 124.855 97.0273C125.529 97.8721 125.866 98.8706 125.866 100.023ZM131.792 95.8262C132.617 95.8262 133.291 96.0435 133.813 96.478C134.34 96.9077 134.604 97.623 134.604 98.624V104H132.465V99.144C132.465 98.7241 132.409 98.4019 132.297 98.1772C132.092 97.7671 131.701 97.562 131.125 97.562C130.417 97.562 129.931 97.8623 129.667 98.4629C129.531 98.7803 129.462 99.1855 129.462 99.6787V104H127.382V96.0312H129.396V97.1958C129.665 96.7856 129.919 96.4902 130.158 96.3096C130.588 95.9873 131.132 95.8262 131.792 95.8262ZM140.939 100.118C140.808 100.201 140.673 100.27 140.537 100.323C140.405 100.372 140.222 100.418 139.987 100.462L139.519 100.55C139.079 100.628 138.764 100.724 138.574 100.836C138.251 101.026 138.09 101.322 138.09 101.722C138.09 102.079 138.188 102.337 138.383 102.499C138.583 102.655 138.825 102.733 139.108 102.733C139.558 102.733 139.97 102.601 140.346 102.337C140.727 102.074 140.925 101.593 140.939 100.895V100.118ZM139.672 99.144C140.058 99.0952 140.334 99.0342 140.5 98.9609C140.798 98.834 140.947 98.6362 140.947 98.3677C140.947 98.0405 140.832 97.8159 140.603 97.6938C140.378 97.5669 140.046 97.5034 139.606 97.5034C139.113 97.5034 138.764 97.6255 138.559 97.8696C138.413 98.0503 138.315 98.2944 138.266 98.6021H136.252C136.296 97.9038 136.491 97.3301 136.838 96.8809C137.39 96.1777 138.337 95.8262 139.68 95.8262C140.554 95.8262 141.33 95.9995 142.009 96.3462C142.688 96.6929 143.027 97.3472 143.027 98.3091V101.971C143.027 102.225 143.032 102.533 143.042 102.894C143.056 103.167 143.098 103.353 143.166 103.451C143.234 103.548 143.337 103.629 143.474 103.692V104H141.203C141.14 103.839 141.096 103.688 141.071 103.546C141.047 103.404 141.027 103.243 141.013 103.062C140.725 103.375 140.393 103.641 140.017 103.861C139.567 104.12 139.06 104.249 138.493 104.249C137.771 104.249 137.172 104.044 136.699 103.634C136.23 103.219 135.996 102.633 135.996 101.876C135.996 100.895 136.374 100.184 137.131 99.7446C137.546 99.5054 138.156 99.3345 138.962 99.2319L139.672 99.144ZM147.019 104H144.931V93.2041H147.019V104Z" fill="#333333"/>
</svg>
