<svg width="178" height="143" viewBox="0 0 178 143" fill="none" xmlns="http://www.w3.org/2000/svg">
<rect width="178" height="143" fill="#E9EDEB" fill-opacity="0.59"/>
<path d="M18.2959 18.3477H14.6489V22H13.9883V14.1797H18.833V14.7437H14.6489V17.7837H18.2959V18.3477ZM22.5713 16.7363C22.4352 16.7113 22.2902 16.6987 22.1362 16.6987C21.7352 16.6987 21.395 16.8115 21.1157 17.0371C20.84 17.2591 20.6431 17.5832 20.5249 18.0093V22H19.8857V16.1885H20.5142L20.5249 17.1123C20.8651 16.4248 21.4111 16.0811 22.1631 16.0811C22.3421 16.0811 22.4836 16.1043 22.5874 16.1509L22.5713 16.7363ZM23.1299 19.0083C23.1299 18.4497 23.2373 17.9466 23.4521 17.499C23.6706 17.0514 23.9767 16.7041 24.3706 16.457C24.7681 16.2064 25.2174 16.0811 25.7188 16.0811C26.4922 16.0811 27.1188 16.3532 27.5986 16.8975C28.0785 17.4382 28.3184 18.1561 28.3184 19.0513V19.1855C28.3184 19.7477 28.2091 20.2544 27.9907 20.7056C27.7759 21.1532 27.4715 21.4987 27.0776 21.7422C26.6838 21.9857 26.2344 22.1074 25.7295 22.1074C24.9596 22.1074 24.333 21.8371 23.8496 21.2964C23.3698 20.7521 23.1299 20.0324 23.1299 19.1372V19.0083ZM23.7744 19.1855C23.7744 19.8802 23.9535 20.4513 24.3115 20.8989C24.6732 21.3429 25.1458 21.5649 25.7295 21.5649C26.3096 21.5649 26.7786 21.3429 27.1367 20.8989C27.4984 20.4513 27.6792 19.8623 27.6792 19.1318V19.0083C27.6792 18.5643 27.5968 18.1579 27.4321 17.7891C27.2674 17.4202 27.0365 17.1356 26.7393 16.9351C26.4421 16.731 26.1019 16.6289 25.7188 16.6289C25.1458 16.6289 24.6785 16.8545 24.3169 17.3057C23.9552 17.7533 23.7744 18.3405 23.7744 19.0674V19.1855ZM30.2358 16.1885L30.2573 17.1338C30.4722 16.7829 30.7407 16.5197 31.063 16.3442C31.3853 16.1688 31.7433 16.0811 32.1372 16.0811C33.0539 16.0811 33.6357 16.457 33.8828 17.209C34.0905 16.8473 34.368 16.5698 34.7153 16.3765C35.0627 16.1795 35.4458 16.0811 35.8647 16.0811C37.1108 16.0811 37.7464 16.7614 37.7715 18.1221V22H37.127V18.1704C37.1234 17.6512 37.0106 17.2663 36.7886 17.0156C36.5701 16.765 36.2121 16.6396 35.7144 16.6396C35.2524 16.6468 34.8621 16.7972 34.5435 17.0908C34.2248 17.3809 34.0475 17.7354 34.0117 18.1543V22H33.3672V18.1221C33.3636 17.6243 33.2454 17.2537 33.0127 17.0103C32.7835 16.7632 32.429 16.6396 31.9492 16.6396C31.5446 16.6396 31.1973 16.756 30.9072 16.9888C30.6172 17.2179 30.4023 17.5599 30.2627 18.0146V22H29.6182V16.1885H30.2358Z" fill="#333333"/>
<path d="M33.2949 79.7437H30.6147V87H29.9541V79.7437H27.2793V79.1797H33.2949V79.7437ZM33.5205 84.0083C33.5205 83.4497 33.6279 82.9466 33.8428 82.499C34.0612 82.0514 34.3674 81.7041 34.7612 81.457C35.1587 81.2064 35.6081 81.0811 36.1094 81.0811C36.8828 81.0811 37.5094 81.3532 37.9893 81.8975C38.4691 82.4382 38.709 83.1561 38.709 84.0513V84.1855C38.709 84.7477 38.5998 85.2544 38.3813 85.7056C38.1665 86.1532 37.8621 86.4987 37.4683 86.7422C37.0744 86.9857 36.625 87.1074 36.1201 87.1074C35.3503 87.1074 34.7236 86.8371 34.2402 86.2964C33.7604 85.7521 33.5205 85.0324 33.5205 84.1372V84.0083ZM34.165 84.1855C34.165 84.8802 34.3441 85.4513 34.7021 85.8989C35.0638 86.3429 35.5365 86.5649 36.1201 86.5649C36.7002 86.5649 37.1693 86.3429 37.5273 85.8989C37.889 85.4513 38.0698 84.8623 38.0698 84.1318V84.0083C38.0698 83.5643 37.9875 83.1579 37.8228 82.7891C37.658 82.4202 37.4271 82.1356 37.1299 81.9351C36.8327 81.731 36.4925 81.6289 36.1094 81.6289C35.5365 81.6289 35.0692 81.8545 34.7075 82.3057C34.3459 82.7533 34.165 83.3405 34.165 84.0674V84.1855Z" fill="#333333"/>
<circle cx="50" cy="19" r="3" fill="#B32B32"/>
<line x1="50.25" y1="28" x2="50.25" y2="33" stroke="#333333" stroke-width="0.5"/>
<line x1="50.25" y1="35" x2="50.25" y2="40" stroke="#333333" stroke-width="0.5"/>
<line x1="50.25" y1="42" x2="50.25" y2="47" stroke="#333333" stroke-width="0.5"/>
<line x1="50.25" y1="49" x2="50.25" y2="54" stroke="#333333" stroke-width="0.5"/>
<line x1="50.25" y1="56" x2="50.25" y2="61" stroke="#333333" stroke-width="0.5"/>
<line x1="50.25" y1="63" x2="50.25" y2="68" stroke="#333333" stroke-width="0.5"/>
<line x1="50.25" y1="70" x2="50.25" y2="75" stroke="#333333" stroke-width="0.5"/>
<path d="M61.2388 52.2622H59.0854L58.6108 55H58.3779L59.481 48.6016H61.4409C61.8276 48.6045 62.1646 48.6851 62.4517 48.8433C62.7417 48.9985 62.9512 49.2153 63.0801 49.4937C63.209 49.772 63.2441 50.0898 63.1855 50.4473C63.1123 50.8809 62.9189 51.2588 62.6055 51.5811C62.2949 51.9004 61.9214 52.1084 61.4849 52.2051L62.667 54.9385L62.6582 55H62.4165L61.2388 52.2622ZM59.125 52.0249H61.0059C61.4893 52.0249 61.9111 51.877 62.2715 51.5811C62.6348 51.2852 62.8604 50.9072 62.9482 50.4473C63.0361 49.9639 62.9351 49.5757 62.645 49.2827C62.355 48.9868 61.9302 48.8389 61.3706 48.8389H59.6787L59.125 52.0249ZM64.3281 55H64.0908L64.9082 50.2451H65.1455L64.3281 55ZM65.0488 48.751C65.0576 48.6924 65.0884 48.6382 65.1411 48.5884C65.1968 48.5386 65.2554 48.5137 65.3169 48.5137C65.3843 48.5137 65.4385 48.54 65.4795 48.5928C65.5234 48.6455 65.5396 48.7041 65.5278 48.7686C65.519 48.8271 65.4868 48.8813 65.4312 48.9312C65.3755 48.978 65.3169 49.0015 65.2554 49.0015C65.188 48.9985 65.1338 48.9722 65.0928 48.9224C65.0518 48.8726 65.0371 48.8154 65.0488 48.751ZM68.9731 53.8354C69.0786 53.2847 68.6772 52.8936 67.769 52.6621L67.2812 52.5215C66.6074 52.3018 66.3115 51.9136 66.3936 51.3569C66.4463 50.9966 66.6367 50.7065 66.9648 50.4868C67.293 50.2671 67.6738 50.1572 68.1074 50.1572C68.585 50.1572 68.9585 50.2803 69.228 50.5264C69.4976 50.7725 69.6118 51.1021 69.5708 51.5151H69.3335C69.3687 51.1812 69.2705 50.9116 69.0391 50.7065C68.8076 50.4985 68.4985 50.3945 68.1118 50.3945C67.7368 50.3945 67.4102 50.481 67.1318 50.6538C66.8535 50.8267 66.6865 51.0581 66.6309 51.3481C66.543 51.814 66.8125 52.145 67.4395 52.3413L68.0942 52.5303L68.314 52.605C68.9966 52.854 69.2954 53.2656 69.2104 53.8398C69.1548 54.2178 68.9585 54.521 68.6216 54.7495C68.2847 54.9751 67.8818 55.0879 67.4131 55.0879C66.9238 55.0879 66.5327 54.9692 66.2397 54.7319C65.9468 54.4917 65.8208 54.1782 65.8618 53.7915H66.0947C66.0801 54.1196 66.1885 54.3789 66.4199 54.5693C66.6543 54.7568 66.9839 54.8506 67.4087 54.8506C67.813 54.8418 68.1616 54.7451 68.4546 54.5605C68.7476 54.373 68.9204 54.1313 68.9731 53.8354ZM70.4761 52.5742C70.5581 52.0967 70.7017 51.6689 70.9067 51.291C71.1147 50.9131 71.3652 50.6304 71.6582 50.4429C71.9512 50.2524 72.2705 50.1572 72.6162 50.1572C72.9502 50.1572 73.2402 50.2407 73.4863 50.4077C73.7354 50.5747 73.9155 50.812 74.0269 51.1196L74.5278 48.25H74.7651L73.6006 55H73.3633L73.5127 54.2397C73.3018 54.5063 73.0498 54.7144 72.7568 54.8638C72.4639 55.0132 72.1445 55.0879 71.7988 55.0879C71.4883 55.0879 71.2275 55.0117 71.0166 54.8594C70.8057 54.7041 70.6489 54.4785 70.5464 54.1826C70.4468 53.8838 70.4028 53.5557 70.4146 53.1982C70.4204 53.0312 70.4409 52.8232 70.4761 52.5742ZM70.6562 53.1323C70.6328 53.4546 70.6577 53.7505 70.731 54.02C70.8042 54.2896 70.9302 54.4961 71.1089 54.6396C71.2905 54.7803 71.5176 54.8506 71.79 54.8506C72.1709 54.8535 72.5122 54.7627 72.814 54.5781C73.1187 54.3936 73.3677 54.1416 73.561 53.8223L73.9565 51.5942C73.895 51.2134 73.7471 50.9189 73.5127 50.7109C73.2812 50.5 72.9824 50.3945 72.6162 50.3945C72.2441 50.3945 71.9131 50.519 71.623 50.7681C71.333 51.0142 71.106 51.3569 70.9419 51.7964C70.7778 52.2358 70.6826 52.6812 70.6562 53.1323ZM78.1094 55C78.1006 54.7422 78.1284 54.4521 78.1929 54.1299C77.9468 54.4316 77.6538 54.6675 77.314 54.8374C76.9771 55.0073 76.6108 55.0908 76.2153 55.0879C75.8169 55.0879 75.499 54.9648 75.2617 54.7188C75.0244 54.4727 74.9351 54.165 74.9937 53.7959C75.0669 53.3477 75.3145 52.9976 75.7363 52.7456C76.1611 52.4937 76.6987 52.3604 77.3491 52.3457H78.4785L78.606 51.6514C78.6675 51.2617 78.5898 50.9556 78.373 50.7329C78.1562 50.5073 77.8442 50.3945 77.437 50.3945C77.0386 50.3945 76.6782 50.5015 76.356 50.7153C76.0337 50.9263 75.8315 51.2046 75.7495 51.5503L75.5122 51.5415C75.5942 51.1343 75.8198 50.8018 76.189 50.5439C76.5581 50.2861 76.9741 50.1572 77.437 50.1572C77.9204 50.1572 78.291 50.2949 78.5488 50.5703C78.8066 50.8428 78.9019 51.2061 78.8345 51.6602L78.3994 54.2002L78.3687 54.499C78.354 54.6543 78.3599 54.8081 78.3862 54.9604L78.3818 55H78.1094ZM76.2109 54.855C76.6035 54.8608 76.9771 54.7671 77.3315 54.5737C77.686 54.3774 77.9878 54.0918 78.2368 53.7168L78.439 52.5874H77.3755C76.7837 52.5991 76.2944 52.7134 75.9077 52.9302C75.5239 53.144 75.2969 53.4385 75.2266 53.8135C75.1738 54.1035 75.2427 54.3481 75.4331 54.5474C75.6265 54.7466 75.8857 54.8491 76.2109 54.855ZM80.043 55H79.8057L80.9658 48.25H81.2031L80.043 55ZM84.688 53.8354C84.7935 53.2847 84.3921 52.8936 83.4839 52.6621L82.9961 52.5215C82.3223 52.3018 82.0264 51.9136 82.1084 51.3569C82.1611 50.9966 82.3516 50.7065 82.6797 50.4868C83.0078 50.2671 83.3887 50.1572 83.8223 50.1572C84.2998 50.1572 84.6733 50.2803 84.9429 50.5264C85.2124 50.7725 85.3267 51.1021 85.2856 51.5151H85.0483C85.0835 51.1812 84.9854 50.9116 84.7539 50.7065C84.5225 50.4985 84.2134 50.3945 83.8267 50.3945C83.4517 50.3945 83.125 50.481 82.8467 50.6538C82.5684 50.8267 82.4014 51.0581 82.3457 51.3481C82.2578 51.814 82.5273 52.145 83.1543 52.3413L83.8091 52.5303L84.0288 52.605C84.7114 52.854 85.0103 53.2656 84.9253 53.8398C84.8696 54.2178 84.6733 54.521 84.3364 54.7495C83.9995 54.9751 83.5967 55.0879 83.1279 55.0879C82.6387 55.0879 82.2476 54.9692 81.9546 54.7319C81.6616 54.4917 81.5356 54.1782 81.5767 53.7915H81.8096C81.7949 54.1196 81.9033 54.3789 82.1348 54.5693C82.3691 54.7568 82.6987 54.8506 83.1235 54.8506C83.5278 54.8418 83.8765 54.7451 84.1694 54.5605C84.4624 54.373 84.6353 54.1313 84.688 53.8354ZM87.4302 54.6133L89.7725 50.2495H90.0317L87.5049 55H87.272L86.2129 50.2407H86.459L87.4302 54.6133ZM91.873 55.0879C91.4922 55.0879 91.1641 54.981 90.8887 54.7671C90.6133 54.5532 90.4141 54.2617 90.291 53.8926C90.1709 53.5205 90.1401 53.1309 90.1987 52.7236L90.2339 52.5039C90.3042 52.0762 90.4536 51.6763 90.6821 51.3042C90.9136 50.9321 91.1875 50.6479 91.5039 50.4517C91.8203 50.2554 92.1587 50.1572 92.519 50.1572C92.9995 50.1572 93.376 50.3345 93.6484 50.689C93.9209 51.0435 94.0366 51.4976 93.9956 52.0513L93.9824 52.1875L93.9429 52.4644H90.4888L90.4404 52.7236C90.3994 52.9697 90.3979 53.2188 90.436 53.4707C90.5005 53.8896 90.6602 54.2251 90.915 54.4771C91.1729 54.7261 91.4907 54.8521 91.8687 54.855C92.4165 54.8608 92.9102 54.644 93.3496 54.2046L93.5078 54.3276C93.0742 54.8345 92.5293 55.0879 91.873 55.0879ZM92.519 50.3945C92.0679 50.3945 91.6636 50.5645 91.3062 50.9043C90.9517 51.2412 90.688 51.6821 90.5151 52.2271H93.7231L93.7363 52.1699C93.7744 51.959 93.7773 51.748 93.7451 51.5371C93.6924 51.1914 93.5547 50.9146 93.332 50.7065C93.1123 50.4985 92.8413 50.3945 92.519 50.3945ZM95.7007 50.2451L94.791 55.5186C94.7148 55.9609 94.5479 56.3052 94.29 56.5513C94.0322 56.7974 93.7173 56.9204 93.3452 56.9204C93.2339 56.9204 93.0933 56.8911 92.9233 56.8325L92.9673 56.604C93.105 56.6567 93.2324 56.6831 93.3496 56.6831C93.6484 56.689 93.9077 56.5864 94.1274 56.3755C94.3472 56.1646 94.4878 55.8789 94.5493 55.5186L95.4634 50.2451H95.7007ZM95.626 48.751C95.6348 48.6924 95.6655 48.6382 95.7183 48.5884C95.7739 48.5386 95.8325 48.5137 95.894 48.5137C95.9614 48.5137 96.0156 48.54 96.0566 48.5928C96.1006 48.6455 96.1167 48.7041 96.105 48.7686C96.0962 48.8271 96.064 48.8813 96.0083 48.9312C95.9526 48.978 95.894 49.0015 95.8325 49.0015C95.7651 48.9985 95.7109 48.9722 95.6699 48.9224C95.6289 48.8726 95.6143 48.8154 95.626 48.751ZM100.289 51.6162H100.68C101.187 51.6162 101.623 51.4917 101.989 51.2427C102.355 50.9907 102.577 50.6538 102.653 50.2319C102.729 49.7983 102.648 49.4438 102.411 49.1685C102.174 48.8901 101.833 48.751 101.387 48.751C100.93 48.751 100.53 48.8916 100.188 49.1729C99.8477 49.4512 99.6294 49.8203 99.5327 50.2803L99.2954 50.2759C99.3862 49.7544 99.6279 49.3311 100.021 49.0059C100.413 48.6777 100.869 48.5137 101.387 48.5137C101.897 48.5137 102.294 48.6763 102.578 49.0015C102.862 49.3237 102.966 49.7397 102.89 50.2495C102.843 50.5806 102.698 50.8765 102.455 51.1372C102.215 51.3979 101.896 51.5957 101.497 51.7305C101.875 51.8359 102.159 52.0293 102.35 52.3105C102.543 52.5889 102.61 52.9199 102.552 53.3037C102.473 53.8281 102.237 54.2573 101.844 54.5913C101.452 54.9224 100.983 55.0879 100.438 55.0879C100.078 55.0879 99.7554 55.0088 99.4712 54.8506C99.1899 54.6924 98.9805 54.4697 98.8428 54.1826C98.7051 53.8926 98.6567 53.5718 98.6978 53.2202H98.9351C98.8735 53.6831 98.9863 54.0713 99.2734 54.3848C99.5605 54.6953 99.9473 54.8506 100.434 54.8506C100.923 54.8506 101.337 54.7114 101.677 54.4331C102.02 54.1548 102.231 53.7842 102.31 53.3213C102.386 52.8584 102.279 52.4995 101.989 52.2446C101.702 51.9897 101.261 51.8623 100.667 51.8623H100.258L100.289 51.6162ZM106.691 53.0181H107.759L107.729 53.2554H106.652L106.349 55H106.116L106.415 53.2554L103.409 53.251L103.426 53.1235L107.162 48.606L107.452 48.6016L106.691 53.0181ZM103.822 53.0181H106.454L107.166 48.9224L106.718 49.5068L103.822 53.0181ZM107.948 56.1206L107.799 55.9712C108.112 55.6196 108.301 55.2593 108.366 54.8901L108.467 54.3013H108.704L108.612 54.855C108.527 55.3589 108.306 55.7808 107.948 56.1206ZM116.447 50.2275C116.389 50.5762 116.235 50.8823 115.986 51.146C115.737 51.4067 115.419 51.6016 115.032 51.7305C115.401 51.8535 115.683 52.0601 115.876 52.3501C116.072 52.6372 116.143 52.9653 116.087 53.3345C116.005 53.8589 115.753 54.2822 115.331 54.6045C114.909 54.9268 114.408 55.0879 113.828 55.0879C113.456 55.0879 113.128 55.0146 112.844 54.8682C112.562 54.7188 112.357 54.5122 112.229 54.2485C112.1 53.9819 112.064 53.6772 112.123 53.3345C112.188 52.9536 112.357 52.624 112.633 52.3457C112.908 52.0645 113.269 51.8564 113.714 51.7217C113.389 51.5957 113.147 51.3979 112.989 51.1284C112.833 50.8589 112.782 50.5586 112.835 50.2275C112.914 49.7266 113.147 49.3164 113.534 48.9971C113.92 48.6748 114.377 48.5137 114.905 48.5137C115.236 48.5137 115.53 48.5884 115.788 48.7378C116.049 48.8843 116.236 49.0894 116.351 49.353C116.468 49.6138 116.5 49.9053 116.447 50.2275ZM115.841 53.3564C115.894 53.0752 115.864 52.8203 115.753 52.5918C115.645 52.3633 115.466 52.1816 115.217 52.0469C114.968 51.9121 114.689 51.8447 114.382 51.8447C113.89 51.8447 113.449 51.9854 113.059 52.2666C112.672 52.5479 112.438 52.9111 112.356 53.3564C112.277 53.7988 112.376 54.1592 112.655 54.4375C112.936 54.7129 113.326 54.8506 113.824 54.8506C114.328 54.8506 114.769 54.7129 115.146 54.4375C115.527 54.1592 115.759 53.7988 115.841 53.3564ZM116.214 50.2056C116.288 49.7983 116.194 49.4541 115.933 49.1729C115.672 48.8916 115.331 48.751 114.909 48.751C114.455 48.751 114.055 48.8887 113.709 49.1641C113.367 49.4365 113.156 49.7837 113.077 50.2056C113 50.6099 113.088 50.9453 113.34 51.2119C113.595 51.4756 113.941 51.6074 114.377 51.6074C114.823 51.6074 115.22 51.4771 115.568 51.2163C115.92 50.9556 116.135 50.6187 116.214 50.2056ZM120.635 55H116.922L116.948 54.7627L119.818 51.8667C120.392 51.2749 120.72 50.73 120.802 50.2319C120.878 49.7983 120.802 49.4438 120.574 49.1685C120.345 48.8901 120.002 48.751 119.545 48.751C119.1 48.751 118.708 48.9092 118.368 49.2256C118.028 49.5391 117.811 49.9331 117.717 50.4077H117.48C117.574 49.8628 117.814 49.4116 118.201 49.0542C118.59 48.6938 119.037 48.5137 119.541 48.5137C120.062 48.5137 120.462 48.6719 120.741 48.9883C121.022 49.3018 121.125 49.7163 121.048 50.2319C120.972 50.7563 120.632 51.3364 120.029 51.9722L117.273 54.7627H120.666L120.635 55ZM125.711 48.5137L125.68 48.751C124.854 48.751 124.157 49.019 123.588 49.5552C123.02 50.0884 122.619 50.8296 122.384 51.7788C122.572 51.5269 122.797 51.3174 123.061 51.1504C123.436 50.9131 123.842 50.7944 124.278 50.7944C124.633 50.7944 124.933 50.8867 125.179 51.0713C125.425 51.2559 125.598 51.5078 125.698 51.8271C125.8 52.1465 125.824 52.501 125.768 52.8906C125.707 53.2949 125.572 53.6699 125.364 54.0156C125.159 54.3613 124.91 54.6265 124.617 54.811C124.324 54.9956 124.015 55.0879 123.689 55.0879C123.303 55.0879 122.97 54.9897 122.692 54.7935C122.417 54.5942 122.217 54.3188 122.094 53.9673C121.971 53.6157 121.939 53.2393 121.998 52.8379L122.099 52.1831C122.274 51.0522 122.673 50.1587 123.294 49.5024C123.915 48.8433 124.721 48.5137 125.711 48.5137ZM124.248 51.0317C123.837 51.0317 123.439 51.1548 123.052 51.4009C122.668 51.644 122.427 51.9341 122.327 52.271L122.235 52.8335C122.179 53.1997 122.203 53.541 122.305 53.8574C122.408 54.1738 122.578 54.4199 122.815 54.5957C123.052 54.7715 123.342 54.8579 123.685 54.855C124.042 54.8521 124.371 54.7261 124.669 54.4771C124.971 54.228 125.206 53.8882 125.373 53.4575C125.54 53.0269 125.597 52.6094 125.544 52.2051C125.494 51.8359 125.355 51.5488 125.126 51.3438C124.898 51.1357 124.605 51.0317 124.248 51.0317ZM128.286 55.0879C127.952 55.0879 127.671 55.0044 127.442 54.8374C127.214 54.6704 127.045 54.4243 126.937 54.0991C126.832 53.771 126.788 53.3975 126.805 52.9785L126.84 52.5566L127.051 51.3086C127.201 50.4385 127.475 49.7544 127.873 49.2563C128.271 48.7583 128.771 48.5093 129.372 48.5093C129.711 48.5093 129.996 48.5942 130.224 48.7642C130.453 48.9312 130.62 49.1802 130.725 49.5112C130.831 49.8423 130.873 50.2129 130.853 50.623L130.809 51.0977L130.593 52.3457C130.441 53.21 130.166 53.8838 129.767 54.3672C129.369 54.8477 128.875 55.0879 128.286 55.0879ZM130.615 50.1396C130.577 49.6768 130.453 49.3296 130.242 49.0981C130.031 48.8638 129.742 48.7466 129.376 48.7466C128.849 48.7466 128.403 48.9722 128.04 49.4233C127.68 49.8716 127.428 50.5088 127.284 51.335L127.082 52.5215L127.047 52.895C127.018 53.2583 127.042 53.5938 127.122 53.9014C127.201 54.209 127.338 54.4448 127.535 54.6089C127.731 54.77 127.98 54.8506 128.282 54.8506C128.806 54.8506 129.247 54.6294 129.604 54.187C129.965 53.7417 130.215 53.1235 130.356 52.3325L130.541 51.2866C130.617 50.856 130.642 50.4736 130.615 50.1396ZM135.458 54.376L135.515 54.7495L135.704 54.3584L138.684 48.606H138.947L135.638 55H135.353L134.021 48.5972H134.271L135.458 54.376ZM139.114 55H138.877L139.694 50.2451H139.932L139.114 55ZM139.835 48.751C139.844 48.6924 139.875 48.6382 139.927 48.5884C139.983 48.5386 140.042 48.5137 140.103 48.5137C140.17 48.5137 140.225 48.54 140.266 48.5928C140.31 48.6455 140.326 48.7041 140.314 48.7686C140.305 48.8271 140.273 48.8813 140.217 48.9312C140.162 48.978 140.103 49.0015 140.042 49.0015C139.974 48.9985 139.92 48.9722 139.879 48.9224C139.838 48.8726 139.823 48.8154 139.835 48.751ZM142.467 55.0879C142.139 55.0879 141.848 55.0161 141.593 54.8726C141.341 54.729 141.153 54.521 141.03 54.2485L140.894 55H140.657L141.821 48.25H142.059L141.549 51.1108C141.769 50.8032 142.025 50.5674 142.318 50.4033C142.614 50.2393 142.932 50.1572 143.271 50.1572C143.579 50.1572 143.841 50.2334 144.058 50.3857C144.275 50.5381 144.433 50.7622 144.533 51.0581C144.635 51.3511 144.681 51.6763 144.669 52.0337C144.66 52.2212 144.643 52.4014 144.616 52.5742L144.559 52.8643C144.407 53.5527 144.146 54.0962 143.777 54.4946C143.408 54.8901 142.971 55.0879 142.467 55.0879ZM144.37 52.5742L144.423 52.104C144.446 51.7847 144.418 51.4888 144.339 51.2163C144.263 50.9438 144.133 50.7388 143.948 50.6011C143.767 50.4634 143.542 50.3945 143.276 50.3945C142.886 50.3945 142.519 50.5117 142.173 50.7461C141.83 50.9805 141.6 51.2705 141.483 51.6162L141.092 53.7959C141.162 54.1357 141.319 54.3965 141.562 54.5781C141.808 54.7598 142.11 54.8506 142.467 54.8506C142.939 54.8506 143.339 54.6572 143.667 54.2705C143.995 53.8809 144.224 53.3462 144.353 52.6665L144.37 52.5742ZM146.901 54.6309L146.945 54.5386L149.288 50.2495H149.556L146.55 55.7998C146.333 56.21 146.113 56.4971 145.891 56.6611C145.668 56.8281 145.42 56.9146 145.148 56.9204C145.037 56.9204 144.919 56.9043 144.796 56.8721L144.823 56.6479C144.972 56.6743 145.072 56.6875 145.122 56.6875C145.511 56.6875 145.848 56.4707 146.132 56.0371L146.308 55.7471L146.734 54.9517L145.706 50.2407H145.957L146.901 54.6309ZM155.963 48.6016H156.2L155.444 52.9829C155.333 53.6274 155.083 54.1401 154.693 54.521C154.306 54.8989 153.845 55.0879 153.309 55.0879C152.752 55.0879 152.342 54.918 152.078 54.5781C151.814 54.2354 151.725 53.7886 151.81 53.2378H152.047C152.009 53.4722 152.006 53.6875 152.039 53.8838C152.088 54.1973 152.222 54.4375 152.438 54.6045C152.658 54.7686 152.947 54.8506 153.304 54.8506C153.782 54.8506 154.193 54.6777 154.539 54.332C154.885 53.9863 155.106 53.5366 155.203 52.9829L155.963 48.6016Z" fill="#707070"/>
<path d="M58.6768 100.763H61.854L61.8232 101H58.3911L59.4985 94.6016H59.7402L58.6768 100.763ZM65.7256 101L65.875 100.231C65.667 100.518 65.415 100.733 65.1191 100.877C64.8232 101.018 64.498 101.088 64.1436 101.088C63.7744 101.088 63.4814 100.99 63.2646 100.793C63.0508 100.597 62.9263 100.317 62.8911 99.9541C62.8706 99.7227 62.8809 99.4839 62.9219 99.2378L63.436 96.2451H63.6733L63.1504 99.2729C63.1182 99.4722 63.1079 99.6655 63.1196 99.853C63.1343 100.169 63.2295 100.416 63.4053 100.591C63.5811 100.764 63.8242 100.851 64.1348 100.851C64.5625 100.851 64.9478 100.735 65.2905 100.503C65.6333 100.269 65.8589 99.9644 65.9673 99.5894L66.543 96.2451H66.7847L65.9673 101H65.7256ZM67.813 101L68.5864 96.4868H67.7954L67.8262 96.2451H68.6348L68.7446 95.5684C68.8237 95.1377 68.9893 94.7964 69.2412 94.5444C69.4932 94.2925 69.8081 94.1636 70.186 94.1577C70.3706 94.1577 70.5552 94.1841 70.7397 94.2368L70.6738 94.4565C70.4893 94.4097 70.3267 94.3892 70.186 94.395C69.8784 94.4009 69.6177 94.5122 69.4038 94.729C69.1899 94.9429 69.0493 95.2373 68.9819 95.6123L68.8677 96.2451H70.085L70.0498 96.4868H68.8281L68.0503 101H67.813ZM71.8208 94.9619L71.6011 96.2451H72.6426L72.6118 96.4868H71.5571L70.9551 99.9673L70.9375 100.209C70.9287 100.408 70.9697 100.565 71.0605 100.679C71.1514 100.791 71.2891 100.848 71.4736 100.851C71.5557 100.851 71.7153 100.837 71.9526 100.811L71.9614 101.035C71.8267 101.07 71.667 101.088 71.4824 101.088C70.9844 101.088 70.7251 100.832 70.7046 100.319C70.6987 100.169 70.709 100.017 70.7354 99.8618L71.3154 96.4868H70.4673L70.5024 96.2451H71.3594L71.5791 94.9619H71.8208ZM73.917 97.3525C74.1543 96.9688 74.4341 96.6743 74.7563 96.4692C75.0786 96.2612 75.4111 96.1572 75.7539 96.1572C76.1172 96.1572 76.4028 96.251 76.6108 96.4385C76.8188 96.626 76.939 96.897 76.9712 97.2515C76.9888 97.4741 76.9771 97.707 76.936 97.9502L76.4087 101H76.1714L76.6987 97.9502C76.7339 97.7451 76.7485 97.543 76.7427 97.3438C76.728 97.0332 76.6357 96.7959 76.4658 96.6318C76.2988 96.4678 76.0586 96.3872 75.7451 96.3901C75.3438 96.396 74.957 96.5527 74.585 96.8604C74.2158 97.165 73.9653 97.5298 73.8335 97.9546L73.3062 101H73.0688L74.2334 94.25H74.4707L73.917 97.3525ZM80.9131 101C80.9043 100.742 80.9321 100.452 80.9966 100.13C80.7505 100.432 80.4575 100.667 80.1177 100.837C79.7808 101.007 79.4146 101.091 79.019 101.088C78.6206 101.088 78.3027 100.965 78.0654 100.719C77.8281 100.473 77.7388 100.165 77.7974 99.7959C77.8706 99.3477 78.1182 98.9976 78.54 98.7456C78.9648 98.4937 79.5024 98.3604 80.1528 98.3457H81.2822L81.4097 97.6514C81.4712 97.2617 81.3936 96.9556 81.1768 96.7329C80.96 96.5073 80.6479 96.3945 80.2407 96.3945C79.8423 96.3945 79.4819 96.5015 79.1597 96.7153C78.8374 96.9263 78.6353 97.2046 78.5532 97.5503L78.3159 97.5415C78.3979 97.1343 78.6235 96.8018 78.9927 96.5439C79.3618 96.2861 79.7778 96.1572 80.2407 96.1572C80.7241 96.1572 81.0947 96.2949 81.3525 96.5703C81.6104 96.8428 81.7056 97.2061 81.6382 97.6602L81.2031 100.2L81.1724 100.499C81.1577 100.654 81.1636 100.808 81.1899 100.96L81.1855 101H80.9131ZM79.0146 100.855C79.4072 100.861 79.7808 100.767 80.1353 100.574C80.4897 100.377 80.7915 100.092 81.0405 99.7168L81.2427 98.5874H80.1792C79.5874 98.5991 79.0981 98.7134 78.7114 98.9302C78.3276 99.144 78.1006 99.4385 78.0303 99.8135C77.9775 100.104 78.0464 100.348 78.2368 100.547C78.4302 100.747 78.6895 100.849 79.0146 100.855ZM83.9321 100.613L86.2744 96.2495H86.5337L84.0068 101H83.7739L82.7148 96.2407H82.9609L83.9321 100.613ZM87.5488 97.3525C87.7861 96.9688 88.0659 96.6743 88.3882 96.4692C88.7104 96.2612 89.043 96.1572 89.3857 96.1572C89.749 96.1572 90.0347 96.251 90.2427 96.4385C90.4507 96.626 90.5708 96.897 90.603 97.2515C90.6206 97.4741 90.6089 97.707 90.5679 97.9502L90.0405 101H89.8032L90.3306 97.9502C90.3657 97.7451 90.3804 97.543 90.3745 97.3438C90.3599 97.0332 90.2676 96.7959 90.0977 96.6318C89.9307 96.4678 89.6904 96.3872 89.377 96.3901C88.9756 96.396 88.5889 96.5527 88.2168 96.8604C87.8477 97.165 87.5972 97.5298 87.4653 97.9546L86.938 101H86.7007L87.5181 96.2451H87.7554L87.5488 97.3525ZM94.6196 99.8354C94.7251 99.2847 94.3237 98.8936 93.4155 98.6621L92.9277 98.5215C92.2539 98.3018 91.958 97.9136 92.04 97.3569C92.0928 96.9966 92.2832 96.7065 92.6113 96.4868C92.9395 96.2671 93.3203 96.1572 93.7539 96.1572C94.2314 96.1572 94.605 96.2803 94.8745 96.5264C95.144 96.7725 95.2583 97.1021 95.2173 97.5151H94.98C95.0151 97.1812 94.917 96.9116 94.6855 96.7065C94.4541 96.4985 94.145 96.3945 93.7583 96.3945C93.3833 96.3945 93.0566 96.481 92.7783 96.6538C92.5 96.8267 92.333 97.0581 92.2773 97.3481C92.1895 97.814 92.459 98.145 93.0859 98.3413L93.7407 98.5303L93.9604 98.605C94.6431 98.854 94.9419 99.2656 94.8569 99.8398C94.8013 100.218 94.605 100.521 94.2681 100.75C93.9312 100.975 93.5283 101.088 93.0596 101.088C92.5703 101.088 92.1792 100.969 91.8862 100.732C91.5933 100.492 91.4673 100.178 91.5083 99.7915H91.7412C91.7266 100.12 91.835 100.379 92.0664 100.569C92.3008 100.757 92.6304 100.851 93.0552 100.851C93.4595 100.842 93.8081 100.745 94.1011 100.561C94.394 100.373 94.5669 100.131 94.6196 99.8354ZM97.7134 101.088C97.3853 101.088 97.0938 101.016 96.8389 100.873C96.5869 100.729 96.3994 100.521 96.2764 100.249L96.1401 101H95.9028L97.0674 94.25H97.3047L96.7949 97.1108C97.0146 96.8032 97.271 96.5674 97.564 96.4033C97.8599 96.2393 98.1777 96.1572 98.5176 96.1572C98.8252 96.1572 99.0874 96.2334 99.3042 96.3857C99.521 96.5381 99.6792 96.7622 99.7788 97.0581C99.8813 97.3511 99.9268 97.6763 99.915 98.0337C99.9062 98.2212 99.8887 98.4014 99.8623 98.5742L99.8052 98.8643C99.6528 99.5527 99.3921 100.096 99.0229 100.495C98.6538 100.89 98.2173 101.088 97.7134 101.088ZM99.6162 98.5742L99.6689 98.104C99.6924 97.7847 99.6646 97.4888 99.5854 97.2163C99.5093 96.9438 99.3789 96.7388 99.1943 96.6011C99.0127 96.4634 98.7886 96.3945 98.522 96.3945C98.1323 96.3945 97.7646 96.5117 97.4189 96.7461C97.0762 96.9805 96.8462 97.2705 96.729 97.6162L96.3379 99.7959C96.4082 100.136 96.5649 100.396 96.8081 100.578C97.0542 100.76 97.356 100.851 97.7134 100.851C98.1851 100.851 98.585 100.657 98.9131 100.271C99.2412 99.8809 99.4697 99.3462 99.5986 98.6665L99.6162 98.5742ZM100.812 98.5303C100.885 98.0879 101.033 97.6851 101.255 97.3218C101.478 96.9585 101.756 96.6743 102.09 96.4692C102.424 96.2612 102.789 96.1572 103.185 96.1572C103.507 96.1572 103.792 96.229 104.042 96.3726C104.291 96.5161 104.488 96.73 104.635 97.0142C104.781 97.2954 104.865 97.6074 104.885 97.9502C104.894 98.1494 104.876 98.4043 104.833 98.7148C104.759 99.1572 104.61 99.5615 104.384 99.9277C104.162 100.294 103.883 100.58 103.549 100.785C103.218 100.987 102.856 101.088 102.464 101.088C102.139 101.088 101.852 101.016 101.603 100.873C101.356 100.726 101.159 100.514 101.009 100.235C100.863 99.9541 100.781 99.6392 100.763 99.2905C100.751 99.0942 100.768 98.8408 100.812 98.5303ZM101.018 99.4707C101.077 99.8955 101.233 100.232 101.488 100.481C101.743 100.728 102.067 100.851 102.459 100.851C102.919 100.851 103.334 100.689 103.703 100.367C104.075 100.045 104.343 99.6099 104.507 99.062C104.642 98.6079 104.682 98.1787 104.626 97.7744C104.562 97.3496 104.402 97.0142 104.147 96.7681C103.895 96.519 103.576 96.3945 103.189 96.3945C102.729 96.3945 102.313 96.5586 101.941 96.8867C101.569 97.2119 101.301 97.644 101.137 98.1831C101.002 98.6313 100.962 99.0605 101.018 99.4707ZM108.678 101L108.827 100.231C108.619 100.518 108.367 100.733 108.071 100.877C107.775 101.018 107.45 101.088 107.096 101.088C106.727 101.088 106.434 100.99 106.217 100.793C106.003 100.597 105.878 100.317 105.843 99.9541C105.823 99.7227 105.833 99.4839 105.874 99.2378L106.388 96.2451H106.625L106.103 99.2729C106.07 99.4722 106.06 99.6655 106.072 99.853C106.086 100.169 106.182 100.416 106.357 100.591C106.533 100.764 106.776 100.851 107.087 100.851C107.515 100.851 107.9 100.735 108.243 100.503C108.585 100.269 108.811 99.9644 108.919 99.5894L109.495 96.2451H109.737L108.919 101H108.678ZM110.708 101H110.471L111.631 94.25H111.868L110.708 101ZM113.995 101.088C113.614 101.088 113.286 100.981 113.011 100.767C112.735 100.553 112.536 100.262 112.413 99.8926C112.293 99.5205 112.262 99.1309 112.321 98.7236L112.356 98.5039C112.426 98.0762 112.576 97.6763 112.804 97.3042C113.036 96.9321 113.31 96.6479 113.626 96.4517C113.942 96.2554 114.281 96.1572 114.641 96.1572C115.122 96.1572 115.498 96.3345 115.771 96.689C116.043 97.0435 116.159 97.4976 116.118 98.0513L116.104 98.1875L116.065 98.4644H112.611L112.562 98.7236C112.521 98.9697 112.52 99.2188 112.558 99.4707C112.623 99.8896 112.782 100.225 113.037 100.477C113.295 100.726 113.613 100.852 113.991 100.855C114.539 100.861 115.032 100.644 115.472 100.205L115.63 100.328C115.196 100.834 114.651 101.088 113.995 101.088ZM114.641 96.3945C114.19 96.3945 113.786 96.5645 113.428 96.9043C113.074 97.2412 112.81 97.6821 112.637 98.2271H115.845L115.858 98.1699C115.896 97.959 115.899 97.748 115.867 97.5371C115.814 97.1914 115.677 96.9146 115.454 96.7065C115.234 96.4985 114.963 96.3945 114.641 96.3945ZM118.095 100.613L120.438 96.2495H120.697L118.17 101H117.937L116.878 96.2407H117.124L118.095 100.613ZM123.812 101C123.804 100.742 123.832 100.452 123.896 100.13C123.65 100.432 123.357 100.667 123.017 100.837C122.68 101.007 122.314 101.091 121.918 101.088C121.52 101.088 121.202 100.965 120.965 100.719C120.728 100.473 120.638 100.165 120.697 99.7959C120.77 99.3477 121.018 98.9976 121.439 98.7456C121.864 98.4937 122.402 98.3604 123.052 98.3457H124.182L124.309 97.6514C124.371 97.2617 124.293 96.9556 124.076 96.7329C123.859 96.5073 123.547 96.3945 123.14 96.3945C122.742 96.3945 122.381 96.5015 122.059 96.7153C121.737 96.9263 121.535 97.2046 121.453 97.5503L121.215 97.5415C121.297 97.1343 121.523 96.8018 121.892 96.5439C122.261 96.2861 122.677 96.1572 123.14 96.1572C123.624 96.1572 123.994 96.2949 124.252 96.5703C124.51 96.8428 124.605 97.2061 124.538 97.6602L124.103 100.2L124.072 100.499C124.057 100.654 124.063 100.808 124.089 100.96L124.085 101H123.812ZM121.914 100.855C122.307 100.861 122.68 100.767 123.035 100.574C123.389 100.377 123.691 100.092 123.94 99.7168L124.142 98.5874H123.079C122.487 98.5991 121.998 98.7134 121.611 98.9302C121.227 99.144 121 99.4385 120.93 99.8135C120.877 100.104 120.946 100.348 121.136 100.547C121.33 100.747 121.589 100.849 121.914 100.855ZM128.286 96.4121L128 96.3901C127.608 96.3901 127.243 96.5352 126.906 96.8252C126.569 97.1152 126.344 97.4683 126.229 97.8843L125.689 101H125.452L126.269 96.2451H126.506L126.322 97.2339C126.521 96.894 126.764 96.6304 127.051 96.4429C127.338 96.2524 127.658 96.1572 128.009 96.1572C128.121 96.1572 128.232 96.1748 128.343 96.21L128.286 96.4121ZM128.537 98.5742C128.619 98.0967 128.762 97.6689 128.967 97.291C129.175 96.9131 129.426 96.6304 129.719 96.4429C130.012 96.2524 130.331 96.1572 130.677 96.1572C131.011 96.1572 131.301 96.2407 131.547 96.4077C131.796 96.5747 131.976 96.812 132.087 97.1196L132.588 94.25H132.826L131.661 101H131.424L131.573 100.24C131.362 100.506 131.11 100.714 130.817 100.864C130.524 101.013 130.205 101.088 129.859 101.088C129.549 101.088 129.288 101.012 129.077 100.859C128.866 100.704 128.709 100.479 128.607 100.183C128.507 99.8838 128.463 99.5557 128.475 99.1982C128.481 99.0312 128.501 98.8232 128.537 98.5742ZM128.717 99.1323C128.693 99.4546 128.718 99.7505 128.792 100.02C128.865 100.29 128.991 100.496 129.169 100.64C129.351 100.78 129.578 100.851 129.851 100.851C130.231 100.854 130.573 100.763 130.875 100.578C131.179 100.394 131.428 100.142 131.622 99.8223L132.017 97.5942C131.956 97.2134 131.808 96.9189 131.573 96.7109C131.342 96.5 131.043 96.3945 130.677 96.3945C130.305 96.3945 129.974 96.519 129.684 96.7681C129.394 97.0142 129.167 97.3569 129.002 97.7964C128.838 98.2358 128.743 98.6812 128.717 99.1323ZM134.887 101.088C134.506 101.088 134.178 100.981 133.902 100.767C133.627 100.553 133.428 100.262 133.305 99.8926C133.185 99.5205 133.154 99.1309 133.212 98.7236L133.248 98.5039C133.318 98.0762 133.467 97.6763 133.696 97.3042C133.927 96.9321 134.201 96.6479 134.518 96.4517C134.834 96.2554 135.172 96.1572 135.533 96.1572C136.013 96.1572 136.39 96.3345 136.662 96.689C136.935 97.0435 137.05 97.4976 137.009 98.0513L136.996 98.1875L136.957 98.4644H133.502L133.454 98.7236C133.413 98.9697 133.412 99.2188 133.45 99.4707C133.514 99.8896 133.674 100.225 133.929 100.477C134.187 100.726 134.504 100.852 134.882 100.855C135.43 100.861 135.924 100.644 136.363 100.205L136.521 100.328C136.088 100.834 135.543 101.088 134.887 101.088ZM135.533 96.3945C135.082 96.3945 134.677 96.5645 134.32 96.9043C133.965 97.2412 133.702 97.6821 133.529 98.2271H136.737L136.75 98.1699C136.788 97.959 136.791 97.748 136.759 97.5371C136.706 97.1914 136.568 96.9146 136.346 96.7065C136.126 96.4985 135.855 96.3945 135.533 96.3945ZM138.446 97.3525C138.684 96.9688 138.963 96.6743 139.286 96.4692C139.608 96.2612 139.94 96.1572 140.283 96.1572C140.646 96.1572 140.932 96.251 141.14 96.4385C141.348 96.626 141.468 96.897 141.5 97.2515C141.518 97.4741 141.506 97.707 141.465 97.9502L140.938 101H140.701L141.228 97.9502C141.263 97.7451 141.278 97.543 141.272 97.3438C141.257 97.0332 141.165 96.7959 140.995 96.6318C140.828 96.4678 140.588 96.3872 140.274 96.3901C139.873 96.396 139.486 96.5527 139.114 96.8604C138.745 97.165 138.495 97.5298 138.363 97.9546L137.835 101H137.598L138.416 96.2451H138.653L138.446 97.3525ZM149.706 94.5137L149.675 94.751C148.849 94.751 148.152 95.019 147.583 95.5552C147.015 96.0884 146.614 96.8296 146.379 97.7788C146.567 97.5269 146.792 97.3174 147.056 97.1504C147.431 96.9131 147.837 96.7944 148.273 96.7944C148.628 96.7944 148.928 96.8867 149.174 97.0713C149.42 97.2559 149.593 97.5078 149.693 97.8271C149.795 98.1465 149.819 98.501 149.763 98.8906C149.702 99.2949 149.567 99.6699 149.359 100.016C149.154 100.361 148.905 100.626 148.612 100.811C148.319 100.996 148.01 101.088 147.685 101.088C147.298 101.088 146.965 100.99 146.687 100.793C146.412 100.594 146.212 100.319 146.089 99.9673C145.966 99.6157 145.934 99.2393 145.993 98.8379L146.094 98.1831C146.27 97.0522 146.668 96.1587 147.289 95.5024C147.91 94.8433 148.716 94.5137 149.706 94.5137ZM148.243 97.0317C147.833 97.0317 147.434 97.1548 147.047 97.4009C146.664 97.644 146.422 97.9341 146.322 98.271L146.23 98.8335C146.174 99.1997 146.198 99.541 146.3 99.8574C146.403 100.174 146.573 100.42 146.81 100.596C147.047 100.771 147.337 100.858 147.68 100.855C148.038 100.852 148.366 100.726 148.665 100.477C148.966 100.228 149.201 99.8882 149.368 99.4575C149.535 99.0269 149.592 98.6094 149.539 98.2051C149.489 97.8359 149.35 97.5488 149.122 97.3438C148.893 97.1357 148.6 97.0317 148.243 97.0317ZM150.233 102.121L150.084 101.971C150.397 101.62 150.586 101.259 150.651 100.89L150.752 100.301H150.989L150.897 100.855C150.812 101.359 150.591 101.781 150.233 102.121ZM61.9595 112H58.2461L58.2725 111.763L61.1421 108.867C61.7163 108.275 62.0444 107.73 62.1265 107.232C62.2026 106.798 62.1265 106.444 61.8979 106.168C61.6694 105.89 61.3267 105.751 60.8696 105.751C60.4243 105.751 60.0317 105.909 59.6919 106.226C59.3521 106.539 59.1353 106.933 59.0415 107.408H58.8042C58.8979 106.863 59.1382 106.412 59.5249 106.054C59.9146 105.694 60.3613 105.514 60.8652 105.514C61.3867 105.514 61.7866 105.672 62.0649 105.988C62.3462 106.302 62.4487 106.716 62.3726 107.232C62.2964 107.756 61.9565 108.336 61.353 108.972L58.5977 111.763H61.9902L61.9595 112ZM67.6855 105.751L63.9854 112H63.7393L67.3955 105.839H63.7041L63.7349 105.602H67.7031L67.6855 105.751ZM72.5107 105.751L68.8105 112H68.5645L72.2207 105.839H68.5293L68.5601 105.602H72.5283L72.5107 105.751ZM74.4355 112.088C74.1016 112.088 73.8203 112.004 73.5918 111.837C73.3633 111.67 73.1948 111.424 73.0864 111.099C72.981 110.771 72.937 110.397 72.9546 109.979L72.9897 109.557L73.2007 108.309C73.3501 107.438 73.624 106.754 74.0225 106.256C74.4209 105.758 74.9204 105.509 75.521 105.509C75.8608 105.509 76.145 105.594 76.3735 105.764C76.6021 105.931 76.769 106.18 76.8745 106.511C76.98 106.842 77.0225 107.213 77.002 107.623L76.958 108.098L76.7427 109.346C76.5903 110.21 76.3149 110.884 75.9165 111.367C75.5181 111.848 75.0244 112.088 74.4355 112.088ZM76.7646 107.14C76.7266 106.677 76.6021 106.33 76.3911 106.098C76.1802 105.864 75.8916 105.747 75.5254 105.747C74.998 105.747 74.5527 105.972 74.1895 106.423C73.8291 106.872 73.5771 107.509 73.4336 108.335L73.2314 109.521L73.1963 109.895C73.167 110.258 73.1919 110.594 73.271 110.901C73.3501 111.209 73.4878 111.445 73.6841 111.609C73.8804 111.77 74.1294 111.851 74.4312 111.851C74.9556 111.851 75.3965 111.629 75.7539 111.187C76.1143 110.742 76.3647 110.124 76.5054 109.333L76.6899 108.287C76.7661 107.856 76.791 107.474 76.7646 107.14ZM81.6558 108.638L80.4824 109.592L80.0693 112H79.832L80.9351 105.602H81.1724L80.5352 109.275L81.7129 108.273L84.7539 105.602L85.123 105.606L81.8359 108.489L84.2134 112H83.9233L81.6558 108.638ZM88.3223 112C88.3135 111.742 88.3413 111.452 88.4058 111.13C88.1597 111.432 87.8667 111.667 87.5269 111.837C87.1899 112.007 86.8237 112.091 86.4282 112.088C86.0298 112.088 85.7119 111.965 85.4746 111.719C85.2373 111.473 85.1479 111.165 85.2065 110.796C85.2798 110.348 85.5273 109.998 85.9492 109.746C86.374 109.494 86.9116 109.36 87.562 109.346H88.6914L88.8188 108.651C88.8804 108.262 88.8027 107.956 88.5859 107.733C88.3691 107.507 88.0571 107.395 87.6499 107.395C87.2515 107.395 86.8911 107.501 86.5688 107.715C86.2466 107.926 86.0444 108.205 85.9624 108.55L85.7251 108.542C85.8071 108.134 86.0327 107.802 86.4019 107.544C86.771 107.286 87.187 107.157 87.6499 107.157C88.1333 107.157 88.5039 107.295 88.7617 107.57C89.0195 107.843 89.1147 108.206 89.0474 108.66L88.6123 111.2L88.5815 111.499C88.5669 111.654 88.5728 111.808 88.5991 111.96L88.5947 112H88.3223ZM86.4238 111.855C86.8164 111.861 87.1899 111.767 87.5444 111.574C87.8989 111.377 88.2007 111.092 88.4497 110.717L88.6519 109.587H87.5884C86.9966 109.599 86.5073 109.713 86.1206 109.93C85.7368 110.144 85.5098 110.438 85.4395 110.813C85.3867 111.104 85.4556 111.348 85.646 111.547C85.8394 111.747 86.0986 111.849 86.4238 111.855ZM93.0552 110.835C93.1606 110.285 92.7593 109.894 91.8511 109.662L91.3633 109.521C90.6895 109.302 90.3936 108.914 90.4756 108.357C90.5283 107.997 90.7188 107.707 91.0469 107.487C91.375 107.267 91.7559 107.157 92.1895 107.157C92.667 107.157 93.0405 107.28 93.3101 107.526C93.5796 107.772 93.6938 108.102 93.6528 108.515H93.4155C93.4507 108.181 93.3525 107.912 93.1211 107.707C92.8896 107.499 92.5806 107.395 92.1938 107.395C91.8188 107.395 91.4922 107.481 91.2139 107.654C90.9355 107.827 90.7686 108.058 90.7129 108.348C90.625 108.814 90.8945 109.145 91.5215 109.341L92.1763 109.53L92.396 109.605C93.0786 109.854 93.3774 110.266 93.2925 110.84C93.2368 111.218 93.0405 111.521 92.7036 111.75C92.3667 111.975 91.9639 112.088 91.4951 112.088C91.0059 112.088 90.6147 111.969 90.3218 111.732C90.0288 111.492 89.9028 111.178 89.9438 110.792H90.1768C90.1621 111.12 90.2705 111.379 90.502 111.569C90.7363 111.757 91.0659 111.851 91.4907 111.851C91.895 111.842 92.2437 111.745 92.5366 111.561C92.8296 111.373 93.0024 111.131 93.0552 110.835ZM95.9116 105.962L95.6919 107.245H96.7334L96.7026 107.487H95.6479L95.0459 110.967L95.0283 111.209C95.0195 111.408 95.0605 111.565 95.1514 111.679C95.2422 111.791 95.3799 111.848 95.5645 111.851C95.6465 111.851 95.8062 111.837 96.0435 111.811L96.0522 112.035C95.9175 112.07 95.7578 112.088 95.5732 112.088C95.0752 112.088 94.8159 111.832 94.7954 111.319C94.7896 111.169 94.7998 111.017 94.8262 110.862L95.4062 107.487H94.5581L94.5933 107.245H95.4502L95.6699 105.962H95.9116ZM99.9941 107.412L99.7085 107.39C99.3159 107.39 98.9512 107.535 98.6143 107.825C98.2773 108.115 98.0518 108.468 97.9375 108.884L97.397 112H97.1597L97.9771 107.245H98.2144L98.0298 108.234C98.229 107.894 98.4722 107.63 98.7593 107.443C99.0464 107.252 99.3657 107.157 99.7173 107.157C99.8286 107.157 99.9399 107.175 100.051 107.21L99.9941 107.412ZM103.211 112L103.36 111.231C103.152 111.518 102.9 111.733 102.604 111.877C102.309 112.018 101.983 112.088 101.629 112.088C101.26 112.088 100.967 111.99 100.75 111.793C100.536 111.597 100.412 111.317 100.376 110.954C100.356 110.723 100.366 110.484 100.407 110.238L100.921 107.245H101.159L100.636 110.273C100.604 110.472 100.593 110.666 100.605 110.853C100.62 111.169 100.715 111.416 100.891 111.591C101.066 111.764 101.31 111.851 101.62 111.851C102.048 111.851 102.433 111.735 102.776 111.503C103.119 111.269 103.344 110.964 103.453 110.589L104.028 107.245H104.27L103.453 112H103.211ZM106.749 112.088C106.412 112.088 106.117 112.015 105.865 111.868C105.613 111.722 105.429 111.52 105.312 111.262L104.859 113.828H104.622L105.755 107.245H105.993L105.83 108.093C106.038 107.812 106.287 107.586 106.577 107.417C106.87 107.244 107.195 107.157 107.553 107.157C107.86 107.157 108.123 107.233 108.339 107.386C108.556 107.538 108.714 107.762 108.814 108.058C108.917 108.351 108.962 108.676 108.95 109.034C108.941 109.221 108.924 109.401 108.897 109.574L108.84 109.864C108.688 110.553 108.427 111.096 108.058 111.495C107.689 111.89 107.252 112.088 106.749 112.088ZM108.656 109.574L108.708 109.104C108.738 108.547 108.651 108.124 108.449 107.834C108.247 107.541 107.95 107.395 107.557 107.395C107.17 107.395 106.804 107.51 106.458 107.742C106.116 107.97 105.886 108.254 105.769 108.594L105.373 110.818C105.44 111.149 105.597 111.404 105.843 111.583C106.092 111.761 106.394 111.851 106.749 111.851C107.223 111.851 107.625 111.657 107.953 111.271C108.281 110.881 108.511 110.34 108.643 109.649L108.656 109.574Z" fill="#707070"/>
<path d="M50.5 90C48.8033 90 47 90.5257 47 91.5C47 92.4742 48.8033 93 50.5 93C52.1967 93 54 92.4742 54 91.5C54 90.5257 52.1967 90 50.5 90Z" fill="#333333"/>
<path d="M50.5 80C48.0187 80 46 82.0881 46 84.6546C46 86.2482 46.7328 87.9615 48.1782 89.747C49.2424 91.0617 50.2911 91.9065 50.3353 91.9418C50.3837 91.9806 50.4419 92 50.5 92C50.5581 92 50.6162 91.9806 50.6647 91.9418C50.7088 91.9065 51.7577 91.0617 52.8218 89.747C54.2672 87.9615 55 86.2481 55 84.6546C55 82.0881 52.9813 80 50.5 80ZM52.1875 84.6546C52.1875 85.6186 51.432 86.4001 50.5 86.4001C49.5681 86.4001 48.8126 85.6186 48.8126 84.6546C48.8126 83.6907 49.5681 82.9092 50.5 82.9092C51.432 82.9092 52.1875 83.6907 52.1875 84.6546Z" fill="#4980A8"/>
<path d="M61.3984 14.0791V16.9795H63.9546C64.4624 16.9795 64.8433 16.9209 65.0972 16.8037C65.5464 16.5986 65.771 16.1934 65.771 15.5879C65.771 14.9336 65.5537 14.4941 65.1191 14.2695C64.875 14.1426 64.5088 14.0791 64.0205 14.0791H61.3984ZM64.4893 12.2041C65.2461 12.2188 65.8271 12.3115 66.2324 12.4824C66.6426 12.6533 66.9893 12.9048 67.2725 13.2368C67.5068 13.5103 67.6924 13.813 67.8291 14.145C67.9658 14.4771 68.0342 14.8555 68.0342 15.2803C68.0342 15.793 67.9048 16.2983 67.646 16.7964C67.3872 17.2896 66.96 17.6387 66.3643 17.8438C66.8623 18.0439 67.2139 18.3296 67.4189 18.7007C67.6289 19.0669 67.7339 19.6284 67.7339 20.3853V21.1104C67.7339 21.6035 67.7534 21.938 67.7925 22.1138C67.8511 22.3921 67.9878 22.5972 68.2026 22.729V23H65.7197C65.6514 22.7607 65.6025 22.5679 65.5732 22.4214C65.5146 22.1187 65.4829 21.8086 65.478 21.4912L65.4634 20.4878C65.4536 19.7993 65.3267 19.3403 65.0825 19.1108C64.8433 18.8813 64.3916 18.7666 63.7275 18.7666H61.3984V23H59.1938V12.2041H64.4893ZM74.2158 19.1182C74.084 19.2012 73.9497 19.2695 73.813 19.3232C73.6812 19.3721 73.498 19.4185 73.2637 19.4624L72.7949 19.5503C72.3555 19.6284 72.0405 19.7236 71.8501 19.8359C71.5278 20.0264 71.3667 20.3218 71.3667 20.7222C71.3667 21.0786 71.4644 21.3374 71.6597 21.4985C71.8599 21.6548 72.1016 21.7329 72.3848 21.7329C72.834 21.7329 73.2466 21.6011 73.6226 21.3374C74.0034 21.0737 74.2012 20.5928 74.2158 19.8945V19.1182ZM72.9487 18.144C73.3345 18.0952 73.6104 18.0342 73.7764 17.9609C74.0742 17.834 74.2231 17.6362 74.2231 17.3677C74.2231 17.0405 74.1084 16.8159 73.8789 16.6938C73.6543 16.5669 73.3223 16.5034 72.8828 16.5034C72.3896 16.5034 72.0405 16.6255 71.8354 16.8696C71.689 17.0503 71.5913 17.2944 71.5425 17.6021H69.5283C69.5723 16.9038 69.7676 16.3301 70.1143 15.8809C70.666 15.1777 71.6133 14.8262 72.9561 14.8262C73.8301 14.8262 74.6064 14.9995 75.2852 15.3462C75.9639 15.6929 76.3032 16.3472 76.3032 17.3091V20.9712C76.3032 21.2251 76.3081 21.5327 76.3179 21.894C76.3325 22.1675 76.374 22.353 76.4424 22.4507C76.5107 22.5483 76.6133 22.6289 76.75 22.6924V23H74.4795C74.416 22.8389 74.3721 22.6875 74.3477 22.5459C74.3232 22.4043 74.3037 22.2432 74.2891 22.0625C74.001 22.375 73.6689 22.6411 73.293 22.8608C72.8438 23.1196 72.3359 23.249 71.7695 23.249C71.0469 23.249 70.4487 23.0439 69.9751 22.6338C69.5063 22.2188 69.272 21.6328 69.272 20.876C69.272 19.8945 69.6504 19.1841 70.4072 18.7446C70.8223 18.5054 71.4326 18.3345 72.2383 18.2319L72.9487 18.144ZM83.0854 15.0166H85.3267L82.4482 23H80.2437L77.3799 15.0166H79.7236L81.3862 20.9053L83.0854 15.0166ZM90.937 14.8262C91.7622 14.8262 92.436 15.0435 92.9585 15.478C93.4858 15.9077 93.7495 16.623 93.7495 17.624V23H91.6108V18.144C91.6108 17.7241 91.5547 17.4019 91.4424 17.1772C91.2373 16.7671 90.8467 16.562 90.2705 16.562C89.5625 16.562 89.0767 16.8623 88.813 17.4629C88.6763 17.7803 88.6079 18.1855 88.6079 18.6787V23H86.5278V15.0312H88.542V16.1958C88.8105 15.7856 89.0645 15.4902 89.3037 15.3096C89.7334 14.9873 90.2778 14.8262 90.937 14.8262ZM97.3091 20.4512C97.353 20.8223 97.4482 21.0859 97.5947 21.2422C97.8535 21.5205 98.332 21.6597 99.0303 21.6597C99.4404 21.6597 99.7651 21.5986 100.004 21.4766C100.249 21.3545 100.371 21.1714 100.371 20.9272C100.371 20.6929 100.273 20.5146 100.078 20.3926C99.8823 20.2705 99.1572 20.0605 97.9023 19.7627C96.999 19.5381 96.3618 19.2573 95.9907 18.9204C95.6196 18.5884 95.4341 18.1099 95.4341 17.4849C95.4341 16.7476 95.7222 16.1152 96.2983 15.5879C96.8794 15.0557 97.6948 14.7896 98.7446 14.7896C99.7407 14.7896 100.551 14.9897 101.176 15.3901C101.806 15.7856 102.167 16.4717 102.26 17.4482H100.173C100.144 17.1797 100.068 16.9673 99.9458 16.811C99.7163 16.5278 99.3257 16.3862 98.7739 16.3862C98.3198 16.3862 97.9951 16.457 97.7998 16.5986C97.6094 16.7402 97.5142 16.9062 97.5142 17.0967C97.5142 17.3359 97.6167 17.5093 97.8218 17.6167C98.0269 17.729 98.752 17.9219 99.9971 18.1953C100.827 18.3906 101.45 18.686 101.865 19.0815C102.275 19.4819 102.48 19.9824 102.48 20.583C102.48 21.374 102.185 22.021 101.594 22.5239C101.008 23.022 100.1 23.271 98.8691 23.271C97.6143 23.271 96.6865 23.0073 96.0859 22.48C95.4902 21.9478 95.1924 21.2715 95.1924 20.4512H97.3091ZM108.347 14.8408C109.396 14.8408 110.217 15.2192 110.808 15.9761C111.403 16.7329 111.701 17.7095 111.701 18.9058C111.701 20.146 111.408 21.1738 110.822 21.9893C110.236 22.8047 109.418 23.2124 108.369 23.2124C107.709 23.2124 107.18 23.0806 106.779 22.8169C106.54 22.6606 106.281 22.3872 106.003 21.9966V23H103.959V12.2188H106.04V16.0566C106.303 15.6855 106.594 15.4023 106.911 15.207C107.287 14.9629 107.766 14.8408 108.347 14.8408ZM107.812 21.4912C108.349 21.4912 108.767 21.2739 109.064 20.8394C109.362 20.4048 109.511 19.8335 109.511 19.1255C109.511 18.5591 109.438 18.0903 109.292 17.7192C109.013 17.0161 108.5 16.6646 107.753 16.6646C106.997 16.6646 106.477 17.0088 106.193 17.6973C106.047 18.0635 105.974 18.5371 105.974 19.1182C105.974 19.8018 106.125 20.3682 106.428 20.8174C106.73 21.2666 107.192 21.4912 107.812 21.4912ZM115.385 14.0645H113.298V12.1382H115.385V14.0645ZM112.294 24.5308C112.412 24.5405 112.495 24.5454 112.543 24.5454C112.592 24.5503 112.636 24.5527 112.675 24.5527C112.88 24.5527 113.034 24.5015 113.137 24.3989C113.244 24.3013 113.298 24.1084 113.298 23.8203V15.0532H115.385V23.8569C115.385 24.6626 115.227 25.2583 114.909 25.644C114.592 26.0298 113.969 26.2227 113.042 26.2227C112.978 26.2227 112.883 26.2202 112.756 26.2153C112.634 26.2104 112.48 26.2056 112.294 26.2007V24.5308ZM120.527 16.5254C120.043 16.5254 119.667 16.6768 119.399 16.9795C119.135 17.2822 118.969 17.6924 118.901 18.21H122.146C122.111 17.6582 121.943 17.2407 121.64 16.9575C121.342 16.6694 120.971 16.5254 120.527 16.5254ZM120.527 14.8042C121.191 14.8042 121.789 14.9287 122.321 15.1777C122.854 15.4268 123.293 15.8198 123.64 16.3569C123.952 16.8306 124.155 17.3799 124.248 18.0049C124.301 18.3711 124.323 18.8984 124.313 19.5869H118.85C118.879 20.3877 119.13 20.9492 119.604 21.2715C119.892 21.4717 120.239 21.5718 120.644 21.5718C121.074 21.5718 121.423 21.4497 121.691 21.2056C121.838 21.0737 121.967 20.8906 122.08 20.6562H124.211C124.157 21.1299 123.911 21.6108 123.471 22.0991C122.788 22.8755 121.831 23.2637 120.6 23.2637C119.584 23.2637 118.688 22.9365 117.912 22.2822C117.136 21.6279 116.748 20.5635 116.748 19.0889C116.748 17.707 117.097 16.6475 117.795 15.9102C118.498 15.1729 119.409 14.8042 120.527 14.8042ZM130.063 14.8262C130.102 14.8262 130.134 14.8286 130.158 14.8335C130.188 14.8335 130.249 14.8359 130.341 14.8408V16.9795C130.209 16.9648 130.092 16.9551 129.99 16.9502C129.887 16.9453 129.804 16.9429 129.741 16.9429C128.901 16.9429 128.337 17.2163 128.049 17.7632C127.888 18.0708 127.807 18.5444 127.807 19.1841V23H125.705V15.0166H127.697V16.4082C128.02 15.876 128.3 15.5122 128.54 15.3169C128.93 14.9897 129.438 14.8262 130.063 14.8262ZM135 21.2861C135.488 21.2861 135.9 21.103 136.237 20.7368C136.574 20.3657 136.743 19.7773 136.743 18.9717C136.743 18.2148 136.582 17.6387 136.259 17.2432C135.942 16.8477 135.515 16.6499 134.978 16.6499C134.245 16.6499 133.74 16.9941 133.461 17.6826C133.315 18.0488 133.242 18.5005 133.242 19.0376C133.242 19.5015 133.32 19.9141 133.476 20.2754C133.759 20.9492 134.267 21.2861 135 21.2861ZM134.479 14.8262C134.88 14.8262 135.229 14.8872 135.527 15.0093C136.035 15.2192 136.445 15.605 136.757 16.1665V15.0166H138.786V22.5898C138.786 23.6201 138.613 24.3965 138.266 24.9189C137.67 25.8174 136.528 26.2666 134.838 26.2666C133.818 26.2666 132.985 26.0664 132.341 25.666C131.696 25.2656 131.34 24.6675 131.271 23.8716H133.542C133.601 24.1157 133.696 24.2915 133.828 24.3989C134.052 24.5894 134.431 24.6846 134.963 24.6846C135.715 24.6846 136.218 24.4331 136.472 23.9302C136.638 23.6079 136.721 23.0659 136.721 22.3042V21.7915C136.521 22.1333 136.306 22.3896 136.076 22.5605C135.661 22.8779 135.122 23.0366 134.458 23.0366C133.432 23.0366 132.612 22.6777 131.997 21.96C131.386 21.2373 131.081 20.2607 131.081 19.0303C131.081 17.8438 131.376 16.8477 131.967 16.042C132.558 15.2314 133.396 14.8262 134.479 14.8262ZM58.9521 29.2407H61.0029V35.0562L63.603 32.0532H66.1885L63.3979 35.1074L66.2983 40H63.7788L61.8672 36.5869L61.0029 37.4878V40H58.9521V29.2407ZM70.9053 38.5278C71.5156 38.5278 71.9844 38.3105 72.3115 37.876C72.6387 37.4414 72.8022 36.8237 72.8022 36.0229C72.8022 35.2222 72.6387 34.6069 72.3115 34.1772C71.9844 33.7427 71.5156 33.5254 70.9053 33.5254C70.2949 33.5254 69.8237 33.7427 69.4917 34.1772C69.1646 34.6069 69.001 35.2222 69.001 36.0229C69.001 36.8237 69.1646 37.4414 69.4917 37.876C69.8237 38.3105 70.2949 38.5278 70.9053 38.5278ZM74.9922 36.0229C74.9922 37.1948 74.6553 38.1982 73.9814 39.0332C73.3076 39.8633 72.2847 40.2783 70.9126 40.2783C69.5405 40.2783 68.5176 39.8633 67.8438 39.0332C67.1699 38.1982 66.833 37.1948 66.833 36.0229C66.833 34.8706 67.1699 33.8721 67.8438 33.0273C68.5176 32.1826 69.5405 31.7603 70.9126 31.7603C72.2847 31.7603 73.3076 32.1826 73.9814 33.0273C74.6553 33.8721 74.9922 34.8706 74.9922 36.0229ZM78.625 40H76.5376V29.2041H78.625V40ZM82.7998 40H80.7124V29.2041H82.7998V40ZM87.9927 33.5254C87.5093 33.5254 87.1333 33.6768 86.8647 33.9795C86.6011 34.2822 86.4351 34.6924 86.3667 35.21H89.6113C89.5771 34.6582 89.4087 34.2407 89.106 33.9575C88.8081 33.6694 88.437 33.5254 87.9927 33.5254ZM87.9927 31.8042C88.6567 31.8042 89.2549 31.9287 89.7871 32.1777C90.3193 32.4268 90.7588 32.8198 91.1055 33.3569C91.418 33.8306 91.6206 34.3799 91.7134 35.0049C91.7671 35.3711 91.7891 35.8984 91.7793 36.5869H86.3154C86.3447 37.3877 86.5962 37.9492 87.0698 38.2715C87.3579 38.4717 87.7046 38.5718 88.1099 38.5718C88.5396 38.5718 88.8887 38.4497 89.1572 38.2056C89.3037 38.0737 89.4331 37.8906 89.5454 37.6562H91.6768C91.623 38.1299 91.3765 38.6108 90.937 39.0991C90.2534 39.8755 89.2964 40.2637 88.0659 40.2637C87.0503 40.2637 86.1543 39.9365 85.3779 39.2822C84.6016 38.6279 84.2134 37.5635 84.2134 36.0889C84.2134 34.707 84.5625 33.6475 85.2607 32.9102C85.9639 32.1729 86.8745 31.8042 87.9927 31.8042ZM96.6206 38.2861C97.1089 38.2861 97.5215 38.103 97.8584 37.7368C98.1953 37.3657 98.3638 36.7773 98.3638 35.9717C98.3638 35.2148 98.2026 34.6387 97.8804 34.2432C97.563 33.8477 97.1357 33.6499 96.5986 33.6499C95.8662 33.6499 95.3608 33.9941 95.0825 34.6826C94.936 35.0488 94.8628 35.5005 94.8628 36.0376C94.8628 36.5015 94.9409 36.9141 95.0972 37.2754C95.3804 37.9492 95.8882 38.2861 96.6206 38.2861ZM96.1006 31.8262C96.501 31.8262 96.8501 31.8872 97.1479 32.0093C97.6558 32.2192 98.0659 32.605 98.3784 33.1665V32.0166H100.407V39.5898C100.407 40.6201 100.234 41.3965 99.8872 41.9189C99.2915 42.8174 98.1489 43.2666 96.4595 43.2666C95.439 43.2666 94.6064 43.0664 93.9619 42.666C93.3174 42.2656 92.9609 41.6675 92.8926 40.8716H95.1631C95.2217 41.1157 95.3169 41.2915 95.4487 41.3989C95.6733 41.5894 96.0518 41.6846 96.584 41.6846C97.3359 41.6846 97.8389 41.4331 98.0928 40.9302C98.2588 40.6079 98.3418 40.0659 98.3418 39.3042V38.7915C98.1416 39.1333 97.9268 39.3896 97.6973 39.5605C97.2822 39.8779 96.7427 40.0366 96.0786 40.0366C95.0532 40.0366 94.2329 39.6777 93.6177 38.96C93.0073 38.2373 92.7021 37.2607 92.7021 36.0303C92.7021 34.8438 92.9976 33.8477 93.5884 33.042C94.1792 32.2314 95.0166 31.8262 96.1006 31.8262ZM104.509 31.0645H102.392V29.1382H104.509V31.0645ZM102.392 32.0166H104.509V40H102.392V32.0166ZM109.687 33.5254C109.204 33.5254 108.828 33.6768 108.559 33.9795C108.295 34.2822 108.129 34.6924 108.061 35.21H111.306C111.271 34.6582 111.103 34.2407 110.8 33.9575C110.502 33.6694 110.131 33.5254 109.687 33.5254ZM109.687 31.8042C110.351 31.8042 110.949 31.9287 111.481 32.1777C112.014 32.4268 112.453 32.8198 112.8 33.3569C113.112 33.8306 113.315 34.3799 113.408 35.0049C113.461 35.3711 113.483 35.8984 113.474 36.5869H108.01C108.039 37.3877 108.291 37.9492 108.764 38.2715C109.052 38.4717 109.399 38.5718 109.804 38.5718C110.234 38.5718 110.583 38.4497 110.852 38.2056C110.998 38.0737 111.127 37.8906 111.24 37.6562H113.371C113.317 38.1299 113.071 38.6108 112.631 39.0991C111.948 39.8755 110.991 40.2637 109.76 40.2637C108.745 40.2637 107.849 39.9365 107.072 39.2822C106.296 38.6279 105.908 37.5635 105.908 36.0889C105.908 34.707 106.257 33.6475 106.955 32.9102C107.658 32.1729 108.569 31.8042 109.687 31.8042ZM114.067 33.5767V32.0898H115.18V29.8633H117.246V32.0898H118.542V33.5767H117.246V37.7954C117.246 38.1226 117.287 38.3276 117.37 38.4106C117.453 38.4888 117.707 38.5278 118.132 38.5278C118.195 38.5278 118.261 38.5278 118.33 38.5278C118.403 38.5229 118.474 38.5181 118.542 38.5132V40.0732L117.553 40.1099C116.567 40.144 115.893 39.9731 115.532 39.5972C115.297 39.3579 115.18 38.9893 115.18 38.4912V33.5767H114.067Z" fill="#333333"/>
<path d="M58.6738 82.6899C58.6738 80.8052 59.1792 79.3525 60.1899 78.332C61.0688 77.4434 62.187 76.999 63.5444 76.999C65.3608 76.999 66.689 77.5947 67.5288 78.7861C67.9927 79.4551 68.2417 80.1265 68.2759 80.8003H66.02C65.8735 80.2827 65.6855 79.8921 65.4561 79.6284C65.0459 79.1597 64.438 78.9253 63.6323 78.9253C62.812 78.9253 62.165 79.2573 61.6914 79.9214C61.2178 80.5806 60.981 81.5156 60.981 82.7266C60.981 83.9375 61.23 84.8457 61.728 85.4512C62.231 86.0518 62.8682 86.3521 63.6396 86.3521C64.4307 86.3521 65.0337 86.0933 65.4487 85.5757C65.6782 85.2974 65.8687 84.8799 66.02 84.3232H68.2539C68.0586 85.5 67.5581 86.457 66.7524 87.1943C65.9517 87.9316 64.9238 88.3003 63.6689 88.3003C62.1162 88.3003 60.8955 87.8022 60.0068 86.8062C59.1182 85.8052 58.6738 84.4331 58.6738 82.6899ZM73.3955 86.5278C74.0059 86.5278 74.4746 86.3105 74.8018 85.876C75.1289 85.4414 75.2925 84.8237 75.2925 84.0229C75.2925 83.2222 75.1289 82.6069 74.8018 82.1772C74.4746 81.7427 74.0059 81.5254 73.3955 81.5254C72.7852 81.5254 72.314 81.7427 71.9819 82.1772C71.6548 82.6069 71.4912 83.2222 71.4912 84.0229C71.4912 84.8237 71.6548 85.4414 71.9819 85.876C72.314 86.3105 72.7852 86.5278 73.3955 86.5278ZM77.4824 84.0229C77.4824 85.1948 77.1455 86.1982 76.4717 87.0332C75.7979 87.8633 74.7749 88.2783 73.4028 88.2783C72.0308 88.2783 71.0078 87.8633 70.334 87.0332C69.6602 86.1982 69.3232 85.1948 69.3232 84.0229C69.3232 82.8706 69.6602 81.8721 70.334 81.0273C71.0078 80.1826 72.0308 79.7603 73.4028 79.7603C74.7749 79.7603 75.7979 80.1826 76.4717 81.0273C77.1455 81.8721 77.4824 82.8706 77.4824 84.0229ZM84.4844 84.0083C84.4844 83.3931 84.3428 82.8486 84.0596 82.375C83.7812 81.9014 83.3271 81.6646 82.6973 81.6646C81.9404 81.6646 81.4204 82.0234 81.1372 82.7412C80.9907 83.1221 80.9175 83.6055 80.9175 84.1914C80.9175 85.1191 81.1641 85.771 81.6572 86.147C81.9502 86.3667 82.2969 86.4766 82.6973 86.4766C83.2783 86.4766 83.7202 86.252 84.0229 85.8027C84.3306 85.3535 84.4844 84.7554 84.4844 84.0083ZM83.2979 79.8408C84.2305 79.8408 85.019 80.1851 85.6636 80.8735C86.313 81.562 86.6377 82.5728 86.6377 83.9058C86.6377 85.312 86.3203 86.3838 85.6855 87.1211C85.0557 87.8584 84.2427 88.2271 83.2466 88.2271C82.6118 88.2271 82.0845 88.0684 81.6646 87.751C81.4351 87.5752 81.2104 87.3188 80.9907 86.9819V91.1421H78.9253V80.0166H80.9248V81.1958C81.1494 80.8491 81.3887 80.5757 81.6426 80.3755C82.1064 80.019 82.6582 79.8408 83.2979 79.8408ZM91.3032 81.5254C90.8198 81.5254 90.4438 81.6768 90.1753 81.9795C89.9116 82.2822 89.7456 82.6924 89.6772 83.21H92.9219C92.8877 82.6582 92.7192 82.2407 92.4165 81.9575C92.1187 81.6694 91.7476 81.5254 91.3032 81.5254ZM91.3032 79.8042C91.9673 79.8042 92.5654 79.9287 93.0977 80.1777C93.6299 80.4268 94.0693 80.8198 94.416 81.3569C94.7285 81.8306 94.9312 82.3799 95.0239 83.0049C95.0776 83.3711 95.0996 83.8984 95.0898 84.5869H89.626C89.6553 85.3877 89.9067 85.9492 90.3804 86.2715C90.6685 86.4717 91.0151 86.5718 91.4204 86.5718C91.8501 86.5718 92.1992 86.4497 92.4678 86.2056C92.6143 86.0737 92.7437 85.8906 92.856 85.6562H94.9873C94.9336 86.1299 94.687 86.6108 94.2476 87.0991C93.564 87.8755 92.6069 88.2637 91.3765 88.2637C90.3608 88.2637 89.4648 87.9365 88.6885 87.2822C87.9121 86.6279 87.5239 85.5635 87.5239 84.0889C87.5239 82.707 87.873 81.6475 88.5713 80.9102C89.2744 80.1729 90.1851 79.8042 91.3032 79.8042ZM100.927 79.8262C101.752 79.8262 102.426 80.0435 102.949 80.478C103.476 80.9077 103.74 81.623 103.74 82.624V88H101.601V83.144C101.601 82.7241 101.545 82.4019 101.433 82.1772C101.228 81.7671 100.837 81.562 100.261 81.562C99.5527 81.562 99.0669 81.8623 98.8032 82.4629C98.6665 82.7803 98.5981 83.1855 98.5981 83.6787V88H96.5181V80.0312H98.5322V81.1958C98.8008 80.7856 99.0547 80.4902 99.2939 80.3096C99.7236 79.9873 100.268 79.8262 100.927 79.8262ZM110.075 84.1182C109.943 84.2012 109.809 84.2695 109.672 84.3232C109.541 84.3721 109.357 84.4185 109.123 84.4624L108.654 84.5503C108.215 84.6284 107.9 84.7236 107.709 84.8359C107.387 85.0264 107.226 85.3218 107.226 85.7222C107.226 86.0786 107.324 86.3374 107.519 86.4985C107.719 86.6548 107.961 86.7329 108.244 86.7329C108.693 86.7329 109.106 86.6011 109.482 86.3374C109.863 86.0737 110.061 85.5928 110.075 84.8945V84.1182ZM108.808 83.144C109.194 83.0952 109.47 83.0342 109.636 82.9609C109.934 82.834 110.083 82.6362 110.083 82.3677C110.083 82.0405 109.968 81.8159 109.738 81.6938C109.514 81.5669 109.182 81.5034 108.742 81.5034C108.249 81.5034 107.9 81.6255 107.695 81.8696C107.548 82.0503 107.451 82.2944 107.402 82.6021H105.388C105.432 81.9038 105.627 81.3301 105.974 80.8809C106.525 80.1777 107.473 79.8262 108.815 79.8262C109.689 79.8262 110.466 79.9995 111.145 80.3462C111.823 80.6929 112.163 81.3472 112.163 82.3091V85.9712C112.163 86.2251 112.167 86.5327 112.177 86.894C112.192 87.1675 112.233 87.353 112.302 87.4507C112.37 87.5483 112.473 87.6289 112.609 87.6924V88H110.339C110.275 87.8389 110.231 87.6875 110.207 87.5459C110.183 87.4043 110.163 87.2432 110.148 87.0625C109.86 87.375 109.528 87.6411 109.152 87.8608C108.703 88.1196 108.195 88.249 107.629 88.249C106.906 88.249 106.308 88.0439 105.834 87.6338C105.366 87.2188 105.131 86.6328 105.131 85.876C105.131 84.8945 105.51 84.1841 106.267 83.7446C106.682 83.5054 107.292 83.3345 108.098 83.2319L108.808 83.144ZM117.451 86.2861C117.939 86.2861 118.352 86.103 118.688 85.7368C119.025 85.3657 119.194 84.7773 119.194 83.9717C119.194 83.2148 119.033 82.6387 118.71 82.2432C118.393 81.8477 117.966 81.6499 117.429 81.6499C116.696 81.6499 116.191 81.9941 115.913 82.6826C115.766 83.0488 115.693 83.5005 115.693 84.0376C115.693 84.5015 115.771 84.9141 115.927 85.2754C116.21 85.9492 116.718 86.2861 117.451 86.2861ZM116.931 79.8262C117.331 79.8262 117.68 79.8872 117.978 80.0093C118.486 80.2192 118.896 80.605 119.208 81.1665V80.0166H121.237V87.5898C121.237 88.6201 121.064 89.3965 120.717 89.9189C120.122 90.8174 118.979 91.2666 117.29 91.2666C116.269 91.2666 115.437 91.0664 114.792 90.666C114.147 90.2656 113.791 89.6675 113.723 88.8716H115.993C116.052 89.1157 116.147 89.2915 116.279 89.3989C116.503 89.5894 116.882 89.6846 117.414 89.6846C118.166 89.6846 118.669 89.4331 118.923 88.9302C119.089 88.6079 119.172 88.0659 119.172 87.3042V86.7915C118.972 87.1333 118.757 87.3896 118.527 87.5605C118.112 87.8779 117.573 88.0366 116.909 88.0366C115.883 88.0366 115.063 87.6777 114.448 86.96C113.837 86.2373 113.532 85.2607 113.532 84.0303C113.532 82.8438 113.828 81.8477 114.418 81.042C115.009 80.2314 115.847 79.8262 116.931 79.8262ZM127.595 79.8115C128.088 79.8115 128.535 79.897 128.935 80.0679C129.34 80.2388 129.672 80.5 129.931 80.8516C130.151 81.1494 130.285 81.457 130.334 81.7744C130.383 82.0869 130.407 82.5996 130.407 83.3125V88H128.276V83.144C128.276 82.7144 128.203 82.3677 128.056 82.104C127.866 81.7329 127.504 81.5474 126.972 81.5474C126.42 81.5474 126 81.7329 125.712 82.104C125.429 82.4702 125.288 82.9951 125.288 83.6787V88H123.208V77.2407H125.288V81.0566C125.59 80.5928 125.939 80.2705 126.335 80.0898C126.735 79.9043 127.155 79.8115 127.595 79.8115ZM135.512 81.5254C135.029 81.5254 134.653 81.6768 134.384 81.9795C134.121 82.2822 133.955 82.6924 133.886 83.21H137.131C137.097 82.6582 136.928 82.2407 136.625 81.9575C136.328 81.6694 135.957 81.5254 135.512 81.5254ZM135.512 79.8042C136.176 79.8042 136.774 79.9287 137.307 80.1777C137.839 80.4268 138.278 80.8198 138.625 81.3569C138.938 81.8306 139.14 82.3799 139.233 83.0049C139.287 83.3711 139.309 83.8984 139.299 84.5869H133.835C133.864 85.3877 134.116 85.9492 134.589 86.2715C134.877 86.4717 135.224 86.5718 135.629 86.5718C136.059 86.5718 136.408 86.4497 136.677 86.2056C136.823 86.0737 136.953 85.8906 137.065 85.6562H139.196C139.143 86.1299 138.896 86.6108 138.457 87.0991C137.773 87.8755 136.816 88.2637 135.585 88.2637C134.57 88.2637 133.674 87.9365 132.897 87.2822C132.121 86.6279 131.733 85.5635 131.733 84.0889C131.733 82.707 132.082 81.6475 132.78 80.9102C133.483 80.1729 134.394 79.8042 135.512 79.8042ZM145.136 79.8262C145.961 79.8262 146.635 80.0435 147.158 80.478C147.685 80.9077 147.949 81.623 147.949 82.624V88H145.81V83.144C145.81 82.7241 145.754 82.4019 145.642 82.1772C145.437 81.7671 145.046 81.562 144.47 81.562C143.762 81.562 143.276 81.8623 143.012 82.4629C142.875 82.7803 142.807 83.1855 142.807 83.6787V88H140.727V80.0312H142.741V81.1958C143.01 80.7856 143.264 80.4902 143.503 80.3096C143.933 79.9873 144.477 79.8262 145.136 79.8262ZM154.211 88V77.2041H156.445V81.3203H160.664V77.2041H162.905V88H160.664V83.1807H156.445V88H154.211Z" fill="#333333"/>
</svg>
