<svg width="178" height="143" viewBox="0 0 178 143" fill="none" xmlns="http://www.w3.org/2000/svg">
<path d="M52.5 86C50.8033 86 49 86.5257 49 87.5C49 88.4742 50.8033 89 52.5 89C54.1967 89 56 88.4742 56 87.5C56 86.5257 54.1967 86 52.5 86Z" fill="#333333"/>
<path d="M52.5 76C50.0187 76 48 78.0881 48 80.6546C48 82.2482 48.7328 83.9615 50.1782 85.747C51.2424 87.0617 52.2911 87.9065 52.3353 87.9418C52.3837 87.9806 52.4419 88 52.5 88C52.5581 88 52.6162 87.9806 52.6647 87.9418C52.7088 87.9065 53.7577 87.0617 54.8218 85.747C56.2672 83.9615 57 82.2481 57 80.6546C57 78.0881 54.9813 76 52.5 76ZM54.1875 80.6546C54.1875 81.6186 53.432 82.4001 52.5 82.4001C51.5681 82.4001 50.8126 81.6186 50.8126 80.6546C50.8126 79.6907 51.5681 78.9092 52.5 78.9092C53.432 78.9092 54.1875 79.6907 54.1875 80.6546Z" fill="#4980A8"/>
<path d="M20.2959 15.3477H16.6489V19H15.9883V11.1797H20.833V11.7437H16.6489V14.7837H20.2959V15.3477ZM24.5713 13.7363C24.4352 13.7113 24.2902 13.6987 24.1362 13.6987C23.7352 13.6987 23.395 13.8115 23.1157 14.0371C22.84 14.2591 22.6431 14.5832 22.5249 15.0093V19H21.8857V13.1885H22.5142L22.5249 14.1123C22.8651 13.4248 23.4111 13.0811 24.1631 13.0811C24.3421 13.0811 24.4836 13.1043 24.5874 13.1509L24.5713 13.7363ZM25.1299 16.0083C25.1299 15.4497 25.2373 14.9466 25.4521 14.499C25.6706 14.0514 25.9767 13.7041 26.3706 13.457C26.7681 13.2064 27.2174 13.0811 27.7188 13.0811C28.4922 13.0811 29.1188 13.3532 29.5986 13.8975C30.0785 14.4382 30.3184 15.1561 30.3184 16.0513V16.1855C30.3184 16.7477 30.2091 17.2544 29.9907 17.7056C29.7759 18.1532 29.4715 18.4987 29.0776 18.7422C28.6838 18.9857 28.2344 19.1074 27.7295 19.1074C26.9596 19.1074 26.333 18.8371 25.8496 18.2964C25.3698 17.7521 25.1299 17.0324 25.1299 16.1372V16.0083ZM25.7744 16.1855C25.7744 16.8802 25.9535 17.4513 26.3115 17.8989C26.6732 18.3429 27.1458 18.5649 27.7295 18.5649C28.3096 18.5649 28.7786 18.3429 29.1367 17.8989C29.4984 17.4513 29.6792 16.8623 29.6792 16.1318V16.0083C29.6792 15.5643 29.5968 15.1579 29.4321 14.7891C29.2674 14.4202 29.0365 14.1356 28.7393 13.9351C28.4421 13.731 28.1019 13.6289 27.7188 13.6289C27.1458 13.6289 26.6785 13.8545 26.3169 14.3057C25.9552 14.7533 25.7744 15.3405 25.7744 16.0674V16.1855ZM32.2358 13.1885L32.2573 14.1338C32.4722 13.7829 32.7407 13.5197 33.063 13.3442C33.3853 13.1688 33.7433 13.0811 34.1372 13.0811C35.0539 13.0811 35.6357 13.457 35.8828 14.209C36.0905 13.8473 36.368 13.5698 36.7153 13.3765C37.0627 13.1795 37.4458 13.0811 37.8647 13.0811C39.1108 13.0811 39.7464 13.7614 39.7715 15.1221V19H39.127V15.1704C39.1234 14.6512 39.0106 14.2663 38.7886 14.0156C38.5701 13.765 38.2121 13.6396 37.7144 13.6396C37.2524 13.6468 36.8621 13.7972 36.5435 14.0908C36.2248 14.3809 36.0475 14.7354 36.0117 15.1543V19H35.3672V15.1221C35.3636 14.6243 35.2454 14.2537 35.0127 14.0103C34.7835 13.7632 34.429 13.6396 33.9492 13.6396C33.5446 13.6396 33.1973 13.756 32.9072 13.9888C32.6172 14.2179 32.4023 14.5599 32.2627 15.0146V19H31.6182V13.1885H32.2358Z" fill="#333333"/>
<path d="M35.2949 76.7437H32.6147V84H31.9541V76.7437H29.2793V76.1797H35.2949V76.7437ZM35.5205 81.0083C35.5205 80.4497 35.6279 79.9466 35.8428 79.499C36.0612 79.0514 36.3674 78.7041 36.7612 78.457C37.1587 78.2064 37.6081 78.0811 38.1094 78.0811C38.8828 78.0811 39.5094 78.3532 39.9893 78.8975C40.4691 79.4382 40.709 80.1561 40.709 81.0513V81.1855C40.709 81.7477 40.5998 82.2544 40.3813 82.7056C40.1665 83.1532 39.8621 83.4987 39.4683 83.7422C39.0744 83.9857 38.625 84.1074 38.1201 84.1074C37.3503 84.1074 36.7236 83.8371 36.2402 83.2964C35.7604 82.7521 35.5205 82.0324 35.5205 81.1372V81.0083ZM36.165 81.1855C36.165 81.8802 36.3441 82.4513 36.7021 82.8989C37.0638 83.3429 37.5365 83.5649 38.1201 83.5649C38.7002 83.5649 39.1693 83.3429 39.5273 82.8989C39.889 82.4513 40.0698 81.8623 40.0698 81.1318V81.0083C40.0698 80.5643 39.9875 80.1579 39.8228 79.7891C39.658 79.4202 39.4271 79.1356 39.1299 78.9351C38.8327 78.731 38.4925 78.6289 38.1094 78.6289C37.5365 78.6289 37.0692 78.8545 36.7075 79.3057C36.3459 79.7533 36.165 80.3405 36.165 81.0674V81.1855Z" fill="#333333"/>
<circle cx="52" cy="16" r="3" fill="#B32B32"/>
<line x1="52.25" y1="25" x2="52.25" y2="30" stroke="#333333" stroke-width="0.5"/>
<line x1="52.25" y1="32" x2="52.25" y2="37" stroke="#333333" stroke-width="0.5"/>
<line x1="52.25" y1="39" x2="52.25" y2="44" stroke="#333333" stroke-width="0.5"/>
<line x1="52.25" y1="46" x2="52.25" y2="51" stroke="#333333" stroke-width="0.5"/>
<line x1="52.25" y1="53" x2="52.25" y2="58" stroke="#333333" stroke-width="0.5"/>
<line x1="52.25" y1="60" x2="52.25" y2="65" stroke="#333333" stroke-width="0.5"/>
<line x1="52.25" y1="67" x2="52.25" y2="72" stroke="#333333" stroke-width="0.5"/>
<path d="M62.1709 31.376L62.228 31.7495L62.417 31.3584L65.3965 25.606H65.6602L62.3511 32H62.0654L60.7339 25.5972H60.9844L62.1709 31.376ZM67.0752 32.0879C66.6943 32.0879 66.3662 31.981 66.0908 31.7671C65.8154 31.5532 65.6162 31.2617 65.4932 30.8926C65.373 30.5205 65.3423 30.1309 65.4009 29.7236L65.436 29.5039C65.5063 29.0762 65.6558 28.6763 65.8843 28.3042C66.1157 27.9321 66.3896 27.6479 66.7061 27.4517C67.0225 27.2554 67.3608 27.1572 67.7212 27.1572C68.2017 27.1572 68.5781 27.3345 68.8506 27.689C69.123 28.0435 69.2388 28.4976 69.1978 29.0513L69.1846 29.1875L69.145 29.4644H65.6909L65.6426 29.7236C65.6016 29.9697 65.6001 30.2188 65.6382 30.4707C65.7026 30.8896 65.8623 31.2251 66.1172 31.4771C66.375 31.7261 66.6929 31.8521 67.0708 31.855C67.6187 31.8608 68.1123 31.644 68.5518 31.2046L68.71 31.3276C68.2764 31.8345 67.7314 32.0879 67.0752 32.0879ZM67.7212 27.3945C67.27 27.3945 66.8657 27.5645 66.5083 27.9043C66.1538 28.2412 65.8901 28.6821 65.7173 29.2271H68.9253L68.9385 29.1699C68.9766 28.959 68.9795 28.748 68.9473 28.5371C68.8945 28.1914 68.7568 27.9146 68.5342 27.7065C68.3145 27.4985 68.0435 27.3945 67.7212 27.3945ZM72.8804 30.8354C72.9858 30.2847 72.5845 29.8936 71.6763 29.6621L71.1885 29.5215C70.5146 29.3018 70.2188 28.9136 70.3008 28.3569C70.3535 27.9966 70.5439 27.7065 70.8721 27.4868C71.2002 27.2671 71.5811 27.1572 72.0146 27.1572C72.4922 27.1572 72.8657 27.2803 73.1353 27.5264C73.4048 27.7725 73.519 28.1021 73.478 28.5151H73.2407C73.2759 28.1812 73.1777 27.9116 72.9463 27.7065C72.7148 27.4985 72.4058 27.3945 72.019 27.3945C71.644 27.3945 71.3174 27.481 71.0391 27.6538C70.7607 27.8267 70.5938 28.0581 70.5381 28.3481C70.4502 28.814 70.7197 29.145 71.3467 29.3413L72.0015 29.5303L72.2212 29.605C72.9038 29.854 73.2026 30.2656 73.1177 30.8398C73.062 31.2178 72.8657 31.521 72.5288 31.7495C72.1919 31.9751 71.7891 32.0879 71.3203 32.0879C70.8311 32.0879 70.4399 31.9692 70.147 31.7319C69.854 31.4917 69.728 31.1782 69.769 30.7915H70.002C69.9873 31.1196 70.0957 31.3789 70.3271 31.5693C70.5615 31.7568 70.8911 31.8506 71.3159 31.8506C71.7202 31.8418 72.0688 31.7451 72.3618 31.5605C72.6548 31.373 72.8276 31.1313 72.8804 30.8354ZM75.7368 25.9619L75.5171 27.2451H76.5586L76.5278 27.4868H75.4731L74.8711 30.9673L74.8535 31.209C74.8447 31.4082 74.8857 31.5649 74.9766 31.6792C75.0674 31.7905 75.2051 31.8477 75.3896 31.8506C75.4717 31.8506 75.6313 31.8374 75.8687 31.811L75.8774 32.0352C75.7427 32.0703 75.583 32.0879 75.3984 32.0879C74.9004 32.0879 74.6411 31.8315 74.6206 31.3188C74.6147 31.1694 74.625 31.0171 74.6514 30.8618L75.2314 27.4868H74.3833L74.4185 27.2451H75.2754L75.4951 25.9619H75.7368ZM78.7207 32.0879C78.3398 32.0879 78.0117 31.981 77.7363 31.7671C77.4609 31.5532 77.2617 31.2617 77.1387 30.8926C77.0186 30.5205 76.9878 30.1309 77.0464 29.7236L77.0815 29.5039C77.1519 29.0762 77.3013 28.6763 77.5298 28.3042C77.7612 27.9321 78.0352 27.6479 78.3516 27.4517C78.668 27.2554 79.0063 27.1572 79.3667 27.1572C79.8472 27.1572 80.2236 27.3345 80.4961 27.689C80.7686 28.0435 80.8843 28.4976 80.8433 29.0513L80.8301 29.1875L80.7905 29.4644H77.3364L77.2881 29.7236C77.2471 29.9697 77.2456 30.2188 77.2837 30.4707C77.3481 30.8896 77.5078 31.2251 77.7627 31.4771C78.0205 31.7261 78.3384 31.8521 78.7163 31.855C79.2642 31.8608 79.7578 31.644 80.1973 31.2046L80.3555 31.3276C79.9219 31.8345 79.377 32.0879 78.7207 32.0879ZM79.3667 27.3945C78.9155 27.3945 78.5112 27.5645 78.1538 27.9043C77.7993 28.2412 77.5356 28.6821 77.3628 29.2271H80.5708L80.584 29.1699C80.6221 28.959 80.625 28.748 80.5928 28.5371C80.54 28.1914 80.4023 27.9146 80.1797 27.7065C79.96 27.4985 79.689 27.3945 79.3667 27.3945ZM84.2666 27.4121L83.981 27.3901C83.5884 27.3901 83.2236 27.5352 82.8867 27.8252C82.5498 28.1152 82.3242 28.4683 82.21 28.8843L81.6694 32H81.4321L82.2495 27.2451H82.4868L82.3022 28.2339C82.5015 27.894 82.7446 27.6304 83.0317 27.4429C83.3188 27.2524 83.6382 27.1572 83.9897 27.1572C84.1011 27.1572 84.2124 27.1748 84.3237 27.21L84.2666 27.4121ZM86.1958 32.0879C85.8677 32.0879 85.5762 32.0161 85.3213 31.8726C85.0693 31.729 84.8818 31.521 84.7588 31.2485L84.6226 32H84.3853L85.5498 25.25H85.7871L85.2773 28.1108C85.4971 27.8032 85.7534 27.5674 86.0464 27.4033C86.3423 27.2393 86.6602 27.1572 87 27.1572C87.3076 27.1572 87.5698 27.2334 87.7866 27.3857C88.0034 27.5381 88.1616 27.7622 88.2612 28.0581C88.3638 28.3511 88.4092 28.6763 88.3975 29.0337C88.3887 29.2212 88.3711 29.4014 88.3447 29.5742L88.2876 29.8643C88.1353 30.5527 87.8745 31.0962 87.5054 31.4946C87.1362 31.8901 86.6997 32.0879 86.1958 32.0879ZM88.0986 29.5742L88.1514 29.104C88.1748 28.7847 88.147 28.4888 88.0679 28.2163C87.9917 27.9438 87.8613 27.7388 87.6768 27.6011C87.4951 27.4634 87.271 27.3945 87.0044 27.3945C86.6147 27.3945 86.2471 27.5117 85.9014 27.7461C85.5586 27.9805 85.3286 28.2705 85.2114 28.6162L84.8203 30.7959C84.8906 31.1357 85.0474 31.3965 85.2905 31.5781C85.5366 31.7598 85.8384 31.8506 86.1958 31.8506C86.6675 31.8506 87.0674 31.6572 87.3955 31.2705C87.7236 30.8809 87.9521 30.3462 88.0811 29.6665L88.0986 29.5742ZM92.0537 27.4121L91.7681 27.3901C91.3755 27.3901 91.0107 27.5352 90.6738 27.8252C90.3369 28.1152 90.1113 28.4683 89.9971 28.8843L89.4565 32H89.2192L90.0366 27.2451H90.2739L90.0894 28.2339C90.2886 27.894 90.5317 27.6304 90.8188 27.4429C91.106 27.2524 91.4253 27.1572 91.7769 27.1572C91.8882 27.1572 91.9995 27.1748 92.1108 27.21L92.0537 27.4121ZM92.168 29.5303C92.2412 29.0879 92.3892 28.6851 92.6118 28.3218C92.8345 27.9585 93.1128 27.6743 93.4468 27.4692C93.7808 27.2612 94.1455 27.1572 94.541 27.1572C94.8633 27.1572 95.1489 27.229 95.3979 27.3726C95.647 27.5161 95.8447 27.73 95.9912 28.0142C96.1377 28.2954 96.2212 28.6074 96.2417 28.9502C96.2505 29.1494 96.2329 29.4043 96.189 29.7148C96.1157 30.1572 95.9663 30.5615 95.7407 30.9277C95.5181 31.2939 95.2397 31.5796 94.9058 31.7847C94.5747 31.9868 94.2129 32.0879 93.8203 32.0879C93.4951 32.0879 93.208 32.0161 92.959 31.8726C92.7129 31.7261 92.5151 31.5137 92.3657 31.2354C92.2192 30.9541 92.1372 30.6392 92.1196 30.2905C92.1079 30.0942 92.124 29.8408 92.168 29.5303ZM92.3745 30.4707C92.4331 30.8955 92.5898 31.2324 92.8447 31.4814C93.0996 31.7275 93.4233 31.8506 93.8159 31.8506C94.2759 31.8506 94.6904 31.6895 95.0596 31.3672C95.4316 31.0449 95.6997 30.6099 95.8638 30.062C95.9985 29.6079 96.0381 29.1787 95.9824 28.7744C95.918 28.3496 95.7583 28.0142 95.5034 27.7681C95.2515 27.519 94.9321 27.3945 94.5454 27.3945C94.0854 27.3945 93.6694 27.5586 93.2974 27.8867C92.9253 28.2119 92.6572 28.644 92.4932 29.1831C92.3584 29.6313 92.3188 30.0605 92.3745 30.4707ZM97.1426 29.5742C97.2246 29.0967 97.3682 28.6689 97.5732 28.291C97.7812 27.9131 98.0317 27.6304 98.3247 27.4429C98.6177 27.2524 98.937 27.1572 99.2827 27.1572C99.6255 27.1572 99.9185 27.2437 100.162 27.4165C100.408 27.5864 100.583 27.8193 100.689 28.1152L100.847 27.2451H101.084L100.298 31.833C100.187 32.4863 99.9419 32.9961 99.564 33.3623C99.189 33.7314 98.7378 33.916 98.2104 33.916C97.6099 33.916 97.144 33.6465 96.813 33.1074L96.9932 32.958C97.2949 33.4414 97.6963 33.6831 98.1973 33.6831C98.6543 33.6831 99.0469 33.5278 99.375 33.2173C99.7061 32.9097 99.9272 32.4746 100.039 31.9121L100.17 31.2485C99.9595 31.5151 99.7075 31.7217 99.4146 31.8682C99.1245 32.0146 98.8081 32.0879 98.4653 32.0879C98.1548 32.0879 97.894 32.0117 97.6831 31.8594C97.4722 31.7041 97.3154 31.4785 97.2129 31.1826C97.1133 30.8838 97.0693 30.5557 97.0811 30.1982C97.0869 30.0312 97.1074 29.8232 97.1426 29.5742ZM97.3184 30.1323C97.2803 30.6655 97.3594 31.0859 97.5557 31.3936C97.7549 31.6982 98.0552 31.8506 98.4565 31.8506C98.8345 31.8506 99.1758 31.7583 99.4805 31.5737C99.7852 31.3862 100.034 31.124 100.228 30.7871L100.614 28.6294C100.556 28.228 100.411 27.9219 100.179 27.7109C99.9507 27.5 99.6519 27.3945 99.2827 27.3945C98.9077 27.3945 98.5737 27.5205 98.2808 27.7725C97.9878 28.0244 97.7607 28.3701 97.5996 28.8096C97.4385 29.249 97.3447 29.6899 97.3184 30.1323ZM104.798 32C104.789 31.7422 104.817 31.4521 104.881 31.1299C104.635 31.4316 104.342 31.6675 104.002 31.8374C103.666 32.0073 103.299 32.0908 102.904 32.0879C102.505 32.0879 102.188 31.9648 101.95 31.7188C101.713 31.4727 101.624 31.165 101.682 30.7959C101.755 30.3477 102.003 29.9976 102.425 29.7456C102.85 29.4937 103.387 29.3604 104.038 29.3457H105.167L105.294 28.6514C105.356 28.2617 105.278 27.9556 105.062 27.7329C104.845 27.5073 104.533 27.3945 104.125 27.3945C103.727 27.3945 103.367 27.5015 103.044 27.7153C102.722 27.9263 102.52 28.2046 102.438 28.5503L102.201 28.5415C102.283 28.1343 102.508 27.8018 102.877 27.5439C103.247 27.2861 103.663 27.1572 104.125 27.1572C104.609 27.1572 104.979 27.2949 105.237 27.5703C105.495 27.8428 105.59 28.2061 105.523 28.6602L105.088 31.2002L105.057 31.499C105.042 31.6543 105.048 31.8081 105.075 31.9604L105.07 32H104.798ZM102.899 31.855C103.292 31.8608 103.666 31.7671 104.02 31.5737C104.375 31.3774 104.676 31.0918 104.925 30.7168L105.127 29.5874H104.064C103.472 29.5991 102.983 29.7134 102.596 29.9302C102.212 30.144 101.985 30.4385 101.915 30.8135C101.862 31.1035 101.931 31.3481 102.122 31.5474C102.315 31.7466 102.574 31.8491 102.899 31.855ZM106.648 29.5742C106.73 29.0967 106.874 28.6689 107.079 28.291C107.287 27.9131 107.537 27.6304 107.83 27.4429C108.123 27.2524 108.442 27.1572 108.788 27.1572C109.122 27.1572 109.412 27.2407 109.658 27.4077C109.907 27.5747 110.087 27.812 110.199 28.1196L110.7 25.25H110.937L109.772 32H109.535L109.685 31.2397C109.474 31.5063 109.222 31.7144 108.929 31.8638C108.636 32.0132 108.316 32.0879 107.971 32.0879C107.66 32.0879 107.399 32.0117 107.188 31.8594C106.978 31.7041 106.821 31.4785 106.718 31.1826C106.619 30.8838 106.575 30.5557 106.586 30.1982C106.592 30.0312 106.613 29.8232 106.648 29.5742ZM106.828 30.1323C106.805 30.4546 106.83 30.7505 106.903 31.02C106.976 31.2896 107.102 31.4961 107.281 31.6396C107.462 31.7803 107.689 31.8506 107.962 31.8506C108.343 31.8535 108.684 31.7627 108.986 31.5781C109.291 31.3936 109.54 31.1416 109.733 30.8223L110.128 28.5942C110.067 28.2134 109.919 27.9189 109.685 27.7109C109.453 27.5 109.154 27.3945 108.788 27.3945C108.416 27.3945 108.085 27.519 107.795 27.7681C107.505 28.0142 107.278 28.3569 107.114 28.7964C106.95 29.2358 106.854 29.6812 106.828 30.1323ZM112.998 32.0879C112.617 32.0879 112.289 31.981 112.014 31.7671C111.738 31.5532 111.539 31.2617 111.416 30.8926C111.296 30.5205 111.265 30.1309 111.324 29.7236L111.359 29.5039C111.429 29.0762 111.579 28.6763 111.807 28.3042C112.039 27.9321 112.312 27.6479 112.629 27.4517C112.945 27.2554 113.284 27.1572 113.644 27.1572C114.125 27.1572 114.501 27.3345 114.773 27.689C115.046 28.0435 115.162 28.4976 115.121 29.0513L115.107 29.1875L115.068 29.4644H111.614L111.565 29.7236C111.524 29.9697 111.523 30.2188 111.561 30.4707C111.625 30.8896 111.785 31.2251 112.04 31.4771C112.298 31.7261 112.616 31.8521 112.994 31.855C113.542 31.8608 114.035 31.644 114.475 31.2046L114.633 31.3276C114.199 31.8345 113.654 32.0879 112.998 32.0879ZM113.644 27.3945C113.193 27.3945 112.789 27.5645 112.431 27.9043C112.077 28.2412 111.813 28.6821 111.64 29.2271H114.848L114.861 29.1699C114.899 28.959 114.902 28.748 114.87 28.5371C114.817 28.1914 114.68 27.9146 114.457 27.7065C114.237 27.4985 113.966 27.3945 113.644 27.3945ZM120.217 28.6162H120.608C121.115 28.6162 121.551 28.4917 121.917 28.2427C122.284 27.9907 122.505 27.6538 122.581 27.2319C122.657 26.7983 122.577 26.4438 122.339 26.1685C122.102 25.8901 121.761 25.751 121.315 25.751C120.858 25.751 120.458 25.8916 120.116 26.1729C119.776 26.4512 119.558 26.8203 119.461 27.2803L119.224 27.2759C119.314 26.7544 119.556 26.3311 119.949 26.0059C120.341 25.6777 120.797 25.5137 121.315 25.5137C121.825 25.5137 122.222 25.6763 122.506 26.0015C122.791 26.3237 122.895 26.7397 122.818 27.2495C122.771 27.5806 122.626 27.8765 122.383 28.1372C122.143 28.3979 121.824 28.5957 121.425 28.7305C121.803 28.8359 122.087 29.0293 122.278 29.3105C122.471 29.5889 122.539 29.9199 122.48 30.3037C122.401 30.8281 122.165 31.2573 121.772 31.5913C121.38 31.9224 120.911 32.0879 120.366 32.0879C120.006 32.0879 119.684 32.0088 119.399 31.8506C119.118 31.6924 118.909 31.4697 118.771 31.1826C118.633 30.8926 118.585 30.5718 118.626 30.2202H118.863C118.802 30.6831 118.915 31.0713 119.202 31.3848C119.489 31.6953 119.875 31.8506 120.362 31.8506C120.851 31.8506 121.266 31.7114 121.605 31.4331C121.948 31.1548 122.159 30.7842 122.238 30.3213C122.314 29.8584 122.208 29.4995 121.917 29.2446C121.63 28.9897 121.189 28.8623 120.595 28.8623H120.186L120.217 28.6162ZM123.051 33.1206L122.902 32.9712C123.215 32.6196 123.404 32.2593 123.469 31.8901L123.57 31.3013H123.807L123.715 31.855C123.63 32.3589 123.409 32.7808 123.051 33.1206ZM130.059 32H129.822L130.876 25.9136L128.982 26.5859L129.018 26.3311L131.101 25.584H131.158L130.059 32ZM136.734 25.5137L136.704 25.751C135.877 25.751 135.18 26.019 134.612 26.5552C134.043 27.0884 133.642 27.8296 133.408 28.7788C133.595 28.5269 133.821 28.3174 134.084 28.1504C134.459 27.9131 134.865 27.7944 135.302 27.7944C135.656 27.7944 135.957 27.8867 136.203 28.0713C136.449 28.2559 136.622 28.5078 136.721 28.8271C136.824 29.1465 136.847 29.501 136.792 29.8906C136.73 30.2949 136.595 30.6699 136.387 31.0156C136.182 31.3613 135.933 31.6265 135.64 31.811C135.347 31.9956 135.038 32.0879 134.713 32.0879C134.326 32.0879 133.994 31.9897 133.715 31.7935C133.44 31.5942 133.241 31.3188 133.118 30.9673C132.995 30.6157 132.962 30.2393 133.021 29.8379L133.122 29.1831C133.298 28.0522 133.696 27.1587 134.317 26.5024C134.938 25.8433 135.744 25.5137 136.734 25.5137ZM135.271 28.0317C134.861 28.0317 134.462 28.1548 134.076 28.4009C133.692 28.644 133.45 28.9341 133.351 29.271L133.258 29.8335C133.203 30.1997 133.226 30.541 133.329 30.8574C133.431 31.1738 133.601 31.4199 133.838 31.5957C134.076 31.7715 134.366 31.8579 134.708 31.855C135.066 31.8521 135.394 31.7261 135.693 31.4771C135.995 31.228 136.229 30.8882 136.396 30.4575C136.563 30.0269 136.62 29.6094 136.567 29.2051C136.518 28.8359 136.378 28.5488 136.15 28.3438C135.921 28.1357 135.628 28.0317 135.271 28.0317ZM139.252 28.6162H139.644C140.15 28.6162 140.587 28.4917 140.953 28.2427C141.319 27.9907 141.541 27.6538 141.617 27.2319C141.693 26.7983 141.612 26.4438 141.375 26.1685C141.138 25.8901 140.796 25.751 140.351 25.751C139.894 25.751 139.494 25.8916 139.151 26.1729C138.812 26.4512 138.593 26.8203 138.497 27.2803L138.259 27.2759C138.35 26.7544 138.592 26.3311 138.984 26.0059C139.377 25.6777 139.833 25.5137 140.351 25.5137C140.861 25.5137 141.258 25.6763 141.542 26.0015C141.826 26.3237 141.93 26.7397 141.854 27.2495C141.807 27.5806 141.662 27.8765 141.419 28.1372C141.179 28.3979 140.859 28.5957 140.461 28.7305C140.839 28.8359 141.123 29.0293 141.313 29.3105C141.507 29.5889 141.574 29.9199 141.516 30.3037C141.437 30.8281 141.201 31.2573 140.808 31.5913C140.416 31.9224 139.947 32.0879 139.402 32.0879C139.042 32.0879 138.719 32.0088 138.435 31.8506C138.154 31.6924 137.944 31.4697 137.807 31.1826C137.669 30.8926 137.621 30.5718 137.662 30.2202H137.899C137.837 30.6831 137.95 31.0713 138.237 31.3848C138.524 31.6953 138.911 31.8506 139.397 31.8506C139.887 31.8506 140.301 31.7114 140.641 31.4331C140.984 31.1548 141.195 30.7842 141.274 30.3213C141.35 29.8584 141.243 29.4995 140.953 29.2446C140.666 28.9897 140.225 28.8623 139.63 28.8623H139.222L139.252 28.6162ZM144.135 32.0879C143.801 32.0879 143.52 32.0044 143.291 31.8374C143.062 31.6704 142.894 31.4243 142.786 31.0991C142.68 30.771 142.636 30.3975 142.654 29.9785L142.689 29.5566L142.9 28.3086C143.049 27.4385 143.323 26.7544 143.722 26.2563C144.12 25.7583 144.62 25.5093 145.22 25.5093C145.56 25.5093 145.844 25.5942 146.073 25.7642C146.301 25.9312 146.468 26.1802 146.574 26.5112C146.679 26.8423 146.722 27.2129 146.701 27.623L146.657 28.0977L146.442 29.3457C146.29 30.21 146.014 30.8838 145.616 31.3672C145.217 31.8477 144.724 32.0879 144.135 32.0879ZM146.464 27.1396C146.426 26.6768 146.301 26.3296 146.09 26.0981C145.879 25.8638 145.591 25.7466 145.225 25.7466C144.697 25.7466 144.252 25.9722 143.889 26.4233C143.528 26.8716 143.276 27.5088 143.133 28.335L142.931 29.5215L142.896 29.895C142.866 30.2583 142.891 30.5938 142.97 30.9014C143.049 31.209 143.187 31.4448 143.383 31.6089C143.58 31.77 143.829 31.8506 144.13 31.8506C144.655 31.8506 145.096 31.6294 145.453 31.187C145.813 30.7417 146.064 30.1235 146.205 29.3325L146.389 28.2866C146.465 27.856 146.49 27.4736 146.464 27.1396ZM62.2192 39.6382L61.0459 40.5918L60.6328 43H60.3955L61.4985 36.6016H61.7358L61.0986 40.2754L62.2764 39.2734L65.3174 36.6016L65.6865 36.606L62.3994 39.4888L64.7769 43H64.4868L62.2192 39.6382ZM68.3408 38.1572C68.6719 38.1572 68.9766 38.2378 69.2549 38.3989L69.7559 37.6475L70.0371 37.6519L69.457 38.5396C69.832 38.897 70.0195 39.3804 70.0195 39.9897C70.0195 40.1714 70.0063 40.3516 69.98 40.5303L69.9492 40.6973C69.8115 41.418 69.5215 41.9966 69.0791 42.4331C68.6396 42.8696 68.127 43.0879 67.541 43.0879C67.2363 43.0879 66.9507 43.0176 66.6841 42.877L66.1831 43.6328L65.8975 43.6284L66.4775 42.7495C66.0703 42.4067 65.8652 41.9131 65.8623 41.2686C65.8564 40.8906 65.9121 40.5083 66.0293 40.1216C66.1494 39.7349 66.3223 39.3936 66.5479 39.0977C66.7764 38.8018 67.0415 38.5718 67.3433 38.4077C67.6479 38.2407 67.9805 38.1572 68.3408 38.1572ZM66.1392 40.7148C66.1128 40.876 66.0981 41.0386 66.0952 41.2026C66.0894 41.4663 66.1304 41.7139 66.2183 41.9453C66.3062 42.1768 66.4321 42.3716 66.5962 42.5298L69.1318 38.623C68.8975 38.4707 68.6353 38.3945 68.3452 38.3945C67.8267 38.3945 67.3638 38.5996 66.9565 39.0098C66.5493 39.417 66.2842 39.9458 66.1611 40.5962L66.1392 40.7148ZM69.7427 40.5303C69.769 40.375 69.7822 40.2183 69.7822 40.0601C69.7822 39.5269 69.6299 39.0962 69.3252 38.7681L66.7983 42.666C67.0151 42.7891 67.2612 42.8506 67.5366 42.8506C68.0552 42.8506 68.5166 42.6484 68.9209 42.2441C69.3281 41.8398 69.5947 41.3081 69.7207 40.6489L69.7427 40.5303ZM72.4937 43.0879C72.1655 43.0879 71.874 43.0161 71.6191 42.8726C71.3672 42.729 71.1797 42.521 71.0566 42.2485L70.9204 43H70.6831L71.8477 36.25H72.085L71.5752 39.1108C71.7949 38.8032 72.0513 38.5674 72.3442 38.4033C72.6401 38.2393 72.958 38.1572 73.2979 38.1572C73.6055 38.1572 73.8677 38.2334 74.0845 38.3857C74.3013 38.5381 74.4595 38.7622 74.5591 39.0581C74.6616 39.3511 74.707 39.6763 74.6953 40.0337C74.6865 40.2212 74.6689 40.4014 74.6426 40.5742L74.5854 40.8643C74.4331 41.5527 74.1724 42.0962 73.8032 42.4946C73.4341 42.8901 72.9976 43.0879 72.4937 43.0879ZM74.3965 40.5742L74.4492 40.104C74.4727 39.7847 74.4448 39.4888 74.3657 39.2163C74.2896 38.9438 74.1592 38.7388 73.9746 38.6011C73.793 38.4634 73.5688 38.3945 73.3022 38.3945C72.9126 38.3945 72.5449 38.5117 72.1992 38.7461C71.8564 38.9805 71.6265 39.2705 71.5093 39.6162L71.1182 41.7959C71.1885 42.1357 71.3452 42.3965 71.5884 42.5781C71.8345 42.7598 72.1362 42.8506 72.4937 42.8506C72.9653 42.8506 73.3652 42.6572 73.6934 42.2705C74.0215 41.8809 74.25 41.3462 74.3789 40.6665L74.3965 40.5742ZM77.2529 43.0879C76.8721 43.0879 76.5439 42.981 76.2686 42.7671C75.9932 42.5532 75.7939 42.2617 75.6709 41.8926C75.5508 41.5205 75.52 41.1309 75.5786 40.7236L75.6138 40.5039C75.6841 40.0762 75.8335 39.6763 76.062 39.3042C76.2935 38.9321 76.5674 38.6479 76.8838 38.4517C77.2002 38.2554 77.5386 38.1572 77.8989 38.1572C78.3794 38.1572 78.7559 38.3345 79.0283 38.689C79.3008 39.0435 79.4165 39.4976 79.3755 40.0513L79.3623 40.1875L79.3228 40.4644H75.8687L75.8203 40.7236C75.7793 40.9697 75.7778 41.2188 75.8159 41.4707C75.8804 41.8896 76.04 42.2251 76.2949 42.4771C76.5527 42.7261 76.8706 42.8521 77.2485 42.855C77.7964 42.8608 78.29 42.644 78.7295 42.2046L78.8877 42.3276C78.4541 42.8345 77.9092 43.0879 77.2529 43.0879ZM77.8989 38.3945C77.4478 38.3945 77.0435 38.5645 76.686 38.9043C76.3315 39.2412 76.0679 39.6821 75.895 40.2271H79.103L79.1162 40.1699C79.1543 39.959 79.1572 39.748 79.125 39.5371C79.0723 39.1914 78.9346 38.9146 78.7119 38.7065C78.4922 38.4985 78.2212 38.3945 77.8989 38.3945ZM80.8125 39.3525C81.0498 38.9688 81.3296 38.6743 81.6519 38.4692C81.9741 38.2612 82.3066 38.1572 82.6494 38.1572C83.0127 38.1572 83.2983 38.251 83.5063 38.4385C83.7144 38.626 83.8345 38.897 83.8667 39.2515C83.8843 39.4741 83.8726 39.707 83.8315 39.9502L83.3042 43H83.0669L83.5942 39.9502C83.6294 39.7451 83.644 39.543 83.6382 39.3438C83.6235 39.0332 83.5312 38.7959 83.3613 38.6318C83.1943 38.4678 82.9541 38.3872 82.6406 38.3901C82.2393 38.396 81.8525 38.5527 81.4805 38.8604C81.1113 39.165 80.8608 39.5298 80.729 39.9546L80.2017 43H79.9644L80.7817 38.2451H81.019L80.8125 39.3525ZM85.6377 39.3525C85.875 38.9688 86.1548 38.6743 86.4771 38.4692C86.7993 38.2612 87.1318 38.1572 87.4746 38.1572C87.8379 38.1572 88.1235 38.251 88.3315 38.4385C88.5396 38.626 88.6597 38.897 88.6919 39.2515C88.7095 39.4741 88.6978 39.707 88.6567 39.9502L88.1294 43H87.8921L88.4194 39.9502C88.4546 39.7451 88.4692 39.543 88.4634 39.3438C88.4487 39.0332 88.3564 38.7959 88.1865 38.6318C88.0195 38.4678 87.7793 38.3872 87.4658 38.3901C87.0645 38.396 86.6777 38.5527 86.3057 38.8604C85.9365 39.165 85.686 39.5298 85.5542 39.9546L85.0269 43H84.7896L85.9541 36.25H86.1914L85.6377 39.3525ZM92.6338 43C92.625 42.7422 92.6528 42.4521 92.7173 42.1299C92.4712 42.4316 92.1782 42.6675 91.8384 42.8374C91.5015 43.0073 91.1353 43.0908 90.7397 43.0879C90.3413 43.0879 90.0234 42.9648 89.7861 42.7188C89.5488 42.4727 89.4595 42.165 89.5181 41.7959C89.5913 41.3477 89.8389 40.9976 90.2607 40.7456C90.6855 40.4937 91.2231 40.3604 91.8735 40.3457H93.0029L93.1304 39.6514C93.1919 39.2617 93.1143 38.9556 92.8975 38.7329C92.6807 38.5073 92.3687 38.3945 91.9614 38.3945C91.563 38.3945 91.2026 38.5015 90.8804 38.7153C90.5581 38.9263 90.356 39.2046 90.2739 39.5503L90.0366 39.5415C90.1187 39.1343 90.3442 38.8018 90.7134 38.5439C91.0825 38.2861 91.4985 38.1572 91.9614 38.1572C92.4448 38.1572 92.8154 38.2949 93.0732 38.5703C93.3311 38.8428 93.4263 39.2061 93.3589 39.6602L92.9238 42.2002L92.8931 42.499C92.8784 42.6543 92.8843 42.8081 92.9106 42.9604L92.9062 43H92.6338ZM90.7354 42.855C91.1279 42.8608 91.5015 42.7671 91.856 42.5737C92.2104 42.3774 92.5122 42.0918 92.7612 41.7168L92.9634 40.5874H91.8999C91.3081 40.5991 90.8188 40.7134 90.4321 40.9302C90.0483 41.144 89.8213 41.4385 89.751 41.8135C89.6982 42.1035 89.7671 42.3481 89.9575 42.5474C90.1509 42.7466 90.4102 42.8491 90.7354 42.855ZM95.6528 42.6133L97.9951 38.2495H98.2544L95.7275 43H95.4946L94.4355 38.2407H94.6816L95.6528 42.6133ZM99.2695 39.3525C99.5068 38.9688 99.7866 38.6743 100.109 38.4692C100.431 38.2612 100.764 38.1572 101.106 38.1572C101.47 38.1572 101.755 38.251 101.963 38.4385C102.171 38.626 102.292 38.897 102.324 39.2515C102.341 39.4741 102.33 39.707 102.289 39.9502L101.761 43H101.524L102.051 39.9502C102.086 39.7451 102.101 39.543 102.095 39.3438C102.081 39.0332 101.988 38.7959 101.818 38.6318C101.651 38.4678 101.411 38.3872 101.098 38.3901C100.696 38.396 100.31 38.5527 99.9375 38.8604C99.5684 39.165 99.3179 39.5298 99.186 39.9546L98.6587 43H98.4214L99.2388 38.2451H99.4761L99.2695 39.3525ZM107.276 42.376L107.333 42.7495L107.522 42.3584L110.502 36.606H110.766L107.457 43H107.171L105.839 36.5972H106.09L107.276 42.376Z" fill="#707070"/>
<path d="M60.3911 97L61.5029 90.6016H63.1157C63.7485 90.6074 64.2217 90.7554 64.5352 91.0454C64.8516 91.3354 64.9688 91.7339 64.8867 92.2407C64.8223 92.6157 64.6743 92.9307 64.4429 93.1855C64.2114 93.4375 63.9111 93.6074 63.542 93.6953C63.917 93.7598 64.21 93.9385 64.4209 94.2314C64.6318 94.5244 64.708 94.8599 64.6494 95.2378C64.5645 95.7739 64.3154 96.2017 63.9023 96.521C63.4893 96.8403 62.9839 97 62.3862 97H60.3911ZM61.1777 93.8403L60.6724 96.7627H62.3818C62.918 96.7627 63.3677 96.6265 63.731 96.354C64.0972 96.0815 64.3242 95.7124 64.4121 95.2466C64.4883 94.8306 64.3901 94.4922 64.1177 94.2314C63.8481 93.9707 63.4644 93.8403 62.9663 93.8403H61.1777ZM61.2173 93.603H62.6104C63.1846 93.603 63.646 93.4858 63.9946 93.2515C64.3462 93.0142 64.5645 92.6714 64.6494 92.2231C64.7285 91.7954 64.6392 91.4614 64.3813 91.2212C64.1235 90.981 63.7148 90.8535 63.1553 90.8389H61.7007L61.2173 93.603ZM68.6045 97C68.5957 96.7422 68.6235 96.4521 68.688 96.1299C68.4419 96.4316 68.1489 96.6675 67.8091 96.8374C67.4722 97.0073 67.106 97.0908 66.7104 97.0879C66.312 97.0879 65.9941 96.9648 65.7568 96.7188C65.5195 96.4727 65.4302 96.165 65.4888 95.7959C65.562 95.3477 65.8096 94.9976 66.2314 94.7456C66.6562 94.4937 67.1938 94.3604 67.8442 94.3457H68.9736L69.1011 93.6514C69.1626 93.2617 69.085 92.9556 68.8682 92.7329C68.6514 92.5073 68.3394 92.3945 67.9321 92.3945C67.5337 92.3945 67.1733 92.5015 66.8511 92.7153C66.5288 92.9263 66.3267 93.2046 66.2446 93.5503L66.0073 93.5415C66.0894 93.1343 66.3149 92.8018 66.6841 92.5439C67.0532 92.2861 67.4692 92.1572 67.9321 92.1572C68.4155 92.1572 68.7861 92.2949 69.0439 92.5703C69.3018 92.8428 69.397 93.2061 69.3296 93.6602L68.8945 96.2002L68.8638 96.499C68.8491 96.6543 68.855 96.8081 68.8813 96.9604L68.877 97H68.6045ZM66.7061 96.855C67.0986 96.8608 67.4722 96.7671 67.8267 96.5737C68.1812 96.3774 68.4829 96.0918 68.7319 95.7168L68.9341 94.5874H67.8706C67.2788 94.5991 66.7896 94.7134 66.4028 94.9302C66.019 95.144 65.792 95.4385 65.7217 95.8135C65.6689 96.1035 65.7378 96.3481 65.9282 96.5474C66.1216 96.7466 66.3809 96.8491 66.7061 96.855ZM71.0918 93.3525C71.3291 92.9688 71.6089 92.6743 71.9312 92.4692C72.2534 92.2612 72.5859 92.1572 72.9287 92.1572C73.292 92.1572 73.5776 92.251 73.7856 92.4385C73.9937 92.626 74.1138 92.897 74.146 93.2515C74.1636 93.4741 74.1519 93.707 74.1108 93.9502L73.5835 97H73.3462L73.8735 93.9502C73.9087 93.7451 73.9233 93.543 73.9175 93.3438C73.9028 93.0332 73.8105 92.7959 73.6406 92.6318C73.4736 92.4678 73.2334 92.3872 72.9199 92.3901C72.5186 92.396 72.1318 92.5527 71.7598 92.8604C71.3906 93.165 71.1401 93.5298 71.0083 93.9546L70.481 97H70.2437L71.061 92.2451H71.2983L71.0918 93.3525ZM76.8047 97.0879C76.4238 97.0879 76.0957 96.981 75.8203 96.7671C75.5449 96.5532 75.3457 96.2617 75.2227 95.8926C75.1025 95.5205 75.0718 95.1309 75.1304 94.7236L75.1655 94.5039C75.2358 94.0762 75.3853 93.6763 75.6138 93.3042C75.8452 92.9321 76.1191 92.6479 76.4355 92.4517C76.752 92.2554 77.0903 92.1572 77.4507 92.1572C77.9312 92.1572 78.3076 92.3345 78.5801 92.689C78.8525 93.0435 78.9683 93.4976 78.9272 94.0513L78.9141 94.1875L78.8745 94.4644H75.4204L75.3721 94.7236C75.3311 94.9697 75.3296 95.2188 75.3677 95.4707C75.4321 95.8896 75.5918 96.2251 75.8467 96.4771C76.1045 96.7261 76.4224 96.8521 76.8003 96.855C77.3481 96.8608 77.8418 96.644 78.2812 96.2046L78.4395 96.3276C78.0059 96.8345 77.4609 97.0879 76.8047 97.0879ZM77.4507 92.3945C76.9995 92.3945 76.5952 92.5645 76.2378 92.9043C75.8833 93.2412 75.6196 93.6821 75.4468 94.2271H78.6548L78.668 94.1699C78.7061 93.959 78.709 93.748 78.6768 93.5371C78.624 93.1914 78.4863 92.9146 78.2637 92.7065C78.0439 92.4985 77.7729 92.3945 77.4507 92.3945ZM79.7139 94.5742C79.7959 94.0967 79.9395 93.6689 80.1445 93.291C80.3525 92.9131 80.603 92.6304 80.896 92.4429C81.189 92.2524 81.5083 92.1572 81.854 92.1572C82.1968 92.1572 82.4897 92.2437 82.7329 92.4165C82.979 92.5864 83.1548 92.8193 83.2603 93.1152L83.4185 92.2451H83.6558L82.8691 96.833C82.7578 97.4863 82.5132 97.9961 82.1353 98.3623C81.7603 98.7314 81.3091 98.916 80.7817 98.916C80.1812 98.916 79.7153 98.6465 79.3843 98.1074L79.5645 97.958C79.8662 98.4414 80.2676 98.6831 80.7686 98.6831C81.2256 98.6831 81.6182 98.5278 81.9463 98.2173C82.2773 97.9097 82.4985 97.4746 82.6099 96.9121L82.7417 96.2485C82.5308 96.5151 82.2788 96.7217 81.9858 96.8682C81.6958 97.0146 81.3794 97.0879 81.0366 97.0879C80.7261 97.0879 80.4653 97.0117 80.2544 96.8594C80.0435 96.7041 79.8867 96.4785 79.7842 96.1826C79.6846 95.8838 79.6406 95.5557 79.6523 95.1982C79.6582 95.0312 79.6787 94.8232 79.7139 94.5742ZM79.8896 95.1323C79.8516 95.6655 79.9307 96.0859 80.127 96.3936C80.3262 96.6982 80.6265 96.8506 81.0278 96.8506C81.4058 96.8506 81.7471 96.7583 82.0518 96.5737C82.3564 96.3862 82.6055 96.124 82.7988 95.7871L83.1855 93.6294C83.127 93.228 82.9819 92.9219 82.7505 92.7109C82.522 92.5 82.2231 92.3945 81.854 92.3945C81.479 92.3945 81.145 92.5205 80.8521 92.7725C80.5591 93.0244 80.332 93.3701 80.1709 93.8096C80.0098 94.249 79.916 94.6899 79.8896 95.1323ZM87.3691 97C87.3604 96.7422 87.3882 96.4521 87.4526 96.1299C87.2065 96.4316 86.9136 96.6675 86.5737 96.8374C86.2368 97.0073 85.8706 97.0908 85.4751 97.0879C85.0767 97.0879 84.7588 96.9648 84.5215 96.7188C84.2842 96.4727 84.1948 96.165 84.2534 95.7959C84.3267 95.3477 84.5742 94.9976 84.9961 94.7456C85.4209 94.4937 85.9585 94.3604 86.6089 94.3457H87.7383L87.8657 93.6514C87.9272 93.2617 87.8496 92.9556 87.6328 92.7329C87.416 92.5073 87.104 92.3945 86.6968 92.3945C86.2983 92.3945 85.938 92.5015 85.6157 92.7153C85.2935 92.9263 85.0913 93.2046 85.0093 93.5503L84.772 93.5415C84.854 93.1343 85.0796 92.8018 85.4487 92.5439C85.8179 92.2861 86.2339 92.1572 86.6968 92.1572C87.1802 92.1572 87.5508 92.2949 87.8086 92.5703C88.0664 92.8428 88.1616 93.2061 88.0942 93.6602L87.6592 96.2002L87.6284 96.499C87.6138 96.6543 87.6196 96.8081 87.646 96.9604L87.6416 97H87.3691ZM85.4707 96.855C85.8633 96.8608 86.2368 96.7671 86.5913 96.5737C86.9458 96.3774 87.2476 96.0918 87.4966 95.7168L87.6987 94.5874H86.6353C86.0435 94.5991 85.5542 94.7134 85.1675 94.9302C84.7837 95.144 84.5566 95.4385 84.4863 95.8135C84.4336 96.1035 84.5024 96.3481 84.6929 96.5474C84.8862 96.7466 85.1455 96.8491 85.4707 96.855ZM86.4287 90.9268C86.4668 90.7041 86.5693 90.521 86.7363 90.3774C86.9033 90.2339 87.0835 90.1621 87.2769 90.1621C87.4819 90.1621 87.6431 90.2397 87.7603 90.395C87.8804 90.5474 87.9258 90.7261 87.8965 90.9312C87.8672 91.1333 87.7705 91.3076 87.6064 91.4541C87.4453 91.6006 87.2607 91.6738 87.0527 91.6738C86.8594 91.6738 86.6982 91.6021 86.5693 91.4585C86.4434 91.3149 86.3965 91.1377 86.4287 90.9268ZM86.666 91.1201C86.707 91.3281 86.8374 91.4321 87.0571 91.4321C87.2124 91.4321 87.3442 91.3823 87.4526 91.2827C87.564 91.1802 87.6343 91.0615 87.6636 90.9268C87.6753 90.8594 87.6768 90.7935 87.668 90.729C87.6475 90.6265 87.6006 90.5474 87.5273 90.4917C87.457 90.4331 87.3721 90.4038 87.2725 90.4038C87.0791 90.4038 86.9209 90.4844 86.7979 90.6455C86.6748 90.8037 86.6309 90.9619 86.666 91.1201ZM91.8428 92.4121L91.5571 92.3901C91.1646 92.3901 90.7998 92.5352 90.4629 92.8252C90.126 93.1152 89.9004 93.4683 89.7861 93.8843L89.2456 97H89.0083L89.8257 92.2451H90.063L89.8784 93.2339C90.0776 92.894 90.3208 92.6304 90.6079 92.4429C90.895 92.2524 91.2144 92.1572 91.5659 92.1572C91.6772 92.1572 91.7886 92.1748 91.8999 92.21L91.8428 92.4121ZM92.0933 94.5742C92.1753 94.0967 92.3188 93.6689 92.5239 93.291C92.7319 92.9131 92.9824 92.6304 93.2754 92.4429C93.5684 92.2524 93.8877 92.1572 94.2334 92.1572C94.5674 92.1572 94.8574 92.2407 95.1035 92.4077C95.3525 92.5747 95.5327 92.812 95.644 93.1196L96.145 90.25H96.3823L95.2178 97H94.9805L95.1299 96.2397C94.9189 96.5063 94.667 96.7144 94.374 96.8638C94.0811 97.0132 93.7617 97.0879 93.416 97.0879C93.1055 97.0879 92.8447 97.0117 92.6338 96.8594C92.4229 96.7041 92.2661 96.4785 92.1636 96.1826C92.064 95.8838 92.02 95.5557 92.0317 95.1982C92.0376 95.0312 92.0581 94.8232 92.0933 94.5742ZM92.2734 95.1323C92.25 95.4546 92.2749 95.7505 92.3481 96.02C92.4214 96.2896 92.5474 96.4961 92.7261 96.6396C92.9077 96.7803 93.1348 96.8506 93.4072 96.8506C93.7881 96.8535 94.1294 96.7627 94.4312 96.5781C94.7358 96.3936 94.9849 96.1416 95.1782 95.8223L95.5737 93.5942C95.5122 93.2134 95.3643 92.9189 95.1299 92.7109C94.8984 92.5 94.5996 92.3945 94.2334 92.3945C93.8613 92.3945 93.5303 92.519 93.2402 92.7681C92.9502 93.0142 92.7231 93.3569 92.5591 93.7964C92.395 94.2358 92.2998 94.6812 92.2734 95.1323ZM99.8013 95.8354C99.9067 95.2847 99.5054 94.8936 98.5972 94.6621L98.1094 94.5215C97.4355 94.3018 97.1396 93.9136 97.2217 93.3569C97.2744 92.9966 97.4648 92.7065 97.793 92.4868C98.1211 92.2671 98.502 92.1572 98.9355 92.1572C99.4131 92.1572 99.7866 92.2803 100.056 92.5264C100.326 92.7725 100.44 93.1021 100.399 93.5151H100.162C100.197 93.1812 100.099 92.9116 99.8672 92.7065C99.6357 92.4985 99.3267 92.3945 98.9399 92.3945C98.5649 92.3945 98.2383 92.481 97.96 92.6538C97.6816 92.8267 97.5146 93.0581 97.459 93.3481C97.3711 93.814 97.6406 94.145 98.2676 94.3413L98.9224 94.5303L99.1421 94.605C99.8247 94.854 100.124 95.2656 100.039 95.8398C99.9829 96.2178 99.7866 96.521 99.4497 96.7495C99.1128 96.9751 98.71 97.0879 98.2412 97.0879C97.752 97.0879 97.3608 96.9692 97.0679 96.7319C96.7749 96.4917 96.6489 96.1782 96.6899 95.7915H96.9229C96.9082 96.1196 97.0166 96.3789 97.248 96.5693C97.4824 96.7568 97.812 96.8506 98.2368 96.8506C98.6411 96.8418 98.9897 96.7451 99.2827 96.5605C99.5757 96.373 99.7485 96.1313 99.8013 95.8354ZM102.895 97.0879C102.558 97.0879 102.264 97.0146 102.012 96.8682C101.76 96.7217 101.575 96.5195 101.458 96.2617L101.005 98.8281H100.768L101.902 92.2451H102.139L101.977 93.0933C102.185 92.812 102.434 92.5864 102.724 92.4165C103.017 92.2437 103.342 92.1572 103.699 92.1572C104.007 92.1572 104.269 92.2334 104.486 92.3857C104.703 92.5381 104.861 92.7622 104.96 93.0581C105.063 93.3511 105.108 93.6763 105.097 94.0337C105.088 94.2212 105.07 94.4014 105.044 94.5742L104.987 94.8643C104.834 95.5527 104.574 96.0962 104.205 96.4946C103.835 96.8901 103.399 97.0879 102.895 97.0879ZM104.802 94.5742L104.855 94.104C104.884 93.5474 104.798 93.124 104.596 92.834C104.394 92.541 104.096 92.3945 103.704 92.3945C103.317 92.3945 102.951 92.5103 102.605 92.7417C102.262 92.9702 102.032 93.2544 101.915 93.5942L101.52 95.8179C101.587 96.1489 101.744 96.4038 101.99 96.5825C102.239 96.7612 102.541 96.8506 102.895 96.8506C103.37 96.8506 103.771 96.6572 104.099 96.2705C104.427 95.8809 104.657 95.3403 104.789 94.6489L104.802 94.5742ZM106.213 97H105.976L107.136 90.25H107.373L106.213 97ZM110.783 97C110.774 96.7422 110.802 96.4521 110.867 96.1299C110.621 96.4316 110.328 96.6675 109.988 96.8374C109.651 97.0073 109.285 97.0908 108.889 97.0879C108.491 97.0879 108.173 96.9648 107.936 96.7188C107.698 96.4727 107.609 96.165 107.667 95.7959C107.741 95.3477 107.988 94.9976 108.41 94.7456C108.835 94.4937 109.373 94.3604 110.023 94.3457H111.152L111.28 93.6514C111.341 93.2617 111.264 92.9556 111.047 92.7329C110.83 92.5073 110.518 92.3945 110.111 92.3945C109.712 92.3945 109.352 92.5015 109.03 92.7153C108.708 92.9263 108.505 93.2046 108.423 93.5503L108.186 93.5415C108.268 93.1343 108.494 92.8018 108.863 92.5439C109.232 92.2861 109.648 92.1572 110.111 92.1572C110.594 92.1572 110.965 92.2949 111.223 92.5703C111.48 92.8428 111.576 93.2061 111.508 93.6602L111.073 96.2002L111.042 96.499C111.028 96.6543 111.034 96.8081 111.06 96.9604L111.056 97H110.783ZM108.885 96.855C109.277 96.8608 109.651 96.7671 110.005 96.5737C110.36 96.3774 110.662 96.0918 110.911 95.7168L111.113 94.5874H110.049C109.458 94.5991 108.968 94.7134 108.582 94.9302C108.198 95.144 107.971 95.4385 107.9 95.8135C107.848 96.1035 107.917 96.3481 108.107 96.5474C108.3 96.7466 108.56 96.8491 108.885 96.855ZM112.633 94.5742C112.715 94.0967 112.859 93.6689 113.064 93.291C113.272 92.9131 113.522 92.6304 113.815 92.4429C114.108 92.2524 114.428 92.1572 114.773 92.1572C115.107 92.1572 115.397 92.2407 115.644 92.4077C115.893 92.5747 116.073 92.812 116.184 93.1196L116.685 90.25H116.922L115.758 97H115.521L115.67 96.2397C115.459 96.5063 115.207 96.7144 114.914 96.8638C114.621 97.0132 114.302 97.0879 113.956 97.0879C113.646 97.0879 113.385 97.0117 113.174 96.8594C112.963 96.7041 112.806 96.4785 112.704 96.1826C112.604 95.8838 112.56 95.5557 112.572 95.1982C112.578 95.0312 112.598 94.8232 112.633 94.5742ZM112.813 95.1323C112.79 95.4546 112.815 95.7505 112.888 96.02C112.961 96.2896 113.087 96.4961 113.266 96.6396C113.448 96.7803 113.675 96.8506 113.947 96.8506C114.328 96.8535 114.669 96.7627 114.971 96.5781C115.276 96.3936 115.525 96.1416 115.718 95.8223L116.114 93.5942C116.052 93.2134 115.904 92.9189 115.67 92.7109C115.438 92.5 115.14 92.3945 114.773 92.3945C114.401 92.3945 114.07 92.519 113.78 92.7681C113.49 93.0142 113.263 93.3569 113.099 93.7964C112.935 94.2358 112.84 94.6812 112.813 95.1323ZM120.341 95.8354C120.447 95.2847 120.045 94.8936 119.137 94.6621L118.649 94.5215C117.976 94.3018 117.68 93.9136 117.762 93.3569C117.814 92.9966 118.005 92.7065 118.333 92.4868C118.661 92.2671 119.042 92.1572 119.476 92.1572C119.953 92.1572 120.327 92.2803 120.596 92.5264C120.866 92.7725 120.98 93.1021 120.939 93.5151H120.702C120.737 93.1812 120.639 92.9116 120.407 92.7065C120.176 92.4985 119.867 92.3945 119.48 92.3945C119.105 92.3945 118.778 92.481 118.5 92.6538C118.222 92.8267 118.055 93.0581 117.999 93.3481C117.911 93.814 118.181 94.145 118.808 94.3413L119.462 94.5303L119.682 94.605C120.365 94.854 120.664 95.2656 120.579 95.8398C120.523 96.2178 120.327 96.521 119.99 96.7495C119.653 96.9751 119.25 97.0879 118.781 97.0879C118.292 97.0879 117.901 96.9692 117.608 96.7319C117.315 96.4917 117.189 96.1782 117.23 95.7915H117.463C117.448 96.1196 117.557 96.3789 117.788 96.5693C118.022 96.7568 118.352 96.8506 118.777 96.8506C119.181 96.8418 119.53 96.7451 119.823 96.5605C120.116 96.373 120.289 96.1313 120.341 95.8354ZM123.369 97.0879C122.988 97.0879 122.66 96.981 122.385 96.7671C122.109 96.5532 121.91 96.2617 121.787 95.8926C121.667 95.5205 121.636 95.1309 121.695 94.7236L121.73 94.5039C121.8 94.0762 121.95 93.6763 122.178 93.3042C122.41 92.9321 122.684 92.6479 123 92.4517C123.316 92.2554 123.655 92.1572 124.015 92.1572C124.496 92.1572 124.872 92.3345 125.145 92.689C125.417 93.0435 125.533 93.4976 125.492 94.0513L125.479 94.1875L125.439 94.4644H121.985L121.937 94.7236C121.896 94.9697 121.894 95.2188 121.932 95.4707C121.997 95.8896 122.156 96.2251 122.411 96.4771C122.669 96.7261 122.987 96.8521 123.365 96.855C123.913 96.8608 124.406 96.644 124.846 96.2046L125.004 96.3276C124.57 96.8345 124.025 97.0879 123.369 97.0879ZM124.015 92.3945C123.564 92.3945 123.16 92.5645 122.802 92.9043C122.448 93.2412 122.184 93.6821 122.011 94.2271H125.219L125.232 94.1699C125.271 93.959 125.273 93.748 125.241 93.5371C125.188 93.1914 125.051 92.9146 124.828 92.7065C124.608 92.4985 124.337 92.3945 124.015 92.3945ZM126.929 93.3525C127.166 92.9688 127.446 92.6743 127.768 92.4692C128.09 92.2612 128.423 92.1572 128.766 92.1572C129.129 92.1572 129.415 92.251 129.623 92.4385C129.831 92.626 129.951 92.897 129.983 93.2515C130 93.4741 129.989 93.707 129.948 93.9502L129.42 97H129.183L129.71 93.9502C129.746 93.7451 129.76 93.543 129.754 93.3438C129.74 93.0332 129.647 92.7959 129.478 92.6318C129.311 92.4678 129.07 92.3872 128.757 92.3901C128.355 92.396 127.969 92.5527 127.597 92.8604C127.228 93.165 126.977 93.5298 126.845 93.9546L126.318 97H126.081L126.898 92.2451H127.135L126.929 93.3525ZM135.856 97H135.619L136.673 90.9136L134.779 91.5859L134.814 91.3311L136.897 90.584H136.955L135.856 97ZM138.233 98.1206L138.084 97.9712C138.397 97.6196 138.586 97.2593 138.651 96.8901L138.752 96.3013H138.989L138.897 96.855C138.812 97.3589 138.591 97.7808 138.233 98.1206ZM64.5967 103.228C64.5381 103.576 64.3843 103.882 64.1353 104.146C63.8862 104.407 63.5684 104.602 63.1816 104.73C63.5508 104.854 63.832 105.06 64.0254 105.35C64.2217 105.637 64.292 105.965 64.2363 106.334C64.1543 106.859 63.9023 107.282 63.4805 107.604C63.0586 107.927 62.5576 108.088 61.9775 108.088C61.6055 108.088 61.2773 108.015 60.9932 107.868C60.7119 107.719 60.5068 107.512 60.3779 107.249C60.249 106.982 60.2139 106.677 60.2725 106.334C60.3369 105.954 60.5068 105.624 60.7822 105.346C61.0576 105.064 61.418 104.856 61.8633 104.722C61.5381 104.596 61.2964 104.398 61.1382 104.128C60.9829 103.859 60.9316 103.559 60.9844 103.228C61.0635 102.727 61.2964 102.316 61.6831 101.997C62.0698 101.675 62.5269 101.514 63.0542 101.514C63.3853 101.514 63.6797 101.588 63.9375 101.738C64.1982 101.884 64.3857 102.089 64.5 102.353C64.6172 102.614 64.6494 102.905 64.5967 103.228ZM63.9902 106.356C64.043 106.075 64.0137 105.82 63.9023 105.592C63.7939 105.363 63.6152 105.182 63.3662 105.047C63.1172 104.912 62.8389 104.845 62.5312 104.845C62.0391 104.845 61.5981 104.985 61.2085 105.267C60.8218 105.548 60.5874 105.911 60.5054 106.356C60.4263 106.799 60.5259 107.159 60.8042 107.438C61.0854 107.713 61.4751 107.851 61.9731 107.851C62.4771 107.851 62.918 107.713 63.2959 107.438C63.6768 107.159 63.9082 106.799 63.9902 106.356ZM64.3638 103.206C64.437 102.798 64.3433 102.454 64.0825 102.173C63.8218 101.892 63.4805 101.751 63.0586 101.751C62.6045 101.751 62.2046 101.889 61.8589 102.164C61.5161 102.437 61.3052 102.784 61.2261 103.206C61.1499 103.61 61.2378 103.945 61.4897 104.212C61.7446 104.476 62.0903 104.607 62.5269 104.607C62.9722 104.607 63.3691 104.477 63.7178 104.216C64.0693 103.956 64.2847 103.619 64.3638 103.206ZM66.7852 108.088C66.4512 108.088 66.1699 108.004 65.9414 107.837C65.7129 107.67 65.5444 107.424 65.436 107.099C65.3306 106.771 65.2866 106.397 65.3042 105.979L65.3394 105.557L65.5503 104.309C65.6997 103.438 65.9736 102.754 66.3721 102.256C66.7705 101.758 67.27 101.509 67.8706 101.509C68.2104 101.509 68.4946 101.594 68.7231 101.764C68.9517 101.931 69.1187 102.18 69.2241 102.511C69.3296 102.842 69.3721 103.213 69.3516 103.623L69.3076 104.098L69.0923 105.346C68.9399 106.21 68.6646 106.884 68.2661 107.367C67.8677 107.848 67.374 108.088 66.7852 108.088ZM69.1143 103.14C69.0762 102.677 68.9517 102.33 68.7407 102.098C68.5298 101.864 68.2412 101.747 67.875 101.747C67.3477 101.747 66.9023 101.972 66.5391 102.423C66.1787 102.872 65.9268 103.509 65.7832 104.335L65.5811 105.521L65.5459 105.895C65.5166 106.258 65.5415 106.594 65.6206 106.901C65.6997 107.209 65.8374 107.445 66.0337 107.609C66.23 107.77 66.479 107.851 66.7808 107.851C67.3052 107.851 67.7461 107.629 68.1035 107.187C68.4639 106.742 68.7144 106.124 68.855 105.333L69.0396 104.287C69.1157 103.856 69.1406 103.474 69.1143 103.14ZM71.6104 108.088C71.2764 108.088 70.9951 108.004 70.7666 107.837C70.5381 107.67 70.3696 107.424 70.2612 107.099C70.1558 106.771 70.1118 106.397 70.1294 105.979L70.1646 105.557L70.3755 104.309C70.5249 103.438 70.7988 102.754 71.1973 102.256C71.5957 101.758 72.0952 101.509 72.6958 101.509C73.0356 101.509 73.3198 101.594 73.5483 101.764C73.7769 101.931 73.9438 102.18 74.0493 102.511C74.1548 102.842 74.1973 103.213 74.1768 103.623L74.1328 104.098L73.9175 105.346C73.7651 106.21 73.4897 106.884 73.0913 107.367C72.6929 107.848 72.1992 108.088 71.6104 108.088ZM73.9395 103.14C73.9014 102.677 73.7769 102.33 73.5659 102.098C73.355 101.864 73.0664 101.747 72.7002 101.747C72.1729 101.747 71.7275 101.972 71.3643 102.423C71.0039 102.872 70.752 103.509 70.6084 104.335L70.4062 105.521L70.3711 105.895C70.3418 106.258 70.3667 106.594 70.4458 106.901C70.5249 107.209 70.6626 107.445 70.8589 107.609C71.0552 107.77 71.3042 107.851 71.606 107.851C72.1304 107.851 72.5713 107.629 72.9287 107.187C73.2891 106.742 73.5396 106.124 73.6802 105.333L73.8647 104.287C73.9409 103.856 73.9658 103.474 73.9395 103.14ZM76.4355 108.088C76.1016 108.088 75.8203 108.004 75.5918 107.837C75.3633 107.67 75.1948 107.424 75.0864 107.099C74.981 106.771 74.937 106.397 74.9546 105.979L74.9897 105.557L75.2007 104.309C75.3501 103.438 75.624 102.754 76.0225 102.256C76.4209 101.758 76.9204 101.509 77.521 101.509C77.8608 101.509 78.145 101.594 78.3735 101.764C78.6021 101.931 78.769 102.18 78.8745 102.511C78.98 102.842 79.0225 103.213 79.002 103.623L78.958 104.098L78.7427 105.346C78.5903 106.21 78.3149 106.884 77.9165 107.367C77.5181 107.848 77.0244 108.088 76.4355 108.088ZM78.7646 103.14C78.7266 102.677 78.6021 102.33 78.3911 102.098C78.1802 101.864 77.8916 101.747 77.5254 101.747C76.998 101.747 76.5527 101.972 76.1895 102.423C75.8291 102.872 75.5771 103.509 75.4336 104.335L75.2314 105.521L75.1963 105.895C75.167 106.258 75.1919 106.594 75.271 106.901C75.3501 107.209 75.4878 107.445 75.6841 107.609C75.8804 107.77 76.1294 107.851 76.4312 107.851C76.9556 107.851 77.3965 107.629 77.7539 107.187C78.1143 106.742 78.3647 106.124 78.5054 105.333L78.6899 104.287C78.7661 103.856 78.791 103.474 78.7646 103.14ZM85.4399 106.088H82.4077L81.3838 108H81.1201L84.5391 101.606L84.8247 101.602L86.0552 108H85.8047L85.4399 106.088ZM82.5308 105.851H85.3916L84.6533 101.9L82.5308 105.851ZM89.9883 108C89.9795 107.742 90.0073 107.452 90.0718 107.13C89.8257 107.432 89.5327 107.667 89.1929 107.837C88.856 108.007 88.4897 108.091 88.0942 108.088C87.6958 108.088 87.3779 107.965 87.1406 107.719C86.9033 107.473 86.814 107.165 86.8726 106.796C86.9458 106.348 87.1934 105.998 87.6152 105.746C88.04 105.494 88.5776 105.36 89.228 105.346H90.3574L90.4849 104.651C90.5464 104.262 90.4688 103.956 90.252 103.733C90.0352 103.507 89.7231 103.395 89.3159 103.395C88.9175 103.395 88.5571 103.501 88.2349 103.715C87.9126 103.926 87.7104 104.205 87.6284 104.55L87.3911 104.542C87.4731 104.134 87.6987 103.802 88.0679 103.544C88.437 103.286 88.853 103.157 89.3159 103.157C89.7993 103.157 90.1699 103.295 90.4277 103.57C90.6855 103.843 90.7808 104.206 90.7134 104.66L90.2783 107.2L90.2476 107.499C90.2329 107.654 90.2388 107.808 90.2651 107.96L90.2607 108H89.9883ZM88.0898 107.855C88.4824 107.861 88.856 107.767 89.2104 107.574C89.5649 107.377 89.8667 107.092 90.1157 106.717L90.3179 105.587H89.2544C88.6626 105.599 88.1733 105.713 87.7866 105.93C87.4028 106.144 87.1758 106.438 87.1055 106.813C87.0527 107.104 87.1216 107.348 87.312 107.547C87.5054 107.747 87.7646 107.849 88.0898 107.855ZM94.4619 103.412L94.1763 103.39C93.7837 103.39 93.4189 103.535 93.082 103.825C92.7451 104.115 92.5195 104.468 92.4053 104.884L91.8647 108H91.6274L92.4448 103.245H92.6821L92.4976 104.234C92.6968 103.894 92.9399 103.63 93.2271 103.443C93.5142 103.252 93.8335 103.157 94.1851 103.157C94.2964 103.157 94.4077 103.175 94.519 103.21L94.4619 103.412ZM95.4375 104.353C95.6748 103.969 95.9546 103.674 96.2769 103.469C96.5991 103.261 96.9316 103.157 97.2744 103.157C97.6377 103.157 97.9233 103.251 98.1313 103.438C98.3394 103.626 98.4595 103.897 98.4917 104.251C98.5093 104.474 98.4976 104.707 98.4565 104.95L97.9292 108H97.6919L98.2192 104.95C98.2544 104.745 98.269 104.543 98.2632 104.344C98.2485 104.033 98.1562 103.796 97.9863 103.632C97.8193 103.468 97.5791 103.387 97.2656 103.39C96.8643 103.396 96.4775 103.553 96.1055 103.86C95.7363 104.165 95.4858 104.53 95.354 104.955L94.8267 108H94.5894L95.7539 101.25H95.9912L95.4375 104.353ZM102.504 108L102.653 107.231C102.445 107.518 102.193 107.733 101.897 107.877C101.602 108.018 101.276 108.088 100.922 108.088C100.553 108.088 100.26 107.99 100.043 107.793C99.8291 107.597 99.7046 107.317 99.6694 106.954C99.6489 106.723 99.6592 106.484 99.7002 106.238L100.214 103.245H100.452L99.9287 106.273C99.8965 106.472 99.8862 106.666 99.8979 106.853C99.9126 107.169 100.008 107.416 100.184 107.591C100.359 107.764 100.603 107.851 100.913 107.851C101.341 107.851 101.726 107.735 102.069 107.503C102.412 107.269 102.637 106.964 102.746 106.589L103.321 103.245H103.563L102.746 108H102.504ZM107.333 106.835C107.439 106.285 107.038 105.894 106.129 105.662L105.642 105.521C104.968 105.302 104.672 104.914 104.754 104.357C104.807 103.997 104.997 103.707 105.325 103.487C105.653 103.267 106.034 103.157 106.468 103.157C106.945 103.157 107.319 103.28 107.588 103.526C107.858 103.772 107.972 104.102 107.931 104.515H107.694C107.729 104.181 107.631 103.912 107.399 103.707C107.168 103.499 106.859 103.395 106.472 103.395C106.097 103.395 105.771 103.481 105.492 103.654C105.214 103.827 105.047 104.058 104.991 104.348C104.903 104.814 105.173 105.145 105.8 105.341L106.455 105.53L106.674 105.605C107.357 105.854 107.656 106.266 107.571 106.84C107.515 107.218 107.319 107.521 106.982 107.75C106.645 107.975 106.242 108.088 105.773 108.088C105.284 108.088 104.893 107.969 104.6 107.732C104.307 107.492 104.181 107.178 104.222 106.792H104.455C104.44 107.12 104.549 107.379 104.78 107.569C105.015 107.757 105.344 107.851 105.769 107.851C106.173 107.842 106.522 107.745 106.815 107.561C107.108 107.373 107.281 107.131 107.333 106.835Z" fill="#707070"/>
<path d="M68.9868 9.2041V11.1157H65.7568V20H63.4863V11.1157H60.2417V9.2041H68.9868ZM72.0264 11.0645H69.9097V9.13818H72.0264V11.0645ZM69.9097 12.0166H72.0264V20H69.9097V12.0166ZM78.9771 12.0166H81.2183L78.3398 20H76.1353L73.2715 12.0166H75.6152L77.2778 17.9053L78.9771 12.0166ZM85.9863 18.5278C86.5967 18.5278 87.0654 18.3105 87.3926 17.876C87.7197 17.4414 87.8833 16.8237 87.8833 16.0229C87.8833 15.2222 87.7197 14.6069 87.3926 14.1772C87.0654 13.7427 86.5967 13.5254 85.9863 13.5254C85.376 13.5254 84.9048 13.7427 84.5728 14.1772C84.2456 14.6069 84.082 15.2222 84.082 16.0229C84.082 16.8237 84.2456 17.4414 84.5728 17.876C84.9048 18.3105 85.376 18.5278 85.9863 18.5278ZM90.0732 16.0229C90.0732 17.1948 89.7363 18.1982 89.0625 19.0332C88.3887 19.8633 87.3657 20.2783 85.9937 20.2783C84.6216 20.2783 83.5986 19.8633 82.9248 19.0332C82.251 18.1982 81.9141 17.1948 81.9141 16.0229C81.9141 14.8706 82.251 13.8721 82.9248 13.0273C83.5986 12.1826 84.6216 11.7603 85.9937 11.7603C87.3657 11.7603 88.3887 12.1826 89.0625 13.0273C89.7363 13.8721 90.0732 14.8706 90.0732 16.0229ZM93.7061 20H91.6187V9.2041H93.7061V20ZM97.8955 11.0645H95.7788V9.13818H97.8955V11.0645ZM95.7788 12.0166H97.8955V20H95.7788V12.0166ZM111.526 12.5732C111.355 11.8359 110.938 11.3208 110.273 11.0278C109.902 10.8667 109.49 10.7861 109.036 10.7861C108.167 10.7861 107.451 11.1157 106.89 11.7749C106.333 12.4292 106.055 13.4155 106.055 14.7339C106.055 16.062 106.357 17.002 106.963 17.5537C107.568 18.1055 108.257 18.3813 109.028 18.3813C109.785 18.3813 110.405 18.1641 110.889 17.7295C111.372 17.29 111.67 16.7163 111.782 16.0083H109.285V14.2065H113.782V20H112.288L112.061 18.6523C111.626 19.165 111.235 19.5264 110.889 19.7363C110.293 20.1025 109.561 20.2856 108.691 20.2856C107.261 20.2856 106.089 19.79 105.176 18.7988C104.224 17.8027 103.748 16.4404 103.748 14.7119C103.748 12.9639 104.229 11.5625 105.19 10.5078C106.152 9.45312 107.424 8.92578 109.006 8.92578C110.378 8.92578 111.479 9.2749 112.31 9.97314C113.145 10.6665 113.623 11.5332 113.745 12.5732H111.526ZM120.176 16.1182C120.044 16.2012 119.91 16.2695 119.773 16.3232C119.641 16.3721 119.458 16.4185 119.224 16.4624L118.755 16.5503C118.315 16.6284 118 16.7236 117.81 16.8359C117.488 17.0264 117.327 17.3218 117.327 17.7222C117.327 18.0786 117.424 18.3374 117.62 18.4985C117.82 18.6548 118.062 18.7329 118.345 18.7329C118.794 18.7329 119.207 18.6011 119.583 18.3374C119.963 18.0737 120.161 17.5928 120.176 16.8945V16.1182ZM118.909 15.144C119.294 15.0952 119.57 15.0342 119.736 14.9609C120.034 14.834 120.183 14.6362 120.183 14.3677C120.183 14.0405 120.068 13.8159 119.839 13.6938C119.614 13.5669 119.282 13.5034 118.843 13.5034C118.35 13.5034 118 13.6255 117.795 13.8696C117.649 14.0503 117.551 14.2944 117.502 14.6021H115.488C115.532 13.9038 115.728 13.3301 116.074 12.8809C116.626 12.1777 117.573 11.8262 118.916 11.8262C119.79 11.8262 120.566 11.9995 121.245 12.3462C121.924 12.6929 122.263 13.3472 122.263 14.3091V17.9712C122.263 18.2251 122.268 18.5327 122.278 18.894C122.292 19.1675 122.334 19.353 122.402 19.4507C122.471 19.5483 122.573 19.6289 122.71 19.6924V20H120.439C120.376 19.8389 120.332 19.6875 120.308 19.5459C120.283 19.4043 120.264 19.2432 120.249 19.0625C119.961 19.375 119.629 19.6411 119.253 19.8608C118.804 20.1196 118.296 20.249 117.729 20.249C117.007 20.249 116.409 20.0439 115.935 19.6338C115.466 19.2188 115.232 18.6328 115.232 17.876C115.232 16.8945 115.61 16.1841 116.367 15.7446C116.782 15.5054 117.393 15.3345 118.198 15.2319L118.909 15.144ZM128.459 11.8262C128.499 11.8262 128.53 11.8286 128.555 11.8335C128.584 11.8335 128.645 11.8359 128.738 11.8408V13.9795C128.606 13.9648 128.489 13.9551 128.386 13.9502C128.284 13.9453 128.201 13.9429 128.137 13.9429C127.297 13.9429 126.733 14.2163 126.445 14.7632C126.284 15.0708 126.204 15.5444 126.204 16.1841V20H124.102V12.0166H126.094V13.4082C126.416 12.876 126.697 12.5122 126.936 12.3169C127.327 11.9897 127.834 11.8262 128.459 11.8262ZM132.913 11.8262C133.396 11.8262 133.826 11.9336 134.202 12.1484C134.578 12.3584 134.883 12.6514 135.117 13.0273V9.21875H137.234V20H135.205V18.894C134.907 19.3677 134.568 19.7119 134.187 19.9268C133.806 20.1416 133.333 20.249 132.766 20.249C131.833 20.249 131.047 19.873 130.408 19.1211C129.773 18.3643 129.456 17.395 129.456 16.2134C129.456 14.8511 129.768 13.7793 130.393 12.998C131.023 12.2168 131.863 11.8262 132.913 11.8262ZM133.367 18.4912C133.958 18.4912 134.407 18.2715 134.714 17.832C135.022 17.3926 135.176 16.8237 135.176 16.1255C135.176 15.1489 134.929 14.4507 134.436 14.0308C134.133 13.7769 133.782 13.6499 133.381 13.6499C132.771 13.6499 132.322 13.8818 132.034 14.3457C131.75 14.8047 131.609 15.376 131.609 16.0596C131.609 16.7969 131.753 17.3877 132.041 17.832C132.334 18.2715 132.776 18.4912 133.367 18.4912ZM142.288 13.5254C141.804 13.5254 141.428 13.6768 141.16 13.9795C140.896 14.2822 140.73 14.6924 140.662 15.21H143.906C143.872 14.6582 143.704 14.2407 143.401 13.9575C143.103 13.6694 142.732 13.5254 142.288 13.5254ZM142.288 11.8042C142.952 11.8042 143.55 11.9287 144.082 12.1777C144.614 12.4268 145.054 12.8198 145.4 13.3569C145.713 13.8306 145.916 14.3799 146.008 15.0049C146.062 15.3711 146.084 15.8984 146.074 16.5869H140.61C140.64 17.3877 140.891 17.9492 141.365 18.2715C141.653 18.4717 142 18.5718 142.405 18.5718C142.834 18.5718 143.184 18.4497 143.452 18.2056C143.599 18.0737 143.728 17.8906 143.84 17.6562H145.972C145.918 18.1299 145.671 18.6108 145.232 19.0991C144.548 19.8755 143.591 20.2637 142.361 20.2637C141.345 20.2637 140.449 19.9365 139.673 19.2822C138.896 18.6279 138.508 17.5635 138.508 16.0889C138.508 14.707 138.857 13.6475 139.556 12.9102C140.259 12.1729 141.169 11.8042 142.288 11.8042ZM151.912 11.8262C152.737 11.8262 153.411 12.0435 153.933 12.478C154.46 12.9077 154.724 13.623 154.724 14.624V20H152.585V15.144C152.585 14.7241 152.529 14.4019 152.417 14.1772C152.212 13.7671 151.821 13.562 151.245 13.562C150.537 13.562 150.051 13.8623 149.788 14.4629C149.651 14.7803 149.583 15.1855 149.583 15.6787V20H147.502V12.0312H149.517V13.1958C149.785 12.7856 150.039 12.4902 150.278 12.3096C150.708 11.9873 151.252 11.8262 151.912 11.8262ZM158.284 17.4512C158.328 17.8223 158.423 18.0859 158.569 18.2422C158.828 18.5205 159.307 18.6597 160.005 18.6597C160.415 18.6597 160.74 18.5986 160.979 18.4766C161.223 18.3545 161.345 18.1714 161.345 17.9272C161.345 17.6929 161.248 17.5146 161.052 17.3926C160.857 17.2705 160.132 17.0605 158.877 16.7627C157.974 16.5381 157.336 16.2573 156.965 15.9204C156.594 15.5884 156.409 15.1099 156.409 14.4849C156.409 13.7476 156.697 13.1152 157.273 12.5879C157.854 12.0557 158.669 11.7896 159.719 11.7896C160.715 11.7896 161.526 11.9897 162.151 12.3901C162.781 12.7856 163.142 13.4717 163.235 14.4482H161.147C161.118 14.1797 161.042 13.9673 160.92 13.811C160.691 13.5278 160.3 13.3862 159.749 13.3862C159.294 13.3862 158.97 13.457 158.774 13.5986C158.584 13.7402 158.489 13.9062 158.489 14.0967C158.489 14.3359 158.591 14.5093 158.796 14.6167C159.001 14.729 159.727 14.9219 160.972 15.1953C161.802 15.3906 162.424 15.686 162.839 16.0815C163.25 16.4819 163.455 16.9824 163.455 17.583C163.455 18.374 163.159 19.021 162.568 19.5239C161.982 20.022 161.074 20.271 159.844 20.271C158.589 20.271 157.661 20.0073 157.061 19.48C156.465 18.9478 156.167 18.2715 156.167 17.4512H158.284Z" fill="#333333"/>
<path d="M64.0942 80.9204H66.8335L65.4858 76.6724L64.0942 80.9204ZM64.2334 74.2041H66.7822L70.6055 85H68.1592L67.4634 82.7808H63.4863L62.7393 85H60.3809L64.2334 74.2041ZM76.2158 81.1182C76.084 81.2012 75.9497 81.2695 75.813 81.3232C75.6812 81.3721 75.498 81.4185 75.2637 81.4624L74.7949 81.5503C74.3555 81.6284 74.0405 81.7236 73.8501 81.8359C73.5278 82.0264 73.3667 82.3218 73.3667 82.7222C73.3667 83.0786 73.4644 83.3374 73.6597 83.4985C73.8599 83.6548 74.1016 83.7329 74.3848 83.7329C74.834 83.7329 75.2466 83.6011 75.6226 83.3374C76.0034 83.0737 76.2012 82.5928 76.2158 81.8945V81.1182ZM74.9487 80.144C75.3345 80.0952 75.6104 80.0342 75.7764 79.9609C76.0742 79.834 76.2231 79.6362 76.2231 79.3677C76.2231 79.0405 76.1084 78.8159 75.8789 78.6938C75.6543 78.5669 75.3223 78.5034 74.8828 78.5034C74.3896 78.5034 74.0405 78.6255 73.8354 78.8696C73.689 79.0503 73.5913 79.2944 73.5425 79.6021H71.5283C71.5723 78.9038 71.7676 78.3301 72.1143 77.8809C72.666 77.1777 73.6133 76.8262 74.9561 76.8262C75.8301 76.8262 76.6064 76.9995 77.2852 77.3462C77.9639 77.6929 78.3032 78.3472 78.3032 79.3091V82.9712C78.3032 83.2251 78.3081 83.5327 78.3179 83.894C78.3325 84.1675 78.374 84.353 78.4424 84.4507C78.5107 84.5483 78.6133 84.6289 78.75 84.6924V85H76.4795C76.416 84.8389 76.3721 84.6875 76.3477 84.5459C76.3232 84.4043 76.3037 84.2432 76.2891 84.0625C76.001 84.375 75.6689 84.6411 75.293 84.8608C74.8438 85.1196 74.3359 85.249 73.7695 85.249C73.0469 85.249 72.4487 85.0439 71.9751 84.6338C71.5063 84.2188 71.272 83.6328 71.272 82.876C71.272 81.8945 71.6504 81.1841 72.4072 80.7446C72.8223 80.5054 73.4326 80.3345 74.2383 80.2319L74.9487 80.144ZM84.4995 76.8262C84.5386 76.8262 84.5703 76.8286 84.5947 76.8335C84.624 76.8335 84.6851 76.8359 84.7778 76.8408V78.9795C84.646 78.9648 84.5288 78.9551 84.4263 78.9502C84.3237 78.9453 84.2407 78.9429 84.1772 78.9429C83.3374 78.9429 82.7734 79.2163 82.4854 79.7632C82.3242 80.0708 82.2437 80.5444 82.2437 81.1841V85H80.1416V77.0166H82.1338V78.4082C82.4561 77.876 82.7368 77.5122 82.9761 77.3169C83.3667 76.9897 83.8745 76.8262 84.4995 76.8262ZM90.4102 76.8115C90.9033 76.8115 91.3501 76.897 91.7505 77.0679C92.1558 77.2388 92.4878 77.5 92.7466 77.8516C92.9663 78.1494 93.1006 78.457 93.1494 78.7744C93.1982 79.0869 93.2227 79.5996 93.2227 80.3125V85H91.0913V80.144C91.0913 79.7144 91.0181 79.3677 90.8716 79.104C90.6812 78.7329 90.3198 78.5474 89.7876 78.5474C89.2358 78.5474 88.8159 78.7329 88.5278 79.104C88.2446 79.4702 88.103 79.9951 88.103 80.6787V85H86.0229V74.2407H88.103V78.0566C88.4058 77.5928 88.7549 77.2705 89.1504 77.0898C89.5508 76.9043 89.9707 76.8115 90.4102 76.8115ZM97.2583 77.0166V81.8286C97.2583 82.2827 97.312 82.6245 97.4194 82.854C97.6099 83.2593 97.9834 83.4619 98.54 83.4619C99.2529 83.4619 99.7412 83.1738 100.005 82.5977C100.142 82.2852 100.21 81.8726 100.21 81.3599V77.0166H102.327V85H100.298V83.8721C100.278 83.8965 100.229 83.9697 100.151 84.0918C100.073 84.2139 99.9805 84.3213 99.873 84.4141C99.5459 84.707 99.2285 84.9072 98.9209 85.0146C98.6182 85.1221 98.2617 85.1758 97.8516 85.1758C96.6699 85.1758 95.874 84.751 95.4639 83.9014C95.2344 83.4326 95.1196 82.7417 95.1196 81.8286V77.0166H97.2583ZM105.974 82.4512C106.018 82.8223 106.113 83.0859 106.26 83.2422C106.519 83.5205 106.997 83.6597 107.695 83.6597C108.105 83.6597 108.43 83.5986 108.669 83.4766C108.914 83.3545 109.036 83.1714 109.036 82.9272C109.036 82.6929 108.938 82.5146 108.743 82.3926C108.547 82.2705 107.822 82.0605 106.567 81.7627C105.664 81.5381 105.027 81.2573 104.656 80.9204C104.285 80.5884 104.099 80.1099 104.099 79.4849C104.099 78.7476 104.387 78.1152 104.963 77.5879C105.544 77.0557 106.36 76.7896 107.41 76.7896C108.406 76.7896 109.216 76.9897 109.841 77.3901C110.471 77.7856 110.833 78.4717 110.925 79.4482H108.838C108.809 79.1797 108.733 78.9673 108.611 78.811C108.381 78.5278 107.991 78.3862 107.439 78.3862C106.985 78.3862 106.66 78.457 106.465 78.5986C106.274 78.7402 106.179 78.9062 106.179 79.0967C106.179 79.3359 106.282 79.5093 106.487 79.6167C106.692 79.729 107.417 79.9219 108.662 80.1953C109.492 80.3906 110.115 80.686 110.53 81.0815C110.94 81.4819 111.145 81.9824 111.145 82.583C111.145 83.374 110.85 84.021 110.259 84.5239C109.673 85.022 108.765 85.271 107.534 85.271C106.279 85.271 105.352 85.0073 104.751 84.48C104.155 83.9478 103.857 83.2715 103.857 82.4512H105.974ZM117.026 85V74.2041H119.26V78.3203H123.479V74.2041H125.72V85H123.479V80.1807H119.26V85H117.026Z" fill="#333333"/>
</svg>
