<svg width="238" height="12" viewBox="0 0 238 12" fill="none" xmlns="http://www.w3.org/2000/svg">
<path d="M63.5273 8.44775C63.5273 8.12907 63.4092 7.87305 63.1729 7.67969C62.9365 7.48633 62.4961 7.30908 61.8516 7.14795C61.2106 6.98324 60.738 6.81852 60.4336 6.65381C60.1292 6.4891 59.9019 6.29753 59.7515 6.0791C59.6047 5.8571 59.5312 5.5957 59.5312 5.29492C59.5312 4.81152 59.7425 4.41764 60.165 4.11328C60.5876 3.80892 61.1372 3.65674 61.814 3.65674C62.4943 3.65674 63.0511 3.83398 63.4844 4.18848C63.9176 4.53939 64.1343 4.99056 64.1343 5.54199H63.4897C63.4897 5.13737 63.3358 4.81331 63.0278 4.56982C62.7199 4.32633 62.3135 4.20459 61.8086 4.20459C61.3109 4.20459 60.9134 4.30485 60.6162 4.50537C60.319 4.70589 60.1704 4.96729 60.1704 5.28955C60.1704 5.58675 60.3011 5.83024 60.5625 6.02002C60.8239 6.20622 61.2572 6.3763 61.8623 6.53027C62.471 6.68424 62.9294 6.84538 63.2373 7.01367C63.5488 7.18197 63.7834 7.38428 63.9409 7.62061C64.0985 7.85335 64.1772 8.12728 64.1772 8.44238C64.1772 8.94368 63.9606 9.34294 63.5273 9.64014C63.0977 9.93734 62.5373 10.0859 61.8462 10.0859C61.3735 10.0859 60.9438 10.0107 60.5571 9.86035C60.1704 9.70638 59.866 9.48796 59.644 9.20508C59.4256 8.91862 59.3164 8.57845 59.3164 8.18457H59.9609C59.9609 8.61068 60.1292 8.94548 60.4658 9.18896C60.806 9.42887 61.2661 9.54883 61.8462 9.54883C62.3547 9.54883 62.7611 9.44857 63.0654 9.24805C63.3734 9.04395 63.5273 8.77718 63.5273 8.44775ZM69.1133 7.02979H66.0142V9.45752H69.5859V10H65.375V3.74268H69.5645V4.2959H66.0142V6.48193H69.1133V7.02979ZM71.3853 9.45752H74.6724V10H70.7461V3.74268H71.3853V9.45752ZM79.4795 7.02979H76.3804V9.45752H79.9521V10H75.7412V3.74268H79.9307V4.2959H76.3804V6.48193H79.4795V7.02979ZM85.9194 8.02881C85.8442 8.69124 85.5882 9.19971 85.1514 9.5542C84.7181 9.90869 84.1416 10.0859 83.4219 10.0859C82.6628 10.0859 82.0469 9.82992 81.5742 9.31787C81.1051 8.80583 80.8706 8.10042 80.8706 7.20166V6.51416C80.8706 5.9484 80.9762 5.44889 81.1875 5.01562C81.4023 4.57878 81.7049 4.24398 82.0952 4.01123C82.4855 3.7749 82.9385 3.65674 83.4541 3.65674C84.1702 3.65674 84.7414 3.83757 85.1675 4.19922C85.5936 4.55729 85.8442 5.06755 85.9194 5.72998H85.2749C85.2104 5.243 85.0332 4.86882 84.7432 4.60742C84.4531 4.34245 84.0234 4.20996 83.4541 4.20996C82.8525 4.20996 82.3781 4.41406 82.0308 4.82227C81.6834 5.23047 81.5098 5.7998 81.5098 6.53027V7.23926C81.5098 7.95182 81.6799 8.514 82.02 8.92578C82.3638 9.33757 82.8311 9.54346 83.4219 9.54346C83.9984 9.54346 84.4334 9.41813 84.7271 9.16748C85.0243 8.91683 85.2069 8.53727 85.2749 8.02881H85.9194ZM91.8706 4.2959H89.5825V10H88.9434V4.2959H86.6606V3.74268H91.8706V4.2959ZM96.2534 7.51318V10H95.6143V3.74268H97.9292C98.6418 3.74268 99.2021 3.91455 99.6104 4.2583C100.019 4.60205 100.223 5.06576 100.223 5.64941C100.223 6.23665 100.024 6.6932 99.6265 7.01904C99.229 7.34489 98.6704 7.5096 97.9507 7.51318H96.2534ZM96.2534 6.96533H97.9292C98.4556 6.96533 98.8602 6.85254 99.1431 6.62695C99.4295 6.39779 99.5728 6.07552 99.5728 5.66016C99.5728 5.23763 99.4277 4.90462 99.1377 4.66113C98.8477 4.41764 98.4466 4.2959 97.9346 4.2959H96.2534V6.96533ZM105.121 8.32959H102.086L101.42 10H100.754L103.3 3.74268H103.918L106.442 10H105.782L105.121 8.32959ZM102.301 7.78174H104.901L103.606 4.51074L102.301 7.78174ZM109.063 7.15869L111.056 3.74268H111.792L109.38 7.72803V10H108.736V7.70117L106.34 3.74268H107.076L109.063 7.15869ZM113.591 3.74268L116.008 9.1084L118.425 3.74268H119.279V10H118.64V7.43799L118.699 4.52148L116.25 10H115.767L113.328 4.55908L113.387 7.43799V10H112.748V3.74268H113.591ZM124.683 7.02979H121.583V9.45752H125.155V10H120.944V3.74268H125.134V4.2959H121.583V6.48193H124.683V7.02979ZM131.364 10H130.725L126.955 4.75244V10H126.315V3.74268H126.955L130.725 8.99023V3.74268H131.364V10ZM137.632 4.2959H135.344V10H134.705V4.2959H132.422V3.74268H137.632V4.2959ZM142.219 3.74268L144.636 9.1084L147.053 3.74268H147.907V10H147.268V7.43799L147.327 4.52148L144.878 10H144.395L141.956 4.55908L142.015 7.43799V10H141.376V3.74268H142.219ZM153.311 7.02979H150.211V9.45752H153.783V10H149.572V3.74268H153.762V4.2959H150.211V6.48193H153.311V7.02979ZM159.557 4.2959H157.269V10H156.63V4.2959H154.347V3.74268H159.557V4.2959ZM165.648 10H165.009V7.18555H161.265V10H160.626V3.74268H161.265V6.6377H165.009V3.74268H165.648V10ZM172.319 7.18555C172.319 8.06641 172.081 8.77002 171.604 9.29639C171.128 9.82275 170.489 10.0859 169.687 10.0859C168.889 10.0859 168.248 9.82096 167.764 9.29102C167.284 8.76107 167.044 8.05029 167.044 7.15869V6.56787C167.044 5.99137 167.152 5.48291 167.367 5.04248C167.582 4.60205 167.889 4.26188 168.291 4.02197C168.695 3.77848 169.157 3.65674 169.676 3.65674C170.453 3.65674 171.082 3.91097 171.562 4.41943C172.045 4.92432 172.297 5.60465 172.319 6.46045V7.18555ZM171.685 6.55713C171.685 5.82666 171.504 5.25553 171.143 4.84375C170.785 4.42839 170.296 4.2207 169.676 4.2207C169.064 4.2207 168.577 4.42839 168.215 4.84375C167.857 5.25553 167.678 5.8374 167.678 6.58936V7.18555C167.678 7.91243 167.859 8.48535 168.221 8.9043C168.582 9.32324 169.071 9.53271 169.687 9.53271C170.31 9.53271 170.799 9.32503 171.153 8.90967C171.508 8.4943 171.685 7.91243 171.685 7.16406V6.55713ZM173.721 10V3.74268H175.622C176.174 3.74268 176.668 3.86084 177.104 4.09717C177.541 4.3335 177.882 4.66829 178.125 5.10156C178.372 5.53125 178.499 6.01644 178.506 6.55713V7.14258C178.506 7.69759 178.386 8.19173 178.146 8.625C177.91 9.05469 177.572 9.38949 177.131 9.62939C176.694 9.8693 176.195 9.99284 175.633 10H173.721ZM174.36 4.2959V9.45752H175.584C176.279 9.45752 176.832 9.24805 177.244 8.8291C177.66 8.41016 177.867 7.83724 177.867 7.11035V6.6001C177.867 5.90186 177.665 5.34326 177.26 4.92432C176.856 4.50537 176.304 4.2959 175.606 4.2959H174.36Z" fill="#333333" fill-opacity="0.4"/>
<line y1="7.85" x2="53" y2="7.85" stroke="#333333" stroke-opacity="0.4" stroke-width="0.3"/>
<line x1="185" y1="7.85" x2="238" y2="7.85" stroke="#333333" stroke-opacity="0.4" stroke-width="0.3"/>
</svg>
