<svg width="226" height="33" viewBox="0 0 226 33" fill="none" xmlns="http://www.w3.org/2000/svg">
<path d="M57.7153 7.51318V10H57.0762V3.74268H59.3911C60.1037 3.74268 60.6641 3.91455 61.0723 4.2583C61.4805 4.60205 61.6846 5.06576 61.6846 5.64941C61.6846 6.23665 61.4858 6.6932 61.0884 7.01904C60.6909 7.34489 60.1323 7.5096 59.4126 7.51318H57.7153ZM57.7153 6.96533H59.3911C59.9175 6.96533 60.3221 6.85254 60.605 6.62695C60.8914 6.39779 61.0347 6.07552 61.0347 5.66016C61.0347 5.23763 60.8896 4.90462 60.5996 4.66113C60.3096 4.41764 59.9085 4.2959 59.3965 4.2959H57.7153V6.96533ZM66.6582 7.02979H63.5591V9.45752H67.1309V10H62.9199V3.74268H67.1094V4.2959H63.5591V6.48193H66.6582V7.02979ZM70.8208 7.48633H68.9194V10H68.2803V3.74268H70.4985C71.2183 3.74268 71.7804 3.91097 72.1851 4.24756C72.5933 4.58415 72.7974 5.04606 72.7974 5.6333C72.7974 6.04508 72.672 6.40495 72.4214 6.71289C72.1707 7.01725 71.8395 7.22673 71.4277 7.34131L73.082 9.94629V10H72.3945L70.8208 7.48633ZM68.9194 6.93848H70.6167C71.0822 6.93848 71.4546 6.81852 71.7339 6.57861C72.0132 6.3387 72.1528 6.02897 72.1528 5.64941C72.1528 5.23047 72.0078 4.90104 71.7178 4.66113C71.4313 4.42122 71.0303 4.29948 70.5146 4.2959H68.9194V6.93848ZM78.0986 8.44775C78.0986 8.12907 77.9805 7.87305 77.7441 7.67969C77.5078 7.48633 77.0674 7.30908 76.4229 7.14795C75.7819 6.98324 75.3092 6.81852 75.0049 6.65381C74.7005 6.4891 74.4731 6.29753 74.3228 6.0791C74.1759 5.8571 74.1025 5.5957 74.1025 5.29492C74.1025 4.81152 74.3138 4.41764 74.7363 4.11328C75.1589 3.80892 75.7085 3.65674 76.3853 3.65674C77.0656 3.65674 77.6224 3.83398 78.0557 4.18848C78.4889 4.53939 78.7056 4.99056 78.7056 5.54199H78.061C78.061 5.13737 77.9071 4.81331 77.5991 4.56982C77.2912 4.32633 76.8848 4.20459 76.3799 4.20459C75.8822 4.20459 75.4847 4.30485 75.1875 4.50537C74.8903 4.70589 74.7417 4.96729 74.7417 5.28955C74.7417 5.58675 74.8724 5.83024 75.1338 6.02002C75.3952 6.20622 75.8285 6.3763 76.4336 6.53027C77.0423 6.68424 77.5007 6.84538 77.8086 7.01367C78.1201 7.18197 78.3547 7.38428 78.5122 7.62061C78.6698 7.85335 78.7485 8.12728 78.7485 8.44238C78.7485 8.94368 78.5319 9.34294 78.0986 9.64014C77.6689 9.93734 77.1086 10.0859 76.4175 10.0859C75.9448 10.0859 75.5151 10.0107 75.1284 9.86035C74.7417 9.70638 74.4373 9.48796 74.2153 9.20508C73.9969 8.91862 73.8877 8.57845 73.8877 8.18457H74.5322C74.5322 8.61068 74.7005 8.94548 75.0371 9.18896C75.3773 9.42887 75.8374 9.54883 76.4175 9.54883C76.9259 9.54883 77.3324 9.44857 77.6367 9.24805C77.9447 9.04395 78.0986 8.77718 78.0986 8.44775ZM84.9575 7.18555C84.9575 8.06641 84.7194 8.77002 84.2432 9.29639C83.7669 9.82275 83.1278 10.0859 82.3257 10.0859C81.5272 10.0859 80.8862 9.82096 80.4028 9.29102C79.923 8.76107 79.6831 8.05029 79.6831 7.15869V6.56787C79.6831 5.99137 79.7905 5.48291 80.0054 5.04248C80.2202 4.60205 80.5282 4.26188 80.9292 4.02197C81.3338 3.77848 81.7957 3.65674 82.3149 3.65674C83.092 3.65674 83.7204 3.91097 84.2002 4.41943C84.6836 4.92432 84.936 5.60465 84.9575 6.46045V7.18555ZM84.3237 6.55713C84.3237 5.82666 84.1429 5.25553 83.7812 4.84375C83.4232 4.42839 82.9344 4.2207 82.3149 4.2207C81.7026 4.2207 81.2157 4.42839 80.854 4.84375C80.4959 5.25553 80.3169 5.8374 80.3169 6.58936V7.18555C80.3169 7.91243 80.4977 8.48535 80.8594 8.9043C81.221 9.32324 81.7098 9.53271 82.3257 9.53271C82.9487 9.53271 83.4375 9.32503 83.792 8.90967C84.1465 8.4943 84.3237 7.91243 84.3237 7.16406V6.55713ZM91.4082 10H90.769L86.9985 4.75244V10H86.3594V3.74268H86.9985L90.769 8.99023V3.74268H91.4082V10ZM96.7256 8.32959H93.6909L93.0249 10H92.3589L94.9048 3.74268H95.5225L98.0469 10H97.3862L96.7256 8.32959ZM93.9058 7.78174H96.5054L95.2109 4.51074L93.9058 7.78174ZM99.6528 9.45752H102.94V10H99.0137V3.74268H99.6528V9.45752ZM107.452 10H106.807V3.74268H107.452V10ZM114.278 10H113.639L109.869 4.75244V10H109.229V3.74268H109.869L113.639 8.99023V3.74268H114.278V10ZM119.671 7.13721H116.572V10H115.933V3.74268H120.122V4.2959H116.572V6.58936H119.671V7.13721ZM126.25 7.18555C126.25 8.06641 126.012 8.77002 125.536 9.29639C125.06 9.82275 124.421 10.0859 123.619 10.0859C122.82 10.0859 122.179 9.82096 121.696 9.29102C121.216 8.76107 120.976 8.05029 120.976 7.15869V6.56787C120.976 5.99137 121.083 5.48291 121.298 5.04248C121.513 4.60205 121.821 4.26188 122.222 4.02197C122.627 3.77848 123.089 3.65674 123.608 3.65674C124.385 3.65674 125.013 3.91097 125.493 4.41943C125.977 4.92432 126.229 5.60465 126.25 6.46045V7.18555ZM125.617 6.55713C125.617 5.82666 125.436 5.25553 125.074 4.84375C124.716 4.42839 124.227 4.2207 123.608 4.2207C122.996 4.2207 122.509 4.42839 122.147 4.84375C121.789 5.25553 121.61 5.8374 121.61 6.58936V7.18555C121.61 7.91243 121.791 8.48535 122.152 8.9043C122.514 9.32324 123.003 9.53271 123.619 9.53271C124.242 9.53271 124.73 9.32503 125.085 8.90967C125.439 8.4943 125.617 7.91243 125.617 7.16406V6.55713ZM130.182 7.48633H128.281V10H127.642V3.74268H129.86C130.58 3.74268 131.142 3.91097 131.546 4.24756C131.955 4.58415 132.159 5.04606 132.159 5.6333C132.159 6.04508 132.033 6.40495 131.783 6.71289C131.532 7.01725 131.201 7.22673 130.789 7.34131L132.443 9.94629V10H131.756L130.182 7.48633ZM128.281 6.93848H129.978C130.444 6.93848 130.816 6.81852 131.095 6.57861C131.375 6.3387 131.514 6.02897 131.514 5.64941C131.514 5.23047 131.369 4.90104 131.079 4.66113C130.793 4.42122 130.392 4.29948 129.876 4.2959H128.281V6.93848ZM134.522 3.74268L136.939 9.1084L139.356 3.74268H140.21V10H139.571V7.43799L139.63 4.52148L137.181 10H136.697L134.259 4.55908L134.318 7.43799V10H133.679V3.74268H134.522ZM145.538 8.32959H142.503L141.837 10H141.171L143.717 3.74268H144.335L146.859 10H146.199L145.538 8.32959ZM142.718 7.78174H145.318L144.023 4.51074L142.718 7.78174ZM152.096 4.2959H149.808V10H149.169V4.2959H146.886V3.74268H152.096V4.2959ZM153.933 10H153.289V3.74268H153.933V10ZM160.722 7.18555C160.722 8.06641 160.484 8.77002 160.008 9.29639C159.532 9.82275 158.892 10.0859 158.09 10.0859C157.292 10.0859 156.651 9.82096 156.167 9.29102C155.688 8.76107 155.448 8.05029 155.448 7.15869V6.56787C155.448 5.99137 155.555 5.48291 155.77 5.04248C155.985 4.60205 156.293 4.26188 156.694 4.02197C157.098 3.77848 157.56 3.65674 158.08 3.65674C158.857 3.65674 159.485 3.91097 159.965 4.41943C160.448 4.92432 160.701 5.60465 160.722 6.46045V7.18555ZM160.088 6.55713C160.088 5.82666 159.908 5.25553 159.546 4.84375C159.188 4.42839 158.699 4.2207 158.08 4.2207C157.467 4.2207 156.98 4.42839 156.619 4.84375C156.261 5.25553 156.082 5.8374 156.082 6.58936V7.18555C156.082 7.91243 156.262 8.48535 156.624 8.9043C156.986 9.32324 157.474 9.53271 158.09 9.53271C158.713 9.53271 159.202 9.32503 159.557 8.90967C159.911 8.4943 160.088 7.91243 160.088 7.16406V6.55713ZM167.173 10H166.534L162.763 4.75244V10H162.124V3.74268H162.763L166.534 8.99023V3.74268H167.173V10Z" fill="#333333" fill-opacity="0.4"/>
<circle cx="112.5" cy="24.5" r="8.5" fill="#4980A8"/>
<g clip-path="url(#clip0)">
<path d="M116.619 21.381C116.111 20.873 115.284 20.873 114.776 21.381L109.554 26.6026C109.552 26.6051 109.55 26.6081 109.548 26.6107C109.545 26.6142 109.542 26.618 109.54 26.6217C109.532 26.6324 109.526 26.6439 109.522 26.6563C109.52 26.6601 109.518 26.6634 109.517 26.6672C109.517 26.6686 109.516 26.6701 109.516 26.6715L109.004 28.8218C109.001 28.8315 109.001 28.8413 109.001 28.851C109.001 28.8529 109 28.8546 109 28.8565C109 28.873 109.004 28.8891 109.009 28.9046C109.011 28.9082 109.012 28.9114 109.014 28.9149C109.021 28.9304 109.03 28.9453 109.042 28.9577C109.056 28.9715 109.072 28.982 109.09 28.9893C109.107 28.9965 109.126 29.0001 109.145 29.0001C109.156 29.0001 109.167 28.9988 109.178 28.9962L111.328 28.4844C111.332 28.4835 111.336 28.4813 111.339 28.48C111.344 28.4784 111.349 28.4766 111.354 28.4744C111.364 28.4696 111.374 28.4637 111.383 28.4566C111.386 28.4538 111.39 28.4518 111.393 28.4488C111.394 28.4476 111.396 28.447 111.397 28.4459L116.619 23.2241C117.127 22.7158 117.127 21.889 116.619 21.381ZM116.414 21.5857C116.774 21.9461 116.805 22.512 116.508 22.9087L115.091 21.4916C115.488 21.1948 116.054 21.2254 116.414 21.5857ZM115.697 23.7359L114.264 22.3024L114.469 22.0977L115.902 23.5312L115.697 23.7359ZM109.718 28.2815C109.662 28.2249 109.57 28.2249 109.514 28.2815L109.404 28.3911L109.774 26.8378L110.414 26.7667L110.332 27.5083C110.331 27.5138 110.333 27.5189 110.333 27.5242C110.333 27.5297 110.331 27.5347 110.332 27.5402C110.332 27.5449 110.335 27.5489 110.336 27.5535C110.337 27.5619 110.34 27.5696 110.343 27.5774C110.347 27.5868 110.351 27.5953 110.357 27.6036C110.361 27.6102 110.366 27.6162 110.371 27.622C110.378 27.6294 110.386 27.6356 110.394 27.6414C110.4 27.6459 110.407 27.6501 110.414 27.6535C110.423 27.658 110.433 27.6606 110.444 27.6631C110.449 27.6644 110.454 27.6674 110.46 27.6682C110.465 27.6687 110.47 27.669 110.475 27.669H110.475H110.476H110.476H110.476C110.481 27.669 110.486 27.6687 110.492 27.6682L111.233 27.5858L111.162 28.2261L109.609 28.5959L109.718 28.4863C109.775 28.4298 109.775 28.3381 109.718 28.2815ZM111.536 27.4882L114.776 24.2478C114.832 24.1912 114.832 24.0997 114.776 24.043C114.719 23.9864 114.628 23.9864 114.571 24.043L111.331 27.2834L110.64 27.3602L110.716 26.6691L113.957 23.4288C114.014 23.3722 114.014 23.2807 113.957 23.2241C113.9 23.1675 113.809 23.1675 113.752 23.2241L110.512 26.4643L110.051 26.5156L114.059 22.5072L115.493 23.9407L111.484 27.9491L111.536 27.4882ZM116.107 23.3264L114.673 21.893L114.878 21.6881L116.312 23.1216L116.107 23.3264Z" fill="#FAFAFA"/>
</g>
<line y1="6.85" x2="53" y2="6.85" stroke="#333333" stroke-opacity="0.4" stroke-width="0.3"/>
<line x1="173" y1="6.85" x2="226" y2="6.85" stroke="#333333" stroke-opacity="0.4" stroke-width="0.3"/>
<defs>
<clipPath id="clip0">
<rect width="8" height="8" fill="white" transform="translate(109 21)"/>
</clipPath>
</defs>
</svg>
