<svg width="25" height="25" viewBox="0 0 25 25" fill="none" xmlns="http://www.w3.org/2000/svg">
<path d="M23.5365 20.6778C23.5365 21.9832 23.1213 23.0401 22.3034 23.8184C21.4951 24.5877 20.426 24.9773 19.1262 24.9773H7.0885C5.78864 24.9773 4.71957 24.5877 3.91181 23.8184C3.09337 23.0395 2.67871 21.9828 2.67871 20.6778C2.67871 20.1758 2.6953 19.6791 2.72849 19.2015C2.76225 18.7132 2.83054 18.1818 2.93124 17.6213C3.03271 17.0561 3.16318 16.5219 3.31939 16.0336C3.48151 15.5281 3.70086 15.0296 3.97227 14.552C4.25418 14.0562 4.5853 13.6244 4.95647 13.2689C5.34557 12.8968 5.82126 12.5979 6.37115 12.3801C6.91913 12.1634 7.52662 12.0535 8.17664 12.0535C8.43166 12.0535 8.67866 12.1579 9.15473 12.468C9.45266 12.6624 9.79598 12.8836 10.175 13.1258C10.5023 13.3345 10.9455 13.5302 11.4935 13.707C11.9751 13.8628 12.464 13.9498 12.9469 13.9649C13.0001 13.9668 13.0534 13.9677 13.1066 13.9677C13.6429 13.9677 14.1854 13.8798 14.7202 13.707C15.2682 13.5302 15.712 13.3345 16.0391 13.1258C16.4221 12.8811 16.7654 12.6601 17.059 12.4686C17.5354 12.1579 17.7821 12.0535 18.0376 12.0535C18.6871 12.0535 19.2946 12.1634 19.8429 12.3801C20.3928 12.5979 20.8685 12.8973 21.2572 13.2689C21.629 13.6244 21.9601 14.0562 22.2418 14.552C22.5134 15.0299 22.7331 15.5281 22.8947 16.033C23.0511 16.5219 23.1819 17.0561 23.2834 17.6217C23.3836 18.1828 23.452 18.7142 23.4856 19.2011C23.5194 19.6772 23.5359 20.1739 23.5365 20.6778Z" fill="#C8C8C8"/>
<path d="M18.7391 6.02093C18.7391 7.67555 18.1457 9.10778 16.9752 10.2785C15.8046 11.4491 14.3722 12.0424 12.7176 12.0424H12.7147C11.0622 12.0419 9.63075 11.4485 8.46021 10.2785C7.28947 9.10778 6.69629 7.67555 6.69629 6.02093C6.69629 4.36687 7.28947 2.93446 8.46021 1.76392C9.63017 0.593758 11.0616 0.000572207 12.7147 0H12.7176C14.3717 0 15.8041 0.593376 16.9752 1.76392C18.1457 2.93446 18.7391 4.36687 18.7391 6.02093Z" fill="#1D425D"/>
<path d="M17.8574 6.02093C17.8574 7.67555 17.4654 9.10778 16.2949 10.2785C15.1243 11.4491 13.9767 12.0424 12.3221 12.0424H12.3192C10.6667 12.0419 9.23524 11.4485 8.0647 10.2785C6.89397 9.10778 6.30078 7.67555 6.30078 6.02093C6.30078 4.36687 6.89397 2.93446 8.0647 1.76392C9.23467 0.593758 10.6661 0.000572207 12.3192 0L12.1673 0.0017348C13.8214 0.0017348 14.9005 0.593376 16.0716 1.76392C17.2422 2.93446 17.8574 4.36687 17.8574 6.02093Z" fill="#4980A8"/>
<path d="M22.9086 20.7004C22.9086 22.0058 22.4934 23.0627 21.6755 23.8411C20.8672 24.6103 19.7981 25 18.4982 25H6.46057C5.16071 25 4.09164 24.6103 3.28388 23.8411C2.46544 23.0621 2.05078 22.0054 2.05078 20.7004C2.05078 20.1984 2.06738 19.7018 2.10056 19.2242C2.13432 18.7359 2.20261 18.2045 2.30331 17.6439C2.40479 17.0788 2.53525 16.5445 2.69146 16.0562C2.85358 15.5508 3.07293 15.0522 3.34435 14.5746C3.62625 14.0789 3.95737 13.6471 4.32854 13.2915C4.71764 12.9194 5.19333 12.6205 5.74322 12.4027C6.2912 12.186 6.89869 12.0762 7.54871 12.0762C7.80373 12.0762 8.05073 12.1805 8.5268 12.4906C8.82473 12.685 9.16805 12.9062 9.54704 13.1485C9.87434 13.3571 10.3176 13.5528 10.8656 13.7297C11.3472 13.8855 11.8361 13.9725 12.319 13.9875C12.3722 13.9894 12.4254 13.9904 12.4786 13.9904C13.015 13.9904 13.5574 13.9025 14.0923 13.7297C14.6402 13.5528 15.0841 13.3571 15.4112 13.1485C15.7942 12.9038 16.1375 12.6827 16.431 12.4912C16.9075 12.1805 17.1541 12.0762 17.4097 12.0762C18.0592 12.0762 18.6666 12.186 19.215 12.4027C19.7649 12.6205 20.2406 12.92 20.6293 13.2915C21.0011 13.6471 21.3322 14.0789 21.6139 14.5746C21.8855 15.0526 22.1052 15.5508 22.2668 16.0557C22.4232 16.5445 22.554 17.0788 22.6555 17.6443C22.7556 18.2054 22.8241 18.7368 22.8577 19.2238C22.8914 19.6998 22.908 20.1965 22.9086 20.7004Z" fill="white"/>
</svg>
