<svg width="80" height="80" viewBox="0 0 80 80" fill="none" xmlns="http://www.w3.org/2000/svg">
<circle cx="40" cy="40" r="40" fill="#222222"/>
<path d="M25.6144 63.1282H33.6168V29.4036H27.9961C27.9008 29.9442 27.7174 30.523 27.4483 31.1422C27.1792 31.7614 26.7576 32.333 26.186 32.857C25.6144 33.381 24.8451 33.8168 23.8758 34.1669C22.9064 34.517 21.6608 34.6909 20.1365 34.6909H19.1362V39.7401H25.6144V63.1282Z" fill="white"/>
<path d="M52.9564 63.7929C56.7028 63.7929 59.4822 62.8545 61.2923 60.9825C63.1023 59.1081 64.0098 56.0286 64.0098 51.7392C64.0098 47.6427 63.3024 44.6656 61.8877 42.8079C60.4754 40.9526 58.2271 40.0213 55.1475 40.0213C54.6069 40.0213 54.0591 40.0761 53.5066 40.1881C52.954 40.3 52.4181 40.4739 51.9108 40.712C51.4035 40.9526 50.9415 41.236 50.5295 41.5694C50.1174 41.9029 49.7983 42.2768 49.5768 42.6888L49.4839 42.5936L49.865 36.2583H62.6284V30.0659H43.7202L42.6723 48.3096H50.1031C50.2294 47.3259 50.5723 46.6353 51.1273 46.2375C51.6822 45.8398 52.3252 45.6421 53.0588 45.6421C54.1044 45.6421 54.8594 46.1184 55.319 47.0711C55.7787 48.0238 56.0097 49.5028 56.0097 51.501C56.0097 53.8208 55.812 55.607 55.4143 56.8598C55.0165 58.1102 54.183 58.7413 52.9135 58.7413C52.3419 58.7413 51.868 58.6223 51.4845 58.3841C51.1034 58.1459 50.8105 57.8339 50.6009 57.4338C50.3961 57.0384 50.2532 56.5883 50.1722 56.0786C50.0936 55.5713 50.0531 55.0307 50.0531 54.4567V53.2158H42.3389V54.4567C42.3389 57.4433 43.201 59.7464 44.9349 61.3612C46.6592 62.9831 49.3362 63.7929 52.9564 63.7929Z" fill="white"/>
<path d="M42.5128 15.1042C42.3985 15.19 42.3151 15.2924 42.2651 15.4115C42.2151 15.5306 42.1865 15.6877 42.1865 15.8878C42.1865 16.1688 42.2365 16.388 42.3437 16.5499C42.4461 16.7095 42.5986 16.7928 42.801 16.7928C43.0273 16.7928 43.2273 16.7238 43.3964 16.5833C43.5679 16.4427 43.6489 16.1903 43.6489 15.8235C43.6489 15.5282 43.6536 15.2829 43.6584 15.0899C43.6608 14.897 43.6632 14.7279 43.6632 14.5779C43.3321 14.7517 43.0797 14.8637 42.9106 14.9137C42.7391 14.9613 42.6081 15.0256 42.5128 15.1042Z" fill="#4980A8"/>
<path d="M71.9621 4.9771H69.2874C69.3565 4.7556 69.428 4.53411 69.428 4.28879C69.428 3.0265 68.3991 2 67.1344 2C65.8697 2 64.8456 3.0265 64.8456 4.28879C64.8456 4.53649 64.9123 4.7556 64.9861 4.9771H56.2215C56.2906 4.7556 56.3621 4.53411 56.3621 4.28879C56.3621 3.0265 55.3332 2 54.0685 2C52.8062 2 51.7773 3.0265 51.7773 4.28879C51.7773 4.53649 51.8464 4.7556 51.9202 4.9771H43.1533C43.2223 4.7556 43.2914 4.53411 43.2914 4.28879C43.2914 3.0265 42.2673 2 41.0026 2C39.7379 2 38.7138 3.0265 38.7138 4.28879C38.7138 4.53649 38.7805 4.7556 38.852 4.9771H30.085C30.1541 4.7556 30.2255 4.53411 30.2255 4.28879C30.2255 3.0265 29.199 2 27.9367 2C26.672 2 25.6455 3.0265 25.6455 4.28879C25.6455 4.53649 25.7122 4.7556 25.7837 4.9771H17.0191C17.0905 4.7556 17.1596 4.53411 17.1596 4.28879C17.1596 3.0265 16.1355 2 14.8708 2C13.6061 2 12.5796 3.0265 12.5796 4.28879C12.5796 4.53649 12.6463 4.7556 12.7178 4.9771H10.0384C6.423 4.9771 3.48877 7.91371 3.48877 11.5267V73.4504C3.48877 77.0658 6.423 80 10.0384 80H64.5669L78.5117 66.0553V11.5267C78.5117 7.91371 75.5775 4.9771 71.9621 4.9771ZM48.4358 10.9885L49.298 15.9543H49.3266L50.153 10.9885H52.2775L50.365 18.1287C50.2411 18.5813 50.1149 18.9552 49.9792 19.2481C49.8434 19.5411 49.6814 19.7697 49.4814 19.9364C49.2861 20.1008 49.0503 20.2175 48.774 20.2842C48.4954 20.3508 48.15 20.3818 47.7404 20.3818H47.2545C47.1878 20.3818 47.1116 20.3794 47.0378 20.3747C46.964 20.3699 46.8925 20.3651 46.8234 20.3556V18.8623C46.9068 18.879 46.9949 18.8933 47.083 18.9028C47.1712 18.9123 47.2569 18.9147 47.345 18.9147C47.5451 18.9147 47.7285 18.8623 47.8952 18.7527C48.0595 18.6432 48.1738 18.436 48.2358 18.1311L46.2328 10.9908L48.4358 10.9885ZM43.5081 12.3841C43.4033 12.2579 43.2342 12.1936 42.9985 12.1936C42.7007 12.1936 42.5007 12.2793 42.3959 12.4484C42.2911 12.6175 42.2339 12.8581 42.2244 13.1629H40.3381C40.3453 12.6652 40.4191 12.2674 40.5549 11.9697C40.6906 11.6744 40.8835 11.4386 41.1384 11.2624C41.3908 11.0885 41.6742 10.9694 41.9839 10.9027C42.2935 10.8384 42.6722 10.8051 43.1175 10.8051C43.9916 10.8051 44.6299 10.9646 45.03 11.2838C45.4301 11.6029 45.635 12.1412 45.635 12.9009V16.5425C45.635 16.8117 45.6445 17.0975 45.6683 17.3928C45.6898 17.6905 45.7636 17.9168 45.8851 18.074H43.8416C43.7963 17.9501 43.7725 17.8215 43.7582 17.681C43.7439 17.5405 43.7344 17.4023 43.7249 17.2618H43.6939C43.5439 17.5762 43.3247 17.8191 43.027 17.9954C42.7293 18.1716 42.3959 18.2573 42.0315 18.2573C41.4289 18.2573 40.9621 18.0906 40.6382 17.7524C40.3095 17.4166 40.1452 16.8641 40.1452 16.0972C40.1452 15.6756 40.2238 15.3088 40.381 14.9897C40.5382 14.6705 40.7478 14.4371 41.0098 14.2871C41.2717 14.1394 41.579 14.0275 41.9362 13.9465C42.2887 13.8655 42.6126 13.7893 42.9103 13.7107C43.0675 13.6655 43.1961 13.625 43.2962 13.5845C43.3962 13.544 43.4748 13.4987 43.532 13.4368C43.5891 13.3844 43.6248 13.3082 43.6439 13.2201C43.6629 13.1344 43.6725 13.0248 43.6725 12.8914C43.6653 12.6842 43.6153 12.5104 43.5081 12.3841ZM30.3446 8.72348H33.567L34.7197 14.8658H34.7459L35.8582 8.72348H39.0401V18.0763H36.999V10.7932H36.9728L35.5438 18.0763H33.8409L32.3333 10.7932H32.3071V18.0763H30.3422L30.3446 8.72348ZM74.9392 64.5739L74.1985 65.3146H68.5896C65.965 65.3146 63.8262 67.4533 63.8262 70.0779V75.6868L63.0855 76.4275H10.0384C8.39741 76.4275 7.06129 75.0914 7.06129 73.4504V23.4351H74.9392V64.5739Z" fill="#4980A8"/>
</svg>
