<svg width="332" height="162" viewBox="0 0 332 162" fill="none" xmlns="http://www.w3.org/2000/svg">
<path d="M11.9824 3.60547V6.1543H7.67578V18H4.64844V6.1543H0.322266V3.60547H11.9824ZM19.3945 7.08203C20.0521 7.08203 20.6478 7.19596 21.1816 7.42383C21.722 7.65169 22.1647 8 22.5098 8.46875C22.8027 8.86589 22.9818 9.27604 23.0469 9.69922C23.112 10.1159 23.1445 10.7995 23.1445 11.75V18H20.3027V11.5254C20.3027 10.9525 20.2051 10.4902 20.0098 10.1387C19.7559 9.64388 19.2741 9.39648 18.5645 9.39648C17.8288 9.39648 17.2689 9.64388 16.8848 10.1387C16.5072 10.627 16.3184 11.3268 16.3184 12.2383V18H13.5449V3.6543H16.3184V8.74219C16.722 8.1237 17.1875 7.69401 17.7148 7.45312C18.2487 7.20573 18.8086 7.08203 19.3945 7.08203ZM28.5254 7.35547V13.7715C28.5254 14.377 28.597 14.8327 28.7402 15.1387C28.9941 15.679 29.4922 15.9492 30.2344 15.9492C31.1849 15.9492 31.8359 15.5651 32.1875 14.7969C32.3698 14.3802 32.4609 13.8301 32.4609 13.1465V7.35547H35.2832V18H32.5781V16.4961C32.5521 16.5286 32.487 16.6263 32.3828 16.7891C32.2786 16.9518 32.1549 17.0951 32.0117 17.2188C31.5755 17.6094 31.1523 17.8763 30.7422 18.0195C30.3385 18.1628 29.8633 18.2344 29.3164 18.2344C27.7409 18.2344 26.6797 17.668 26.1328 16.5352C25.8268 15.9102 25.6738 14.9889 25.6738 13.7715V7.35547H28.5254ZM43.7598 7.10156C43.8118 7.10156 43.8542 7.10482 43.8867 7.11133C43.9258 7.11133 44.0072 7.11458 44.1309 7.12109V9.97266C43.9551 9.95312 43.7988 9.9401 43.6621 9.93359C43.5254 9.92708 43.4147 9.92383 43.3301 9.92383C42.2103 9.92383 41.4583 10.2884 41.0742 11.0176C40.8594 11.4277 40.752 12.0592 40.752 12.9121V18H37.9492V7.35547H40.6055V9.21094C41.0352 8.5013 41.4095 8.01628 41.7285 7.75586C42.2493 7.31966 42.9264 7.10156 43.7598 7.10156ZM47.9395 14.6016C47.998 15.0964 48.125 15.4479 48.3203 15.6562C48.6654 16.0273 49.3034 16.2129 50.2344 16.2129C50.7812 16.2129 51.2142 16.1315 51.5332 15.9688C51.8587 15.806 52.0215 15.5618 52.0215 15.2363C52.0215 14.9238 51.8913 14.6862 51.6309 14.5234C51.3704 14.3607 50.4036 14.0807 48.7305 13.6836C47.526 13.3841 46.6764 13.0098 46.1816 12.5605C45.6868 12.1178 45.4395 11.4798 45.4395 10.6465C45.4395 9.66341 45.8236 8.82031 46.5918 8.11719C47.3665 7.40755 48.4538 7.05273 49.8535 7.05273C51.1816 7.05273 52.2624 7.31966 53.0957 7.85352C53.9355 8.38086 54.4173 9.29557 54.541 10.5977H51.7578C51.7188 10.2396 51.6178 9.95638 51.4551 9.74805C51.1491 9.37044 50.6283 9.18164 49.8926 9.18164C49.2871 9.18164 48.8542 9.27604 48.5938 9.46484C48.3398 9.65365 48.2129 9.875 48.2129 10.1289C48.2129 10.4479 48.3496 10.679 48.623 10.8223C48.8965 10.972 49.8633 11.2292 51.5234 11.5938C52.6302 11.8542 53.4603 12.248 54.0137 12.7754C54.5605 13.3092 54.834 13.9766 54.834 14.7773C54.834 15.832 54.4401 16.6947 53.6523 17.3652C52.8711 18.0293 51.6602 18.3613 50.0195 18.3613C48.3464 18.3613 47.1094 18.0098 46.3086 17.3066C45.5143 16.597 45.1172 15.6953 45.1172 14.6016H47.9395ZM60.8301 7.10156C61.4746 7.10156 62.0475 7.24479 62.5488 7.53125C63.0501 7.8112 63.457 8.20182 63.7695 8.70312V3.625H66.5918V18H63.8867V16.5254C63.4896 17.1569 63.0371 17.6159 62.5293 17.9023C62.0215 18.1888 61.39 18.332 60.6348 18.332C59.3913 18.332 58.3431 17.8307 57.4902 16.8281C56.6439 15.819 56.2207 14.5267 56.2207 12.9512C56.2207 11.1348 56.6374 9.70573 57.4707 8.66406C58.3105 7.6224 59.4303 7.10156 60.8301 7.10156ZM61.4355 15.9883C62.2233 15.9883 62.8223 15.6953 63.2324 15.1094C63.6426 14.5234 63.8477 13.765 63.8477 12.834C63.8477 11.5319 63.5189 10.6009 62.8613 10.041C62.4577 9.70247 61.9889 9.5332 61.4551 9.5332C60.6413 9.5332 60.0423 9.84245 59.6582 10.4609C59.2806 11.0729 59.0918 11.8346 59.0918 12.7461C59.0918 13.7292 59.2839 14.5169 59.668 15.1094C60.0586 15.6953 60.6478 15.9883 61.4355 15.9883ZM75 12.8242C74.8242 12.9349 74.6452 13.026 74.4629 13.0977C74.2871 13.1628 74.043 13.2246 73.7305 13.2832L73.1055 13.4004C72.5195 13.5046 72.0996 13.6315 71.8457 13.7812C71.416 14.0352 71.2012 14.429 71.2012 14.9629C71.2012 15.4382 71.3314 15.7832 71.5918 15.998C71.8587 16.2064 72.181 16.3105 72.5586 16.3105C73.1576 16.3105 73.7077 16.1348 74.209 15.7832C74.7168 15.4316 74.9805 14.7904 75 13.8594V12.8242ZM73.3105 11.5254C73.8249 11.4603 74.1927 11.3789 74.4141 11.2812C74.8112 11.112 75.0098 10.8483 75.0098 10.4902C75.0098 10.054 74.8568 9.75456 74.5508 9.5918C74.2513 9.42253 73.8086 9.33789 73.2227 9.33789C72.5651 9.33789 72.0996 9.50065 71.8262 9.82617C71.6309 10.0671 71.5007 10.3926 71.4355 10.8027H68.75C68.8086 9.87174 69.069 9.10677 69.5312 8.50781C70.2669 7.57031 71.5299 7.10156 73.3203 7.10156C74.4857 7.10156 75.5208 7.33268 76.4258 7.79492C77.3307 8.25716 77.7832 9.12956 77.7832 10.4121V15.2949C77.7832 15.6335 77.7897 16.0436 77.8027 16.5254C77.8223 16.89 77.8776 17.1374 77.9688 17.2676C78.0599 17.3978 78.1966 17.5052 78.3789 17.5898V18H75.3516C75.2669 17.7852 75.2083 17.5833 75.1758 17.3945C75.1432 17.2057 75.1172 16.9909 75.0977 16.75C74.7135 17.1667 74.2708 17.5215 73.7695 17.8145C73.1706 18.1595 72.4935 18.332 71.7383 18.332C70.7747 18.332 69.9772 18.0586 69.3457 17.5117C68.7207 16.9583 68.4082 16.1771 68.4082 15.168C68.4082 13.8594 68.9128 12.9121 69.9219 12.3262C70.4753 12.0072 71.2891 11.7793 72.3633 11.6426L73.3105 11.5254ZM80.6934 20.041L81.0449 20.0605C81.3184 20.0736 81.5788 20.0638 81.8262 20.0312C82.0736 19.9987 82.2819 19.9238 82.4512 19.8066C82.6139 19.696 82.7637 19.4648 82.9004 19.1133C83.0436 18.7617 83.1022 18.5469 83.0762 18.4688L79.1699 7.35547H82.2656L84.5898 15.207L86.7871 7.35547H89.7461L86.0938 17.8242C85.3906 19.8424 84.834 21.0924 84.4238 21.5742C84.0137 22.0625 83.1934 22.3066 81.9629 22.3066C81.7155 22.3066 81.5169 22.3034 81.3672 22.2969C81.2174 22.2969 80.9928 22.2871 80.6934 22.2676V20.041Z" fill="#333333"/>
<path d="M5.08301 41H4.2041V31.3906L1.30371 32.4673V31.647L4.93652 30.2993H5.08301V41ZM13.4033 41H12.5244V31.3906L9.62402 32.4673V31.647L13.2568 30.2993H13.4033V41ZM19.1455 31.0464V33.0752H20.7861V33.793H19.1455V39.0737C19.1455 39.5132 19.2236 39.8403 19.3799 40.0552C19.541 40.27 19.8071 40.3774 20.1782 40.3774C20.3247 40.3774 20.5615 40.353 20.8887 40.3042L20.9253 41.022C20.6958 41.105 20.3833 41.1465 19.9878 41.1465C19.3872 41.1465 18.9502 40.9731 18.6768 40.6265C18.4033 40.2749 18.2666 39.7598 18.2666 39.0811V33.793H16.8091V33.0752H18.2666V31.0464H19.1455ZM23.4741 34.4155C23.7622 33.9419 24.1309 33.5757 24.5801 33.3169C25.0293 33.0581 25.52 32.9287 26.0522 32.9287C26.9019 32.9287 27.5342 33.168 27.9492 33.6465C28.3643 34.125 28.5742 34.8428 28.5791 35.7998V41H27.7075V35.7925C27.7026 35.0845 27.5513 34.5571 27.2534 34.2104C26.9604 33.8638 26.4893 33.6904 25.8398 33.6904C25.2979 33.6904 24.8169 33.8613 24.397 34.2031C23.9819 34.54 23.6743 34.9966 23.4741 35.5728V41H22.6025V29.75H23.4741V34.4155ZM33.999 36.9204C33.999 36.1587 34.1455 35.4727 34.4385 34.8623C34.7363 34.252 35.1538 33.7783 35.6909 33.4414C36.2329 33.0996 36.8457 32.9287 37.5293 32.9287C38.584 32.9287 39.4385 33.2998 40.0928 34.042C40.7471 34.7793 41.0742 35.7583 41.0742 36.979V37.1621C41.0742 37.9287 40.9253 38.6196 40.6274 39.2349C40.3345 39.8452 39.9194 40.3164 39.3823 40.6484C38.8452 40.9805 38.2324 41.1465 37.5439 41.1465C36.4941 41.1465 35.6396 40.7778 34.9805 40.0405C34.3262 39.2983 33.999 38.3169 33.999 37.0962V36.9204ZM34.8779 37.1621C34.8779 38.1094 35.1221 38.8882 35.6104 39.4985C36.1035 40.104 36.748 40.4067 37.5439 40.4067C38.335 40.4067 38.9746 40.104 39.4629 39.4985C39.9561 38.8882 40.2026 38.085 40.2026 37.0889V36.9204C40.2026 36.3149 40.0903 35.7607 39.8657 35.2578C39.6411 34.7549 39.3262 34.3667 38.9209 34.0933C38.5156 33.8149 38.0518 33.6758 37.5293 33.6758C36.748 33.6758 36.1108 33.9834 35.6177 34.5986C35.1245 35.209 34.8779 36.0098 34.8779 37.001V37.1621ZM43.5205 41V33.793H42.2095V33.0752H43.5205V32.1157C43.5205 31.3052 43.7256 30.6826 44.1357 30.248C44.5508 29.8135 45.127 29.5962 45.8643 29.5962C46.1963 29.5962 46.5063 29.6377 46.7944 29.7207L46.7285 30.4531C46.4844 30.3945 46.2183 30.3652 45.9302 30.3652C45.4468 30.3652 45.0708 30.5166 44.8022 30.8193C44.5337 31.1172 44.3994 31.542 44.3994 32.0938V33.0752H46.2891V33.793H44.3994V41H43.5205ZM59.6484 41H58.7476L52.6172 31.874V41H51.709V30.3359H52.6172L58.7549 39.4692V30.3359H59.6484V41ZM61.6699 36.9204C61.6699 36.1587 61.8164 35.4727 62.1094 34.8623C62.4072 34.252 62.8247 33.7783 63.3618 33.4414C63.9038 33.0996 64.5166 32.9287 65.2002 32.9287C66.2549 32.9287 67.1094 33.2998 67.7637 34.042C68.418 34.7793 68.7451 35.7583 68.7451 36.979V37.1621C68.7451 37.9287 68.5962 38.6196 68.2983 39.2349C68.0054 39.8452 67.5903 40.3164 67.0532 40.6484C66.5161 40.9805 65.9033 41.1465 65.2148 41.1465C64.165 41.1465 63.3105 40.7778 62.6514 40.0405C61.9971 39.2983 61.6699 38.3169 61.6699 37.0962V36.9204ZM62.5488 37.1621C62.5488 38.1094 62.793 38.8882 63.2812 39.4985C63.7744 40.104 64.4189 40.4067 65.2148 40.4067C66.0059 40.4067 66.6455 40.104 67.1338 39.4985C67.627 38.8882 67.8735 38.085 67.8735 37.0889V36.9204C67.8735 36.3149 67.7612 35.7607 67.5366 35.2578C67.312 34.7549 66.9971 34.3667 66.5918 34.0933C66.1865 33.8149 65.7227 33.6758 65.2002 33.6758C64.4189 33.6758 63.7817 33.9834 63.2886 34.5986C62.7954 35.209 62.5488 36.0098 62.5488 37.001V37.1621ZM72.9126 39.7915L75.3223 33.0752H76.2231L73.2642 41H72.5537L69.5801 33.0752H70.481L72.9126 39.7915ZM80.6323 41.1465C79.9585 41.1465 79.3481 40.9805 78.8013 40.6484C78.2593 40.3164 77.8369 39.855 77.5342 39.2642C77.2314 38.6685 77.0801 38.002 77.0801 37.2646V36.9497C77.0801 36.188 77.2266 35.502 77.5195 34.8916C77.8174 34.2812 78.23 33.8027 78.7573 33.4561C79.2847 33.1045 79.856 32.9287 80.4712 32.9287C81.4331 32.9287 82.1948 33.2583 82.7563 33.9175C83.3228 34.5718 83.606 35.4678 83.606 36.6055V37.0962H77.9517V37.2646C77.9517 38.1631 78.208 38.9126 78.7207 39.5132C79.2383 40.1089 79.8877 40.4067 80.6689 40.4067C81.1377 40.4067 81.5503 40.3213 81.9067 40.1504C82.2681 39.9795 82.5952 39.7061 82.8882 39.3301L83.4375 39.7476C82.793 40.6802 81.8579 41.1465 80.6323 41.1465ZM80.4712 33.6758C79.812 33.6758 79.2554 33.9175 78.8013 34.4009C78.3521 34.8843 78.0786 35.5337 77.981 36.3491H82.7344V36.2539C82.71 35.4922 82.4927 34.8721 82.0825 34.3936C81.6724 33.915 81.1353 33.6758 80.4712 33.6758ZM86.1108 33.0752L86.1401 34.3643C86.4331 33.8857 86.7993 33.5269 87.2388 33.2876C87.6782 33.0483 88.1665 32.9287 88.7036 32.9287C89.9536 32.9287 90.7471 33.4414 91.084 34.4668C91.3672 33.9736 91.7456 33.5952 92.2192 33.3315C92.6929 33.063 93.2153 32.9287 93.7866 32.9287C95.4858 32.9287 96.3525 33.8564 96.3867 35.7119V41H95.5078V35.7778C95.5029 35.0698 95.3491 34.5449 95.0464 34.2031C94.7485 33.8613 94.2603 33.6904 93.5815 33.6904C92.9517 33.7002 92.4194 33.9053 91.9849 34.3057C91.5503 34.7012 91.3086 35.1846 91.2598 35.7559V41H90.3809V35.7119C90.376 35.0332 90.2148 34.5278 89.8975 34.1958C89.585 33.8589 89.1016 33.6904 88.4473 33.6904C87.8955 33.6904 87.4219 33.8491 87.0264 34.1665C86.6309 34.479 86.3379 34.9453 86.1475 35.5654V41H85.2686V33.0752H86.1108ZM104.993 37.1182C104.993 38.3535 104.719 39.335 104.172 40.0625C103.625 40.7852 102.891 41.1465 101.968 41.1465C100.864 41.1465 100.029 40.7363 99.4629 39.916L99.4263 41H98.606V29.75H99.4775V34.2251C100.034 33.3608 100.859 32.9287 101.953 32.9287C102.891 32.9287 103.63 33.2876 104.172 34.0054C104.719 34.7183 104.993 35.7119 104.993 36.9863V37.1182ZM104.114 36.9644C104.114 35.9194 103.911 35.1138 103.506 34.5474C103.101 33.9761 102.529 33.6904 101.792 33.6904C101.23 33.6904 100.754 33.8296 100.364 34.1079C99.9731 34.3813 99.6777 34.7842 99.4775 35.3164V38.8906C99.917 39.8867 100.693 40.3848 101.807 40.3848C102.529 40.3848 103.093 40.0991 103.499 39.5278C103.909 38.9565 104.114 38.1021 104.114 36.9644ZM110.002 41.1465C109.329 41.1465 108.718 40.9805 108.171 40.6484C107.629 40.3164 107.207 39.855 106.904 39.2642C106.602 38.6685 106.45 38.002 106.45 37.2646V36.9497C106.45 36.188 106.597 35.502 106.89 34.8916C107.188 34.2812 107.6 33.8027 108.127 33.4561C108.655 33.1045 109.226 32.9287 109.841 32.9287C110.803 32.9287 111.565 33.2583 112.126 33.9175C112.693 34.5718 112.976 35.4678 112.976 36.6055V37.0962H107.322V37.2646C107.322 38.1631 107.578 38.9126 108.091 39.5132C108.608 40.1089 109.258 40.4067 110.039 40.4067C110.508 40.4067 110.92 40.3213 111.277 40.1504C111.638 39.9795 111.965 39.7061 112.258 39.3301L112.808 39.7476C112.163 40.6802 111.228 41.1465 110.002 41.1465ZM109.841 33.6758C109.182 33.6758 108.625 33.9175 108.171 34.4009C107.722 34.8843 107.449 35.5337 107.351 36.3491H112.104V36.2539C112.08 35.4922 111.863 34.8721 111.453 34.3936C111.042 33.915 110.505 33.6758 109.841 33.6758ZM118.345 33.8223C118.159 33.7881 117.961 33.771 117.751 33.771C117.205 33.771 116.741 33.9248 116.36 34.2324C115.984 34.5352 115.715 34.9771 115.554 35.5581V41H114.683V33.0752H115.54L115.554 34.335C116.018 33.3975 116.763 32.9287 117.788 32.9287C118.032 32.9287 118.225 32.9604 118.367 33.0239L118.345 33.8223ZM118.645 42.9922L118.125 42.6113C118.569 42.0156 118.799 41.3979 118.813 40.7583V39.623H119.67V40.5386C119.67 41.5542 119.329 42.3721 118.645 42.9922ZM131.887 41H125.208V40.3262L128.862 36.1807C129.468 35.4824 129.888 34.9062 130.122 34.4521C130.356 33.998 130.474 33.5562 130.474 33.1265C130.474 32.4526 130.276 31.9204 129.88 31.5298C129.485 31.1343 128.94 30.9365 128.247 30.9365C127.529 30.9365 126.948 31.166 126.504 31.625C126.064 32.084 125.845 32.6797 125.845 33.4121H124.973C124.973 32.8115 125.107 32.2646 125.376 31.7715C125.649 31.2783 126.035 30.8926 126.533 30.6143C127.036 30.3311 127.607 30.1895 128.247 30.1895C129.224 30.1895 129.985 30.4458 130.532 30.9585C131.084 31.4712 131.36 32.1694 131.36 33.0532C131.36 33.5513 131.204 34.0957 130.891 34.6865C130.583 35.2773 130.039 36.0146 129.258 36.8984L126.284 40.2603H131.887V41ZM139.958 36.5542C139.958 38.0581 139.683 39.2007 139.131 39.9819C138.579 40.7583 137.766 41.1465 136.692 41.1465C135.637 41.1465 134.829 40.7656 134.268 40.0039C133.706 39.2373 133.418 38.124 133.403 36.6641V34.7524C133.403 33.2534 133.682 32.1182 134.238 31.3467C134.795 30.5752 135.608 30.1895 136.677 30.1895C137.732 30.1895 138.538 30.563 139.094 31.3101C139.651 32.0522 139.939 33.1484 139.958 34.5986V36.5542ZM139.08 34.6426C139.08 33.4219 138.879 32.499 138.479 31.874C138.083 31.249 137.483 30.9365 136.677 30.9365C135.886 30.9365 135.291 31.2417 134.89 31.8521C134.49 32.4624 134.285 33.3633 134.275 34.5547V36.6494C134.275 37.8652 134.48 38.7954 134.89 39.4399C135.305 40.0845 135.906 40.4067 136.692 40.4067C137.473 40.4067 138.064 40.0918 138.464 39.4619C138.87 38.832 139.075 37.9092 139.08 36.6934V34.6426ZM145.928 41H145.049V31.3906L142.148 32.4673V31.647L145.781 30.2993H145.928V41ZM155.64 36.0635C155.327 36.5225 154.939 36.8789 154.475 37.1328C154.011 37.3818 153.508 37.5063 152.966 37.5063C152.361 37.5063 151.826 37.3501 151.362 37.0376C150.898 36.7251 150.54 36.293 150.286 35.7412C150.032 35.1895 149.905 34.5864 149.905 33.9321C149.905 33.229 150.039 32.5894 150.308 32.0132C150.581 31.437 150.959 30.9902 151.443 30.6729C151.931 30.3506 152.493 30.1895 153.127 30.1895C154.197 30.1895 155.029 30.5654 155.625 31.3174C156.221 32.0645 156.519 33.1265 156.519 34.5034V35.2944C156.519 37.2183 156.108 38.6636 155.288 39.6304C154.468 40.5972 153.215 41.0806 151.531 41.0806H151.37L151.377 40.3188H151.685C152.959 40.2993 153.928 39.938 154.592 39.2349C155.256 38.5317 155.605 37.4746 155.64 36.0635ZM153.076 36.752C153.662 36.752 154.187 36.5786 154.651 36.2319C155.12 35.8804 155.452 35.4263 155.647 34.8696V34.3643C155.647 33.2803 155.42 32.4404 154.966 31.8447C154.517 31.2441 153.909 30.9438 153.142 30.9438C152.449 30.9438 151.88 31.2246 151.436 31.7861C150.991 32.3428 150.769 33.0459 150.769 33.8955C150.769 34.7109 150.981 35.3921 151.406 35.939C151.836 36.481 152.393 36.752 153.076 36.752Z" fill="#333333" fill-opacity="0.69"/>
<circle cx="74" cy="83" r="3" fill="#B32B32"/>
<circle cx="109.5" cy="11.5" r="8.5" fill="#4980A8"/>
<g clip-path="url(#clip0)">
<path d="M113.619 8.38096C113.111 7.87301 112.284 7.87301 111.776 8.38096L106.554 13.6026C106.552 13.6051 106.55 13.6081 106.548 13.6107C106.545 13.6142 106.542 13.618 106.54 13.6217C106.532 13.6324 106.526 13.6439 106.522 13.6563C106.52 13.6601 106.518 13.6634 106.517 13.6672C106.517 13.6686 106.516 13.6701 106.516 13.6715L106.004 15.8218C106.001 15.8315 106.001 15.8413 106.001 15.851C106.001 15.8529 106 15.8546 106 15.8565C106 15.873 106.004 15.8891 106.009 15.9046C106.011 15.9082 106.012 15.9114 106.014 15.9149C106.021 15.9304 106.03 15.9453 106.042 15.9577C106.056 15.9715 106.072 15.982 106.09 15.9893C106.107 15.9965 106.126 16.0001 106.145 16.0001C106.156 16.0001 106.167 15.9988 106.178 15.9962L108.328 15.4844C108.332 15.4835 108.336 15.4813 108.339 15.48C108.344 15.4784 108.349 15.4766 108.354 15.4744C108.364 15.4696 108.374 15.4637 108.383 15.4566C108.386 15.4538 108.39 15.4518 108.393 15.4488C108.394 15.4476 108.396 15.447 108.397 15.4459L113.619 10.2241C114.127 9.71584 114.127 8.88905 113.619 8.38096ZM113.414 8.5857C113.774 8.9461 113.805 9.51196 113.508 9.90871L112.091 8.49158C112.488 8.19475 113.054 8.22545 113.414 8.5857ZM112.697 10.7359L111.264 9.30244L111.469 9.0977L112.902 10.5312L112.697 10.7359ZM106.718 15.2815C106.662 15.2249 106.57 15.2249 106.514 15.2815L106.404 15.3911L106.774 13.8378L107.414 13.7667L107.332 14.5083C107.331 14.5138 107.333 14.5189 107.333 14.5242C107.333 14.5297 107.331 14.5347 107.332 14.5402C107.332 14.5449 107.335 14.5489 107.336 14.5535C107.337 14.5619 107.34 14.5696 107.343 14.5774C107.347 14.5868 107.351 14.5953 107.357 14.6036C107.361 14.6102 107.366 14.6162 107.371 14.622C107.378 14.6294 107.386 14.6356 107.394 14.6414C107.4 14.6459 107.407 14.6501 107.414 14.6535C107.423 14.658 107.433 14.6606 107.444 14.6631C107.449 14.6644 107.454 14.6674 107.46 14.6682C107.465 14.6687 107.47 14.669 107.475 14.669H107.475H107.476H107.476H107.476C107.481 14.669 107.486 14.6687 107.492 14.6682L108.233 14.5858L108.162 15.2261L106.609 15.5959L106.718 15.4863C106.775 15.4298 106.775 15.3381 106.718 15.2815ZM108.536 14.4882L111.776 11.2478C111.832 11.1912 111.832 11.0997 111.776 11.043C111.719 10.9864 111.628 10.9864 111.571 11.043L108.331 14.2834L107.64 14.3602L107.716 13.6691L110.957 10.4288C111.014 10.3722 111.014 10.2807 110.957 10.2241C110.9 10.1675 110.809 10.1675 110.752 10.2241L107.512 13.4643L107.051 13.5156L111.059 9.50719L112.493 10.9407L108.484 14.9491L108.536 14.4882ZM113.107 10.3264L111.673 8.89296L111.878 8.68807L113.312 10.1216L113.107 10.3264Z" fill="#FAFAFA"/>
</g>
<path d="M104.987 69.2041V71.1157H101.757V80H99.4863V71.1157H96.2417V69.2041H104.987ZM109.66 71.8262C109.699 71.8262 109.73 71.8286 109.755 71.8335C109.784 71.8335 109.845 71.8359 109.938 71.8408V73.9795C109.806 73.9648 109.689 73.9551 109.586 73.9502C109.484 73.9453 109.401 73.9429 109.337 73.9429C108.498 73.9429 107.934 74.2163 107.646 74.7632C107.484 75.0708 107.404 75.5444 107.404 76.1841V80H105.302V72.0166H107.294V73.4082C107.616 72.876 107.897 72.5122 108.136 72.3169C108.527 71.9897 109.035 71.8262 109.66 71.8262ZM115.57 76.1182C115.438 76.2012 115.304 76.2695 115.167 76.3232C115.036 76.3721 114.853 76.4185 114.618 76.4624L114.149 76.5503C113.71 76.6284 113.395 76.7236 113.205 76.8359C112.882 77.0264 112.721 77.3218 112.721 77.7222C112.721 78.0786 112.819 78.3374 113.014 78.4985C113.214 78.6548 113.456 78.7329 113.739 78.7329C114.188 78.7329 114.601 78.6011 114.977 78.3374C115.358 78.0737 115.556 77.5928 115.57 76.8945V76.1182ZM114.303 75.144C114.689 75.0952 114.965 75.0342 115.131 74.9609C115.429 74.834 115.578 74.6362 115.578 74.3677C115.578 74.0405 115.463 73.8159 115.233 73.6938C115.009 73.5669 114.677 73.5034 114.237 73.5034C113.744 73.5034 113.395 73.6255 113.19 73.8696C113.043 74.0503 112.946 74.2944 112.897 74.6021H110.883C110.927 73.9038 111.122 73.3301 111.469 72.8809C112.021 72.1777 112.968 71.8262 114.311 71.8262C115.185 71.8262 115.961 71.9995 116.64 72.3462C117.318 72.6929 117.658 73.3472 117.658 74.3091V77.9712C117.658 78.2251 117.663 78.5327 117.672 78.894C117.687 79.1675 117.729 79.353 117.797 79.4507C117.865 79.5483 117.968 79.6289 118.104 79.6924V80H115.834C115.771 79.8389 115.727 79.6875 115.702 79.5459C115.678 79.4043 115.658 79.2432 115.644 79.0625C115.355 79.375 115.023 79.6411 114.647 79.8608C114.198 80.1196 113.69 80.249 113.124 80.249C112.401 80.249 111.803 80.0439 111.33 79.6338C110.861 79.2188 110.626 78.6328 110.626 77.876C110.626 76.8945 111.005 76.1841 111.762 75.7446C112.177 75.5054 112.787 75.3345 113.593 75.2319L114.303 75.144ZM124.44 72.0166H126.681L123.803 80H121.598L118.734 72.0166H121.078L122.741 77.9053L124.44 72.0166ZM131.017 73.5254C130.534 73.5254 130.158 73.6768 129.889 73.9795C129.625 74.2822 129.459 74.6924 129.391 75.21H132.636C132.602 74.6582 132.433 74.2407 132.13 73.9575C131.833 73.6694 131.461 73.5254 131.017 73.5254ZM131.017 71.8042C131.681 71.8042 132.279 71.9287 132.812 72.1777C133.344 72.4268 133.783 72.8198 134.13 73.3569C134.442 73.8306 134.645 74.3799 134.738 75.0049C134.792 75.3711 134.813 75.8984 134.804 76.5869H129.34C129.369 77.3877 129.621 77.9492 130.094 78.2715C130.382 78.4717 130.729 78.5718 131.134 78.5718C131.564 78.5718 131.913 78.4497 132.182 78.2056C132.328 78.0737 132.458 77.8906 132.57 77.6562H134.701C134.647 78.1299 134.401 78.6108 133.961 79.0991C133.278 79.8755 132.321 80.2637 131.09 80.2637C130.075 80.2637 129.179 79.9365 128.402 79.2822C127.626 78.6279 127.238 77.5635 127.238 76.0889C127.238 74.707 127.587 73.6475 128.285 72.9102C128.988 72.1729 129.899 71.8042 131.017 71.8042ZM138.349 80H136.261V69.2041H138.349V80ZM147.511 69.0942C147.643 69.0942 147.763 69.0991 147.87 69.1089C147.978 69.1138 148.124 69.1235 148.31 69.1382V70.8374C148.192 70.8228 147.995 70.813 147.716 70.8081C147.443 70.7983 147.252 70.8594 147.145 70.9912C147.042 71.1182 146.991 71.2598 146.991 71.416C146.991 71.5723 146.991 71.7969 146.991 72.0898H148.361V73.562H146.991V80H144.911V73.562H143.747V72.0898H144.889V71.5771C144.889 70.7227 145.033 70.1343 145.321 69.812C145.624 69.3335 146.354 69.0942 147.511 69.0942ZM153.898 71.8262C153.937 71.8262 153.969 71.8286 153.993 71.8335C154.022 71.8335 154.083 71.8359 154.176 71.8408V73.9795C154.044 73.9648 153.927 73.9551 153.825 73.9502C153.722 73.9453 153.639 73.9429 153.576 73.9429C152.736 73.9429 152.172 74.2163 151.884 74.7632C151.723 75.0708 151.642 75.5444 151.642 76.1841V80H149.54V72.0166H151.532V73.4082C151.854 72.876 152.135 72.5122 152.375 72.3169C152.765 71.9897 153.273 71.8262 153.898 71.8262ZM158.988 78.5278C159.599 78.5278 160.067 78.3105 160.395 77.876C160.722 77.4414 160.885 76.8237 160.885 76.0229C160.885 75.2222 160.722 74.6069 160.395 74.1772C160.067 73.7427 159.599 73.5254 158.988 73.5254C158.378 73.5254 157.907 73.7427 157.575 74.1772C157.248 74.6069 157.084 75.2222 157.084 76.0229C157.084 76.8237 157.248 77.4414 157.575 77.876C157.907 78.3105 158.378 78.5278 158.988 78.5278ZM163.075 76.0229C163.075 77.1948 162.738 78.1982 162.064 79.0332C161.391 79.8633 160.368 80.2783 158.996 80.2783C157.624 80.2783 156.601 79.8633 155.927 79.0332C155.253 78.1982 154.916 77.1948 154.916 76.0229C154.916 74.8706 155.253 73.8721 155.927 73.0273C156.601 72.1826 157.624 71.7603 158.996 71.7603C160.368 71.7603 161.391 72.1826 162.064 73.0273C162.738 73.8721 163.075 74.8706 163.075 76.0229ZM173.498 71.8408C173.849 71.8408 174.196 71.9092 174.538 72.0459C174.879 72.1826 175.189 72.4219 175.468 72.7637C175.692 73.042 175.844 73.3838 175.922 73.7891C175.971 74.0576 175.995 74.4507 175.995 74.9683L175.98 80H173.842V74.917C173.842 74.6143 173.793 74.3652 173.695 74.1699C173.51 73.7988 173.168 73.6133 172.67 73.6133C172.094 73.6133 171.696 73.8525 171.476 74.3311C171.364 74.585 171.308 74.8901 171.308 75.2466V80H169.206V75.2466C169.206 74.7729 169.157 74.4287 169.059 74.2139C168.883 73.8281 168.539 73.6353 168.026 73.6353C167.431 73.6353 167.03 73.8281 166.825 74.2139C166.713 74.4336 166.657 74.7607 166.657 75.1953V80H164.54V72.0312H166.569V73.1958C166.828 72.7808 167.072 72.4854 167.301 72.3096C167.707 71.9971 168.231 71.8408 168.876 71.8408C169.486 71.8408 169.979 71.9751 170.355 72.2437C170.658 72.4927 170.888 72.8125 171.044 73.2031C171.317 72.7344 171.657 72.3901 172.062 72.1704C172.492 71.9507 172.97 71.8408 173.498 71.8408ZM184.66 75.9204H187.399L186.051 71.6724L184.66 75.9204ZM184.799 69.2041H187.348L191.171 80H188.725L188.029 77.7808H184.052L183.305 80H180.946L184.799 69.2041ZM196.781 76.1182C196.649 76.2012 196.515 76.2695 196.378 76.3232C196.247 76.3721 196.063 76.4185 195.829 76.4624L195.36 76.5503C194.921 76.6284 194.606 76.7236 194.416 76.8359C194.093 77.0264 193.932 77.3218 193.932 77.7222C193.932 78.0786 194.03 78.3374 194.225 78.4985C194.425 78.6548 194.667 78.7329 194.95 78.7329C195.399 78.7329 195.812 78.6011 196.188 78.3374C196.569 78.0737 196.767 77.5928 196.781 76.8945V76.1182ZM195.514 75.144C195.9 75.0952 196.176 75.0342 196.342 74.9609C196.64 74.834 196.789 74.6362 196.789 74.3677C196.789 74.0405 196.674 73.8159 196.444 73.6938C196.22 73.5669 195.888 73.5034 195.448 73.5034C194.955 73.5034 194.606 73.6255 194.401 73.8696C194.254 74.0503 194.157 74.2944 194.108 74.6021H192.094C192.138 73.9038 192.333 73.3301 192.68 72.8809C193.231 72.1777 194.179 71.8262 195.521 71.8262C196.396 71.8262 197.172 71.9995 197.851 72.3462C198.529 72.6929 198.869 73.3472 198.869 74.3091V77.9712C198.869 78.2251 198.874 78.5327 198.883 78.894C198.898 79.1675 198.939 79.353 199.008 79.4507C199.076 79.5483 199.179 79.6289 199.315 79.6924V80H197.045C196.981 79.8389 196.938 79.6875 196.913 79.5459C196.889 79.4043 196.869 79.2432 196.854 79.0625C196.566 79.375 196.234 79.6411 195.858 79.8608C195.409 80.1196 194.901 80.249 194.335 80.249C193.612 80.249 193.014 80.0439 192.541 79.6338C192.072 79.2188 191.837 78.6328 191.837 77.876C191.837 76.8945 192.216 76.1841 192.973 75.7446C193.388 75.5054 193.998 75.3345 194.804 75.2319L195.514 75.144ZM205.065 71.8262C205.104 71.8262 205.136 71.8286 205.16 71.8335C205.189 71.8335 205.25 71.8359 205.343 71.8408V73.9795C205.211 73.9648 205.094 73.9551 204.992 73.9502C204.889 73.9453 204.806 73.9429 204.743 73.9429C203.903 73.9429 203.339 74.2163 203.051 74.7632C202.89 75.0708 202.809 75.5444 202.809 76.1841V80H200.707V72.0166H202.699V73.4082C203.021 72.876 203.302 72.5122 203.542 72.3169C203.932 71.9897 204.44 71.8262 205.065 71.8262ZM210.976 71.8115C211.469 71.8115 211.916 71.897 212.316 72.0679C212.721 72.2388 213.053 72.5 213.312 72.8516C213.532 73.1494 213.666 73.457 213.715 73.7744C213.764 74.0869 213.788 74.5996 213.788 75.3125V80H211.657V75.144C211.657 74.7144 211.583 74.3677 211.437 74.104C211.247 73.7329 210.885 73.5474 210.353 73.5474C209.801 73.5474 209.381 73.7329 209.093 74.104C208.81 74.4702 208.668 74.9951 208.668 75.6787V80H206.588V69.2407H208.668V73.0566C208.971 72.5928 209.32 72.2705 209.716 72.0898C210.116 71.9043 210.536 71.8115 210.976 71.8115ZM217.824 72.0166V76.8286C217.824 77.2827 217.877 77.6245 217.985 77.854C218.175 78.2593 218.549 78.4619 219.105 78.4619C219.818 78.4619 220.307 78.1738 220.57 77.5977C220.707 77.2852 220.775 76.8726 220.775 76.3599V72.0166H222.892V80H220.863V78.8721C220.844 78.8965 220.795 78.9697 220.717 79.0918C220.639 79.2139 220.546 79.3213 220.438 79.4141C220.111 79.707 219.794 79.9072 219.486 80.0146C219.184 80.1221 218.827 80.1758 218.417 80.1758C217.235 80.1758 216.439 79.751 216.029 78.9014C215.8 78.4326 215.685 77.7417 215.685 76.8286V72.0166H217.824ZM226.54 77.4512C226.583 77.8223 226.679 78.0859 226.825 78.2422C227.084 78.5205 227.562 78.6597 228.261 78.6597C228.671 78.6597 228.996 78.5986 229.235 78.4766C229.479 78.3545 229.601 78.1714 229.601 77.9272C229.601 77.6929 229.503 77.5146 229.308 77.3926C229.113 77.2705 228.388 77.0605 227.133 76.7627C226.229 76.5381 225.592 76.2573 225.221 75.9204C224.85 75.5884 224.665 75.1099 224.665 74.4849C224.665 73.7476 224.953 73.1152 225.529 72.5879C226.11 72.0557 226.925 71.7896 227.975 71.7896C228.971 71.7896 229.782 71.9897 230.407 72.3901C231.037 72.7856 231.398 73.4717 231.491 74.4482H229.403C229.374 74.1797 229.298 73.9673 229.176 73.811C228.947 73.5278 228.556 73.3862 228.004 73.3862C227.55 73.3862 227.226 73.457 227.03 73.5986C226.84 73.7402 226.745 73.9062 226.745 74.0967C226.745 74.3359 226.847 74.5093 227.052 74.6167C227.257 74.729 227.982 74.9219 229.228 75.1953C230.058 75.3906 230.68 75.686 231.095 76.0815C231.505 76.4819 231.71 76.9824 231.71 77.583C231.71 78.374 231.415 79.021 230.824 79.5239C230.238 80.022 229.33 80.271 228.1 80.271C226.845 80.271 225.917 80.0073 225.316 79.48C224.721 78.9478 224.423 78.2715 224.423 77.4512H226.54ZM236.618 73.5767V72.0898H237.731V69.8633H239.796V72.0898H241.093V73.5767H239.796V77.7954C239.796 78.1226 239.838 78.3276 239.921 78.4106C240.004 78.4888 240.258 78.5278 240.683 78.5278C240.746 78.5278 240.812 78.5278 240.88 78.5278C240.954 78.5229 241.024 78.5181 241.093 78.5132V80.0732L240.104 80.1099C239.118 80.144 238.444 79.9731 238.083 79.5972C237.848 79.3579 237.731 78.9893 237.731 78.4912V73.5767H236.618ZM246.769 71.8262C246.808 71.8262 246.84 71.8286 246.864 71.8335C246.894 71.8335 246.955 71.8359 247.047 71.8408V73.9795C246.916 73.9648 246.798 73.9551 246.696 73.9502C246.593 73.9453 246.51 73.9429 246.447 73.9429C245.607 73.9429 245.043 74.2163 244.755 74.7632C244.594 75.0708 244.513 75.5444 244.513 76.1841V80H242.411V72.0166H244.403V73.4082C244.726 72.876 245.006 72.5122 245.246 72.3169C245.636 71.9897 246.144 71.8262 246.769 71.8262ZM252.68 76.1182C252.548 76.2012 252.414 76.2695 252.277 76.3232C252.145 76.3721 251.962 76.4185 251.728 76.4624L251.259 76.5503C250.819 76.6284 250.504 76.7236 250.314 76.8359C249.992 77.0264 249.831 77.3218 249.831 77.7222C249.831 78.0786 249.928 78.3374 250.124 78.4985C250.324 78.6548 250.565 78.7329 250.849 78.7329C251.298 78.7329 251.71 78.6011 252.086 78.3374C252.467 78.0737 252.665 77.5928 252.68 76.8945V76.1182ZM251.413 75.144C251.798 75.0952 252.074 75.0342 252.24 74.9609C252.538 74.834 252.687 74.6362 252.687 74.3677C252.687 74.0405 252.572 73.8159 252.343 73.6938C252.118 73.5669 251.786 73.5034 251.347 73.5034C250.854 73.5034 250.504 73.6255 250.299 73.8696C250.153 74.0503 250.055 74.2944 250.006 74.6021H247.992C248.036 73.9038 248.231 73.3301 248.578 72.8809C249.13 72.1777 250.077 71.8262 251.42 71.8262C252.294 71.8262 253.07 71.9995 253.749 72.3462C254.428 72.6929 254.767 73.3472 254.767 74.3091V77.9712C254.767 78.2251 254.772 78.5327 254.782 78.894C254.796 79.1675 254.838 79.353 254.906 79.4507C254.975 79.5483 255.077 79.6289 255.214 79.6924V80H252.943C252.88 79.8389 252.836 79.6875 252.812 79.5459C252.787 79.4043 252.768 79.2432 252.753 79.0625C252.465 79.375 252.133 79.6411 251.757 79.8608C251.308 80.1196 250.8 80.249 250.233 80.249C249.511 80.249 248.913 80.0439 248.439 79.6338C247.97 79.2188 247.736 78.6328 247.736 77.876C247.736 76.8945 248.114 76.1841 248.871 75.7446C249.286 75.5054 249.896 75.3345 250.702 75.2319L251.413 75.144ZM258.773 71.0645H256.657V69.1382H258.773V71.0645ZM256.657 72.0166H258.773V80H256.657V72.0166ZM265.226 71.8262C266.051 71.8262 266.725 72.0435 267.248 72.478C267.775 72.9077 268.039 73.623 268.039 74.624V80H265.9V75.144C265.9 74.7241 265.844 74.4019 265.731 74.1772C265.526 73.7671 265.136 73.562 264.56 73.562C263.852 73.562 263.366 73.8623 263.102 74.4629C262.965 74.7803 262.897 75.1855 262.897 75.6787V80H260.817V72.0312H262.831V73.1958C263.1 72.7856 263.354 72.4902 263.593 72.3096C264.022 71.9873 264.567 71.8262 265.226 71.8262ZM275.773 77.4512C275.817 77.8223 275.912 78.0859 276.059 78.2422C276.317 78.5205 276.796 78.6597 277.494 78.6597C277.904 78.6597 278.229 78.5986 278.468 78.4766C278.712 78.3545 278.834 78.1714 278.834 77.9272C278.834 77.6929 278.737 77.5146 278.542 77.3926C278.346 77.2705 277.621 77.0605 276.366 76.7627C275.463 76.5381 274.826 76.2573 274.455 75.9204C274.083 75.5884 273.898 75.1099 273.898 74.4849C273.898 73.7476 274.186 73.1152 274.762 72.5879C275.343 72.0557 276.159 71.7896 277.208 71.7896C278.205 71.7896 279.015 71.9897 279.64 72.3901C280.27 72.7856 280.631 73.4717 280.724 74.4482H278.637C278.607 74.1797 278.532 73.9673 278.41 73.811C278.18 73.5278 277.79 73.3862 277.238 73.3862C276.784 73.3862 276.459 73.457 276.264 73.5986C276.073 73.7402 275.978 73.9062 275.978 74.0967C275.978 74.3359 276.081 74.5093 276.286 74.6167C276.491 74.729 277.216 74.9219 278.461 75.1953C279.291 75.3906 279.914 75.686 280.329 76.0815C280.739 76.4819 280.944 76.9824 280.944 77.583C280.944 78.374 280.648 79.021 280.058 79.5239C279.472 80.022 278.563 80.271 277.333 80.271C276.078 80.271 275.15 80.0073 274.55 79.48C273.954 78.9478 273.656 78.2715 273.656 77.4512H275.773ZM281.676 73.5767V72.0898H282.79V69.8633H284.855V72.0898H286.151V73.5767H284.855V77.7954C284.855 78.1226 284.896 78.3276 284.979 78.4106C285.062 78.4888 285.316 78.5278 285.741 78.5278C285.805 78.5278 285.871 78.5278 285.939 78.5278C286.012 78.5229 286.083 78.5181 286.151 78.5132V80.0732L285.163 80.1099C284.176 80.144 283.502 79.9731 283.141 79.5972C282.907 79.3579 282.79 78.9893 282.79 78.4912V73.5767H281.676ZM291.894 76.1182C291.762 76.2012 291.627 76.2695 291.491 76.3232C291.359 76.3721 291.176 76.4185 290.941 76.4624L290.473 76.5503C290.033 76.6284 289.718 76.7236 289.528 76.8359C289.206 77.0264 289.044 77.3218 289.044 77.7222C289.044 78.0786 289.142 78.3374 289.337 78.4985C289.538 78.6548 289.779 78.7329 290.062 78.7329C290.512 78.7329 290.924 78.6011 291.3 78.3374C291.681 78.0737 291.879 77.5928 291.894 76.8945V76.1182ZM290.626 75.144C291.012 75.0952 291.288 75.0342 291.454 74.9609C291.752 74.834 291.901 74.6362 291.901 74.3677C291.901 74.0405 291.786 73.8159 291.557 73.6938C291.332 73.5669 291 73.5034 290.561 73.5034C290.067 73.5034 289.718 73.6255 289.513 73.8696C289.367 74.0503 289.269 74.2944 289.22 74.6021H287.206C287.25 73.9038 287.445 73.3301 287.792 72.8809C288.344 72.1777 289.291 71.8262 290.634 71.8262C291.508 71.8262 292.284 71.9995 292.963 72.3462C293.642 72.6929 293.981 73.3472 293.981 74.3091V77.9712C293.981 78.2251 293.986 78.5327 293.996 78.894C294.01 79.1675 294.052 79.353 294.12 79.4507C294.188 79.5483 294.291 79.6289 294.428 79.6924V80H292.157C292.094 79.8389 292.05 79.6875 292.025 79.5459C292.001 79.4043 291.981 79.2432 291.967 79.0625C291.679 79.375 291.347 79.6411 290.971 79.8608C290.521 80.1196 290.014 80.249 289.447 80.249C288.725 80.249 288.126 80.0439 287.653 79.6338C287.184 79.2188 286.95 78.6328 286.95 77.876C286.95 76.8945 287.328 76.1841 288.085 75.7446C288.5 75.5054 289.11 75.3345 289.916 75.2319L290.626 75.144ZM295.021 73.5767V72.0898H296.134V69.8633H298.2V72.0898H299.496V73.5767H298.2V77.7954C298.2 78.1226 298.241 78.3276 298.324 78.4106C298.407 78.4888 298.661 78.5278 299.086 78.5278C299.149 78.5278 299.215 78.5278 299.284 78.5278C299.357 78.5229 299.428 78.5181 299.496 78.5132V80.0732L298.507 80.1099C297.521 80.144 296.847 79.9731 296.486 79.5972C296.251 79.3579 296.134 78.9893 296.134 78.4912V73.5767H295.021ZM302.982 71.0645H300.866V69.1382H302.982V71.0645ZM300.866 72.0166H302.982V80H300.866V72.0166ZM308.593 78.5278C309.203 78.5278 309.672 78.3105 309.999 77.876C310.326 77.4414 310.49 76.8237 310.49 76.0229C310.49 75.2222 310.326 74.6069 309.999 74.1772C309.672 73.7427 309.203 73.5254 308.593 73.5254C307.982 73.5254 307.511 73.7427 307.179 74.1772C306.852 74.6069 306.688 75.2222 306.688 76.0229C306.688 76.8237 306.852 77.4414 307.179 77.876C307.511 78.3105 307.982 78.5278 308.593 78.5278ZM312.68 76.0229C312.68 77.1948 312.343 78.1982 311.669 79.0332C310.995 79.8633 309.972 80.2783 308.6 80.2783C307.228 80.2783 306.205 79.8633 305.531 79.0332C304.857 78.1982 304.521 77.1948 304.521 76.0229C304.521 74.8706 304.857 73.8721 305.531 73.0273C306.205 72.1826 307.228 71.7603 308.6 71.7603C309.972 71.7603 310.995 72.1826 311.669 73.0273C312.343 73.8721 312.68 74.8706 312.68 76.0229ZM318.605 71.8262C319.43 71.8262 320.104 72.0435 320.626 72.478C321.154 72.9077 321.417 73.623 321.417 74.624V80H319.279V75.144C319.279 74.7241 319.223 74.4019 319.11 74.1772C318.905 73.7671 318.515 73.562 317.938 73.562C317.23 73.562 316.745 73.8623 316.481 74.4629C316.344 74.7803 316.276 75.1855 316.276 75.6787V80H314.196V72.0312H316.21V73.1958C316.479 72.7856 316.732 72.4902 316.972 72.3096C317.401 71.9873 317.946 71.8262 318.605 71.8262ZM96.1538 90.5767V89.0898H97.2671V86.8633H99.3325V89.0898H100.629V90.5767H99.3325V94.7954C99.3325 95.1226 99.374 95.3276 99.457 95.4106C99.54 95.4888 99.7939 95.5278 100.219 95.5278C100.282 95.5278 100.348 95.5278 100.417 95.5278C100.49 95.5229 100.561 95.5181 100.629 95.5132V97.0732L99.6401 97.1099C98.6538 97.144 97.98 96.9731 97.6187 96.5972C97.3843 96.3579 97.2671 95.9893 97.2671 95.4912V90.5767H96.1538ZM105.551 95.5278C106.161 95.5278 106.63 95.3105 106.957 94.876C107.284 94.4414 107.448 93.8237 107.448 93.0229C107.448 92.2222 107.284 91.6069 106.957 91.1772C106.63 90.7427 106.161 90.5254 105.551 90.5254C104.94 90.5254 104.469 90.7427 104.137 91.1772C103.81 91.6069 103.646 92.2222 103.646 93.0229C103.646 93.8237 103.81 94.4414 104.137 94.876C104.469 95.3105 104.94 95.5278 105.551 95.5278ZM109.638 93.0229C109.638 94.1948 109.301 95.1982 108.627 96.0332C107.953 96.8633 106.93 97.2783 105.558 97.2783C104.186 97.2783 103.163 96.8633 102.489 96.0332C101.815 95.1982 101.479 94.1948 101.479 93.0229C101.479 91.8706 101.815 90.8721 102.489 90.0273C103.163 89.1826 104.186 88.7603 105.558 88.7603C106.93 88.7603 107.953 89.1826 108.627 90.0273C109.301 90.8721 109.638 91.8706 109.638 93.0229ZM115.014 91.6899C115.014 89.8052 115.519 88.3525 116.53 87.332C117.409 86.4434 118.527 85.999 119.884 85.999C121.701 85.999 123.029 86.5947 123.869 87.7861C124.333 88.4551 124.582 89.1265 124.616 89.8003H122.36C122.213 89.2827 122.025 88.8921 121.796 88.6284C121.386 88.1597 120.778 87.9253 119.972 87.9253C119.152 87.9253 118.505 88.2573 118.031 88.9214C117.558 89.5806 117.321 90.5156 117.321 91.7266C117.321 92.9375 117.57 93.8457 118.068 94.4512C118.571 95.0518 119.208 95.3521 119.979 95.3521C120.771 95.3521 121.374 95.0933 121.789 94.5757C122.018 94.2974 122.208 93.8799 122.36 93.3232H124.594C124.398 94.5 123.898 95.457 123.092 96.1943C122.292 96.9316 121.264 97.3003 120.009 97.3003C118.456 97.3003 117.235 96.8022 116.347 95.8062C115.458 94.8052 115.014 93.4331 115.014 91.6899ZM129.735 95.5278C130.346 95.5278 130.814 95.3105 131.142 94.876C131.469 94.4414 131.632 93.8237 131.632 93.0229C131.632 92.2222 131.469 91.6069 131.142 91.1772C130.814 90.7427 130.346 90.5254 129.735 90.5254C129.125 90.5254 128.654 90.7427 128.322 91.1772C127.995 91.6069 127.831 92.2222 127.831 93.0229C127.831 93.8237 127.995 94.4414 128.322 94.876C128.654 95.3105 129.125 95.5278 129.735 95.5278ZM133.822 93.0229C133.822 94.1948 133.485 95.1982 132.812 96.0332C132.138 96.8633 131.115 97.2783 129.743 97.2783C128.371 97.2783 127.348 96.8633 126.674 96.0332C126 95.1982 125.663 94.1948 125.663 93.0229C125.663 91.8706 126 90.8721 126.674 90.0273C127.348 89.1826 128.371 88.7603 129.743 88.7603C131.115 88.7603 132.138 89.1826 132.812 90.0273C133.485 90.8721 133.822 91.8706 133.822 93.0229ZM140.824 93.0083C140.824 92.3931 140.683 91.8486 140.399 91.375C140.121 90.9014 139.667 90.6646 139.037 90.6646C138.28 90.6646 137.76 91.0234 137.477 91.7412C137.331 92.1221 137.257 92.6055 137.257 93.1914C137.257 94.1191 137.504 94.771 137.997 95.147C138.29 95.3667 138.637 95.4766 139.037 95.4766C139.618 95.4766 140.06 95.252 140.363 94.8027C140.67 94.3535 140.824 93.7554 140.824 93.0083ZM139.638 88.8408C140.57 88.8408 141.359 89.1851 142.003 89.8735C142.653 90.562 142.978 91.5728 142.978 92.9058C142.978 94.312 142.66 95.3838 142.025 96.1211C141.396 96.8584 140.583 97.2271 139.586 97.2271C138.952 97.2271 138.424 97.0684 138.004 96.751C137.775 96.5752 137.55 96.3188 137.331 95.9819V100.142H135.265V89.0166H137.265V90.1958C137.489 89.8491 137.729 89.5757 137.982 89.3755C138.446 89.019 138.998 88.8408 139.638 88.8408ZM147.643 90.5254C147.16 90.5254 146.784 90.6768 146.515 90.9795C146.251 91.2822 146.085 91.6924 146.017 92.21H149.262C149.228 91.6582 149.059 91.2407 148.756 90.9575C148.458 90.6694 148.087 90.5254 147.643 90.5254ZM147.643 88.8042C148.307 88.8042 148.905 88.9287 149.438 89.1777C149.97 89.4268 150.409 89.8198 150.756 90.3569C151.068 90.8306 151.271 91.3799 151.364 92.0049C151.417 92.3711 151.439 92.8984 151.43 93.5869H145.966C145.995 94.3877 146.247 94.9492 146.72 95.2715C147.008 95.4717 147.355 95.5718 147.76 95.5718C148.19 95.5718 148.539 95.4497 148.808 95.2056C148.954 95.0737 149.083 94.8906 149.196 94.6562H151.327C151.273 95.1299 151.027 95.6108 150.587 96.0991C149.904 96.8755 148.947 97.2637 147.716 97.2637C146.701 97.2637 145.805 96.9365 145.028 96.2822C144.252 95.6279 143.864 94.5635 143.864 93.0889C143.864 91.707 144.213 90.6475 144.911 89.9102C145.614 89.1729 146.525 88.8042 147.643 88.8042ZM157.267 88.8262C158.092 88.8262 158.766 89.0435 159.289 89.478C159.816 89.9077 160.08 90.623 160.08 91.624V97H157.941V92.144C157.941 91.7241 157.885 91.4019 157.772 91.1772C157.567 90.7671 157.177 90.562 156.601 90.562C155.893 90.562 155.407 90.8623 155.143 91.4629C155.006 91.7803 154.938 92.1855 154.938 92.6787V97H152.858V89.0312H154.872V90.1958C155.141 89.7856 155.395 89.4902 155.634 89.3096C156.063 88.9873 156.608 88.8262 157.267 88.8262ZM166.415 93.1182C166.283 93.2012 166.149 93.2695 166.012 93.3232C165.88 93.3721 165.697 93.4185 165.463 93.4624L164.994 93.5503C164.555 93.6284 164.24 93.7236 164.049 93.8359C163.727 94.0264 163.566 94.3218 163.566 94.7222C163.566 95.0786 163.664 95.3374 163.859 95.4985C164.059 95.6548 164.301 95.7329 164.584 95.7329C165.033 95.7329 165.446 95.6011 165.822 95.3374C166.203 95.0737 166.4 94.5928 166.415 93.8945V93.1182ZM165.148 92.144C165.534 92.0952 165.81 92.0342 165.976 91.9609C166.273 91.834 166.422 91.6362 166.422 91.3677C166.422 91.0405 166.308 90.8159 166.078 90.6938C165.854 90.5669 165.521 90.5034 165.082 90.5034C164.589 90.5034 164.24 90.6255 164.035 90.8696C163.888 91.0503 163.791 91.2944 163.742 91.6021H161.728C161.771 90.9038 161.967 90.3301 162.313 89.8809C162.865 89.1777 163.812 88.8262 165.155 88.8262C166.029 88.8262 166.806 88.9995 167.484 89.3462C168.163 89.6929 168.502 90.3472 168.502 91.3091V94.9712C168.502 95.2251 168.507 95.5327 168.517 95.894C168.532 96.1675 168.573 96.353 168.642 96.4507C168.71 96.5483 168.812 96.6289 168.949 96.6924V97H166.679C166.615 96.8389 166.571 96.6875 166.547 96.5459C166.522 96.4043 166.503 96.2432 166.488 96.0625C166.2 96.375 165.868 96.6411 165.492 96.8608C165.043 97.1196 164.535 97.249 163.969 97.249C163.246 97.249 162.648 97.0439 162.174 96.6338C161.706 96.2188 161.471 95.6328 161.471 94.876C161.471 93.8945 161.85 93.1841 162.606 92.7446C163.021 92.5054 163.632 92.3345 164.438 92.2319L165.148 92.144ZM173.791 95.2861C174.279 95.2861 174.691 95.103 175.028 94.7368C175.365 94.3657 175.534 93.7773 175.534 92.9717C175.534 92.2148 175.373 91.6387 175.05 91.2432C174.733 90.8477 174.306 90.6499 173.769 90.6499C173.036 90.6499 172.531 90.9941 172.252 91.6826C172.106 92.0488 172.033 92.5005 172.033 93.0376C172.033 93.5015 172.111 93.9141 172.267 94.2754C172.55 94.9492 173.058 95.2861 173.791 95.2861ZM173.271 88.8262C173.671 88.8262 174.02 88.8872 174.318 89.0093C174.826 89.2192 175.236 89.605 175.548 90.1665V89.0166H177.577V96.5898C177.577 97.6201 177.404 98.3965 177.057 98.9189C176.461 99.8174 175.319 100.267 173.629 100.267C172.609 100.267 171.776 100.066 171.132 99.666C170.487 99.2656 170.131 98.6675 170.062 97.8716H172.333C172.392 98.1157 172.487 98.2915 172.619 98.3989C172.843 98.5894 173.222 98.6846 173.754 98.6846C174.506 98.6846 175.009 98.4331 175.263 97.9302C175.429 97.6079 175.512 97.0659 175.512 96.3042V95.7915C175.312 96.1333 175.097 96.3896 174.867 96.5605C174.452 96.8779 173.913 97.0366 173.249 97.0366C172.223 97.0366 171.403 96.6777 170.788 95.96C170.177 95.2373 169.872 94.2607 169.872 93.0303C169.872 91.8438 170.167 90.8477 170.758 90.042C171.349 89.2314 172.187 88.8262 173.271 88.8262ZM183.935 88.8115C184.428 88.8115 184.875 88.897 185.275 89.0679C185.68 89.2388 186.012 89.5 186.271 89.8516C186.491 90.1494 186.625 90.457 186.674 90.7744C186.723 91.0869 186.747 91.5996 186.747 92.3125V97H184.616V92.144C184.616 91.7144 184.542 91.3677 184.396 91.104C184.206 90.7329 183.844 90.5474 183.312 90.5474C182.76 90.5474 182.34 90.7329 182.052 91.104C181.769 91.4702 181.627 91.9951 181.627 92.6787V97H179.547V86.2407H181.627V90.0566C181.93 89.5928 182.279 89.2705 182.675 89.0898C183.075 88.9043 183.495 88.8115 183.935 88.8115ZM191.852 90.5254C191.369 90.5254 190.993 90.6768 190.724 90.9795C190.46 91.2822 190.294 91.6924 190.226 92.21H193.471C193.437 91.6582 193.268 91.2407 192.965 90.9575C192.667 90.6694 192.296 90.5254 191.852 90.5254ZM191.852 88.8042C192.516 88.8042 193.114 88.9287 193.646 89.1777C194.179 89.4268 194.618 89.8198 194.965 90.3569C195.277 90.8306 195.48 91.3799 195.573 92.0049C195.626 92.3711 195.648 92.8984 195.639 93.5869H190.175C190.204 94.3877 190.456 94.9492 190.929 95.2715C191.217 95.4717 191.564 95.5718 191.969 95.5718C192.399 95.5718 192.748 95.4497 193.017 95.2056C193.163 95.0737 193.292 94.8906 193.405 94.6562H195.536C195.482 95.1299 195.236 95.6108 194.796 96.0991C194.113 96.8755 193.156 97.2637 191.925 97.2637C190.91 97.2637 190.014 96.9365 189.237 96.2822C188.461 95.6279 188.073 94.5635 188.073 93.0889C188.073 91.707 188.422 90.6475 189.12 89.9102C189.823 89.1729 190.734 88.8042 191.852 88.8042ZM201.476 88.8262C202.301 88.8262 202.975 89.0435 203.498 89.478C204.025 89.9077 204.289 90.623 204.289 91.624V97H202.15V92.144C202.15 91.7241 202.094 91.4019 201.981 91.1772C201.776 90.7671 201.386 90.562 200.81 90.562C200.102 90.562 199.616 90.8623 199.352 91.4629C199.215 91.7803 199.147 92.1855 199.147 92.6787V97H197.067V89.0312H199.081V90.1958C199.35 89.7856 199.604 89.4902 199.843 89.3096C200.272 88.9873 200.817 88.8262 201.476 88.8262ZM210.551 97V86.2041H212.785V90.3203H217.003V86.2041H219.245V97H217.003V92.1807H212.785V97H210.551Z" fill="#4980A8"/>
<circle cx="74" cy="140" r="3" fill="#B32B32"/>
<path d="M104.987 126.204V128.116H101.757V137H99.4863V128.116H96.2417V126.204H104.987ZM109.66 128.826C109.699 128.826 109.73 128.829 109.755 128.833C109.784 128.833 109.845 128.836 109.938 128.841V130.979C109.806 130.965 109.689 130.955 109.586 130.95C109.484 130.945 109.401 130.943 109.337 130.943C108.498 130.943 107.934 131.216 107.646 131.763C107.484 132.071 107.404 132.544 107.404 133.184V137H105.302V129.017H107.294V130.408C107.616 129.876 107.897 129.512 108.136 129.317C108.527 128.99 109.035 128.826 109.66 128.826ZM115.57 133.118C115.438 133.201 115.304 133.27 115.167 133.323C115.036 133.372 114.853 133.418 114.618 133.462L114.149 133.55C113.71 133.628 113.395 133.724 113.205 133.836C112.882 134.026 112.721 134.322 112.721 134.722C112.721 135.079 112.819 135.337 113.014 135.499C113.214 135.655 113.456 135.733 113.739 135.733C114.188 135.733 114.601 135.601 114.977 135.337C115.358 135.074 115.556 134.593 115.57 133.895V133.118ZM114.303 132.144C114.689 132.095 114.965 132.034 115.131 131.961C115.429 131.834 115.578 131.636 115.578 131.368C115.578 131.041 115.463 130.816 115.233 130.694C115.009 130.567 114.677 130.503 114.237 130.503C113.744 130.503 113.395 130.625 113.19 130.87C113.043 131.05 112.946 131.294 112.897 131.602H110.883C110.927 130.904 111.122 130.33 111.469 129.881C112.021 129.178 112.968 128.826 114.311 128.826C115.185 128.826 115.961 129 116.64 129.346C117.318 129.693 117.658 130.347 117.658 131.309V134.971C117.658 135.225 117.663 135.533 117.672 135.894C117.687 136.167 117.729 136.353 117.797 136.451C117.865 136.548 117.968 136.629 118.104 136.692V137H115.834C115.771 136.839 115.727 136.688 115.702 136.546C115.678 136.404 115.658 136.243 115.644 136.062C115.355 136.375 115.023 136.641 114.647 136.861C114.198 137.12 113.69 137.249 113.124 137.249C112.401 137.249 111.803 137.044 111.33 136.634C110.861 136.219 110.626 135.633 110.626 134.876C110.626 133.895 111.005 133.184 111.762 132.745C112.177 132.505 112.787 132.334 113.593 132.232L114.303 132.144ZM124.44 129.017H126.681L123.803 137H121.598L118.734 129.017H121.078L122.741 134.905L124.44 129.017ZM131.017 130.525C130.534 130.525 130.158 130.677 129.889 130.979C129.625 131.282 129.459 131.692 129.391 132.21H132.636C132.602 131.658 132.433 131.241 132.13 130.958C131.833 130.669 131.461 130.525 131.017 130.525ZM131.017 128.804C131.681 128.804 132.279 128.929 132.812 129.178C133.344 129.427 133.783 129.82 134.13 130.357C134.442 130.831 134.645 131.38 134.738 132.005C134.792 132.371 134.813 132.898 134.804 133.587H129.34C129.369 134.388 129.621 134.949 130.094 135.271C130.382 135.472 130.729 135.572 131.134 135.572C131.564 135.572 131.913 135.45 132.182 135.206C132.328 135.074 132.458 134.891 132.57 134.656H134.701C134.647 135.13 134.401 135.611 133.961 136.099C133.278 136.875 132.321 137.264 131.09 137.264C130.075 137.264 129.179 136.937 128.402 136.282C127.626 135.628 127.238 134.563 127.238 133.089C127.238 131.707 127.587 130.647 128.285 129.91C128.988 129.173 129.899 128.804 131.017 128.804ZM138.349 137H136.261V126.204H138.349V137ZM147.511 126.094C147.643 126.094 147.763 126.099 147.87 126.109C147.978 126.114 148.124 126.124 148.31 126.138V127.837C148.192 127.823 147.995 127.813 147.716 127.808C147.443 127.798 147.252 127.859 147.145 127.991C147.042 128.118 146.991 128.26 146.991 128.416C146.991 128.572 146.991 128.797 146.991 129.09H148.361V130.562H146.991V137H144.911V130.562H143.747V129.09H144.889V128.577C144.889 127.723 145.033 127.134 145.321 126.812C145.624 126.333 146.354 126.094 147.511 126.094ZM153.898 128.826C153.937 128.826 153.969 128.829 153.993 128.833C154.022 128.833 154.083 128.836 154.176 128.841V130.979C154.044 130.965 153.927 130.955 153.825 130.95C153.722 130.945 153.639 130.943 153.576 130.943C152.736 130.943 152.172 131.216 151.884 131.763C151.723 132.071 151.642 132.544 151.642 133.184V137H149.54V129.017H151.532V130.408C151.854 129.876 152.135 129.512 152.375 129.317C152.765 128.99 153.273 128.826 153.898 128.826ZM158.988 135.528C159.599 135.528 160.067 135.311 160.395 134.876C160.722 134.441 160.885 133.824 160.885 133.023C160.885 132.222 160.722 131.607 160.395 131.177C160.067 130.743 159.599 130.525 158.988 130.525C158.378 130.525 157.907 130.743 157.575 131.177C157.248 131.607 157.084 132.222 157.084 133.023C157.084 133.824 157.248 134.441 157.575 134.876C157.907 135.311 158.378 135.528 158.988 135.528ZM163.075 133.023C163.075 134.195 162.738 135.198 162.064 136.033C161.391 136.863 160.368 137.278 158.996 137.278C157.624 137.278 156.601 136.863 155.927 136.033C155.253 135.198 154.916 134.195 154.916 133.023C154.916 131.871 155.253 130.872 155.927 130.027C156.601 129.183 157.624 128.76 158.996 128.76C160.368 128.76 161.391 129.183 162.064 130.027C162.738 130.872 163.075 131.871 163.075 133.023ZM173.498 128.841C173.849 128.841 174.196 128.909 174.538 129.046C174.879 129.183 175.189 129.422 175.468 129.764C175.692 130.042 175.844 130.384 175.922 130.789C175.971 131.058 175.995 131.451 175.995 131.968L175.98 137H173.842V131.917C173.842 131.614 173.793 131.365 173.695 131.17C173.51 130.799 173.168 130.613 172.67 130.613C172.094 130.613 171.696 130.853 171.476 131.331C171.364 131.585 171.308 131.89 171.308 132.247V137H169.206V132.247C169.206 131.773 169.157 131.429 169.059 131.214C168.883 130.828 168.539 130.635 168.026 130.635C167.431 130.635 167.03 130.828 166.825 131.214C166.713 131.434 166.657 131.761 166.657 132.195V137H164.54V129.031H166.569V130.196C166.828 129.781 167.072 129.485 167.301 129.31C167.707 128.997 168.231 128.841 168.876 128.841C169.486 128.841 169.979 128.975 170.355 129.244C170.658 129.493 170.888 129.812 171.044 130.203C171.317 129.734 171.657 129.39 172.062 129.17C172.492 128.951 172.97 128.841 173.498 128.841ZM181.796 131.69C181.796 129.805 182.301 128.353 183.312 127.332C184.191 126.443 185.309 125.999 186.667 125.999C188.483 125.999 189.811 126.595 190.651 127.786C191.115 128.455 191.364 129.126 191.398 129.8H189.142C188.996 129.283 188.808 128.892 188.578 128.628C188.168 128.16 187.56 127.925 186.754 127.925C185.934 127.925 185.287 128.257 184.813 128.921C184.34 129.581 184.103 130.516 184.103 131.727C184.103 132.938 184.352 133.846 184.85 134.451C185.353 135.052 185.99 135.352 186.762 135.352C187.553 135.352 188.156 135.093 188.571 134.576C188.8 134.297 188.991 133.88 189.142 133.323H191.376C191.181 134.5 190.68 135.457 189.875 136.194C189.074 136.932 188.046 137.3 186.791 137.3C185.238 137.3 184.018 136.802 183.129 135.806C182.24 134.805 181.796 133.433 181.796 131.69ZM196.518 135.528C197.128 135.528 197.597 135.311 197.924 134.876C198.251 134.441 198.415 133.824 198.415 133.023C198.415 132.222 198.251 131.607 197.924 131.177C197.597 130.743 197.128 130.525 196.518 130.525C195.907 130.525 195.436 130.743 195.104 131.177C194.777 131.607 194.613 132.222 194.613 133.023C194.613 133.824 194.777 134.441 195.104 134.876C195.436 135.311 195.907 135.528 196.518 135.528ZM200.604 133.023C200.604 134.195 200.268 135.198 199.594 136.033C198.92 136.863 197.897 137.278 196.525 137.278C195.153 137.278 194.13 136.863 193.456 136.033C192.782 135.198 192.445 134.195 192.445 133.023C192.445 131.871 192.782 130.872 193.456 130.027C194.13 129.183 195.153 128.76 196.525 128.76C197.897 128.76 198.92 129.183 199.594 130.027C200.268 130.872 200.604 131.871 200.604 133.023ZM207.606 133.008C207.606 132.393 207.465 131.849 207.182 131.375C206.903 130.901 206.449 130.665 205.819 130.665C205.062 130.665 204.542 131.023 204.259 131.741C204.113 132.122 204.04 132.605 204.04 133.191C204.04 134.119 204.286 134.771 204.779 135.147C205.072 135.367 205.419 135.477 205.819 135.477C206.4 135.477 206.842 135.252 207.145 134.803C207.453 134.354 207.606 133.755 207.606 133.008ZM206.42 128.841C207.353 128.841 208.141 129.185 208.786 129.874C209.435 130.562 209.76 131.573 209.76 132.906C209.76 134.312 209.442 135.384 208.808 136.121C208.178 136.858 207.365 137.227 206.369 137.227C205.734 137.227 205.207 137.068 204.787 136.751C204.557 136.575 204.333 136.319 204.113 135.982V140.142H202.047V129.017H204.047V130.196C204.271 129.849 204.511 129.576 204.765 129.375C205.229 129.019 205.78 128.841 206.42 128.841ZM214.425 130.525C213.942 130.525 213.566 130.677 213.297 130.979C213.034 131.282 212.868 131.692 212.799 132.21H216.044C216.01 131.658 215.841 131.241 215.539 130.958C215.241 130.669 214.87 130.525 214.425 130.525ZM214.425 128.804C215.089 128.804 215.688 128.929 216.22 129.178C216.752 129.427 217.191 129.82 217.538 130.357C217.851 130.831 218.053 131.38 218.146 132.005C218.2 132.371 218.222 132.898 218.212 133.587H212.748C212.777 134.388 213.029 134.949 213.502 135.271C213.791 135.472 214.137 135.572 214.542 135.572C214.972 135.572 215.321 135.45 215.59 135.206C215.736 135.074 215.866 134.891 215.978 134.656H218.109C218.056 135.13 217.809 135.611 217.37 136.099C216.686 136.875 215.729 137.264 214.499 137.264C213.483 137.264 212.587 136.937 211.811 136.282C211.034 135.628 210.646 134.563 210.646 133.089C210.646 131.707 210.995 130.647 211.693 129.91C212.396 129.173 213.307 128.804 214.425 128.804ZM224.049 128.826C224.875 128.826 225.548 129.043 226.071 129.478C226.598 129.908 226.862 130.623 226.862 131.624V137H224.723V132.144C224.723 131.724 224.667 131.402 224.555 131.177C224.35 130.767 223.959 130.562 223.383 130.562C222.675 130.562 222.189 130.862 221.925 131.463C221.789 131.78 221.72 132.186 221.72 132.679V137H219.64V129.031H221.654V130.196C221.923 129.786 222.177 129.49 222.416 129.31C222.846 128.987 223.39 128.826 224.049 128.826ZM233.197 128.812C233.69 128.812 234.137 128.897 234.538 129.068C234.943 129.239 235.275 129.5 235.534 129.852C235.753 130.149 235.888 130.457 235.937 130.774C235.985 131.087 236.01 131.6 236.01 132.312V137H233.878V132.144C233.878 131.714 233.805 131.368 233.659 131.104C233.468 130.733 233.107 130.547 232.575 130.547C232.023 130.547 231.603 130.733 231.315 131.104C231.032 131.47 230.89 131.995 230.89 132.679V137H228.81V126.241H230.89V130.057C231.193 129.593 231.542 129.271 231.938 129.09C232.338 128.904 232.758 128.812 233.197 128.812ZM242.367 133.118C242.235 133.201 242.101 133.27 241.964 133.323C241.833 133.372 241.649 133.418 241.415 133.462L240.946 133.55C240.507 133.628 240.192 133.724 240.001 133.836C239.679 134.026 239.518 134.322 239.518 134.722C239.518 135.079 239.616 135.337 239.811 135.499C240.011 135.655 240.253 135.733 240.536 135.733C240.985 135.733 241.398 135.601 241.774 135.337C242.155 135.074 242.353 134.593 242.367 133.895V133.118ZM241.1 132.144C241.486 132.095 241.762 132.034 241.928 131.961C242.226 131.834 242.375 131.636 242.375 131.368C242.375 131.041 242.26 130.816 242.03 130.694C241.806 130.567 241.474 130.503 241.034 130.503C240.541 130.503 240.192 130.625 239.987 130.87C239.84 131.05 239.743 131.294 239.694 131.602H237.68C237.724 130.904 237.919 130.33 238.266 129.881C238.817 129.178 239.765 128.826 241.107 128.826C241.981 128.826 242.758 129 243.437 129.346C244.115 129.693 244.455 130.347 244.455 131.309V134.971C244.455 135.225 244.459 135.533 244.469 135.894C244.484 136.167 244.525 136.353 244.594 136.451C244.662 136.548 244.765 136.629 244.901 136.692V137H242.631C242.567 136.839 242.523 136.688 242.499 136.546C242.475 136.404 242.455 136.243 242.44 136.062C242.152 136.375 241.82 136.641 241.444 136.861C240.995 137.12 240.487 137.249 239.921 137.249C239.198 137.249 238.6 137.044 238.126 136.634C237.658 136.219 237.423 135.633 237.423 134.876C237.423 133.895 237.802 133.184 238.559 132.745C238.974 132.505 239.584 132.334 240.39 132.232L241.1 132.144ZM249.743 135.286C250.231 135.286 250.644 135.103 250.98 134.737C251.317 134.366 251.486 133.777 251.486 132.972C251.486 132.215 251.325 131.639 251.002 131.243C250.685 130.848 250.258 130.65 249.721 130.65C248.988 130.65 248.483 130.994 248.205 131.683C248.058 132.049 247.985 132.5 247.985 133.038C247.985 133.501 248.063 133.914 248.219 134.275C248.502 134.949 249.01 135.286 249.743 135.286ZM249.223 128.826C249.623 128.826 249.972 128.887 250.27 129.009C250.778 129.219 251.188 129.605 251.5 130.167V129.017H253.529V136.59C253.529 137.62 253.356 138.396 253.009 138.919C252.414 139.817 251.271 140.267 249.582 140.267C248.561 140.267 247.729 140.066 247.084 139.666C246.439 139.266 246.083 138.667 246.015 137.872H248.285C248.344 138.116 248.439 138.292 248.571 138.399C248.795 138.589 249.174 138.685 249.706 138.685C250.458 138.685 250.961 138.433 251.215 137.93C251.381 137.608 251.464 137.066 251.464 136.304V135.792C251.264 136.133 251.049 136.39 250.819 136.561C250.404 136.878 249.865 137.037 249.201 137.037C248.175 137.037 247.355 136.678 246.74 135.96C246.129 135.237 245.824 134.261 245.824 133.03C245.824 131.844 246.12 130.848 246.71 130.042C247.301 129.231 248.139 128.826 249.223 128.826ZM258.634 130.525C258.151 130.525 257.775 130.677 257.506 130.979C257.243 131.282 257.077 131.692 257.008 132.21H260.253C260.219 131.658 260.05 131.241 259.748 130.958C259.45 130.669 259.079 130.525 258.634 130.525ZM258.634 128.804C259.298 128.804 259.896 128.929 260.429 129.178C260.961 129.427 261.4 129.82 261.747 130.357C262.06 130.831 262.262 131.38 262.355 132.005C262.409 132.371 262.431 132.898 262.421 133.587H256.957C256.986 134.388 257.238 134.949 257.711 135.271C258 135.472 258.346 135.572 258.751 135.572C259.181 135.572 259.53 135.45 259.799 135.206C259.945 135.074 260.075 134.891 260.187 134.656H262.318C262.265 135.13 262.018 135.611 261.579 136.099C260.895 136.875 259.938 137.264 258.708 137.264C257.692 137.264 256.796 136.937 256.02 136.282C255.243 135.628 254.855 134.563 254.855 133.089C254.855 131.707 255.204 130.647 255.902 129.91C256.605 129.173 257.516 128.804 258.634 128.804ZM268.258 128.826C269.083 128.826 269.757 129.043 270.28 129.478C270.807 129.908 271.071 130.623 271.071 131.624V137H268.932V132.144C268.932 131.724 268.876 131.402 268.764 131.177C268.559 130.767 268.168 130.562 267.592 130.562C266.884 130.562 266.398 130.862 266.134 131.463C265.998 131.78 265.929 132.186 265.929 132.679V137H263.849V129.031H265.863V130.196C266.132 129.786 266.386 129.49 266.625 129.31C267.055 128.987 267.599 128.826 268.258 128.826ZM279.743 132.92H282.482L281.134 128.672L279.743 132.92ZM279.882 126.204H282.431L286.254 137H283.808L283.112 134.781H279.135L278.388 137H276.029L279.882 126.204ZM289.608 128.064H287.492V126.138H289.608V128.064ZM287.492 129.017H289.608V137H287.492V129.017ZM295.973 128.826C296.012 128.826 296.044 128.829 296.068 128.833C296.098 128.833 296.159 128.836 296.251 128.841V130.979C296.12 130.965 296.002 130.955 295.9 130.95C295.797 130.945 295.714 130.943 295.651 130.943C294.811 130.943 294.247 131.216 293.959 131.763C293.798 132.071 293.717 132.544 293.717 133.184V137H291.615V129.017H293.607V130.408C293.93 129.876 294.21 129.512 294.45 129.317C294.84 128.99 295.348 128.826 295.973 128.826ZM302.982 133.008C302.982 132.393 302.841 131.849 302.558 131.375C302.279 130.901 301.825 130.665 301.195 130.665C300.438 130.665 299.918 131.023 299.635 131.741C299.489 132.122 299.416 132.605 299.416 133.191C299.416 134.119 299.662 134.771 300.155 135.147C300.448 135.367 300.795 135.477 301.195 135.477C301.776 135.477 302.218 135.252 302.521 134.803C302.829 134.354 302.982 133.755 302.982 133.008ZM301.796 128.841C302.729 128.841 303.517 129.185 304.162 129.874C304.811 130.562 305.136 131.573 305.136 132.906C305.136 134.312 304.818 135.384 304.184 136.121C303.554 136.858 302.741 137.227 301.745 137.227C301.11 137.227 300.583 137.068 300.163 136.751C299.933 136.575 299.708 136.319 299.489 135.982V140.142H297.423V129.017H299.423V130.196C299.647 129.849 299.887 129.576 300.141 129.375C300.604 129.019 301.156 128.841 301.796 128.841ZM310.233 135.528C310.844 135.528 311.312 135.311 311.64 134.876C311.967 134.441 312.13 133.824 312.13 133.023C312.13 132.222 311.967 131.607 311.64 131.177C311.312 130.743 310.844 130.525 310.233 130.525C309.623 130.525 309.152 130.743 308.82 131.177C308.493 131.607 308.329 132.222 308.329 133.023C308.329 133.824 308.493 134.441 308.82 134.876C309.152 135.311 309.623 135.528 310.233 135.528ZM314.32 133.023C314.32 134.195 313.983 135.198 313.31 136.033C312.636 136.863 311.613 137.278 310.241 137.278C308.869 137.278 307.846 136.863 307.172 136.033C306.498 135.198 306.161 134.195 306.161 133.023C306.161 131.871 306.498 130.872 307.172 130.027C307.846 129.183 308.869 128.76 310.241 128.76C311.613 128.76 312.636 129.183 313.31 130.027C313.983 130.872 314.32 131.871 314.32 133.023ZM320.158 128.826C320.197 128.826 320.229 128.829 320.253 128.833C320.282 128.833 320.343 128.836 320.436 128.841V130.979C320.304 130.965 320.187 130.955 320.084 130.95C319.982 130.945 319.899 130.943 319.835 130.943C318.996 130.943 318.432 131.216 318.144 131.763C317.982 132.071 317.902 132.544 317.902 133.184V137H315.8V129.017H317.792V130.408C318.114 129.876 318.395 129.512 318.634 129.317C319.025 128.99 319.533 128.826 320.158 128.826ZM320.846 130.577V129.09H321.959V126.863H324.025V129.09H325.321V130.577H324.025V134.795C324.025 135.123 324.066 135.328 324.149 135.411C324.232 135.489 324.486 135.528 324.911 135.528C324.975 135.528 325.041 135.528 325.109 135.528C325.182 135.523 325.253 135.518 325.321 135.513V137.073L324.333 137.11C323.346 137.144 322.672 136.973 322.311 136.597C322.077 136.358 321.959 135.989 321.959 135.491V130.577H320.846ZM96.1538 147.577V146.09H97.2671V143.863H99.3325V146.09H100.629V147.577H99.3325V151.795C99.3325 152.123 99.374 152.328 99.457 152.411C99.54 152.489 99.7939 152.528 100.219 152.528C100.282 152.528 100.348 152.528 100.417 152.528C100.49 152.523 100.561 152.518 100.629 152.513V154.073L99.6401 154.11C98.6538 154.144 97.98 153.973 97.6187 153.597C97.3843 153.358 97.2671 152.989 97.2671 152.491V147.577H96.1538ZM105.551 152.528C106.161 152.528 106.63 152.311 106.957 151.876C107.284 151.441 107.448 150.824 107.448 150.023C107.448 149.222 107.284 148.607 106.957 148.177C106.63 147.743 106.161 147.525 105.551 147.525C104.94 147.525 104.469 147.743 104.137 148.177C103.81 148.607 103.646 149.222 103.646 150.023C103.646 150.824 103.81 151.441 104.137 151.876C104.469 152.311 104.94 152.528 105.551 152.528ZM109.638 150.023C109.638 151.195 109.301 152.198 108.627 153.033C107.953 153.863 106.93 154.278 105.558 154.278C104.186 154.278 103.163 153.863 102.489 153.033C101.815 152.198 101.479 151.195 101.479 150.023C101.479 148.871 101.815 147.872 102.489 147.027C103.163 146.183 104.186 145.76 105.558 145.76C106.93 145.76 107.953 146.183 108.627 147.027C109.301 147.872 109.638 148.871 109.638 150.023ZM122.638 143.204H125.883V154H123.781V146.698C123.781 146.488 123.783 146.195 123.788 145.819C123.793 145.438 123.795 145.145 123.795 144.94L121.752 154H119.562L117.533 144.94C117.533 145.145 117.536 145.438 117.541 145.819C117.545 146.195 117.548 146.488 117.548 146.698V154H115.446V143.204H118.727L120.69 151.693L122.638 143.204ZM129.955 145.064H127.838V143.138H129.955V145.064ZM127.838 146.017H129.955V154H127.838V146.017ZM134.115 154H132.028V143.204H134.115V154ZM140.561 150.118C140.429 150.201 140.294 150.27 140.158 150.323C140.026 150.372 139.843 150.418 139.608 150.462L139.14 150.55C138.7 150.628 138.385 150.724 138.195 150.836C137.873 151.026 137.711 151.322 137.711 151.722C137.711 152.079 137.809 152.337 138.004 152.499C138.205 152.655 138.446 152.733 138.729 152.733C139.179 152.733 139.591 152.601 139.967 152.337C140.348 152.074 140.546 151.593 140.561 150.895V150.118ZM139.293 149.144C139.679 149.095 139.955 149.034 140.121 148.961C140.419 148.834 140.568 148.636 140.568 148.368C140.568 148.041 140.453 147.816 140.224 147.694C139.999 147.567 139.667 147.503 139.228 147.503C138.734 147.503 138.385 147.625 138.18 147.87C138.034 148.05 137.936 148.294 137.887 148.602H135.873C135.917 147.904 136.112 147.33 136.459 146.881C137.011 146.178 137.958 145.826 139.301 145.826C140.175 145.826 140.951 146 141.63 146.346C142.309 146.693 142.648 147.347 142.648 148.309V151.971C142.648 152.225 142.653 152.533 142.663 152.894C142.677 153.167 142.719 153.353 142.787 153.451C142.855 153.548 142.958 153.629 143.095 153.692V154H140.824C140.761 153.839 140.717 153.688 140.692 153.546C140.668 153.404 140.648 153.243 140.634 153.062C140.346 153.375 140.014 153.641 139.638 153.861C139.188 154.12 138.681 154.249 138.114 154.249C137.392 154.249 136.793 154.044 136.32 153.634C135.851 153.219 135.617 152.633 135.617 151.876C135.617 150.895 135.995 150.184 136.752 149.745C137.167 149.505 137.777 149.334 138.583 149.232L139.293 149.144ZM148.932 145.826C149.757 145.826 150.431 146.043 150.954 146.478C151.481 146.908 151.745 147.623 151.745 148.624V154H149.606V149.144C149.606 148.724 149.55 148.402 149.438 148.177C149.232 147.767 148.842 147.562 148.266 147.562C147.558 147.562 147.072 147.862 146.808 148.463C146.671 148.78 146.603 149.186 146.603 149.679V154H144.523V146.031H146.537V147.196C146.806 146.786 147.06 146.49 147.299 146.31C147.729 145.987 148.273 145.826 148.932 145.826ZM157.26 152.528C157.87 152.528 158.339 152.311 158.666 151.876C158.993 151.441 159.157 150.824 159.157 150.023C159.157 149.222 158.993 148.607 158.666 148.177C158.339 147.743 157.87 147.525 157.26 147.525C156.649 147.525 156.178 147.743 155.846 148.177C155.519 148.607 155.355 149.222 155.355 150.023C155.355 150.824 155.519 151.441 155.846 151.876C156.178 152.311 156.649 152.528 157.26 152.528ZM161.347 150.023C161.347 151.195 161.01 152.198 160.336 153.033C159.662 153.863 158.639 154.278 157.267 154.278C155.895 154.278 154.872 153.863 154.198 153.033C153.524 152.198 153.188 151.195 153.188 150.023C153.188 148.871 153.524 147.872 154.198 147.027C154.872 146.183 155.895 145.76 157.267 145.76C158.639 145.76 159.662 146.183 160.336 147.027C161.01 147.872 161.347 148.871 161.347 150.023ZM174.347 143.204H177.592V154H175.49V146.698C175.49 146.488 175.492 146.195 175.497 145.819C175.502 145.438 175.504 145.145 175.504 144.94L173.461 154H171.271L169.242 144.94C169.242 145.145 169.245 145.438 169.25 145.819C169.254 146.195 169.257 146.488 169.257 146.698V154H167.155V143.204H170.436L172.399 151.693L174.347 143.204ZM183.92 150.118C183.788 150.201 183.654 150.27 183.517 150.323C183.385 150.372 183.202 150.418 182.968 150.462L182.499 150.55C182.06 150.628 181.745 150.724 181.554 150.836C181.232 151.026 181.071 151.322 181.071 151.722C181.071 152.079 181.168 152.337 181.364 152.499C181.564 152.655 181.806 152.733 182.089 152.733C182.538 152.733 182.951 152.601 183.327 152.337C183.708 152.074 183.905 151.593 183.92 150.895V150.118ZM182.653 149.144C183.039 149.095 183.314 149.034 183.48 148.961C183.778 148.834 183.927 148.636 183.927 148.368C183.927 148.041 183.812 147.816 183.583 147.694C183.358 147.567 183.026 147.503 182.587 147.503C182.094 147.503 181.745 147.625 181.54 147.87C181.393 148.05 181.295 148.294 181.247 148.602H179.232C179.276 147.904 179.472 147.33 179.818 146.881C180.37 146.178 181.317 145.826 182.66 145.826C183.534 145.826 184.311 146 184.989 146.346C185.668 146.693 186.007 147.347 186.007 148.309V151.971C186.007 152.225 186.012 152.533 186.022 152.894C186.037 153.167 186.078 153.353 186.146 153.451C186.215 153.548 186.317 153.629 186.454 153.692V154H184.184C184.12 153.839 184.076 153.688 184.052 153.546C184.027 153.404 184.008 153.243 183.993 153.062C183.705 153.375 183.373 153.641 182.997 153.861C182.548 154.12 182.04 154.249 181.474 154.249C180.751 154.249 180.153 154.044 179.679 153.634C179.21 153.219 178.976 152.633 178.976 151.876C178.976 150.895 179.354 150.184 180.111 149.745C180.526 149.505 181.137 149.334 181.942 149.232L182.653 149.144ZM189.999 154H187.912V143.204H189.999V154ZM197.543 150.008C197.543 149.393 197.401 148.849 197.118 148.375C196.84 147.901 196.386 147.665 195.756 147.665C194.999 147.665 194.479 148.023 194.196 148.741C194.049 149.122 193.976 149.605 193.976 150.191C193.976 151.119 194.223 151.771 194.716 152.147C195.009 152.367 195.355 152.477 195.756 152.477C196.337 152.477 196.779 152.252 197.082 151.803C197.389 151.354 197.543 150.755 197.543 150.008ZM196.356 145.841C197.289 145.841 198.078 146.185 198.722 146.874C199.372 147.562 199.696 148.573 199.696 149.906C199.696 151.312 199.379 152.384 198.744 153.121C198.114 153.858 197.301 154.227 196.305 154.227C195.67 154.227 195.143 154.068 194.723 153.751C194.494 153.575 194.269 153.319 194.049 152.982V157.142H191.984V146.017H193.983V147.196C194.208 146.849 194.447 146.576 194.701 146.375C195.165 146.019 195.717 145.841 196.356 145.841ZM204.362 147.525C203.878 147.525 203.502 147.677 203.234 147.979C202.97 148.282 202.804 148.692 202.736 149.21H205.98C205.946 148.658 205.778 148.241 205.475 147.958C205.177 147.669 204.806 147.525 204.362 147.525ZM204.362 145.804C205.026 145.804 205.624 145.929 206.156 146.178C206.688 146.427 207.128 146.82 207.475 147.357C207.787 147.831 207.99 148.38 208.083 149.005C208.136 149.371 208.158 149.898 208.148 150.587H202.685C202.714 151.388 202.965 151.949 203.439 152.271C203.727 152.472 204.074 152.572 204.479 152.572C204.909 152.572 205.258 152.45 205.526 152.206C205.673 152.074 205.802 151.891 205.915 151.656H208.046C207.992 152.13 207.746 152.611 207.306 153.099C206.623 153.875 205.666 154.264 204.435 154.264C203.419 154.264 202.523 153.937 201.747 153.282C200.971 152.628 200.583 151.563 200.583 150.089C200.583 148.707 200.932 147.647 201.63 146.91C202.333 146.173 203.244 145.804 204.362 145.804ZM213.986 145.826C214.811 145.826 215.485 146.043 216.007 146.478C216.535 146.908 216.798 147.623 216.798 148.624V154H214.66V149.144C214.66 148.724 214.604 148.402 214.491 148.177C214.286 147.767 213.896 147.562 213.319 147.562C212.611 147.562 212.125 147.862 211.862 148.463C211.725 148.78 211.657 149.186 211.657 149.679V154H209.577V146.031H211.591V147.196C211.859 146.786 212.113 146.49 212.353 146.31C212.782 145.987 213.327 145.826 213.986 145.826ZM220.358 151.451C220.402 151.822 220.497 152.086 220.644 152.242C220.902 152.521 221.381 152.66 222.079 152.66C222.489 152.66 222.814 152.599 223.053 152.477C223.297 152.354 223.419 152.171 223.419 151.927C223.419 151.693 223.322 151.515 223.126 151.393C222.931 151.271 222.206 151.061 220.951 150.763C220.048 150.538 219.411 150.257 219.04 149.92C218.668 149.588 218.483 149.11 218.483 148.485C218.483 147.748 218.771 147.115 219.347 146.588C219.928 146.056 220.744 145.79 221.793 145.79C222.79 145.79 223.6 145.99 224.225 146.39C224.855 146.786 225.216 147.472 225.309 148.448H223.222C223.192 148.18 223.117 147.967 222.995 147.811C222.765 147.528 222.375 147.386 221.823 147.386C221.369 147.386 221.044 147.457 220.849 147.599C220.658 147.74 220.563 147.906 220.563 148.097C220.563 148.336 220.666 148.509 220.871 148.617C221.076 148.729 221.801 148.922 223.046 149.195C223.876 149.391 224.499 149.686 224.914 150.082C225.324 150.482 225.529 150.982 225.529 151.583C225.529 152.374 225.233 153.021 224.643 153.524C224.057 154.022 223.148 154.271 221.918 154.271C220.663 154.271 219.735 154.007 219.135 153.48C218.539 152.948 218.241 152.271 218.241 151.451H220.358ZM231.483 150.118C231.352 150.201 231.217 150.27 231.081 150.323C230.949 150.372 230.766 150.418 230.531 150.462L230.062 150.55C229.623 150.628 229.308 150.724 229.118 150.836C228.795 151.026 228.634 151.322 228.634 151.722C228.634 152.079 228.732 152.337 228.927 152.499C229.127 152.655 229.369 152.733 229.652 152.733C230.102 152.733 230.514 152.601 230.89 152.337C231.271 152.074 231.469 151.593 231.483 150.895V150.118ZM230.216 149.144C230.602 149.095 230.878 149.034 231.044 148.961C231.342 148.834 231.491 148.636 231.491 148.368C231.491 148.041 231.376 147.816 231.146 147.694C230.922 147.567 230.59 147.503 230.15 147.503C229.657 147.503 229.308 147.625 229.103 147.87C228.957 148.05 228.859 148.294 228.81 148.602H226.796C226.84 147.904 227.035 147.33 227.382 146.881C227.934 146.178 228.881 145.826 230.224 145.826C231.098 145.826 231.874 146 232.553 146.346C233.231 146.693 233.571 147.347 233.571 148.309V151.971C233.571 152.225 233.576 152.533 233.585 152.894C233.6 153.167 233.642 153.353 233.71 153.451C233.778 153.548 233.881 153.629 234.018 153.692V154H231.747C231.684 153.839 231.64 153.688 231.615 153.546C231.591 153.404 231.571 153.243 231.557 153.062C231.269 153.375 230.937 153.641 230.561 153.861C230.111 154.12 229.604 154.249 229.037 154.249C228.314 154.249 227.716 154.044 227.243 153.634C226.774 153.219 226.54 152.633 226.54 151.876C226.54 150.895 226.918 150.184 227.675 149.745C228.09 149.505 228.7 149.334 229.506 149.232L230.216 149.144Z" fill="#4980A8"/>
<rect y="65" width="54" height="36" rx="11" fill="#F0F2F1"/>
<path d="M12.53 79.14H9.8V78.51C10.2 78.48 10.56 78.44 10.88 78.39C11.21 78.34 11.495 78.245 11.735 78.105C11.985 77.965 12.19 77.765 12.35 77.505C12.52 77.235 12.645 76.875 12.725 76.425H13.49V87H12.53V79.14ZM19.65 81.12C20.1 81.12 20.51 81.095 20.88 81.045C21.25 80.985 21.565 80.88 21.825 80.73C22.095 80.57 22.305 80.36 22.455 80.1C22.605 79.84 22.68 79.505 22.68 79.095C22.68 78.765 22.62 78.485 22.5 78.255C22.38 78.015 22.215 77.82 22.005 77.67C21.805 77.52 21.565 77.41 21.285 77.34C21.015 77.27 20.73 77.235 20.43 77.235C20.09 77.235 19.78 77.29 19.5 77.4C19.23 77.51 18.995 77.67 18.795 77.88C18.595 78.08 18.44 78.32 18.33 78.6C18.22 78.87 18.165 79.17 18.165 79.5H17.205C17.205 79.02 17.285 78.59 17.445 78.21C17.615 77.82 17.875 77.46 18.225 77.13C18.555 76.83 18.925 76.64 19.335 76.56C19.755 76.47 20.185 76.425 20.625 76.425C21.045 76.425 21.435 76.48 21.795 76.59C22.165 76.69 22.485 76.85 22.755 77.07C23.025 77.28 23.24 77.55 23.4 77.88C23.56 78.21 23.64 78.595 23.64 79.035C23.64 79.585 23.515 80.06 23.265 80.46C23.025 80.86 22.65 81.17 22.14 81.39C22.52 81.51 22.83 81.67 23.07 81.87C23.32 82.06 23.515 82.275 23.655 82.515C23.795 82.745 23.89 82.99 23.94 83.25C23.99 83.51 24.015 83.76 24.015 84C24.015 84.44 23.94 84.85 23.79 85.23C23.64 85.61 23.42 85.945 23.13 86.235C22.84 86.525 22.48 86.76 22.05 86.94C21.63 87.11 21.15 87.2 20.61 87.21C20 87.21 19.47 87.155 19.02 87.045C18.57 86.935 18.195 86.755 17.895 86.505C17.595 86.245 17.36 85.91 17.19 85.5C17.02 85.08 16.905 84.56 16.845 83.94H17.805C17.805 84.75 18.045 85.365 18.525 85.785C19.015 86.195 19.65 86.4 20.43 86.4C20.81 86.4 21.165 86.335 21.495 86.205C21.825 86.075 22.105 85.9 22.335 85.68C22.575 85.46 22.755 85.205 22.875 84.915C23.005 84.625 23.065 84.325 23.055 84.015C23.035 83.585 22.935 83.23 22.755 82.95C22.575 82.66 22.33 82.435 22.02 82.275C21.72 82.105 21.365 81.995 20.955 81.945C20.545 81.885 20.11 81.87 19.65 81.9V81.12ZM26.1999 87V85.68H27.2949V87H26.1999ZM33.3747 79.14H30.6447V78.51C31.0447 78.48 31.4047 78.44 31.7247 78.39C32.0547 78.34 32.3397 78.245 32.5797 78.105C32.8297 77.965 33.0347 77.765 33.1947 77.505C33.3647 77.235 33.4897 76.875 33.5697 76.425H34.3347V87H33.3747V79.14ZM42.5497 84.39H37.7197V83.565L42.6397 76.53H43.5097V83.58H44.9797V84.39H43.5097V87H42.5497V84.39ZM38.6647 83.58H42.5497V77.97L38.6647 83.58Z" fill="#333333"/>
<rect y="123" width="54" height="36" rx="11" fill="#F0F2F1"/>
<path d="M12.53 137.14H9.8V136.51C10.2 136.48 10.56 136.44 10.88 136.39C11.21 136.34 11.495 136.245 11.735 136.105C11.985 135.965 12.19 135.765 12.35 135.505C12.52 135.235 12.645 134.875 12.725 134.425H13.49V145H12.53V137.14ZM22.89 137.02C22.78 136.48 22.56 136.05 22.23 135.73C21.9 135.4 21.45 135.235 20.88 135.235C20.23 135.235 19.715 135.39 19.335 135.7C18.965 136.01 18.68 136.405 18.48 136.885C18.28 137.355 18.145 137.87 18.075 138.43C18.005 138.99 17.95 139.52 17.91 140.02C18.06 139.82 18.215 139.62 18.375 139.42C18.545 139.22 18.735 139.045 18.945 138.895C19.155 138.735 19.4 138.61 19.68 138.52C19.96 138.42 20.295 138.37 20.685 138.37C21.755 138.37 22.58 138.675 23.16 139.285C23.75 139.885 24.045 140.715 24.045 141.775C24.045 142.845 23.75 143.685 23.16 144.295C22.57 144.905 21.735 145.21 20.655 145.21C20.125 145.21 19.635 145.125 19.185 144.955C18.735 144.775 18.345 144.485 18.015 144.085C17.685 143.685 17.425 143.165 17.235 142.525C17.045 141.875 16.95 141.085 16.95 140.155C16.95 139.525 17.005 138.875 17.115 138.205C17.225 137.525 17.42 136.905 17.7 136.345C17.99 135.785 18.38 135.325 18.87 134.965C19.37 134.605 20.01 134.425 20.79 134.425C21.63 134.425 22.33 134.645 22.89 135.085C23.45 135.525 23.78 136.17 23.88 137.02H22.89ZM20.655 139.18C20.285 139.18 19.95 139.25 19.65 139.39C19.36 139.53 19.11 139.72 18.9 139.96C18.7 140.2 18.545 140.48 18.435 140.8C18.325 141.11 18.27 141.445 18.27 141.805C18.27 142.105 18.31 142.41 18.39 142.72C18.48 143.02 18.62 143.295 18.81 143.545C19.01 143.795 19.26 144 19.56 144.16C19.86 144.32 20.23 144.4 20.67 144.4C21.12 144.4 21.495 144.325 21.795 144.175C22.105 144.015 22.355 143.81 22.545 143.56C22.735 143.3 22.87 143.015 22.95 142.705C23.04 142.385 23.085 142.065 23.085 141.745C23.085 140.925 22.885 140.295 22.485 139.855C22.095 139.405 21.485 139.18 20.655 139.18ZM26.1999 145V143.68H27.2949V145H26.1999ZM26.1999 138.94V137.62H27.2949V138.94H26.1999ZM29.8797 137.89C29.8797 137.37 29.9597 136.9 30.1197 136.48C30.2797 136.05 30.5097 135.685 30.8097 135.385C31.1097 135.075 31.4697 134.84 31.8897 134.68C32.3197 134.51 32.7947 134.425 33.3147 134.425C33.8447 134.425 34.3097 134.505 34.7097 134.665C35.1197 134.815 35.4597 135.02 35.7297 135.28C36.0097 135.54 36.2197 135.85 36.3597 136.21C36.4997 136.57 36.5697 136.95 36.5697 137.35C36.5697 137.82 36.4897 138.235 36.3297 138.595C36.1797 138.955 35.9747 139.275 35.7147 139.555C35.4647 139.835 35.1747 140.085 34.8447 140.305C34.5247 140.525 34.1947 140.735 33.8547 140.935C33.5147 141.125 33.1797 141.31 32.8497 141.49C32.5197 141.67 32.2247 141.86 31.9647 142.06C31.7947 142.19 31.6297 142.33 31.4697 142.48C31.3097 142.62 31.1647 142.775 31.0347 142.945C30.9047 143.115 30.7997 143.305 30.7197 143.515C30.6397 143.715 30.5947 143.94 30.5847 144.19H36.4797V145H29.5647C29.5747 144.49 29.6297 144.03 29.7297 143.62C29.8297 143.21 30.0497 142.81 30.3897 142.42C30.7597 142 31.1397 141.64 31.5297 141.34C31.9297 141.04 32.3197 140.775 32.6997 140.545C33.0797 140.305 33.4397 140.09 33.7797 139.9C34.1197 139.7 34.4197 139.485 34.6797 139.255C34.9397 139.025 35.1447 138.765 35.2947 138.475C35.4447 138.185 35.5197 137.83 35.5197 137.41C35.5197 137.07 35.4597 136.765 35.3397 136.495C35.2197 136.225 35.0547 135.995 34.8447 135.805C34.6347 135.615 34.3897 135.475 34.1097 135.385C33.8297 135.285 33.5247 135.235 33.1947 135.235C32.8447 135.235 32.5247 135.31 32.2347 135.46C31.9547 135.6 31.7097 135.79 31.4997 136.03C31.2997 136.27 31.1447 136.55 31.0347 136.87C30.9247 137.19 30.8797 137.53 30.8997 137.89H29.8797ZM38.9497 142.675C39.0597 143.245 39.2797 143.675 39.6097 143.965C39.9497 144.255 40.4147 144.4 41.0047 144.4C41.6347 144.4 42.1347 144.245 42.5047 143.935C42.8847 143.625 43.1747 143.235 43.3747 142.765C43.5847 142.295 43.7247 141.79 43.7947 141.25C43.8747 140.7 43.9247 140.185 43.9447 139.705L43.9147 139.675C43.5947 140.215 43.1947 140.625 42.7147 140.905C42.2447 141.185 41.6947 141.325 41.0647 141.325C40.5647 141.325 40.1147 141.245 39.7147 141.085C39.3147 140.925 38.9697 140.695 38.6797 140.395C38.3997 140.095 38.1797 139.735 38.0197 139.315C37.8697 138.895 37.7947 138.43 37.7947 137.92C37.7947 137.42 37.8647 136.96 38.0047 136.54C38.1447 136.11 38.3547 135.74 38.6347 135.43C38.9147 135.11 39.2647 134.865 39.6847 134.695C40.1147 134.515 40.6197 134.425 41.1997 134.425C41.9097 134.425 42.4997 134.565 42.9697 134.845C43.4497 135.125 43.8297 135.505 44.1097 135.985C44.3997 136.465 44.6047 137.03 44.7247 137.68C44.8447 138.33 44.9047 139.025 44.9047 139.765C44.9047 140.665 44.8097 141.455 44.6197 142.135C44.4297 142.805 44.1597 143.37 43.8097 143.83C43.4697 144.29 43.0647 144.635 42.5947 144.865C42.1247 145.095 41.6097 145.21 41.0497 145.21C40.6397 145.21 40.2547 145.16 39.8947 145.06C39.5347 144.96 39.2197 144.805 38.9497 144.595C38.6797 144.385 38.4597 144.12 38.2897 143.8C38.1197 143.48 38.0147 143.105 37.9747 142.675H38.9497ZM41.1997 135.235C40.3897 135.255 39.7797 135.505 39.3697 135.985C38.9597 136.465 38.7547 137.12 38.7547 137.95C38.7547 138.76 38.9647 139.39 39.3847 139.84C39.8147 140.29 40.4197 140.515 41.1997 140.515C41.5697 140.515 41.8997 140.445 42.1897 140.305C42.4897 140.165 42.7397 139.975 42.9397 139.735C43.1497 139.495 43.3047 139.22 43.4047 138.91C43.5147 138.59 43.5697 138.25 43.5697 137.89C43.5697 137.11 43.3597 136.48 42.9397 136C42.5197 135.51 41.9397 135.255 41.1997 135.235Z" fill="#333333"/>
<defs>
<clipPath id="clip0">
<rect width="8" height="8" fill="white" transform="translate(106 8)"/>
</clipPath>
</defs>
</svg>
