<svg width="25" height="25" viewBox="0 0 25 25" fill="none" xmlns="http://www.w3.org/2000/svg">
<g clip-path="url(#clip0)">
<path d="M7.50509 16.4606H21.2801C22.8421 16.4606 24.1163 15.1864 24.1163 13.6244V7.82873C24.1163 7.8236 24.1163 7.81332 24.1163 7.80818C24.1163 7.79277 24.1163 7.78249 24.1163 7.76708C24.1163 7.7568 24.1163 7.74653 24.1112 7.73625C24.1112 7.72597 24.106 7.71056 24.106 7.70028C24.106 7.69001 24.1009 7.67973 24.1009 7.66946C24.0957 7.65918 24.0957 7.6489 24.0906 7.63349C24.0855 7.62321 24.0855 7.61294 24.0803 7.60266C24.0752 7.59238 24.0752 7.58211 24.0701 7.57183C24.0649 7.56156 24.0598 7.55128 24.0546 7.53587C24.0495 7.52559 24.0444 7.51531 24.0392 7.51018C24.0341 7.4999 24.029 7.48962 24.0238 7.47935C24.0187 7.46907 24.0135 7.46393 24.0084 7.45366C24.0033 7.44338 23.993 7.43311 23.9878 7.42283C23.9827 7.41255 23.9776 7.40742 23.9673 7.39714C23.9622 7.38686 23.9519 7.38173 23.9467 7.37145C23.9416 7.36117 23.9313 7.35604 23.9262 7.34576C23.9211 7.33548 23.9108 7.33035 23.9056 7.32521C23.8954 7.31493 23.8902 7.30979 23.88 7.29952C23.8697 7.29438 23.8645 7.2841 23.8543 7.27897C23.844 7.27383 23.8337 7.26355 23.8234 7.25841C23.8132 7.25328 23.808 7.24814 23.7977 7.243C23.7875 7.23786 23.7772 7.23272 23.7669 7.22245C23.7566 7.21731 23.7464 7.21217 23.7361 7.20703C23.7258 7.2019 23.7155 7.19676 23.7053 7.19162C23.695 7.18648 23.6847 7.18134 23.6744 7.17621C23.6642 7.17107 23.6539 7.17107 23.6436 7.16593C23.6333 7.16079 23.6179 7.15565 23.6076 7.15565C23.5974 7.15565 23.5871 7.15052 23.5819 7.15052C23.5665 7.14538 23.5563 7.14538 23.5408 7.14538C23.5357 7.14538 23.5306 7.14024 23.5203 7.14024L6.06131 4.73051V2.29509C6.06131 2.2694 6.06131 2.24371 6.05617 2.22316C6.05617 2.21802 6.05617 2.21288 6.05103 2.2026C6.05103 2.18719 6.04589 2.17178 6.04589 2.15636C6.04075 2.14095 6.04075 2.13067 6.03562 2.11526C6.03562 2.10498 6.03048 2.09984 6.03048 2.08957C6.02534 2.07415 6.0202 2.05874 6.01506 2.04333C6.01506 2.03819 6.00993 2.02791 6.00993 2.02277C6.00479 2.00736 5.99965 1.99708 5.98937 1.98167C5.98423 1.97653 5.98424 1.96625 5.9791 1.96112C5.97396 1.95084 5.96882 1.94056 5.95855 1.93029C5.95341 1.92001 5.94827 1.91487 5.94313 1.9046C5.93799 1.89432 5.93286 1.88918 5.92772 1.87891C5.92258 1.86863 5.9123 1.85836 5.90716 1.84808C5.90203 1.84294 5.89689 1.8378 5.89175 1.83267C5.88147 1.82239 5.8712 1.81211 5.86092 1.80184C5.85578 1.7967 5.85065 1.79156 5.84551 1.78642C5.83523 1.77615 5.82496 1.76587 5.80954 1.7556C5.8044 1.75046 5.79413 1.74532 5.78899 1.74018C5.77871 1.72991 5.76844 1.72477 5.75816 1.71449C5.74275 1.70422 5.72733 1.69394 5.71706 1.6888C5.71192 1.68366 5.70678 1.68366 5.70164 1.67853C5.68109 1.66825 5.6554 1.65797 5.63485 1.6477L1.84813 0.0549126C1.49361 -0.0940899 1.0877 0.0703266 0.938702 0.42485C0.789699 0.779373 0.954116 1.18528 1.30864 1.33428L4.6689 2.75237V5.89684V6.39523V10.2179V13.6347V17.9506C4.6689 19.3893 5.74789 20.5813 7.14029 20.7611C6.88853 21.1824 6.73952 21.6757 6.73952 22.1998C6.73952 23.7463 7.99834 25 9.53974 25C11.0811 25 12.34 23.7412 12.34 22.1998C12.34 21.686 12.2012 21.1979 11.9546 20.7868H18.1922C17.9455 21.203 17.8068 21.686 17.8068 22.1998C17.8068 23.7463 19.0656 25 20.607 25C22.1484 25 23.4073 23.7412 23.4073 22.1998C23.4073 20.6584 22.1484 19.3995 20.607 19.3995H7.50509C6.70356 19.3995 6.05617 18.747 6.05617 17.9506V16.0701C6.47748 16.3167 6.97587 16.4606 7.50509 16.4606ZM10.9578 22.1946C10.9578 22.9756 10.3207 23.6076 9.54488 23.6076C8.76904 23.6076 8.13193 22.9705 8.13193 22.1946C8.13193 21.4188 8.76904 20.7817 9.54488 20.7817C10.3207 20.7817 10.9578 21.4137 10.9578 22.1946ZM22.0251 22.1946C22.0251 22.9756 21.388 23.6076 20.6122 23.6076C19.8363 23.6076 19.1992 22.9705 19.1992 22.1946C19.1992 21.4188 19.8363 20.7817 20.6122 20.7817C21.388 20.7817 22.0251 21.4137 22.0251 22.1946ZM21.2801 15.0733H7.50509C6.70356 15.0733 6.05617 14.4208 6.05617 13.6244V10.2076V6.38495V6.12805L22.729 8.42474V13.6193C22.729 14.4259 22.0765 15.0733 21.2801 15.0733Z" fill="white"/>
</g>
<defs>
<clipPath id="clip0">
<rect width="25" height="25" fill="white"/>
</clipPath>
</defs>
</svg>
