<svg width="375" height="170" viewBox="0 0 375 170" fill="none" xmlns="http://www.w3.org/2000/svg">
<rect width="375" height="170" fill="#E9EDEB" fill-opacity="0.59"/>
<path d="M307.75 36C307.781 34.7812 308.043 33.668 308.535 32.6602C309.012 31.5273 310.137 30.3281 311.91 29.0625C313.449 27.9609 314.445 27.1719 314.898 26.6953C315.594 25.9531 315.941 25.1406 315.941 24.2578C315.941 23.5391 315.742 22.9414 315.344 22.4648C314.945 21.9883 314.375 21.75 313.633 21.75C312.617 21.75 311.926 22.1289 311.559 22.8867C311.348 23.3242 311.223 24.0195 311.184 24.9727H307.938C307.992 23.5273 308.254 22.3594 308.723 21.4688C309.613 19.7734 311.195 18.9258 313.469 18.9258C315.266 18.9258 316.695 19.4258 317.758 20.4258C318.82 21.418 319.352 22.7344 319.352 24.375C319.352 25.6328 318.977 26.75 318.227 27.7266C317.734 28.375 316.926 29.0977 315.801 29.8945L314.465 30.8438C313.629 31.4375 313.055 31.8672 312.742 32.1328C312.438 32.3984 312.18 32.707 311.969 33.0586H319.387V36H307.75ZM322.023 24.2812V22.0078C323.078 21.9609 323.816 21.8906 324.238 21.7969C324.91 21.6484 325.457 21.3516 325.879 20.9062C326.168 20.6016 326.387 20.1953 326.535 19.6875C326.621 19.3828 326.664 19.1562 326.664 19.0078H329.441V36H326.02V24.2812H322.023ZM334.07 24.2812V22.0078C335.125 21.9609 335.863 21.8906 336.285 21.7969C336.957 21.6484 337.504 21.3516 337.926 20.9062C338.215 20.6016 338.434 20.1953 338.582 19.6875C338.668 19.3828 338.711 19.1562 338.711 19.0078H341.488V36H338.066V24.2812H334.07ZM347.148 38.7773C347.82 38.5898 348.312 38.2773 348.625 37.8398C348.945 37.4023 349.129 36.7891 349.176 36H347.148V32.5078H350.758V35.5312C350.758 36.0625 350.688 36.6172 350.547 37.1953C350.406 37.7734 350.145 38.2734 349.762 38.6953C349.348 39.1484 348.859 39.4883 348.297 39.7148C347.742 39.9492 347.359 40.0664 347.148 40.0664V38.7773ZM352.996 27.7266H359.723V30.8906H352.996V27.7266Z" fill="#B32B32"/>
<path d="M78.0781 22.2949V25.7754H81.1455C81.7549 25.7754 82.2119 25.7051 82.5166 25.5645C83.0557 25.3184 83.3252 24.832 83.3252 24.1055C83.3252 23.3203 83.0645 22.793 82.543 22.5234C82.25 22.3711 81.8105 22.2949 81.2246 22.2949H78.0781ZM81.7871 20.0449C82.6953 20.0625 83.3926 20.1738 83.8789 20.3789C84.3711 20.584 84.7871 20.8857 85.127 21.2842C85.4082 21.6123 85.6309 21.9756 85.7949 22.374C85.959 22.7725 86.041 23.2266 86.041 23.7363C86.041 24.3516 85.8857 24.958 85.5752 25.5557C85.2646 26.1475 84.752 26.5664 84.0371 26.8125C84.6348 27.0527 85.0566 27.3955 85.3027 27.8408C85.5547 28.2803 85.6807 28.9541 85.6807 29.8623V30.7324C85.6807 31.3242 85.7041 31.7256 85.751 31.9365C85.8213 32.2705 85.9854 32.5166 86.2432 32.6748V33H83.2637C83.1816 32.7129 83.123 32.4814 83.0879 32.3057C83.0176 31.9424 82.9795 31.5703 82.9736 31.1895L82.9561 29.9854C82.9443 29.1592 82.792 28.6084 82.499 28.333C82.2119 28.0576 81.6699 27.9199 80.873 27.9199H78.0781V33H75.4326V20.0449H81.7871ZM93.459 28.3418C93.3008 28.4414 93.1396 28.5234 92.9756 28.5879C92.8174 28.6465 92.5977 28.7021 92.3164 28.7549L91.7539 28.8604C91.2266 28.9541 90.8486 29.0684 90.6201 29.2031C90.2334 29.4316 90.04 29.7861 90.04 30.2666C90.04 30.6943 90.1572 31.0049 90.3916 31.1982C90.6318 31.3857 90.9219 31.4795 91.2617 31.4795C91.8008 31.4795 92.2959 31.3213 92.7471 31.0049C93.2041 30.6885 93.4414 30.1113 93.459 29.2734V28.3418ZM91.9385 27.1729C92.4014 27.1143 92.7324 27.041 92.9316 26.9531C93.2891 26.8008 93.4678 26.5635 93.4678 26.2412C93.4678 25.8486 93.3301 25.5791 93.0547 25.4326C92.7852 25.2803 92.3867 25.2041 91.8594 25.2041C91.2676 25.2041 90.8486 25.3506 90.6025 25.6436C90.4268 25.8604 90.3096 26.1533 90.251 26.5225H87.834C87.8867 25.6846 88.1211 24.9961 88.5371 24.457C89.1992 23.6133 90.3359 23.1914 91.9473 23.1914C92.9961 23.1914 93.9277 23.3994 94.7422 23.8154C95.5566 24.2314 95.9639 25.0166 95.9639 26.1709V30.5654C95.9639 30.8701 95.9697 31.2393 95.9814 31.6729C95.999 32.001 96.0488 32.2236 96.1309 32.3408C96.2129 32.458 96.3359 32.5547 96.5 32.6309V33H93.7754C93.6992 32.8066 93.6465 32.625 93.6172 32.4551C93.5879 32.2852 93.5645 32.0918 93.5469 31.875C93.2012 32.25 92.8027 32.5693 92.3516 32.833C91.8125 33.1436 91.2031 33.2988 90.5234 33.2988C89.6562 33.2988 88.9385 33.0527 88.3701 32.5605C87.8076 32.0625 87.5264 31.3594 87.5264 30.4512C87.5264 29.2734 87.9805 28.4209 88.8887 27.8936C89.3867 27.6064 90.1191 27.4014 91.0859 27.2783L91.9385 27.1729ZM104.103 23.4199H106.792L103.338 33H100.692L97.2559 23.4199H100.068L102.063 30.4863L104.103 23.4199ZM113.524 23.1914C114.515 23.1914 115.323 23.4521 115.95 23.9736C116.583 24.4893 116.899 25.3477 116.899 26.5488V33H114.333V27.1729C114.333 26.6689 114.266 26.2822 114.131 26.0127C113.885 25.5205 113.416 25.2744 112.725 25.2744C111.875 25.2744 111.292 25.6348 110.976 26.3555C110.812 26.7363 110.729 27.2227 110.729 27.8145V33H108.233V23.4375H110.65V24.835C110.973 24.3428 111.277 23.9883 111.564 23.7715C112.08 23.3848 112.733 23.1914 113.524 23.1914ZM121.171 29.9414C121.224 30.3867 121.338 30.7031 121.514 30.8906C121.824 31.2246 122.398 31.3916 123.236 31.3916C123.729 31.3916 124.118 31.3184 124.405 31.1719C124.698 31.0254 124.845 30.8057 124.845 30.5127C124.845 30.2314 124.728 30.0176 124.493 29.8711C124.259 29.7246 123.389 29.4727 121.883 29.1152C120.799 28.8457 120.034 28.5088 119.589 28.1045C119.144 27.7061 118.921 27.1318 118.921 26.3818C118.921 25.4971 119.267 24.7383 119.958 24.1055C120.655 23.4668 121.634 23.1475 122.894 23.1475C124.089 23.1475 125.062 23.3877 125.812 23.8682C126.567 24.3428 127.001 25.166 127.112 26.3379H124.607C124.572 26.0156 124.481 25.7607 124.335 25.5732C124.06 25.2334 123.591 25.0635 122.929 25.0635C122.384 25.0635 121.994 25.1484 121.76 25.3184C121.531 25.4883 121.417 25.6875 121.417 25.916C121.417 26.2031 121.54 26.4111 121.786 26.54C122.032 26.6748 122.902 26.9062 124.396 27.2344C125.393 27.4688 126.14 27.8232 126.638 28.2979C127.13 28.7783 127.376 29.3789 127.376 30.0996C127.376 31.0488 127.021 31.8252 126.312 32.4287C125.609 33.0264 124.52 33.3252 123.043 33.3252C121.537 33.3252 120.424 33.0088 119.703 32.376C118.988 31.7373 118.631 30.9258 118.631 29.9414H121.171ZM134.416 23.209C135.676 23.209 136.66 23.6631 137.369 24.5713C138.084 25.4795 138.441 26.6514 138.441 28.0869C138.441 29.5752 138.09 30.8086 137.387 31.7871C136.684 32.7656 135.702 33.2549 134.442 33.2549C133.651 33.2549 133.016 33.0967 132.535 32.7803C132.248 32.5928 131.938 32.2646 131.604 31.7959V33H129.151V20.0625H131.647V24.668C131.964 24.2227 132.312 23.8828 132.693 23.6484C133.145 23.3555 133.719 23.209 134.416 23.209ZM133.774 31.1895C134.419 31.1895 134.92 30.9287 135.277 30.4072C135.635 29.8857 135.813 29.2002 135.813 28.3506C135.813 27.6709 135.726 27.1084 135.55 26.6631C135.216 25.8193 134.601 25.3975 133.704 25.3975C132.796 25.3975 132.172 25.8105 131.832 26.6367C131.656 27.0762 131.568 27.6445 131.568 28.3418C131.568 29.1621 131.75 29.8418 132.113 30.3809C132.477 30.9199 133.03 31.1895 133.774 31.1895ZM142.862 22.2773H140.357V19.9658H142.862V22.2773ZM139.153 34.8369C139.294 34.8486 139.394 34.8545 139.452 34.8545C139.511 34.8604 139.563 34.8633 139.61 34.8633C139.856 34.8633 140.041 34.8018 140.164 34.6787C140.293 34.5615 140.357 34.3301 140.357 33.9844V23.4639H142.862V34.0283C142.862 34.9951 142.672 35.71 142.291 36.1729C141.91 36.6357 141.163 36.8672 140.05 36.8672C139.974 36.8672 139.859 36.8643 139.707 36.8584C139.561 36.8525 139.376 36.8467 139.153 36.8408V34.8369ZM149.032 25.2305C148.452 25.2305 148.001 25.4121 147.679 25.7754C147.362 26.1387 147.163 26.6309 147.081 27.252H150.975C150.934 26.5898 150.731 26.0889 150.368 25.749C150.011 25.4033 149.565 25.2305 149.032 25.2305ZM149.032 23.165C149.829 23.165 150.547 23.3145 151.186 23.6133C151.824 23.9121 152.352 24.3838 152.768 25.0283C153.143 25.5967 153.386 26.2559 153.497 27.0059C153.562 27.4453 153.588 28.0781 153.576 28.9043H147.02C147.055 29.8652 147.356 30.5391 147.925 30.9258C148.271 31.166 148.687 31.2861 149.173 31.2861C149.688 31.2861 150.107 31.1396 150.43 30.8467C150.605 30.6885 150.761 30.4688 150.896 30.1875H153.453C153.389 30.7559 153.093 31.333 152.565 31.9189C151.745 32.8506 150.597 33.3164 149.12 33.3164C147.901 33.3164 146.826 32.9238 145.895 32.1387C144.963 31.3535 144.497 30.0762 144.497 28.3066C144.497 26.6484 144.916 25.377 145.754 24.4922C146.598 23.6074 147.69 23.165 149.032 23.165ZM160.476 23.1914C160.522 23.1914 160.561 23.1943 160.59 23.2002C160.625 23.2002 160.698 23.2031 160.81 23.209V25.7754C160.651 25.7578 160.511 25.7461 160.388 25.7402C160.265 25.7344 160.165 25.7314 160.089 25.7314C159.081 25.7314 158.404 26.0596 158.059 26.7158C157.865 27.085 157.769 27.6533 157.769 28.4209V33H155.246V23.4199H157.637V25.0898C158.023 24.4512 158.36 24.0146 158.647 23.7803C159.116 23.3877 159.726 23.1914 160.476 23.1914ZM166.399 30.9434C166.985 30.9434 167.48 30.7236 167.885 30.2842C168.289 29.8389 168.491 29.1328 168.491 28.166C168.491 27.2578 168.298 26.5664 167.911 26.0918C167.53 25.6172 167.018 25.3799 166.373 25.3799C165.494 25.3799 164.888 25.793 164.554 26.6191C164.378 27.0586 164.29 27.6006 164.29 28.2451C164.29 28.8018 164.384 29.2969 164.571 29.7305C164.911 30.5391 165.521 30.9434 166.399 30.9434ZM165.775 23.1914C166.256 23.1914 166.675 23.2646 167.032 23.4111C167.642 23.6631 168.134 24.126 168.509 24.7998V23.4199H170.943V32.5078C170.943 33.7441 170.735 34.6758 170.319 35.3027C169.604 36.3809 168.233 36.9199 166.206 36.9199C164.981 36.9199 163.982 36.6797 163.209 36.1992C162.436 35.7188 162.008 35.001 161.926 34.0459H164.65C164.721 34.3389 164.835 34.5498 164.993 34.6787C165.263 34.9072 165.717 35.0215 166.355 35.0215C167.258 35.0215 167.861 34.7197 168.166 34.1162C168.365 33.7295 168.465 33.0791 168.465 32.165V31.5498C168.225 31.96 167.967 32.2676 167.691 32.4727C167.193 32.8535 166.546 33.0439 165.749 33.0439C164.519 33.0439 163.534 32.6133 162.796 31.752C162.063 30.8848 161.697 29.7129 161.697 28.2363C161.697 26.8125 162.052 25.6172 162.761 24.6504C163.47 23.6777 164.475 23.1914 165.775 23.1914ZM178.273 20.0889H180.734V27.0674L183.854 23.4639H186.957L183.608 27.1289L187.089 33H184.065L181.771 28.9043L180.734 29.9854V33H178.273V20.0889ZM192.617 31.2334C193.35 31.2334 193.912 30.9727 194.305 30.4512C194.697 29.9297 194.894 29.1885 194.894 28.2275C194.894 27.2666 194.697 26.5283 194.305 26.0127C193.912 25.4912 193.35 25.2305 192.617 25.2305C191.885 25.2305 191.319 25.4912 190.921 26.0127C190.528 26.5283 190.332 27.2666 190.332 28.2275C190.332 29.1885 190.528 29.9297 190.921 30.4512C191.319 30.9727 191.885 31.2334 192.617 31.2334ZM197.521 28.2275C197.521 29.6338 197.117 30.8379 196.309 31.8398C195.5 32.8359 194.272 33.334 192.626 33.334C190.979 33.334 189.752 32.8359 188.943 31.8398C188.135 30.8379 187.73 29.6338 187.73 28.2275C187.73 26.8447 188.135 25.6465 188.943 24.6328C189.752 23.6191 190.979 23.1123 192.626 23.1123C194.272 23.1123 195.5 23.6191 196.309 24.6328C197.117 25.6465 197.521 26.8447 197.521 28.2275ZM201.881 33H199.376V20.0449H201.881V33ZM206.891 33H204.386V20.0449H206.891V33ZM213.122 25.2305C212.542 25.2305 212.091 25.4121 211.769 25.7754C211.452 26.1387 211.253 26.6309 211.171 27.252H215.064C215.023 26.5898 214.821 26.0889 214.458 25.749C214.101 25.4033 213.655 25.2305 213.122 25.2305ZM213.122 23.165C213.919 23.165 214.637 23.3145 215.275 23.6133C215.914 23.9121 216.441 24.3838 216.857 25.0283C217.232 25.5967 217.476 26.2559 217.587 27.0059C217.651 27.4453 217.678 28.0781 217.666 28.9043H211.109C211.145 29.8652 211.446 30.5391 212.015 30.9258C212.36 31.166 212.776 31.2861 213.263 31.2861C213.778 31.2861 214.197 31.1396 214.52 30.8467C214.695 30.6885 214.851 30.4688 214.985 30.1875H217.543C217.479 30.7559 217.183 31.333 216.655 31.9189C215.835 32.8506 214.687 33.3164 213.21 33.3164C211.991 33.3164 210.916 32.9238 209.984 32.1387C209.053 31.3535 208.587 30.0762 208.587 28.3066C208.587 26.6484 209.006 25.377 209.844 24.4922C210.688 23.6074 211.78 23.165 213.122 23.165ZM223.476 30.9434C224.062 30.9434 224.557 30.7236 224.961 30.2842C225.365 29.8389 225.567 29.1328 225.567 28.166C225.567 27.2578 225.374 26.5664 224.987 26.0918C224.606 25.6172 224.094 25.3799 223.449 25.3799C222.57 25.3799 221.964 25.793 221.63 26.6191C221.454 27.0586 221.366 27.6006 221.366 28.2451C221.366 28.8018 221.46 29.2969 221.647 29.7305C221.987 30.5391 222.597 30.9434 223.476 30.9434ZM222.852 23.1914C223.332 23.1914 223.751 23.2646 224.108 23.4111C224.718 23.6631 225.21 24.126 225.585 24.7998V23.4199H228.02V32.5078C228.02 33.7441 227.812 34.6758 227.396 35.3027C226.681 36.3809 225.31 36.9199 223.282 36.9199C222.058 36.9199 221.059 36.6797 220.285 36.1992C219.512 35.7188 219.084 35.001 219.002 34.0459H221.727C221.797 34.3389 221.911 34.5498 222.069 34.6787C222.339 34.9072 222.793 35.0215 223.432 35.0215C224.334 35.0215 224.938 34.7197 225.242 34.1162C225.441 33.7295 225.541 33.0791 225.541 32.165V31.5498C225.301 31.96 225.043 32.2676 224.768 32.4727C224.27 32.8535 223.622 33.0439 222.825 33.0439C221.595 33.0439 220.61 32.6133 219.872 31.752C219.14 30.8848 218.773 29.7129 218.773 28.2363C218.773 26.8125 219.128 25.6172 219.837 24.6504C220.546 23.6777 221.551 23.1914 222.852 23.1914ZM232.941 22.2773H230.401V19.9658H232.941V22.2773ZM230.401 23.4199H232.941V33H230.401V23.4199ZM239.155 25.2305C238.575 25.2305 238.124 25.4121 237.802 25.7754C237.485 26.1387 237.286 26.6309 237.204 27.252H241.098C241.057 26.5898 240.854 26.0889 240.491 25.749C240.134 25.4033 239.688 25.2305 239.155 25.2305ZM239.155 23.165C239.952 23.165 240.67 23.3145 241.309 23.6133C241.947 23.9121 242.475 24.3838 242.891 25.0283C243.266 25.5967 243.509 26.2559 243.62 27.0059C243.685 27.4453 243.711 28.0781 243.699 28.9043H237.143C237.178 29.8652 237.479 30.5391 238.048 30.9258C238.394 31.166 238.81 31.2861 239.296 31.2861C239.812 31.2861 240.23 31.1396 240.553 30.8467C240.729 30.6885 240.884 30.4688 241.019 30.1875H243.576C243.512 30.7559 243.216 31.333 242.688 31.9189C241.868 32.8506 240.72 33.3164 239.243 33.3164C238.024 33.3164 236.949 32.9238 236.018 32.1387C235.086 31.3535 234.62 30.0762 234.62 28.3066C234.62 26.6484 235.039 25.377 235.877 24.4922C236.721 23.6074 237.813 23.165 239.155 23.165ZM244.411 25.292V23.5078H245.747V20.8359H248.226V23.5078H249.781V25.292H248.226V30.3545C248.226 30.7471 248.275 30.9932 248.375 31.0928C248.475 31.1865 248.779 31.2334 249.289 31.2334C249.365 31.2334 249.444 31.2334 249.526 31.2334C249.614 31.2275 249.699 31.2217 249.781 31.2158V33.0879L248.595 33.1318C247.411 33.1729 246.603 32.9678 246.169 32.5166C245.888 32.2295 245.747 31.7871 245.747 31.1895V25.292H244.411Z" fill="#333333"/>
<path d="M74.8086 125.628C74.8086 123.366 75.415 121.623 76.6279 120.398C77.6826 119.332 79.0244 118.799 80.6533 118.799C82.833 118.799 84.4268 119.514 85.4346 120.943C85.9912 121.746 86.29 122.552 86.3311 123.36H83.624C83.4482 122.739 83.2227 122.271 82.9473 121.954C82.4551 121.392 81.7256 121.11 80.7588 121.11C79.7744 121.11 78.998 121.509 78.4297 122.306C77.8613 123.097 77.5771 124.219 77.5771 125.672C77.5771 127.125 77.876 128.215 78.4736 128.941C79.0771 129.662 79.8418 130.022 80.7676 130.022C81.7168 130.022 82.4404 129.712 82.9385 129.091C83.2139 128.757 83.4424 128.256 83.624 127.588H86.3047C86.0703 129 85.4697 130.148 84.5029 131.033C83.542 131.918 82.3086 132.36 80.8027 132.36C78.9395 132.36 77.4746 131.763 76.4082 130.567C75.3418 129.366 74.8086 127.72 74.8086 125.628ZM92.4746 130.233C93.207 130.233 93.7695 129.973 94.1621 129.451C94.5547 128.93 94.751 128.188 94.751 127.228C94.751 126.267 94.5547 125.528 94.1621 125.013C93.7695 124.491 93.207 124.23 92.4746 124.23C91.7422 124.23 91.1768 124.491 90.7783 125.013C90.3857 125.528 90.1895 126.267 90.1895 127.228C90.1895 128.188 90.3857 128.93 90.7783 129.451C91.1768 129.973 91.7422 130.233 92.4746 130.233ZM97.3789 127.228C97.3789 128.634 96.9746 129.838 96.166 130.84C95.3574 131.836 94.1299 132.334 92.4834 132.334C90.8369 132.334 89.6094 131.836 88.8008 130.84C87.9922 129.838 87.5879 128.634 87.5879 127.228C87.5879 125.845 87.9922 124.646 88.8008 123.633C89.6094 122.619 90.8369 122.112 92.4834 122.112C94.1299 122.112 95.3574 122.619 96.166 123.633C96.9746 124.646 97.3789 125.845 97.3789 127.228ZM105.781 127.21C105.781 126.472 105.611 125.818 105.271 125.25C104.938 124.682 104.393 124.397 103.637 124.397C102.729 124.397 102.104 124.828 101.765 125.689C101.589 126.146 101.501 126.727 101.501 127.43C101.501 128.543 101.797 129.325 102.389 129.776C102.74 130.04 103.156 130.172 103.637 130.172C104.334 130.172 104.864 129.902 105.228 129.363C105.597 128.824 105.781 128.106 105.781 127.21ZM104.357 122.209C105.477 122.209 106.423 122.622 107.196 123.448C107.976 124.274 108.365 125.487 108.365 127.087C108.365 128.774 107.984 130.061 107.223 130.945C106.467 131.83 105.491 132.272 104.296 132.272C103.534 132.272 102.901 132.082 102.397 131.701C102.122 131.49 101.853 131.183 101.589 130.778V135.771H99.1104V122.42H101.51V123.835C101.779 123.419 102.066 123.091 102.371 122.851C102.928 122.423 103.59 122.209 104.357 122.209ZM113.964 124.23C113.384 124.23 112.933 124.412 112.61 124.775C112.294 125.139 112.095 125.631 112.013 126.252H115.906C115.865 125.59 115.663 125.089 115.3 124.749C114.942 124.403 114.497 124.23 113.964 124.23ZM113.964 122.165C114.761 122.165 115.479 122.314 116.117 122.613C116.756 122.912 117.283 123.384 117.699 124.028C118.074 124.597 118.317 125.256 118.429 126.006C118.493 126.445 118.52 127.078 118.508 127.904H111.951C111.986 128.865 112.288 129.539 112.856 129.926C113.202 130.166 113.618 130.286 114.104 130.286C114.62 130.286 115.039 130.14 115.361 129.847C115.537 129.688 115.692 129.469 115.827 129.188H118.385C118.32 129.756 118.024 130.333 117.497 130.919C116.677 131.851 115.528 132.316 114.052 132.316C112.833 132.316 111.758 131.924 110.826 131.139C109.895 130.354 109.429 129.076 109.429 127.307C109.429 125.648 109.848 124.377 110.686 123.492C111.529 122.607 112.622 122.165 113.964 122.165ZM125.513 122.191C126.503 122.191 127.312 122.452 127.938 122.974C128.571 123.489 128.888 124.348 128.888 125.549V132H126.321V126.173C126.321 125.669 126.254 125.282 126.119 125.013C125.873 124.521 125.404 124.274 124.713 124.274C123.863 124.274 123.28 124.635 122.964 125.355C122.8 125.736 122.718 126.223 122.718 126.814V132H120.222V122.438H122.639V123.835C122.961 123.343 123.266 122.988 123.553 122.771C124.068 122.385 124.722 122.191 125.513 122.191ZM136.49 127.342C136.332 127.441 136.171 127.523 136.007 127.588C135.849 127.646 135.629 127.702 135.348 127.755L134.785 127.86C134.258 127.954 133.88 128.068 133.651 128.203C133.265 128.432 133.071 128.786 133.071 129.267C133.071 129.694 133.188 130.005 133.423 130.198C133.663 130.386 133.953 130.479 134.293 130.479C134.832 130.479 135.327 130.321 135.778 130.005C136.235 129.688 136.473 129.111 136.49 128.273V127.342ZM134.97 126.173C135.433 126.114 135.764 126.041 135.963 125.953C136.32 125.801 136.499 125.563 136.499 125.241C136.499 124.849 136.361 124.579 136.086 124.433C135.816 124.28 135.418 124.204 134.891 124.204C134.299 124.204 133.88 124.351 133.634 124.644C133.458 124.86 133.341 125.153 133.282 125.522H130.865C130.918 124.685 131.152 123.996 131.568 123.457C132.23 122.613 133.367 122.191 134.979 122.191C136.027 122.191 136.959 122.399 137.773 122.815C138.588 123.231 138.995 124.017 138.995 125.171V129.565C138.995 129.87 139.001 130.239 139.013 130.673C139.03 131.001 139.08 131.224 139.162 131.341C139.244 131.458 139.367 131.555 139.531 131.631V132H136.807C136.73 131.807 136.678 131.625 136.648 131.455C136.619 131.285 136.596 131.092 136.578 130.875C136.232 131.25 135.834 131.569 135.383 131.833C134.844 132.144 134.234 132.299 133.555 132.299C132.688 132.299 131.97 132.053 131.401 131.561C130.839 131.062 130.558 130.359 130.558 129.451C130.558 128.273 131.012 127.421 131.92 126.894C132.418 126.606 133.15 126.401 134.117 126.278L134.97 126.173ZM145.341 129.943C145.927 129.943 146.422 129.724 146.826 129.284C147.23 128.839 147.433 128.133 147.433 127.166C147.433 126.258 147.239 125.566 146.853 125.092C146.472 124.617 145.959 124.38 145.314 124.38C144.436 124.38 143.829 124.793 143.495 125.619C143.319 126.059 143.231 126.601 143.231 127.245C143.231 127.802 143.325 128.297 143.513 128.73C143.853 129.539 144.462 129.943 145.341 129.943ZM144.717 122.191C145.197 122.191 145.616 122.265 145.974 122.411C146.583 122.663 147.075 123.126 147.45 123.8V122.42H149.885V131.508C149.885 132.744 149.677 133.676 149.261 134.303C148.546 135.381 147.175 135.92 145.147 135.92C143.923 135.92 142.924 135.68 142.15 135.199C141.377 134.719 140.949 134.001 140.867 133.046H143.592C143.662 133.339 143.776 133.55 143.935 133.679C144.204 133.907 144.658 134.021 145.297 134.021C146.199 134.021 146.803 133.72 147.107 133.116C147.307 132.729 147.406 132.079 147.406 131.165V130.55C147.166 130.96 146.908 131.268 146.633 131.473C146.135 131.854 145.487 132.044 144.69 132.044C143.46 132.044 142.476 131.613 141.737 130.752C141.005 129.885 140.639 128.713 140.639 127.236C140.639 125.812 140.993 124.617 141.702 123.65C142.411 122.678 143.416 122.191 144.717 122.191ZM157.514 122.174C158.105 122.174 158.642 122.276 159.122 122.481C159.608 122.687 160.007 123 160.317 123.422C160.581 123.779 160.742 124.148 160.801 124.529C160.859 124.904 160.889 125.52 160.889 126.375V132H158.331V126.173C158.331 125.657 158.243 125.241 158.067 124.925C157.839 124.479 157.405 124.257 156.767 124.257C156.104 124.257 155.601 124.479 155.255 124.925C154.915 125.364 154.745 125.994 154.745 126.814V132H152.249V119.089H154.745V123.668C155.108 123.111 155.527 122.725 156.002 122.508C156.482 122.285 156.986 122.174 157.514 122.174ZM167.015 124.23C166.435 124.23 165.983 124.412 165.661 124.775C165.345 125.139 165.146 125.631 165.063 126.252H168.957C168.916 125.59 168.714 125.089 168.351 124.749C167.993 124.403 167.548 124.23 167.015 124.23ZM167.015 122.165C167.812 122.165 168.529 122.314 169.168 122.613C169.807 122.912 170.334 123.384 170.75 124.028C171.125 124.597 171.368 125.256 171.479 126.006C171.544 126.445 171.57 127.078 171.559 127.904H165.002C165.037 128.865 165.339 129.539 165.907 129.926C166.253 130.166 166.669 130.286 167.155 130.286C167.671 130.286 168.09 130.14 168.412 129.847C168.588 129.688 168.743 129.469 168.878 129.188H171.436C171.371 129.756 171.075 130.333 170.548 130.919C169.728 131.851 168.579 132.316 167.103 132.316C165.884 132.316 164.809 131.924 163.877 131.139C162.945 130.354 162.479 129.076 162.479 127.307C162.479 125.648 162.898 124.377 163.736 123.492C164.58 122.607 165.673 122.165 167.015 122.165ZM178.563 122.191C179.554 122.191 180.362 122.452 180.989 122.974C181.622 123.489 181.938 124.348 181.938 125.549V132H179.372V126.173C179.372 125.669 179.305 125.282 179.17 125.013C178.924 124.521 178.455 124.274 177.764 124.274C176.914 124.274 176.331 124.635 176.015 125.355C175.851 125.736 175.769 126.223 175.769 126.814V132H173.272V122.438H175.689V123.835C176.012 123.343 176.316 122.988 176.604 122.771C177.119 122.385 177.772 122.191 178.563 122.191ZM189.453 132V119.045H192.134V123.984H197.196V119.045H199.886V132H197.196V126.217H192.134V132H189.453Z" fill="#333333"/>
<path d="M14.083 33H13.2041V23.3906L10.3037 24.4673V23.647L13.9365 22.2993H14.083V33ZM23.707 29.5649H25.3696V30.3047H23.707V33H22.8281V30.3047H17.811V29.8066L22.7476 22.3359H23.707V29.5649ZM18.8877 29.5649H22.8281V23.4712L22.4399 24.145L18.8877 29.5649ZM26.7026 32.4727C26.7026 32.3018 26.7563 32.1577 26.8638 32.0405C26.9761 31.9185 27.1299 31.8574 27.3252 31.8574C27.5205 31.8574 27.6743 31.9185 27.7866 32.0405C27.8989 32.1577 27.9551 32.3018 27.9551 32.4727C27.9551 32.6436 27.8989 32.7852 27.7866 32.8975C27.6743 33.0049 27.5205 33.0586 27.3252 33.0586C27.1299 33.0586 26.9761 33.0049 26.8638 32.8975C26.7563 32.7852 26.7026 32.6436 26.7026 32.4727ZM36.6636 28.5542C36.6636 30.0581 36.3877 31.2007 35.8359 31.9819C35.2842 32.7583 34.4712 33.1465 33.397 33.1465C32.3423 33.1465 31.5342 32.7656 30.9727 32.0039C30.4111 31.2373 30.123 30.124 30.1084 28.6641V26.7524C30.1084 25.2534 30.3867 24.1182 30.9434 23.3467C31.5 22.5752 32.313 22.1895 33.3823 22.1895C34.437 22.1895 35.2427 22.563 35.7993 23.3101C36.356 24.0522 36.644 25.1484 36.6636 26.5986V28.5542ZM35.7847 26.6426C35.7847 25.4219 35.5845 24.499 35.1841 23.874C34.7886 23.249 34.188 22.9365 33.3823 22.9365C32.5913 22.9365 31.9956 23.2417 31.5952 23.8521C31.1948 24.4624 30.9897 25.3633 30.98 26.5547V28.6494C30.98 29.8652 31.1851 30.7954 31.5952 31.4399C32.0103 32.0845 32.6108 32.4067 33.397 32.4067C34.1782 32.4067 34.769 32.0918 35.1694 31.4619C35.5747 30.832 35.7798 29.9092 35.7847 28.6934V26.6426ZM44.9839 28.5542C44.9839 30.0581 44.708 31.2007 44.1562 31.9819C43.6045 32.7583 42.7915 33.1465 41.7173 33.1465C40.6626 33.1465 39.8545 32.7656 39.293 32.0039C38.7314 31.2373 38.4434 30.124 38.4287 28.6641V26.7524C38.4287 25.2534 38.707 24.1182 39.2637 23.3467C39.8203 22.5752 40.6333 22.1895 41.7026 22.1895C42.7573 22.1895 43.563 22.563 44.1196 23.3101C44.6763 24.0522 44.9644 25.1484 44.9839 26.5986V28.5542ZM44.105 26.6426C44.105 25.4219 43.9048 24.499 43.5044 23.874C43.1089 23.249 42.5083 22.9365 41.7026 22.9365C40.9116 22.9365 40.3159 23.2417 39.9155 23.8521C39.5151 24.4624 39.3101 25.3633 39.3003 26.5547V28.6494C39.3003 29.8652 39.5054 30.7954 39.9155 31.4399C40.3306 32.0845 40.9312 32.4067 41.7173 32.4067C42.4985 32.4067 43.0894 32.0918 43.4897 31.4619C43.895 30.832 44.1001 29.9092 44.105 28.6934V26.6426Z" fill="#333333"/>
<path d="M79.5986 43.958H77.2061L76.6787 47H76.4199L77.6455 39.8906H79.8232C80.2529 39.8939 80.6273 39.9834 80.9463 40.1592C81.2686 40.3317 81.5013 40.5726 81.6445 40.8818C81.7878 41.1911 81.8268 41.5443 81.7617 41.9414C81.6803 42.4232 81.4655 42.8431 81.1172 43.2012C80.7721 43.556 80.3571 43.7871 79.8721 43.8945L81.1855 46.9316L81.1758 47H80.9072L79.5986 43.958ZM77.25 43.6943H79.3398C79.877 43.6943 80.3457 43.5299 80.7461 43.2012C81.1497 42.8724 81.4004 42.4525 81.498 41.9414C81.5957 41.4043 81.4834 40.973 81.1611 40.6475C80.8389 40.3187 80.3669 40.1543 79.7451 40.1543H77.8652L77.25 43.6943ZM83.0312 47H82.7676L83.6758 41.7168H83.9395L83.0312 47ZM83.832 40.0566C83.8418 39.9915 83.876 39.9313 83.9346 39.876C83.9964 39.8206 84.0615 39.793 84.1299 39.793C84.2048 39.793 84.265 39.8223 84.3105 39.8809C84.3594 39.9395 84.3773 40.0046 84.3643 40.0762C84.3545 40.1413 84.3187 40.2015 84.2568 40.2568C84.195 40.3089 84.1299 40.335 84.0615 40.335C83.9867 40.3317 83.9264 40.3024 83.8809 40.2471C83.8353 40.1917 83.819 40.1283 83.832 40.0566ZM88.1924 45.7061C88.3096 45.0941 87.8636 44.6595 86.8545 44.4023L86.3125 44.2461C85.5638 44.002 85.235 43.5706 85.3262 42.9521C85.3848 42.5518 85.5964 42.2295 85.9609 41.9854C86.3255 41.7412 86.7487 41.6191 87.2305 41.6191C87.7611 41.6191 88.1761 41.7559 88.4756 42.0293C88.7751 42.3027 88.902 42.6689 88.8564 43.1279H88.5928C88.6318 42.7568 88.5228 42.4574 88.2656 42.2295C88.0085 41.9984 87.665 41.8828 87.2354 41.8828C86.8187 41.8828 86.4557 41.9788 86.1465 42.1709C85.8372 42.363 85.6517 42.6201 85.5898 42.9424C85.4922 43.46 85.7917 43.8278 86.4883 44.0459L87.2158 44.2559L87.46 44.3389C88.2184 44.6156 88.5505 45.0729 88.4561 45.7109C88.3942 46.1309 88.1761 46.4678 87.8018 46.7217C87.4274 46.9723 86.9798 47.0977 86.459 47.0977C85.9154 47.0977 85.4808 46.9658 85.1553 46.7021C84.8298 46.4352 84.6898 46.0869 84.7354 45.6572H84.9941C84.9779 46.0218 85.0983 46.3099 85.3555 46.5215C85.6159 46.7298 85.9821 46.834 86.4541 46.834C86.9033 46.8242 87.2907 46.7168 87.6162 46.5117C87.9417 46.3034 88.1338 46.0348 88.1924 45.7061ZM89.8623 44.3047C89.9535 43.7741 90.113 43.2988 90.3408 42.8789C90.5719 42.459 90.8503 42.1449 91.1758 41.9365C91.5013 41.7249 91.8561 41.6191 92.2402 41.6191C92.6113 41.6191 92.9336 41.7119 93.207 41.8975C93.4837 42.083 93.6839 42.3467 93.8076 42.6885L94.3643 39.5H94.6279L93.334 47H93.0703L93.2363 46.1553C93.002 46.4515 92.722 46.6826 92.3965 46.8486C92.071 47.0146 91.7161 47.0977 91.332 47.0977C90.987 47.0977 90.6973 47.013 90.4629 46.8438C90.2285 46.6712 90.0544 46.4206 89.9404 46.0918C89.8298 45.7598 89.7809 45.3952 89.7939 44.998C89.8005 44.8125 89.8232 44.5814 89.8623 44.3047ZM90.0625 44.9248C90.0365 45.2829 90.0641 45.6117 90.1455 45.9111C90.2269 46.2106 90.3669 46.4401 90.5654 46.5996C90.7673 46.7559 91.0195 46.834 91.3223 46.834C91.7454 46.8372 92.1247 46.7363 92.46 46.5312C92.7985 46.3262 93.0752 46.0462 93.29 45.6914L93.7295 43.2158C93.6611 42.7926 93.4967 42.4655 93.2363 42.2344C92.9792 42 92.6471 41.8828 92.2402 41.8828C91.8268 41.8828 91.459 42.0212 91.1367 42.2979C90.8145 42.5713 90.5622 42.9521 90.3799 43.4404C90.1976 43.9287 90.0918 44.4235 90.0625 44.9248ZM98.3438 47C98.334 46.7135 98.3649 46.3913 98.4365 46.0332C98.1631 46.3685 97.8376 46.6305 97.46 46.8193C97.0856 47.0081 96.6787 47.1009 96.2393 47.0977C95.7965 47.0977 95.4434 46.9609 95.1797 46.6875C94.916 46.4141 94.8167 46.0723 94.8818 45.6621C94.9632 45.1641 95.2383 44.7751 95.707 44.4951C96.179 44.2152 96.7764 44.0671 97.499 44.0508H98.7539L98.8955 43.2793C98.9639 42.8464 98.8776 42.5062 98.6367 42.2588C98.3958 42.0081 98.0492 41.8828 97.5967 41.8828C97.154 41.8828 96.7536 42.0016 96.3955 42.2393C96.0374 42.4736 95.8128 42.7829 95.7217 43.167L95.458 43.1572C95.5492 42.7048 95.7998 42.3353 96.21 42.0488C96.6201 41.7624 97.0824 41.6191 97.5967 41.6191C98.1338 41.6191 98.5456 41.7721 98.832 42.0781C99.1185 42.3809 99.2243 42.7845 99.1494 43.2891L98.666 46.1113L98.6318 46.4434C98.6156 46.6159 98.6221 46.7868 98.6514 46.9561L98.6465 47H98.3438ZM96.2344 46.8389C96.6706 46.8454 97.0856 46.7412 97.4795 46.5264C97.8734 46.3083 98.2087 45.9909 98.4854 45.5742L98.71 44.3193H97.5283C96.8708 44.3324 96.3271 44.4593 95.8975 44.7002C95.471 44.9378 95.2188 45.265 95.1406 45.6816C95.082 46.0039 95.1585 46.2757 95.3701 46.4971C95.585 46.7184 95.873 46.8324 96.2344 46.8389ZM100.492 47H100.229L101.518 39.5H101.781L100.492 47ZM105.653 45.7061C105.771 45.0941 105.325 44.6595 104.315 44.4023L103.773 44.2461C103.025 44.002 102.696 43.5706 102.787 42.9521C102.846 42.5518 103.057 42.2295 103.422 41.9854C103.786 41.7412 104.21 41.6191 104.691 41.6191C105.222 41.6191 105.637 41.7559 105.937 42.0293C106.236 42.3027 106.363 42.6689 106.317 43.1279H106.054C106.093 42.7568 105.984 42.4574 105.727 42.2295C105.469 41.9984 105.126 41.8828 104.696 41.8828C104.28 41.8828 103.917 41.9788 103.607 42.1709C103.298 42.363 103.113 42.6201 103.051 42.9424C102.953 43.46 103.253 43.8278 103.949 44.0459L104.677 44.2559L104.921 44.3389C105.679 44.6156 106.011 45.0729 105.917 45.7109C105.855 46.1309 105.637 46.4678 105.263 46.7217C104.888 46.9723 104.441 47.0977 103.92 47.0977C103.376 47.0977 102.942 46.9658 102.616 46.7021C102.291 46.4352 102.151 46.0869 102.196 45.6572H102.455C102.439 46.0218 102.559 46.3099 102.816 46.5215C103.077 46.7298 103.443 46.834 103.915 46.834C104.364 46.8242 104.752 46.7168 105.077 46.5117C105.403 46.3034 105.595 46.0348 105.653 45.7061ZM108.7 46.5703L111.303 41.7217H111.591L108.783 47H108.524L107.348 41.7119H107.621L108.7 46.5703ZM113.637 47.0977C113.214 47.0977 112.849 46.9788 112.543 46.7412C112.237 46.5036 112.016 46.1797 111.879 45.7695C111.745 45.3561 111.711 44.9232 111.776 44.4707L111.815 44.2266C111.894 43.7513 112.06 43.307 112.313 42.8936C112.571 42.4801 112.875 42.1644 113.227 41.9463C113.578 41.7282 113.954 41.6191 114.354 41.6191C114.888 41.6191 115.307 41.8161 115.609 42.21C115.912 42.6038 116.041 43.1084 115.995 43.7236L115.98 43.875L115.937 44.1826H112.099L112.045 44.4707C111.999 44.7441 111.998 45.0208 112.04 45.3008C112.112 45.7663 112.289 46.139 112.572 46.4189C112.859 46.6956 113.212 46.8356 113.632 46.8389C114.241 46.8454 114.789 46.6045 115.277 46.1162L115.453 46.2529C114.971 46.8161 114.366 47.0977 113.637 47.0977ZM114.354 41.8828C113.853 41.8828 113.404 42.0716 113.007 42.4492C112.613 42.8236 112.32 43.3135 112.128 43.9189H115.692L115.707 43.8555C115.749 43.6211 115.753 43.3867 115.717 43.1523C115.658 42.7682 115.505 42.4606 115.258 42.2295C115.014 41.9984 114.713 41.8828 114.354 41.8828ZM117.89 41.7168L116.879 47.5762C116.794 48.0677 116.609 48.4502 116.322 48.7236C116.036 48.9971 115.686 49.1338 115.272 49.1338C115.149 49.1338 114.993 49.1012 114.804 49.0361L114.853 48.7822C115.006 48.8408 115.147 48.8701 115.277 48.8701C115.609 48.8766 115.897 48.7627 116.142 48.5283C116.386 48.2939 116.542 47.9766 116.61 47.5762L117.626 41.7168H117.89ZM117.807 40.0566C117.816 39.9915 117.851 39.9313 117.909 39.876C117.971 39.8206 118.036 39.793 118.104 39.793C118.179 39.793 118.24 39.8223 118.285 39.8809C118.334 39.9395 118.352 40.0046 118.339 40.0762C118.329 40.1413 118.293 40.2015 118.231 40.2568C118.17 40.3089 118.104 40.335 118.036 40.335C117.961 40.3317 117.901 40.3024 117.855 40.2471C117.81 40.1917 117.794 40.1283 117.807 40.0566ZM122.987 43.2402H123.422C123.985 43.2402 124.47 43.1019 124.877 42.8252C125.284 42.5452 125.53 42.1709 125.614 41.7021C125.699 41.2204 125.609 40.8265 125.346 40.5205C125.082 40.2113 124.703 40.0566 124.208 40.0566C123.7 40.0566 123.256 40.2129 122.875 40.5254C122.497 40.8346 122.255 41.2448 122.147 41.7559L121.884 41.751C121.985 41.1715 122.253 40.7012 122.689 40.3398C123.126 39.9753 123.632 39.793 124.208 39.793C124.774 39.793 125.215 39.9736 125.531 40.335C125.847 40.693 125.963 41.1553 125.878 41.7217C125.826 42.0895 125.665 42.4183 125.395 42.708C125.128 42.9977 124.773 43.2174 124.33 43.3672C124.75 43.4844 125.066 43.6992 125.277 44.0117C125.492 44.321 125.567 44.6888 125.502 45.1152C125.414 45.6979 125.152 46.1748 124.716 46.5459C124.28 46.9137 123.759 47.0977 123.153 47.0977C122.753 47.0977 122.395 47.0098 122.079 46.834C121.767 46.6582 121.534 46.4108 121.381 46.0918C121.228 45.7695 121.174 45.4131 121.22 45.0225H121.483C121.415 45.5368 121.54 45.9681 121.859 46.3164C122.178 46.6615 122.608 46.834 123.148 46.834C123.692 46.834 124.153 46.6794 124.53 46.3701C124.911 46.0609 125.146 45.6491 125.233 45.1348C125.318 44.6204 125.199 44.2217 124.877 43.9385C124.558 43.6553 124.068 43.5137 123.407 43.5137H122.953L122.987 43.2402ZM130.102 44.7979H131.288L131.254 45.0615H130.058L129.721 47H129.462L129.794 45.0615L126.454 45.0566L126.474 44.915L130.624 39.8955L130.946 39.8906L130.102 44.7979ZM126.913 44.7979H129.838L130.629 40.2471L130.131 40.8965L126.913 44.7979ZM131.498 48.2451L131.332 48.0791C131.68 47.6885 131.89 47.2881 131.962 46.8779L132.074 46.2236H132.338L132.235 46.8389C132.141 47.3988 131.895 47.8675 131.498 48.2451ZM140.941 41.6973C140.876 42.0846 140.705 42.4248 140.429 42.7178C140.152 43.0075 139.799 43.224 139.369 43.3672C139.779 43.5039 140.092 43.7334 140.307 44.0557C140.525 44.3747 140.603 44.7393 140.541 45.1494C140.45 45.7321 140.17 46.2025 139.701 46.5605C139.232 46.9186 138.676 47.0977 138.031 47.0977C137.618 47.0977 137.253 47.0163 136.938 46.8535C136.625 46.6875 136.397 46.458 136.254 46.165C136.111 45.8688 136.072 45.5303 136.137 45.1494C136.208 44.7262 136.397 44.36 136.703 44.0508C137.009 43.7383 137.41 43.5072 137.904 43.3574C137.543 43.2174 137.274 42.9977 137.099 42.6982C136.926 42.3988 136.869 42.0651 136.928 41.6973C137.016 41.1406 137.274 40.6849 137.704 40.3301C138.134 39.972 138.642 39.793 139.228 39.793C139.595 39.793 139.923 39.876 140.209 40.042C140.499 40.2048 140.707 40.4326 140.834 40.7256C140.964 41.0153 141 41.3392 140.941 41.6973ZM140.268 45.1738C140.326 44.8613 140.294 44.5781 140.17 44.3242C140.049 44.0703 139.851 43.8685 139.574 43.7188C139.298 43.569 138.988 43.4941 138.646 43.4941C138.1 43.4941 137.61 43.6504 137.177 43.9629C136.747 44.2754 136.487 44.679 136.396 45.1738C136.308 45.6654 136.418 46.0658 136.728 46.375C137.04 46.681 137.473 46.834 138.026 46.834C138.586 46.834 139.076 46.681 139.496 46.375C139.919 46.0658 140.176 45.6654 140.268 45.1738ZM140.683 41.6729C140.764 41.2204 140.66 40.8379 140.37 40.5254C140.08 40.2129 139.701 40.0566 139.232 40.0566C138.728 40.0566 138.284 40.2096 137.899 40.5156C137.519 40.8184 137.284 41.2041 137.196 41.6729C137.112 42.1221 137.209 42.4948 137.489 42.791C137.772 43.084 138.157 43.2305 138.642 43.2305C139.136 43.2305 139.577 43.0856 139.965 42.7959C140.355 42.5062 140.595 42.1318 140.683 41.6729ZM145.595 47H141.469L141.498 46.7363L144.687 43.5186C145.325 42.861 145.689 42.2555 145.78 41.7021C145.865 41.2204 145.78 40.8265 145.526 40.5205C145.272 40.2113 144.892 40.0566 144.384 40.0566C143.889 40.0566 143.453 40.2324 143.075 40.584C142.698 40.9323 142.457 41.3701 142.353 41.8975H142.089C142.193 41.292 142.46 40.7907 142.89 40.3936C143.323 39.9932 143.819 39.793 144.379 39.793C144.958 39.793 145.403 39.9688 145.712 40.3203C146.024 40.6686 146.138 41.1292 146.054 41.7021C145.969 42.2848 145.591 42.9294 144.921 43.6357L141.859 46.7363H145.629L145.595 47ZM151.234 39.793L151.2 40.0566C150.282 40.0566 149.507 40.3545 148.876 40.9502C148.244 41.5426 147.799 42.3662 147.538 43.4209C147.746 43.141 147.997 42.9082 148.29 42.7227C148.707 42.459 149.158 42.3271 149.643 42.3271C150.036 42.3271 150.37 42.4297 150.644 42.6348C150.917 42.8398 151.109 43.1198 151.22 43.4746C151.334 43.8294 151.36 44.2233 151.298 44.6562C151.229 45.1055 151.08 45.5221 150.849 45.9062C150.621 46.2904 150.344 46.585 150.019 46.79C149.693 46.9951 149.35 47.0977 148.988 47.0977C148.559 47.0977 148.189 46.9886 147.88 46.7705C147.574 46.5492 147.353 46.2432 147.216 45.8525C147.079 45.4619 147.043 45.0436 147.108 44.5977L147.221 43.8701C147.416 42.6136 147.859 41.6208 148.549 40.8916C149.239 40.1592 150.134 39.793 151.234 39.793ZM149.608 42.5908C149.153 42.5908 148.71 42.7275 148.28 43.001C147.854 43.2712 147.585 43.5934 147.475 43.9678L147.372 44.5928C147.31 44.9997 147.336 45.3789 147.45 45.7305C147.564 46.082 147.753 46.3555 148.017 46.5508C148.28 46.7461 148.603 46.8421 148.983 46.8389C149.381 46.8356 149.745 46.6956 150.077 46.4189C150.412 46.1423 150.673 45.7646 150.858 45.2861C151.044 44.8076 151.107 44.3438 151.049 43.8945C150.993 43.4844 150.839 43.1654 150.585 42.9375C150.331 42.7064 150.006 42.5908 149.608 42.5908ZM154.096 47.0977C153.725 47.0977 153.412 47.0049 153.158 46.8193C152.904 46.6338 152.717 46.3604 152.597 45.999C152.479 45.6344 152.431 45.2194 152.45 44.7539L152.489 44.2852L152.724 42.8984C152.89 41.9316 153.194 41.1715 153.637 40.6182C154.079 40.0648 154.634 39.7881 155.302 39.7881C155.679 39.7881 155.995 39.8825 156.249 40.0713C156.503 40.2568 156.688 40.5335 156.806 40.9014C156.923 41.2692 156.97 41.681 156.947 42.1367L156.898 42.6641L156.659 44.0508C156.49 45.0111 156.184 45.7598 155.741 46.2969C155.299 46.8307 154.75 47.0977 154.096 47.0977ZM156.684 41.5996C156.641 41.0853 156.503 40.6995 156.269 40.4424C156.034 40.182 155.714 40.0518 155.307 40.0518C154.721 40.0518 154.226 40.3024 153.822 40.8037C153.422 41.3018 153.142 42.0098 152.982 42.9277L152.758 44.2461L152.719 44.6611C152.686 45.0648 152.714 45.4375 152.802 45.7793C152.89 46.1211 153.043 46.3831 153.261 46.5654C153.479 46.7445 153.756 46.834 154.091 46.834C154.674 46.834 155.163 46.5882 155.561 46.0967C155.961 45.6019 156.239 44.915 156.396 44.0361L156.601 42.874C156.685 42.3955 156.713 41.9707 156.684 41.5996ZM162.064 46.3066L162.128 46.7217L162.338 46.2871L165.648 39.8955H165.941L162.265 47H161.947L160.468 39.8857H160.746L162.064 46.3066ZM166.127 47H165.863L166.771 41.7168H167.035L166.127 47ZM166.928 40.0566C166.938 39.9915 166.972 39.9313 167.03 39.876C167.092 39.8206 167.157 39.793 167.226 39.793C167.3 39.793 167.361 39.8223 167.406 39.8809C167.455 39.9395 167.473 40.0046 167.46 40.0762C167.45 40.1413 167.414 40.2015 167.353 40.2568C167.291 40.3089 167.226 40.335 167.157 40.335C167.082 40.3317 167.022 40.3024 166.977 40.2471C166.931 40.1917 166.915 40.1283 166.928 40.0566ZM169.853 47.0977C169.488 47.0977 169.164 47.0179 168.881 46.8584C168.601 46.6989 168.393 46.4678 168.256 46.165L168.104 47H167.841L169.135 39.5H169.398L168.832 42.6787C169.076 42.3369 169.361 42.0749 169.687 41.8926C170.015 41.7103 170.368 41.6191 170.746 41.6191C171.088 41.6191 171.379 41.7038 171.62 41.873C171.861 42.0423 172.037 42.2913 172.147 42.6201C172.261 42.9456 172.312 43.307 172.299 43.7041C172.289 43.9124 172.27 44.1126 172.24 44.3047L172.177 44.627C172.007 45.3919 171.718 45.9958 171.308 46.4385C170.897 46.8779 170.412 47.0977 169.853 47.0977ZM171.967 44.3047L172.025 43.7822C172.051 43.4274 172.021 43.0986 171.933 42.7959C171.848 42.4932 171.703 42.2653 171.498 42.1123C171.296 41.9593 171.047 41.8828 170.751 41.8828C170.318 41.8828 169.91 42.013 169.525 42.2734C169.145 42.5339 168.889 42.8561 168.759 43.2402L168.324 45.6621C168.402 46.0397 168.576 46.3294 168.847 46.5312C169.12 46.7331 169.455 46.834 169.853 46.834C170.377 46.834 170.821 46.6191 171.186 46.1895C171.55 45.7565 171.804 45.1624 171.947 44.4072L171.967 44.3047ZM174.779 46.5898L174.828 46.4873L177.431 41.7217H177.729L174.389 47.8887C174.148 48.3444 173.904 48.6634 173.656 48.8457C173.409 49.0312 173.134 49.1273 172.831 49.1338C172.707 49.1338 172.577 49.1159 172.44 49.0801L172.47 48.8311C172.636 48.8604 172.746 48.875 172.802 48.875C173.235 48.875 173.609 48.6341 173.925 48.1523L174.12 47.8301L174.594 46.9463L173.451 41.7119H173.729L174.779 46.5898ZM184.848 39.8906H185.111L184.271 44.7588C184.148 45.4749 183.869 46.0446 183.437 46.4678C183.007 46.8877 182.494 47.0977 181.898 47.0977C181.28 47.0977 180.824 46.9089 180.531 46.5312C180.238 46.1504 180.139 45.654 180.233 45.042H180.497C180.455 45.3024 180.451 45.5417 180.487 45.7598C180.543 46.1081 180.691 46.375 180.932 46.5605C181.176 46.7428 181.496 46.834 181.894 46.834C182.424 46.834 182.882 46.6419 183.266 46.2578C183.65 45.8737 183.896 45.374 184.003 44.7588L184.848 39.8906Z" fill="#707070"/>
<path d="M76.752 146.736H80.2822L80.248 147H76.4346L77.665 139.891H77.9336L76.752 146.736ZM84.584 147L84.75 146.146C84.5189 146.465 84.2389 146.704 83.9102 146.863C83.5814 147.02 83.2201 147.098 82.8262 147.098C82.416 147.098 82.0905 146.989 81.8496 146.771C81.612 146.552 81.4736 146.242 81.4346 145.838C81.4118 145.581 81.4232 145.315 81.4688 145.042L82.04 141.717H82.3037L81.7227 145.081C81.6868 145.302 81.6755 145.517 81.6885 145.726C81.7048 146.077 81.8105 146.351 82.0059 146.546C82.2012 146.738 82.4714 146.834 82.8164 146.834C83.2917 146.834 83.7197 146.705 84.1006 146.448C84.4814 146.188 84.7321 145.849 84.8525 145.433L85.4922 141.717H85.7607L84.8525 147H84.584ZM86.9033 147L87.7627 141.985H86.8838L86.918 141.717H87.8164L87.9385 140.965C88.0264 140.486 88.2103 140.107 88.4902 139.827C88.7702 139.547 89.1201 139.404 89.54 139.397C89.7451 139.397 89.9502 139.427 90.1553 139.485L90.082 139.729C89.877 139.677 89.6963 139.655 89.54 139.661C89.1982 139.668 88.9085 139.791 88.6709 140.032C88.4333 140.27 88.277 140.597 88.2021 141.014L88.0752 141.717H89.4277L89.3887 141.985H88.0312L87.167 147H86.9033ZM91.3564 140.291L91.1123 141.717H92.2695L92.2354 141.985H91.0635L90.3945 145.853L90.375 146.121C90.3652 146.342 90.4108 146.517 90.5117 146.644C90.6126 146.767 90.7656 146.831 90.9707 146.834C91.0618 146.834 91.2393 146.819 91.5029 146.79L91.5127 147.039C91.363 147.078 91.1855 147.098 90.9805 147.098C90.4271 147.098 90.139 146.813 90.1162 146.243C90.1097 146.077 90.1211 145.908 90.1504 145.735L90.7949 141.985H89.8525L89.8916 141.717H90.8438L91.0879 140.291H91.3564ZM93.6855 142.947C93.9492 142.521 94.2601 142.194 94.6182 141.966C94.9762 141.735 95.3457 141.619 95.7266 141.619C96.1302 141.619 96.4476 141.723 96.6787 141.932C96.9098 142.14 97.0433 142.441 97.0791 142.835C97.0986 143.082 97.0856 143.341 97.04 143.611L96.4541 147H96.1904L96.7764 143.611C96.8154 143.383 96.8317 143.159 96.8252 142.938C96.8089 142.592 96.7064 142.329 96.5176 142.146C96.332 141.964 96.0651 141.875 95.7168 141.878C95.2708 141.884 94.8411 142.059 94.4277 142.4C94.0176 142.739 93.7393 143.144 93.5928 143.616L93.0068 147H92.7432L94.0371 139.5H94.3008L93.6855 142.947ZM101.459 147C101.449 146.714 101.48 146.391 101.552 146.033C101.278 146.368 100.953 146.631 100.575 146.819C100.201 147.008 99.7939 147.101 99.3545 147.098C98.9118 147.098 98.5586 146.961 98.2949 146.688C98.0312 146.414 97.932 146.072 97.9971 145.662C98.0785 145.164 98.3535 144.775 98.8223 144.495C99.2943 144.215 99.8916 144.067 100.614 144.051H101.869L102.011 143.279C102.079 142.846 101.993 142.506 101.752 142.259C101.511 142.008 101.164 141.883 100.712 141.883C100.269 141.883 99.8688 142.002 99.5107 142.239C99.1527 142.474 98.9281 142.783 98.8369 143.167L98.5732 143.157C98.6644 142.705 98.915 142.335 99.3252 142.049C99.7354 141.762 100.198 141.619 100.712 141.619C101.249 141.619 101.661 141.772 101.947 142.078C102.234 142.381 102.34 142.785 102.265 143.289L101.781 146.111L101.747 146.443C101.731 146.616 101.737 146.787 101.767 146.956L101.762 147H101.459ZM99.3496 146.839C99.7858 146.845 100.201 146.741 100.595 146.526C100.989 146.308 101.324 145.991 101.601 145.574L101.825 144.319H100.644C99.986 144.332 99.4424 144.459 99.0127 144.7C98.5863 144.938 98.334 145.265 98.2559 145.682C98.1973 146.004 98.2738 146.276 98.4854 146.497C98.7002 146.718 98.9883 146.832 99.3496 146.839ZM104.813 146.57L107.416 141.722H107.704L104.896 147H104.638L103.461 141.712H103.734L104.813 146.57ZM108.832 142.947C109.096 142.521 109.407 142.194 109.765 141.966C110.123 141.735 110.492 141.619 110.873 141.619C111.277 141.619 111.594 141.723 111.825 141.932C112.056 142.14 112.19 142.441 112.226 142.835C112.245 143.082 112.232 143.341 112.187 143.611L111.601 147H111.337L111.923 143.611C111.962 143.383 111.978 143.159 111.972 142.938C111.955 142.592 111.853 142.329 111.664 142.146C111.479 141.964 111.212 141.875 110.863 141.878C110.417 141.884 109.988 142.059 109.574 142.4C109.164 142.739 108.886 143.144 108.739 143.616L108.153 147H107.89L108.798 141.717H109.062L108.832 142.947ZM116.688 145.706C116.806 145.094 116.36 144.66 115.351 144.402L114.809 144.246C114.06 144.002 113.731 143.571 113.822 142.952C113.881 142.552 114.092 142.229 114.457 141.985C114.822 141.741 115.245 141.619 115.727 141.619C116.257 141.619 116.672 141.756 116.972 142.029C117.271 142.303 117.398 142.669 117.353 143.128H117.089C117.128 142.757 117.019 142.457 116.762 142.229C116.505 141.998 116.161 141.883 115.731 141.883C115.315 141.883 114.952 141.979 114.643 142.171C114.333 142.363 114.148 142.62 114.086 142.942C113.988 143.46 114.288 143.828 114.984 144.046L115.712 144.256L115.956 144.339C116.715 144.616 117.047 145.073 116.952 145.711C116.89 146.131 116.672 146.468 116.298 146.722C115.924 146.972 115.476 147.098 114.955 147.098C114.411 147.098 113.977 146.966 113.651 146.702C113.326 146.435 113.186 146.087 113.231 145.657H113.49C113.474 146.022 113.594 146.31 113.852 146.521C114.112 146.73 114.478 146.834 114.95 146.834C115.399 146.824 115.787 146.717 116.112 146.512C116.438 146.303 116.63 146.035 116.688 145.706ZM120.126 147.098C119.761 147.098 119.438 147.018 119.154 146.858C118.874 146.699 118.666 146.468 118.529 146.165L118.378 147H118.114L119.408 139.5H119.672L119.105 142.679C119.35 142.337 119.634 142.075 119.96 141.893C120.289 141.71 120.642 141.619 121.02 141.619C121.361 141.619 121.653 141.704 121.894 141.873C122.134 142.042 122.31 142.291 122.421 142.62C122.535 142.946 122.585 143.307 122.572 143.704C122.562 143.912 122.543 144.113 122.514 144.305L122.45 144.627C122.281 145.392 121.991 145.996 121.581 146.438C121.171 146.878 120.686 147.098 120.126 147.098ZM122.24 144.305L122.299 143.782C122.325 143.427 122.294 143.099 122.206 142.796C122.121 142.493 121.977 142.265 121.771 142.112C121.57 141.959 121.321 141.883 121.024 141.883C120.591 141.883 120.183 142.013 119.799 142.273C119.418 142.534 119.162 142.856 119.032 143.24L118.598 145.662C118.676 146.04 118.85 146.329 119.12 146.531C119.394 146.733 119.729 146.834 120.126 146.834C120.65 146.834 121.094 146.619 121.459 146.189C121.824 145.757 122.077 145.162 122.221 144.407L122.24 144.305ZM123.568 144.256C123.65 143.764 123.814 143.317 124.062 142.913C124.309 142.509 124.618 142.194 124.989 141.966C125.36 141.735 125.766 141.619 126.205 141.619C126.563 141.619 126.881 141.699 127.157 141.858C127.434 142.018 127.654 142.256 127.816 142.571C127.979 142.884 128.072 143.23 128.095 143.611C128.104 143.833 128.085 144.116 128.036 144.461C127.955 144.952 127.789 145.402 127.538 145.809C127.291 146.215 126.981 146.533 126.61 146.761C126.243 146.985 125.84 147.098 125.404 147.098C125.043 147.098 124.724 147.018 124.447 146.858C124.174 146.696 123.954 146.46 123.788 146.15C123.625 145.838 123.534 145.488 123.515 145.101C123.502 144.882 123.52 144.601 123.568 144.256ZM123.798 145.301C123.863 145.773 124.037 146.147 124.32 146.424C124.604 146.697 124.963 146.834 125.399 146.834C125.91 146.834 126.371 146.655 126.781 146.297C127.195 145.939 127.493 145.455 127.675 144.847C127.825 144.342 127.868 143.865 127.807 143.416C127.735 142.944 127.558 142.571 127.274 142.298C126.994 142.021 126.64 141.883 126.21 141.883C125.699 141.883 125.237 142.065 124.823 142.43C124.41 142.791 124.112 143.271 123.93 143.87C123.78 144.368 123.736 144.845 123.798 145.301ZM132.309 147L132.475 146.146C132.243 146.465 131.964 146.704 131.635 146.863C131.306 147.02 130.945 147.098 130.551 147.098C130.141 147.098 129.815 146.989 129.574 146.771C129.337 146.552 129.198 146.242 129.159 145.838C129.136 145.581 129.148 145.315 129.193 145.042L129.765 141.717H130.028L129.447 145.081C129.411 145.302 129.4 145.517 129.413 145.726C129.429 146.077 129.535 146.351 129.73 146.546C129.926 146.738 130.196 146.834 130.541 146.834C131.016 146.834 131.444 146.705 131.825 146.448C132.206 146.188 132.457 145.849 132.577 145.433L133.217 141.717H133.485L132.577 147H132.309ZM134.564 147H134.301L135.59 139.5H135.854L134.564 147ZM138.217 147.098C137.794 147.098 137.429 146.979 137.123 146.741C136.817 146.504 136.596 146.18 136.459 145.77C136.326 145.356 136.291 144.923 136.356 144.471L136.396 144.227C136.474 143.751 136.64 143.307 136.894 142.894C137.151 142.48 137.455 142.164 137.807 141.946C138.158 141.728 138.534 141.619 138.935 141.619C139.468 141.619 139.887 141.816 140.189 142.21C140.492 142.604 140.621 143.108 140.575 143.724L140.561 143.875L140.517 144.183H136.679L136.625 144.471C136.579 144.744 136.578 145.021 136.62 145.301C136.692 145.766 136.869 146.139 137.152 146.419C137.439 146.696 137.792 146.836 138.212 146.839C138.821 146.845 139.369 146.604 139.857 146.116L140.033 146.253C139.551 146.816 138.946 147.098 138.217 147.098ZM138.935 141.883C138.433 141.883 137.984 142.072 137.587 142.449C137.193 142.824 136.9 143.313 136.708 143.919H140.272L140.287 143.855C140.329 143.621 140.333 143.387 140.297 143.152C140.238 142.768 140.085 142.461 139.838 142.229C139.594 141.998 139.293 141.883 138.935 141.883ZM142.772 146.57L145.375 141.722H145.663L142.855 147H142.597L141.42 141.712H141.693L142.772 146.57ZM149.125 147C149.115 146.714 149.146 146.391 149.218 146.033C148.944 146.368 148.619 146.631 148.241 146.819C147.867 147.008 147.46 147.101 147.021 147.098C146.578 147.098 146.225 146.961 145.961 146.688C145.697 146.414 145.598 146.072 145.663 145.662C145.744 145.164 146.02 144.775 146.488 144.495C146.96 144.215 147.558 144.067 148.28 144.051H149.535L149.677 143.279C149.745 142.846 149.659 142.506 149.418 142.259C149.177 142.008 148.83 141.883 148.378 141.883C147.935 141.883 147.535 142.002 147.177 142.239C146.819 142.474 146.594 142.783 146.503 143.167L146.239 143.157C146.33 142.705 146.581 142.335 146.991 142.049C147.401 141.762 147.864 141.619 148.378 141.619C148.915 141.619 149.327 141.772 149.613 142.078C149.9 142.381 150.006 142.785 149.931 143.289L149.447 146.111L149.413 146.443C149.397 146.616 149.403 146.787 149.433 146.956L149.428 147H149.125ZM147.016 146.839C147.452 146.845 147.867 146.741 148.261 146.526C148.655 146.308 148.99 145.991 149.267 145.574L149.491 144.319H148.31C147.652 144.332 147.108 144.459 146.679 144.7C146.252 144.938 146 145.265 145.922 145.682C145.863 146.004 145.94 146.276 146.151 146.497C146.366 146.718 146.654 146.832 147.016 146.839ZM154.096 141.902L153.778 141.878C153.342 141.878 152.937 142.039 152.562 142.361C152.188 142.684 151.938 143.076 151.811 143.538L151.21 147H150.946L151.854 141.717H152.118L151.913 142.815C152.134 142.438 152.405 142.145 152.724 141.937C153.043 141.725 153.397 141.619 153.788 141.619C153.912 141.619 154.035 141.639 154.159 141.678L154.096 141.902ZM154.374 144.305C154.465 143.774 154.625 143.299 154.853 142.879C155.084 142.459 155.362 142.145 155.688 141.937C156.013 141.725 156.368 141.619 156.752 141.619C157.123 141.619 157.445 141.712 157.719 141.897C157.995 142.083 158.196 142.347 158.319 142.688L158.876 139.5H159.14L157.846 147H157.582L157.748 146.155C157.514 146.451 157.234 146.683 156.908 146.849C156.583 147.015 156.228 147.098 155.844 147.098C155.499 147.098 155.209 147.013 154.975 146.844C154.74 146.671 154.566 146.421 154.452 146.092C154.341 145.76 154.293 145.395 154.306 144.998C154.312 144.812 154.335 144.581 154.374 144.305ZM154.574 144.925C154.548 145.283 154.576 145.612 154.657 145.911C154.739 146.211 154.879 146.44 155.077 146.6C155.279 146.756 155.531 146.834 155.834 146.834C156.257 146.837 156.636 146.736 156.972 146.531C157.31 146.326 157.587 146.046 157.802 145.691L158.241 143.216C158.173 142.793 158.008 142.465 157.748 142.234C157.491 142 157.159 141.883 156.752 141.883C156.339 141.883 155.971 142.021 155.648 142.298C155.326 142.571 155.074 142.952 154.892 143.44C154.709 143.929 154.604 144.424 154.574 144.925ZM161.43 147.098C161.007 147.098 160.642 146.979 160.336 146.741C160.03 146.504 159.809 146.18 159.672 145.77C159.538 145.356 159.504 144.923 159.569 144.471L159.608 144.227C159.687 143.751 159.853 143.307 160.106 142.894C160.364 142.48 160.668 142.164 161.02 141.946C161.371 141.728 161.747 141.619 162.147 141.619C162.681 141.619 163.1 141.816 163.402 142.21C163.705 142.604 163.834 143.108 163.788 143.724L163.773 143.875L163.729 144.183H159.892L159.838 144.471C159.792 144.744 159.791 145.021 159.833 145.301C159.905 145.766 160.082 146.139 160.365 146.419C160.652 146.696 161.005 146.836 161.425 146.839C162.034 146.845 162.582 146.604 163.07 146.116L163.246 146.253C162.764 146.816 162.159 147.098 161.43 147.098ZM162.147 141.883C161.646 141.883 161.197 142.072 160.8 142.449C160.406 142.824 160.113 143.313 159.921 143.919H163.485L163.5 143.855C163.542 143.621 163.546 143.387 163.51 143.152C163.451 142.768 163.298 142.461 163.051 142.229C162.807 141.998 162.506 141.883 162.147 141.883ZM165.385 142.947C165.648 142.521 165.959 142.194 166.317 141.966C166.675 141.735 167.045 141.619 167.426 141.619C167.829 141.619 168.147 141.723 168.378 141.932C168.609 142.14 168.743 142.441 168.778 142.835C168.798 143.082 168.785 143.341 168.739 143.611L168.153 147H167.89L168.476 143.611C168.515 143.383 168.531 143.159 168.524 142.938C168.508 142.592 168.406 142.329 168.217 142.146C168.031 141.964 167.764 141.875 167.416 141.878C166.97 141.884 166.54 142.059 166.127 142.4C165.717 142.739 165.438 143.144 165.292 143.616L164.706 147H164.442L165.351 141.717H165.614L165.385 142.947ZM176.547 139.793L176.513 140.057C175.595 140.057 174.82 140.354 174.188 140.95C173.557 141.543 173.111 142.366 172.851 143.421C173.059 143.141 173.31 142.908 173.603 142.723C174.019 142.459 174.47 142.327 174.955 142.327C175.349 142.327 175.683 142.43 175.956 142.635C176.229 142.84 176.422 143.12 176.532 143.475C176.646 143.829 176.672 144.223 176.61 144.656C176.542 145.105 176.392 145.522 176.161 145.906C175.933 146.29 175.657 146.585 175.331 146.79C175.006 146.995 174.662 147.098 174.301 147.098C173.871 147.098 173.502 146.989 173.192 146.771C172.886 146.549 172.665 146.243 172.528 145.853C172.392 145.462 172.356 145.044 172.421 144.598L172.533 143.87C172.729 142.614 173.171 141.621 173.861 140.892C174.551 140.159 175.447 139.793 176.547 139.793ZM174.921 142.591C174.465 142.591 174.022 142.728 173.593 143.001C173.166 143.271 172.898 143.593 172.787 143.968L172.685 144.593C172.623 145 172.649 145.379 172.763 145.73C172.877 146.082 173.065 146.355 173.329 146.551C173.593 146.746 173.915 146.842 174.296 146.839C174.693 146.836 175.058 146.696 175.39 146.419C175.725 146.142 175.985 145.765 176.171 145.286C176.356 144.808 176.42 144.344 176.361 143.895C176.306 143.484 176.151 143.165 175.897 142.938C175.644 142.706 175.318 142.591 174.921 142.591ZM177.133 148.245L176.967 148.079C177.315 147.688 177.525 147.288 177.597 146.878L177.709 146.224H177.973L177.87 146.839C177.776 147.399 177.53 147.868 177.133 148.245ZM185.868 147H181.742L181.771 146.736L184.96 143.519C185.598 142.861 185.963 142.256 186.054 141.702C186.138 141.22 186.054 140.826 185.8 140.521C185.546 140.211 185.165 140.057 184.657 140.057C184.162 140.057 183.726 140.232 183.349 140.584C182.971 140.932 182.73 141.37 182.626 141.897H182.362C182.466 141.292 182.733 140.791 183.163 140.394C183.596 139.993 184.092 139.793 184.652 139.793C185.232 139.793 185.676 139.969 185.985 140.32C186.298 140.669 186.412 141.129 186.327 141.702C186.243 142.285 185.865 142.929 185.194 143.636L182.133 146.736H185.902L185.868 147ZM192.23 140.057L188.119 147H187.846L191.908 140.154H187.807L187.841 139.891H192.25L192.23 140.057ZM197.592 140.057L193.48 147H193.207L197.27 140.154H193.168L193.202 139.891H197.611L197.592 140.057ZM199.73 147.098C199.359 147.098 199.047 147.005 198.793 146.819C198.539 146.634 198.352 146.36 198.231 145.999C198.114 145.634 198.065 145.219 198.085 144.754L198.124 144.285L198.358 142.898C198.524 141.932 198.829 141.172 199.271 140.618C199.714 140.065 200.269 139.788 200.937 139.788C201.314 139.788 201.63 139.882 201.884 140.071C202.138 140.257 202.323 140.534 202.44 140.901C202.558 141.269 202.605 141.681 202.582 142.137L202.533 142.664L202.294 144.051C202.125 145.011 201.819 145.76 201.376 146.297C200.933 146.831 200.385 147.098 199.73 147.098ZM202.318 141.6C202.276 141.085 202.138 140.7 201.903 140.442C201.669 140.182 201.348 140.052 200.941 140.052C200.355 140.052 199.861 140.302 199.457 140.804C199.057 141.302 198.777 142.01 198.617 142.928L198.393 144.246L198.354 144.661C198.321 145.065 198.349 145.438 198.437 145.779C198.524 146.121 198.677 146.383 198.896 146.565C199.114 146.744 199.39 146.834 199.726 146.834C200.308 146.834 200.798 146.588 201.195 146.097C201.596 145.602 201.874 144.915 202.03 144.036L202.235 142.874C202.32 142.396 202.348 141.971 202.318 141.6ZM207.753 143.265L206.449 144.324L205.99 147H205.727L206.952 139.891H207.216L206.508 143.973L207.816 142.859L211.195 139.891L211.605 139.896L207.953 143.099L210.595 147H210.272L207.753 143.265ZM215.16 147C215.15 146.714 215.181 146.391 215.253 146.033C214.979 146.368 214.654 146.631 214.276 146.819C213.902 147.008 213.495 147.101 213.056 147.098C212.613 147.098 212.26 146.961 211.996 146.688C211.732 146.414 211.633 146.072 211.698 145.662C211.78 145.164 212.055 144.775 212.523 144.495C212.995 144.215 213.593 144.067 214.315 144.051H215.57L215.712 143.279C215.78 142.846 215.694 142.506 215.453 142.259C215.212 142.008 214.866 141.883 214.413 141.883C213.97 141.883 213.57 142.002 213.212 142.239C212.854 142.474 212.629 142.783 212.538 143.167L212.274 143.157C212.366 142.705 212.616 142.335 213.026 142.049C213.437 141.762 213.899 141.619 214.413 141.619C214.95 141.619 215.362 141.772 215.648 142.078C215.935 142.381 216.041 142.785 215.966 143.289L215.482 146.111L215.448 146.443C215.432 146.616 215.438 146.787 215.468 146.956L215.463 147H215.16ZM213.051 146.839C213.487 146.845 213.902 146.741 214.296 146.526C214.69 146.308 215.025 145.991 215.302 145.574L215.526 144.319H214.345C213.687 144.332 213.144 144.459 212.714 144.7C212.287 144.938 212.035 145.265 211.957 145.682C211.898 146.004 211.975 146.276 212.187 146.497C212.401 146.718 212.689 146.832 213.051 146.839ZM220.419 145.706C220.536 145.094 220.09 144.66 219.081 144.402L218.539 144.246C217.79 144.002 217.462 143.571 217.553 142.952C217.611 142.552 217.823 142.229 218.188 141.985C218.552 141.741 218.975 141.619 219.457 141.619C219.988 141.619 220.403 141.756 220.702 142.029C221.002 142.303 221.129 142.669 221.083 143.128H220.819C220.858 142.757 220.749 142.457 220.492 142.229C220.235 141.998 219.892 141.883 219.462 141.883C219.045 141.883 218.682 141.979 218.373 142.171C218.064 142.363 217.878 142.62 217.816 142.942C217.719 143.46 218.018 143.828 218.715 144.046L219.442 144.256L219.687 144.339C220.445 144.616 220.777 145.073 220.683 145.711C220.621 146.131 220.403 146.468 220.028 146.722C219.654 146.972 219.206 147.098 218.686 147.098C218.142 147.098 217.707 146.966 217.382 146.702C217.056 146.435 216.916 146.087 216.962 145.657H217.221C217.204 146.022 217.325 146.31 217.582 146.521C217.842 146.73 218.209 146.834 218.681 146.834C219.13 146.824 219.517 146.717 219.843 146.512C220.168 146.303 220.36 146.035 220.419 145.706ZM223.593 140.291L223.349 141.717H224.506L224.472 141.985H223.3L222.631 145.853L222.611 146.121C222.602 146.342 222.647 146.517 222.748 146.644C222.849 146.767 223.002 146.831 223.207 146.834C223.298 146.834 223.476 146.819 223.739 146.79L223.749 147.039C223.599 147.078 223.422 147.098 223.217 147.098C222.663 147.098 222.375 146.813 222.353 146.243C222.346 146.077 222.357 145.908 222.387 145.735L223.031 141.985H222.089L222.128 141.717H223.08L223.324 140.291H223.593ZM228.129 141.902L227.812 141.878C227.375 141.878 226.97 142.039 226.596 142.361C226.221 142.684 225.971 143.076 225.844 143.538L225.243 147H224.979L225.888 141.717H226.151L225.946 142.815C226.168 142.438 226.438 142.145 226.757 141.937C227.076 141.725 227.431 141.619 227.821 141.619C227.945 141.619 228.069 141.639 228.192 141.678L228.129 141.902ZM231.703 147L231.869 146.146C231.638 146.465 231.358 146.704 231.029 146.863C230.701 147.02 230.339 147.098 229.945 147.098C229.535 147.098 229.21 146.989 228.969 146.771C228.731 146.552 228.593 146.242 228.554 145.838C228.531 145.581 228.542 145.315 228.588 145.042L229.159 141.717H229.423L228.842 145.081C228.806 145.302 228.795 145.517 228.808 145.726C228.824 146.077 228.93 146.351 229.125 146.546C229.32 146.738 229.59 146.834 229.936 146.834C230.411 146.834 230.839 146.705 231.22 146.448C231.601 146.188 231.851 145.849 231.972 145.433L232.611 141.717H232.88L231.972 147H231.703ZM235.634 147.098C235.259 147.098 234.932 147.016 234.652 146.854C234.372 146.691 234.167 146.466 234.037 146.18L233.534 149.031H233.271L234.53 141.717H234.794L234.613 142.659C234.844 142.347 235.121 142.096 235.443 141.907C235.769 141.715 236.13 141.619 236.527 141.619C236.869 141.619 237.16 141.704 237.401 141.873C237.642 142.042 237.818 142.291 237.929 142.62C238.043 142.946 238.093 143.307 238.08 143.704C238.07 143.912 238.051 144.113 238.021 144.305L237.958 144.627C237.789 145.392 237.499 145.996 237.089 146.438C236.679 146.878 236.194 147.098 235.634 147.098ZM237.753 144.305L237.812 143.782C237.844 143.164 237.748 142.693 237.523 142.371C237.299 142.046 236.968 141.883 236.532 141.883C236.103 141.883 235.696 142.011 235.312 142.269C234.931 142.522 234.675 142.838 234.545 143.216L234.105 145.687C234.18 146.054 234.354 146.338 234.628 146.536C234.905 146.735 235.24 146.834 235.634 146.834C236.161 146.834 236.607 146.619 236.972 146.189C237.336 145.757 237.592 145.156 237.738 144.388L237.753 144.305Z" fill="#707070"/>
<path d="M14.083 131H13.2041V121.391L10.3037 122.467V121.647L13.9365 120.299H14.083V131ZM24.8936 120.841L20.3379 131H19.4224L23.9487 121.083H17.8843V120.336H24.8936V120.841ZM26.7026 130.473C26.7026 130.302 26.7563 130.158 26.8638 130.041C26.9761 129.918 27.1299 129.857 27.3252 129.857C27.5205 129.857 27.6743 129.918 27.7866 130.041C27.8989 130.158 27.9551 130.302 27.9551 130.473C27.9551 130.644 27.8989 130.785 27.7866 130.897C27.6743 131.005 27.5205 131.059 27.3252 131.059C27.1299 131.059 26.9761 131.005 26.8638 130.897C26.7563 130.785 26.7026 130.644 26.7026 130.473ZM35.6162 127.565H37.2788V128.305H35.6162V131H34.7373V128.305H29.7202V127.807L34.6567 120.336H35.6162V127.565ZM30.7969 127.565H34.7373V121.471L34.3491 122.145L30.7969 127.565ZM39.1465 125.536L39.6665 120.336H44.9985V121.149H40.4209L40.0474 124.752C40.6187 124.362 41.2876 124.167 42.0542 124.167C43.0161 124.167 43.7827 124.479 44.354 125.104C44.9253 125.729 45.2109 126.562 45.2109 127.602C45.2109 128.725 44.9326 129.596 44.376 130.216C43.8193 130.836 43.0356 131.146 42.0249 131.146C41.0972 131.146 40.3452 130.888 39.769 130.37C39.1929 129.853 38.8633 129.127 38.7803 128.195H39.6226C39.7056 128.922 39.9521 129.474 40.3623 129.85C40.7725 130.221 41.3267 130.407 42.0249 130.407C42.7866 130.407 43.3604 130.165 43.7461 129.682C44.1367 129.198 44.332 128.51 44.332 127.616C44.332 126.835 44.1147 126.198 43.6802 125.705C43.2456 125.211 42.6523 124.965 41.9004 124.965C41.4854 124.965 41.124 125.019 40.8164 125.126C40.5088 125.229 40.1841 125.431 39.8423 125.734L39.1465 125.536Z" fill="#333333"/>
<circle cx="59" cy="27" r="3" fill="#B32B32"/>
<g clip-path="url(#clip0)">
<path d="M82.7481 97.6415C82.2524 97.6415 81.8506 97.2397 81.8506 96.7439V95.8464H83.6457V96.7439C83.6457 97.2397 83.2439 97.6415 82.7481 97.6415Z" fill="#4980A8"/>
<path d="M95.4615 97.6415C94.9658 97.6415 94.564 97.2397 94.564 96.7439V95.8464H96.3591V96.7439C96.3591 97.2397 95.9572 97.6415 95.4615 97.6415Z" fill="#4980A8"/>
<path d="M99.0992 95.7709C99.0992 95.1187 98.8401 94.4933 98.3789 94.0319L94.2959 89.949C92.932 88.5852 91.0821 87.8189 89.1534 87.8189H79.4038V95.8464H99.0238C99.0484 95.8464 99.0727 95.8451 99.0973 95.8444C99.098 95.82 99.0992 95.7957 99.0992 95.7709Z" fill="#4980A8"/>
<path d="M97.9603 88.8457H91.7058C91.0118 88.8457 90.4492 89.4083 90.4492 90.1021C90.4492 90.7962 91.0118 91.3587 91.7058 91.3587H100.473L97.9603 88.8457Z" fill="white"/>
<path d="M79.4038 88.8457H86.4046C87.0986 88.8457 87.6612 89.4083 87.6612 90.1021C87.6612 90.7962 87.0986 91.3587 86.4046 91.3587H79.4038" fill="white"/>
<path d="M101.506 97.1926H96.7303C96.7801 97.0522 96.8075 96.9013 96.8075 96.7439V96.2952H99.0238C100.627 96.2952 101.932 94.9906 101.932 93.3871C101.932 92.6104 101.629 91.8801 101.08 91.3308L100.791 91.0415L98.2776 88.5283H98.2775L96.9972 87.2478C95.5388 85.7895 93.5998 84.9863 91.5372 84.9863H79.4038C79.156 84.9863 78.9551 85.1872 78.9551 85.435C78.9551 85.683 79.156 85.8839 79.4038 85.8839H91.5371C93.3599 85.8839 95.0736 86.5937 96.3623 87.8825L96.8768 88.3969H91.7057C90.7653 88.3969 90.0004 89.1619 90.0004 90.1021C90.0004 91.0425 90.7653 91.8076 91.7057 91.8076H100.287L100.445 91.9655C100.825 92.3453 101.034 92.8501 101.034 93.3872C101.034 94.4957 100.132 95.3977 99.0238 95.3977H79.4038C79.156 95.3977 78.9551 95.5986 78.9551 95.8464C78.9551 96.0943 79.156 96.2952 79.4038 96.2952H81.4016V96.7439C81.4016 96.9013 81.4289 97.0522 81.4788 97.1928H79.4269C79.1792 97.1928 78.9782 97.3937 78.9782 97.6415C78.9782 97.8892 79.1792 98.0902 79.4269 98.0902H86.9663C87.214 98.0902 87.415 97.8892 87.415 97.6415C87.415 97.3937 87.214 97.1928 86.9663 97.1928H84.0169C84.0667 97.0522 84.0941 96.9013 84.0941 96.7439V96.2952H94.115V96.7439C94.115 96.9013 94.1424 97.0522 94.1922 97.1928H90.4686C90.2208 97.1928 90.0199 97.3937 90.0199 97.6415C90.0199 97.8892 90.2208 98.0902 90.4686 98.0902H101.506C101.754 98.0902 101.955 97.8892 101.955 97.6415C101.955 97.3937 101.754 97.1926 101.506 97.1926ZM91.7057 90.91C91.2603 90.91 90.8978 90.5477 90.8978 90.1021C90.8978 89.6568 91.2603 89.2944 91.7057 89.2944H97.7744L99.3898 90.91H91.7057ZM83.1967 96.7439C83.1967 96.9913 82.9952 97.1926 82.7478 97.1926C82.5004 97.1926 82.2991 96.9913 82.2991 96.7439V96.2952H83.1967V96.7439ZM95.0124 96.7439V96.2952H95.9099V96.7439C95.9099 96.9913 95.7087 97.1926 95.4612 97.1926C95.2138 97.1926 95.0124 96.9913 95.0124 96.7439Z" fill="#333333"/>
<path d="M88.7164 97.1926C88.5983 97.1926 88.4825 97.2407 88.3992 97.3242C88.3157 97.4076 88.2676 97.5234 88.2676 97.6415C88.2676 97.7594 88.3157 97.8752 88.3992 97.9588C88.4825 98.0421 88.5983 98.0902 88.7164 98.0902C88.8344 98.0902 88.9502 98.0423 89.0337 97.9588C89.1171 97.8752 89.1651 97.7594 89.1651 97.6415C89.1651 97.5234 89.1171 97.4076 89.0337 97.3242C88.9502 97.2407 88.8344 97.1926 88.7164 97.1926Z" fill="#333333"/>
<path d="M86.4046 90.9101H79.4038C79.156 90.9101 78.9551 91.111 78.9551 91.3588C78.9551 91.6065 79.156 91.8076 79.4038 91.8076H86.4046C87.3448 91.8076 88.1098 91.0425 88.1098 90.1022C88.1098 89.162 87.3448 88.3969 86.4046 88.3969H81.1173C80.8695 88.3969 80.6686 88.5978 80.6686 88.8458C80.6686 89.0935 80.8695 89.2945 81.1173 89.2945H86.4046C86.8499 89.2945 87.2123 89.6568 87.2123 90.1022C87.2123 90.5477 86.8499 90.9101 86.4046 90.9101Z" fill="#333333"/>
<path d="M79.4038 88.3969C79.2859 88.3969 79.17 88.445 79.0865 88.5285C79.0032 88.6119 78.9551 88.7277 78.9551 88.8458C78.9551 88.9637 79.0032 89.0795 79.0865 89.1628C79.17 89.2464 79.2859 89.2945 79.4038 89.2945C79.5224 89.2945 79.6377 89.2464 79.721 89.1628C79.8051 89.0795 79.8526 88.9637 79.8526 88.8458C79.8526 88.7277 79.8051 88.6119 79.721 88.5285C79.6377 88.445 79.5224 88.3969 79.4038 88.3969Z" fill="#333333"/>
</g>
<g clip-path="url(#clip1)">
<path d="M127.198 65.2092C127.198 64.8051 127.466 64.2858 127 64L126.494 60.9026C125.114 60.0578 119.088 60.2832 117.137 60.2832L108 60.5L106 63V65.2559H127.121C127.146 65.2559 127.171 65.2552 127.196 65.2547C127.196 65.2396 127.198 65.2245 127.198 65.2092Z" fill="#4980A8"/>
<path d="M110.527 71.429C109.89 71.429 109.372 71.9472 109.372 72.5842C109.372 73.2212 109.89 73.7394 110.527 73.7394C111.164 73.7394 111.682 73.2212 111.682 72.5842C111.682 71.9472 111.164 71.429 110.527 71.429ZM110.527 72.899C110.353 72.899 110.212 72.7577 110.212 72.5842C110.212 72.4107 110.353 72.2694 110.527 72.2694C110.7 72.2694 110.842 72.4106 110.842 72.5842C110.842 72.7578 110.7 72.899 110.527 72.899Z" fill="#333333"/>
<path d="M122.473 71.429C121.836 71.429 121.318 71.9472 121.318 72.5842C121.318 73.2212 121.836 73.7394 122.473 73.7394C123.11 73.7394 123.628 73.2212 123.628 72.5842C123.628 71.9472 123.11 71.429 122.473 71.429ZM122.473 72.899C122.299 72.899 122.158 72.7577 122.158 72.5842C122.158 72.4107 122.3 72.2694 122.473 72.2694C122.647 72.2694 122.788 72.4106 122.788 72.5842C122.788 72.7578 122.647 72.899 122.473 72.899Z" fill="#333333"/>
<path d="M127.467 70.5572V66.6144V62.3203C127.467 60.9829 126.378 59.8948 125.041 59.8948H109.301C107.224 59.8948 105.533 61.5851 105.533 63.6627V70.5571C105.21 70.8002 105 71.1872 105 71.6222V71.6738C105 72.4075 105.597 73.0044 106.331 73.0044H108.041C108.242 74.1951 109.28 75.1052 110.527 75.1052C111.774 75.1052 112.811 74.1951 113.012 73.0044H119.988C120.189 74.1951 121.226 75.1052 122.473 75.1052C123.72 75.1052 124.758 74.1951 124.959 73.0044H126.669C127.403 73.0044 128 72.4075 128 71.6738V71.6222C128 71.1872 127.79 70.8002 127.467 70.5572ZM126.626 66.1942H125.473C125.414 66.1942 125.366 66.1462 125.366 66.0871V62.8475C125.366 62.7885 125.414 62.7405 125.473 62.7405H126.626V66.1942ZM105.84 71.6738V71.6222C105.84 71.3516 106.06 71.1314 106.331 71.1314H108.468C108.254 71.4336 108.105 71.7844 108.041 72.164H106.331C106.06 72.164 105.84 71.9441 105.84 71.6738ZM110.527 74.2648C109.6 74.2648 108.846 73.5108 108.846 72.5841C108.846 71.6574 109.6 70.9034 110.527 70.9034C111.453 70.9034 112.207 71.6574 112.207 72.5841C112.207 73.5108 111.453 74.2648 110.527 74.2648ZM119.988 72.164H113.012C112.811 70.9732 111.774 70.063 110.527 70.063C110.154 70.063 109.8 70.145 109.481 70.291H106.374V63.6628C106.374 62.0485 107.687 60.7352 109.301 60.7352H125.041C125.77 60.7352 126.385 61.2294 126.569 61.9001H125.473C124.951 61.9001 124.526 62.3251 124.526 62.8475V66.0872C124.526 66.6096 124.95 67.0346 125.473 67.0346H126.626V70.2912H123.519C123.2 70.1452 122.846 70.0631 122.473 70.0631C121.226 70.0631 120.189 70.9733 119.988 72.164ZM122.473 74.2648C121.547 74.2648 120.793 73.5108 120.793 72.5841C120.793 71.6574 121.547 70.9034 122.473 70.9034C123.4 70.9034 124.154 71.6574 124.154 72.5841C124.154 73.5108 123.4 74.2648 122.473 74.2648ZM127.16 71.6738C127.16 71.9441 126.94 72.164 126.669 72.164H124.959C124.895 71.7844 124.746 71.4336 124.532 71.1314H126.669C126.94 71.1314 127.16 71.3516 127.16 71.6222V71.6738Z" fill="#333333"/>
<path d="M125.704 69.6377C125.936 69.6377 126.124 69.4495 126.124 69.2175V68.8439C126.124 68.6119 125.936 68.4237 125.704 68.4237C125.472 68.4237 125.284 68.6119 125.284 68.8439V69.2175C125.284 69.4495 125.472 69.6377 125.704 69.6377Z" fill="#333333"/>
<path d="M123.286 66.0872V62.8475C123.286 62.3251 122.861 61.9001 122.339 61.9001H109.401C108.283 61.9001 107.374 62.8095 107.374 63.9273V66.0872C107.374 66.6096 107.798 67.0346 108.321 67.0346H122.339C122.861 67.0346 123.286 66.6096 123.286 66.0872ZM115.75 62.7405H119.053V66.1942H115.75V62.7405ZM114.91 66.1942H111.606V62.7405H114.91V66.1942ZM108.214 66.0872V63.9273C108.214 63.2729 108.746 62.7405 109.401 62.7405H110.766V66.1942H108.321C108.262 66.1942 108.214 66.1462 108.214 66.0872ZM122.446 66.0872C122.446 66.1462 122.398 66.1942 122.339 66.1942H119.894V62.7405H122.339C122.398 62.7405 122.446 62.7884 122.446 62.8475V66.0872Z" fill="#333333"/>
</g>
<rect x="134" y="59" width="26" height="17" rx="8.5" fill="#4980A8"/>
<line x1="59.25" y1="35" x2="59.25" y2="40" stroke="#333333" stroke-width="0.5"/>
<line x1="59.25" y1="42" x2="59.25" y2="47" stroke="#333333" stroke-width="0.5"/>
<line x1="59.25" y1="49" x2="59.25" y2="54" stroke="#333333" stroke-width="0.5"/>
<line x1="59.25" y1="56" x2="59.25" y2="61" stroke="#333333" stroke-width="0.5"/>
<line x1="59.25" y1="63" x2="59.25" y2="68" stroke="#333333" stroke-width="0.5"/>
<line x1="59.25" y1="70" x2="59.25" y2="75" stroke="#333333" stroke-width="0.5"/>
<line x1="59.25" y1="77" x2="59.25" y2="82" stroke="#333333" stroke-width="0.5"/>
<line x1="59.25" y1="84" x2="59.25" y2="89" stroke="#333333" stroke-width="0.5"/>
<line x1="59.25" y1="91" x2="59.25" y2="96" stroke="#333333" stroke-width="0.5"/>
<line x1="59.25" y1="98" x2="59.25" y2="103" stroke="#333333" stroke-width="0.5"/>
<line x1="59.25" y1="105" x2="59.25" y2="110" stroke="#333333" stroke-width="0.5"/>
<line x1="59.25" y1="112" x2="59.25" y2="117" stroke="#333333" stroke-width="0.5"/>
<path d="M144.249 71H139.591V70.3506L142.052 67.6162C142.416 67.2028 142.667 66.8675 142.804 66.6104C142.944 66.3499 143.014 66.0814 143.014 65.8047C143.014 65.4336 142.901 65.1292 142.677 64.8916C142.452 64.654 142.153 64.5352 141.778 64.5352C141.329 64.5352 140.979 64.6637 140.729 64.9209C140.481 65.1748 140.357 65.5296 140.357 65.9854H139.454C139.454 65.3311 139.664 64.8021 140.084 64.3984C140.507 63.9948 141.072 63.793 141.778 63.793C142.439 63.793 142.962 63.9671 143.346 64.3154C143.73 64.6605 143.922 65.1211 143.922 65.6973C143.922 66.3971 143.476 67.2305 142.584 68.1973L140.68 70.2627H144.249V71ZM149.664 67.9678C149.664 69.0257 149.483 69.8118 149.122 70.3262C148.761 70.8405 148.196 71.0977 147.428 71.0977C146.669 71.0977 146.108 70.847 145.743 70.3457C145.379 69.8411 145.19 69.0892 145.177 68.0898V66.8838C145.177 65.8389 145.357 65.0625 145.719 64.5547C146.08 64.0469 146.646 63.793 147.418 63.793C148.183 63.793 148.746 64.0387 149.107 64.5303C149.469 65.0186 149.654 65.7738 149.664 66.7959V67.9678ZM148.761 66.7324C148.761 65.9674 148.653 65.4108 148.438 65.0625C148.224 64.7109 147.883 64.5352 147.418 64.5352C146.956 64.5352 146.619 64.7093 146.407 65.0576C146.196 65.4059 146.087 65.9414 146.08 66.6641V68.1094C146.08 68.8776 146.191 69.4456 146.412 69.8135C146.637 70.1781 146.975 70.3604 147.428 70.3604C147.874 70.3604 148.204 70.1878 148.419 69.8428C148.637 69.4977 148.751 68.9541 148.761 68.2119V66.7324ZM155.279 67.9678C155.279 69.0257 155.099 69.8118 154.737 70.3262C154.376 70.8405 153.811 71.0977 153.043 71.0977C152.285 71.0977 151.723 70.847 151.358 70.3457C150.994 69.8411 150.805 69.0892 150.792 68.0898V66.8838C150.792 65.8389 150.973 65.0625 151.334 64.5547C151.695 64.0469 152.262 63.793 153.033 63.793C153.798 63.793 154.361 64.0387 154.723 64.5303C155.084 65.0186 155.27 65.7738 155.279 66.7959V67.9678ZM154.376 66.7324C154.376 65.9674 154.269 65.4108 154.054 65.0625C153.839 64.7109 153.499 64.5352 153.033 64.5352C152.571 64.5352 152.234 64.7093 152.022 65.0576C151.811 65.4059 151.702 65.9414 151.695 66.6641V68.1094C151.695 68.8776 151.806 69.4456 152.027 69.8135C152.252 70.1781 152.59 70.3604 153.043 70.3604C153.489 70.3604 153.819 70.1878 154.034 69.8428C154.252 69.4977 154.366 68.9541 154.376 68.2119V66.7324Z" fill="#E9EDEB"/>
<path d="M82.6845 62.6884C83.4269 62.6884 84.0287 62.0866 84.0287 61.3442C84.0287 60.6018 83.4269 60 82.6845 60C81.9422 60 81.3403 60.6018 81.3403 61.3442C81.3403 62.0866 81.9422 62.6884 82.6845 62.6884Z" fill="#333333"/>
<path d="M86.3836 66.0145C85.2766 65.3738 84.3683 64.5082 83.6038 63.49C83.1234 62.8144 81.8532 62.8496 81.3371 63.4687C80.552 64.2326 79.8858 65.02 79.3574 65.8077C79.1414 66.1304 79.2272 66.567 79.5497 66.783C79.67 66.8636 79.8056 66.9022 79.9403 66.9022C80.1668 66.9022 80.3894 66.7929 80.5248 66.5905C80.7568 66.245 81.0199 65.8984 81.3112 65.5534C81.3001 66.2835 81.3367 67.601 81.3551 68.1932C81.3612 68.3903 81.3163 68.5831 81.2247 68.7581C80.5 70.142 80.0365 71.4514 79.5659 73.0532C79.4507 73.4442 79.6748 73.8545 80.0656 73.9696C80.1541 73.9956 80.2435 74.0044 80.3298 73.9978C80.6273 73.975 80.8933 73.7724 80.9822 73.4696C81.4164 71.9927 81.8359 70.7968 82.4903 69.5306C82.5236 69.5319 82.5569 69.5319 82.5906 69.5304C83.0084 70.7769 83.4264 72.024 83.8448 73.2705C84.1486 74.179 85.5583 73.7071 85.2536 72.7984C84.7964 71.4356 84.3399 70.0734 83.8842 68.7108C83.8577 68.6326 83.7935 68.3264 83.7845 68.2265C83.7092 67.387 83.6818 66.5502 83.6899 65.7122C84.3313 66.3267 85.0426 66.8597 85.8328 67.3175C86.6208 67.775 87.161 66.4652 86.3836 66.0145Z" fill="#333333"/>
<g clip-path="url(#clip2)">
<path d="M98.5598 67.8006L93.8425 63.0833C93.7314 62.9722 93.5533 62.9722 93.4422 63.0833C93.3311 63.1944 93.3311 63.3725 93.4422 63.4836L97.9584 67.9997L93.4422 72.5159C93.3311 72.627 93.3311 72.8051 93.4422 72.9162C93.4967 72.9707 93.57 73 93.6413 73C93.7125 73 93.7859 72.9728 93.8404 72.9162L98.5577 68.1988C98.6688 68.0899 98.6688 67.9096 98.5598 67.8006Z" fill="#B32B32"/>
</g>
<g clip-path="url(#clip3)">
<path d="M172.56 67.8006L167.842 63.0833C167.731 62.9722 167.553 62.9722 167.442 63.0833C167.331 63.1944 167.331 63.3725 167.442 63.4836L171.958 67.9997L167.442 72.5159C167.331 72.627 167.331 72.8051 167.442 72.9162C167.497 72.9707 167.57 73 167.641 73C167.713 73 167.786 72.9728 167.84 72.9162L172.558 68.1988C172.669 68.0899 172.669 67.9096 172.56 67.8006Z" fill="#B32B32"/>
</g>
<rect x="109" y="84" width="130" height="17" rx="8.5" fill="#4980A8"/>
<line x1="172.5" y1="84" x2="172.5" y2="101" stroke="#FAFAFA"/>
<path d="M118.831 96H117.894V88.8906H118.831V96ZM121.263 90.7168L121.292 91.3809C121.696 90.873 122.223 90.6191 122.874 90.6191C123.991 90.6191 124.554 91.249 124.563 92.5088V96H123.66V92.5039C123.657 92.123 123.569 91.8415 123.396 91.6592C123.227 91.4769 122.962 91.3857 122.601 91.3857C122.308 91.3857 122.05 91.4639 121.829 91.6201C121.608 91.7764 121.435 91.9814 121.312 92.2354V96H120.408V90.7168H121.263ZM127.151 89.4375V90.7168H128.138V91.415H127.151V94.6914C127.151 94.903 127.195 95.0625 127.283 95.1699C127.371 95.2741 127.521 95.3262 127.732 95.3262C127.837 95.3262 127.98 95.3066 128.162 95.2676V96C127.924 96.0651 127.693 96.0977 127.469 96.0977C127.065 96.0977 126.761 95.9756 126.556 95.7314C126.351 95.4873 126.248 95.1406 126.248 94.6914V91.415H125.286V90.7168H126.248V89.4375H127.151ZM131.39 96.0977C130.674 96.0977 130.091 95.8633 129.642 95.3945C129.192 94.9225 128.968 94.2926 128.968 93.5049V93.3389C128.968 92.8148 129.067 92.3477 129.266 91.9375C129.467 91.5241 129.747 91.2018 130.105 90.9707C130.467 90.7363 130.857 90.6191 131.277 90.6191C131.964 90.6191 132.498 90.8454 132.879 91.2979C133.26 91.7503 133.45 92.3981 133.45 93.2412V93.6172H129.871C129.884 94.138 130.035 94.5596 130.325 94.8818C130.618 95.2008 130.989 95.3604 131.438 95.3604C131.757 95.3604 132.028 95.2952 132.249 95.165C132.47 95.0348 132.664 94.8623 132.83 94.6475L133.382 95.0771C132.939 95.7575 132.275 96.0977 131.39 96.0977ZM131.277 91.3613C130.913 91.3613 130.607 91.4948 130.359 91.7617C130.112 92.0254 129.959 92.3965 129.9 92.875H132.547V92.8066C132.521 92.3477 132.397 91.9928 132.176 91.7422C131.954 91.4883 131.655 91.3613 131.277 91.3613ZM137.054 91.5273C136.917 91.5046 136.769 91.4932 136.609 91.4932C136.017 91.4932 135.615 91.7454 135.403 92.25V96H134.5V90.7168H135.379L135.394 91.3271C135.69 90.8551 136.11 90.6191 136.653 90.6191C136.829 90.6191 136.963 90.6419 137.054 90.6875V91.5273ZM139.91 95.3604C140.232 95.3604 140.514 95.2627 140.755 95.0674C140.996 94.8721 141.129 94.6279 141.155 94.335H142.01C141.993 94.6377 141.889 94.9258 141.697 95.1992C141.505 95.4727 141.248 95.6908 140.926 95.8535C140.607 96.0163 140.268 96.0977 139.91 96.0977C139.191 96.0977 138.618 95.8584 138.191 95.3799C137.768 94.8981 137.557 94.2406 137.557 93.4072V93.2559C137.557 92.7415 137.651 92.2842 137.84 91.8838C138.029 91.4834 138.299 91.1725 138.65 90.9512C139.005 90.7298 139.424 90.6191 139.905 90.6191C140.498 90.6191 140.989 90.7965 141.38 91.1514C141.774 91.5062 141.984 91.9668 142.01 92.5332H141.155C141.129 92.1914 140.999 91.9115 140.765 91.6934C140.534 91.472 140.247 91.3613 139.905 91.3613C139.446 91.3613 139.09 91.5273 138.836 91.8594C138.585 92.1882 138.46 92.665 138.46 93.29V93.4609C138.46 94.0697 138.585 94.5384 138.836 94.8672C139.087 95.196 139.445 95.3604 139.91 95.3604ZM144.007 96H143.104V90.7168H144.007V96ZM143.03 89.3154C143.03 89.1689 143.074 89.0452 143.162 88.9443C143.253 88.8434 143.387 88.793 143.562 88.793C143.738 88.793 143.872 88.8434 143.963 88.9443C144.054 89.0452 144.1 89.1689 144.1 89.3154C144.1 89.4619 144.054 89.584 143.963 89.6816C143.872 89.7793 143.738 89.8281 143.562 89.8281C143.387 89.8281 143.253 89.7793 143.162 89.6816C143.074 89.584 143.03 89.4619 143.03 89.3154ZM146.683 89.4375V90.7168H147.669V91.415H146.683V94.6914C146.683 94.903 146.727 95.0625 146.814 95.1699C146.902 95.2741 147.052 95.3262 147.264 95.3262C147.368 95.3262 147.511 95.3066 147.693 95.2676V96C147.456 96.0651 147.225 96.0977 147 96.0977C146.596 96.0977 146.292 95.9756 146.087 95.7314C145.882 95.4873 145.779 95.1406 145.779 94.6914V91.415H144.817V90.7168H145.779V89.4375H146.683ZM150.457 94.6768L151.688 90.7168H152.654L150.53 96.8154C150.201 97.6943 149.679 98.1338 148.963 98.1338L148.792 98.1191L148.455 98.0557V97.3232L148.699 97.3428C149.005 97.3428 149.243 97.2809 149.412 97.1572C149.585 97.0335 149.726 96.8073 149.837 96.4785L150.037 95.9414L148.152 90.7168H149.139L150.457 94.6768ZM158.821 96H157.913V89.9795L156.092 90.6484V89.8281L158.68 88.8564H158.821V96ZM166.126 96H161.468V95.3506L163.929 92.6162C164.293 92.2028 164.544 91.8675 164.681 91.6104C164.821 91.3499 164.891 91.0814 164.891 90.8047C164.891 90.4336 164.778 90.1292 164.554 89.8916C164.329 89.654 164.03 89.5352 163.655 89.5352C163.206 89.5352 162.856 89.6637 162.605 89.9209C162.358 90.1748 162.234 90.5296 162.234 90.9854H161.331C161.331 90.3311 161.541 89.8021 161.961 89.3984C162.384 88.9948 162.949 88.793 163.655 88.793C164.316 88.793 164.839 88.9671 165.223 89.3154C165.607 89.6605 165.799 90.1211 165.799 90.6973C165.799 91.3971 165.353 92.2305 164.461 93.1973L162.557 95.2627H166.126V96Z" fill="#E9EDEB"/>
<path d="M182.831 96H181.894V88.8906H182.831V96ZM185.263 90.7168L185.292 91.3809C185.696 90.873 186.223 90.6191 186.874 90.6191C187.991 90.6191 188.554 91.249 188.563 92.5088V96H187.66V92.5039C187.657 92.123 187.569 91.8415 187.396 91.6592C187.227 91.4769 186.962 91.3857 186.601 91.3857C186.308 91.3857 186.05 91.4639 185.829 91.6201C185.608 91.7764 185.435 91.9814 185.312 92.2354V96H184.408V90.7168H185.263ZM191.151 89.4375V90.7168H192.138V91.415H191.151V94.6914C191.151 94.903 191.195 95.0625 191.283 95.1699C191.371 95.2741 191.521 95.3262 191.732 95.3262C191.837 95.3262 191.98 95.3066 192.162 95.2676V96C191.924 96.0651 191.693 96.0977 191.469 96.0977C191.065 96.0977 190.761 95.9756 190.556 95.7314C190.351 95.4873 190.248 95.1406 190.248 94.6914V91.415H189.286V90.7168H190.248V89.4375H191.151ZM195.39 96.0977C194.674 96.0977 194.091 95.8633 193.642 95.3945C193.192 94.9225 192.968 94.2926 192.968 93.5049V93.3389C192.968 92.8148 193.067 92.3477 193.266 91.9375C193.467 91.5241 193.747 91.2018 194.105 90.9707C194.467 90.7363 194.857 90.6191 195.277 90.6191C195.964 90.6191 196.498 90.8454 196.879 91.2979C197.26 91.7503 197.45 92.3981 197.45 93.2412V93.6172H193.871C193.884 94.138 194.035 94.5596 194.325 94.8818C194.618 95.2008 194.989 95.3604 195.438 95.3604C195.757 95.3604 196.028 95.2952 196.249 95.165C196.47 95.0348 196.664 94.8623 196.83 94.6475L197.382 95.0771C196.939 95.7575 196.275 96.0977 195.39 96.0977ZM195.277 91.3613C194.913 91.3613 194.607 91.4948 194.359 91.7617C194.112 92.0254 193.959 92.3965 193.9 92.875H196.547V92.8066C196.521 92.3477 196.397 91.9928 196.176 91.7422C195.954 91.4883 195.655 91.3613 195.277 91.3613ZM201.054 91.5273C200.917 91.5046 200.769 91.4932 200.609 91.4932C200.017 91.4932 199.615 91.7454 199.403 92.25V96H198.5V90.7168H199.379L199.394 91.3271C199.69 90.8551 200.11 90.6191 200.653 90.6191C200.829 90.6191 200.963 90.6419 201.054 90.6875V91.5273ZM203.91 95.3604C204.232 95.3604 204.514 95.2627 204.755 95.0674C204.996 94.8721 205.129 94.6279 205.155 94.335H206.01C205.993 94.6377 205.889 94.9258 205.697 95.1992C205.505 95.4727 205.248 95.6908 204.926 95.8535C204.607 96.0163 204.268 96.0977 203.91 96.0977C203.191 96.0977 202.618 95.8584 202.191 95.3799C201.768 94.8981 201.557 94.2406 201.557 93.4072V93.2559C201.557 92.7415 201.651 92.2842 201.84 91.8838C202.029 91.4834 202.299 91.1725 202.65 90.9512C203.005 90.7298 203.424 90.6191 203.905 90.6191C204.498 90.6191 204.989 90.7965 205.38 91.1514C205.774 91.5062 205.984 91.9668 206.01 92.5332H205.155C205.129 92.1914 204.999 91.9115 204.765 91.6934C204.534 91.472 204.247 91.3613 203.905 91.3613C203.446 91.3613 203.09 91.5273 202.836 91.8594C202.585 92.1882 202.46 92.665 202.46 93.29V93.4609C202.46 94.0697 202.585 94.5384 202.836 94.8672C203.087 95.196 203.445 95.3604 203.91 95.3604ZM208.007 96H207.104V90.7168H208.007V96ZM207.03 89.3154C207.03 89.1689 207.074 89.0452 207.162 88.9443C207.253 88.8434 207.387 88.793 207.562 88.793C207.738 88.793 207.872 88.8434 207.963 88.9443C208.054 89.0452 208.1 89.1689 208.1 89.3154C208.1 89.4619 208.054 89.584 207.963 89.6816C207.872 89.7793 207.738 89.8281 207.562 89.8281C207.387 89.8281 207.253 89.7793 207.162 89.6816C207.074 89.584 207.03 89.4619 207.03 89.3154ZM210.683 89.4375V90.7168H211.669V91.415H210.683V94.6914C210.683 94.903 210.727 95.0625 210.814 95.1699C210.902 95.2741 211.052 95.3262 211.264 95.3262C211.368 95.3262 211.511 95.3066 211.693 95.2676V96C211.456 96.0651 211.225 96.0977 211 96.0977C210.596 96.0977 210.292 95.9756 210.087 95.7314C209.882 95.4873 209.779 95.1406 209.779 94.6914V91.415H208.817V90.7168H209.779V89.4375H210.683ZM214.457 94.6768L215.688 90.7168H216.654L214.53 96.8154C214.201 97.6943 213.679 98.1338 212.963 98.1338L212.792 98.1191L212.455 98.0557V97.3232L212.699 97.3428C213.005 97.3428 213.243 97.2809 213.412 97.1572C213.585 97.0335 213.726 96.8073 213.837 96.4785L214.037 95.9414L212.152 90.7168H213.139L214.457 94.6768ZM223.397 88.8857V89.6523H223.231C222.528 89.6654 221.968 89.8737 221.552 90.2773C221.135 90.681 220.894 91.249 220.829 91.9814C221.203 91.5518 221.715 91.3369 222.362 91.3369C222.981 91.3369 223.474 91.555 223.842 91.9912C224.213 92.4274 224.398 92.9906 224.398 93.6807C224.398 94.4131 224.198 94.999 223.798 95.4385C223.401 95.8779 222.867 96.0977 222.196 96.0977C221.516 96.0977 220.964 95.8372 220.541 95.3164C220.118 94.7923 219.906 94.1185 219.906 93.2949V92.9482C219.906 91.6396 220.185 90.6403 220.741 89.9502C221.301 89.2568 222.133 88.902 223.236 88.8857H223.397ZM222.211 92.0889C221.902 92.0889 221.617 92.1816 221.356 92.3672C221.096 92.5527 220.915 92.7855 220.814 93.0654V93.3975C220.814 93.9834 220.946 94.4554 221.21 94.8135C221.474 95.1715 221.802 95.3506 222.196 95.3506C222.603 95.3506 222.922 95.2008 223.153 94.9014C223.388 94.6019 223.505 94.2096 223.505 93.7246C223.505 93.2363 223.386 92.8424 223.148 92.543C222.914 92.2402 222.602 92.0889 222.211 92.0889ZM229.281 93.6123H230.268V94.3496H229.281V96H228.373V94.3496H225.136V93.8174L228.319 88.8906H229.281V93.6123ZM226.161 93.6123H228.373V90.126L228.266 90.3213L226.161 93.6123Z" fill="#E9EDEB"/>
<path d="M58.5 133C56.8033 133 55 133.526 55 134.5C55 135.474 56.8033 136 58.5 136C60.1967 136 62 135.474 62 134.5C62 133.526 60.1967 133 58.5 133Z" fill="#333333"/>
<path d="M58.5 123C56.0187 123 54 125.088 54 127.655C54 129.248 54.7328 130.961 56.1782 132.747C57.2424 134.062 58.2911 134.906 58.3353 134.942C58.3837 134.981 58.4419 135 58.5 135C58.5581 135 58.6162 134.981 58.6647 134.942C58.7088 134.906 59.7577 134.062 60.8218 132.747C62.2672 130.961 63 129.248 63 127.655C63 125.088 60.9813 123 58.5 123ZM60.1875 127.655C60.1875 128.619 59.432 129.4 58.5 129.4C57.5681 129.4 56.8126 128.619 56.8126 127.655C56.8126 126.691 57.5681 125.909 58.5 125.909C59.432 125.909 60.1875 126.691 60.1875 127.655Z" fill="#4980A8"/>
<defs>
<clipPath id="clip0">
<rect width="23" height="23" fill="white" transform="translate(79 80)"/>
</clipPath>
<clipPath id="clip1">
<rect width="23" height="23" fill="white" transform="translate(105 56)"/>
</clipPath>
<clipPath id="clip2">
<rect width="10" height="10" fill="white" transform="translate(91 63)"/>
</clipPath>
<clipPath id="clip3">
<rect width="10" height="10" fill="white" transform="translate(165 63)"/>
</clipPath>
</defs>
</svg>
