<svg width="375" height="140" viewBox="0 0 375 140" fill="none" xmlns="http://www.w3.org/2000/svg">
<path d="M307.75 36C307.781 34.7812 308.043 33.668 308.535 32.6602C309.012 31.5273 310.137 30.3281 311.91 29.0625C313.449 27.9609 314.445 27.1719 314.898 26.6953C315.594 25.9531 315.941 25.1406 315.941 24.2578C315.941 23.5391 315.742 22.9414 315.344 22.4648C314.945 21.9883 314.375 21.75 313.633 21.75C312.617 21.75 311.926 22.1289 311.559 22.8867C311.348 23.3242 311.223 24.0195 311.184 24.9727H307.938C307.992 23.5273 308.254 22.3594 308.723 21.4688C309.613 19.7734 311.195 18.9258 313.469 18.9258C315.266 18.9258 316.695 19.4258 317.758 20.4258C318.82 21.418 319.352 22.7344 319.352 24.375C319.352 25.6328 318.977 26.75 318.227 27.7266C317.734 28.375 316.926 29.0977 315.801 29.8945L314.465 30.8438C313.629 31.4375 313.055 31.8672 312.742 32.1328C312.438 32.3984 312.18 32.707 311.969 33.0586H319.387V36H307.75ZM324.273 30.7852C324.273 31.4648 324.383 32.0273 324.602 32.4727C325.008 33.293 325.746 33.7031 326.816 33.7031C327.473 33.7031 328.043 33.4805 328.527 33.0352C329.02 32.582 329.266 31.9336 329.266 31.0898C329.266 29.9727 328.812 29.2266 327.906 28.8516C327.391 28.6406 326.578 28.5352 325.469 28.5352V26.1445C326.555 26.1289 327.312 26.0234 327.742 25.8281C328.484 25.5 328.855 24.8359 328.855 23.8359C328.855 23.1875 328.664 22.6602 328.281 22.2539C327.906 21.8477 327.375 21.6445 326.688 21.6445C325.898 21.6445 325.316 21.8945 324.941 22.3945C324.574 22.8945 324.398 23.5625 324.414 24.3984H321.297C321.328 23.5547 321.473 22.7539 321.73 21.9961C322.004 21.332 322.434 20.7188 323.02 20.1562C323.457 19.7578 323.977 19.4531 324.578 19.2422C325.18 19.0312 325.918 18.9258 326.793 18.9258C328.418 18.9258 329.727 19.3477 330.719 20.1914C331.719 21.0273 332.219 22.1523 332.219 23.5664C332.219 24.5664 331.922 25.4102 331.328 26.0977C330.953 26.5273 330.562 26.8203 330.156 26.9766C330.461 26.9766 330.898 27.2383 331.469 27.7617C332.32 28.5508 332.746 29.6289 332.746 30.9961C332.746 32.4336 332.246 33.6992 331.246 34.793C330.254 35.8789 328.781 36.4219 326.828 36.4219C324.422 36.4219 322.75 35.6367 321.812 34.0664C321.32 33.2305 321.047 32.1367 320.992 30.7852H324.273ZM337.879 27.668C337.879 29.6211 338.039 31.1172 338.359 32.1562C338.68 33.1875 339.336 33.7031 340.328 33.7031C341.32 33.7031 341.969 33.1875 342.273 32.1562C342.586 31.1172 342.742 29.6211 342.742 27.668C342.742 25.6211 342.586 24.1055 342.273 23.1211C341.969 22.1367 341.32 21.6445 340.328 21.6445C339.336 21.6445 338.68 22.1367 338.359 23.1211C338.039 24.1055 337.879 25.6211 337.879 27.668ZM340.328 18.8906C342.492 18.8906 344.008 19.6523 344.875 21.1758C345.75 22.6992 346.188 24.8633 346.188 27.668C346.188 30.4727 345.75 32.6328 344.875 34.1484C344.008 35.6641 342.492 36.4219 340.328 36.4219C338.164 36.4219 336.645 35.6641 335.77 34.1484C334.902 32.6328 334.469 30.4727 334.469 27.668C334.469 24.8633 334.902 22.6992 335.77 21.1758C336.645 19.6523 338.164 18.8906 340.328 18.8906ZM348.461 38.7773C349.133 38.5898 349.625 38.2773 349.938 37.8398C350.258 37.4023 350.441 36.7891 350.488 36H348.461V32.5078H352.07V35.5312C352.07 36.0625 352 36.6172 351.859 37.1953C351.719 37.7734 351.457 38.2734 351.074 38.6953C350.66 39.1484 350.172 39.4883 349.609 39.7148C349.055 39.9492 348.672 40.0664 348.461 40.0664V38.7773ZM354.309 27.7266H361.035V30.8906H354.309V27.7266Z" fill="#B32B32"/>
<path d="M78.0781 22.2949V25.7754H81.1455C81.7549 25.7754 82.2119 25.7051 82.5166 25.5645C83.0557 25.3184 83.3252 24.832 83.3252 24.1055C83.3252 23.3203 83.0645 22.793 82.543 22.5234C82.25 22.3711 81.8105 22.2949 81.2246 22.2949H78.0781ZM81.7871 20.0449C82.6953 20.0625 83.3926 20.1738 83.8789 20.3789C84.3711 20.584 84.7871 20.8857 85.127 21.2842C85.4082 21.6123 85.6309 21.9756 85.7949 22.374C85.959 22.7725 86.041 23.2266 86.041 23.7363C86.041 24.3516 85.8857 24.958 85.5752 25.5557C85.2646 26.1475 84.752 26.5664 84.0371 26.8125C84.6348 27.0527 85.0566 27.3955 85.3027 27.8408C85.5547 28.2803 85.6807 28.9541 85.6807 29.8623V30.7324C85.6807 31.3242 85.7041 31.7256 85.751 31.9365C85.8213 32.2705 85.9854 32.5166 86.2432 32.6748V33H83.2637C83.1816 32.7129 83.123 32.4814 83.0879 32.3057C83.0176 31.9424 82.9795 31.5703 82.9736 31.1895L82.9561 29.9854C82.9443 29.1592 82.792 28.6084 82.499 28.333C82.2119 28.0576 81.6699 27.9199 80.873 27.9199H78.0781V33H75.4326V20.0449H81.7871ZM93.459 28.3418C93.3008 28.4414 93.1396 28.5234 92.9756 28.5879C92.8174 28.6465 92.5977 28.7021 92.3164 28.7549L91.7539 28.8604C91.2266 28.9541 90.8486 29.0684 90.6201 29.2031C90.2334 29.4316 90.04 29.7861 90.04 30.2666C90.04 30.6943 90.1572 31.0049 90.3916 31.1982C90.6318 31.3857 90.9219 31.4795 91.2617 31.4795C91.8008 31.4795 92.2959 31.3213 92.7471 31.0049C93.2041 30.6885 93.4414 30.1113 93.459 29.2734V28.3418ZM91.9385 27.1729C92.4014 27.1143 92.7324 27.041 92.9316 26.9531C93.2891 26.8008 93.4678 26.5635 93.4678 26.2412C93.4678 25.8486 93.3301 25.5791 93.0547 25.4326C92.7852 25.2803 92.3867 25.2041 91.8594 25.2041C91.2676 25.2041 90.8486 25.3506 90.6025 25.6436C90.4268 25.8604 90.3096 26.1533 90.251 26.5225H87.834C87.8867 25.6846 88.1211 24.9961 88.5371 24.457C89.1992 23.6133 90.3359 23.1914 91.9473 23.1914C92.9961 23.1914 93.9277 23.3994 94.7422 23.8154C95.5566 24.2314 95.9639 25.0166 95.9639 26.1709V30.5654C95.9639 30.8701 95.9697 31.2393 95.9814 31.6729C95.999 32.001 96.0488 32.2236 96.1309 32.3408C96.2129 32.458 96.3359 32.5547 96.5 32.6309V33H93.7754C93.6992 32.8066 93.6465 32.625 93.6172 32.4551C93.5879 32.2852 93.5645 32.0918 93.5469 31.875C93.2012 32.25 92.8027 32.5693 92.3516 32.833C91.8125 33.1436 91.2031 33.2988 90.5234 33.2988C89.6562 33.2988 88.9385 33.0527 88.3701 32.5605C87.8076 32.0625 87.5264 31.3594 87.5264 30.4512C87.5264 29.2734 87.9805 28.4209 88.8887 27.8936C89.3867 27.6064 90.1191 27.4014 91.0859 27.2783L91.9385 27.1729ZM104.103 23.4199H106.792L103.338 33H100.692L97.2559 23.4199H100.068L102.063 30.4863L104.103 23.4199ZM113.524 23.1914C114.515 23.1914 115.323 23.4521 115.95 23.9736C116.583 24.4893 116.899 25.3477 116.899 26.5488V33H114.333V27.1729C114.333 26.6689 114.266 26.2822 114.131 26.0127C113.885 25.5205 113.416 25.2744 112.725 25.2744C111.875 25.2744 111.292 25.6348 110.976 26.3555C110.812 26.7363 110.729 27.2227 110.729 27.8145V33H108.233V23.4375H110.65V24.835C110.973 24.3428 111.277 23.9883 111.564 23.7715C112.08 23.3848 112.733 23.1914 113.524 23.1914ZM121.171 29.9414C121.224 30.3867 121.338 30.7031 121.514 30.8906C121.824 31.2246 122.398 31.3916 123.236 31.3916C123.729 31.3916 124.118 31.3184 124.405 31.1719C124.698 31.0254 124.845 30.8057 124.845 30.5127C124.845 30.2314 124.728 30.0176 124.493 29.8711C124.259 29.7246 123.389 29.4727 121.883 29.1152C120.799 28.8457 120.034 28.5088 119.589 28.1045C119.144 27.7061 118.921 27.1318 118.921 26.3818C118.921 25.4971 119.267 24.7383 119.958 24.1055C120.655 23.4668 121.634 23.1475 122.894 23.1475C124.089 23.1475 125.062 23.3877 125.812 23.8682C126.567 24.3428 127.001 25.166 127.112 26.3379H124.607C124.572 26.0156 124.481 25.7607 124.335 25.5732C124.06 25.2334 123.591 25.0635 122.929 25.0635C122.384 25.0635 121.994 25.1484 121.76 25.3184C121.531 25.4883 121.417 25.6875 121.417 25.916C121.417 26.2031 121.54 26.4111 121.786 26.54C122.032 26.6748 122.902 26.9062 124.396 27.2344C125.393 27.4688 126.14 27.8232 126.638 28.2979C127.13 28.7783 127.376 29.3789 127.376 30.0996C127.376 31.0488 127.021 31.8252 126.312 32.4287C125.609 33.0264 124.52 33.3252 123.043 33.3252C121.537 33.3252 120.424 33.0088 119.703 32.376C118.988 31.7373 118.631 30.9258 118.631 29.9414H121.171ZM134.416 23.209C135.676 23.209 136.66 23.6631 137.369 24.5713C138.084 25.4795 138.441 26.6514 138.441 28.0869C138.441 29.5752 138.09 30.8086 137.387 31.7871C136.684 32.7656 135.702 33.2549 134.442 33.2549C133.651 33.2549 133.016 33.0967 132.535 32.7803C132.248 32.5928 131.938 32.2646 131.604 31.7959V33H129.151V20.0625H131.647V24.668C131.964 24.2227 132.312 23.8828 132.693 23.6484C133.145 23.3555 133.719 23.209 134.416 23.209ZM133.774 31.1895C134.419 31.1895 134.92 30.9287 135.277 30.4072C135.635 29.8857 135.813 29.2002 135.813 28.3506C135.813 27.6709 135.726 27.1084 135.55 26.6631C135.216 25.8193 134.601 25.3975 133.704 25.3975C132.796 25.3975 132.172 25.8105 131.832 26.6367C131.656 27.0762 131.568 27.6445 131.568 28.3418C131.568 29.1621 131.75 29.8418 132.113 30.3809C132.477 30.9199 133.03 31.1895 133.774 31.1895ZM142.862 22.2773H140.357V19.9658H142.862V22.2773ZM139.153 34.8369C139.294 34.8486 139.394 34.8545 139.452 34.8545C139.511 34.8604 139.563 34.8633 139.61 34.8633C139.856 34.8633 140.041 34.8018 140.164 34.6787C140.293 34.5615 140.357 34.3301 140.357 33.9844V23.4639H142.862V34.0283C142.862 34.9951 142.672 35.71 142.291 36.1729C141.91 36.6357 141.163 36.8672 140.05 36.8672C139.974 36.8672 139.859 36.8643 139.707 36.8584C139.561 36.8525 139.376 36.8467 139.153 36.8408V34.8369ZM149.032 25.2305C148.452 25.2305 148.001 25.4121 147.679 25.7754C147.362 26.1387 147.163 26.6309 147.081 27.252H150.975C150.934 26.5898 150.731 26.0889 150.368 25.749C150.011 25.4033 149.565 25.2305 149.032 25.2305ZM149.032 23.165C149.829 23.165 150.547 23.3145 151.186 23.6133C151.824 23.9121 152.352 24.3838 152.768 25.0283C153.143 25.5967 153.386 26.2559 153.497 27.0059C153.562 27.4453 153.588 28.0781 153.576 28.9043H147.02C147.055 29.8652 147.356 30.5391 147.925 30.9258C148.271 31.166 148.687 31.2861 149.173 31.2861C149.688 31.2861 150.107 31.1396 150.43 30.8467C150.605 30.6885 150.761 30.4688 150.896 30.1875H153.453C153.389 30.7559 153.093 31.333 152.565 31.9189C151.745 32.8506 150.597 33.3164 149.12 33.3164C147.901 33.3164 146.826 32.9238 145.895 32.1387C144.963 31.3535 144.497 30.0762 144.497 28.3066C144.497 26.6484 144.916 25.377 145.754 24.4922C146.598 23.6074 147.69 23.165 149.032 23.165ZM160.476 23.1914C160.522 23.1914 160.561 23.1943 160.59 23.2002C160.625 23.2002 160.698 23.2031 160.81 23.209V25.7754C160.651 25.7578 160.511 25.7461 160.388 25.7402C160.265 25.7344 160.165 25.7314 160.089 25.7314C159.081 25.7314 158.404 26.0596 158.059 26.7158C157.865 27.085 157.769 27.6533 157.769 28.4209V33H155.246V23.4199H157.637V25.0898C158.023 24.4512 158.36 24.0146 158.647 23.7803C159.116 23.3877 159.726 23.1914 160.476 23.1914ZM166.399 30.9434C166.985 30.9434 167.48 30.7236 167.885 30.2842C168.289 29.8389 168.491 29.1328 168.491 28.166C168.491 27.2578 168.298 26.5664 167.911 26.0918C167.53 25.6172 167.018 25.3799 166.373 25.3799C165.494 25.3799 164.888 25.793 164.554 26.6191C164.378 27.0586 164.29 27.6006 164.29 28.2451C164.29 28.8018 164.384 29.2969 164.571 29.7305C164.911 30.5391 165.521 30.9434 166.399 30.9434ZM165.775 23.1914C166.256 23.1914 166.675 23.2646 167.032 23.4111C167.642 23.6631 168.134 24.126 168.509 24.7998V23.4199H170.943V32.5078C170.943 33.7441 170.735 34.6758 170.319 35.3027C169.604 36.3809 168.233 36.9199 166.206 36.9199C164.981 36.9199 163.982 36.6797 163.209 36.1992C162.436 35.7188 162.008 35.001 161.926 34.0459H164.65C164.721 34.3389 164.835 34.5498 164.993 34.6787C165.263 34.9072 165.717 35.0215 166.355 35.0215C167.258 35.0215 167.861 34.7197 168.166 34.1162C168.365 33.7295 168.465 33.0791 168.465 32.165V31.5498C168.225 31.96 167.967 32.2676 167.691 32.4727C167.193 32.8535 166.546 33.0439 165.749 33.0439C164.519 33.0439 163.534 32.6133 162.796 31.752C162.063 30.8848 161.697 29.7129 161.697 28.2363C161.697 26.8125 162.052 25.6172 162.761 24.6504C163.47 23.6777 164.475 23.1914 165.775 23.1914ZM178.273 20.0889H180.734V27.0674L183.854 23.4639H186.957L183.608 27.1289L187.089 33H184.065L181.771 28.9043L180.734 29.9854V33H178.273V20.0889ZM192.617 31.2334C193.35 31.2334 193.912 30.9727 194.305 30.4512C194.697 29.9297 194.894 29.1885 194.894 28.2275C194.894 27.2666 194.697 26.5283 194.305 26.0127C193.912 25.4912 193.35 25.2305 192.617 25.2305C191.885 25.2305 191.319 25.4912 190.921 26.0127C190.528 26.5283 190.332 27.2666 190.332 28.2275C190.332 29.1885 190.528 29.9297 190.921 30.4512C191.319 30.9727 191.885 31.2334 192.617 31.2334ZM197.521 28.2275C197.521 29.6338 197.117 30.8379 196.309 31.8398C195.5 32.8359 194.272 33.334 192.626 33.334C190.979 33.334 189.752 32.8359 188.943 31.8398C188.135 30.8379 187.73 29.6338 187.73 28.2275C187.73 26.8447 188.135 25.6465 188.943 24.6328C189.752 23.6191 190.979 23.1123 192.626 23.1123C194.272 23.1123 195.5 23.6191 196.309 24.6328C197.117 25.6465 197.521 26.8447 197.521 28.2275ZM201.881 33H199.376V20.0449H201.881V33ZM206.891 33H204.386V20.0449H206.891V33ZM213.122 25.2305C212.542 25.2305 212.091 25.4121 211.769 25.7754C211.452 26.1387 211.253 26.6309 211.171 27.252H215.064C215.023 26.5898 214.821 26.0889 214.458 25.749C214.101 25.4033 213.655 25.2305 213.122 25.2305ZM213.122 23.165C213.919 23.165 214.637 23.3145 215.275 23.6133C215.914 23.9121 216.441 24.3838 216.857 25.0283C217.232 25.5967 217.476 26.2559 217.587 27.0059C217.651 27.4453 217.678 28.0781 217.666 28.9043H211.109C211.145 29.8652 211.446 30.5391 212.015 30.9258C212.36 31.166 212.776 31.2861 213.263 31.2861C213.778 31.2861 214.197 31.1396 214.52 30.8467C214.695 30.6885 214.851 30.4688 214.985 30.1875H217.543C217.479 30.7559 217.183 31.333 216.655 31.9189C215.835 32.8506 214.687 33.3164 213.21 33.3164C211.991 33.3164 210.916 32.9238 209.984 32.1387C209.053 31.3535 208.587 30.0762 208.587 28.3066C208.587 26.6484 209.006 25.377 209.844 24.4922C210.688 23.6074 211.78 23.165 213.122 23.165ZM223.476 30.9434C224.062 30.9434 224.557 30.7236 224.961 30.2842C225.365 29.8389 225.567 29.1328 225.567 28.166C225.567 27.2578 225.374 26.5664 224.987 26.0918C224.606 25.6172 224.094 25.3799 223.449 25.3799C222.57 25.3799 221.964 25.793 221.63 26.6191C221.454 27.0586 221.366 27.6006 221.366 28.2451C221.366 28.8018 221.46 29.2969 221.647 29.7305C221.987 30.5391 222.597 30.9434 223.476 30.9434ZM222.852 23.1914C223.332 23.1914 223.751 23.2646 224.108 23.4111C224.718 23.6631 225.21 24.126 225.585 24.7998V23.4199H228.02V32.5078C228.02 33.7441 227.812 34.6758 227.396 35.3027C226.681 36.3809 225.31 36.9199 223.282 36.9199C222.058 36.9199 221.059 36.6797 220.285 36.1992C219.512 35.7188 219.084 35.001 219.002 34.0459H221.727C221.797 34.3389 221.911 34.5498 222.069 34.6787C222.339 34.9072 222.793 35.0215 223.432 35.0215C224.334 35.0215 224.938 34.7197 225.242 34.1162C225.441 33.7295 225.541 33.0791 225.541 32.165V31.5498C225.301 31.96 225.043 32.2676 224.768 32.4727C224.27 32.8535 223.622 33.0439 222.825 33.0439C221.595 33.0439 220.61 32.6133 219.872 31.752C219.14 30.8848 218.773 29.7129 218.773 28.2363C218.773 26.8125 219.128 25.6172 219.837 24.6504C220.546 23.6777 221.551 23.1914 222.852 23.1914ZM232.941 22.2773H230.401V19.9658H232.941V22.2773ZM230.401 23.4199H232.941V33H230.401V23.4199ZM239.155 25.2305C238.575 25.2305 238.124 25.4121 237.802 25.7754C237.485 26.1387 237.286 26.6309 237.204 27.252H241.098C241.057 26.5898 240.854 26.0889 240.491 25.749C240.134 25.4033 239.688 25.2305 239.155 25.2305ZM239.155 23.165C239.952 23.165 240.67 23.3145 241.309 23.6133C241.947 23.9121 242.475 24.3838 242.891 25.0283C243.266 25.5967 243.509 26.2559 243.62 27.0059C243.685 27.4453 243.711 28.0781 243.699 28.9043H237.143C237.178 29.8652 237.479 30.5391 238.048 30.9258C238.394 31.166 238.81 31.2861 239.296 31.2861C239.812 31.2861 240.23 31.1396 240.553 30.8467C240.729 30.6885 240.884 30.4688 241.019 30.1875H243.576C243.512 30.7559 243.216 31.333 242.688 31.9189C241.868 32.8506 240.72 33.3164 239.243 33.3164C238.024 33.3164 236.949 32.9238 236.018 32.1387C235.086 31.3535 234.62 30.0762 234.62 28.3066C234.62 26.6484 235.039 25.377 235.877 24.4922C236.721 23.6074 237.813 23.165 239.155 23.165ZM244.411 25.292V23.5078H245.747V20.8359H248.226V23.5078H249.781V25.292H248.226V30.3545C248.226 30.7471 248.275 30.9932 248.375 31.0928C248.475 31.1865 248.779 31.2334 249.289 31.2334C249.365 31.2334 249.444 31.2334 249.526 31.2334C249.614 31.2275 249.699 31.2217 249.781 31.2158V33.0879L248.595 33.1318C247.411 33.1729 246.603 32.9678 246.169 32.5166C245.888 32.2295 245.747 31.7871 245.747 31.1895V25.292H244.411Z" fill="#333333"/>
<path d="M74.8086 97.6279C74.8086 95.3662 75.415 93.623 76.6279 92.3984C77.6826 91.332 79.0244 90.7988 80.6533 90.7988C82.833 90.7988 84.4268 91.5137 85.4346 92.9434C85.9912 93.7461 86.29 94.5518 86.3311 95.3604H83.624C83.4482 94.7393 83.2227 94.2705 82.9473 93.9541C82.4551 93.3916 81.7256 93.1104 80.7588 93.1104C79.7744 93.1104 78.998 93.5088 78.4297 94.3057C77.8613 95.0967 77.5771 96.2188 77.5771 97.6719C77.5771 99.125 77.876 100.215 78.4736 100.941C79.0771 101.662 79.8418 102.022 80.7676 102.022C81.7168 102.022 82.4404 101.712 82.9385 101.091C83.2139 100.757 83.4424 100.256 83.624 99.5879H86.3047C86.0703 101 85.4697 102.148 84.5029 103.033C83.542 103.918 82.3086 104.36 80.8027 104.36C78.9395 104.36 77.4746 103.763 76.4082 102.567C75.3418 101.366 74.8086 99.7197 74.8086 97.6279ZM92.4746 102.233C93.207 102.233 93.7695 101.973 94.1621 101.451C94.5547 100.93 94.751 100.188 94.751 99.2275C94.751 98.2666 94.5547 97.5283 94.1621 97.0127C93.7695 96.4912 93.207 96.2305 92.4746 96.2305C91.7422 96.2305 91.1768 96.4912 90.7783 97.0127C90.3857 97.5283 90.1895 98.2666 90.1895 99.2275C90.1895 100.188 90.3857 100.93 90.7783 101.451C91.1768 101.973 91.7422 102.233 92.4746 102.233ZM97.3789 99.2275C97.3789 100.634 96.9746 101.838 96.166 102.84C95.3574 103.836 94.1299 104.334 92.4834 104.334C90.8369 104.334 89.6094 103.836 88.8008 102.84C87.9922 101.838 87.5879 100.634 87.5879 99.2275C87.5879 97.8447 87.9922 96.6465 88.8008 95.6328C89.6094 94.6191 90.8369 94.1123 92.4834 94.1123C94.1299 94.1123 95.3574 94.6191 96.166 95.6328C96.9746 96.6465 97.3789 97.8447 97.3789 99.2275ZM105.781 99.21C105.781 98.4717 105.611 97.8184 105.271 97.25C104.938 96.6816 104.393 96.3975 103.637 96.3975C102.729 96.3975 102.104 96.8281 101.765 97.6895C101.589 98.1465 101.501 98.7266 101.501 99.4297C101.501 100.543 101.797 101.325 102.389 101.776C102.74 102.04 103.156 102.172 103.637 102.172C104.334 102.172 104.864 101.902 105.228 101.363C105.597 100.824 105.781 100.106 105.781 99.21ZM104.357 94.209C105.477 94.209 106.423 94.6221 107.196 95.4482C107.976 96.2744 108.365 97.4873 108.365 99.0869C108.365 100.774 107.984 102.061 107.223 102.945C106.467 103.83 105.491 104.272 104.296 104.272C103.534 104.272 102.901 104.082 102.397 103.701C102.122 103.49 101.853 103.183 101.589 102.778V107.771H99.1104V94.4199H101.51V95.835C101.779 95.4189 102.066 95.0908 102.371 94.8506C102.928 94.4229 103.59 94.209 104.357 94.209ZM113.964 96.2305C113.384 96.2305 112.933 96.4121 112.61 96.7754C112.294 97.1387 112.095 97.6309 112.013 98.252H115.906C115.865 97.5898 115.663 97.0889 115.3 96.749C114.942 96.4033 114.497 96.2305 113.964 96.2305ZM113.964 94.165C114.761 94.165 115.479 94.3145 116.117 94.6133C116.756 94.9121 117.283 95.3838 117.699 96.0283C118.074 96.5967 118.317 97.2559 118.429 98.0059C118.493 98.4453 118.52 99.0781 118.508 99.9043H111.951C111.986 100.865 112.288 101.539 112.856 101.926C113.202 102.166 113.618 102.286 114.104 102.286C114.62 102.286 115.039 102.14 115.361 101.847C115.537 101.688 115.692 101.469 115.827 101.188H118.385C118.32 101.756 118.024 102.333 117.497 102.919C116.677 103.851 115.528 104.316 114.052 104.316C112.833 104.316 111.758 103.924 110.826 103.139C109.895 102.354 109.429 101.076 109.429 99.3066C109.429 97.6484 109.848 96.377 110.686 95.4922C111.529 94.6074 112.622 94.165 113.964 94.165ZM125.513 94.1914C126.503 94.1914 127.312 94.4521 127.938 94.9736C128.571 95.4893 128.888 96.3477 128.888 97.5488V104H126.321V98.1729C126.321 97.6689 126.254 97.2822 126.119 97.0127C125.873 96.5205 125.404 96.2744 124.713 96.2744C123.863 96.2744 123.28 96.6348 122.964 97.3555C122.8 97.7363 122.718 98.2227 122.718 98.8145V104H120.222V94.4375H122.639V95.835C122.961 95.3428 123.266 94.9883 123.553 94.7715C124.068 94.3848 124.722 94.1914 125.513 94.1914ZM136.49 99.3418C136.332 99.4414 136.171 99.5234 136.007 99.5879C135.849 99.6465 135.629 99.7021 135.348 99.7549L134.785 99.8604C134.258 99.9541 133.88 100.068 133.651 100.203C133.265 100.432 133.071 100.786 133.071 101.267C133.071 101.694 133.188 102.005 133.423 102.198C133.663 102.386 133.953 102.479 134.293 102.479C134.832 102.479 135.327 102.321 135.778 102.005C136.235 101.688 136.473 101.111 136.49 100.273V99.3418ZM134.97 98.1729C135.433 98.1143 135.764 98.041 135.963 97.9531C136.32 97.8008 136.499 97.5635 136.499 97.2412C136.499 96.8486 136.361 96.5791 136.086 96.4326C135.816 96.2803 135.418 96.2041 134.891 96.2041C134.299 96.2041 133.88 96.3506 133.634 96.6436C133.458 96.8604 133.341 97.1533 133.282 97.5225H130.865C130.918 96.6846 131.152 95.9961 131.568 95.457C132.23 94.6133 133.367 94.1914 134.979 94.1914C136.027 94.1914 136.959 94.3994 137.773 94.8154C138.588 95.2314 138.995 96.0166 138.995 97.1709V101.565C138.995 101.87 139.001 102.239 139.013 102.673C139.03 103.001 139.08 103.224 139.162 103.341C139.244 103.458 139.367 103.555 139.531 103.631V104H136.807C136.73 103.807 136.678 103.625 136.648 103.455C136.619 103.285 136.596 103.092 136.578 102.875C136.232 103.25 135.834 103.569 135.383 103.833C134.844 104.144 134.234 104.299 133.555 104.299C132.688 104.299 131.97 104.053 131.401 103.561C130.839 103.062 130.558 102.359 130.558 101.451C130.558 100.273 131.012 99.4209 131.92 98.8936C132.418 98.6064 133.15 98.4014 134.117 98.2783L134.97 98.1729ZM145.341 101.943C145.927 101.943 146.422 101.724 146.826 101.284C147.23 100.839 147.433 100.133 147.433 99.166C147.433 98.2578 147.239 97.5664 146.853 97.0918C146.472 96.6172 145.959 96.3799 145.314 96.3799C144.436 96.3799 143.829 96.793 143.495 97.6191C143.319 98.0586 143.231 98.6006 143.231 99.2451C143.231 99.8018 143.325 100.297 143.513 100.73C143.853 101.539 144.462 101.943 145.341 101.943ZM144.717 94.1914C145.197 94.1914 145.616 94.2646 145.974 94.4111C146.583 94.6631 147.075 95.126 147.45 95.7998V94.4199H149.885V103.508C149.885 104.744 149.677 105.676 149.261 106.303C148.546 107.381 147.175 107.92 145.147 107.92C143.923 107.92 142.924 107.68 142.15 107.199C141.377 106.719 140.949 106.001 140.867 105.046H143.592C143.662 105.339 143.776 105.55 143.935 105.679C144.204 105.907 144.658 106.021 145.297 106.021C146.199 106.021 146.803 105.72 147.107 105.116C147.307 104.729 147.406 104.079 147.406 103.165V102.55C147.166 102.96 146.908 103.268 146.633 103.473C146.135 103.854 145.487 104.044 144.69 104.044C143.46 104.044 142.476 103.613 141.737 102.752C141.005 101.885 140.639 100.713 140.639 99.2363C140.639 97.8125 140.993 96.6172 141.702 95.6504C142.411 94.6777 143.416 94.1914 144.717 94.1914ZM157.514 94.1738C158.105 94.1738 158.642 94.2764 159.122 94.4814C159.608 94.6865 160.007 95 160.317 95.4219C160.581 95.7793 160.742 96.1484 160.801 96.5293C160.859 96.9043 160.889 97.5195 160.889 98.375V104H158.331V98.1729C158.331 97.6572 158.243 97.2412 158.067 96.9248C157.839 96.4795 157.405 96.2568 156.767 96.2568C156.104 96.2568 155.601 96.4795 155.255 96.9248C154.915 97.3643 154.745 97.9941 154.745 98.8145V104H152.249V91.0889H154.745V95.668C155.108 95.1113 155.527 94.7246 156.002 94.5078C156.482 94.2852 156.986 94.1738 157.514 94.1738ZM167.015 96.2305C166.435 96.2305 165.983 96.4121 165.661 96.7754C165.345 97.1387 165.146 97.6309 165.063 98.252H168.957C168.916 97.5898 168.714 97.0889 168.351 96.749C167.993 96.4033 167.548 96.2305 167.015 96.2305ZM167.015 94.165C167.812 94.165 168.529 94.3145 169.168 94.6133C169.807 94.9121 170.334 95.3838 170.75 96.0283C171.125 96.5967 171.368 97.2559 171.479 98.0059C171.544 98.4453 171.57 99.0781 171.559 99.9043H165.002C165.037 100.865 165.339 101.539 165.907 101.926C166.253 102.166 166.669 102.286 167.155 102.286C167.671 102.286 168.09 102.14 168.412 101.847C168.588 101.688 168.743 101.469 168.878 101.188H171.436C171.371 101.756 171.075 102.333 170.548 102.919C169.728 103.851 168.579 104.316 167.103 104.316C165.884 104.316 164.809 103.924 163.877 103.139C162.945 102.354 162.479 101.076 162.479 99.3066C162.479 97.6484 162.898 96.377 163.736 95.4922C164.58 94.6074 165.673 94.165 167.015 94.165ZM178.563 94.1914C179.554 94.1914 180.362 94.4521 180.989 94.9736C181.622 95.4893 181.938 96.3477 181.938 97.5488V104H179.372V98.1729C179.372 97.6689 179.305 97.2822 179.17 97.0127C178.924 96.5205 178.455 96.2744 177.764 96.2744C176.914 96.2744 176.331 96.6348 176.015 97.3555C175.851 97.7363 175.769 98.2227 175.769 98.8145V104H173.272V94.4375H175.689V95.835C176.012 95.3428 176.316 94.9883 176.604 94.7715C177.119 94.3848 177.772 94.1914 178.563 94.1914ZM189.453 104V91.0449H192.134V95.9844H197.196V91.0449H199.886V104H197.196V98.2168H192.134V104H189.453Z" fill="#333333"/>
<path d="M14.083 33H13.2041V23.3906L10.3037 24.4673V23.647L13.9365 22.2993H14.083V33ZM20.272 27.1919H21.1802C21.6831 27.1919 22.1226 27.104 22.4985 26.9282C22.8745 26.7476 23.1602 26.5034 23.3555 26.1958C23.5557 25.8833 23.6558 25.5244 23.6558 25.1191C23.6558 24.4355 23.4629 23.9009 23.0771 23.5151C22.6914 23.1294 22.1372 22.9365 21.4146 22.9365C20.731 22.9365 20.1694 23.1392 19.73 23.5444C19.2954 23.9448 19.0781 24.4746 19.0781 25.1338H18.1992C18.1992 24.582 18.3384 24.0791 18.6167 23.625C18.895 23.166 19.2808 22.812 19.7739 22.563C20.2671 22.314 20.814 22.1895 21.4146 22.1895C22.3813 22.1895 23.1431 22.4531 23.6997 22.9805C24.2563 23.5078 24.5347 24.2305 24.5347 25.1484C24.5347 25.6611 24.3711 26.1348 24.0439 26.5693C23.7217 26.999 23.2773 27.3213 22.7109 27.5361C23.375 27.7217 23.8779 28.0415 24.2197 28.4956C24.5615 28.9448 24.7324 29.4819 24.7324 30.1069C24.7324 31.02 24.4346 31.7549 23.8389 32.3115C23.2432 32.8682 22.4473 33.1465 21.4512 33.1465C20.8164 33.1465 20.2329 33.0195 19.7007 32.7656C19.1733 32.5117 18.7632 32.1577 18.4702 31.7036C18.1821 31.2446 18.0381 30.7124 18.0381 30.1069H18.917C18.917 30.7856 19.1538 31.3398 19.6274 31.7695C20.1011 32.1943 20.709 32.4067 21.4512 32.4067C22.208 32.4067 22.7964 32.2139 23.2163 31.8281C23.6411 31.4375 23.8535 30.8735 23.8535 30.1362C23.8535 29.4233 23.624 28.8789 23.165 28.5029C22.7109 28.127 22.0396 27.939 21.1509 27.939H20.272V27.1919ZM26.7026 32.4727C26.7026 32.3018 26.7563 32.1577 26.8638 32.0405C26.9761 31.9185 27.1299 31.8574 27.3252 31.8574C27.5205 31.8574 27.6743 31.9185 27.7866 32.0405C27.8989 32.1577 27.9551 32.3018 27.9551 32.4727C27.9551 32.6436 27.8989 32.7852 27.7866 32.8975C27.6743 33.0049 27.5205 33.0586 27.3252 33.0586C27.1299 33.0586 26.9761 33.0049 26.8638 32.8975C26.7563 32.7852 26.7026 32.6436 26.7026 32.4727ZM34.3125 33H33.4336V23.3906L30.5332 24.4673V23.647L34.166 22.2993H34.3125V33ZM44.0244 28.0635C43.7119 28.5225 43.3237 28.8789 42.8599 29.1328C42.396 29.3818 41.8931 29.5063 41.3511 29.5063C40.7456 29.5063 40.2109 29.3501 39.7471 29.0376C39.2832 28.7251 38.9243 28.293 38.6704 27.7412C38.4165 27.1895 38.2896 26.5864 38.2896 25.9321C38.2896 25.229 38.4238 24.5894 38.6924 24.0132C38.9658 23.437 39.3442 22.9902 39.8276 22.6729C40.3159 22.3506 40.8774 22.1895 41.5122 22.1895C42.5815 22.1895 43.4141 22.5654 44.0098 23.3174C44.6055 24.0645 44.9033 25.1265 44.9033 26.5034V27.2944C44.9033 29.2183 44.4932 30.6636 43.6729 31.6304C42.8525 32.5972 41.6001 33.0806 39.9155 33.0806H39.7544L39.7617 32.3188H40.0693C41.3438 32.2993 42.313 31.938 42.9771 31.2349C43.6411 30.5317 43.9902 29.4746 44.0244 28.0635ZM41.4609 28.752C42.0469 28.752 42.5718 28.5786 43.0356 28.2319C43.5044 27.8804 43.8364 27.4263 44.0317 26.8696V26.3643C44.0317 25.2803 43.8047 24.4404 43.3506 23.8447C42.9014 23.2441 42.2935 22.9438 41.5269 22.9438C40.8335 22.9438 40.2646 23.2246 39.8203 23.7861C39.376 24.3428 39.1538 25.0459 39.1538 25.8955C39.1538 26.7109 39.3662 27.3921 39.791 27.939C40.2207 28.481 40.7773 28.752 41.4609 28.752Z" fill="#333333"/>
<path d="M79.5986 43.958H77.2061L76.6787 47H76.4199L77.6455 39.8906H79.8232C80.2529 39.8939 80.6273 39.9834 80.9463 40.1592C81.2686 40.3317 81.5013 40.5726 81.6445 40.8818C81.7878 41.1911 81.8268 41.5443 81.7617 41.9414C81.6803 42.4232 81.4655 42.8431 81.1172 43.2012C80.7721 43.556 80.3571 43.7871 79.8721 43.8945L81.1855 46.9316L81.1758 47H80.9072L79.5986 43.958ZM77.25 43.6943H79.3398C79.877 43.6943 80.3457 43.5299 80.7461 43.2012C81.1497 42.8724 81.4004 42.4525 81.498 41.9414C81.5957 41.4043 81.4834 40.973 81.1611 40.6475C80.8389 40.3187 80.3669 40.1543 79.7451 40.1543H77.8652L77.25 43.6943ZM83.0312 47H82.7676L83.6758 41.7168H83.9395L83.0312 47ZM83.832 40.0566C83.8418 39.9915 83.876 39.9313 83.9346 39.876C83.9964 39.8206 84.0615 39.793 84.1299 39.793C84.2048 39.793 84.265 39.8223 84.3105 39.8809C84.3594 39.9395 84.3773 40.0046 84.3643 40.0762C84.3545 40.1413 84.3187 40.2015 84.2568 40.2568C84.195 40.3089 84.1299 40.335 84.0615 40.335C83.9867 40.3317 83.9264 40.3024 83.8809 40.2471C83.8353 40.1917 83.819 40.1283 83.832 40.0566ZM88.1924 45.7061C88.3096 45.0941 87.8636 44.6595 86.8545 44.4023L86.3125 44.2461C85.5638 44.002 85.235 43.5706 85.3262 42.9521C85.3848 42.5518 85.5964 42.2295 85.9609 41.9854C86.3255 41.7412 86.7487 41.6191 87.2305 41.6191C87.7611 41.6191 88.1761 41.7559 88.4756 42.0293C88.7751 42.3027 88.902 42.6689 88.8564 43.1279H88.5928C88.6318 42.7568 88.5228 42.4574 88.2656 42.2295C88.0085 41.9984 87.665 41.8828 87.2354 41.8828C86.8187 41.8828 86.4557 41.9788 86.1465 42.1709C85.8372 42.363 85.6517 42.6201 85.5898 42.9424C85.4922 43.46 85.7917 43.8278 86.4883 44.0459L87.2158 44.2559L87.46 44.3389C88.2184 44.6156 88.5505 45.0729 88.4561 45.7109C88.3942 46.1309 88.1761 46.4678 87.8018 46.7217C87.4274 46.9723 86.9798 47.0977 86.459 47.0977C85.9154 47.0977 85.4808 46.9658 85.1553 46.7021C84.8298 46.4352 84.6898 46.0869 84.7354 45.6572H84.9941C84.9779 46.0218 85.0983 46.3099 85.3555 46.5215C85.6159 46.7298 85.9821 46.834 86.4541 46.834C86.9033 46.8242 87.2907 46.7168 87.6162 46.5117C87.9417 46.3034 88.1338 46.0348 88.1924 45.7061ZM89.8623 44.3047C89.9535 43.7741 90.113 43.2988 90.3408 42.8789C90.5719 42.459 90.8503 42.1449 91.1758 41.9365C91.5013 41.7249 91.8561 41.6191 92.2402 41.6191C92.6113 41.6191 92.9336 41.7119 93.207 41.8975C93.4837 42.083 93.6839 42.3467 93.8076 42.6885L94.3643 39.5H94.6279L93.334 47H93.0703L93.2363 46.1553C93.002 46.4515 92.722 46.6826 92.3965 46.8486C92.071 47.0146 91.7161 47.0977 91.332 47.0977C90.987 47.0977 90.6973 47.013 90.4629 46.8438C90.2285 46.6712 90.0544 46.4206 89.9404 46.0918C89.8298 45.7598 89.7809 45.3952 89.7939 44.998C89.8005 44.8125 89.8232 44.5814 89.8623 44.3047ZM90.0625 44.9248C90.0365 45.2829 90.0641 45.6117 90.1455 45.9111C90.2269 46.2106 90.3669 46.4401 90.5654 46.5996C90.7673 46.7559 91.0195 46.834 91.3223 46.834C91.7454 46.8372 92.1247 46.7363 92.46 46.5312C92.7985 46.3262 93.0752 46.0462 93.29 45.6914L93.7295 43.2158C93.6611 42.7926 93.4967 42.4655 93.2363 42.2344C92.9792 42 92.6471 41.8828 92.2402 41.8828C91.8268 41.8828 91.459 42.0212 91.1367 42.2979C90.8145 42.5713 90.5622 42.9521 90.3799 43.4404C90.1976 43.9287 90.0918 44.4235 90.0625 44.9248ZM98.3438 47C98.334 46.7135 98.3649 46.3913 98.4365 46.0332C98.1631 46.3685 97.8376 46.6305 97.46 46.8193C97.0856 47.0081 96.6787 47.1009 96.2393 47.0977C95.7965 47.0977 95.4434 46.9609 95.1797 46.6875C94.916 46.4141 94.8167 46.0723 94.8818 45.6621C94.9632 45.1641 95.2383 44.7751 95.707 44.4951C96.179 44.2152 96.7764 44.0671 97.499 44.0508H98.7539L98.8955 43.2793C98.9639 42.8464 98.8776 42.5062 98.6367 42.2588C98.3958 42.0081 98.0492 41.8828 97.5967 41.8828C97.154 41.8828 96.7536 42.0016 96.3955 42.2393C96.0374 42.4736 95.8128 42.7829 95.7217 43.167L95.458 43.1572C95.5492 42.7048 95.7998 42.3353 96.21 42.0488C96.6201 41.7624 97.0824 41.6191 97.5967 41.6191C98.1338 41.6191 98.5456 41.7721 98.832 42.0781C99.1185 42.3809 99.2243 42.7845 99.1494 43.2891L98.666 46.1113L98.6318 46.4434C98.6156 46.6159 98.6221 46.7868 98.6514 46.9561L98.6465 47H98.3438ZM96.2344 46.8389C96.6706 46.8454 97.0856 46.7412 97.4795 46.5264C97.8734 46.3083 98.2087 45.9909 98.4854 45.5742L98.71 44.3193H97.5283C96.8708 44.3324 96.3271 44.4593 95.8975 44.7002C95.471 44.9378 95.2188 45.265 95.1406 45.6816C95.082 46.0039 95.1585 46.2757 95.3701 46.4971C95.585 46.7184 95.873 46.8324 96.2344 46.8389ZM100.492 47H100.229L101.518 39.5H101.781L100.492 47ZM105.653 45.7061C105.771 45.0941 105.325 44.6595 104.315 44.4023L103.773 44.2461C103.025 44.002 102.696 43.5706 102.787 42.9521C102.846 42.5518 103.057 42.2295 103.422 41.9854C103.786 41.7412 104.21 41.6191 104.691 41.6191C105.222 41.6191 105.637 41.7559 105.937 42.0293C106.236 42.3027 106.363 42.6689 106.317 43.1279H106.054C106.093 42.7568 105.984 42.4574 105.727 42.2295C105.469 41.9984 105.126 41.8828 104.696 41.8828C104.28 41.8828 103.917 41.9788 103.607 42.1709C103.298 42.363 103.113 42.6201 103.051 42.9424C102.953 43.46 103.253 43.8278 103.949 44.0459L104.677 44.2559L104.921 44.3389C105.679 44.6156 106.011 45.0729 105.917 45.7109C105.855 46.1309 105.637 46.4678 105.263 46.7217C104.888 46.9723 104.441 47.0977 103.92 47.0977C103.376 47.0977 102.942 46.9658 102.616 46.7021C102.291 46.4352 102.151 46.0869 102.196 45.6572H102.455C102.439 46.0218 102.559 46.3099 102.816 46.5215C103.077 46.7298 103.443 46.834 103.915 46.834C104.364 46.8242 104.752 46.7168 105.077 46.5117C105.403 46.3034 105.595 46.0348 105.653 45.7061ZM108.7 46.5703L111.303 41.7217H111.591L108.783 47H108.524L107.348 41.7119H107.621L108.7 46.5703ZM113.637 47.0977C113.214 47.0977 112.849 46.9788 112.543 46.7412C112.237 46.5036 112.016 46.1797 111.879 45.7695C111.745 45.3561 111.711 44.9232 111.776 44.4707L111.815 44.2266C111.894 43.7513 112.06 43.307 112.313 42.8936C112.571 42.4801 112.875 42.1644 113.227 41.9463C113.578 41.7282 113.954 41.6191 114.354 41.6191C114.888 41.6191 115.307 41.8161 115.609 42.21C115.912 42.6038 116.041 43.1084 115.995 43.7236L115.98 43.875L115.937 44.1826H112.099L112.045 44.4707C111.999 44.7441 111.998 45.0208 112.04 45.3008C112.112 45.7663 112.289 46.139 112.572 46.4189C112.859 46.6956 113.212 46.8356 113.632 46.8389C114.241 46.8454 114.789 46.6045 115.277 46.1162L115.453 46.2529C114.971 46.8161 114.366 47.0977 113.637 47.0977ZM114.354 41.8828C113.853 41.8828 113.404 42.0716 113.007 42.4492C112.613 42.8236 112.32 43.3135 112.128 43.9189H115.692L115.707 43.8555C115.749 43.6211 115.753 43.3867 115.717 43.1523C115.658 42.7682 115.505 42.4606 115.258 42.2295C115.014 41.9984 114.713 41.8828 114.354 41.8828ZM117.89 41.7168L116.879 47.5762C116.794 48.0677 116.609 48.4502 116.322 48.7236C116.036 48.9971 115.686 49.1338 115.272 49.1338C115.149 49.1338 114.993 49.1012 114.804 49.0361L114.853 48.7822C115.006 48.8408 115.147 48.8701 115.277 48.8701C115.609 48.8766 115.897 48.7627 116.142 48.5283C116.386 48.2939 116.542 47.9766 116.61 47.5762L117.626 41.7168H117.89ZM117.807 40.0566C117.816 39.9915 117.851 39.9313 117.909 39.876C117.971 39.8206 118.036 39.793 118.104 39.793C118.179 39.793 118.24 39.8223 118.285 39.8809C118.334 39.9395 118.352 40.0046 118.339 40.0762C118.329 40.1413 118.293 40.2015 118.231 40.2568C118.17 40.3089 118.104 40.335 118.036 40.335C117.961 40.3317 117.901 40.3024 117.855 40.2471C117.81 40.1917 117.794 40.1283 117.807 40.0566ZM122.987 43.2402H123.422C123.985 43.2402 124.47 43.1019 124.877 42.8252C125.284 42.5452 125.53 42.1709 125.614 41.7021C125.699 41.2204 125.609 40.8265 125.346 40.5205C125.082 40.2113 124.703 40.0566 124.208 40.0566C123.7 40.0566 123.256 40.2129 122.875 40.5254C122.497 40.8346 122.255 41.2448 122.147 41.7559L121.884 41.751C121.985 41.1715 122.253 40.7012 122.689 40.3398C123.126 39.9753 123.632 39.793 124.208 39.793C124.774 39.793 125.215 39.9736 125.531 40.335C125.847 40.693 125.963 41.1553 125.878 41.7217C125.826 42.0895 125.665 42.4183 125.395 42.708C125.128 42.9977 124.773 43.2174 124.33 43.3672C124.75 43.4844 125.066 43.6992 125.277 44.0117C125.492 44.321 125.567 44.6888 125.502 45.1152C125.414 45.6979 125.152 46.1748 124.716 46.5459C124.28 46.9137 123.759 47.0977 123.153 47.0977C122.753 47.0977 122.395 47.0098 122.079 46.834C121.767 46.6582 121.534 46.4108 121.381 46.0918C121.228 45.7695 121.174 45.4131 121.22 45.0225H121.483C121.415 45.5368 121.54 45.9681 121.859 46.3164C122.178 46.6615 122.608 46.834 123.148 46.834C123.692 46.834 124.153 46.6794 124.53 46.3701C124.911 46.0609 125.146 45.6491 125.233 45.1348C125.318 44.6204 125.199 44.2217 124.877 43.9385C124.558 43.6553 124.068 43.5137 123.407 43.5137H122.953L122.987 43.2402ZM130.102 44.7979H131.288L131.254 45.0615H130.058L129.721 47H129.462L129.794 45.0615L126.454 45.0566L126.474 44.915L130.624 39.8955L130.946 39.8906L130.102 44.7979ZM126.913 44.7979H129.838L130.629 40.2471L130.131 40.8965L126.913 44.7979ZM131.498 48.2451L131.332 48.0791C131.68 47.6885 131.89 47.2881 131.962 46.8779L132.074 46.2236H132.338L132.235 46.8389C132.141 47.3988 131.895 47.8675 131.498 48.2451ZM140.941 41.6973C140.876 42.0846 140.705 42.4248 140.429 42.7178C140.152 43.0075 139.799 43.224 139.369 43.3672C139.779 43.5039 140.092 43.7334 140.307 44.0557C140.525 44.3747 140.603 44.7393 140.541 45.1494C140.45 45.7321 140.17 46.2025 139.701 46.5605C139.232 46.9186 138.676 47.0977 138.031 47.0977C137.618 47.0977 137.253 47.0163 136.938 46.8535C136.625 46.6875 136.397 46.458 136.254 46.165C136.111 45.8688 136.072 45.5303 136.137 45.1494C136.208 44.7262 136.397 44.36 136.703 44.0508C137.009 43.7383 137.41 43.5072 137.904 43.3574C137.543 43.2174 137.274 42.9977 137.099 42.6982C136.926 42.3988 136.869 42.0651 136.928 41.6973C137.016 41.1406 137.274 40.6849 137.704 40.3301C138.134 39.972 138.642 39.793 139.228 39.793C139.595 39.793 139.923 39.876 140.209 40.042C140.499 40.2048 140.707 40.4326 140.834 40.7256C140.964 41.0153 141 41.3392 140.941 41.6973ZM140.268 45.1738C140.326 44.8613 140.294 44.5781 140.17 44.3242C140.049 44.0703 139.851 43.8685 139.574 43.7188C139.298 43.569 138.988 43.4941 138.646 43.4941C138.1 43.4941 137.61 43.6504 137.177 43.9629C136.747 44.2754 136.487 44.679 136.396 45.1738C136.308 45.6654 136.418 46.0658 136.728 46.375C137.04 46.681 137.473 46.834 138.026 46.834C138.586 46.834 139.076 46.681 139.496 46.375C139.919 46.0658 140.176 45.6654 140.268 45.1738ZM140.683 41.6729C140.764 41.2204 140.66 40.8379 140.37 40.5254C140.08 40.2129 139.701 40.0566 139.232 40.0566C138.728 40.0566 138.284 40.2096 137.899 40.5156C137.519 40.8184 137.284 41.2041 137.196 41.6729C137.112 42.1221 137.209 42.4948 137.489 42.791C137.772 43.084 138.157 43.2305 138.642 43.2305C139.136 43.2305 139.577 43.0856 139.965 42.7959C140.355 42.5062 140.595 42.1318 140.683 41.6729ZM145.595 47H141.469L141.498 46.7363L144.687 43.5186C145.325 42.861 145.689 42.2555 145.78 41.7021C145.865 41.2204 145.78 40.8265 145.526 40.5205C145.272 40.2113 144.892 40.0566 144.384 40.0566C143.889 40.0566 143.453 40.2324 143.075 40.584C142.698 40.9323 142.457 41.3701 142.353 41.8975H142.089C142.193 41.292 142.46 40.7907 142.89 40.3936C143.323 39.9932 143.819 39.793 144.379 39.793C144.958 39.793 145.403 39.9688 145.712 40.3203C146.024 40.6686 146.138 41.1292 146.054 41.7021C145.969 42.2848 145.591 42.9294 144.921 43.6357L141.859 46.7363H145.629L145.595 47ZM151.234 39.793L151.2 40.0566C150.282 40.0566 149.507 40.3545 148.876 40.9502C148.244 41.5426 147.799 42.3662 147.538 43.4209C147.746 43.141 147.997 42.9082 148.29 42.7227C148.707 42.459 149.158 42.3271 149.643 42.3271C150.036 42.3271 150.37 42.4297 150.644 42.6348C150.917 42.8398 151.109 43.1198 151.22 43.4746C151.334 43.8294 151.36 44.2233 151.298 44.6562C151.229 45.1055 151.08 45.5221 150.849 45.9062C150.621 46.2904 150.344 46.585 150.019 46.79C149.693 46.9951 149.35 47.0977 148.988 47.0977C148.559 47.0977 148.189 46.9886 147.88 46.7705C147.574 46.5492 147.353 46.2432 147.216 45.8525C147.079 45.4619 147.043 45.0436 147.108 44.5977L147.221 43.8701C147.416 42.6136 147.859 41.6208 148.549 40.8916C149.239 40.1592 150.134 39.793 151.234 39.793ZM149.608 42.5908C149.153 42.5908 148.71 42.7275 148.28 43.001C147.854 43.2712 147.585 43.5934 147.475 43.9678L147.372 44.5928C147.31 44.9997 147.336 45.3789 147.45 45.7305C147.564 46.082 147.753 46.3555 148.017 46.5508C148.28 46.7461 148.603 46.8421 148.983 46.8389C149.381 46.8356 149.745 46.6956 150.077 46.4189C150.412 46.1423 150.673 45.7646 150.858 45.2861C151.044 44.8076 151.107 44.3438 151.049 43.8945C150.993 43.4844 150.839 43.1654 150.585 42.9375C150.331 42.7064 150.006 42.5908 149.608 42.5908ZM154.096 47.0977C153.725 47.0977 153.412 47.0049 153.158 46.8193C152.904 46.6338 152.717 46.3604 152.597 45.999C152.479 45.6344 152.431 45.2194 152.45 44.7539L152.489 44.2852L152.724 42.8984C152.89 41.9316 153.194 41.1715 153.637 40.6182C154.079 40.0648 154.634 39.7881 155.302 39.7881C155.679 39.7881 155.995 39.8825 156.249 40.0713C156.503 40.2568 156.688 40.5335 156.806 40.9014C156.923 41.2692 156.97 41.681 156.947 42.1367L156.898 42.6641L156.659 44.0508C156.49 45.0111 156.184 45.7598 155.741 46.2969C155.299 46.8307 154.75 47.0977 154.096 47.0977ZM156.684 41.5996C156.641 41.0853 156.503 40.6995 156.269 40.4424C156.034 40.182 155.714 40.0518 155.307 40.0518C154.721 40.0518 154.226 40.3024 153.822 40.8037C153.422 41.3018 153.142 42.0098 152.982 42.9277L152.758 44.2461L152.719 44.6611C152.686 45.0648 152.714 45.4375 152.802 45.7793C152.89 46.1211 153.043 46.3831 153.261 46.5654C153.479 46.7445 153.756 46.834 154.091 46.834C154.674 46.834 155.163 46.5882 155.561 46.0967C155.961 45.6019 156.239 44.915 156.396 44.0361L156.601 42.874C156.685 42.3955 156.713 41.9707 156.684 41.5996ZM162.064 46.3066L162.128 46.7217L162.338 46.2871L165.648 39.8955H165.941L162.265 47H161.947L160.468 39.8857H160.746L162.064 46.3066ZM166.127 47H165.863L166.771 41.7168H167.035L166.127 47ZM166.928 40.0566C166.938 39.9915 166.972 39.9313 167.03 39.876C167.092 39.8206 167.157 39.793 167.226 39.793C167.3 39.793 167.361 39.8223 167.406 39.8809C167.455 39.9395 167.473 40.0046 167.46 40.0762C167.45 40.1413 167.414 40.2015 167.353 40.2568C167.291 40.3089 167.226 40.335 167.157 40.335C167.082 40.3317 167.022 40.3024 166.977 40.2471C166.931 40.1917 166.915 40.1283 166.928 40.0566ZM169.853 47.0977C169.488 47.0977 169.164 47.0179 168.881 46.8584C168.601 46.6989 168.393 46.4678 168.256 46.165L168.104 47H167.841L169.135 39.5H169.398L168.832 42.6787C169.076 42.3369 169.361 42.0749 169.687 41.8926C170.015 41.7103 170.368 41.6191 170.746 41.6191C171.088 41.6191 171.379 41.7038 171.62 41.873C171.861 42.0423 172.037 42.2913 172.147 42.6201C172.261 42.9456 172.312 43.307 172.299 43.7041C172.289 43.9124 172.27 44.1126 172.24 44.3047L172.177 44.627C172.007 45.3919 171.718 45.9958 171.308 46.4385C170.897 46.8779 170.412 47.0977 169.853 47.0977ZM171.967 44.3047L172.025 43.7822C172.051 43.4274 172.021 43.0986 171.933 42.7959C171.848 42.4932 171.703 42.2653 171.498 42.1123C171.296 41.9593 171.047 41.8828 170.751 41.8828C170.318 41.8828 169.91 42.013 169.525 42.2734C169.145 42.5339 168.889 42.8561 168.759 43.2402L168.324 45.6621C168.402 46.0397 168.576 46.3294 168.847 46.5312C169.12 46.7331 169.455 46.834 169.853 46.834C170.377 46.834 170.821 46.6191 171.186 46.1895C171.55 45.7565 171.804 45.1624 171.947 44.4072L171.967 44.3047ZM174.779 46.5898L174.828 46.4873L177.431 41.7217H177.729L174.389 47.8887C174.148 48.3444 173.904 48.6634 173.656 48.8457C173.409 49.0312 173.134 49.1273 172.831 49.1338C172.707 49.1338 172.577 49.1159 172.44 49.0801L172.47 48.8311C172.636 48.8604 172.746 48.875 172.802 48.875C173.235 48.875 173.609 48.6341 173.925 48.1523L174.12 47.8301L174.594 46.9463L173.451 41.7119H173.729L174.779 46.5898ZM184.848 39.8906H185.111L184.271 44.7588C184.148 45.4749 183.869 46.0446 183.437 46.4678C183.007 46.8877 182.494 47.0977 181.898 47.0977C181.28 47.0977 180.824 46.9089 180.531 46.5312C180.238 46.1504 180.139 45.654 180.233 45.042H180.497C180.455 45.3024 180.451 45.5417 180.487 45.7598C180.543 46.1081 180.691 46.375 180.932 46.5605C181.176 46.7428 181.496 46.834 181.894 46.834C182.424 46.834 182.882 46.6419 183.266 46.2578C183.65 45.8737 183.896 45.374 184.003 44.7588L184.848 39.8906Z" fill="#707070"/>
<path d="M76.752 118.736H80.2822L80.248 119H76.4346L77.665 111.891H77.9336L76.752 118.736ZM84.584 119L84.75 118.146C84.5189 118.465 84.2389 118.704 83.9102 118.863C83.5814 119.02 83.2201 119.098 82.8262 119.098C82.416 119.098 82.0905 118.989 81.8496 118.771C81.612 118.552 81.4736 118.242 81.4346 117.838C81.4118 117.581 81.4232 117.315 81.4688 117.042L82.04 113.717H82.3037L81.7227 117.081C81.6868 117.302 81.6755 117.517 81.6885 117.726C81.7048 118.077 81.8105 118.351 82.0059 118.546C82.2012 118.738 82.4714 118.834 82.8164 118.834C83.2917 118.834 83.7197 118.705 84.1006 118.448C84.4814 118.188 84.7321 117.849 84.8525 117.433L85.4922 113.717H85.7607L84.8525 119H84.584ZM86.9033 119L87.7627 113.985H86.8838L86.918 113.717H87.8164L87.9385 112.965C88.0264 112.486 88.2103 112.107 88.4902 111.827C88.7702 111.547 89.1201 111.404 89.54 111.397C89.7451 111.397 89.9502 111.427 90.1553 111.485L90.082 111.729C89.877 111.677 89.6963 111.655 89.54 111.661C89.1982 111.668 88.9085 111.791 88.6709 112.032C88.4333 112.27 88.277 112.597 88.2021 113.014L88.0752 113.717H89.4277L89.3887 113.985H88.0312L87.167 119H86.9033ZM91.3564 112.291L91.1123 113.717H92.2695L92.2354 113.985H91.0635L90.3945 117.853L90.375 118.121C90.3652 118.342 90.4108 118.517 90.5117 118.644C90.6126 118.767 90.7656 118.831 90.9707 118.834C91.0618 118.834 91.2393 118.819 91.5029 118.79L91.5127 119.039C91.363 119.078 91.1855 119.098 90.9805 119.098C90.4271 119.098 90.139 118.813 90.1162 118.243C90.1097 118.077 90.1211 117.908 90.1504 117.735L90.7949 113.985H89.8525L89.8916 113.717H90.8438L91.0879 112.291H91.3564ZM93.6855 114.947C93.9492 114.521 94.2601 114.194 94.6182 113.966C94.9762 113.735 95.3457 113.619 95.7266 113.619C96.1302 113.619 96.4476 113.723 96.6787 113.932C96.9098 114.14 97.0433 114.441 97.0791 114.835C97.0986 115.082 97.0856 115.341 97.04 115.611L96.4541 119H96.1904L96.7764 115.611C96.8154 115.383 96.8317 115.159 96.8252 114.938C96.8089 114.592 96.7064 114.329 96.5176 114.146C96.332 113.964 96.0651 113.875 95.7168 113.878C95.2708 113.884 94.8411 114.059 94.4277 114.4C94.0176 114.739 93.7393 115.144 93.5928 115.616L93.0068 119H92.7432L94.0371 111.5H94.3008L93.6855 114.947ZM101.459 119C101.449 118.714 101.48 118.391 101.552 118.033C101.278 118.368 100.953 118.631 100.575 118.819C100.201 119.008 99.7939 119.101 99.3545 119.098C98.9118 119.098 98.5586 118.961 98.2949 118.688C98.0312 118.414 97.932 118.072 97.9971 117.662C98.0785 117.164 98.3535 116.775 98.8223 116.495C99.2943 116.215 99.8916 116.067 100.614 116.051H101.869L102.011 115.279C102.079 114.846 101.993 114.506 101.752 114.259C101.511 114.008 101.164 113.883 100.712 113.883C100.269 113.883 99.8688 114.002 99.5107 114.239C99.1527 114.474 98.9281 114.783 98.8369 115.167L98.5732 115.157C98.6644 114.705 98.915 114.335 99.3252 114.049C99.7354 113.762 100.198 113.619 100.712 113.619C101.249 113.619 101.661 113.772 101.947 114.078C102.234 114.381 102.34 114.785 102.265 115.289L101.781 118.111L101.747 118.443C101.731 118.616 101.737 118.787 101.767 118.956L101.762 119H101.459ZM99.3496 118.839C99.7858 118.845 100.201 118.741 100.595 118.526C100.989 118.308 101.324 117.991 101.601 117.574L101.825 116.319H100.644C99.986 116.332 99.4424 116.459 99.0127 116.7C98.5863 116.938 98.334 117.265 98.2559 117.682C98.1973 118.004 98.2738 118.276 98.4854 118.497C98.7002 118.718 98.9883 118.832 99.3496 118.839ZM104.813 118.57L107.416 113.722H107.704L104.896 119H104.638L103.461 113.712H103.734L104.813 118.57ZM108.832 114.947C109.096 114.521 109.407 114.194 109.765 113.966C110.123 113.735 110.492 113.619 110.873 113.619C111.277 113.619 111.594 113.723 111.825 113.932C112.056 114.14 112.19 114.441 112.226 114.835C112.245 115.082 112.232 115.341 112.187 115.611L111.601 119H111.337L111.923 115.611C111.962 115.383 111.978 115.159 111.972 114.938C111.955 114.592 111.853 114.329 111.664 114.146C111.479 113.964 111.212 113.875 110.863 113.878C110.417 113.884 109.988 114.059 109.574 114.4C109.164 114.739 108.886 115.144 108.739 115.616L108.153 119H107.89L108.798 113.717H109.062L108.832 114.947ZM116.688 117.706C116.806 117.094 116.36 116.66 115.351 116.402L114.809 116.246C114.06 116.002 113.731 115.571 113.822 114.952C113.881 114.552 114.092 114.229 114.457 113.985C114.822 113.741 115.245 113.619 115.727 113.619C116.257 113.619 116.672 113.756 116.972 114.029C117.271 114.303 117.398 114.669 117.353 115.128H117.089C117.128 114.757 117.019 114.457 116.762 114.229C116.505 113.998 116.161 113.883 115.731 113.883C115.315 113.883 114.952 113.979 114.643 114.171C114.333 114.363 114.148 114.62 114.086 114.942C113.988 115.46 114.288 115.828 114.984 116.046L115.712 116.256L115.956 116.339C116.715 116.616 117.047 117.073 116.952 117.711C116.89 118.131 116.672 118.468 116.298 118.722C115.924 118.972 115.476 119.098 114.955 119.098C114.411 119.098 113.977 118.966 113.651 118.702C113.326 118.435 113.186 118.087 113.231 117.657H113.49C113.474 118.022 113.594 118.31 113.852 118.521C114.112 118.73 114.478 118.834 114.95 118.834C115.399 118.824 115.787 118.717 116.112 118.512C116.438 118.303 116.63 118.035 116.688 117.706ZM120.126 119.098C119.761 119.098 119.438 119.018 119.154 118.858C118.874 118.699 118.666 118.468 118.529 118.165L118.378 119H118.114L119.408 111.5H119.672L119.105 114.679C119.35 114.337 119.634 114.075 119.96 113.893C120.289 113.71 120.642 113.619 121.02 113.619C121.361 113.619 121.653 113.704 121.894 113.873C122.134 114.042 122.31 114.291 122.421 114.62C122.535 114.946 122.585 115.307 122.572 115.704C122.562 115.912 122.543 116.113 122.514 116.305L122.45 116.627C122.281 117.392 121.991 117.996 121.581 118.438C121.171 118.878 120.686 119.098 120.126 119.098ZM122.24 116.305L122.299 115.782C122.325 115.427 122.294 115.099 122.206 114.796C122.121 114.493 121.977 114.265 121.771 114.112C121.57 113.959 121.321 113.883 121.024 113.883C120.591 113.883 120.183 114.013 119.799 114.273C119.418 114.534 119.162 114.856 119.032 115.24L118.598 117.662C118.676 118.04 118.85 118.329 119.12 118.531C119.394 118.733 119.729 118.834 120.126 118.834C120.65 118.834 121.094 118.619 121.459 118.189C121.824 117.757 122.077 117.162 122.221 116.407L122.24 116.305ZM123.568 116.256C123.65 115.764 123.814 115.317 124.062 114.913C124.309 114.509 124.618 114.194 124.989 113.966C125.36 113.735 125.766 113.619 126.205 113.619C126.563 113.619 126.881 113.699 127.157 113.858C127.434 114.018 127.654 114.256 127.816 114.571C127.979 114.884 128.072 115.23 128.095 115.611C128.104 115.833 128.085 116.116 128.036 116.461C127.955 116.952 127.789 117.402 127.538 117.809C127.291 118.215 126.981 118.533 126.61 118.761C126.243 118.985 125.84 119.098 125.404 119.098C125.043 119.098 124.724 119.018 124.447 118.858C124.174 118.696 123.954 118.46 123.788 118.15C123.625 117.838 123.534 117.488 123.515 117.101C123.502 116.882 123.52 116.601 123.568 116.256ZM123.798 117.301C123.863 117.773 124.037 118.147 124.32 118.424C124.604 118.697 124.963 118.834 125.399 118.834C125.91 118.834 126.371 118.655 126.781 118.297C127.195 117.939 127.493 117.455 127.675 116.847C127.825 116.342 127.868 115.865 127.807 115.416C127.735 114.944 127.558 114.571 127.274 114.298C126.994 114.021 126.64 113.883 126.21 113.883C125.699 113.883 125.237 114.065 124.823 114.43C124.41 114.791 124.112 115.271 123.93 115.87C123.78 116.368 123.736 116.845 123.798 117.301ZM132.309 119L132.475 118.146C132.243 118.465 131.964 118.704 131.635 118.863C131.306 119.02 130.945 119.098 130.551 119.098C130.141 119.098 129.815 118.989 129.574 118.771C129.337 118.552 129.198 118.242 129.159 117.838C129.136 117.581 129.148 117.315 129.193 117.042L129.765 113.717H130.028L129.447 117.081C129.411 117.302 129.4 117.517 129.413 117.726C129.429 118.077 129.535 118.351 129.73 118.546C129.926 118.738 130.196 118.834 130.541 118.834C131.016 118.834 131.444 118.705 131.825 118.448C132.206 118.188 132.457 117.849 132.577 117.433L133.217 113.717H133.485L132.577 119H132.309ZM134.564 119H134.301L135.59 111.5H135.854L134.564 119ZM138.217 119.098C137.794 119.098 137.429 118.979 137.123 118.741C136.817 118.504 136.596 118.18 136.459 117.77C136.326 117.356 136.291 116.923 136.356 116.471L136.396 116.227C136.474 115.751 136.64 115.307 136.894 114.894C137.151 114.48 137.455 114.164 137.807 113.946C138.158 113.728 138.534 113.619 138.935 113.619C139.468 113.619 139.887 113.816 140.189 114.21C140.492 114.604 140.621 115.108 140.575 115.724L140.561 115.875L140.517 116.183H136.679L136.625 116.471C136.579 116.744 136.578 117.021 136.62 117.301C136.692 117.766 136.869 118.139 137.152 118.419C137.439 118.696 137.792 118.836 138.212 118.839C138.821 118.845 139.369 118.604 139.857 118.116L140.033 118.253C139.551 118.816 138.946 119.098 138.217 119.098ZM138.935 113.883C138.433 113.883 137.984 114.072 137.587 114.449C137.193 114.824 136.9 115.313 136.708 115.919H140.272L140.287 115.855C140.329 115.621 140.333 115.387 140.297 115.152C140.238 114.768 140.085 114.461 139.838 114.229C139.594 113.998 139.293 113.883 138.935 113.883ZM142.772 118.57L145.375 113.722H145.663L142.855 119H142.597L141.42 113.712H141.693L142.772 118.57ZM149.125 119C149.115 118.714 149.146 118.391 149.218 118.033C148.944 118.368 148.619 118.631 148.241 118.819C147.867 119.008 147.46 119.101 147.021 119.098C146.578 119.098 146.225 118.961 145.961 118.688C145.697 118.414 145.598 118.072 145.663 117.662C145.744 117.164 146.02 116.775 146.488 116.495C146.96 116.215 147.558 116.067 148.28 116.051H149.535L149.677 115.279C149.745 114.846 149.659 114.506 149.418 114.259C149.177 114.008 148.83 113.883 148.378 113.883C147.935 113.883 147.535 114.002 147.177 114.239C146.819 114.474 146.594 114.783 146.503 115.167L146.239 115.157C146.33 114.705 146.581 114.335 146.991 114.049C147.401 113.762 147.864 113.619 148.378 113.619C148.915 113.619 149.327 113.772 149.613 114.078C149.9 114.381 150.006 114.785 149.931 115.289L149.447 118.111L149.413 118.443C149.397 118.616 149.403 118.787 149.433 118.956L149.428 119H149.125ZM147.016 118.839C147.452 118.845 147.867 118.741 148.261 118.526C148.655 118.308 148.99 117.991 149.267 117.574L149.491 116.319H148.31C147.652 116.332 147.108 116.459 146.679 116.7C146.252 116.938 146 117.265 145.922 117.682C145.863 118.004 145.94 118.276 146.151 118.497C146.366 118.718 146.654 118.832 147.016 118.839ZM154.096 113.902L153.778 113.878C153.342 113.878 152.937 114.039 152.562 114.361C152.188 114.684 151.938 115.076 151.811 115.538L151.21 119H150.946L151.854 113.717H152.118L151.913 114.815C152.134 114.438 152.405 114.145 152.724 113.937C153.043 113.725 153.397 113.619 153.788 113.619C153.912 113.619 154.035 113.639 154.159 113.678L154.096 113.902ZM154.374 116.305C154.465 115.774 154.625 115.299 154.853 114.879C155.084 114.459 155.362 114.145 155.688 113.937C156.013 113.725 156.368 113.619 156.752 113.619C157.123 113.619 157.445 113.712 157.719 113.897C157.995 114.083 158.196 114.347 158.319 114.688L158.876 111.5H159.14L157.846 119H157.582L157.748 118.155C157.514 118.451 157.234 118.683 156.908 118.849C156.583 119.015 156.228 119.098 155.844 119.098C155.499 119.098 155.209 119.013 154.975 118.844C154.74 118.671 154.566 118.421 154.452 118.092C154.341 117.76 154.293 117.395 154.306 116.998C154.312 116.812 154.335 116.581 154.374 116.305ZM154.574 116.925C154.548 117.283 154.576 117.612 154.657 117.911C154.739 118.211 154.879 118.44 155.077 118.6C155.279 118.756 155.531 118.834 155.834 118.834C156.257 118.837 156.636 118.736 156.972 118.531C157.31 118.326 157.587 118.046 157.802 117.691L158.241 115.216C158.173 114.793 158.008 114.465 157.748 114.234C157.491 114 157.159 113.883 156.752 113.883C156.339 113.883 155.971 114.021 155.648 114.298C155.326 114.571 155.074 114.952 154.892 115.44C154.709 115.929 154.604 116.424 154.574 116.925ZM161.43 119.098C161.007 119.098 160.642 118.979 160.336 118.741C160.03 118.504 159.809 118.18 159.672 117.77C159.538 117.356 159.504 116.923 159.569 116.471L159.608 116.227C159.687 115.751 159.853 115.307 160.106 114.894C160.364 114.48 160.668 114.164 161.02 113.946C161.371 113.728 161.747 113.619 162.147 113.619C162.681 113.619 163.1 113.816 163.402 114.21C163.705 114.604 163.834 115.108 163.788 115.724L163.773 115.875L163.729 116.183H159.892L159.838 116.471C159.792 116.744 159.791 117.021 159.833 117.301C159.905 117.766 160.082 118.139 160.365 118.419C160.652 118.696 161.005 118.836 161.425 118.839C162.034 118.845 162.582 118.604 163.07 118.116L163.246 118.253C162.764 118.816 162.159 119.098 161.43 119.098ZM162.147 113.883C161.646 113.883 161.197 114.072 160.8 114.449C160.406 114.824 160.113 115.313 159.921 115.919H163.485L163.5 115.855C163.542 115.621 163.546 115.387 163.51 115.152C163.451 114.768 163.298 114.461 163.051 114.229C162.807 113.998 162.506 113.883 162.147 113.883ZM165.385 114.947C165.648 114.521 165.959 114.194 166.317 113.966C166.675 113.735 167.045 113.619 167.426 113.619C167.829 113.619 168.147 113.723 168.378 113.932C168.609 114.14 168.743 114.441 168.778 114.835C168.798 115.082 168.785 115.341 168.739 115.611L168.153 119H167.89L168.476 115.611C168.515 115.383 168.531 115.159 168.524 114.938C168.508 114.592 168.406 114.329 168.217 114.146C168.031 113.964 167.764 113.875 167.416 113.878C166.97 113.884 166.54 114.059 166.127 114.4C165.717 114.739 165.438 115.144 165.292 115.616L164.706 119H164.442L165.351 113.717H165.614L165.385 114.947ZM176.547 111.793L176.513 112.057C175.595 112.057 174.82 112.354 174.188 112.95C173.557 113.543 173.111 114.366 172.851 115.421C173.059 115.141 173.31 114.908 173.603 114.723C174.019 114.459 174.47 114.327 174.955 114.327C175.349 114.327 175.683 114.43 175.956 114.635C176.229 114.84 176.422 115.12 176.532 115.475C176.646 115.829 176.672 116.223 176.61 116.656C176.542 117.105 176.392 117.522 176.161 117.906C175.933 118.29 175.657 118.585 175.331 118.79C175.006 118.995 174.662 119.098 174.301 119.098C173.871 119.098 173.502 118.989 173.192 118.771C172.886 118.549 172.665 118.243 172.528 117.853C172.392 117.462 172.356 117.044 172.421 116.598L172.533 115.87C172.729 114.614 173.171 113.621 173.861 112.892C174.551 112.159 175.447 111.793 176.547 111.793ZM174.921 114.591C174.465 114.591 174.022 114.728 173.593 115.001C173.166 115.271 172.898 115.593 172.787 115.968L172.685 116.593C172.623 117 172.649 117.379 172.763 117.73C172.877 118.082 173.065 118.355 173.329 118.551C173.593 118.746 173.915 118.842 174.296 118.839C174.693 118.836 175.058 118.696 175.39 118.419C175.725 118.142 175.985 117.765 176.171 117.286C176.356 116.808 176.42 116.344 176.361 115.895C176.306 115.484 176.151 115.165 175.897 114.938C175.644 114.706 175.318 114.591 174.921 114.591ZM177.133 120.245L176.967 120.079C177.315 119.688 177.525 119.288 177.597 118.878L177.709 118.224H177.973L177.87 118.839C177.776 119.399 177.53 119.868 177.133 120.245ZM185.868 119H181.742L181.771 118.736L184.96 115.519C185.598 114.861 185.963 114.256 186.054 113.702C186.138 113.22 186.054 112.826 185.8 112.521C185.546 112.211 185.165 112.057 184.657 112.057C184.162 112.057 183.726 112.232 183.349 112.584C182.971 112.932 182.73 113.37 182.626 113.897H182.362C182.466 113.292 182.733 112.791 183.163 112.394C183.596 111.993 184.092 111.793 184.652 111.793C185.232 111.793 185.676 111.969 185.985 112.32C186.298 112.669 186.412 113.129 186.327 113.702C186.243 114.285 185.865 114.929 185.194 115.636L182.133 118.736H185.902L185.868 119ZM192.23 112.057L188.119 119H187.846L191.908 112.154H187.807L187.841 111.891H192.25L192.23 112.057ZM197.592 112.057L193.48 119H193.207L197.27 112.154H193.168L193.202 111.891H197.611L197.592 112.057ZM199.73 119.098C199.359 119.098 199.047 119.005 198.793 118.819C198.539 118.634 198.352 118.36 198.231 117.999C198.114 117.634 198.065 117.219 198.085 116.754L198.124 116.285L198.358 114.898C198.524 113.932 198.829 113.172 199.271 112.618C199.714 112.065 200.269 111.788 200.937 111.788C201.314 111.788 201.63 111.882 201.884 112.071C202.138 112.257 202.323 112.534 202.44 112.901C202.558 113.269 202.605 113.681 202.582 114.137L202.533 114.664L202.294 116.051C202.125 117.011 201.819 117.76 201.376 118.297C200.933 118.831 200.385 119.098 199.73 119.098ZM202.318 113.6C202.276 113.085 202.138 112.7 201.903 112.442C201.669 112.182 201.348 112.052 200.941 112.052C200.355 112.052 199.861 112.302 199.457 112.804C199.057 113.302 198.777 114.01 198.617 114.928L198.393 116.246L198.354 116.661C198.321 117.065 198.349 117.438 198.437 117.779C198.524 118.121 198.677 118.383 198.896 118.565C199.114 118.744 199.39 118.834 199.726 118.834C200.308 118.834 200.798 118.588 201.195 118.097C201.596 117.602 201.874 116.915 202.03 116.036L202.235 114.874C202.32 114.396 202.348 113.971 202.318 113.6ZM207.753 115.265L206.449 116.324L205.99 119H205.727L206.952 111.891H207.216L206.508 115.973L207.816 114.859L211.195 111.891L211.605 111.896L207.953 115.099L210.595 119H210.272L207.753 115.265ZM215.16 119C215.15 118.714 215.181 118.391 215.253 118.033C214.979 118.368 214.654 118.631 214.276 118.819C213.902 119.008 213.495 119.101 213.056 119.098C212.613 119.098 212.26 118.961 211.996 118.688C211.732 118.414 211.633 118.072 211.698 117.662C211.78 117.164 212.055 116.775 212.523 116.495C212.995 116.215 213.593 116.067 214.315 116.051H215.57L215.712 115.279C215.78 114.846 215.694 114.506 215.453 114.259C215.212 114.008 214.866 113.883 214.413 113.883C213.97 113.883 213.57 114.002 213.212 114.239C212.854 114.474 212.629 114.783 212.538 115.167L212.274 115.157C212.366 114.705 212.616 114.335 213.026 114.049C213.437 113.762 213.899 113.619 214.413 113.619C214.95 113.619 215.362 113.772 215.648 114.078C215.935 114.381 216.041 114.785 215.966 115.289L215.482 118.111L215.448 118.443C215.432 118.616 215.438 118.787 215.468 118.956L215.463 119H215.16ZM213.051 118.839C213.487 118.845 213.902 118.741 214.296 118.526C214.69 118.308 215.025 117.991 215.302 117.574L215.526 116.319H214.345C213.687 116.332 213.144 116.459 212.714 116.7C212.287 116.938 212.035 117.265 211.957 117.682C211.898 118.004 211.975 118.276 212.187 118.497C212.401 118.718 212.689 118.832 213.051 118.839ZM220.419 117.706C220.536 117.094 220.09 116.66 219.081 116.402L218.539 116.246C217.79 116.002 217.462 115.571 217.553 114.952C217.611 114.552 217.823 114.229 218.188 113.985C218.552 113.741 218.975 113.619 219.457 113.619C219.988 113.619 220.403 113.756 220.702 114.029C221.002 114.303 221.129 114.669 221.083 115.128H220.819C220.858 114.757 220.749 114.457 220.492 114.229C220.235 113.998 219.892 113.883 219.462 113.883C219.045 113.883 218.682 113.979 218.373 114.171C218.064 114.363 217.878 114.62 217.816 114.942C217.719 115.46 218.018 115.828 218.715 116.046L219.442 116.256L219.687 116.339C220.445 116.616 220.777 117.073 220.683 117.711C220.621 118.131 220.403 118.468 220.028 118.722C219.654 118.972 219.206 119.098 218.686 119.098C218.142 119.098 217.707 118.966 217.382 118.702C217.056 118.435 216.916 118.087 216.962 117.657H217.221C217.204 118.022 217.325 118.31 217.582 118.521C217.842 118.73 218.209 118.834 218.681 118.834C219.13 118.824 219.517 118.717 219.843 118.512C220.168 118.303 220.36 118.035 220.419 117.706ZM223.593 112.291L223.349 113.717H224.506L224.472 113.985H223.3L222.631 117.853L222.611 118.121C222.602 118.342 222.647 118.517 222.748 118.644C222.849 118.767 223.002 118.831 223.207 118.834C223.298 118.834 223.476 118.819 223.739 118.79L223.749 119.039C223.599 119.078 223.422 119.098 223.217 119.098C222.663 119.098 222.375 118.813 222.353 118.243C222.346 118.077 222.357 117.908 222.387 117.735L223.031 113.985H222.089L222.128 113.717H223.08L223.324 112.291H223.593ZM228.129 113.902L227.812 113.878C227.375 113.878 226.97 114.039 226.596 114.361C226.221 114.684 225.971 115.076 225.844 115.538L225.243 119H224.979L225.888 113.717H226.151L225.946 114.815C226.168 114.438 226.438 114.145 226.757 113.937C227.076 113.725 227.431 113.619 227.821 113.619C227.945 113.619 228.069 113.639 228.192 113.678L228.129 113.902ZM231.703 119L231.869 118.146C231.638 118.465 231.358 118.704 231.029 118.863C230.701 119.02 230.339 119.098 229.945 119.098C229.535 119.098 229.21 118.989 228.969 118.771C228.731 118.552 228.593 118.242 228.554 117.838C228.531 117.581 228.542 117.315 228.588 117.042L229.159 113.717H229.423L228.842 117.081C228.806 117.302 228.795 117.517 228.808 117.726C228.824 118.077 228.93 118.351 229.125 118.546C229.32 118.738 229.59 118.834 229.936 118.834C230.411 118.834 230.839 118.705 231.22 118.448C231.601 118.188 231.851 117.849 231.972 117.433L232.611 113.717H232.88L231.972 119H231.703ZM235.634 119.098C235.259 119.098 234.932 119.016 234.652 118.854C234.372 118.691 234.167 118.466 234.037 118.18L233.534 121.031H233.271L234.53 113.717H234.794L234.613 114.659C234.844 114.347 235.121 114.096 235.443 113.907C235.769 113.715 236.13 113.619 236.527 113.619C236.869 113.619 237.16 113.704 237.401 113.873C237.642 114.042 237.818 114.291 237.929 114.62C238.043 114.946 238.093 115.307 238.08 115.704C238.07 115.912 238.051 116.113 238.021 116.305L237.958 116.627C237.789 117.392 237.499 117.996 237.089 118.438C236.679 118.878 236.194 119.098 235.634 119.098ZM237.753 116.305L237.812 115.782C237.844 115.164 237.748 114.693 237.523 114.371C237.299 114.046 236.968 113.883 236.532 113.883C236.103 113.883 235.696 114.011 235.312 114.269C234.931 114.522 234.675 114.838 234.545 115.216L234.105 117.687C234.18 118.054 234.354 118.338 234.628 118.536C234.905 118.735 235.24 118.834 235.634 118.834C236.161 118.834 236.607 118.619 236.972 118.189C237.336 117.757 237.592 117.156 237.738 116.388L237.753 116.305Z" fill="#707070"/>
<path d="M14.083 103H13.2041V93.3906L10.3037 94.4673V93.647L13.9365 92.2993H14.083V103ZM24.8936 92.8413L20.3379 103H19.4224L23.9487 93.083H17.8843V92.3359H24.8936V92.8413ZM26.7026 102.473C26.7026 102.302 26.7563 102.158 26.8638 102.041C26.9761 101.918 27.1299 101.857 27.3252 101.857C27.5205 101.857 27.6743 101.918 27.7866 102.041C27.8989 102.158 27.9551 102.302 27.9551 102.473C27.9551 102.644 27.8989 102.785 27.7866 102.897C27.6743 103.005 27.5205 103.059 27.3252 103.059C27.1299 103.059 26.9761 103.005 26.8638 102.897C26.7563 102.785 26.7026 102.644 26.7026 102.473ZM36.6636 98.5542C36.6636 100.058 36.3877 101.201 35.8359 101.982C35.2842 102.758 34.4712 103.146 33.397 103.146C32.3423 103.146 31.5342 102.766 30.9727 102.004C30.4111 101.237 30.123 100.124 30.1084 98.6641V96.7524C30.1084 95.2534 30.3867 94.1182 30.9434 93.3467C31.5 92.5752 32.313 92.1895 33.3823 92.1895C34.437 92.1895 35.2427 92.563 35.7993 93.3101C36.356 94.0522 36.644 95.1484 36.6636 96.5986V98.5542ZM35.7847 96.6426C35.7847 95.4219 35.5845 94.499 35.1841 93.874C34.7886 93.249 34.188 92.9365 33.3823 92.9365C32.5913 92.9365 31.9956 93.2417 31.5952 93.8521C31.1948 94.4624 30.9897 95.3633 30.98 96.5547V98.6494C30.98 99.8652 31.1851 100.795 31.5952 101.44C32.0103 102.084 32.6108 102.407 33.397 102.407C34.1782 102.407 34.769 102.092 35.1694 101.462C35.5747 100.832 35.7798 99.9092 35.7847 98.6934V96.6426ZM40.5015 97.1919H41.4097C41.9126 97.1919 42.3521 97.104 42.728 96.9282C43.104 96.7476 43.3896 96.5034 43.585 96.1958C43.7852 95.8833 43.8853 95.5244 43.8853 95.1191C43.8853 94.4355 43.6924 93.9009 43.3066 93.5151C42.9209 93.1294 42.3667 92.9365 41.644 92.9365C40.9604 92.9365 40.3989 93.1392 39.9595 93.5444C39.5249 93.9448 39.3076 94.4746 39.3076 95.1338H38.4287C38.4287 94.582 38.5679 94.0791 38.8462 93.625C39.1245 93.166 39.5103 92.812 40.0034 92.563C40.4966 92.314 41.0435 92.1895 41.644 92.1895C42.6108 92.1895 43.3726 92.4531 43.9292 92.9805C44.4858 93.5078 44.7642 94.2305 44.7642 95.1484C44.7642 95.6611 44.6006 96.1348 44.2734 96.5693C43.9512 96.999 43.5068 97.3213 42.9404 97.5361C43.6045 97.7217 44.1074 98.0415 44.4492 98.4956C44.791 98.9448 44.9619 99.4819 44.9619 100.107C44.9619 101.02 44.6641 101.755 44.0684 102.312C43.4727 102.868 42.6768 103.146 41.6807 103.146C41.0459 103.146 40.4624 103.02 39.9302 102.766C39.4028 102.512 38.9927 102.158 38.6997 101.704C38.4116 101.245 38.2676 100.712 38.2676 100.107H39.1465C39.1465 100.786 39.3833 101.34 39.8569 101.77C40.3306 102.194 40.9385 102.407 41.6807 102.407C42.4375 102.407 43.0259 102.214 43.4458 101.828C43.8706 101.438 44.083 100.874 44.083 100.136C44.083 99.4233 43.8535 98.8789 43.3945 98.5029C42.9404 98.127 42.269 97.939 41.3804 97.939H40.5015V97.1919Z" fill="#333333"/>
<circle cx="59" cy="27" r="3" fill="#B32B32"/>
<g clip-path="url(#clip0)">
<path d="M184.748 73.6415C184.252 73.6415 183.851 73.2397 183.851 72.7439V71.8464H185.646V72.7439C185.646 73.2397 185.244 73.6415 184.748 73.6415Z" fill="#4980A8"/>
<path d="M197.462 73.6415C196.966 73.6415 196.564 73.2397 196.564 72.7439V71.8464H198.359V72.7439C198.359 73.2397 197.957 73.6415 197.462 73.6415Z" fill="#4980A8"/>
<path d="M201.099 71.7709C201.099 71.1187 200.84 70.4933 200.379 70.0319L196.296 65.949C194.932 64.5852 193.082 63.8189 191.153 63.8189H181.404V71.8464H201.024C201.048 71.8464 201.073 71.8451 201.097 71.8444C201.098 71.82 201.099 71.7957 201.099 71.7709Z" fill="#4980A8"/>
<path d="M199.96 64.8457H193.706C193.012 64.8457 192.449 65.4083 192.449 66.1021C192.449 66.7962 193.012 67.3587 193.706 67.3587H202.473L199.96 64.8457Z" fill="white"/>
<path d="M181.404 64.8457H188.405C189.099 64.8457 189.661 65.4083 189.661 66.1021C189.661 66.7962 189.099 67.3587 188.405 67.3587H181.404" fill="white"/>
<path d="M203.506 73.1926H198.73C198.78 73.0522 198.807 72.9013 198.807 72.7439V72.2952H201.024C202.627 72.2952 203.932 70.9906 203.932 69.3871C203.932 68.6104 203.629 67.8801 203.08 67.3308L202.791 67.0415L200.278 64.5283H200.277L198.997 63.2478C197.539 61.7895 195.6 60.9863 193.537 60.9863H181.404C181.156 60.9863 180.955 61.1872 180.955 61.435C180.955 61.683 181.156 61.8839 181.404 61.8839H193.537C195.36 61.8839 197.074 62.5937 198.362 63.8825L198.877 64.3969H193.706C192.765 64.3969 192 65.1619 192 66.1021C192 67.0425 192.765 67.8076 193.706 67.8076H202.287L202.445 67.9655C202.825 68.3453 203.034 68.8501 203.034 69.3872C203.034 70.4957 202.132 71.3977 201.024 71.3977H181.404C181.156 71.3977 180.955 71.5986 180.955 71.8464C180.955 72.0943 181.156 72.2952 181.404 72.2952H183.402V72.7439C183.402 72.9013 183.429 73.0522 183.479 73.1928H181.427C181.179 73.1928 180.978 73.3937 180.978 73.6415C180.978 73.8892 181.179 74.0902 181.427 74.0902H188.966C189.214 74.0902 189.415 73.8892 189.415 73.6415C189.415 73.3937 189.214 73.1928 188.966 73.1928H186.017C186.067 73.0522 186.094 72.9013 186.094 72.7439V72.2952H196.115V72.7439C196.115 72.9013 196.142 73.0522 196.192 73.1928H192.469C192.221 73.1928 192.02 73.3937 192.02 73.6415C192.02 73.8892 192.221 74.0902 192.469 74.0902H203.506C203.754 74.0902 203.955 73.8892 203.955 73.6415C203.955 73.3937 203.754 73.1926 203.506 73.1926ZM193.706 66.91C193.26 66.91 192.898 66.5477 192.898 66.1021C192.898 65.6568 193.26 65.2944 193.706 65.2944H199.774L201.39 66.91H193.706ZM185.197 72.7439C185.197 72.9913 184.995 73.1926 184.748 73.1926C184.5 73.1926 184.299 72.9913 184.299 72.7439V72.2952H185.197V72.7439ZM197.012 72.7439V72.2952H197.91V72.7439C197.91 72.9913 197.709 73.1926 197.461 73.1926C197.214 73.1926 197.012 72.9913 197.012 72.7439Z" fill="#333333"/>
<path d="M190.716 73.1926C190.598 73.1926 190.483 73.2407 190.399 73.3242C190.316 73.4076 190.268 73.5234 190.268 73.6415C190.268 73.7594 190.316 73.8752 190.399 73.9588C190.483 74.0421 190.598 74.0902 190.716 74.0902C190.834 74.0902 190.95 74.0423 191.034 73.9588C191.117 73.8752 191.165 73.7594 191.165 73.6415C191.165 73.5234 191.117 73.4076 191.034 73.3242C190.95 73.2407 190.834 73.1926 190.716 73.1926Z" fill="#333333"/>
<path d="M188.405 66.9101H181.404C181.156 66.9101 180.955 67.111 180.955 67.3588C180.955 67.6065 181.156 67.8076 181.404 67.8076H188.405C189.345 67.8076 190.11 67.0425 190.11 66.1022C190.11 65.162 189.345 64.3969 188.405 64.3969H183.117C182.87 64.3969 182.669 64.5978 182.669 64.8458C182.669 65.0935 182.87 65.2945 183.117 65.2945H188.405C188.85 65.2945 189.212 65.6568 189.212 66.1022C189.212 66.5477 188.85 66.9101 188.405 66.9101Z" fill="#333333"/>
<path d="M181.404 64.3969C181.286 64.3969 181.17 64.445 181.087 64.5285C181.003 64.6119 180.955 64.7277 180.955 64.8458C180.955 64.9637 181.003 65.0795 181.087 65.1628C181.17 65.2464 181.286 65.2945 181.404 65.2945C181.522 65.2945 181.638 65.2464 181.721 65.1628C181.805 65.0795 181.853 64.9637 181.853 64.8458C181.853 64.7277 181.805 64.6119 181.721 64.5285C181.638 64.445 181.522 64.3969 181.404 64.3969Z" fill="#333333"/>
</g>
<g clip-path="url(#clip1)">
<path d="M127.198 65.2092C127.198 64.8051 127.466 64.2857 127 64L126.494 60.9026C125.114 60.0578 119.088 60.2832 117.137 60.2832L108 60.5L106 63V65.2559H127.121C127.146 65.2559 127.171 65.2552 127.196 65.2547C127.196 65.2396 127.198 65.2245 127.198 65.2092Z" fill="#4980A8"/>
<path d="M110.527 71.4291C109.89 71.4291 109.372 71.9472 109.372 72.5842C109.372 73.2212 109.89 73.7394 110.527 73.7394C111.164 73.7394 111.682 73.2212 111.682 72.5842C111.682 71.9472 111.164 71.4291 110.527 71.4291ZM110.527 72.899C110.353 72.899 110.212 72.7577 110.212 72.5842C110.212 72.4107 110.353 72.2695 110.527 72.2695C110.7 72.2695 110.842 72.4106 110.842 72.5842C110.842 72.7578 110.7 72.899 110.527 72.899Z" fill="#333333"/>
<path d="M122.473 71.4291C121.836 71.4291 121.318 71.9472 121.318 72.5842C121.318 73.2212 121.836 73.7394 122.473 73.7394C123.11 73.7394 123.628 73.2212 123.628 72.5842C123.628 71.9472 123.11 71.4291 122.473 71.4291ZM122.473 72.899C122.299 72.899 122.158 72.7577 122.158 72.5842C122.158 72.4107 122.3 72.2695 122.473 72.2695C122.647 72.2695 122.788 72.4106 122.788 72.5842C122.788 72.7578 122.647 72.899 122.473 72.899Z" fill="#333333"/>
<path d="M127.467 70.5572V66.6144V62.3203C127.467 60.9829 126.378 59.8948 125.041 59.8948H109.301C107.224 59.8948 105.533 61.5851 105.533 63.6627V70.5571C105.21 70.8002 105 71.1872 105 71.6222V71.6738C105 72.4075 105.597 73.0044 106.331 73.0044H108.041C108.242 74.1951 109.28 75.1052 110.527 75.1052C111.774 75.1052 112.811 74.1951 113.012 73.0044H119.988C120.189 74.1951 121.226 75.1052 122.473 75.1052C123.72 75.1052 124.758 74.1951 124.959 73.0044H126.669C127.403 73.0044 128 72.4075 128 71.6738V71.6222C128 71.1872 127.79 70.8002 127.467 70.5572ZM126.626 66.1942H125.473C125.414 66.1942 125.366 66.1462 125.366 66.0871V62.8475C125.366 62.7885 125.414 62.7405 125.473 62.7405H126.626V66.1942ZM105.84 71.6738V71.6222C105.84 71.3516 106.06 71.1314 106.331 71.1314H108.468C108.254 71.4336 108.105 71.7844 108.041 72.164H106.331C106.06 72.164 105.84 71.9441 105.84 71.6738ZM110.527 74.2648C109.6 74.2648 108.846 73.5108 108.846 72.5841C108.846 71.6574 109.6 70.9034 110.527 70.9034C111.453 70.9034 112.207 71.6574 112.207 72.5841C112.207 73.5108 111.453 74.2648 110.527 74.2648ZM119.988 72.164H113.012C112.811 70.9732 111.774 70.063 110.527 70.063C110.154 70.063 109.8 70.145 109.481 70.291H106.374V63.6628C106.374 62.0485 107.687 60.7352 109.301 60.7352H125.041C125.77 60.7352 126.385 61.2294 126.569 61.9001H125.473C124.951 61.9001 124.526 62.3251 124.526 62.8475V66.0872C124.526 66.6096 124.95 67.0346 125.473 67.0346H126.626V70.2912H123.519C123.2 70.1452 122.846 70.0631 122.473 70.0631C121.226 70.0631 120.189 70.9733 119.988 72.164ZM122.473 74.2648C121.547 74.2648 120.793 73.5108 120.793 72.5841C120.793 71.6574 121.547 70.9034 122.473 70.9034C123.4 70.9034 124.154 71.6574 124.154 72.5841C124.154 73.5108 123.4 74.2648 122.473 74.2648ZM127.16 71.6738C127.16 71.9441 126.94 72.164 126.669 72.164H124.959C124.895 71.7844 124.746 71.4336 124.532 71.1314H126.669C126.94 71.1314 127.16 71.3516 127.16 71.6222V71.6738Z" fill="#333333"/>
<path d="M125.704 69.6377C125.936 69.6377 126.124 69.4495 126.124 69.2175V68.8439C126.124 68.6119 125.936 68.4237 125.704 68.4237C125.472 68.4237 125.284 68.6119 125.284 68.8439V69.2175C125.284 69.4495 125.472 69.6377 125.704 69.6377Z" fill="#333333"/>
<path d="M123.286 66.0872V62.8475C123.286 62.3251 122.861 61.9001 122.339 61.9001H109.401C108.283 61.9001 107.374 62.8095 107.374 63.9273V66.0872C107.374 66.6096 107.798 67.0346 108.321 67.0346H122.339C122.861 67.0346 123.286 66.6096 123.286 66.0872ZM115.75 62.7405H119.053V66.1942H115.75V62.7405ZM114.91 66.1942H111.606V62.7405H114.91V66.1942ZM108.214 66.0872V63.9273C108.214 63.2729 108.746 62.7405 109.401 62.7405H110.766V66.1942H108.321C108.262 66.1942 108.214 66.1462 108.214 66.0872ZM122.446 66.0872C122.446 66.1462 122.398 66.1942 122.339 66.1942H119.894V62.7405H122.339C122.398 62.7405 122.446 62.7884 122.446 62.8475V66.0872Z" fill="#333333"/>
</g>
<rect x="134" y="59" width="23" height="17" rx="8.5" fill="#4980A8"/>
<rect x="211" y="60" width="60" height="16" rx="8" fill="#4980A8"/>
<line x1="59.25" y1="35" x2="59.25" y2="40" stroke="#333333" stroke-width="0.5"/>
<line x1="59.25" y1="42" x2="59.25" y2="47" stroke="#333333" stroke-width="0.5"/>
<line x1="59.25" y1="49" x2="59.25" y2="54" stroke="#333333" stroke-width="0.5"/>
<line x1="59.25" y1="56" x2="59.25" y2="61" stroke="#333333" stroke-width="0.5"/>
<line x1="59.25" y1="63" x2="59.25" y2="68" stroke="#333333" stroke-width="0.5"/>
<line x1="59.25" y1="70" x2="59.25" y2="75" stroke="#333333" stroke-width="0.5"/>
<line x1="59.25" y1="77" x2="59.25" y2="82" stroke="#333333" stroke-width="0.5"/>
<line x1="59.25" y1="84" x2="59.25" y2="89" stroke="#333333" stroke-width="0.5"/>
<path d="M142.56 71H141.651V64.9795L139.83 65.6484V64.8281L142.418 63.8564H142.56V71ZM149.366 69.1445H146.388L145.719 71H144.752L147.467 63.8906H148.287L151.007 71H150.045L149.366 69.1445ZM146.671 68.373H149.088L147.877 65.0479L146.671 68.373Z" fill="#E9EDEB"/>
<path d="M218.831 71H217.894V63.8906H218.831V71ZM221.263 65.7168L221.292 66.3809C221.696 65.873 222.223 65.6191 222.874 65.6191C223.991 65.6191 224.554 66.249 224.563 67.5088V71H223.66V67.5039C223.657 67.123 223.569 66.8415 223.396 66.6592C223.227 66.4769 222.962 66.3857 222.601 66.3857C222.308 66.3857 222.05 66.4639 221.829 66.6201C221.608 66.7764 221.435 66.9814 221.312 67.2354V71H220.408V65.7168H221.263ZM227.151 64.4375V65.7168H228.138V66.415H227.151V69.6914C227.151 69.903 227.195 70.0625 227.283 70.1699C227.371 70.2741 227.521 70.3262 227.732 70.3262C227.837 70.3262 227.98 70.3066 228.162 70.2676V71C227.924 71.0651 227.693 71.0977 227.469 71.0977C227.065 71.0977 226.761 70.9756 226.556 70.7314C226.351 70.4873 226.248 70.1406 226.248 69.6914V66.415H225.286V65.7168H226.248V64.4375H227.151ZM231.39 71.0977C230.674 71.0977 230.091 70.8633 229.642 70.3945C229.192 69.9225 228.968 69.2926 228.968 68.5049V68.3389C228.968 67.8148 229.067 67.3477 229.266 66.9375C229.467 66.5241 229.747 66.2018 230.105 65.9707C230.467 65.7363 230.857 65.6191 231.277 65.6191C231.964 65.6191 232.498 65.8454 232.879 66.2979C233.26 66.7503 233.45 67.3981 233.45 68.2412V68.6172H229.871C229.884 69.138 230.035 69.5596 230.325 69.8818C230.618 70.2008 230.989 70.3604 231.438 70.3604C231.757 70.3604 232.028 70.2952 232.249 70.165C232.47 70.0348 232.664 69.8623 232.83 69.6475L233.382 70.0771C232.939 70.7575 232.275 71.0977 231.39 71.0977ZM231.277 66.3613C230.913 66.3613 230.607 66.4948 230.359 66.7617C230.112 67.0254 229.959 67.3965 229.9 67.875H232.547V67.8066C232.521 67.3477 232.397 66.9928 232.176 66.7422C231.954 66.4883 231.655 66.3613 231.277 66.3613ZM237.054 66.5273C236.917 66.5046 236.769 66.4932 236.609 66.4932C236.017 66.4932 235.615 66.7454 235.403 67.25V71H234.5V65.7168H235.379L235.394 66.3271C235.69 65.8551 236.11 65.6191 236.653 65.6191C236.829 65.6191 236.963 65.6419 237.054 65.6875V66.5273ZM239.91 70.3604C240.232 70.3604 240.514 70.2627 240.755 70.0674C240.996 69.8721 241.129 69.6279 241.155 69.335H242.01C241.993 69.6377 241.889 69.9258 241.697 70.1992C241.505 70.4727 241.248 70.6908 240.926 70.8535C240.607 71.0163 240.268 71.0977 239.91 71.0977C239.191 71.0977 238.618 70.8584 238.191 70.3799C237.768 69.8981 237.557 69.2406 237.557 68.4072V68.2559C237.557 67.7415 237.651 67.2842 237.84 66.8838C238.029 66.4834 238.299 66.1725 238.65 65.9512C239.005 65.7298 239.424 65.6191 239.905 65.6191C240.498 65.6191 240.989 65.7965 241.38 66.1514C241.774 66.5062 241.984 66.9668 242.01 67.5332H241.155C241.129 67.1914 240.999 66.9115 240.765 66.6934C240.534 66.472 240.247 66.3613 239.905 66.3613C239.446 66.3613 239.09 66.5273 238.836 66.8594C238.585 67.1882 238.46 67.665 238.46 68.29V68.4609C238.46 69.0697 238.585 69.5384 238.836 69.8672C239.087 70.196 239.445 70.3604 239.91 70.3604ZM244.007 71H243.104V65.7168H244.007V71ZM243.03 64.3154C243.03 64.1689 243.074 64.0452 243.162 63.9443C243.253 63.8434 243.387 63.793 243.562 63.793C243.738 63.793 243.872 63.8434 243.963 63.9443C244.054 64.0452 244.1 64.1689 244.1 64.3154C244.1 64.4619 244.054 64.584 243.963 64.6816C243.872 64.7793 243.738 64.8281 243.562 64.8281C243.387 64.8281 243.253 64.7793 243.162 64.6816C243.074 64.584 243.03 64.4619 243.03 64.3154ZM246.683 64.4375V65.7168H247.669V66.415H246.683V69.6914C246.683 69.903 246.727 70.0625 246.814 70.1699C246.902 70.2741 247.052 70.3262 247.264 70.3262C247.368 70.3262 247.511 70.3066 247.693 70.2676V71C247.456 71.0651 247.225 71.0977 247 71.0977C246.596 71.0977 246.292 70.9756 246.087 70.7314C245.882 70.4873 245.779 70.1406 245.779 69.6914V66.415H244.817V65.7168H245.779V64.4375H246.683ZM250.457 69.6768L251.688 65.7168H252.654L250.53 71.8154C250.201 72.6943 249.679 73.1338 248.963 73.1338L248.792 73.1191L248.455 73.0557V72.3232L248.699 72.3428C249.005 72.3428 249.243 72.2809 249.412 72.1572C249.585 72.0335 249.726 71.8073 249.837 71.4785L250.037 70.9414L248.152 65.7168H249.139L250.457 69.6768ZM257.166 67.0059H257.845C258.271 66.9993 258.606 66.887 258.851 66.6689C259.095 66.4508 259.217 66.1562 259.217 65.7852C259.217 64.9518 258.802 64.5352 257.972 64.5352C257.581 64.5352 257.269 64.6475 257.034 64.8721C256.803 65.0934 256.688 65.388 256.688 65.7559H255.784C255.784 65.1927 255.989 64.7256 256.399 64.3545C256.813 63.9801 257.337 63.793 257.972 63.793C258.642 63.793 259.168 63.9704 259.549 64.3252C259.93 64.68 260.12 65.1732 260.12 65.8047C260.12 66.1139 260.019 66.4134 259.817 66.7031C259.619 66.9928 259.347 67.2093 259.002 67.3525C259.393 67.4762 259.694 67.6813 259.905 67.9678C260.12 68.2542 260.228 68.6042 260.228 69.0176C260.228 69.6556 260.019 70.1618 259.603 70.5361C259.186 70.9105 258.644 71.0977 257.977 71.0977C257.309 71.0977 256.766 70.917 256.346 70.5557C255.929 70.1943 255.721 69.7174 255.721 69.125H256.629C256.629 69.4993 256.751 69.7988 256.995 70.0234C257.239 70.248 257.566 70.3604 257.977 70.3604C258.413 70.3604 258.746 70.2464 258.978 70.0186C259.209 69.7907 259.324 69.4635 259.324 69.0371C259.324 68.6237 259.197 68.3063 258.943 68.085C258.689 67.8636 258.323 67.7497 257.845 67.7432H257.166V67.0059ZM261.883 67.4355L262.244 63.8906H265.887V64.7256H263.011L262.796 66.6641C263.144 66.459 263.54 66.3564 263.982 66.3564C264.63 66.3564 265.145 66.5713 265.525 67.001C265.906 67.4274 266.097 68.0052 266.097 68.7344C266.097 69.4668 265.898 70.0446 265.501 70.4678C265.107 70.8877 264.555 71.0977 263.846 71.0977C263.217 71.0977 262.705 70.9235 262.308 70.5752C261.91 70.2269 261.684 69.7451 261.629 69.1299H262.483C262.539 69.5368 262.684 69.8444 262.918 70.0527C263.152 70.2578 263.462 70.3604 263.846 70.3604C264.266 70.3604 264.594 70.2171 264.832 69.9307C265.073 69.6442 265.193 69.2487 265.193 68.7441C265.193 68.2689 265.063 67.888 264.803 67.6016C264.546 67.3118 264.202 67.167 263.772 67.167C263.379 67.167 263.069 67.2533 262.845 67.4258L262.605 67.6211L261.883 67.4355Z" fill="#E9EDEB"/>
<path d="M82.6845 62.6884C83.4269 62.6884 84.0287 62.0866 84.0287 61.3442C84.0287 60.6018 83.4269 60 82.6845 60C81.9422 60 81.3403 60.6018 81.3403 61.3442C81.3403 62.0866 81.9422 62.6884 82.6845 62.6884Z" fill="#333333"/>
<path d="M86.3836 66.0145C85.2766 65.3737 84.3683 64.5082 83.6038 63.49C83.1234 62.8144 81.8532 62.8496 81.3371 63.4687C80.552 64.2326 79.8858 65.02 79.3574 65.8077C79.1414 66.1304 79.2272 66.567 79.5497 66.783C79.67 66.8636 79.8056 66.9022 79.9403 66.9022C80.1668 66.9022 80.3894 66.7929 80.5248 66.5905C80.7568 66.245 81.0199 65.8984 81.3112 65.5534C81.3001 66.2835 81.3367 67.601 81.3551 68.1932C81.3612 68.3903 81.3163 68.5831 81.2247 68.7581C80.5 70.142 80.0365 71.4514 79.5659 73.0532C79.4507 73.4442 79.6748 73.8545 80.0656 73.9696C80.1541 73.9956 80.2435 74.0044 80.3298 73.9978C80.6273 73.975 80.8933 73.7724 80.9822 73.4696C81.4164 71.9927 81.8359 70.7968 82.4903 69.5306C82.5236 69.5319 82.5569 69.5319 82.5906 69.5304C83.0084 70.7769 83.4264 72.024 83.8448 73.2705C84.1486 74.179 85.5583 73.7071 85.2536 72.7984C84.7964 71.4356 84.3399 70.0734 83.8842 68.7108C83.8577 68.6326 83.7935 68.3264 83.7845 68.2265C83.7092 67.387 83.6818 66.5501 83.6899 65.7122C84.3313 66.3267 85.0426 66.8597 85.8328 67.3175C86.6208 67.775 87.161 66.4651 86.3836 66.0145Z" fill="#333333"/>
<g clip-path="url(#clip2)">
<path d="M98.5598 67.8006L93.8425 63.0833C93.7314 62.9722 93.5533 62.9722 93.4422 63.0833C93.3311 63.1944 93.3311 63.3725 93.4422 63.4836L97.9584 67.9997L93.4422 72.5159C93.3311 72.627 93.3311 72.8051 93.4422 72.9162C93.4967 72.9707 93.57 73 93.6413 73C93.7125 73 93.7859 72.9728 93.8404 72.9162L98.5577 68.1988C98.6688 68.0899 98.6688 67.9096 98.5598 67.8006Z" fill="#B32B32"/>
</g>
<g clip-path="url(#clip3)">
<path d="M172.56 67.8006L167.842 63.0833C167.731 62.9722 167.553 62.9722 167.442 63.0833C167.331 63.1944 167.331 63.3725 167.442 63.4836L171.958 67.9997L167.442 72.5159C167.331 72.627 167.331 72.8051 167.442 72.9162C167.497 72.9707 167.57 73 167.641 73C167.713 73 167.786 72.9728 167.84 72.9162L172.558 68.1988C172.669 68.0899 172.669 67.9096 172.56 67.8006Z" fill="#B32B32"/>
</g>
<path d="M58.5 105C56.8033 105 55 105.526 55 106.5C55 107.474 56.8033 108 58.5 108C60.1967 108 62 107.474 62 106.5C62 105.526 60.1967 105 58.5 105Z" fill="#333333"/>
<path d="M58.5 95C56.0187 95 54 97.0881 54 99.6546C54 101.248 54.7328 102.961 56.1782 104.747C57.2424 106.062 58.2911 106.906 58.3353 106.942C58.3837 106.981 58.4419 107 58.5 107C58.5581 107 58.6162 106.981 58.6647 106.942C58.7088 106.906 59.7577 106.062 60.8218 104.747C62.2672 102.961 63 101.248 63 99.6546C63 97.0881 60.9813 95 58.5 95ZM60.1875 99.6546C60.1875 100.619 59.432 101.4 58.5 101.4C57.5681 101.4 56.8126 100.619 56.8126 99.6546C56.8126 98.6907 57.5681 97.9092 58.5 97.9092C59.432 97.9092 60.1875 98.6907 60.1875 99.6546Z" fill="#4980A8"/>
<defs>
<clipPath id="clip0">
<rect width="23" height="23" fill="white" transform="translate(181 56)"/>
</clipPath>
<clipPath id="clip1">
<rect width="23" height="23" fill="white" transform="translate(105 56)"/>
</clipPath>
<clipPath id="clip2">
<rect width="10" height="10" fill="white" transform="translate(91 63)"/>
</clipPath>
<clipPath id="clip3">
<rect width="10" height="10" fill="white" transform="translate(165 63)"/>
</clipPath>
</defs>
</svg>
