<svg width="375" height="140" viewBox="0 0 375 140" fill="none" xmlns="http://www.w3.org/2000/svg">
<rect width="375" height="140" fill="#E9EDEB" fill-opacity="0.59"/>
<path d="M308.664 28.2812V26.0078C309.719 25.9609 310.457 25.8906 310.879 25.7969C311.551 25.6484 312.098 25.3516 312.52 24.9062C312.809 24.6016 313.027 24.1953 313.176 23.6875C313.262 23.3828 313.305 23.1562 313.305 23.0078H316.082V40H312.66V28.2812H308.664ZM321.109 40C321.141 38.7812 321.402 37.668 321.895 36.6602C322.371 35.5273 323.496 34.3281 325.27 33.0625C326.809 31.9609 327.805 31.1719 328.258 30.6953C328.953 29.9531 329.301 29.1406 329.301 28.2578C329.301 27.5391 329.102 26.9414 328.703 26.4648C328.305 25.9883 327.734 25.75 326.992 25.75C325.977 25.75 325.285 26.1289 324.918 26.8867C324.707 27.3242 324.582 28.0195 324.543 28.9727H321.297C321.352 27.5273 321.613 26.3594 322.082 25.4688C322.973 23.7734 324.555 22.9258 326.828 22.9258C328.625 22.9258 330.055 23.4258 331.117 24.4258C332.18 25.418 332.711 26.7344 332.711 28.375C332.711 29.6328 332.336 30.75 331.586 31.7266C331.094 32.375 330.285 33.0977 329.16 33.8945L327.824 34.8438C326.988 35.4375 326.414 35.8672 326.102 36.1328C325.797 36.3984 325.539 36.707 325.328 37.0586H332.746V40H321.109ZM337.68 35.4531C337.812 36.1797 338.066 36.7422 338.441 37.1406C338.816 37.5312 339.363 37.7266 340.082 37.7266C340.91 37.7266 341.539 37.4375 341.969 36.8594C342.406 36.2734 342.625 35.5391 342.625 34.6562C342.625 33.7891 342.422 33.0586 342.016 32.4648C341.609 31.8633 340.977 31.5625 340.117 31.5625C339.711 31.5625 339.359 31.6133 339.062 31.7148C338.539 31.9023 338.145 32.25 337.879 32.7578L334.879 32.6172L336.074 23.2305H345.438V26.0664H338.488L337.879 29.7812C338.395 29.4453 338.797 29.2227 339.086 29.1133C339.57 28.9336 340.16 28.8438 340.855 28.8438C342.262 28.8438 343.488 29.3164 344.535 30.2617C345.582 31.207 346.105 32.582 346.105 34.3867C346.105 35.957 345.602 37.3594 344.594 38.5938C343.586 39.8281 342.078 40.4453 340.07 40.4453C338.453 40.4453 337.125 40.0117 336.086 39.1445C335.047 38.2773 334.469 37.0469 334.352 35.4531H337.68ZM348.461 42.7773C349.133 42.5898 349.625 42.2773 349.938 41.8398C350.258 41.4023 350.441 40.7891 350.488 40H348.461V36.5078H352.07V39.5312C352.07 40.0625 352 40.6172 351.859 41.1953C351.719 41.7734 351.457 42.2734 351.074 42.6953C350.66 43.1484 350.172 43.4883 349.609 43.7148C349.055 43.9492 348.672 44.0664 348.461 44.0664V42.7773ZM354.309 31.7266H361.035V34.8906H354.309V31.7266Z" fill="#B32B32"/>
<path d="M78.0781 26.2949V29.7754H81.1455C81.7549 29.7754 82.2119 29.7051 82.5166 29.5645C83.0557 29.3184 83.3252 28.832 83.3252 28.1055C83.3252 27.3203 83.0645 26.793 82.543 26.5234C82.25 26.3711 81.8105 26.2949 81.2246 26.2949H78.0781ZM81.7871 24.0449C82.6953 24.0625 83.3926 24.1738 83.8789 24.3789C84.3711 24.584 84.7871 24.8857 85.127 25.2842C85.4082 25.6123 85.6309 25.9756 85.7949 26.374C85.959 26.7725 86.041 27.2266 86.041 27.7363C86.041 28.3516 85.8857 28.958 85.5752 29.5557C85.2646 30.1475 84.752 30.5664 84.0371 30.8125C84.6348 31.0527 85.0566 31.3955 85.3027 31.8408C85.5547 32.2803 85.6807 32.9541 85.6807 33.8623V34.7324C85.6807 35.3242 85.7041 35.7256 85.751 35.9365C85.8213 36.2705 85.9854 36.5166 86.2432 36.6748V37H83.2637C83.1816 36.7129 83.123 36.4814 83.0879 36.3057C83.0176 35.9424 82.9795 35.5703 82.9736 35.1895L82.9561 33.9854C82.9443 33.1592 82.792 32.6084 82.499 32.333C82.2119 32.0576 81.6699 31.9199 80.873 31.9199H78.0781V37H75.4326V24.0449H81.7871ZM93.459 32.3418C93.3008 32.4414 93.1396 32.5234 92.9756 32.5879C92.8174 32.6465 92.5977 32.7021 92.3164 32.7549L91.7539 32.8604C91.2266 32.9541 90.8486 33.0684 90.6201 33.2031C90.2334 33.4316 90.04 33.7861 90.04 34.2666C90.04 34.6943 90.1572 35.0049 90.3916 35.1982C90.6318 35.3857 90.9219 35.4795 91.2617 35.4795C91.8008 35.4795 92.2959 35.3213 92.7471 35.0049C93.2041 34.6885 93.4414 34.1113 93.459 33.2734V32.3418ZM91.9385 31.1729C92.4014 31.1143 92.7324 31.041 92.9316 30.9531C93.2891 30.8008 93.4678 30.5635 93.4678 30.2412C93.4678 29.8486 93.3301 29.5791 93.0547 29.4326C92.7852 29.2803 92.3867 29.2041 91.8594 29.2041C91.2676 29.2041 90.8486 29.3506 90.6025 29.6436C90.4268 29.8604 90.3096 30.1533 90.251 30.5225H87.834C87.8867 29.6846 88.1211 28.9961 88.5371 28.457C89.1992 27.6133 90.3359 27.1914 91.9473 27.1914C92.9961 27.1914 93.9277 27.3994 94.7422 27.8154C95.5566 28.2314 95.9639 29.0166 95.9639 30.1709V34.5654C95.9639 34.8701 95.9697 35.2393 95.9814 35.6729C95.999 36.001 96.0488 36.2236 96.1309 36.3408C96.2129 36.458 96.3359 36.5547 96.5 36.6309V37H93.7754C93.6992 36.8066 93.6465 36.625 93.6172 36.4551C93.5879 36.2852 93.5645 36.0918 93.5469 35.875C93.2012 36.25 92.8027 36.5693 92.3516 36.833C91.8125 37.1436 91.2031 37.2988 90.5234 37.2988C89.6562 37.2988 88.9385 37.0527 88.3701 36.5605C87.8076 36.0625 87.5264 35.3594 87.5264 34.4512C87.5264 33.2734 87.9805 32.4209 88.8887 31.8936C89.3867 31.6064 90.1191 31.4014 91.0859 31.2783L91.9385 31.1729ZM104.103 27.4199H106.792L103.338 37H100.692L97.2559 27.4199H100.068L102.063 34.4863L104.103 27.4199ZM113.524 27.1914C114.515 27.1914 115.323 27.4521 115.95 27.9736C116.583 28.4893 116.899 29.3477 116.899 30.5488V37H114.333V31.1729C114.333 30.6689 114.266 30.2822 114.131 30.0127C113.885 29.5205 113.416 29.2744 112.725 29.2744C111.875 29.2744 111.292 29.6348 110.976 30.3555C110.812 30.7363 110.729 31.2227 110.729 31.8145V37H108.233V27.4375H110.65V28.835C110.973 28.3428 111.277 27.9883 111.564 27.7715C112.08 27.3848 112.733 27.1914 113.524 27.1914ZM121.171 33.9414C121.224 34.3867 121.338 34.7031 121.514 34.8906C121.824 35.2246 122.398 35.3916 123.236 35.3916C123.729 35.3916 124.118 35.3184 124.405 35.1719C124.698 35.0254 124.845 34.8057 124.845 34.5127C124.845 34.2314 124.728 34.0176 124.493 33.8711C124.259 33.7246 123.389 33.4727 121.883 33.1152C120.799 32.8457 120.034 32.5088 119.589 32.1045C119.144 31.7061 118.921 31.1318 118.921 30.3818C118.921 29.4971 119.267 28.7383 119.958 28.1055C120.655 27.4668 121.634 27.1475 122.894 27.1475C124.089 27.1475 125.062 27.3877 125.812 27.8682C126.567 28.3428 127.001 29.166 127.112 30.3379H124.607C124.572 30.0156 124.481 29.7607 124.335 29.5732C124.06 29.2334 123.591 29.0635 122.929 29.0635C122.384 29.0635 121.994 29.1484 121.76 29.3184C121.531 29.4883 121.417 29.6875 121.417 29.916C121.417 30.2031 121.54 30.4111 121.786 30.54C122.032 30.6748 122.902 30.9062 124.396 31.2344C125.393 31.4688 126.14 31.8232 126.638 32.2979C127.13 32.7783 127.376 33.3789 127.376 34.0996C127.376 35.0488 127.021 35.8252 126.312 36.4287C125.609 37.0264 124.52 37.3252 123.043 37.3252C121.537 37.3252 120.424 37.0088 119.703 36.376C118.988 35.7373 118.631 34.9258 118.631 33.9414H121.171ZM134.416 27.209C135.676 27.209 136.66 27.6631 137.369 28.5713C138.084 29.4795 138.441 30.6514 138.441 32.0869C138.441 33.5752 138.09 34.8086 137.387 35.7871C136.684 36.7656 135.702 37.2549 134.442 37.2549C133.651 37.2549 133.016 37.0967 132.535 36.7803C132.248 36.5928 131.938 36.2646 131.604 35.7959V37H129.151V24.0625H131.647V28.668C131.964 28.2227 132.312 27.8828 132.693 27.6484C133.145 27.3555 133.719 27.209 134.416 27.209ZM133.774 35.1895C134.419 35.1895 134.92 34.9287 135.277 34.4072C135.635 33.8857 135.813 33.2002 135.813 32.3506C135.813 31.6709 135.726 31.1084 135.55 30.6631C135.216 29.8193 134.601 29.3975 133.704 29.3975C132.796 29.3975 132.172 29.8105 131.832 30.6367C131.656 31.0762 131.568 31.6445 131.568 32.3418C131.568 33.1621 131.75 33.8418 132.113 34.3809C132.477 34.9199 133.03 35.1895 133.774 35.1895ZM142.862 26.2773H140.357V23.9658H142.862V26.2773ZM139.153 38.8369C139.294 38.8486 139.394 38.8545 139.452 38.8545C139.511 38.8604 139.563 38.8633 139.61 38.8633C139.856 38.8633 140.041 38.8018 140.164 38.6787C140.293 38.5615 140.357 38.3301 140.357 37.9844V27.4639H142.862V38.0283C142.862 38.9951 142.672 39.71 142.291 40.1729C141.91 40.6357 141.163 40.8672 140.05 40.8672C139.974 40.8672 139.859 40.8643 139.707 40.8584C139.561 40.8525 139.376 40.8467 139.153 40.8408V38.8369ZM149.032 29.2305C148.452 29.2305 148.001 29.4121 147.679 29.7754C147.362 30.1387 147.163 30.6309 147.081 31.252H150.975C150.934 30.5898 150.731 30.0889 150.368 29.749C150.011 29.4033 149.565 29.2305 149.032 29.2305ZM149.032 27.165C149.829 27.165 150.547 27.3145 151.186 27.6133C151.824 27.9121 152.352 28.3838 152.768 29.0283C153.143 29.5967 153.386 30.2559 153.497 31.0059C153.562 31.4453 153.588 32.0781 153.576 32.9043H147.02C147.055 33.8652 147.356 34.5391 147.925 34.9258C148.271 35.166 148.687 35.2861 149.173 35.2861C149.688 35.2861 150.107 35.1396 150.43 34.8467C150.605 34.6885 150.761 34.4688 150.896 34.1875H153.453C153.389 34.7559 153.093 35.333 152.565 35.9189C151.745 36.8506 150.597 37.3164 149.12 37.3164C147.901 37.3164 146.826 36.9238 145.895 36.1387C144.963 35.3535 144.497 34.0762 144.497 32.3066C144.497 30.6484 144.916 29.377 145.754 28.4922C146.598 27.6074 147.69 27.165 149.032 27.165ZM160.476 27.1914C160.522 27.1914 160.561 27.1943 160.59 27.2002C160.625 27.2002 160.698 27.2031 160.81 27.209V29.7754C160.651 29.7578 160.511 29.7461 160.388 29.7402C160.265 29.7344 160.165 29.7314 160.089 29.7314C159.081 29.7314 158.404 30.0596 158.059 30.7158C157.865 31.085 157.769 31.6533 157.769 32.4209V37H155.246V27.4199H157.637V29.0898C158.023 28.4512 158.36 28.0146 158.647 27.7803C159.116 27.3877 159.726 27.1914 160.476 27.1914ZM166.399 34.9434C166.985 34.9434 167.48 34.7236 167.885 34.2842C168.289 33.8389 168.491 33.1328 168.491 32.166C168.491 31.2578 168.298 30.5664 167.911 30.0918C167.53 29.6172 167.018 29.3799 166.373 29.3799C165.494 29.3799 164.888 29.793 164.554 30.6191C164.378 31.0586 164.29 31.6006 164.29 32.2451C164.29 32.8018 164.384 33.2969 164.571 33.7305C164.911 34.5391 165.521 34.9434 166.399 34.9434ZM165.775 27.1914C166.256 27.1914 166.675 27.2646 167.032 27.4111C167.642 27.6631 168.134 28.126 168.509 28.7998V27.4199H170.943V36.5078C170.943 37.7441 170.735 38.6758 170.319 39.3027C169.604 40.3809 168.233 40.9199 166.206 40.9199C164.981 40.9199 163.982 40.6797 163.209 40.1992C162.436 39.7188 162.008 39.001 161.926 38.0459H164.65C164.721 38.3389 164.835 38.5498 164.993 38.6787C165.263 38.9072 165.717 39.0215 166.355 39.0215C167.258 39.0215 167.861 38.7197 168.166 38.1162C168.365 37.7295 168.465 37.0791 168.465 36.165V35.5498C168.225 35.96 167.967 36.2676 167.691 36.4727C167.193 36.8535 166.546 37.0439 165.749 37.0439C164.519 37.0439 163.534 36.6133 162.796 35.752C162.063 34.8848 161.697 33.7129 161.697 32.2363C161.697 30.8125 162.052 29.6172 162.761 28.6504C163.47 27.6777 164.475 27.1914 165.775 27.1914ZM178.273 24.0889H180.734V31.0674L183.854 27.4639H186.957L183.608 31.1289L187.089 37H184.065L181.771 32.9043L180.734 33.9854V37H178.273V24.0889ZM192.617 35.2334C193.35 35.2334 193.912 34.9727 194.305 34.4512C194.697 33.9297 194.894 33.1885 194.894 32.2275C194.894 31.2666 194.697 30.5283 194.305 30.0127C193.912 29.4912 193.35 29.2305 192.617 29.2305C191.885 29.2305 191.319 29.4912 190.921 30.0127C190.528 30.5283 190.332 31.2666 190.332 32.2275C190.332 33.1885 190.528 33.9297 190.921 34.4512C191.319 34.9727 191.885 35.2334 192.617 35.2334ZM197.521 32.2275C197.521 33.6338 197.117 34.8379 196.309 35.8398C195.5 36.8359 194.272 37.334 192.626 37.334C190.979 37.334 189.752 36.8359 188.943 35.8398C188.135 34.8379 187.73 33.6338 187.73 32.2275C187.73 30.8447 188.135 29.6465 188.943 28.6328C189.752 27.6191 190.979 27.1123 192.626 27.1123C194.272 27.1123 195.5 27.6191 196.309 28.6328C197.117 29.6465 197.521 30.8447 197.521 32.2275ZM201.881 37H199.376V24.0449H201.881V37ZM206.891 37H204.386V24.0449H206.891V37ZM213.122 29.2305C212.542 29.2305 212.091 29.4121 211.769 29.7754C211.452 30.1387 211.253 30.6309 211.171 31.252H215.064C215.023 30.5898 214.821 30.0889 214.458 29.749C214.101 29.4033 213.655 29.2305 213.122 29.2305ZM213.122 27.165C213.919 27.165 214.637 27.3145 215.275 27.6133C215.914 27.9121 216.441 28.3838 216.857 29.0283C217.232 29.5967 217.476 30.2559 217.587 31.0059C217.651 31.4453 217.678 32.0781 217.666 32.9043H211.109C211.145 33.8652 211.446 34.5391 212.015 34.9258C212.36 35.166 212.776 35.2861 213.263 35.2861C213.778 35.2861 214.197 35.1396 214.52 34.8467C214.695 34.6885 214.851 34.4688 214.985 34.1875H217.543C217.479 34.7559 217.183 35.333 216.655 35.9189C215.835 36.8506 214.687 37.3164 213.21 37.3164C211.991 37.3164 210.916 36.9238 209.984 36.1387C209.053 35.3535 208.587 34.0762 208.587 32.3066C208.587 30.6484 209.006 29.377 209.844 28.4922C210.688 27.6074 211.78 27.165 213.122 27.165ZM223.476 34.9434C224.062 34.9434 224.557 34.7236 224.961 34.2842C225.365 33.8389 225.567 33.1328 225.567 32.166C225.567 31.2578 225.374 30.5664 224.987 30.0918C224.606 29.6172 224.094 29.3799 223.449 29.3799C222.57 29.3799 221.964 29.793 221.63 30.6191C221.454 31.0586 221.366 31.6006 221.366 32.2451C221.366 32.8018 221.46 33.2969 221.647 33.7305C221.987 34.5391 222.597 34.9434 223.476 34.9434ZM222.852 27.1914C223.332 27.1914 223.751 27.2646 224.108 27.4111C224.718 27.6631 225.21 28.126 225.585 28.7998V27.4199H228.02V36.5078C228.02 37.7441 227.812 38.6758 227.396 39.3027C226.681 40.3809 225.31 40.9199 223.282 40.9199C222.058 40.9199 221.059 40.6797 220.285 40.1992C219.512 39.7188 219.084 39.001 219.002 38.0459H221.727C221.797 38.3389 221.911 38.5498 222.069 38.6787C222.339 38.9072 222.793 39.0215 223.432 39.0215C224.334 39.0215 224.938 38.7197 225.242 38.1162C225.441 37.7295 225.541 37.0791 225.541 36.165V35.5498C225.301 35.96 225.043 36.2676 224.768 36.4727C224.27 36.8535 223.622 37.0439 222.825 37.0439C221.595 37.0439 220.61 36.6133 219.872 35.752C219.14 34.8848 218.773 33.7129 218.773 32.2363C218.773 30.8125 219.128 29.6172 219.837 28.6504C220.546 27.6777 221.551 27.1914 222.852 27.1914ZM232.941 26.2773H230.401V23.9658H232.941V26.2773ZM230.401 27.4199H232.941V37H230.401V27.4199ZM239.155 29.2305C238.575 29.2305 238.124 29.4121 237.802 29.7754C237.485 30.1387 237.286 30.6309 237.204 31.252H241.098C241.057 30.5898 240.854 30.0889 240.491 29.749C240.134 29.4033 239.688 29.2305 239.155 29.2305ZM239.155 27.165C239.952 27.165 240.67 27.3145 241.309 27.6133C241.947 27.9121 242.475 28.3838 242.891 29.0283C243.266 29.5967 243.509 30.2559 243.62 31.0059C243.685 31.4453 243.711 32.0781 243.699 32.9043H237.143C237.178 33.8652 237.479 34.5391 238.048 34.9258C238.394 35.166 238.81 35.2861 239.296 35.2861C239.812 35.2861 240.23 35.1396 240.553 34.8467C240.729 34.6885 240.884 34.4688 241.019 34.1875H243.576C243.512 34.7559 243.216 35.333 242.688 35.9189C241.868 36.8506 240.72 37.3164 239.243 37.3164C238.024 37.3164 236.949 36.9238 236.018 36.1387C235.086 35.3535 234.62 34.0762 234.62 32.3066C234.62 30.6484 235.039 29.377 235.877 28.4922C236.721 27.6074 237.813 27.165 239.155 27.165ZM244.411 29.292V27.5078H245.747V24.8359H248.226V27.5078H249.781V29.292H248.226V34.3545C248.226 34.7471 248.275 34.9932 248.375 35.0928C248.475 35.1865 248.779 35.2334 249.289 35.2334C249.365 35.2334 249.444 35.2334 249.526 35.2334C249.614 35.2275 249.699 35.2217 249.781 35.2158V37.0879L248.595 37.1318C247.411 37.1729 246.603 36.9678 246.169 36.5166C245.888 36.2295 245.747 35.7871 245.747 35.1895V29.292H244.411Z" fill="#333333"/>
<path d="M74.8086 101.628C74.8086 99.3662 75.415 97.623 76.6279 96.3984C77.6826 95.332 79.0244 94.7988 80.6533 94.7988C82.833 94.7988 84.4268 95.5137 85.4346 96.9434C85.9912 97.7461 86.29 98.5518 86.3311 99.3604H83.624C83.4482 98.7393 83.2227 98.2705 82.9473 97.9541C82.4551 97.3916 81.7256 97.1104 80.7588 97.1104C79.7744 97.1104 78.998 97.5088 78.4297 98.3057C77.8613 99.0967 77.5771 100.219 77.5771 101.672C77.5771 103.125 77.876 104.215 78.4736 104.941C79.0771 105.662 79.8418 106.022 80.7676 106.022C81.7168 106.022 82.4404 105.712 82.9385 105.091C83.2139 104.757 83.4424 104.256 83.624 103.588H86.3047C86.0703 105 85.4697 106.148 84.5029 107.033C83.542 107.918 82.3086 108.36 80.8027 108.36C78.9395 108.36 77.4746 107.763 76.4082 106.567C75.3418 105.366 74.8086 103.72 74.8086 101.628ZM92.4746 106.233C93.207 106.233 93.7695 105.973 94.1621 105.451C94.5547 104.93 94.751 104.188 94.751 103.228C94.751 102.267 94.5547 101.528 94.1621 101.013C93.7695 100.491 93.207 100.23 92.4746 100.23C91.7422 100.23 91.1768 100.491 90.7783 101.013C90.3857 101.528 90.1895 102.267 90.1895 103.228C90.1895 104.188 90.3857 104.93 90.7783 105.451C91.1768 105.973 91.7422 106.233 92.4746 106.233ZM97.3789 103.228C97.3789 104.634 96.9746 105.838 96.166 106.84C95.3574 107.836 94.1299 108.334 92.4834 108.334C90.8369 108.334 89.6094 107.836 88.8008 106.84C87.9922 105.838 87.5879 104.634 87.5879 103.228C87.5879 101.845 87.9922 100.646 88.8008 99.6328C89.6094 98.6191 90.8369 98.1123 92.4834 98.1123C94.1299 98.1123 95.3574 98.6191 96.166 99.6328C96.9746 100.646 97.3789 101.845 97.3789 103.228ZM105.781 103.21C105.781 102.472 105.611 101.818 105.271 101.25C104.938 100.682 104.393 100.397 103.637 100.397C102.729 100.397 102.104 100.828 101.765 101.689C101.589 102.146 101.501 102.727 101.501 103.43C101.501 104.543 101.797 105.325 102.389 105.776C102.74 106.04 103.156 106.172 103.637 106.172C104.334 106.172 104.864 105.902 105.228 105.363C105.597 104.824 105.781 104.106 105.781 103.21ZM104.357 98.209C105.477 98.209 106.423 98.6221 107.196 99.4482C107.976 100.274 108.365 101.487 108.365 103.087C108.365 104.774 107.984 106.061 107.223 106.945C106.467 107.83 105.491 108.272 104.296 108.272C103.534 108.272 102.901 108.082 102.397 107.701C102.122 107.49 101.853 107.183 101.589 106.778V111.771H99.1104V98.4199H101.51V99.835C101.779 99.4189 102.066 99.0908 102.371 98.8506C102.928 98.4229 103.59 98.209 104.357 98.209ZM113.964 100.23C113.384 100.23 112.933 100.412 112.61 100.775C112.294 101.139 112.095 101.631 112.013 102.252H115.906C115.865 101.59 115.663 101.089 115.3 100.749C114.942 100.403 114.497 100.23 113.964 100.23ZM113.964 98.165C114.761 98.165 115.479 98.3145 116.117 98.6133C116.756 98.9121 117.283 99.3838 117.699 100.028C118.074 100.597 118.317 101.256 118.429 102.006C118.493 102.445 118.52 103.078 118.508 103.904H111.951C111.986 104.865 112.288 105.539 112.856 105.926C113.202 106.166 113.618 106.286 114.104 106.286C114.62 106.286 115.039 106.14 115.361 105.847C115.537 105.688 115.692 105.469 115.827 105.188H118.385C118.32 105.756 118.024 106.333 117.497 106.919C116.677 107.851 115.528 108.316 114.052 108.316C112.833 108.316 111.758 107.924 110.826 107.139C109.895 106.354 109.429 105.076 109.429 103.307C109.429 101.648 109.848 100.377 110.686 99.4922C111.529 98.6074 112.622 98.165 113.964 98.165ZM125.513 98.1914C126.503 98.1914 127.312 98.4521 127.938 98.9736C128.571 99.4893 128.888 100.348 128.888 101.549V108H126.321V102.173C126.321 101.669 126.254 101.282 126.119 101.013C125.873 100.521 125.404 100.274 124.713 100.274C123.863 100.274 123.28 100.635 122.964 101.355C122.8 101.736 122.718 102.223 122.718 102.814V108H120.222V98.4375H122.639V99.835C122.961 99.3428 123.266 98.9883 123.553 98.7715C124.068 98.3848 124.722 98.1914 125.513 98.1914ZM136.49 103.342C136.332 103.441 136.171 103.523 136.007 103.588C135.849 103.646 135.629 103.702 135.348 103.755L134.785 103.86C134.258 103.954 133.88 104.068 133.651 104.203C133.265 104.432 133.071 104.786 133.071 105.267C133.071 105.694 133.188 106.005 133.423 106.198C133.663 106.386 133.953 106.479 134.293 106.479C134.832 106.479 135.327 106.321 135.778 106.005C136.235 105.688 136.473 105.111 136.49 104.273V103.342ZM134.97 102.173C135.433 102.114 135.764 102.041 135.963 101.953C136.32 101.801 136.499 101.563 136.499 101.241C136.499 100.849 136.361 100.579 136.086 100.433C135.816 100.28 135.418 100.204 134.891 100.204C134.299 100.204 133.88 100.351 133.634 100.644C133.458 100.86 133.341 101.153 133.282 101.522H130.865C130.918 100.685 131.152 99.9961 131.568 99.457C132.23 98.6133 133.367 98.1914 134.979 98.1914C136.027 98.1914 136.959 98.3994 137.773 98.8154C138.588 99.2314 138.995 100.017 138.995 101.171V105.565C138.995 105.87 139.001 106.239 139.013 106.673C139.03 107.001 139.08 107.224 139.162 107.341C139.244 107.458 139.367 107.555 139.531 107.631V108H136.807C136.73 107.807 136.678 107.625 136.648 107.455C136.619 107.285 136.596 107.092 136.578 106.875C136.232 107.25 135.834 107.569 135.383 107.833C134.844 108.144 134.234 108.299 133.555 108.299C132.688 108.299 131.97 108.053 131.401 107.561C130.839 107.062 130.558 106.359 130.558 105.451C130.558 104.273 131.012 103.421 131.92 102.894C132.418 102.606 133.15 102.401 134.117 102.278L134.97 102.173ZM145.341 105.943C145.927 105.943 146.422 105.724 146.826 105.284C147.23 104.839 147.433 104.133 147.433 103.166C147.433 102.258 147.239 101.566 146.853 101.092C146.472 100.617 145.959 100.38 145.314 100.38C144.436 100.38 143.829 100.793 143.495 101.619C143.319 102.059 143.231 102.601 143.231 103.245C143.231 103.802 143.325 104.297 143.513 104.73C143.853 105.539 144.462 105.943 145.341 105.943ZM144.717 98.1914C145.197 98.1914 145.616 98.2646 145.974 98.4111C146.583 98.6631 147.075 99.126 147.45 99.7998V98.4199H149.885V107.508C149.885 108.744 149.677 109.676 149.261 110.303C148.546 111.381 147.175 111.92 145.147 111.92C143.923 111.92 142.924 111.68 142.15 111.199C141.377 110.719 140.949 110.001 140.867 109.046H143.592C143.662 109.339 143.776 109.55 143.935 109.679C144.204 109.907 144.658 110.021 145.297 110.021C146.199 110.021 146.803 109.72 147.107 109.116C147.307 108.729 147.406 108.079 147.406 107.165V106.55C147.166 106.96 146.908 107.268 146.633 107.473C146.135 107.854 145.487 108.044 144.69 108.044C143.46 108.044 142.476 107.613 141.737 106.752C141.005 105.885 140.639 104.713 140.639 103.236C140.639 101.812 140.993 100.617 141.702 99.6504C142.411 98.6777 143.416 98.1914 144.717 98.1914ZM157.514 98.1738C158.105 98.1738 158.642 98.2764 159.122 98.4814C159.608 98.6865 160.007 99 160.317 99.4219C160.581 99.7793 160.742 100.148 160.801 100.529C160.859 100.904 160.889 101.52 160.889 102.375V108H158.331V102.173C158.331 101.657 158.243 101.241 158.067 100.925C157.839 100.479 157.405 100.257 156.767 100.257C156.104 100.257 155.601 100.479 155.255 100.925C154.915 101.364 154.745 101.994 154.745 102.814V108H152.249V95.0889H154.745V99.668C155.108 99.1113 155.527 98.7246 156.002 98.5078C156.482 98.2852 156.986 98.1738 157.514 98.1738ZM167.015 100.23C166.435 100.23 165.983 100.412 165.661 100.775C165.345 101.139 165.146 101.631 165.063 102.252H168.957C168.916 101.59 168.714 101.089 168.351 100.749C167.993 100.403 167.548 100.23 167.015 100.23ZM167.015 98.165C167.812 98.165 168.529 98.3145 169.168 98.6133C169.807 98.9121 170.334 99.3838 170.75 100.028C171.125 100.597 171.368 101.256 171.479 102.006C171.544 102.445 171.57 103.078 171.559 103.904H165.002C165.037 104.865 165.339 105.539 165.907 105.926C166.253 106.166 166.669 106.286 167.155 106.286C167.671 106.286 168.09 106.14 168.412 105.847C168.588 105.688 168.743 105.469 168.878 105.188H171.436C171.371 105.756 171.075 106.333 170.548 106.919C169.728 107.851 168.579 108.316 167.103 108.316C165.884 108.316 164.809 107.924 163.877 107.139C162.945 106.354 162.479 105.076 162.479 103.307C162.479 101.648 162.898 100.377 163.736 99.4922C164.58 98.6074 165.673 98.165 167.015 98.165ZM178.563 98.1914C179.554 98.1914 180.362 98.4521 180.989 98.9736C181.622 99.4893 181.938 100.348 181.938 101.549V108H179.372V102.173C179.372 101.669 179.305 101.282 179.17 101.013C178.924 100.521 178.455 100.274 177.764 100.274C176.914 100.274 176.331 100.635 176.015 101.355C175.851 101.736 175.769 102.223 175.769 102.814V108H173.272V98.4375H175.689V99.835C176.012 99.3428 176.316 98.9883 176.604 98.7715C177.119 98.3848 177.772 98.1914 178.563 98.1914ZM189.453 108V95.0449H192.134V99.9844H197.196V95.0449H199.886V108H197.196V102.217H192.134V108H189.453Z" fill="#333333"/>
<path d="M14.083 37H13.2041V27.3906L10.3037 28.4673V27.647L13.9365 26.2993H14.083V37ZM20.272 31.1919H21.1802C21.6831 31.1919 22.1226 31.104 22.4985 30.9282C22.8745 30.7476 23.1602 30.5034 23.3555 30.1958C23.5557 29.8833 23.6558 29.5244 23.6558 29.1191C23.6558 28.4355 23.4629 27.9009 23.0771 27.5151C22.6914 27.1294 22.1372 26.9365 21.4146 26.9365C20.731 26.9365 20.1694 27.1392 19.73 27.5444C19.2954 27.9448 19.0781 28.4746 19.0781 29.1338H18.1992C18.1992 28.582 18.3384 28.0791 18.6167 27.625C18.895 27.166 19.2808 26.812 19.7739 26.563C20.2671 26.314 20.814 26.1895 21.4146 26.1895C22.3813 26.1895 23.1431 26.4531 23.6997 26.9805C24.2563 27.5078 24.5347 28.2305 24.5347 29.1484C24.5347 29.6611 24.3711 30.1348 24.0439 30.5693C23.7217 30.999 23.2773 31.3213 22.7109 31.5361C23.375 31.7217 23.8779 32.0415 24.2197 32.4956C24.5615 32.9448 24.7324 33.4819 24.7324 34.1069C24.7324 35.02 24.4346 35.7549 23.8389 36.3115C23.2432 36.8682 22.4473 37.1465 21.4512 37.1465C20.8164 37.1465 20.2329 37.0195 19.7007 36.7656C19.1733 36.5117 18.7632 36.1577 18.4702 35.7036C18.1821 35.2446 18.0381 34.7124 18.0381 34.1069H18.917C18.917 34.7856 19.1538 35.3398 19.6274 35.7695C20.1011 36.1943 20.709 36.4067 21.4512 36.4067C22.208 36.4067 22.7964 36.2139 23.2163 35.8281C23.6411 35.4375 23.8535 34.8735 23.8535 34.1362C23.8535 33.4233 23.624 32.8789 23.165 32.5029C22.7109 32.127 22.0396 31.939 21.1509 31.939H20.272V31.1919ZM26.7026 36.4727C26.7026 36.3018 26.7563 36.1577 26.8638 36.0405C26.9761 35.9185 27.1299 35.8574 27.3252 35.8574C27.5205 35.8574 27.6743 35.9185 27.7866 36.0405C27.8989 36.1577 27.9551 36.3018 27.9551 36.4727C27.9551 36.6436 27.8989 36.7852 27.7866 36.8975C27.6743 37.0049 27.5205 37.0586 27.3252 37.0586C27.1299 37.0586 26.9761 37.0049 26.8638 36.8975C26.7563 36.7852 26.7026 36.6436 26.7026 36.4727ZM34.3125 37H33.4336V27.3906L30.5332 28.4673V27.647L34.166 26.2993H34.3125V37ZM43.9365 33.5649H45.5991V34.3047H43.9365V37H43.0576V34.3047H38.0405V33.8066L42.9771 26.3359H43.9365V33.5649ZM39.1172 33.5649H43.0576V27.4712L42.6694 28.145L39.1172 33.5649Z" fill="#333333"/>
<path d="M79.5986 47.958H77.2061L76.6787 51H76.4199L77.6455 43.8906H79.8232C80.2529 43.8939 80.6273 43.9834 80.9463 44.1592C81.2686 44.3317 81.5013 44.5726 81.6445 44.8818C81.7878 45.1911 81.8268 45.5443 81.7617 45.9414C81.6803 46.4232 81.4655 46.8431 81.1172 47.2012C80.7721 47.556 80.3571 47.7871 79.8721 47.8945L81.1855 50.9316L81.1758 51H80.9072L79.5986 47.958ZM77.25 47.6943H79.3398C79.877 47.6943 80.3457 47.5299 80.7461 47.2012C81.1497 46.8724 81.4004 46.4525 81.498 45.9414C81.5957 45.4043 81.4834 44.973 81.1611 44.6475C80.8389 44.3187 80.3669 44.1543 79.7451 44.1543H77.8652L77.25 47.6943ZM83.0312 51H82.7676L83.6758 45.7168H83.9395L83.0312 51ZM83.832 44.0566C83.8418 43.9915 83.876 43.9313 83.9346 43.876C83.9964 43.8206 84.0615 43.793 84.1299 43.793C84.2048 43.793 84.265 43.8223 84.3105 43.8809C84.3594 43.9395 84.3773 44.0046 84.3643 44.0762C84.3545 44.1413 84.3187 44.2015 84.2568 44.2568C84.195 44.3089 84.1299 44.335 84.0615 44.335C83.9867 44.3317 83.9264 44.3024 83.8809 44.2471C83.8353 44.1917 83.819 44.1283 83.832 44.0566ZM88.1924 49.7061C88.3096 49.0941 87.8636 48.6595 86.8545 48.4023L86.3125 48.2461C85.5638 48.002 85.235 47.5706 85.3262 46.9521C85.3848 46.5518 85.5964 46.2295 85.9609 45.9854C86.3255 45.7412 86.7487 45.6191 87.2305 45.6191C87.7611 45.6191 88.1761 45.7559 88.4756 46.0293C88.7751 46.3027 88.902 46.6689 88.8564 47.1279H88.5928C88.6318 46.7568 88.5228 46.4574 88.2656 46.2295C88.0085 45.9984 87.665 45.8828 87.2354 45.8828C86.8187 45.8828 86.4557 45.9788 86.1465 46.1709C85.8372 46.363 85.6517 46.6201 85.5898 46.9424C85.4922 47.46 85.7917 47.8278 86.4883 48.0459L87.2158 48.2559L87.46 48.3389C88.2184 48.6156 88.5505 49.0729 88.4561 49.7109C88.3942 50.1309 88.1761 50.4678 87.8018 50.7217C87.4274 50.9723 86.9798 51.0977 86.459 51.0977C85.9154 51.0977 85.4808 50.9658 85.1553 50.7021C84.8298 50.4352 84.6898 50.0869 84.7354 49.6572H84.9941C84.9779 50.0218 85.0983 50.3099 85.3555 50.5215C85.6159 50.7298 85.9821 50.834 86.4541 50.834C86.9033 50.8242 87.2907 50.7168 87.6162 50.5117C87.9417 50.3034 88.1338 50.0348 88.1924 49.7061ZM89.8623 48.3047C89.9535 47.7741 90.113 47.2988 90.3408 46.8789C90.5719 46.459 90.8503 46.1449 91.1758 45.9365C91.5013 45.7249 91.8561 45.6191 92.2402 45.6191C92.6113 45.6191 92.9336 45.7119 93.207 45.8975C93.4837 46.083 93.6839 46.3467 93.8076 46.6885L94.3643 43.5H94.6279L93.334 51H93.0703L93.2363 50.1553C93.002 50.4515 92.722 50.6826 92.3965 50.8486C92.071 51.0146 91.7161 51.0977 91.332 51.0977C90.987 51.0977 90.6973 51.013 90.4629 50.8438C90.2285 50.6712 90.0544 50.4206 89.9404 50.0918C89.8298 49.7598 89.7809 49.3952 89.7939 48.998C89.8005 48.8125 89.8232 48.5814 89.8623 48.3047ZM90.0625 48.9248C90.0365 49.2829 90.0641 49.6117 90.1455 49.9111C90.2269 50.2106 90.3669 50.4401 90.5654 50.5996C90.7673 50.7559 91.0195 50.834 91.3223 50.834C91.7454 50.8372 92.1247 50.7363 92.46 50.5312C92.7985 50.3262 93.0752 50.0462 93.29 49.6914L93.7295 47.2158C93.6611 46.7926 93.4967 46.4655 93.2363 46.2344C92.9792 46 92.6471 45.8828 92.2402 45.8828C91.8268 45.8828 91.459 46.0212 91.1367 46.2979C90.8145 46.5713 90.5622 46.9521 90.3799 47.4404C90.1976 47.9287 90.0918 48.4235 90.0625 48.9248ZM98.3438 51C98.334 50.7135 98.3649 50.3913 98.4365 50.0332C98.1631 50.3685 97.8376 50.6305 97.46 50.8193C97.0856 51.0081 96.6787 51.1009 96.2393 51.0977C95.7965 51.0977 95.4434 50.9609 95.1797 50.6875C94.916 50.4141 94.8167 50.0723 94.8818 49.6621C94.9632 49.1641 95.2383 48.7751 95.707 48.4951C96.179 48.2152 96.7764 48.0671 97.499 48.0508H98.7539L98.8955 47.2793C98.9639 46.8464 98.8776 46.5062 98.6367 46.2588C98.3958 46.0081 98.0492 45.8828 97.5967 45.8828C97.154 45.8828 96.7536 46.0016 96.3955 46.2393C96.0374 46.4736 95.8128 46.7829 95.7217 47.167L95.458 47.1572C95.5492 46.7048 95.7998 46.3353 96.21 46.0488C96.6201 45.7624 97.0824 45.6191 97.5967 45.6191C98.1338 45.6191 98.5456 45.7721 98.832 46.0781C99.1185 46.3809 99.2243 46.7845 99.1494 47.2891L98.666 50.1113L98.6318 50.4434C98.6156 50.6159 98.6221 50.7868 98.6514 50.9561L98.6465 51H98.3438ZM96.2344 50.8389C96.6706 50.8454 97.0856 50.7412 97.4795 50.5264C97.8734 50.3083 98.2087 49.9909 98.4854 49.5742L98.71 48.3193H97.5283C96.8708 48.3324 96.3271 48.4593 95.8975 48.7002C95.471 48.9378 95.2188 49.265 95.1406 49.6816C95.082 50.0039 95.1585 50.2757 95.3701 50.4971C95.585 50.7184 95.873 50.8324 96.2344 50.8389ZM100.492 51H100.229L101.518 43.5H101.781L100.492 51ZM105.653 49.7061C105.771 49.0941 105.325 48.6595 104.315 48.4023L103.773 48.2461C103.025 48.002 102.696 47.5706 102.787 46.9521C102.846 46.5518 103.057 46.2295 103.422 45.9854C103.786 45.7412 104.21 45.6191 104.691 45.6191C105.222 45.6191 105.637 45.7559 105.937 46.0293C106.236 46.3027 106.363 46.6689 106.317 47.1279H106.054C106.093 46.7568 105.984 46.4574 105.727 46.2295C105.469 45.9984 105.126 45.8828 104.696 45.8828C104.28 45.8828 103.917 45.9788 103.607 46.1709C103.298 46.363 103.113 46.6201 103.051 46.9424C102.953 47.46 103.253 47.8278 103.949 48.0459L104.677 48.2559L104.921 48.3389C105.679 48.6156 106.011 49.0729 105.917 49.7109C105.855 50.1309 105.637 50.4678 105.263 50.7217C104.888 50.9723 104.441 51.0977 103.92 51.0977C103.376 51.0977 102.942 50.9658 102.616 50.7021C102.291 50.4352 102.151 50.0869 102.196 49.6572H102.455C102.439 50.0218 102.559 50.3099 102.816 50.5215C103.077 50.7298 103.443 50.834 103.915 50.834C104.364 50.8242 104.752 50.7168 105.077 50.5117C105.403 50.3034 105.595 50.0348 105.653 49.7061ZM108.7 50.5703L111.303 45.7217H111.591L108.783 51H108.524L107.348 45.7119H107.621L108.7 50.5703ZM113.637 51.0977C113.214 51.0977 112.849 50.9788 112.543 50.7412C112.237 50.5036 112.016 50.1797 111.879 49.7695C111.745 49.3561 111.711 48.9232 111.776 48.4707L111.815 48.2266C111.894 47.7513 112.06 47.307 112.313 46.8936C112.571 46.4801 112.875 46.1644 113.227 45.9463C113.578 45.7282 113.954 45.6191 114.354 45.6191C114.888 45.6191 115.307 45.8161 115.609 46.21C115.912 46.6038 116.041 47.1084 115.995 47.7236L115.98 47.875L115.937 48.1826H112.099L112.045 48.4707C111.999 48.7441 111.998 49.0208 112.04 49.3008C112.112 49.7663 112.289 50.139 112.572 50.4189C112.859 50.6956 113.212 50.8356 113.632 50.8389C114.241 50.8454 114.789 50.6045 115.277 50.1162L115.453 50.2529C114.971 50.8161 114.366 51.0977 113.637 51.0977ZM114.354 45.8828C113.853 45.8828 113.404 46.0716 113.007 46.4492C112.613 46.8236 112.32 47.3135 112.128 47.9189H115.692L115.707 47.8555C115.749 47.6211 115.753 47.3867 115.717 47.1523C115.658 46.7682 115.505 46.4606 115.258 46.2295C115.014 45.9984 114.713 45.8828 114.354 45.8828ZM117.89 45.7168L116.879 51.5762C116.794 52.0677 116.609 52.4502 116.322 52.7236C116.036 52.9971 115.686 53.1338 115.272 53.1338C115.149 53.1338 114.993 53.1012 114.804 53.0361L114.853 52.7822C115.006 52.8408 115.147 52.8701 115.277 52.8701C115.609 52.8766 115.897 52.7627 116.142 52.5283C116.386 52.2939 116.542 51.9766 116.61 51.5762L117.626 45.7168H117.89ZM117.807 44.0566C117.816 43.9915 117.851 43.9313 117.909 43.876C117.971 43.8206 118.036 43.793 118.104 43.793C118.179 43.793 118.24 43.8223 118.285 43.8809C118.334 43.9395 118.352 44.0046 118.339 44.0762C118.329 44.1413 118.293 44.2015 118.231 44.2568C118.17 44.3089 118.104 44.335 118.036 44.335C117.961 44.3317 117.901 44.3024 117.855 44.2471C117.81 44.1917 117.794 44.1283 117.807 44.0566ZM122.987 47.2402H123.422C123.985 47.2402 124.47 47.1019 124.877 46.8252C125.284 46.5452 125.53 46.1709 125.614 45.7021C125.699 45.2204 125.609 44.8265 125.346 44.5205C125.082 44.2113 124.703 44.0566 124.208 44.0566C123.7 44.0566 123.256 44.2129 122.875 44.5254C122.497 44.8346 122.255 45.2448 122.147 45.7559L121.884 45.751C121.985 45.1715 122.253 44.7012 122.689 44.3398C123.126 43.9753 123.632 43.793 124.208 43.793C124.774 43.793 125.215 43.9736 125.531 44.335C125.847 44.693 125.963 45.1553 125.878 45.7217C125.826 46.0895 125.665 46.4183 125.395 46.708C125.128 46.9977 124.773 47.2174 124.33 47.3672C124.75 47.4844 125.066 47.6992 125.277 48.0117C125.492 48.321 125.567 48.6888 125.502 49.1152C125.414 49.6979 125.152 50.1748 124.716 50.5459C124.28 50.9137 123.759 51.0977 123.153 51.0977C122.753 51.0977 122.395 51.0098 122.079 50.834C121.767 50.6582 121.534 50.4108 121.381 50.0918C121.228 49.7695 121.174 49.4131 121.22 49.0225H121.483C121.415 49.5368 121.54 49.9681 121.859 50.3164C122.178 50.6615 122.608 50.834 123.148 50.834C123.692 50.834 124.153 50.6794 124.53 50.3701C124.911 50.0609 125.146 49.6491 125.233 49.1348C125.318 48.6204 125.199 48.2217 124.877 47.9385C124.558 47.6553 124.068 47.5137 123.407 47.5137H122.953L122.987 47.2402ZM130.102 48.7979H131.288L131.254 49.0615H130.058L129.721 51H129.462L129.794 49.0615L126.454 49.0566L126.474 48.915L130.624 43.8955L130.946 43.8906L130.102 48.7979ZM126.913 48.7979H129.838L130.629 44.2471L130.131 44.8965L126.913 48.7979ZM131.498 52.2451L131.332 52.0791C131.68 51.6885 131.89 51.2881 131.962 50.8779L132.074 50.2236H132.338L132.235 50.8389C132.141 51.3988 131.895 51.8675 131.498 52.2451ZM140.941 45.6973C140.876 46.0846 140.705 46.4248 140.429 46.7178C140.152 47.0075 139.799 47.224 139.369 47.3672C139.779 47.5039 140.092 47.7334 140.307 48.0557C140.525 48.3747 140.603 48.7393 140.541 49.1494C140.45 49.7321 140.17 50.2025 139.701 50.5605C139.232 50.9186 138.676 51.0977 138.031 51.0977C137.618 51.0977 137.253 51.0163 136.938 50.8535C136.625 50.6875 136.397 50.458 136.254 50.165C136.111 49.8688 136.072 49.5303 136.137 49.1494C136.208 48.7262 136.397 48.36 136.703 48.0508C137.009 47.7383 137.41 47.5072 137.904 47.3574C137.543 47.2174 137.274 46.9977 137.099 46.6982C136.926 46.3988 136.869 46.0651 136.928 45.6973C137.016 45.1406 137.274 44.6849 137.704 44.3301C138.134 43.972 138.642 43.793 139.228 43.793C139.595 43.793 139.923 43.876 140.209 44.042C140.499 44.2048 140.707 44.4326 140.834 44.7256C140.964 45.0153 141 45.3392 140.941 45.6973ZM140.268 49.1738C140.326 48.8613 140.294 48.5781 140.17 48.3242C140.049 48.0703 139.851 47.8685 139.574 47.7188C139.298 47.569 138.988 47.4941 138.646 47.4941C138.1 47.4941 137.61 47.6504 137.177 47.9629C136.747 48.2754 136.487 48.679 136.396 49.1738C136.308 49.6654 136.418 50.0658 136.728 50.375C137.04 50.681 137.473 50.834 138.026 50.834C138.586 50.834 139.076 50.681 139.496 50.375C139.919 50.0658 140.176 49.6654 140.268 49.1738ZM140.683 45.6729C140.764 45.2204 140.66 44.8379 140.37 44.5254C140.08 44.2129 139.701 44.0566 139.232 44.0566C138.728 44.0566 138.284 44.2096 137.899 44.5156C137.519 44.8184 137.284 45.2041 137.196 45.6729C137.112 46.1221 137.209 46.4948 137.489 46.791C137.772 47.084 138.157 47.2305 138.642 47.2305C139.136 47.2305 139.577 47.0856 139.965 46.7959C140.355 46.5062 140.595 46.1318 140.683 45.6729ZM145.595 51H141.469L141.498 50.7363L144.687 47.5186C145.325 46.861 145.689 46.2555 145.78 45.7021C145.865 45.2204 145.78 44.8265 145.526 44.5205C145.272 44.2113 144.892 44.0566 144.384 44.0566C143.889 44.0566 143.453 44.2324 143.075 44.584C142.698 44.9323 142.457 45.3701 142.353 45.8975H142.089C142.193 45.292 142.46 44.7907 142.89 44.3936C143.323 43.9932 143.819 43.793 144.379 43.793C144.958 43.793 145.403 43.9688 145.712 44.3203C146.024 44.6686 146.138 45.1292 146.054 45.7021C145.969 46.2848 145.591 46.9294 144.921 47.6357L141.859 50.7363H145.629L145.595 51ZM151.234 43.793L151.2 44.0566C150.282 44.0566 149.507 44.3545 148.876 44.9502C148.244 45.5426 147.799 46.3662 147.538 47.4209C147.746 47.141 147.997 46.9082 148.29 46.7227C148.707 46.459 149.158 46.3271 149.643 46.3271C150.036 46.3271 150.37 46.4297 150.644 46.6348C150.917 46.8398 151.109 47.1198 151.22 47.4746C151.334 47.8294 151.36 48.2233 151.298 48.6562C151.229 49.1055 151.08 49.5221 150.849 49.9062C150.621 50.2904 150.344 50.585 150.019 50.79C149.693 50.9951 149.35 51.0977 148.988 51.0977C148.559 51.0977 148.189 50.9886 147.88 50.7705C147.574 50.5492 147.353 50.2432 147.216 49.8525C147.079 49.4619 147.043 49.0436 147.108 48.5977L147.221 47.8701C147.416 46.6136 147.859 45.6208 148.549 44.8916C149.239 44.1592 150.134 43.793 151.234 43.793ZM149.608 46.5908C149.153 46.5908 148.71 46.7275 148.28 47.001C147.854 47.2712 147.585 47.5934 147.475 47.9678L147.372 48.5928C147.31 48.9997 147.336 49.3789 147.45 49.7305C147.564 50.082 147.753 50.3555 148.017 50.5508C148.28 50.7461 148.603 50.8421 148.983 50.8389C149.381 50.8356 149.745 50.6956 150.077 50.4189C150.412 50.1423 150.673 49.7646 150.858 49.2861C151.044 48.8076 151.107 48.3438 151.049 47.8945C150.993 47.4844 150.839 47.1654 150.585 46.9375C150.331 46.7064 150.006 46.5908 149.608 46.5908ZM154.096 51.0977C153.725 51.0977 153.412 51.0049 153.158 50.8193C152.904 50.6338 152.717 50.3604 152.597 49.999C152.479 49.6344 152.431 49.2194 152.45 48.7539L152.489 48.2852L152.724 46.8984C152.89 45.9316 153.194 45.1715 153.637 44.6182C154.079 44.0648 154.634 43.7881 155.302 43.7881C155.679 43.7881 155.995 43.8825 156.249 44.0713C156.503 44.2568 156.688 44.5335 156.806 44.9014C156.923 45.2692 156.97 45.681 156.947 46.1367L156.898 46.6641L156.659 48.0508C156.49 49.0111 156.184 49.7598 155.741 50.2969C155.299 50.8307 154.75 51.0977 154.096 51.0977ZM156.684 45.5996C156.641 45.0853 156.503 44.6995 156.269 44.4424C156.034 44.182 155.714 44.0518 155.307 44.0518C154.721 44.0518 154.226 44.3024 153.822 44.8037C153.422 45.3018 153.142 46.0098 152.982 46.9277L152.758 48.2461L152.719 48.6611C152.686 49.0648 152.714 49.4375 152.802 49.7793C152.89 50.1211 153.043 50.3831 153.261 50.5654C153.479 50.7445 153.756 50.834 154.091 50.834C154.674 50.834 155.163 50.5882 155.561 50.0967C155.961 49.6019 156.239 48.915 156.396 48.0361L156.601 46.874C156.685 46.3955 156.713 45.9707 156.684 45.5996ZM162.064 50.3066L162.128 50.7217L162.338 50.2871L165.648 43.8955H165.941L162.265 51H161.947L160.468 43.8857H160.746L162.064 50.3066ZM166.127 51H165.863L166.771 45.7168H167.035L166.127 51ZM166.928 44.0566C166.938 43.9915 166.972 43.9313 167.03 43.876C167.092 43.8206 167.157 43.793 167.226 43.793C167.3 43.793 167.361 43.8223 167.406 43.8809C167.455 43.9395 167.473 44.0046 167.46 44.0762C167.45 44.1413 167.414 44.2015 167.353 44.2568C167.291 44.3089 167.226 44.335 167.157 44.335C167.082 44.3317 167.022 44.3024 166.977 44.2471C166.931 44.1917 166.915 44.1283 166.928 44.0566ZM169.853 51.0977C169.488 51.0977 169.164 51.0179 168.881 50.8584C168.601 50.6989 168.393 50.4678 168.256 50.165L168.104 51H167.841L169.135 43.5H169.398L168.832 46.6787C169.076 46.3369 169.361 46.0749 169.687 45.8926C170.015 45.7103 170.368 45.6191 170.746 45.6191C171.088 45.6191 171.379 45.7038 171.62 45.873C171.861 46.0423 172.037 46.2913 172.147 46.6201C172.261 46.9456 172.312 47.307 172.299 47.7041C172.289 47.9124 172.27 48.1126 172.24 48.3047L172.177 48.627C172.007 49.3919 171.718 49.9958 171.308 50.4385C170.897 50.8779 170.412 51.0977 169.853 51.0977ZM171.967 48.3047L172.025 47.7822C172.051 47.4274 172.021 47.0986 171.933 46.7959C171.848 46.4932 171.703 46.2653 171.498 46.1123C171.296 45.9593 171.047 45.8828 170.751 45.8828C170.318 45.8828 169.91 46.013 169.525 46.2734C169.145 46.5339 168.889 46.8561 168.759 47.2402L168.324 49.6621C168.402 50.0397 168.576 50.3294 168.847 50.5312C169.12 50.7331 169.455 50.834 169.853 50.834C170.377 50.834 170.821 50.6191 171.186 50.1895C171.55 49.7565 171.804 49.1624 171.947 48.4072L171.967 48.3047ZM174.779 50.5898L174.828 50.4873L177.431 45.7217H177.729L174.389 51.8887C174.148 52.3444 173.904 52.6634 173.656 52.8457C173.409 53.0312 173.134 53.1273 172.831 53.1338C172.707 53.1338 172.577 53.1159 172.44 53.0801L172.47 52.8311C172.636 52.8604 172.746 52.875 172.802 52.875C173.235 52.875 173.609 52.6341 173.925 52.1523L174.12 51.8301L174.594 50.9463L173.451 45.7119H173.729L174.779 50.5898ZM184.848 43.8906H185.111L184.271 48.7588C184.148 49.4749 183.869 50.0446 183.437 50.4678C183.007 50.8877 182.494 51.0977 181.898 51.0977C181.28 51.0977 180.824 50.9089 180.531 50.5312C180.238 50.1504 180.139 49.654 180.233 49.042H180.497C180.455 49.3024 180.451 49.5417 180.487 49.7598C180.543 50.1081 180.691 50.375 180.932 50.5605C181.176 50.7428 181.496 50.834 181.894 50.834C182.424 50.834 182.882 50.6419 183.266 50.2578C183.65 49.8737 183.896 49.374 184.003 48.7588L184.848 43.8906Z" fill="#707070"/>
<path d="M76.752 122.736H80.2822L80.248 123H76.4346L77.665 115.891H77.9336L76.752 122.736ZM84.584 123L84.75 122.146C84.5189 122.465 84.2389 122.704 83.9102 122.863C83.5814 123.02 83.2201 123.098 82.8262 123.098C82.416 123.098 82.0905 122.989 81.8496 122.771C81.612 122.552 81.4736 122.242 81.4346 121.838C81.4118 121.581 81.4232 121.315 81.4688 121.042L82.04 117.717H82.3037L81.7227 121.081C81.6868 121.302 81.6755 121.517 81.6885 121.726C81.7048 122.077 81.8105 122.351 82.0059 122.546C82.2012 122.738 82.4714 122.834 82.8164 122.834C83.2917 122.834 83.7197 122.705 84.1006 122.448C84.4814 122.188 84.7321 121.849 84.8525 121.433L85.4922 117.717H85.7607L84.8525 123H84.584ZM86.9033 123L87.7627 117.985H86.8838L86.918 117.717H87.8164L87.9385 116.965C88.0264 116.486 88.2103 116.107 88.4902 115.827C88.7702 115.547 89.1201 115.404 89.54 115.397C89.7451 115.397 89.9502 115.427 90.1553 115.485L90.082 115.729C89.877 115.677 89.6963 115.655 89.54 115.661C89.1982 115.668 88.9085 115.791 88.6709 116.032C88.4333 116.27 88.277 116.597 88.2021 117.014L88.0752 117.717H89.4277L89.3887 117.985H88.0312L87.167 123H86.9033ZM91.3564 116.291L91.1123 117.717H92.2695L92.2354 117.985H91.0635L90.3945 121.853L90.375 122.121C90.3652 122.342 90.4108 122.517 90.5117 122.644C90.6126 122.767 90.7656 122.831 90.9707 122.834C91.0618 122.834 91.2393 122.819 91.5029 122.79L91.5127 123.039C91.363 123.078 91.1855 123.098 90.9805 123.098C90.4271 123.098 90.139 122.813 90.1162 122.243C90.1097 122.077 90.1211 121.908 90.1504 121.735L90.7949 117.985H89.8525L89.8916 117.717H90.8438L91.0879 116.291H91.3564ZM93.6855 118.947C93.9492 118.521 94.2601 118.194 94.6182 117.966C94.9762 117.735 95.3457 117.619 95.7266 117.619C96.1302 117.619 96.4476 117.723 96.6787 117.932C96.9098 118.14 97.0433 118.441 97.0791 118.835C97.0986 119.082 97.0856 119.341 97.04 119.611L96.4541 123H96.1904L96.7764 119.611C96.8154 119.383 96.8317 119.159 96.8252 118.938C96.8089 118.592 96.7064 118.329 96.5176 118.146C96.332 117.964 96.0651 117.875 95.7168 117.878C95.2708 117.884 94.8411 118.059 94.4277 118.4C94.0176 118.739 93.7393 119.144 93.5928 119.616L93.0068 123H92.7432L94.0371 115.5H94.3008L93.6855 118.947ZM101.459 123C101.449 122.714 101.48 122.391 101.552 122.033C101.278 122.368 100.953 122.631 100.575 122.819C100.201 123.008 99.7939 123.101 99.3545 123.098C98.9118 123.098 98.5586 122.961 98.2949 122.688C98.0312 122.414 97.932 122.072 97.9971 121.662C98.0785 121.164 98.3535 120.775 98.8223 120.495C99.2943 120.215 99.8916 120.067 100.614 120.051H101.869L102.011 119.279C102.079 118.846 101.993 118.506 101.752 118.259C101.511 118.008 101.164 117.883 100.712 117.883C100.269 117.883 99.8688 118.002 99.5107 118.239C99.1527 118.474 98.9281 118.783 98.8369 119.167L98.5732 119.157C98.6644 118.705 98.915 118.335 99.3252 118.049C99.7354 117.762 100.198 117.619 100.712 117.619C101.249 117.619 101.661 117.772 101.947 118.078C102.234 118.381 102.34 118.785 102.265 119.289L101.781 122.111L101.747 122.443C101.731 122.616 101.737 122.787 101.767 122.956L101.762 123H101.459ZM99.3496 122.839C99.7858 122.845 100.201 122.741 100.595 122.526C100.989 122.308 101.324 121.991 101.601 121.574L101.825 120.319H100.644C99.986 120.332 99.4424 120.459 99.0127 120.7C98.5863 120.938 98.334 121.265 98.2559 121.682C98.1973 122.004 98.2738 122.276 98.4854 122.497C98.7002 122.718 98.9883 122.832 99.3496 122.839ZM104.813 122.57L107.416 117.722H107.704L104.896 123H104.638L103.461 117.712H103.734L104.813 122.57ZM108.832 118.947C109.096 118.521 109.407 118.194 109.765 117.966C110.123 117.735 110.492 117.619 110.873 117.619C111.277 117.619 111.594 117.723 111.825 117.932C112.056 118.14 112.19 118.441 112.226 118.835C112.245 119.082 112.232 119.341 112.187 119.611L111.601 123H111.337L111.923 119.611C111.962 119.383 111.978 119.159 111.972 118.938C111.955 118.592 111.853 118.329 111.664 118.146C111.479 117.964 111.212 117.875 110.863 117.878C110.417 117.884 109.988 118.059 109.574 118.4C109.164 118.739 108.886 119.144 108.739 119.616L108.153 123H107.89L108.798 117.717H109.062L108.832 118.947ZM116.688 121.706C116.806 121.094 116.36 120.66 115.351 120.402L114.809 120.246C114.06 120.002 113.731 119.571 113.822 118.952C113.881 118.552 114.092 118.229 114.457 117.985C114.822 117.741 115.245 117.619 115.727 117.619C116.257 117.619 116.672 117.756 116.972 118.029C117.271 118.303 117.398 118.669 117.353 119.128H117.089C117.128 118.757 117.019 118.457 116.762 118.229C116.505 117.998 116.161 117.883 115.731 117.883C115.315 117.883 114.952 117.979 114.643 118.171C114.333 118.363 114.148 118.62 114.086 118.942C113.988 119.46 114.288 119.828 114.984 120.046L115.712 120.256L115.956 120.339C116.715 120.616 117.047 121.073 116.952 121.711C116.89 122.131 116.672 122.468 116.298 122.722C115.924 122.972 115.476 123.098 114.955 123.098C114.411 123.098 113.977 122.966 113.651 122.702C113.326 122.435 113.186 122.087 113.231 121.657H113.49C113.474 122.022 113.594 122.31 113.852 122.521C114.112 122.73 114.478 122.834 114.95 122.834C115.399 122.824 115.787 122.717 116.112 122.512C116.438 122.303 116.63 122.035 116.688 121.706ZM120.126 123.098C119.761 123.098 119.438 123.018 119.154 122.858C118.874 122.699 118.666 122.468 118.529 122.165L118.378 123H118.114L119.408 115.5H119.672L119.105 118.679C119.35 118.337 119.634 118.075 119.96 117.893C120.289 117.71 120.642 117.619 121.02 117.619C121.361 117.619 121.653 117.704 121.894 117.873C122.134 118.042 122.31 118.291 122.421 118.62C122.535 118.946 122.585 119.307 122.572 119.704C122.562 119.912 122.543 120.113 122.514 120.305L122.45 120.627C122.281 121.392 121.991 121.996 121.581 122.438C121.171 122.878 120.686 123.098 120.126 123.098ZM122.24 120.305L122.299 119.782C122.325 119.427 122.294 119.099 122.206 118.796C122.121 118.493 121.977 118.265 121.771 118.112C121.57 117.959 121.321 117.883 121.024 117.883C120.591 117.883 120.183 118.013 119.799 118.273C119.418 118.534 119.162 118.856 119.032 119.24L118.598 121.662C118.676 122.04 118.85 122.329 119.12 122.531C119.394 122.733 119.729 122.834 120.126 122.834C120.65 122.834 121.094 122.619 121.459 122.189C121.824 121.757 122.077 121.162 122.221 120.407L122.24 120.305ZM123.568 120.256C123.65 119.764 123.814 119.317 124.062 118.913C124.309 118.509 124.618 118.194 124.989 117.966C125.36 117.735 125.766 117.619 126.205 117.619C126.563 117.619 126.881 117.699 127.157 117.858C127.434 118.018 127.654 118.256 127.816 118.571C127.979 118.884 128.072 119.23 128.095 119.611C128.104 119.833 128.085 120.116 128.036 120.461C127.955 120.952 127.789 121.402 127.538 121.809C127.291 122.215 126.981 122.533 126.61 122.761C126.243 122.985 125.84 123.098 125.404 123.098C125.043 123.098 124.724 123.018 124.447 122.858C124.174 122.696 123.954 122.46 123.788 122.15C123.625 121.838 123.534 121.488 123.515 121.101C123.502 120.882 123.52 120.601 123.568 120.256ZM123.798 121.301C123.863 121.773 124.037 122.147 124.32 122.424C124.604 122.697 124.963 122.834 125.399 122.834C125.91 122.834 126.371 122.655 126.781 122.297C127.195 121.939 127.493 121.455 127.675 120.847C127.825 120.342 127.868 119.865 127.807 119.416C127.735 118.944 127.558 118.571 127.274 118.298C126.994 118.021 126.64 117.883 126.21 117.883C125.699 117.883 125.237 118.065 124.823 118.43C124.41 118.791 124.112 119.271 123.93 119.87C123.78 120.368 123.736 120.845 123.798 121.301ZM132.309 123L132.475 122.146C132.243 122.465 131.964 122.704 131.635 122.863C131.306 123.02 130.945 123.098 130.551 123.098C130.141 123.098 129.815 122.989 129.574 122.771C129.337 122.552 129.198 122.242 129.159 121.838C129.136 121.581 129.148 121.315 129.193 121.042L129.765 117.717H130.028L129.447 121.081C129.411 121.302 129.4 121.517 129.413 121.726C129.429 122.077 129.535 122.351 129.73 122.546C129.926 122.738 130.196 122.834 130.541 122.834C131.016 122.834 131.444 122.705 131.825 122.448C132.206 122.188 132.457 121.849 132.577 121.433L133.217 117.717H133.485L132.577 123H132.309ZM134.564 123H134.301L135.59 115.5H135.854L134.564 123ZM138.217 123.098C137.794 123.098 137.429 122.979 137.123 122.741C136.817 122.504 136.596 122.18 136.459 121.77C136.326 121.356 136.291 120.923 136.356 120.471L136.396 120.227C136.474 119.751 136.64 119.307 136.894 118.894C137.151 118.48 137.455 118.164 137.807 117.946C138.158 117.728 138.534 117.619 138.935 117.619C139.468 117.619 139.887 117.816 140.189 118.21C140.492 118.604 140.621 119.108 140.575 119.724L140.561 119.875L140.517 120.183H136.679L136.625 120.471C136.579 120.744 136.578 121.021 136.62 121.301C136.692 121.766 136.869 122.139 137.152 122.419C137.439 122.696 137.792 122.836 138.212 122.839C138.821 122.845 139.369 122.604 139.857 122.116L140.033 122.253C139.551 122.816 138.946 123.098 138.217 123.098ZM138.935 117.883C138.433 117.883 137.984 118.072 137.587 118.449C137.193 118.824 136.9 119.313 136.708 119.919H140.272L140.287 119.855C140.329 119.621 140.333 119.387 140.297 119.152C140.238 118.768 140.085 118.461 139.838 118.229C139.594 117.998 139.293 117.883 138.935 117.883ZM142.772 122.57L145.375 117.722H145.663L142.855 123H142.597L141.42 117.712H141.693L142.772 122.57ZM149.125 123C149.115 122.714 149.146 122.391 149.218 122.033C148.944 122.368 148.619 122.631 148.241 122.819C147.867 123.008 147.46 123.101 147.021 123.098C146.578 123.098 146.225 122.961 145.961 122.688C145.697 122.414 145.598 122.072 145.663 121.662C145.744 121.164 146.02 120.775 146.488 120.495C146.96 120.215 147.558 120.067 148.28 120.051H149.535L149.677 119.279C149.745 118.846 149.659 118.506 149.418 118.259C149.177 118.008 148.83 117.883 148.378 117.883C147.935 117.883 147.535 118.002 147.177 118.239C146.819 118.474 146.594 118.783 146.503 119.167L146.239 119.157C146.33 118.705 146.581 118.335 146.991 118.049C147.401 117.762 147.864 117.619 148.378 117.619C148.915 117.619 149.327 117.772 149.613 118.078C149.9 118.381 150.006 118.785 149.931 119.289L149.447 122.111L149.413 122.443C149.397 122.616 149.403 122.787 149.433 122.956L149.428 123H149.125ZM147.016 122.839C147.452 122.845 147.867 122.741 148.261 122.526C148.655 122.308 148.99 121.991 149.267 121.574L149.491 120.319H148.31C147.652 120.332 147.108 120.459 146.679 120.7C146.252 120.938 146 121.265 145.922 121.682C145.863 122.004 145.94 122.276 146.151 122.497C146.366 122.718 146.654 122.832 147.016 122.839ZM154.096 117.902L153.778 117.878C153.342 117.878 152.937 118.039 152.562 118.361C152.188 118.684 151.938 119.076 151.811 119.538L151.21 123H150.946L151.854 117.717H152.118L151.913 118.815C152.134 118.438 152.405 118.145 152.724 117.937C153.043 117.725 153.397 117.619 153.788 117.619C153.912 117.619 154.035 117.639 154.159 117.678L154.096 117.902ZM154.374 120.305C154.465 119.774 154.625 119.299 154.853 118.879C155.084 118.459 155.362 118.145 155.688 117.937C156.013 117.725 156.368 117.619 156.752 117.619C157.123 117.619 157.445 117.712 157.719 117.897C157.995 118.083 158.196 118.347 158.319 118.688L158.876 115.5H159.14L157.846 123H157.582L157.748 122.155C157.514 122.451 157.234 122.683 156.908 122.849C156.583 123.015 156.228 123.098 155.844 123.098C155.499 123.098 155.209 123.013 154.975 122.844C154.74 122.671 154.566 122.421 154.452 122.092C154.341 121.76 154.293 121.395 154.306 120.998C154.312 120.812 154.335 120.581 154.374 120.305ZM154.574 120.925C154.548 121.283 154.576 121.612 154.657 121.911C154.739 122.211 154.879 122.44 155.077 122.6C155.279 122.756 155.531 122.834 155.834 122.834C156.257 122.837 156.636 122.736 156.972 122.531C157.31 122.326 157.587 122.046 157.802 121.691L158.241 119.216C158.173 118.793 158.008 118.465 157.748 118.234C157.491 118 157.159 117.883 156.752 117.883C156.339 117.883 155.971 118.021 155.648 118.298C155.326 118.571 155.074 118.952 154.892 119.44C154.709 119.929 154.604 120.424 154.574 120.925ZM161.43 123.098C161.007 123.098 160.642 122.979 160.336 122.741C160.03 122.504 159.809 122.18 159.672 121.77C159.538 121.356 159.504 120.923 159.569 120.471L159.608 120.227C159.687 119.751 159.853 119.307 160.106 118.894C160.364 118.48 160.668 118.164 161.02 117.946C161.371 117.728 161.747 117.619 162.147 117.619C162.681 117.619 163.1 117.816 163.402 118.21C163.705 118.604 163.834 119.108 163.788 119.724L163.773 119.875L163.729 120.183H159.892L159.838 120.471C159.792 120.744 159.791 121.021 159.833 121.301C159.905 121.766 160.082 122.139 160.365 122.419C160.652 122.696 161.005 122.836 161.425 122.839C162.034 122.845 162.582 122.604 163.07 122.116L163.246 122.253C162.764 122.816 162.159 123.098 161.43 123.098ZM162.147 117.883C161.646 117.883 161.197 118.072 160.8 118.449C160.406 118.824 160.113 119.313 159.921 119.919H163.485L163.5 119.855C163.542 119.621 163.546 119.387 163.51 119.152C163.451 118.768 163.298 118.461 163.051 118.229C162.807 117.998 162.506 117.883 162.147 117.883ZM165.385 118.947C165.648 118.521 165.959 118.194 166.317 117.966C166.675 117.735 167.045 117.619 167.426 117.619C167.829 117.619 168.147 117.723 168.378 117.932C168.609 118.14 168.743 118.441 168.778 118.835C168.798 119.082 168.785 119.341 168.739 119.611L168.153 123H167.89L168.476 119.611C168.515 119.383 168.531 119.159 168.524 118.938C168.508 118.592 168.406 118.329 168.217 118.146C168.031 117.964 167.764 117.875 167.416 117.878C166.97 117.884 166.54 118.059 166.127 118.4C165.717 118.739 165.438 119.144 165.292 119.616L164.706 123H164.442L165.351 117.717H165.614L165.385 118.947ZM176.547 115.793L176.513 116.057C175.595 116.057 174.82 116.354 174.188 116.95C173.557 117.543 173.111 118.366 172.851 119.421C173.059 119.141 173.31 118.908 173.603 118.723C174.019 118.459 174.47 118.327 174.955 118.327C175.349 118.327 175.683 118.43 175.956 118.635C176.229 118.84 176.422 119.12 176.532 119.475C176.646 119.829 176.672 120.223 176.61 120.656C176.542 121.105 176.392 121.522 176.161 121.906C175.933 122.29 175.657 122.585 175.331 122.79C175.006 122.995 174.662 123.098 174.301 123.098C173.871 123.098 173.502 122.989 173.192 122.771C172.886 122.549 172.665 122.243 172.528 121.853C172.392 121.462 172.356 121.044 172.421 120.598L172.533 119.87C172.729 118.614 173.171 117.621 173.861 116.892C174.551 116.159 175.447 115.793 176.547 115.793ZM174.921 118.591C174.465 118.591 174.022 118.728 173.593 119.001C173.166 119.271 172.898 119.593 172.787 119.968L172.685 120.593C172.623 121 172.649 121.379 172.763 121.73C172.877 122.082 173.065 122.355 173.329 122.551C173.593 122.746 173.915 122.842 174.296 122.839C174.693 122.836 175.058 122.696 175.39 122.419C175.725 122.142 175.985 121.765 176.171 121.286C176.356 120.808 176.42 120.344 176.361 119.895C176.306 119.484 176.151 119.165 175.897 118.938C175.644 118.706 175.318 118.591 174.921 118.591ZM177.133 124.245L176.967 124.079C177.315 123.688 177.525 123.288 177.597 122.878L177.709 122.224H177.973L177.87 122.839C177.776 123.399 177.53 123.868 177.133 124.245ZM185.868 123H181.742L181.771 122.736L184.96 119.519C185.598 118.861 185.963 118.256 186.054 117.702C186.138 117.22 186.054 116.826 185.8 116.521C185.546 116.211 185.165 116.057 184.657 116.057C184.162 116.057 183.726 116.232 183.349 116.584C182.971 116.932 182.73 117.37 182.626 117.897H182.362C182.466 117.292 182.733 116.791 183.163 116.394C183.596 115.993 184.092 115.793 184.652 115.793C185.232 115.793 185.676 115.969 185.985 116.32C186.298 116.669 186.412 117.129 186.327 117.702C186.243 118.285 185.865 118.929 185.194 119.636L182.133 122.736H185.902L185.868 123ZM192.23 116.057L188.119 123H187.846L191.908 116.154H187.807L187.841 115.891H192.25L192.23 116.057ZM197.592 116.057L193.48 123H193.207L197.27 116.154H193.168L193.202 115.891H197.611L197.592 116.057ZM199.73 123.098C199.359 123.098 199.047 123.005 198.793 122.819C198.539 122.634 198.352 122.36 198.231 121.999C198.114 121.634 198.065 121.219 198.085 120.754L198.124 120.285L198.358 118.898C198.524 117.932 198.829 117.172 199.271 116.618C199.714 116.065 200.269 115.788 200.937 115.788C201.314 115.788 201.63 115.882 201.884 116.071C202.138 116.257 202.323 116.534 202.44 116.901C202.558 117.269 202.605 117.681 202.582 118.137L202.533 118.664L202.294 120.051C202.125 121.011 201.819 121.76 201.376 122.297C200.933 122.831 200.385 123.098 199.73 123.098ZM202.318 117.6C202.276 117.085 202.138 116.7 201.903 116.442C201.669 116.182 201.348 116.052 200.941 116.052C200.355 116.052 199.861 116.302 199.457 116.804C199.057 117.302 198.777 118.01 198.617 118.928L198.393 120.246L198.354 120.661C198.321 121.065 198.349 121.438 198.437 121.779C198.524 122.121 198.677 122.383 198.896 122.565C199.114 122.744 199.39 122.834 199.726 122.834C200.308 122.834 200.798 122.588 201.195 122.097C201.596 121.602 201.874 120.915 202.03 120.036L202.235 118.874C202.32 118.396 202.348 117.971 202.318 117.6ZM207.753 119.265L206.449 120.324L205.99 123H205.727L206.952 115.891H207.216L206.508 119.973L207.816 118.859L211.195 115.891L211.605 115.896L207.953 119.099L210.595 123H210.272L207.753 119.265ZM215.16 123C215.15 122.714 215.181 122.391 215.253 122.033C214.979 122.368 214.654 122.631 214.276 122.819C213.902 123.008 213.495 123.101 213.056 123.098C212.613 123.098 212.26 122.961 211.996 122.688C211.732 122.414 211.633 122.072 211.698 121.662C211.78 121.164 212.055 120.775 212.523 120.495C212.995 120.215 213.593 120.067 214.315 120.051H215.57L215.712 119.279C215.78 118.846 215.694 118.506 215.453 118.259C215.212 118.008 214.866 117.883 214.413 117.883C213.97 117.883 213.57 118.002 213.212 118.239C212.854 118.474 212.629 118.783 212.538 119.167L212.274 119.157C212.366 118.705 212.616 118.335 213.026 118.049C213.437 117.762 213.899 117.619 214.413 117.619C214.95 117.619 215.362 117.772 215.648 118.078C215.935 118.381 216.041 118.785 215.966 119.289L215.482 122.111L215.448 122.443C215.432 122.616 215.438 122.787 215.468 122.956L215.463 123H215.16ZM213.051 122.839C213.487 122.845 213.902 122.741 214.296 122.526C214.69 122.308 215.025 121.991 215.302 121.574L215.526 120.319H214.345C213.687 120.332 213.144 120.459 212.714 120.7C212.287 120.938 212.035 121.265 211.957 121.682C211.898 122.004 211.975 122.276 212.187 122.497C212.401 122.718 212.689 122.832 213.051 122.839ZM220.419 121.706C220.536 121.094 220.09 120.66 219.081 120.402L218.539 120.246C217.79 120.002 217.462 119.571 217.553 118.952C217.611 118.552 217.823 118.229 218.188 117.985C218.552 117.741 218.975 117.619 219.457 117.619C219.988 117.619 220.403 117.756 220.702 118.029C221.002 118.303 221.129 118.669 221.083 119.128H220.819C220.858 118.757 220.749 118.457 220.492 118.229C220.235 117.998 219.892 117.883 219.462 117.883C219.045 117.883 218.682 117.979 218.373 118.171C218.064 118.363 217.878 118.62 217.816 118.942C217.719 119.46 218.018 119.828 218.715 120.046L219.442 120.256L219.687 120.339C220.445 120.616 220.777 121.073 220.683 121.711C220.621 122.131 220.403 122.468 220.028 122.722C219.654 122.972 219.206 123.098 218.686 123.098C218.142 123.098 217.707 122.966 217.382 122.702C217.056 122.435 216.916 122.087 216.962 121.657H217.221C217.204 122.022 217.325 122.31 217.582 122.521C217.842 122.73 218.209 122.834 218.681 122.834C219.13 122.824 219.517 122.717 219.843 122.512C220.168 122.303 220.36 122.035 220.419 121.706ZM223.593 116.291L223.349 117.717H224.506L224.472 117.985H223.3L222.631 121.853L222.611 122.121C222.602 122.342 222.647 122.517 222.748 122.644C222.849 122.767 223.002 122.831 223.207 122.834C223.298 122.834 223.476 122.819 223.739 122.79L223.749 123.039C223.599 123.078 223.422 123.098 223.217 123.098C222.663 123.098 222.375 122.813 222.353 122.243C222.346 122.077 222.357 121.908 222.387 121.735L223.031 117.985H222.089L222.128 117.717H223.08L223.324 116.291H223.593ZM228.129 117.902L227.812 117.878C227.375 117.878 226.97 118.039 226.596 118.361C226.221 118.684 225.971 119.076 225.844 119.538L225.243 123H224.979L225.888 117.717H226.151L225.946 118.815C226.168 118.438 226.438 118.145 226.757 117.937C227.076 117.725 227.431 117.619 227.821 117.619C227.945 117.619 228.069 117.639 228.192 117.678L228.129 117.902ZM231.703 123L231.869 122.146C231.638 122.465 231.358 122.704 231.029 122.863C230.701 123.02 230.339 123.098 229.945 123.098C229.535 123.098 229.21 122.989 228.969 122.771C228.731 122.552 228.593 122.242 228.554 121.838C228.531 121.581 228.542 121.315 228.588 121.042L229.159 117.717H229.423L228.842 121.081C228.806 121.302 228.795 121.517 228.808 121.726C228.824 122.077 228.93 122.351 229.125 122.546C229.32 122.738 229.59 122.834 229.936 122.834C230.411 122.834 230.839 122.705 231.22 122.448C231.601 122.188 231.851 121.849 231.972 121.433L232.611 117.717H232.88L231.972 123H231.703ZM235.634 123.098C235.259 123.098 234.932 123.016 234.652 122.854C234.372 122.691 234.167 122.466 234.037 122.18L233.534 125.031H233.271L234.53 117.717H234.794L234.613 118.659C234.844 118.347 235.121 118.096 235.443 117.907C235.769 117.715 236.13 117.619 236.527 117.619C236.869 117.619 237.16 117.704 237.401 117.873C237.642 118.042 237.818 118.291 237.929 118.62C238.043 118.946 238.093 119.307 238.08 119.704C238.07 119.912 238.051 120.113 238.021 120.305L237.958 120.627C237.789 121.392 237.499 121.996 237.089 122.438C236.679 122.878 236.194 123.098 235.634 123.098ZM237.753 120.305L237.812 119.782C237.844 119.164 237.748 118.693 237.523 118.371C237.299 118.046 236.968 117.883 236.532 117.883C236.103 117.883 235.696 118.011 235.312 118.269C234.931 118.522 234.675 118.838 234.545 119.216L234.105 121.687C234.18 122.054 234.354 122.338 234.628 122.536C234.905 122.735 235.24 122.834 235.634 122.834C236.161 122.834 236.607 122.619 236.972 122.189C237.336 121.757 237.592 121.156 237.738 120.388L237.753 120.305Z" fill="#707070"/>
<path d="M14.083 107H13.2041V97.3906L10.3037 98.4673V97.647L13.9365 96.2993H14.083V107ZM23.4946 96.2554V97.0244H23.3921C22.1177 97.0244 21.1143 97.4004 20.3818 98.1523C19.6494 98.8994 19.2441 99.9395 19.166 101.272C19.459 100.867 19.8325 100.555 20.2866 100.335C20.7407 100.11 21.2485 99.998 21.8101 99.998C22.7476 99.998 23.4922 100.323 24.0439 100.972C24.6006 101.617 24.8789 102.461 24.8789 103.506C24.8789 104.2 24.7495 104.825 24.4907 105.381C24.2319 105.938 23.8608 106.373 23.3774 106.685C22.894 106.993 22.3423 107.146 21.7222 107.146C20.7017 107.146 19.8716 106.778 19.2319 106.041C18.5923 105.298 18.2725 104.341 18.2725 103.169V102.291C18.2725 100.381 18.707 98.9043 19.5762 97.8594C20.4453 96.8096 21.6782 96.2749 23.2749 96.2554H23.4946ZM21.6709 100.752C21.1143 100.752 20.5942 100.918 20.1108 101.25C19.6323 101.578 19.3125 101.995 19.1514 102.503V103.25C19.1514 104.178 19.3882 104.935 19.8618 105.521C20.3403 106.106 20.9604 106.399 21.7222 106.399C22.4058 106.399 22.9575 106.128 23.3774 105.586C23.8022 105.044 24.0146 104.361 24.0146 103.536C24.0146 102.696 23.8022 102.022 23.3774 101.514C22.9575 101.006 22.3887 100.752 21.6709 100.752ZM26.7026 106.473C26.7026 106.302 26.7563 106.158 26.8638 106.041C26.9761 105.918 27.1299 105.857 27.3252 105.857C27.5205 105.857 27.6743 105.918 27.7866 106.041C27.8989 106.158 27.9551 106.302 27.9551 106.473C27.9551 106.644 27.8989 106.785 27.7866 106.897C27.6743 107.005 27.5205 107.059 27.3252 107.059C27.1299 107.059 26.9761 107.005 26.8638 106.897C26.7563 106.785 26.7026 106.644 26.7026 106.473ZM36.9126 107H30.2329V106.326L33.8877 102.181C34.4932 101.482 34.9131 100.906 35.1475 100.452C35.3818 99.998 35.499 99.5562 35.499 99.1265C35.499 98.4526 35.3013 97.9204 34.9058 97.5298C34.5103 97.1343 33.9658 96.9365 33.2725 96.9365C32.5547 96.9365 31.9736 97.166 31.5293 97.625C31.0898 98.084 30.8701 98.6797 30.8701 99.4121H29.9985C29.9985 98.8115 30.1328 98.2646 30.4014 97.7715C30.6748 97.2783 31.0605 96.8926 31.5586 96.6143C32.0615 96.3311 32.6328 96.1895 33.2725 96.1895C34.249 96.1895 35.0107 96.4458 35.5576 96.9585C36.1094 97.4712 36.3853 98.1694 36.3853 99.0532C36.3853 99.5513 36.229 100.096 35.9165 100.687C35.6089 101.277 35.0645 102.015 34.2832 102.898L31.3096 106.26H36.9126V107ZM44.0244 102.063C43.7119 102.522 43.3237 102.879 42.8599 103.133C42.396 103.382 41.8931 103.506 41.3511 103.506C40.7456 103.506 40.2109 103.35 39.7471 103.038C39.2832 102.725 38.9243 102.293 38.6704 101.741C38.4165 101.189 38.2896 100.586 38.2896 99.9321C38.2896 99.229 38.4238 98.5894 38.6924 98.0132C38.9658 97.437 39.3442 96.9902 39.8276 96.6729C40.3159 96.3506 40.8774 96.1895 41.5122 96.1895C42.5815 96.1895 43.4141 96.5654 44.0098 97.3174C44.6055 98.0645 44.9033 99.1265 44.9033 100.503V101.294C44.9033 103.218 44.4932 104.664 43.6729 105.63C42.8525 106.597 41.6001 107.081 39.9155 107.081H39.7544L39.7617 106.319H40.0693C41.3438 106.299 42.313 105.938 42.9771 105.235C43.6411 104.532 43.9902 103.475 44.0244 102.063ZM41.4609 102.752C42.0469 102.752 42.5718 102.579 43.0356 102.232C43.5044 101.88 43.8364 101.426 44.0317 100.87V100.364C44.0317 99.2803 43.8047 98.4404 43.3506 97.8447C42.9014 97.2441 42.2935 96.9438 41.5269 96.9438C40.8335 96.9438 40.2646 97.2246 39.8203 97.7861C39.376 98.3428 39.1538 99.0459 39.1538 99.8955C39.1538 100.711 39.3662 101.392 39.791 101.939C40.2207 102.481 40.7773 102.752 41.4609 102.752Z" fill="#333333"/>
<circle cx="59" cy="31" r="3" fill="#B32B32"/>
<g clip-path="url(#clip0)">
<path d="M204.748 77.6415C204.252 77.6415 203.851 77.2397 203.851 76.7439V75.8464H205.646V76.7439C205.646 77.2397 205.244 77.6415 204.748 77.6415Z" fill="#4980A8"/>
<path d="M217.462 77.6415C216.966 77.6415 216.564 77.2397 216.564 76.7439V75.8464H218.359V76.7439C218.359 77.2397 217.957 77.6415 217.462 77.6415Z" fill="#4980A8"/>
<path d="M221.099 75.7709C221.099 75.1187 220.84 74.4933 220.379 74.0319L216.296 69.949C214.932 68.5852 213.082 67.8189 211.153 67.8189H201.404V75.8464H221.024C221.048 75.8464 221.073 75.8451 221.097 75.8444C221.098 75.82 221.099 75.7957 221.099 75.7709Z" fill="#4980A8"/>
<path d="M219.96 68.8457H213.706C213.012 68.8457 212.449 69.4083 212.449 70.1021C212.449 70.7962 213.012 71.3587 213.706 71.3587H222.473L219.96 68.8457Z" fill="white"/>
<path d="M201.404 68.8457H208.405C209.099 68.8457 209.661 69.4083 209.661 70.1021C209.661 70.7962 209.099 71.3587 208.405 71.3587H201.404" fill="white"/>
<path d="M223.506 77.1926H218.73C218.78 77.0522 218.807 76.9013 218.807 76.7439V76.2952H221.024C222.627 76.2952 223.932 74.9906 223.932 73.3871C223.932 72.6104 223.629 71.8801 223.08 71.3308L222.791 71.0415L220.278 68.5283H220.277L218.997 67.2478C217.539 65.7895 215.6 64.9863 213.537 64.9863H201.404C201.156 64.9863 200.955 65.1872 200.955 65.435C200.955 65.683 201.156 65.8839 201.404 65.8839H213.537C215.36 65.8839 217.074 66.5937 218.362 67.8825L218.877 68.3969H213.706C212.765 68.3969 212 69.1619 212 70.1021C212 71.0425 212.765 71.8076 213.706 71.8076H222.287L222.445 71.9655C222.825 72.3453 223.034 72.8501 223.034 73.3872C223.034 74.4957 222.132 75.3977 221.024 75.3977H201.404C201.156 75.3977 200.955 75.5986 200.955 75.8464C200.955 76.0943 201.156 76.2952 201.404 76.2952H203.402V76.7439C203.402 76.9013 203.429 77.0522 203.479 77.1928H201.427C201.179 77.1928 200.978 77.3937 200.978 77.6415C200.978 77.8892 201.179 78.0902 201.427 78.0902H208.966C209.214 78.0902 209.415 77.8892 209.415 77.6415C209.415 77.3937 209.214 77.1928 208.966 77.1928H206.017C206.067 77.0522 206.094 76.9013 206.094 76.7439V76.2952H216.115V76.7439C216.115 76.9013 216.142 77.0522 216.192 77.1928H212.469C212.221 77.1928 212.02 77.3937 212.02 77.6415C212.02 77.8892 212.221 78.0902 212.469 78.0902H223.506C223.754 78.0902 223.955 77.8892 223.955 77.6415C223.955 77.3937 223.754 77.1926 223.506 77.1926ZM213.706 70.91C213.26 70.91 212.898 70.5477 212.898 70.1021C212.898 69.6568 213.26 69.2944 213.706 69.2944H219.774L221.39 70.91H213.706ZM205.197 76.7439C205.197 76.9913 204.995 77.1926 204.748 77.1926C204.5 77.1926 204.299 76.9913 204.299 76.7439V76.2952H205.197V76.7439ZM217.012 76.7439V76.2952H217.91V76.7439C217.91 76.9913 217.709 77.1926 217.461 77.1926C217.214 77.1926 217.012 76.9913 217.012 76.7439Z" fill="#333333"/>
<path d="M210.716 77.1926C210.598 77.1926 210.483 77.2407 210.399 77.3242C210.316 77.4076 210.268 77.5234 210.268 77.6415C210.268 77.7594 210.316 77.8752 210.399 77.9588C210.483 78.0421 210.598 78.0902 210.716 78.0902C210.834 78.0902 210.95 78.0423 211.034 77.9588C211.117 77.8752 211.165 77.7594 211.165 77.6415C211.165 77.5234 211.117 77.4076 211.034 77.3242C210.95 77.2407 210.834 77.1926 210.716 77.1926Z" fill="#333333"/>
<path d="M208.405 70.9101H201.404C201.156 70.9101 200.955 71.111 200.955 71.3588C200.955 71.6065 201.156 71.8076 201.404 71.8076H208.405C209.345 71.8076 210.11 71.0425 210.11 70.1022C210.11 69.162 209.345 68.3969 208.405 68.3969H203.117C202.87 68.3969 202.669 68.5978 202.669 68.8458C202.669 69.0935 202.87 69.2945 203.117 69.2945H208.405C208.85 69.2945 209.212 69.6568 209.212 70.1022C209.212 70.5477 208.85 70.9101 208.405 70.9101Z" fill="#333333"/>
<path d="M201.404 68.3969C201.286 68.3969 201.17 68.445 201.087 68.5285C201.003 68.6119 200.955 68.7277 200.955 68.8458C200.955 68.9637 201.003 69.0795 201.087 69.1628C201.17 69.2464 201.286 69.2945 201.404 69.2945C201.522 69.2945 201.638 69.2464 201.721 69.1628C201.805 69.0795 201.853 68.9637 201.853 68.8458C201.853 68.7277 201.805 68.6119 201.721 68.5285C201.638 68.445 201.522 68.3969 201.404 68.3969Z" fill="#333333"/>
</g>
<g clip-path="url(#clip1)">
<path d="M127.198 69.2092C127.198 68.8051 127.466 68.2857 127 68L126.494 64.9026C125.114 64.0578 119.088 64.2832 117.137 64.2832L108 64.5L106 67V69.2559H127.121C127.146 69.2559 127.171 69.2552 127.196 69.2547C127.196 69.2396 127.198 69.2245 127.198 69.2092Z" fill="#4980A8"/>
<path d="M110.527 75.4291C109.89 75.4291 109.372 75.9472 109.372 76.5842C109.372 77.2212 109.89 77.7394 110.527 77.7394C111.164 77.7394 111.682 77.2212 111.682 76.5842C111.682 75.9472 111.164 75.4291 110.527 75.4291ZM110.527 76.899C110.353 76.899 110.212 76.7577 110.212 76.5842C110.212 76.4107 110.353 76.2695 110.527 76.2695C110.7 76.2695 110.842 76.4106 110.842 76.5842C110.842 76.7578 110.7 76.899 110.527 76.899Z" fill="#333333"/>
<path d="M122.473 75.4291C121.836 75.4291 121.318 75.9472 121.318 76.5842C121.318 77.2212 121.836 77.7394 122.473 77.7394C123.11 77.7394 123.628 77.2212 123.628 76.5842C123.628 75.9472 123.11 75.4291 122.473 75.4291ZM122.473 76.899C122.299 76.899 122.158 76.7577 122.158 76.5842C122.158 76.4107 122.3 76.2695 122.473 76.2695C122.647 76.2695 122.788 76.4106 122.788 76.5842C122.788 76.7578 122.647 76.899 122.473 76.899Z" fill="#333333"/>
<path d="M127.467 74.5572V70.6144V66.3203C127.467 64.9829 126.378 63.8948 125.041 63.8948H109.301C107.224 63.8948 105.533 65.5851 105.533 67.6627V74.5571C105.21 74.8002 105 75.1872 105 75.6222V75.6738C105 76.4075 105.597 77.0044 106.331 77.0044H108.041C108.242 78.1951 109.28 79.1052 110.527 79.1052C111.774 79.1052 112.811 78.1951 113.012 77.0044H119.988C120.189 78.1951 121.226 79.1052 122.473 79.1052C123.72 79.1052 124.758 78.1951 124.959 77.0044H126.669C127.403 77.0044 128 76.4075 128 75.6738V75.6222C128 75.1872 127.79 74.8002 127.467 74.5572ZM126.626 70.1942H125.473C125.414 70.1942 125.366 70.1462 125.366 70.0871V66.8475C125.366 66.7885 125.414 66.7405 125.473 66.7405H126.626V70.1942ZM105.84 75.6738V75.6222C105.84 75.3516 106.06 75.1314 106.331 75.1314H108.468C108.254 75.4336 108.105 75.7844 108.041 76.164H106.331C106.06 76.164 105.84 75.9441 105.84 75.6738ZM110.527 78.2648C109.6 78.2648 108.846 77.5108 108.846 76.5841C108.846 75.6574 109.6 74.9034 110.527 74.9034C111.453 74.9034 112.207 75.6574 112.207 76.5841C112.207 77.5108 111.453 78.2648 110.527 78.2648ZM119.988 76.164H113.012C112.811 74.9732 111.774 74.063 110.527 74.063C110.154 74.063 109.8 74.145 109.481 74.291H106.374V67.6628C106.374 66.0485 107.687 64.7352 109.301 64.7352H125.041C125.77 64.7352 126.385 65.2294 126.569 65.9001H125.473C124.951 65.9001 124.526 66.3251 124.526 66.8475V70.0872C124.526 70.6096 124.95 71.0346 125.473 71.0346H126.626V74.2912H123.519C123.2 74.1452 122.846 74.0631 122.473 74.0631C121.226 74.0631 120.189 74.9733 119.988 76.164ZM122.473 78.2648C121.547 78.2648 120.793 77.5108 120.793 76.5841C120.793 75.6574 121.547 74.9034 122.473 74.9034C123.4 74.9034 124.154 75.6574 124.154 76.5841C124.154 77.5108 123.4 78.2648 122.473 78.2648ZM127.16 75.6738C127.16 75.9441 126.94 76.164 126.669 76.164H124.959C124.895 75.7844 124.746 75.4336 124.532 75.1314H126.669C126.94 75.1314 127.16 75.3516 127.16 75.6222V75.6738Z" fill="#333333"/>
<path d="M125.704 73.6377C125.936 73.6377 126.124 73.4495 126.124 73.2175V72.8439C126.124 72.6119 125.936 72.4237 125.704 72.4237C125.472 72.4237 125.284 72.6119 125.284 72.8439V73.2175C125.284 73.4495 125.472 73.6377 125.704 73.6377Z" fill="#333333"/>
<path d="M123.286 70.0872V66.8475C123.286 66.3251 122.861 65.9001 122.339 65.9001H109.401C108.283 65.9001 107.374 66.8095 107.374 67.9273V70.0872C107.374 70.6096 107.798 71.0346 108.321 71.0346H122.339C122.861 71.0346 123.286 70.6096 123.286 70.0872ZM115.75 66.7405H119.053V70.1942H115.75V66.7405ZM114.91 70.1942H111.606V66.7405H114.91V70.1942ZM108.214 70.0872V67.9273C108.214 67.2729 108.746 66.7405 109.401 66.7405H110.766V70.1942H108.321C108.262 70.1942 108.214 70.1462 108.214 70.0872ZM122.446 70.0872C122.446 70.1462 122.398 70.1942 122.339 70.1942H119.894V66.7405H122.339C122.398 66.7405 122.446 66.7884 122.446 66.8475V70.0872Z" fill="#333333"/>
</g>
<rect x="134" y="63" width="45" height="17" rx="8.5" fill="#4980A8"/>
<rect x="231" y="64" width="60" height="16" rx="8" fill="#4980A8"/>
<line x1="59.25" y1="39" x2="59.25" y2="44" stroke="#333333" stroke-width="0.5"/>
<line x1="59.25" y1="46" x2="59.25" y2="51" stroke="#333333" stroke-width="0.5"/>
<line x1="59.25" y1="53" x2="59.25" y2="58" stroke="#333333" stroke-width="0.5"/>
<line x1="59.25" y1="60" x2="59.25" y2="65" stroke="#333333" stroke-width="0.5"/>
<line x1="59.25" y1="67" x2="59.25" y2="72" stroke="#333333" stroke-width="0.5"/>
<line x1="59.25" y1="74" x2="59.25" y2="79" stroke="#333333" stroke-width="0.5"/>
<line x1="59.25" y1="81" x2="59.25" y2="86" stroke="#333333" stroke-width="0.5"/>
<line x1="59.25" y1="88" x2="59.25" y2="93" stroke="#333333" stroke-width="0.5"/>
<path d="M143.56 75H142.651V68.9795L140.83 69.6484V68.8281L143.418 67.8564H143.56V75ZM150.366 73.1445H147.388L146.719 75H145.752L148.467 67.8906H149.287L152.007 75H151.045L150.366 73.1445ZM147.671 72.373H150.088L148.877 69.0479L147.671 72.373Z" fill="#E9EDEB"/>
<path d="M164.249 75H159.591V74.3506L162.052 71.6162C162.416 71.2028 162.667 70.8675 162.804 70.6104C162.944 70.3499 163.014 70.0814 163.014 69.8047C163.014 69.4336 162.901 69.1292 162.677 68.8916C162.452 68.654 162.153 68.5352 161.778 68.5352C161.329 68.5352 160.979 68.6637 160.729 68.9209C160.481 69.1748 160.357 69.5296 160.357 69.9854H159.454C159.454 69.3311 159.664 68.8021 160.084 68.3984C160.507 67.9948 161.072 67.793 161.778 67.793C162.439 67.793 162.962 67.9671 163.346 68.3154C163.73 68.6605 163.922 69.1211 163.922 69.6973C163.922 70.3971 163.476 71.2305 162.584 72.1973L160.68 74.2627H164.249V75ZM169.664 71.9678C169.664 73.0257 169.483 73.8118 169.122 74.3262C168.761 74.8405 168.196 75.0977 167.428 75.0977C166.669 75.0977 166.108 74.847 165.743 74.3457C165.379 73.8411 165.19 73.0892 165.177 72.0898V70.8838C165.177 69.8389 165.357 69.0625 165.719 68.5547C166.08 68.0469 166.646 67.793 167.418 67.793C168.183 67.793 168.746 68.0387 169.107 68.5303C169.469 69.0186 169.654 69.7738 169.664 70.7959V71.9678ZM168.761 70.7324C168.761 69.9674 168.653 69.4108 168.438 69.0625C168.224 68.7109 167.883 68.5352 167.418 68.5352C166.956 68.5352 166.619 68.7093 166.407 69.0576C166.196 69.4059 166.087 69.9414 166.08 70.6641V72.1094C166.08 72.8776 166.191 73.4456 166.412 73.8135C166.637 74.1781 166.975 74.3604 167.428 74.3604C167.874 74.3604 168.204 74.1878 168.419 73.8428C168.637 73.4977 168.751 72.9541 168.761 72.2119V70.7324ZM175.279 71.9678C175.279 73.0257 175.099 73.8118 174.737 74.3262C174.376 74.8405 173.811 75.0977 173.043 75.0977C172.285 75.0977 171.723 74.847 171.358 74.3457C170.994 73.8411 170.805 73.0892 170.792 72.0898V70.8838C170.792 69.8389 170.973 69.0625 171.334 68.5547C171.695 68.0469 172.262 67.793 173.033 67.793C173.798 67.793 174.361 68.0387 174.723 68.5303C175.084 69.0186 175.27 69.7738 175.279 70.7959V71.9678ZM174.376 70.7324C174.376 69.9674 174.269 69.4108 174.054 69.0625C173.839 68.7109 173.499 68.5352 173.033 68.5352C172.571 68.5352 172.234 68.7093 172.022 69.0576C171.811 69.4059 171.702 69.9414 171.695 70.6641V72.1094C171.695 72.8776 171.806 73.4456 172.027 73.8135C172.252 74.1781 172.59 74.3604 173.043 74.3604C173.489 74.3604 173.819 74.1878 174.034 73.8428C174.252 73.4977 174.366 72.9541 174.376 72.2119V70.7324Z" fill="#E9EDEB"/>
<path d="M238.831 75H237.894V67.8906H238.831V75ZM241.263 69.7168L241.292 70.3809C241.696 69.873 242.223 69.6191 242.874 69.6191C243.991 69.6191 244.554 70.249 244.563 71.5088V75H243.66V71.5039C243.657 71.123 243.569 70.8415 243.396 70.6592C243.227 70.4769 242.962 70.3857 242.601 70.3857C242.308 70.3857 242.05 70.4639 241.829 70.6201C241.608 70.7764 241.435 70.9814 241.312 71.2354V75H240.408V69.7168H241.263ZM247.151 68.4375V69.7168H248.138V70.415H247.151V73.6914C247.151 73.903 247.195 74.0625 247.283 74.1699C247.371 74.2741 247.521 74.3262 247.732 74.3262C247.837 74.3262 247.98 74.3066 248.162 74.2676V75C247.924 75.0651 247.693 75.0977 247.469 75.0977C247.065 75.0977 246.761 74.9756 246.556 74.7314C246.351 74.4873 246.248 74.1406 246.248 73.6914V70.415H245.286V69.7168H246.248V68.4375H247.151ZM251.39 75.0977C250.674 75.0977 250.091 74.8633 249.642 74.3945C249.192 73.9225 248.968 73.2926 248.968 72.5049V72.3389C248.968 71.8148 249.067 71.3477 249.266 70.9375C249.467 70.5241 249.747 70.2018 250.105 69.9707C250.467 69.7363 250.857 69.6191 251.277 69.6191C251.964 69.6191 252.498 69.8454 252.879 70.2979C253.26 70.7503 253.45 71.3981 253.45 72.2412V72.6172H249.871C249.884 73.138 250.035 73.5596 250.325 73.8818C250.618 74.2008 250.989 74.3604 251.438 74.3604C251.757 74.3604 252.028 74.2952 252.249 74.165C252.47 74.0348 252.664 73.8623 252.83 73.6475L253.382 74.0771C252.939 74.7575 252.275 75.0977 251.39 75.0977ZM251.277 70.3613C250.913 70.3613 250.607 70.4948 250.359 70.7617C250.112 71.0254 249.959 71.3965 249.9 71.875H252.547V71.8066C252.521 71.3477 252.397 70.9928 252.176 70.7422C251.954 70.4883 251.655 70.3613 251.277 70.3613ZM257.054 70.5273C256.917 70.5046 256.769 70.4932 256.609 70.4932C256.017 70.4932 255.615 70.7454 255.403 71.25V75H254.5V69.7168H255.379L255.394 70.3271C255.69 69.8551 256.11 69.6191 256.653 69.6191C256.829 69.6191 256.963 69.6419 257.054 69.6875V70.5273ZM259.91 74.3604C260.232 74.3604 260.514 74.2627 260.755 74.0674C260.996 73.8721 261.129 73.6279 261.155 73.335H262.01C261.993 73.6377 261.889 73.9258 261.697 74.1992C261.505 74.4727 261.248 74.6908 260.926 74.8535C260.607 75.0163 260.268 75.0977 259.91 75.0977C259.191 75.0977 258.618 74.8584 258.191 74.3799C257.768 73.8981 257.557 73.2406 257.557 72.4072V72.2559C257.557 71.7415 257.651 71.2842 257.84 70.8838C258.029 70.4834 258.299 70.1725 258.65 69.9512C259.005 69.7298 259.424 69.6191 259.905 69.6191C260.498 69.6191 260.989 69.7965 261.38 70.1514C261.774 70.5062 261.984 70.9668 262.01 71.5332H261.155C261.129 71.1914 260.999 70.9115 260.765 70.6934C260.534 70.472 260.247 70.3613 259.905 70.3613C259.446 70.3613 259.09 70.5273 258.836 70.8594C258.585 71.1882 258.46 71.665 258.46 72.29V72.4609C258.46 73.0697 258.585 73.5384 258.836 73.8672C259.087 74.196 259.445 74.3604 259.91 74.3604ZM264.007 75H263.104V69.7168H264.007V75ZM263.03 68.3154C263.03 68.1689 263.074 68.0452 263.162 67.9443C263.253 67.8434 263.387 67.793 263.562 67.793C263.738 67.793 263.872 67.8434 263.963 67.9443C264.054 68.0452 264.1 68.1689 264.1 68.3154C264.1 68.4619 264.054 68.584 263.963 68.6816C263.872 68.7793 263.738 68.8281 263.562 68.8281C263.387 68.8281 263.253 68.7793 263.162 68.6816C263.074 68.584 263.03 68.4619 263.03 68.3154ZM266.683 68.4375V69.7168H267.669V70.415H266.683V73.6914C266.683 73.903 266.727 74.0625 266.814 74.1699C266.902 74.2741 267.052 74.3262 267.264 74.3262C267.368 74.3262 267.511 74.3066 267.693 74.2676V75C267.456 75.0651 267.225 75.0977 267 75.0977C266.596 75.0977 266.292 74.9756 266.087 74.7314C265.882 74.4873 265.779 74.1406 265.779 73.6914V70.415H264.817V69.7168H265.779V68.4375H266.683ZM270.457 73.6768L271.688 69.7168H272.654L270.53 75.8154C270.201 76.6943 269.679 77.1338 268.963 77.1338L268.792 77.1191L268.455 77.0557V76.3232L268.699 76.3428C269.005 76.3428 269.243 76.2809 269.412 76.1572C269.585 76.0335 269.726 75.8073 269.837 75.4785L270.037 74.9414L268.152 69.7168H269.139L270.457 73.6768ZM278.821 75H277.913V68.9795L276.092 69.6484V68.8281L278.68 67.8564H278.821V75ZM285.281 72.6123H286.268V73.3496H285.281V75H284.373V73.3496H281.136V72.8174L284.319 67.8906H285.281V72.6123ZM282.161 72.6123H284.373V69.126L284.266 69.3213L282.161 72.6123Z" fill="#E9EDEB"/>
<path d="M82.6845 66.6884C83.4269 66.6884 84.0287 66.0866 84.0287 65.3442C84.0287 64.6018 83.4269 64 82.6845 64C81.9422 64 81.3403 64.6018 81.3403 65.3442C81.3403 66.0866 81.9422 66.6884 82.6845 66.6884Z" fill="#333333"/>
<path d="M86.3836 70.0145C85.2766 69.3737 84.3683 68.5082 83.6038 67.49C83.1234 66.8144 81.8532 66.8496 81.3371 67.4687C80.552 68.2326 79.8858 69.02 79.3574 69.8077C79.1414 70.1304 79.2272 70.567 79.5497 70.783C79.67 70.8636 79.8056 70.9022 79.9403 70.9022C80.1668 70.9022 80.3894 70.7929 80.5248 70.5905C80.7568 70.245 81.0199 69.8984 81.3112 69.5534C81.3001 70.2835 81.3367 71.601 81.3551 72.1932C81.3612 72.3903 81.3163 72.5831 81.2247 72.7581C80.5 74.142 80.0365 75.4514 79.5659 77.0532C79.4507 77.4442 79.6748 77.8545 80.0656 77.9696C80.1541 77.9956 80.2435 78.0044 80.3298 77.9978C80.6273 77.975 80.8933 77.7724 80.9822 77.4696C81.4164 75.9927 81.8359 74.7968 82.4903 73.5306C82.5236 73.5319 82.5569 73.5319 82.5906 73.5303C83.0084 74.7768 83.4264 76.024 83.8448 77.2705C84.1486 78.179 85.5583 77.7071 85.2536 76.7984C84.7964 75.4356 84.3399 74.0734 83.8842 72.7108C83.8577 72.6326 83.7935 72.3263 83.7845 72.2265C83.7092 71.387 83.6818 70.5501 83.6899 69.7122C84.3313 70.3267 85.0426 70.8597 85.8328 71.3175C86.6208 71.775 87.161 70.4651 86.3836 70.0145Z" fill="#333333"/>
<line x1="156.5" y1="63" x2="156.5" y2="80" stroke="#FAFAFA"/>
<g clip-path="url(#clip2)">
<path d="M98.5598 71.8006L93.8425 67.0833C93.7314 66.9722 93.5533 66.9722 93.4422 67.0833C93.3311 67.1944 93.3311 67.3725 93.4422 67.4836L97.9584 71.9997L93.4422 76.5159C93.3311 76.627 93.3311 76.8051 93.4422 76.9162C93.4967 76.9707 93.57 77 93.6413 77C93.7125 77 93.7859 76.9728 93.8404 76.9162L98.5577 72.1988C98.6688 72.0899 98.6688 71.9096 98.5598 71.8006Z" fill="#B32B32"/>
</g>
<g clip-path="url(#clip3)">
<path d="M192.56 71.8006L187.842 67.0833C187.731 66.9722 187.553 66.9722 187.442 67.0833C187.331 67.1944 187.331 67.3725 187.442 67.4836L191.958 71.9997L187.442 76.5159C187.331 76.627 187.331 76.8051 187.442 76.9162C187.497 76.9707 187.57 77 187.641 77C187.713 77 187.786 76.9728 187.84 76.9162L192.558 72.1988C192.669 72.0899 192.669 71.9096 192.56 71.8006Z" fill="#B32B32"/>
</g>
<path d="M58.5 108C56.8033 108 55 108.526 55 109.5C55 110.474 56.8033 111 58.5 111C60.1967 111 62 110.474 62 109.5C62 108.526 60.1967 108 58.5 108Z" fill="#333333"/>
<path d="M58.5 98C56.0187 98 54 100.088 54 102.655C54 104.248 54.7328 105.961 56.1782 107.747C57.2424 109.062 58.2911 109.906 58.3353 109.942C58.3837 109.981 58.4419 110 58.5 110C58.5581 110 58.6162 109.981 58.6647 109.942C58.7088 109.906 59.7577 109.062 60.8218 107.747C62.2672 105.961 63 104.248 63 102.655C63 100.088 60.9813 98 58.5 98ZM60.1875 102.655C60.1875 103.619 59.432 104.4 58.5 104.4C57.5681 104.4 56.8126 103.619 56.8126 102.655C56.8126 101.691 57.5681 100.909 58.5 100.909C59.432 100.909 60.1875 101.691 60.1875 102.655Z" fill="#4980A8"/>
<defs>
<clipPath id="clip0">
<rect width="23" height="23" fill="white" transform="translate(201 60)"/>
</clipPath>
<clipPath id="clip1">
<rect width="23" height="23" fill="white" transform="translate(105 60)"/>
</clipPath>
<clipPath id="clip2">
<rect width="10" height="10" fill="white" transform="translate(91 67)"/>
</clipPath>
<clipPath id="clip3">
<rect width="10" height="10" fill="white" transform="translate(185 67)"/>
</clipPath>
</defs>
</svg>
