<svg width="83" height="83" viewBox="0 0 83 83" fill="none" xmlns="http://www.w3.org/2000/svg">
<circle cx="40" cy="43" r="40" fill="#222222"/>
<g clip-path="url(#clip0)">
<path d="M68.1843 4.87493L61.3752 0C60.0128 1.54306 57.723 1.84625 56.0149 0.623928L21.8906 51.5977C23.5987 52.82 24.1295 55.1434 23.2129 57.0072L30.0221 61.8821C31.3861 60.3391 33.6743 60.0359 35.3823 61.2582C37.0904 62.4805 37.6212 64.8039 36.7047 66.6677L43.5138 71.5427C44.8762 69.9996 47.166 69.6964 48.8741 70.9187L82.9999 19.9449C81.2918 18.7226 80.7595 16.3992 81.6776 14.5354L74.8685 9.66051C73.506 11.2036 71.2163 11.5068 69.5082 10.2844C67.7986 9.06211 67.2678 6.73874 68.1843 4.87493Z" fill="#4980A8"/>
<path d="M51.6743 15.6238L28.3794 50.4234L47.6575 64.2257L70.9524 29.4261L51.6743 15.6238Z" fill="white"/>
<path opacity="0.1" d="M42.0742 70.5117L54.9858 13.6114L50.9509 12.6317L51.2935 8.94714L50.5621 8.77002L21.8906 51.5992C23.5987 52.8216 24.1295 55.1449 23.213 57.0087L30.0221 61.8837C31.3845 60.3406 33.6743 60.0374 35.3824 61.2597C37.0904 62.4821 37.6212 64.8054 36.7047 66.6692L42.0742 70.5117Z" fill="black"/>
<path d="M30.5267 8.62012L22.4632 6.66376C21.7411 8.61692 19.7182 9.76584 17.6954 9.27596L4 69.6342C6.02283 70.1257 7.34053 72.0852 7.14611 74.1661L15.2097 76.1224C15.9318 74.1693 17.9546 73.0203 19.9774 73.5118C22.0003 74.0033 23.318 75.9628 23.1236 78.0437L31.1871 80C31.9092 78.0469 33.9321 76.8979 35.9549 77.3894L49.6503 17.0312C47.6274 16.5413 46.3097 14.5801 46.5042 12.4993L38.4391 10.5414C37.717 12.4945 35.6941 13.6435 33.6713 13.152C31.65 12.6621 30.3323 10.7009 30.5267 8.62012Z" fill="#4980A8"/>
<path d="M18.2936 20.0726C18.1933 20.0726 18.0899 20.0614 17.988 20.0359L15.3959 19.4072C14.6799 19.2332 14.2355 18.4928 14.4037 17.7524C14.5719 17.012 15.2879 16.5524 16.0038 16.7264L18.596 17.3551C19.3119 17.529 19.7563 18.2694 19.5881 19.0098C19.4446 19.6449 18.8984 20.0726 18.2936 20.0726Z" fill="white"/>
<path d="M39.71 25.2699C39.6097 25.2699 39.5063 25.2587 39.4045 25.2332L34.0503 23.9342C33.3344 23.7603 32.89 23.0199 33.0582 22.2795C33.2264 21.539 33.9423 21.0795 34.6583 21.2534L40.0124 22.5523C40.7283 22.7263 41.1727 23.4667 41.0045 24.2071C40.861 24.8406 40.3133 25.2699 39.71 25.2699ZM29.0018 22.6704C28.9015 22.6704 28.7981 22.6592 28.6963 22.6337L23.3422 21.3348C22.6262 21.1609 22.1818 20.4204 22.35 19.68C22.5182 18.9396 23.2341 18.48 23.9501 18.654L29.3042 19.9529C30.0201 20.1268 30.4645 20.8672 30.2963 21.6077C30.1528 22.2428 29.6066 22.6704 29.0018 22.6704Z" fill="white"/>
<path d="M47.6563 27.1976C47.556 27.1976 47.4527 27.1864 47.3508 27.1609L44.7587 26.5322C44.0427 26.3582 43.5983 25.6178 43.7665 24.8774C43.9347 24.137 44.6506 23.6774 45.3666 23.8514L47.9588 24.4801C48.6747 24.654 49.1191 25.3944 48.9509 26.1348C48.8074 26.7699 48.2596 27.1976 47.6563 27.1976Z" fill="white"/>
<path d="M18.9754 24.8779L9.62354 66.0829L32.4491 71.6237L41.801 30.4188L18.9754 24.8779Z" fill="white"/>
<path d="M53.2329 10.9913C52.9705 10.9913 52.7067 10.9115 52.4768 10.7455L50.2873 9.17855C49.6825 8.74611 49.5313 7.88761 49.951 7.26208C50.3691 6.63656 51.1992 6.48018 51.8041 6.91422L53.9935 8.48122C54.5984 8.91366 54.7496 9.77216 54.3299 10.3977C54.0691 10.7854 53.6541 10.9913 53.2329 10.9913Z" fill="white"/>
<path d="M71.318 23.9423C71.0557 23.9423 70.7919 23.8625 70.562 23.6965L66.0411 20.4588C65.4363 20.0264 65.285 19.1679 65.7047 18.5423C66.1229 17.9168 66.953 17.7604 67.5578 18.1945L72.0787 21.4322C72.6836 21.8646 72.8348 22.7231 72.4151 23.3487C72.1559 23.7348 71.7408 23.9423 71.318 23.9423ZM62.2747 17.4668C62.0124 17.4668 61.7486 17.387 61.5187 17.2211L56.9978 13.9834C56.3929 13.5509 56.2417 12.6924 56.6614 12.0669C57.0795 11.4414 57.9097 11.285 58.5145 11.719L63.0354 14.9568C63.6402 15.3892 63.7915 16.2477 63.3718 16.8732C63.1125 17.2594 62.6975 17.4668 62.2747 17.4668Z" fill="white"/>
<path d="M78.0282 28.7469C77.7659 28.7469 77.5021 28.6671 77.2722 28.5012L75.0827 26.9342C74.4779 26.5017 74.3267 25.6432 74.7464 25.0177C75.1645 24.3922 75.9946 24.2358 76.5995 24.6698L78.7889 26.2368C79.3938 26.6693 79.545 27.5278 79.1253 28.1533C78.8661 28.5395 78.451 28.7469 78.0282 28.7469Z" fill="white"/>
</g>
<defs>
<clipPath id="clip0">
<rect width="79" height="80" fill="white" transform="translate(4)"/>
</clipPath>
</defs>
</svg>
