<svg width="375" height="64" viewBox="0 0 375 64" fill="none" xmlns="http://www.w3.org/2000/svg">
<rect width="375" height="64" fill="#E9EDEB" fill-opacity="0.59"/>
<path d="M22.2959 28.3477H18.6489V32H17.9883V24.1797H22.833V24.7437H18.6489V27.7837H22.2959V28.3477ZM26.5713 26.7363C26.4352 26.7113 26.2902 26.6987 26.1362 26.6987C25.7352 26.6987 25.395 26.8115 25.1157 27.0371C24.84 27.2591 24.6431 27.5832 24.5249 28.0093V32H23.8857V26.1885H24.5142L24.5249 27.1123C24.8651 26.4248 25.4111 26.0811 26.1631 26.0811C26.3421 26.0811 26.4836 26.1043 26.5874 26.1509L26.5713 26.7363ZM27.1299 29.0083C27.1299 28.4497 27.2373 27.9466 27.4521 27.499C27.6706 27.0514 27.9767 26.7041 28.3706 26.457C28.7681 26.2064 29.2174 26.0811 29.7188 26.0811C30.4922 26.0811 31.1188 26.3532 31.5986 26.8975C32.0785 27.4382 32.3184 28.1561 32.3184 29.0513V29.1855C32.3184 29.7477 32.2091 30.2544 31.9907 30.7056C31.7759 31.1532 31.4715 31.4987 31.0776 31.7422C30.6838 31.9857 30.2344 32.1074 29.7295 32.1074C28.9596 32.1074 28.333 31.8371 27.8496 31.2964C27.3698 30.7521 27.1299 30.0324 27.1299 29.1372V29.0083ZM27.7744 29.1855C27.7744 29.8802 27.9535 30.4513 28.3115 30.8989C28.6732 31.3429 29.1458 31.5649 29.7295 31.5649C30.3096 31.5649 30.7786 31.3429 31.1367 30.8989C31.4984 30.4513 31.6792 29.8623 31.6792 29.1318V29.0083C31.6792 28.5643 31.5968 28.1579 31.4321 27.7891C31.2674 27.4202 31.0365 27.1356 30.7393 26.9351C30.4421 26.731 30.1019 26.6289 29.7188 26.6289C29.1458 26.6289 28.6785 26.8545 28.3169 27.3057C27.9552 27.7533 27.7744 28.3405 27.7744 29.0674V29.1855ZM34.2358 26.1885L34.2573 27.1338C34.4722 26.7829 34.7407 26.5197 35.063 26.3442C35.3853 26.1688 35.7433 26.0811 36.1372 26.0811C37.0539 26.0811 37.6357 26.457 37.8828 27.209C38.0905 26.8473 38.368 26.5698 38.7153 26.3765C39.0627 26.1795 39.4458 26.0811 39.8647 26.0811C41.1108 26.0811 41.7464 26.7614 41.7715 28.1221V32H41.127V28.1704C41.1234 27.6512 41.0106 27.2663 40.7886 27.0156C40.5701 26.765 40.2121 26.6396 39.7144 26.6396C39.2524 26.6468 38.8621 26.7972 38.5435 27.0908C38.2248 27.3809 38.0475 27.7354 38.0117 28.1543V32H37.3672V28.1221C37.3636 27.6243 37.2454 27.2537 37.0127 27.0103C36.7835 26.7632 36.429 26.6396 35.9492 26.6396C35.5446 26.6396 35.1973 26.756 34.9072 26.9888C34.6172 27.2179 34.4023 27.5599 34.2627 28.0146V32H33.6182V26.1885H34.2358Z" fill="#333333"/>
<path d="M53.3984 24.0791V26.9795H55.9546C56.4624 26.9795 56.8433 26.9209 57.0972 26.8037C57.5464 26.5986 57.771 26.1934 57.771 25.5879C57.771 24.9336 57.5537 24.4941 57.1191 24.2695C56.875 24.1426 56.5088 24.0791 56.0205 24.0791H53.3984ZM56.4893 22.2041C57.2461 22.2188 57.8271 22.3115 58.2324 22.4824C58.6426 22.6533 58.9893 22.9048 59.2725 23.2368C59.5068 23.5103 59.6924 23.813 59.8291 24.145C59.9658 24.4771 60.0342 24.8555 60.0342 25.2803C60.0342 25.793 59.9048 26.2983 59.646 26.7964C59.3872 27.2896 58.96 27.6387 58.3643 27.8438C58.8623 28.0439 59.2139 28.3296 59.4189 28.7007C59.6289 29.0669 59.7339 29.6284 59.7339 30.3853V31.1104C59.7339 31.6035 59.7534 31.938 59.7925 32.1138C59.8511 32.3921 59.9878 32.5972 60.2026 32.729V33H57.7197C57.6514 32.7607 57.6025 32.5679 57.5732 32.4214C57.5146 32.1187 57.4829 31.8086 57.478 31.4912L57.4634 30.4878C57.4536 29.7993 57.3267 29.3403 57.0825 29.1108C56.8433 28.8813 56.3916 28.7666 55.7275 28.7666H53.3984V33H51.1938V22.2041H56.4893ZM66.2158 29.1182C66.084 29.2012 65.9497 29.2695 65.813 29.3232C65.6812 29.3721 65.498 29.4185 65.2637 29.4624L64.7949 29.5503C64.3555 29.6284 64.0405 29.7236 63.8501 29.8359C63.5278 30.0264 63.3667 30.3218 63.3667 30.7222C63.3667 31.0786 63.4644 31.3374 63.6597 31.4985C63.8599 31.6548 64.1016 31.7329 64.3848 31.7329C64.834 31.7329 65.2466 31.6011 65.6226 31.3374C66.0034 31.0737 66.2012 30.5928 66.2158 29.8945V29.1182ZM64.9487 28.144C65.3345 28.0952 65.6104 28.0342 65.7764 27.9609C66.0742 27.834 66.2231 27.6362 66.2231 27.3677C66.2231 27.0405 66.1084 26.8159 65.8789 26.6938C65.6543 26.5669 65.3223 26.5034 64.8828 26.5034C64.3896 26.5034 64.0405 26.6255 63.8354 26.8696C63.689 27.0503 63.5913 27.2944 63.5425 27.6021H61.5283C61.5723 26.9038 61.7676 26.3301 62.1143 25.8809C62.666 25.1777 63.6133 24.8262 64.9561 24.8262C65.8301 24.8262 66.6064 24.9995 67.2852 25.3462C67.9639 25.6929 68.3032 26.3472 68.3032 27.3091V30.9712C68.3032 31.2251 68.3081 31.5327 68.3179 31.894C68.3325 32.1675 68.374 32.353 68.4424 32.4507C68.5107 32.5483 68.6133 32.6289 68.75 32.6924V33H66.4795C66.416 32.8389 66.3721 32.6875 66.3477 32.5459C66.3232 32.4043 66.3037 32.2432 66.2891 32.0625C66.001 32.375 65.6689 32.6411 65.293 32.8608C64.8438 33.1196 64.3359 33.249 63.7695 33.249C63.0469 33.249 62.4487 33.0439 61.9751 32.6338C61.5063 32.2188 61.272 31.6328 61.272 30.876C61.272 29.8945 61.6504 29.1841 62.4072 28.7446C62.8223 28.5054 63.4326 28.3345 64.2383 28.2319L64.9487 28.144ZM75.0854 25.0166H77.3267L74.4482 33H72.2437L69.3799 25.0166H71.7236L73.3862 30.9053L75.0854 25.0166ZM82.937 24.8262C83.7622 24.8262 84.436 25.0435 84.9585 25.478C85.4858 25.9077 85.7495 26.623 85.7495 27.624V33H83.6108V28.144C83.6108 27.7241 83.5547 27.4019 83.4424 27.1772C83.2373 26.7671 82.8467 26.562 82.2705 26.562C81.5625 26.562 81.0767 26.8623 80.813 27.4629C80.6763 27.7803 80.6079 28.1855 80.6079 28.6787V33H78.5278V25.0312H80.542V26.1958C80.8105 25.7856 81.0645 25.4902 81.3037 25.3096C81.7334 24.9873 82.2778 24.8262 82.937 24.8262ZM89.3091 30.4512C89.353 30.8223 89.4482 31.0859 89.5947 31.2422C89.8535 31.5205 90.332 31.6597 91.0303 31.6597C91.4404 31.6597 91.7651 31.5986 92.0044 31.4766C92.2485 31.3545 92.3706 31.1714 92.3706 30.9272C92.3706 30.6929 92.2729 30.5146 92.0776 30.3926C91.8823 30.2705 91.1572 30.0605 89.9023 29.7627C88.999 29.5381 88.3618 29.2573 87.9907 28.9204C87.6196 28.5884 87.4341 28.1099 87.4341 27.4849C87.4341 26.7476 87.7222 26.1152 88.2983 25.5879C88.8794 25.0557 89.6948 24.7896 90.7446 24.7896C91.7407 24.7896 92.5513 24.9897 93.1763 25.3901C93.8062 25.7856 94.1675 26.4717 94.2603 27.4482H92.1729C92.1436 27.1797 92.0679 26.9673 91.9458 26.811C91.7163 26.5278 91.3257 26.3862 90.7739 26.3862C90.3198 26.3862 89.9951 26.457 89.7998 26.5986C89.6094 26.7402 89.5142 26.9062 89.5142 27.0967C89.5142 27.3359 89.6167 27.5093 89.8218 27.6167C90.0269 27.729 90.752 27.9219 91.9971 28.1953C92.8271 28.3906 93.4497 28.686 93.8647 29.0815C94.2749 29.4819 94.48 29.9824 94.48 30.583C94.48 31.374 94.1846 32.021 93.5938 32.5239C93.0078 33.022 92.0996 33.271 90.8691 33.271C89.6143 33.271 88.6865 33.0073 88.0859 32.48C87.4902 31.9478 87.1924 31.2715 87.1924 30.4512H89.3091ZM100.347 24.8408C101.396 24.8408 102.217 25.2192 102.808 25.9761C103.403 26.7329 103.701 27.7095 103.701 28.9058C103.701 30.146 103.408 31.1738 102.822 31.9893C102.236 32.8047 101.418 33.2124 100.369 33.2124C99.7095 33.2124 99.1797 33.0806 98.7793 32.8169C98.54 32.6606 98.2812 32.3872 98.0029 31.9966V33H95.9595V22.2188H98.0396V26.0566C98.3032 25.6855 98.5938 25.4023 98.9111 25.207C99.2871 24.9629 99.7656 24.8408 100.347 24.8408ZM99.812 31.4912C100.349 31.4912 100.767 31.2739 101.064 30.8394C101.362 30.4048 101.511 29.8335 101.511 29.1255C101.511 28.5591 101.438 28.0903 101.292 27.7192C101.013 27.0161 100.5 26.6646 99.7534 26.6646C98.9966 26.6646 98.4766 27.0088 98.1934 27.6973C98.0469 28.0635 97.9736 28.5371 97.9736 29.1182C97.9736 29.8018 98.125 30.3682 98.4277 30.8174C98.7305 31.2666 99.1919 31.4912 99.812 31.4912ZM107.385 24.0645H105.298V22.1382H107.385V24.0645ZM104.294 34.5308C104.412 34.5405 104.495 34.5454 104.543 34.5454C104.592 34.5503 104.636 34.5527 104.675 34.5527C104.88 34.5527 105.034 34.5015 105.137 34.3989C105.244 34.3013 105.298 34.1084 105.298 33.8203V25.0532H107.385V33.8569C107.385 34.6626 107.227 35.2583 106.909 35.644C106.592 36.0298 105.969 36.2227 105.042 36.2227C104.978 36.2227 104.883 36.2202 104.756 36.2153C104.634 36.2104 104.48 36.2056 104.294 36.2007V34.5308ZM112.527 26.5254C112.043 26.5254 111.667 26.6768 111.399 26.9795C111.135 27.2822 110.969 27.6924 110.901 28.21H114.146C114.111 27.6582 113.943 27.2407 113.64 26.9575C113.342 26.6694 112.971 26.5254 112.527 26.5254ZM112.527 24.8042C113.191 24.8042 113.789 24.9287 114.321 25.1777C114.854 25.4268 115.293 25.8198 115.64 26.3569C115.952 26.8306 116.155 27.3799 116.248 28.0049C116.301 28.3711 116.323 28.8984 116.313 29.5869H110.85C110.879 30.3877 111.13 30.9492 111.604 31.2715C111.892 31.4717 112.239 31.5718 112.644 31.5718C113.074 31.5718 113.423 31.4497 113.691 31.2056C113.838 31.0737 113.967 30.8906 114.08 30.6562H116.211C116.157 31.1299 115.911 31.6108 115.471 32.0991C114.788 32.8755 113.831 33.2637 112.6 33.2637C111.584 33.2637 110.688 32.9365 109.912 32.2822C109.136 31.6279 108.748 30.5635 108.748 29.0889C108.748 27.707 109.097 26.6475 109.795 25.9102C110.498 25.1729 111.409 24.8042 112.527 24.8042ZM122.063 24.8262C122.102 24.8262 122.134 24.8286 122.158 24.8335C122.188 24.8335 122.249 24.8359 122.341 24.8408V26.9795C122.209 26.9648 122.092 26.9551 121.99 26.9502C121.887 26.9453 121.804 26.9429 121.741 26.9429C120.901 26.9429 120.337 27.2163 120.049 27.7632C119.888 28.0708 119.807 28.5444 119.807 29.1841V33H117.705V25.0166H119.697V26.4082C120.02 25.876 120.3 25.5122 120.54 25.3169C120.93 24.9897 121.438 24.8262 122.063 24.8262ZM127 31.2861C127.488 31.2861 127.9 31.103 128.237 30.7368C128.574 30.3657 128.743 29.7773 128.743 28.9717C128.743 28.2148 128.582 27.6387 128.259 27.2432C127.942 26.8477 127.515 26.6499 126.978 26.6499C126.245 26.6499 125.74 26.9941 125.461 27.6826C125.315 28.0488 125.242 28.5005 125.242 29.0376C125.242 29.5015 125.32 29.9141 125.476 30.2754C125.759 30.9492 126.267 31.2861 127 31.2861ZM126.479 24.8262C126.88 24.8262 127.229 24.8872 127.527 25.0093C128.035 25.2192 128.445 25.605 128.757 26.1665V25.0166H130.786V32.5898C130.786 33.6201 130.613 34.3965 130.266 34.9189C129.67 35.8174 128.528 36.2666 126.838 36.2666C125.818 36.2666 124.985 36.0664 124.341 35.666C123.696 35.2656 123.34 34.6675 123.271 33.8716H125.542C125.601 34.1157 125.696 34.2915 125.828 34.3989C126.052 34.5894 126.431 34.6846 126.963 34.6846C127.715 34.6846 128.218 34.4331 128.472 33.9302C128.638 33.6079 128.721 33.0659 128.721 32.3042V31.7915C128.521 32.1333 128.306 32.3896 128.076 32.5605C127.661 32.8779 127.122 33.0366 126.458 33.0366C125.432 33.0366 124.612 32.6777 123.997 31.96C123.386 31.2373 123.081 30.2607 123.081 29.0303C123.081 27.8438 123.376 26.8477 123.967 26.042C124.558 25.2314 125.396 24.8262 126.479 24.8262ZM50.9521 39.2407H53.0029V45.0562L55.603 42.0532H58.1885L55.3979 45.1074L58.2983 50H55.7788L53.8672 46.5869L53.0029 47.4878V50H50.9521V39.2407ZM62.9053 48.5278C63.5156 48.5278 63.9844 48.3105 64.3115 47.876C64.6387 47.4414 64.8022 46.8237 64.8022 46.0229C64.8022 45.2222 64.6387 44.6069 64.3115 44.1772C63.9844 43.7427 63.5156 43.5254 62.9053 43.5254C62.2949 43.5254 61.8237 43.7427 61.4917 44.1772C61.1646 44.6069 61.001 45.2222 61.001 46.0229C61.001 46.8237 61.1646 47.4414 61.4917 47.876C61.8237 48.3105 62.2949 48.5278 62.9053 48.5278ZM66.9922 46.0229C66.9922 47.1948 66.6553 48.1982 65.9814 49.0332C65.3076 49.8633 64.2847 50.2783 62.9126 50.2783C61.5405 50.2783 60.5176 49.8633 59.8438 49.0332C59.1699 48.1982 58.833 47.1948 58.833 46.0229C58.833 44.8706 59.1699 43.8721 59.8438 43.0273C60.5176 42.1826 61.5405 41.7603 62.9126 41.7603C64.2847 41.7603 65.3076 42.1826 65.9814 43.0273C66.6553 43.8721 66.9922 44.8706 66.9922 46.0229ZM70.625 50H68.5376V39.2041H70.625V50ZM74.7998 50H72.7124V39.2041H74.7998V50ZM79.9927 43.5254C79.5093 43.5254 79.1333 43.6768 78.8647 43.9795C78.6011 44.2822 78.4351 44.6924 78.3667 45.21H81.6113C81.5771 44.6582 81.4087 44.2407 81.106 43.9575C80.8081 43.6694 80.437 43.5254 79.9927 43.5254ZM79.9927 41.8042C80.6567 41.8042 81.2549 41.9287 81.7871 42.1777C82.3193 42.4268 82.7588 42.8198 83.1055 43.3569C83.418 43.8306 83.6206 44.3799 83.7134 45.0049C83.7671 45.3711 83.7891 45.8984 83.7793 46.5869H78.3154C78.3447 47.3877 78.5962 47.9492 79.0698 48.2715C79.3579 48.4717 79.7046 48.5718 80.1099 48.5718C80.5396 48.5718 80.8887 48.4497 81.1572 48.2056C81.3037 48.0737 81.4331 47.8906 81.5454 47.6562H83.6768C83.623 48.1299 83.3765 48.6108 82.937 49.0991C82.2534 49.8755 81.2964 50.2637 80.0659 50.2637C79.0503 50.2637 78.1543 49.9365 77.3779 49.2822C76.6016 48.6279 76.2134 47.5635 76.2134 46.0889C76.2134 44.707 76.5625 43.6475 77.2607 42.9102C77.9639 42.1729 78.8745 41.8042 79.9927 41.8042ZM88.6206 48.2861C89.1089 48.2861 89.5215 48.103 89.8584 47.7368C90.1953 47.3657 90.3638 46.7773 90.3638 45.9717C90.3638 45.2148 90.2026 44.6387 89.8804 44.2432C89.563 43.8477 89.1357 43.6499 88.5986 43.6499C87.8662 43.6499 87.3608 43.9941 87.0825 44.6826C86.936 45.0488 86.8628 45.5005 86.8628 46.0376C86.8628 46.5015 86.9409 46.9141 87.0972 47.2754C87.3804 47.9492 87.8882 48.2861 88.6206 48.2861ZM88.1006 41.8262C88.501 41.8262 88.8501 41.8872 89.1479 42.0093C89.6558 42.2192 90.0659 42.605 90.3784 43.1665V42.0166H92.4072V49.5898C92.4072 50.6201 92.2339 51.3965 91.8872 51.9189C91.2915 52.8174 90.1489 53.2666 88.4595 53.2666C87.439 53.2666 86.6064 53.0664 85.9619 52.666C85.3174 52.2656 84.9609 51.6675 84.8926 50.8716H87.1631C87.2217 51.1157 87.3169 51.2915 87.4487 51.3989C87.6733 51.5894 88.0518 51.6846 88.584 51.6846C89.3359 51.6846 89.8389 51.4331 90.0928 50.9302C90.2588 50.6079 90.3418 50.0659 90.3418 49.3042V48.7915C90.1416 49.1333 89.9268 49.3896 89.6973 49.5605C89.2822 49.8779 88.7427 50.0366 88.0786 50.0366C87.0532 50.0366 86.2329 49.6777 85.6177 48.96C85.0073 48.2373 84.7021 47.2607 84.7021 46.0303C84.7021 44.8438 84.9976 43.8477 85.5884 43.042C86.1792 42.2314 87.0166 41.8262 88.1006 41.8262ZM96.5088 41.0645H94.3921V39.1382H96.5088V41.0645ZM94.3921 42.0166H96.5088V50H94.3921V42.0166ZM101.687 43.5254C101.204 43.5254 100.828 43.6768 100.559 43.9795C100.295 44.2822 100.129 44.6924 100.061 45.21H103.306C103.271 44.6582 103.103 44.2407 102.8 43.9575C102.502 43.6694 102.131 43.5254 101.687 43.5254ZM101.687 41.8042C102.351 41.8042 102.949 41.9287 103.481 42.1777C104.014 42.4268 104.453 42.8198 104.8 43.3569C105.112 43.8306 105.315 44.3799 105.408 45.0049C105.461 45.3711 105.483 45.8984 105.474 46.5869H100.01C100.039 47.3877 100.291 47.9492 100.764 48.2715C101.052 48.4717 101.399 48.5718 101.804 48.5718C102.234 48.5718 102.583 48.4497 102.852 48.2056C102.998 48.0737 103.127 47.8906 103.24 47.6562H105.371C105.317 48.1299 105.071 48.6108 104.631 49.0991C103.948 49.8755 102.991 50.2637 101.76 50.2637C100.745 50.2637 99.8486 49.9365 99.0723 49.2822C98.2959 48.6279 97.9077 47.5635 97.9077 46.0889C97.9077 44.707 98.2568 43.6475 98.9551 42.9102C99.6582 42.1729 100.569 41.8042 101.687 41.8042ZM106.067 43.5767V42.0898H107.18V39.8633H109.246V42.0898H110.542V43.5767H109.246V47.7954C109.246 48.1226 109.287 48.3276 109.37 48.4106C109.453 48.4888 109.707 48.5278 110.132 48.5278C110.195 48.5278 110.261 48.5278 110.33 48.5278C110.403 48.5229 110.474 48.5181 110.542 48.5132V50.0732L109.553 50.1099C108.567 50.144 107.893 49.9731 107.532 49.5972C107.297 49.3579 107.18 48.9893 107.18 48.4912V43.5767H106.067Z" fill="#333333"/>
<path d="M154.295 24.7437H151.615V32H150.954V24.7437H148.279V24.1797H154.295V24.7437ZM154.521 29.0083C154.521 28.4497 154.628 27.9466 154.843 27.499C155.061 27.0514 155.367 26.7041 155.761 26.457C156.159 26.2064 156.608 26.0811 157.109 26.0811C157.883 26.0811 158.509 26.3532 158.989 26.8975C159.469 27.4382 159.709 28.1561 159.709 29.0513V29.1855C159.709 29.7477 159.6 30.2544 159.381 30.7056C159.167 31.1532 158.862 31.4987 158.468 31.7422C158.074 31.9857 157.625 32.1074 157.12 32.1074C156.35 32.1074 155.724 31.8371 155.24 31.2964C154.76 30.7521 154.521 30.0324 154.521 29.1372V29.0083ZM155.165 29.1855C155.165 29.8802 155.344 30.4513 155.702 30.8989C156.064 31.3429 156.536 31.5649 157.12 31.5649C157.7 31.5649 158.169 31.3429 158.527 30.8989C158.889 30.4513 159.07 29.8623 159.07 29.1318V29.0083C159.07 28.5643 158.987 28.1579 158.823 27.7891C158.658 27.4202 158.427 27.1356 158.13 26.9351C157.833 26.731 157.493 26.6289 157.109 26.6289C156.536 26.6289 156.069 26.8545 155.708 27.3057C155.346 27.7533 155.165 28.3405 155.165 29.0674V29.1855Z" fill="#333333"/>
<path d="M167.674 26.6899C167.674 24.8052 168.179 23.3525 169.19 22.332C170.069 21.4434 171.187 20.999 172.544 20.999C174.361 20.999 175.689 21.5947 176.529 22.7861C176.993 23.4551 177.242 24.1265 177.276 24.8003H175.02C174.874 24.2827 174.686 23.8921 174.456 23.6284C174.046 23.1597 173.438 22.9253 172.632 22.9253C171.812 22.9253 171.165 23.2573 170.691 23.9214C170.218 24.5806 169.981 25.5156 169.981 26.7266C169.981 27.9375 170.23 28.8457 170.728 29.4512C171.231 30.0518 171.868 30.3521 172.64 30.3521C173.431 30.3521 174.034 30.0933 174.449 29.5757C174.678 29.2974 174.869 28.8799 175.02 28.3232H177.254C177.059 29.5 176.558 30.457 175.752 31.1943C174.952 31.9316 173.924 32.3003 172.669 32.3003C171.116 32.3003 169.896 31.8022 169.007 30.8062C168.118 29.8052 167.674 28.4331 167.674 26.6899ZM182.396 30.5278C183.006 30.5278 183.475 30.3105 183.802 29.876C184.129 29.4414 184.292 28.8237 184.292 28.0229C184.292 27.2222 184.129 26.6069 183.802 26.1772C183.475 25.7427 183.006 25.5254 182.396 25.5254C181.785 25.5254 181.314 25.7427 180.982 26.1772C180.655 26.6069 180.491 27.2222 180.491 28.0229C180.491 28.8237 180.655 29.4414 180.982 29.876C181.314 30.3105 181.785 30.5278 182.396 30.5278ZM186.482 28.0229C186.482 29.1948 186.146 30.1982 185.472 31.0332C184.798 31.8633 183.775 32.2783 182.403 32.2783C181.031 32.2783 180.008 31.8633 179.334 31.0332C178.66 30.1982 178.323 29.1948 178.323 28.0229C178.323 26.8706 178.66 25.8721 179.334 25.0273C180.008 24.1826 181.031 23.7603 182.403 23.7603C183.775 23.7603 184.798 24.1826 185.472 25.0273C186.146 25.8721 186.482 26.8706 186.482 28.0229ZM193.484 28.0083C193.484 27.3931 193.343 26.8486 193.06 26.375C192.781 25.9014 192.327 25.6646 191.697 25.6646C190.94 25.6646 190.42 26.0234 190.137 26.7412C189.991 27.1221 189.917 27.6055 189.917 28.1914C189.917 29.1191 190.164 29.771 190.657 30.147C190.95 30.3667 191.297 30.4766 191.697 30.4766C192.278 30.4766 192.72 30.252 193.023 29.8027C193.331 29.3535 193.484 28.7554 193.484 28.0083ZM192.298 23.8408C193.23 23.8408 194.019 24.1851 194.664 24.8735C195.313 25.562 195.638 26.5728 195.638 27.9058C195.638 29.312 195.32 30.3838 194.686 31.1211C194.056 31.8584 193.243 32.2271 192.247 32.2271C191.612 32.2271 191.084 32.0684 190.665 31.751C190.435 31.5752 190.21 31.3188 189.991 30.9819V35.1421H187.925V24.0166H189.925V25.1958C190.149 24.8491 190.389 24.5757 190.643 24.3755C191.106 24.019 191.658 23.8408 192.298 23.8408ZM200.303 25.5254C199.82 25.5254 199.444 25.6768 199.175 25.9795C198.912 26.2822 198.746 26.6924 198.677 27.21H201.922C201.888 26.6582 201.719 26.2407 201.417 25.9575C201.119 25.6694 200.748 25.5254 200.303 25.5254ZM200.303 23.8042C200.967 23.8042 201.565 23.9287 202.098 24.1777C202.63 24.4268 203.069 24.8198 203.416 25.3569C203.729 25.8306 203.931 26.3799 204.024 27.0049C204.078 27.3711 204.1 27.8984 204.09 28.5869H198.626C198.655 29.3877 198.907 29.9492 199.38 30.2715C199.668 30.4717 200.015 30.5718 200.42 30.5718C200.85 30.5718 201.199 30.4497 201.468 30.2056C201.614 30.0737 201.744 29.8906 201.856 29.6562H203.987C203.934 30.1299 203.687 30.6108 203.248 31.0991C202.564 31.8755 201.607 32.2637 200.376 32.2637C199.361 32.2637 198.465 31.9365 197.688 31.2822C196.912 30.6279 196.524 29.5635 196.524 28.0889C196.524 26.707 196.873 25.6475 197.571 24.9102C198.274 24.1729 199.185 23.8042 200.303 23.8042ZM209.927 23.8262C210.752 23.8262 211.426 24.0435 211.949 24.478C212.476 24.9077 212.74 25.623 212.74 26.624V32H210.601V27.144C210.601 26.7241 210.545 26.4019 210.433 26.1772C210.228 25.7671 209.837 25.562 209.261 25.562C208.553 25.562 208.067 25.8623 207.803 26.4629C207.667 26.7803 207.598 27.1855 207.598 27.6787V32H205.518V24.0312H207.532V25.1958C207.801 24.7856 208.055 24.4902 208.294 24.3096C208.724 23.9873 209.268 23.8262 209.927 23.8262ZM219.075 28.1182C218.943 28.2012 218.809 28.2695 218.672 28.3232C218.541 28.3721 218.357 28.4185 218.123 28.4624L217.654 28.5503C217.215 28.6284 216.9 28.7236 216.709 28.8359C216.387 29.0264 216.226 29.3218 216.226 29.7222C216.226 30.0786 216.324 30.3374 216.519 30.4985C216.719 30.6548 216.961 30.7329 217.244 30.7329C217.693 30.7329 218.106 30.6011 218.482 30.3374C218.863 30.0737 219.061 29.5928 219.075 28.8945V28.1182ZM217.808 27.144C218.194 27.0952 218.47 27.0342 218.636 26.9609C218.934 26.834 219.083 26.6362 219.083 26.3677C219.083 26.0405 218.968 25.8159 218.738 25.6938C218.514 25.5669 218.182 25.5034 217.742 25.5034C217.249 25.5034 216.9 25.6255 216.695 25.8696C216.548 26.0503 216.451 26.2944 216.402 26.6021H214.388C214.432 25.9038 214.627 25.3301 214.974 24.8809C215.525 24.1777 216.473 23.8262 217.815 23.8262C218.689 23.8262 219.466 23.9995 220.145 24.3462C220.823 24.6929 221.163 25.3472 221.163 26.3091V29.9712C221.163 30.2251 221.167 30.5327 221.177 30.894C221.192 31.1675 221.233 31.353 221.302 31.4507C221.37 31.5483 221.473 31.6289 221.609 31.6924V32H219.339C219.275 31.8389 219.231 31.6875 219.207 31.5459C219.183 31.4043 219.163 31.2432 219.148 31.0625C218.86 31.375 218.528 31.6411 218.152 31.8608C217.703 32.1196 217.195 32.249 216.629 32.249C215.906 32.249 215.308 32.0439 214.834 31.6338C214.366 31.2188 214.131 30.6328 214.131 29.876C214.131 28.8945 214.51 28.1841 215.267 27.7446C215.682 27.5054 216.292 27.3345 217.098 27.2319L217.808 27.144ZM226.451 30.2861C226.939 30.2861 227.352 30.103 227.688 29.7368C228.025 29.3657 228.194 28.7773 228.194 27.9717C228.194 27.2148 228.033 26.6387 227.71 26.2432C227.393 25.8477 226.966 25.6499 226.429 25.6499C225.696 25.6499 225.191 25.9941 224.913 26.6826C224.766 27.0488 224.693 27.5005 224.693 28.0376C224.693 28.5015 224.771 28.9141 224.927 29.2754C225.21 29.9492 225.718 30.2861 226.451 30.2861ZM225.931 23.8262C226.331 23.8262 226.68 23.8872 226.978 24.0093C227.486 24.2192 227.896 24.605 228.208 25.1665V24.0166H230.237V31.5898C230.237 32.6201 230.064 33.3965 229.717 33.9189C229.122 34.8174 227.979 35.2666 226.29 35.2666C225.269 35.2666 224.437 35.0664 223.792 34.666C223.147 34.2656 222.791 33.6675 222.723 32.8716H224.993C225.052 33.1157 225.147 33.2915 225.279 33.3989C225.503 33.5894 225.882 33.6846 226.414 33.6846C227.166 33.6846 227.669 33.4331 227.923 32.9302C228.089 32.6079 228.172 32.0659 228.172 31.3042V30.7915C227.972 31.1333 227.757 31.3896 227.527 31.5605C227.112 31.8779 226.573 32.0366 225.909 32.0366C224.883 32.0366 224.063 31.6777 223.448 30.96C222.837 30.2373 222.532 29.2607 222.532 28.0303C222.532 26.8438 222.828 25.8477 223.418 25.042C224.009 24.2314 224.847 23.8262 225.931 23.8262ZM236.595 23.8115C237.088 23.8115 237.535 23.897 237.935 24.0679C238.34 24.2388 238.672 24.5 238.931 24.8516C239.151 25.1494 239.285 25.457 239.334 25.7744C239.383 26.0869 239.407 26.5996 239.407 27.3125V32H237.276V27.144C237.276 26.7144 237.203 26.3677 237.056 26.104C236.866 25.7329 236.504 25.5474 235.972 25.5474C235.42 25.5474 235 25.7329 234.712 26.104C234.429 26.4702 234.288 26.9951 234.288 27.6787V32H232.208V21.2407H234.288V25.0566C234.59 24.5928 234.939 24.2705 235.335 24.0898C235.735 23.9043 236.155 23.8115 236.595 23.8115ZM244.512 25.5254C244.029 25.5254 243.653 25.6768 243.384 25.9795C243.121 26.2822 242.955 26.6924 242.886 27.21H246.131C246.097 26.6582 245.928 26.2407 245.625 25.9575C245.328 25.6694 244.957 25.5254 244.512 25.5254ZM244.512 23.8042C245.176 23.8042 245.774 23.9287 246.307 24.1777C246.839 24.4268 247.278 24.8198 247.625 25.3569C247.938 25.8306 248.14 26.3799 248.233 27.0049C248.287 27.3711 248.309 27.8984 248.299 28.5869H242.835C242.864 29.3877 243.116 29.9492 243.589 30.2715C243.877 30.4717 244.224 30.5718 244.629 30.5718C245.059 30.5718 245.408 30.4497 245.677 30.2056C245.823 30.0737 245.953 29.8906 246.065 29.6562H248.196C248.143 30.1299 247.896 30.6108 247.457 31.0991C246.773 31.8755 245.816 32.2637 244.585 32.2637C243.57 32.2637 242.674 31.9365 241.897 31.2822C241.121 30.6279 240.733 29.5635 240.733 28.0889C240.733 26.707 241.082 25.6475 241.78 24.9102C242.483 24.1729 243.394 23.8042 244.512 23.8042ZM254.136 23.8262C254.961 23.8262 255.635 24.0435 256.158 24.478C256.685 24.9077 256.949 25.623 256.949 26.624V32H254.81V27.144C254.81 26.7241 254.754 26.4019 254.642 26.1772C254.437 25.7671 254.046 25.562 253.47 25.562C252.762 25.562 252.276 25.8623 252.012 26.4629C251.875 26.7803 251.807 27.1855 251.807 27.6787V32H249.727V24.0312H251.741V25.1958C252.01 24.7856 252.264 24.4902 252.503 24.3096C252.933 23.9873 253.477 23.8262 254.136 23.8262ZM263.211 32V21.2041H265.445V25.3203H269.664V21.2041H271.905V32H269.664V27.1807H265.445V32H263.211Z" fill="#333333"/>
<path d="M324.125 14H311V27.125H324.125V14ZM321.938 24.9375H313.188V16.1875H321.938V24.9375Z" fill="#4980A8"/>
<path d="M315.375 18.375H319.75V22.75H315.375V18.375Z" fill="#4980A8"/>
<path d="M311 49H324.125V35.875H311V49ZM313.188 38.0625H321.938V46.8125H313.188V38.0625Z" fill="#4980A8"/>
<path d="M315.375 40.25H319.75V44.625H315.375V40.25Z" fill="#4980A8"/>
<path d="M332.875 14V27.125H346V14H332.875ZM343.812 24.9375H335.062V16.1875H343.812V24.9375Z" fill="#4980A8"/>
<path d="M337.25 18.375H341.625V22.75H337.25V18.375Z" fill="#4980A8"/>
<path d="M315.375 29.3125H311V33.6875H317.562V31.5H315.375V29.3125Z" fill="#4980A8"/>
<path d="M326.312 33.6875H330.688V38.0625H326.312V33.6875Z" fill="#4980A8"/>
<path d="M317.562 29.3125H321.938V31.5H317.562V29.3125Z" fill="#4980A8"/>
<path d="M330.688 40.25H326.312V42.4375H328.5V44.625H330.688V42.4375V40.25Z" fill="#4980A8"/>
<path d="M324.125 29.3125V31.5H321.938V33.6875H326.312V29.3125H324.125Z" fill="#4980A8"/>
<path d="M328.5 22.75H330.688V27.125H328.5V22.75Z" fill="#4980A8"/>
<path d="M330.688 31.5V33.6875H335.062V29.3125H328.5V31.5H330.688Z" fill="#4980A8"/>
<path d="M326.312 27.125H328.5V29.3125H326.312V27.125Z" fill="#4980A8"/>
<path d="M330.688 44.625H335.062V49H330.688V44.625Z" fill="#4980A8"/>
<path d="M326.312 44.625H328.5V49H326.312V44.625Z" fill="#4980A8"/>
<path d="M330.688 38.0625H332.875V40.25H330.688V38.0625Z" fill="#4980A8"/>
<path d="M330.688 20.5625V16.1875H328.5V14H326.312V22.75H328.5V20.5625H330.688Z" fill="#4980A8"/>
<path d="M337.25 44.625H339.438V49H337.25V44.625Z" fill="#4980A8"/>
<path d="M337.25 40.25H341.625V42.4375H337.25V40.25Z" fill="#4980A8"/>
<path d="M335.062 42.4375H337.25V44.625H335.062V42.4375Z" fill="#4980A8"/>
<path d="M332.875 40.25H335.062V42.4375H332.875V40.25Z" fill="#4980A8"/>
<path d="M341.625 35.875V38.0625H343.812V40.25H346V35.875H343.812H341.625Z" fill="#4980A8"/>
<path d="M343.812 42.4375H341.625V49H346V44.625H343.812V42.4375Z" fill="#4980A8"/>
<path d="M332.875 35.875V38.0625H339.438V33.6875H335.062V35.875H332.875Z" fill="#4980A8"/>
<path d="M337.25 29.3125V31.5H341.625V33.6875H346V29.3125H341.625H337.25Z" fill="#4980A8"/>
</svg>
