<svg width="375" height="140" viewBox="0 0 375 140" fill="none" xmlns="http://www.w3.org/2000/svg">
<path d="M308.664 25.2812V23.0078C309.719 22.9609 310.457 22.8906 310.879 22.7969C311.551 22.6484 312.098 22.3516 312.52 21.9062C312.809 21.6016 313.027 21.1953 313.176 20.6875C313.262 20.3828 313.305 20.1562 313.305 20.0078H316.082V37H312.66V25.2812H308.664ZM324.461 32.0664C324.461 32.9023 324.676 33.5508 325.105 34.0117C325.543 34.4727 326.145 34.7031 326.91 34.7031C327.676 34.7031 328.273 34.4727 328.703 34.0117C329.141 33.5508 329.359 32.9023 329.359 32.0664C329.359 31.1992 329.137 30.543 328.691 30.0977C328.254 29.6445 327.66 29.418 326.91 29.418C326.16 29.418 325.562 29.6445 325.117 30.0977C324.68 30.543 324.461 31.1992 324.461 32.0664ZM320.992 32.2891C320.992 31.3359 321.207 30.4727 321.637 29.6992C322.074 28.9258 322.711 28.3438 323.547 27.9531C322.727 27.4062 322.191 26.8164 321.941 26.1836C321.699 25.543 321.578 24.9453 321.578 24.3906C321.578 23.1562 322.043 22.1055 322.973 21.2383C323.902 20.3633 325.215 19.9258 326.91 19.9258C328.605 19.9258 329.918 20.3633 330.848 21.2383C331.777 22.1055 332.242 23.1562 332.242 24.3906C332.242 24.9453 332.117 25.543 331.867 26.1836C331.625 26.8164 331.094 27.3672 330.273 27.8359C331.109 28.3047 331.738 28.9258 332.16 29.6992C332.582 30.4727 332.793 31.3359 332.793 32.2891C332.793 33.7188 332.262 34.9375 331.199 35.9453C330.145 36.9453 328.668 37.4453 326.77 37.4453C324.871 37.4453 323.434 36.9453 322.457 35.9453C321.48 34.9375 320.992 33.7188 320.992 32.2891ZM324.766 24.7656C324.766 25.3828 324.953 25.8867 325.328 26.2773C325.711 26.668 326.238 26.8633 326.91 26.8633C327.59 26.8633 328.113 26.668 328.48 26.2773C328.855 25.8867 329.043 25.3828 329.043 24.7656C329.043 24.0938 328.855 23.5703 328.48 23.1953C328.113 22.8125 327.59 22.6211 326.91 22.6211C326.238 22.6211 325.711 22.8125 325.328 23.1953C324.953 23.5703 324.766 24.0938 324.766 24.7656ZM334.469 37C334.5 35.7812 334.762 34.668 335.254 33.6602C335.73 32.5273 336.855 31.3281 338.629 30.0625C340.168 28.9609 341.164 28.1719 341.617 27.6953C342.312 26.9531 342.66 26.1406 342.66 25.2578C342.66 24.5391 342.461 23.9414 342.062 23.4648C341.664 22.9883 341.094 22.75 340.352 22.75C339.336 22.75 338.645 23.1289 338.277 23.8867C338.066 24.3242 337.941 25.0195 337.902 25.9727H334.656C334.711 24.5273 334.973 23.3594 335.441 22.4688C336.332 20.7734 337.914 19.9258 340.188 19.9258C341.984 19.9258 343.414 20.4258 344.477 21.4258C345.539 22.418 346.07 23.7344 346.07 25.375C346.07 26.6328 345.695 27.75 344.945 28.7266C344.453 29.375 343.645 30.0977 342.52 30.8945L341.184 31.8438C340.348 32.4375 339.773 32.8672 339.461 33.1328C339.156 33.3984 338.898 33.707 338.688 34.0586H346.105V37H334.469ZM348.461 39.7773C349.133 39.5898 349.625 39.2773 349.938 38.8398C350.258 38.4023 350.441 37.7891 350.488 37H348.461V33.5078H352.07V36.5312C352.07 37.0625 352 37.6172 351.859 38.1953C351.719 38.7734 351.457 39.2734 351.074 39.6953C350.66 40.1484 350.172 40.4883 349.609 40.7148C349.055 40.9492 348.672 41.0664 348.461 41.0664V39.7773ZM354.309 28.7266H361.035V31.8906H354.309V28.7266Z" fill="#B32B32"/>
<path d="M78.0781 23.2949V26.7754H81.1455C81.7549 26.7754 82.2119 26.7051 82.5166 26.5645C83.0557 26.3184 83.3252 25.832 83.3252 25.1055C83.3252 24.3203 83.0645 23.793 82.543 23.5234C82.25 23.3711 81.8105 23.2949 81.2246 23.2949H78.0781ZM81.7871 21.0449C82.6953 21.0625 83.3926 21.1738 83.8789 21.3789C84.3711 21.584 84.7871 21.8857 85.127 22.2842C85.4082 22.6123 85.6309 22.9756 85.7949 23.374C85.959 23.7725 86.041 24.2266 86.041 24.7363C86.041 25.3516 85.8857 25.958 85.5752 26.5557C85.2646 27.1475 84.752 27.5664 84.0371 27.8125C84.6348 28.0527 85.0566 28.3955 85.3027 28.8408C85.5547 29.2803 85.6807 29.9541 85.6807 30.8623V31.7324C85.6807 32.3242 85.7041 32.7256 85.751 32.9365C85.8213 33.2705 85.9854 33.5166 86.2432 33.6748V34H83.2637C83.1816 33.7129 83.123 33.4814 83.0879 33.3057C83.0176 32.9424 82.9795 32.5703 82.9736 32.1895L82.9561 30.9854C82.9443 30.1592 82.792 29.6084 82.499 29.333C82.2119 29.0576 81.6699 28.9199 80.873 28.9199H78.0781V34H75.4326V21.0449H81.7871ZM93.459 29.3418C93.3008 29.4414 93.1396 29.5234 92.9756 29.5879C92.8174 29.6465 92.5977 29.7021 92.3164 29.7549L91.7539 29.8604C91.2266 29.9541 90.8486 30.0684 90.6201 30.2031C90.2334 30.4316 90.04 30.7861 90.04 31.2666C90.04 31.6943 90.1572 32.0049 90.3916 32.1982C90.6318 32.3857 90.9219 32.4795 91.2617 32.4795C91.8008 32.4795 92.2959 32.3213 92.7471 32.0049C93.2041 31.6885 93.4414 31.1113 93.459 30.2734V29.3418ZM91.9385 28.1729C92.4014 28.1143 92.7324 28.041 92.9316 27.9531C93.2891 27.8008 93.4678 27.5635 93.4678 27.2412C93.4678 26.8486 93.3301 26.5791 93.0547 26.4326C92.7852 26.2803 92.3867 26.2041 91.8594 26.2041C91.2676 26.2041 90.8486 26.3506 90.6025 26.6436C90.4268 26.8604 90.3096 27.1533 90.251 27.5225H87.834C87.8867 26.6846 88.1211 25.9961 88.5371 25.457C89.1992 24.6133 90.3359 24.1914 91.9473 24.1914C92.9961 24.1914 93.9277 24.3994 94.7422 24.8154C95.5566 25.2314 95.9639 26.0166 95.9639 27.1709V31.5654C95.9639 31.8701 95.9697 32.2393 95.9814 32.6729C95.999 33.001 96.0488 33.2236 96.1309 33.3408C96.2129 33.458 96.3359 33.5547 96.5 33.6309V34H93.7754C93.6992 33.8066 93.6465 33.625 93.6172 33.4551C93.5879 33.2852 93.5645 33.0918 93.5469 32.875C93.2012 33.25 92.8027 33.5693 92.3516 33.833C91.8125 34.1436 91.2031 34.2988 90.5234 34.2988C89.6562 34.2988 88.9385 34.0527 88.3701 33.5605C87.8076 33.0625 87.5264 32.3594 87.5264 31.4512C87.5264 30.2734 87.9805 29.4209 88.8887 28.8936C89.3867 28.6064 90.1191 28.4014 91.0859 28.2783L91.9385 28.1729ZM104.103 24.4199H106.792L103.338 34H100.692L97.2559 24.4199H100.068L102.063 31.4863L104.103 24.4199ZM113.524 24.1914C114.515 24.1914 115.323 24.4521 115.95 24.9736C116.583 25.4893 116.899 26.3477 116.899 27.5488V34H114.333V28.1729C114.333 27.6689 114.266 27.2822 114.131 27.0127C113.885 26.5205 113.416 26.2744 112.725 26.2744C111.875 26.2744 111.292 26.6348 110.976 27.3555C110.812 27.7363 110.729 28.2227 110.729 28.8145V34H108.233V24.4375H110.65V25.835C110.973 25.3428 111.277 24.9883 111.564 24.7715C112.08 24.3848 112.733 24.1914 113.524 24.1914ZM121.171 30.9414C121.224 31.3867 121.338 31.7031 121.514 31.8906C121.824 32.2246 122.398 32.3916 123.236 32.3916C123.729 32.3916 124.118 32.3184 124.405 32.1719C124.698 32.0254 124.845 31.8057 124.845 31.5127C124.845 31.2314 124.728 31.0176 124.493 30.8711C124.259 30.7246 123.389 30.4727 121.883 30.1152C120.799 29.8457 120.034 29.5088 119.589 29.1045C119.144 28.7061 118.921 28.1318 118.921 27.3818C118.921 26.4971 119.267 25.7383 119.958 25.1055C120.655 24.4668 121.634 24.1475 122.894 24.1475C124.089 24.1475 125.062 24.3877 125.812 24.8682C126.567 25.3428 127.001 26.166 127.112 27.3379H124.607C124.572 27.0156 124.481 26.7607 124.335 26.5732C124.06 26.2334 123.591 26.0635 122.929 26.0635C122.384 26.0635 121.994 26.1484 121.76 26.3184C121.531 26.4883 121.417 26.6875 121.417 26.916C121.417 27.2031 121.54 27.4111 121.786 27.54C122.032 27.6748 122.902 27.9062 124.396 28.2344C125.393 28.4688 126.14 28.8232 126.638 29.2979C127.13 29.7783 127.376 30.3789 127.376 31.0996C127.376 32.0488 127.021 32.8252 126.312 33.4287C125.609 34.0264 124.52 34.3252 123.043 34.3252C121.537 34.3252 120.424 34.0088 119.703 33.376C118.988 32.7373 118.631 31.9258 118.631 30.9414H121.171ZM134.416 24.209C135.676 24.209 136.66 24.6631 137.369 25.5713C138.084 26.4795 138.441 27.6514 138.441 29.0869C138.441 30.5752 138.09 31.8086 137.387 32.7871C136.684 33.7656 135.702 34.2549 134.442 34.2549C133.651 34.2549 133.016 34.0967 132.535 33.7803C132.248 33.5928 131.938 33.2646 131.604 32.7959V34H129.151V21.0625H131.647V25.668C131.964 25.2227 132.312 24.8828 132.693 24.6484C133.145 24.3555 133.719 24.209 134.416 24.209ZM133.774 32.1895C134.419 32.1895 134.92 31.9287 135.277 31.4072C135.635 30.8857 135.813 30.2002 135.813 29.3506C135.813 28.6709 135.726 28.1084 135.55 27.6631C135.216 26.8193 134.601 26.3975 133.704 26.3975C132.796 26.3975 132.172 26.8105 131.832 27.6367C131.656 28.0762 131.568 28.6445 131.568 29.3418C131.568 30.1621 131.75 30.8418 132.113 31.3809C132.477 31.9199 133.03 32.1895 133.774 32.1895ZM142.862 23.2773H140.357V20.9658H142.862V23.2773ZM139.153 35.8369C139.294 35.8486 139.394 35.8545 139.452 35.8545C139.511 35.8604 139.563 35.8633 139.61 35.8633C139.856 35.8633 140.041 35.8018 140.164 35.6787C140.293 35.5615 140.357 35.3301 140.357 34.9844V24.4639H142.862V35.0283C142.862 35.9951 142.672 36.71 142.291 37.1729C141.91 37.6357 141.163 37.8672 140.05 37.8672C139.974 37.8672 139.859 37.8643 139.707 37.8584C139.561 37.8525 139.376 37.8467 139.153 37.8408V35.8369ZM149.032 26.2305C148.452 26.2305 148.001 26.4121 147.679 26.7754C147.362 27.1387 147.163 27.6309 147.081 28.252H150.975C150.934 27.5898 150.731 27.0889 150.368 26.749C150.011 26.4033 149.565 26.2305 149.032 26.2305ZM149.032 24.165C149.829 24.165 150.547 24.3145 151.186 24.6133C151.824 24.9121 152.352 25.3838 152.768 26.0283C153.143 26.5967 153.386 27.2559 153.497 28.0059C153.562 28.4453 153.588 29.0781 153.576 29.9043H147.02C147.055 30.8652 147.356 31.5391 147.925 31.9258C148.271 32.166 148.687 32.2861 149.173 32.2861C149.688 32.2861 150.107 32.1396 150.43 31.8467C150.605 31.6885 150.761 31.4688 150.896 31.1875H153.453C153.389 31.7559 153.093 32.333 152.565 32.9189C151.745 33.8506 150.597 34.3164 149.12 34.3164C147.901 34.3164 146.826 33.9238 145.895 33.1387C144.963 32.3535 144.497 31.0762 144.497 29.3066C144.497 27.6484 144.916 26.377 145.754 25.4922C146.598 24.6074 147.69 24.165 149.032 24.165ZM160.476 24.1914C160.522 24.1914 160.561 24.1943 160.59 24.2002C160.625 24.2002 160.698 24.2031 160.81 24.209V26.7754C160.651 26.7578 160.511 26.7461 160.388 26.7402C160.265 26.7344 160.165 26.7314 160.089 26.7314C159.081 26.7314 158.404 27.0596 158.059 27.7158C157.865 28.085 157.769 28.6533 157.769 29.4209V34H155.246V24.4199H157.637V26.0898C158.023 25.4512 158.36 25.0146 158.647 24.7803C159.116 24.3877 159.726 24.1914 160.476 24.1914ZM166.399 31.9434C166.985 31.9434 167.48 31.7236 167.885 31.2842C168.289 30.8389 168.491 30.1328 168.491 29.166C168.491 28.2578 168.298 27.5664 167.911 27.0918C167.53 26.6172 167.018 26.3799 166.373 26.3799C165.494 26.3799 164.888 26.793 164.554 27.6191C164.378 28.0586 164.29 28.6006 164.29 29.2451C164.29 29.8018 164.384 30.2969 164.571 30.7305C164.911 31.5391 165.521 31.9434 166.399 31.9434ZM165.775 24.1914C166.256 24.1914 166.675 24.2646 167.032 24.4111C167.642 24.6631 168.134 25.126 168.509 25.7998V24.4199H170.943V33.5078C170.943 34.7441 170.735 35.6758 170.319 36.3027C169.604 37.3809 168.233 37.9199 166.206 37.9199C164.981 37.9199 163.982 37.6797 163.209 37.1992C162.436 36.7188 162.008 36.001 161.926 35.0459H164.65C164.721 35.3389 164.835 35.5498 164.993 35.6787C165.263 35.9072 165.717 36.0215 166.355 36.0215C167.258 36.0215 167.861 35.7197 168.166 35.1162C168.365 34.7295 168.465 34.0791 168.465 33.165V32.5498C168.225 32.96 167.967 33.2676 167.691 33.4727C167.193 33.8535 166.546 34.0439 165.749 34.0439C164.519 34.0439 163.534 33.6133 162.796 32.752C162.063 31.8848 161.697 30.7129 161.697 29.2363C161.697 27.8125 162.052 26.6172 162.761 25.6504C163.47 24.6777 164.475 24.1914 165.775 24.1914ZM178.273 21.0889H180.734V28.0674L183.854 24.4639H186.957L183.608 28.1289L187.089 34H184.065L181.771 29.9043L180.734 30.9854V34H178.273V21.0889ZM192.617 32.2334C193.35 32.2334 193.912 31.9727 194.305 31.4512C194.697 30.9297 194.894 30.1885 194.894 29.2275C194.894 28.2666 194.697 27.5283 194.305 27.0127C193.912 26.4912 193.35 26.2305 192.617 26.2305C191.885 26.2305 191.319 26.4912 190.921 27.0127C190.528 27.5283 190.332 28.2666 190.332 29.2275C190.332 30.1885 190.528 30.9297 190.921 31.4512C191.319 31.9727 191.885 32.2334 192.617 32.2334ZM197.521 29.2275C197.521 30.6338 197.117 31.8379 196.309 32.8398C195.5 33.8359 194.272 34.334 192.626 34.334C190.979 34.334 189.752 33.8359 188.943 32.8398C188.135 31.8379 187.73 30.6338 187.73 29.2275C187.73 27.8447 188.135 26.6465 188.943 25.6328C189.752 24.6191 190.979 24.1123 192.626 24.1123C194.272 24.1123 195.5 24.6191 196.309 25.6328C197.117 26.6465 197.521 27.8447 197.521 29.2275ZM201.881 34H199.376V21.0449H201.881V34ZM206.891 34H204.386V21.0449H206.891V34ZM213.122 26.2305C212.542 26.2305 212.091 26.4121 211.769 26.7754C211.452 27.1387 211.253 27.6309 211.171 28.252H215.064C215.023 27.5898 214.821 27.0889 214.458 26.749C214.101 26.4033 213.655 26.2305 213.122 26.2305ZM213.122 24.165C213.919 24.165 214.637 24.3145 215.275 24.6133C215.914 24.9121 216.441 25.3838 216.857 26.0283C217.232 26.5967 217.476 27.2559 217.587 28.0059C217.651 28.4453 217.678 29.0781 217.666 29.9043H211.109C211.145 30.8652 211.446 31.5391 212.015 31.9258C212.36 32.166 212.776 32.2861 213.263 32.2861C213.778 32.2861 214.197 32.1396 214.52 31.8467C214.695 31.6885 214.851 31.4688 214.985 31.1875H217.543C217.479 31.7559 217.183 32.333 216.655 32.9189C215.835 33.8506 214.687 34.3164 213.21 34.3164C211.991 34.3164 210.916 33.9238 209.984 33.1387C209.053 32.3535 208.587 31.0762 208.587 29.3066C208.587 27.6484 209.006 26.377 209.844 25.4922C210.688 24.6074 211.78 24.165 213.122 24.165ZM223.476 31.9434C224.062 31.9434 224.557 31.7236 224.961 31.2842C225.365 30.8389 225.567 30.1328 225.567 29.166C225.567 28.2578 225.374 27.5664 224.987 27.0918C224.606 26.6172 224.094 26.3799 223.449 26.3799C222.57 26.3799 221.964 26.793 221.63 27.6191C221.454 28.0586 221.366 28.6006 221.366 29.2451C221.366 29.8018 221.46 30.2969 221.647 30.7305C221.987 31.5391 222.597 31.9434 223.476 31.9434ZM222.852 24.1914C223.332 24.1914 223.751 24.2646 224.108 24.4111C224.718 24.6631 225.21 25.126 225.585 25.7998V24.4199H228.02V33.5078C228.02 34.7441 227.812 35.6758 227.396 36.3027C226.681 37.3809 225.31 37.9199 223.282 37.9199C222.058 37.9199 221.059 37.6797 220.285 37.1992C219.512 36.7188 219.084 36.001 219.002 35.0459H221.727C221.797 35.3389 221.911 35.5498 222.069 35.6787C222.339 35.9072 222.793 36.0215 223.432 36.0215C224.334 36.0215 224.938 35.7197 225.242 35.1162C225.441 34.7295 225.541 34.0791 225.541 33.165V32.5498C225.301 32.96 225.043 33.2676 224.768 33.4727C224.27 33.8535 223.622 34.0439 222.825 34.0439C221.595 34.0439 220.61 33.6133 219.872 32.752C219.14 31.8848 218.773 30.7129 218.773 29.2363C218.773 27.8125 219.128 26.6172 219.837 25.6504C220.546 24.6777 221.551 24.1914 222.852 24.1914ZM232.941 23.2773H230.401V20.9658H232.941V23.2773ZM230.401 24.4199H232.941V34H230.401V24.4199ZM239.155 26.2305C238.575 26.2305 238.124 26.4121 237.802 26.7754C237.485 27.1387 237.286 27.6309 237.204 28.252H241.098C241.057 27.5898 240.854 27.0889 240.491 26.749C240.134 26.4033 239.688 26.2305 239.155 26.2305ZM239.155 24.165C239.952 24.165 240.67 24.3145 241.309 24.6133C241.947 24.9121 242.475 25.3838 242.891 26.0283C243.266 26.5967 243.509 27.2559 243.62 28.0059C243.685 28.4453 243.711 29.0781 243.699 29.9043H237.143C237.178 30.8652 237.479 31.5391 238.048 31.9258C238.394 32.166 238.81 32.2861 239.296 32.2861C239.812 32.2861 240.23 32.1396 240.553 31.8467C240.729 31.6885 240.884 31.4688 241.019 31.1875H243.576C243.512 31.7559 243.216 32.333 242.688 32.9189C241.868 33.8506 240.72 34.3164 239.243 34.3164C238.024 34.3164 236.949 33.9238 236.018 33.1387C235.086 32.3535 234.62 31.0762 234.62 29.3066C234.62 27.6484 235.039 26.377 235.877 25.4922C236.721 24.6074 237.813 24.165 239.155 24.165ZM244.411 26.292V24.5078H245.747V21.8359H248.226V24.5078H249.781V26.292H248.226V31.3545C248.226 31.7471 248.275 31.9932 248.375 32.0928C248.475 32.1865 248.779 32.2334 249.289 32.2334C249.365 32.2334 249.444 32.2334 249.526 32.2334C249.614 32.2275 249.699 32.2217 249.781 32.2158V34.0879L248.595 34.1318C247.411 34.1729 246.603 33.9678 246.169 33.5166C245.888 33.2295 245.747 32.7871 245.747 32.1895V26.292H244.411Z" fill="#333333"/>
<path d="M74.8086 98.6279C74.8086 96.3662 75.415 94.623 76.6279 93.3984C77.6826 92.332 79.0244 91.7988 80.6533 91.7988C82.833 91.7988 84.4268 92.5137 85.4346 93.9434C85.9912 94.7461 86.29 95.5518 86.3311 96.3604H83.624C83.4482 95.7393 83.2227 95.2705 82.9473 94.9541C82.4551 94.3916 81.7256 94.1104 80.7588 94.1104C79.7744 94.1104 78.998 94.5088 78.4297 95.3057C77.8613 96.0967 77.5771 97.2188 77.5771 98.6719C77.5771 100.125 77.876 101.215 78.4736 101.941C79.0771 102.662 79.8418 103.022 80.7676 103.022C81.7168 103.022 82.4404 102.712 82.9385 102.091C83.2139 101.757 83.4424 101.256 83.624 100.588H86.3047C86.0703 102 85.4697 103.148 84.5029 104.033C83.542 104.918 82.3086 105.36 80.8027 105.36C78.9395 105.36 77.4746 104.763 76.4082 103.567C75.3418 102.366 74.8086 100.72 74.8086 98.6279ZM92.4746 103.233C93.207 103.233 93.7695 102.973 94.1621 102.451C94.5547 101.93 94.751 101.188 94.751 100.228C94.751 99.2666 94.5547 98.5283 94.1621 98.0127C93.7695 97.4912 93.207 97.2305 92.4746 97.2305C91.7422 97.2305 91.1768 97.4912 90.7783 98.0127C90.3857 98.5283 90.1895 99.2666 90.1895 100.228C90.1895 101.188 90.3857 101.93 90.7783 102.451C91.1768 102.973 91.7422 103.233 92.4746 103.233ZM97.3789 100.228C97.3789 101.634 96.9746 102.838 96.166 103.84C95.3574 104.836 94.1299 105.334 92.4834 105.334C90.8369 105.334 89.6094 104.836 88.8008 103.84C87.9922 102.838 87.5879 101.634 87.5879 100.228C87.5879 98.8447 87.9922 97.6465 88.8008 96.6328C89.6094 95.6191 90.8369 95.1123 92.4834 95.1123C94.1299 95.1123 95.3574 95.6191 96.166 96.6328C96.9746 97.6465 97.3789 98.8447 97.3789 100.228ZM105.781 100.21C105.781 99.4717 105.611 98.8184 105.271 98.25C104.938 97.6816 104.393 97.3975 103.637 97.3975C102.729 97.3975 102.104 97.8281 101.765 98.6895C101.589 99.1465 101.501 99.7266 101.501 100.43C101.501 101.543 101.797 102.325 102.389 102.776C102.74 103.04 103.156 103.172 103.637 103.172C104.334 103.172 104.864 102.902 105.228 102.363C105.597 101.824 105.781 101.106 105.781 100.21ZM104.357 95.209C105.477 95.209 106.423 95.6221 107.196 96.4482C107.976 97.2744 108.365 98.4873 108.365 100.087C108.365 101.774 107.984 103.061 107.223 103.945C106.467 104.83 105.491 105.272 104.296 105.272C103.534 105.272 102.901 105.082 102.397 104.701C102.122 104.49 101.853 104.183 101.589 103.778V108.771H99.1104V95.4199H101.51V96.835C101.779 96.4189 102.066 96.0908 102.371 95.8506C102.928 95.4229 103.59 95.209 104.357 95.209ZM113.964 97.2305C113.384 97.2305 112.933 97.4121 112.61 97.7754C112.294 98.1387 112.095 98.6309 112.013 99.252H115.906C115.865 98.5898 115.663 98.0889 115.3 97.749C114.942 97.4033 114.497 97.2305 113.964 97.2305ZM113.964 95.165C114.761 95.165 115.479 95.3145 116.117 95.6133C116.756 95.9121 117.283 96.3838 117.699 97.0283C118.074 97.5967 118.317 98.2559 118.429 99.0059C118.493 99.4453 118.52 100.078 118.508 100.904H111.951C111.986 101.865 112.288 102.539 112.856 102.926C113.202 103.166 113.618 103.286 114.104 103.286C114.62 103.286 115.039 103.14 115.361 102.847C115.537 102.688 115.692 102.469 115.827 102.188H118.385C118.32 102.756 118.024 103.333 117.497 103.919C116.677 104.851 115.528 105.316 114.052 105.316C112.833 105.316 111.758 104.924 110.826 104.139C109.895 103.354 109.429 102.076 109.429 100.307C109.429 98.6484 109.848 97.377 110.686 96.4922C111.529 95.6074 112.622 95.165 113.964 95.165ZM125.513 95.1914C126.503 95.1914 127.312 95.4521 127.938 95.9736C128.571 96.4893 128.888 97.3477 128.888 98.5488V105H126.321V99.1729C126.321 98.6689 126.254 98.2822 126.119 98.0127C125.873 97.5205 125.404 97.2744 124.713 97.2744C123.863 97.2744 123.28 97.6348 122.964 98.3555C122.8 98.7363 122.718 99.2227 122.718 99.8145V105H120.222V95.4375H122.639V96.835C122.961 96.3428 123.266 95.9883 123.553 95.7715C124.068 95.3848 124.722 95.1914 125.513 95.1914ZM136.49 100.342C136.332 100.441 136.171 100.523 136.007 100.588C135.849 100.646 135.629 100.702 135.348 100.755L134.785 100.86C134.258 100.954 133.88 101.068 133.651 101.203C133.265 101.432 133.071 101.786 133.071 102.267C133.071 102.694 133.188 103.005 133.423 103.198C133.663 103.386 133.953 103.479 134.293 103.479C134.832 103.479 135.327 103.321 135.778 103.005C136.235 102.688 136.473 102.111 136.49 101.273V100.342ZM134.97 99.1729C135.433 99.1143 135.764 99.041 135.963 98.9531C136.32 98.8008 136.499 98.5635 136.499 98.2412C136.499 97.8486 136.361 97.5791 136.086 97.4326C135.816 97.2803 135.418 97.2041 134.891 97.2041C134.299 97.2041 133.88 97.3506 133.634 97.6436C133.458 97.8604 133.341 98.1533 133.282 98.5225H130.865C130.918 97.6846 131.152 96.9961 131.568 96.457C132.23 95.6133 133.367 95.1914 134.979 95.1914C136.027 95.1914 136.959 95.3994 137.773 95.8154C138.588 96.2314 138.995 97.0166 138.995 98.1709V102.565C138.995 102.87 139.001 103.239 139.013 103.673C139.03 104.001 139.08 104.224 139.162 104.341C139.244 104.458 139.367 104.555 139.531 104.631V105H136.807C136.73 104.807 136.678 104.625 136.648 104.455C136.619 104.285 136.596 104.092 136.578 103.875C136.232 104.25 135.834 104.569 135.383 104.833C134.844 105.144 134.234 105.299 133.555 105.299C132.688 105.299 131.97 105.053 131.401 104.561C130.839 104.062 130.558 103.359 130.558 102.451C130.558 101.273 131.012 100.421 131.92 99.8936C132.418 99.6064 133.15 99.4014 134.117 99.2783L134.97 99.1729ZM145.341 102.943C145.927 102.943 146.422 102.724 146.826 102.284C147.23 101.839 147.433 101.133 147.433 100.166C147.433 99.2578 147.239 98.5664 146.853 98.0918C146.472 97.6172 145.959 97.3799 145.314 97.3799C144.436 97.3799 143.829 97.793 143.495 98.6191C143.319 99.0586 143.231 99.6006 143.231 100.245C143.231 100.802 143.325 101.297 143.513 101.73C143.853 102.539 144.462 102.943 145.341 102.943ZM144.717 95.1914C145.197 95.1914 145.616 95.2646 145.974 95.4111C146.583 95.6631 147.075 96.126 147.45 96.7998V95.4199H149.885V104.508C149.885 105.744 149.677 106.676 149.261 107.303C148.546 108.381 147.175 108.92 145.147 108.92C143.923 108.92 142.924 108.68 142.15 108.199C141.377 107.719 140.949 107.001 140.867 106.046H143.592C143.662 106.339 143.776 106.55 143.935 106.679C144.204 106.907 144.658 107.021 145.297 107.021C146.199 107.021 146.803 106.72 147.107 106.116C147.307 105.729 147.406 105.079 147.406 104.165V103.55C147.166 103.96 146.908 104.268 146.633 104.473C146.135 104.854 145.487 105.044 144.69 105.044C143.46 105.044 142.476 104.613 141.737 103.752C141.005 102.885 140.639 101.713 140.639 100.236C140.639 98.8125 140.993 97.6172 141.702 96.6504C142.411 95.6777 143.416 95.1914 144.717 95.1914ZM157.514 95.1738C158.105 95.1738 158.642 95.2764 159.122 95.4814C159.608 95.6865 160.007 96 160.317 96.4219C160.581 96.7793 160.742 97.1484 160.801 97.5293C160.859 97.9043 160.889 98.5195 160.889 99.375V105H158.331V99.1729C158.331 98.6572 158.243 98.2412 158.067 97.9248C157.839 97.4795 157.405 97.2568 156.767 97.2568C156.104 97.2568 155.601 97.4795 155.255 97.9248C154.915 98.3643 154.745 98.9941 154.745 99.8145V105H152.249V92.0889H154.745V96.668C155.108 96.1113 155.527 95.7246 156.002 95.5078C156.482 95.2852 156.986 95.1738 157.514 95.1738ZM167.015 97.2305C166.435 97.2305 165.983 97.4121 165.661 97.7754C165.345 98.1387 165.146 98.6309 165.063 99.252H168.957C168.916 98.5898 168.714 98.0889 168.351 97.749C167.993 97.4033 167.548 97.2305 167.015 97.2305ZM167.015 95.165C167.812 95.165 168.529 95.3145 169.168 95.6133C169.807 95.9121 170.334 96.3838 170.75 97.0283C171.125 97.5967 171.368 98.2559 171.479 99.0059C171.544 99.4453 171.57 100.078 171.559 100.904H165.002C165.037 101.865 165.339 102.539 165.907 102.926C166.253 103.166 166.669 103.286 167.155 103.286C167.671 103.286 168.09 103.14 168.412 102.847C168.588 102.688 168.743 102.469 168.878 102.188H171.436C171.371 102.756 171.075 103.333 170.548 103.919C169.728 104.851 168.579 105.316 167.103 105.316C165.884 105.316 164.809 104.924 163.877 104.139C162.945 103.354 162.479 102.076 162.479 100.307C162.479 98.6484 162.898 97.377 163.736 96.4922C164.58 95.6074 165.673 95.165 167.015 95.165ZM178.563 95.1914C179.554 95.1914 180.362 95.4521 180.989 95.9736C181.622 96.4893 181.938 97.3477 181.938 98.5488V105H179.372V99.1729C179.372 98.6689 179.305 98.2822 179.17 98.0127C178.924 97.5205 178.455 97.2744 177.764 97.2744C176.914 97.2744 176.331 97.6348 176.015 98.3555C175.851 98.7363 175.769 99.2227 175.769 99.8145V105H173.272V95.4375H175.689V96.835C176.012 96.3428 176.316 95.9883 176.604 95.7715C177.119 95.3848 177.772 95.1914 178.563 95.1914ZM189.453 105V92.0449H192.134V96.9844H197.196V92.0449H199.886V105H197.196V99.2168H192.134V105H189.453Z" fill="#333333"/>
<path d="M14.083 34H13.2041V24.3906L10.3037 25.4673V24.647L13.9365 23.2993H14.083V34ZM23.707 30.5649H25.3696V31.3047H23.707V34H22.8281V31.3047H17.811V30.8066L22.7476 23.3359H23.707V30.5649ZM18.8877 30.5649H22.8281V24.4712L22.4399 25.145L18.8877 30.5649ZM26.7026 33.4727C26.7026 33.3018 26.7563 33.1577 26.8638 33.0405C26.9761 32.9185 27.1299 32.8574 27.3252 32.8574C27.5205 32.8574 27.6743 32.9185 27.7866 33.0405C27.8989 33.1577 27.9551 33.3018 27.9551 33.4727C27.9551 33.6436 27.8989 33.7852 27.7866 33.8975C27.6743 34.0049 27.5205 34.0586 27.3252 34.0586C27.1299 34.0586 26.9761 34.0049 26.8638 33.8975C26.7563 33.7852 26.7026 33.6436 26.7026 33.4727ZM36.6636 29.5542C36.6636 31.0581 36.3877 32.2007 35.8359 32.9819C35.2842 33.7583 34.4712 34.1465 33.397 34.1465C32.3423 34.1465 31.5342 33.7656 30.9727 33.0039C30.4111 32.2373 30.123 31.124 30.1084 29.6641V27.7524C30.1084 26.2534 30.3867 25.1182 30.9434 24.3467C31.5 23.5752 32.313 23.1895 33.3823 23.1895C34.437 23.1895 35.2427 23.563 35.7993 24.3101C36.356 25.0522 36.644 26.1484 36.6636 27.5986V29.5542ZM35.7847 27.6426C35.7847 26.4219 35.5845 25.499 35.1841 24.874C34.7886 24.249 34.188 23.9365 33.3823 23.9365C32.5913 23.9365 31.9956 24.2417 31.5952 24.8521C31.1948 25.4624 30.9897 26.3633 30.98 27.5547V29.6494C30.98 30.8652 31.1851 31.7954 31.5952 32.4399C32.0103 33.0845 32.6108 33.4067 33.397 33.4067C34.1782 33.4067 34.769 33.0918 35.1694 32.4619C35.5747 31.832 35.7798 30.9092 35.7847 29.6934V27.6426ZM39.1465 28.5361L39.6665 23.3359H44.9985V24.1489H40.4209L40.0474 27.7524C40.6187 27.3618 41.2876 27.1665 42.0542 27.1665C43.0161 27.1665 43.7827 27.479 44.354 28.104C44.9253 28.729 45.2109 29.5615 45.2109 30.6016C45.2109 31.7246 44.9326 32.5962 44.376 33.2163C43.8193 33.8364 43.0356 34.1465 42.0249 34.1465C41.0972 34.1465 40.3452 33.8877 39.769 33.3701C39.1929 32.8525 38.8633 32.1274 38.7803 31.1948H39.6226C39.7056 31.9224 39.9521 32.4741 40.3623 32.8501C40.7725 33.2212 41.3267 33.4067 42.0249 33.4067C42.7866 33.4067 43.3604 33.165 43.7461 32.6816C44.1367 32.1982 44.332 31.5098 44.332 30.6162C44.332 29.835 44.1147 29.1978 43.6802 28.7046C43.2456 28.2114 42.6523 27.9648 41.9004 27.9648C41.4854 27.9648 41.124 28.0186 40.8164 28.126C40.5088 28.2285 40.1841 28.4312 39.8423 28.7339L39.1465 28.5361Z" fill="#333333"/>
<path d="M79.5986 44.958H77.2061L76.6787 48H76.4199L77.6455 40.8906H79.8232C80.2529 40.8939 80.6273 40.9834 80.9463 41.1592C81.2686 41.3317 81.5013 41.5726 81.6445 41.8818C81.7878 42.1911 81.8268 42.5443 81.7617 42.9414C81.6803 43.4232 81.4655 43.8431 81.1172 44.2012C80.7721 44.556 80.3571 44.7871 79.8721 44.8945L81.1855 47.9316L81.1758 48H80.9072L79.5986 44.958ZM77.25 44.6943H79.3398C79.877 44.6943 80.3457 44.5299 80.7461 44.2012C81.1497 43.8724 81.4004 43.4525 81.498 42.9414C81.5957 42.4043 81.4834 41.973 81.1611 41.6475C80.8389 41.3187 80.3669 41.1543 79.7451 41.1543H77.8652L77.25 44.6943ZM83.0312 48H82.7676L83.6758 42.7168H83.9395L83.0312 48ZM83.832 41.0566C83.8418 40.9915 83.876 40.9313 83.9346 40.876C83.9964 40.8206 84.0615 40.793 84.1299 40.793C84.2048 40.793 84.265 40.8223 84.3105 40.8809C84.3594 40.9395 84.3773 41.0046 84.3643 41.0762C84.3545 41.1413 84.3187 41.2015 84.2568 41.2568C84.195 41.3089 84.1299 41.335 84.0615 41.335C83.9867 41.3317 83.9264 41.3024 83.8809 41.2471C83.8353 41.1917 83.819 41.1283 83.832 41.0566ZM88.1924 46.7061C88.3096 46.0941 87.8636 45.6595 86.8545 45.4023L86.3125 45.2461C85.5638 45.002 85.235 44.5706 85.3262 43.9521C85.3848 43.5518 85.5964 43.2295 85.9609 42.9854C86.3255 42.7412 86.7487 42.6191 87.2305 42.6191C87.7611 42.6191 88.1761 42.7559 88.4756 43.0293C88.7751 43.3027 88.902 43.6689 88.8564 44.1279H88.5928C88.6318 43.7568 88.5228 43.4574 88.2656 43.2295C88.0085 42.9984 87.665 42.8828 87.2354 42.8828C86.8187 42.8828 86.4557 42.9788 86.1465 43.1709C85.8372 43.363 85.6517 43.6201 85.5898 43.9424C85.4922 44.46 85.7917 44.8278 86.4883 45.0459L87.2158 45.2559L87.46 45.3389C88.2184 45.6156 88.5505 46.0729 88.4561 46.7109C88.3942 47.1309 88.1761 47.4678 87.8018 47.7217C87.4274 47.9723 86.9798 48.0977 86.459 48.0977C85.9154 48.0977 85.4808 47.9658 85.1553 47.7021C84.8298 47.4352 84.6898 47.0869 84.7354 46.6572H84.9941C84.9779 47.0218 85.0983 47.3099 85.3555 47.5215C85.6159 47.7298 85.9821 47.834 86.4541 47.834C86.9033 47.8242 87.2907 47.7168 87.6162 47.5117C87.9417 47.3034 88.1338 47.0348 88.1924 46.7061ZM89.8623 45.3047C89.9535 44.7741 90.113 44.2988 90.3408 43.8789C90.5719 43.459 90.8503 43.1449 91.1758 42.9365C91.5013 42.7249 91.8561 42.6191 92.2402 42.6191C92.6113 42.6191 92.9336 42.7119 93.207 42.8975C93.4837 43.083 93.6839 43.3467 93.8076 43.6885L94.3643 40.5H94.6279L93.334 48H93.0703L93.2363 47.1553C93.002 47.4515 92.722 47.6826 92.3965 47.8486C92.071 48.0146 91.7161 48.0977 91.332 48.0977C90.987 48.0977 90.6973 48.013 90.4629 47.8438C90.2285 47.6712 90.0544 47.4206 89.9404 47.0918C89.8298 46.7598 89.7809 46.3952 89.7939 45.998C89.8005 45.8125 89.8232 45.5814 89.8623 45.3047ZM90.0625 45.9248C90.0365 46.2829 90.0641 46.6117 90.1455 46.9111C90.2269 47.2106 90.3669 47.4401 90.5654 47.5996C90.7673 47.7559 91.0195 47.834 91.3223 47.834C91.7454 47.8372 92.1247 47.7363 92.46 47.5312C92.7985 47.3262 93.0752 47.0462 93.29 46.6914L93.7295 44.2158C93.6611 43.7926 93.4967 43.4655 93.2363 43.2344C92.9792 43 92.6471 42.8828 92.2402 42.8828C91.8268 42.8828 91.459 43.0212 91.1367 43.2979C90.8145 43.5713 90.5622 43.9521 90.3799 44.4404C90.1976 44.9287 90.0918 45.4235 90.0625 45.9248ZM98.3438 48C98.334 47.7135 98.3649 47.3913 98.4365 47.0332C98.1631 47.3685 97.8376 47.6305 97.46 47.8193C97.0856 48.0081 96.6787 48.1009 96.2393 48.0977C95.7965 48.0977 95.4434 47.9609 95.1797 47.6875C94.916 47.4141 94.8167 47.0723 94.8818 46.6621C94.9632 46.1641 95.2383 45.7751 95.707 45.4951C96.179 45.2152 96.7764 45.0671 97.499 45.0508H98.7539L98.8955 44.2793C98.9639 43.8464 98.8776 43.5062 98.6367 43.2588C98.3958 43.0081 98.0492 42.8828 97.5967 42.8828C97.154 42.8828 96.7536 43.0016 96.3955 43.2393C96.0374 43.4736 95.8128 43.7829 95.7217 44.167L95.458 44.1572C95.5492 43.7048 95.7998 43.3353 96.21 43.0488C96.6201 42.7624 97.0824 42.6191 97.5967 42.6191C98.1338 42.6191 98.5456 42.7721 98.832 43.0781C99.1185 43.3809 99.2243 43.7845 99.1494 44.2891L98.666 47.1113L98.6318 47.4434C98.6156 47.6159 98.6221 47.7868 98.6514 47.9561L98.6465 48H98.3438ZM96.2344 47.8389C96.6706 47.8454 97.0856 47.7412 97.4795 47.5264C97.8734 47.3083 98.2087 46.9909 98.4854 46.5742L98.71 45.3193H97.5283C96.8708 45.3324 96.3271 45.4593 95.8975 45.7002C95.471 45.9378 95.2188 46.265 95.1406 46.6816C95.082 47.0039 95.1585 47.2757 95.3701 47.4971C95.585 47.7184 95.873 47.8324 96.2344 47.8389ZM100.492 48H100.229L101.518 40.5H101.781L100.492 48ZM105.653 46.7061C105.771 46.0941 105.325 45.6595 104.315 45.4023L103.773 45.2461C103.025 45.002 102.696 44.5706 102.787 43.9521C102.846 43.5518 103.057 43.2295 103.422 42.9854C103.786 42.7412 104.21 42.6191 104.691 42.6191C105.222 42.6191 105.637 42.7559 105.937 43.0293C106.236 43.3027 106.363 43.6689 106.317 44.1279H106.054C106.093 43.7568 105.984 43.4574 105.727 43.2295C105.469 42.9984 105.126 42.8828 104.696 42.8828C104.28 42.8828 103.917 42.9788 103.607 43.1709C103.298 43.363 103.113 43.6201 103.051 43.9424C102.953 44.46 103.253 44.8278 103.949 45.0459L104.677 45.2559L104.921 45.3389C105.679 45.6156 106.011 46.0729 105.917 46.7109C105.855 47.1309 105.637 47.4678 105.263 47.7217C104.888 47.9723 104.441 48.0977 103.92 48.0977C103.376 48.0977 102.942 47.9658 102.616 47.7021C102.291 47.4352 102.151 47.0869 102.196 46.6572H102.455C102.439 47.0218 102.559 47.3099 102.816 47.5215C103.077 47.7298 103.443 47.834 103.915 47.834C104.364 47.8242 104.752 47.7168 105.077 47.5117C105.403 47.3034 105.595 47.0348 105.653 46.7061ZM108.7 47.5703L111.303 42.7217H111.591L108.783 48H108.524L107.348 42.7119H107.621L108.7 47.5703ZM113.637 48.0977C113.214 48.0977 112.849 47.9788 112.543 47.7412C112.237 47.5036 112.016 47.1797 111.879 46.7695C111.745 46.3561 111.711 45.9232 111.776 45.4707L111.815 45.2266C111.894 44.7513 112.06 44.307 112.313 43.8936C112.571 43.4801 112.875 43.1644 113.227 42.9463C113.578 42.7282 113.954 42.6191 114.354 42.6191C114.888 42.6191 115.307 42.8161 115.609 43.21C115.912 43.6038 116.041 44.1084 115.995 44.7236L115.98 44.875L115.937 45.1826H112.099L112.045 45.4707C111.999 45.7441 111.998 46.0208 112.04 46.3008C112.112 46.7663 112.289 47.139 112.572 47.4189C112.859 47.6956 113.212 47.8356 113.632 47.8389C114.241 47.8454 114.789 47.6045 115.277 47.1162L115.453 47.2529C114.971 47.8161 114.366 48.0977 113.637 48.0977ZM114.354 42.8828C113.853 42.8828 113.404 43.0716 113.007 43.4492C112.613 43.8236 112.32 44.3135 112.128 44.9189H115.692L115.707 44.8555C115.749 44.6211 115.753 44.3867 115.717 44.1523C115.658 43.7682 115.505 43.4606 115.258 43.2295C115.014 42.9984 114.713 42.8828 114.354 42.8828ZM117.89 42.7168L116.879 48.5762C116.794 49.0677 116.609 49.4502 116.322 49.7236C116.036 49.9971 115.686 50.1338 115.272 50.1338C115.149 50.1338 114.993 50.1012 114.804 50.0361L114.853 49.7822C115.006 49.8408 115.147 49.8701 115.277 49.8701C115.609 49.8766 115.897 49.7627 116.142 49.5283C116.386 49.2939 116.542 48.9766 116.61 48.5762L117.626 42.7168H117.89ZM117.807 41.0566C117.816 40.9915 117.851 40.9313 117.909 40.876C117.971 40.8206 118.036 40.793 118.104 40.793C118.179 40.793 118.24 40.8223 118.285 40.8809C118.334 40.9395 118.352 41.0046 118.339 41.0762C118.329 41.1413 118.293 41.2015 118.231 41.2568C118.17 41.3089 118.104 41.335 118.036 41.335C117.961 41.3317 117.901 41.3024 117.855 41.2471C117.81 41.1917 117.794 41.1283 117.807 41.0566ZM122.987 44.2402H123.422C123.985 44.2402 124.47 44.1019 124.877 43.8252C125.284 43.5452 125.53 43.1709 125.614 42.7021C125.699 42.2204 125.609 41.8265 125.346 41.5205C125.082 41.2113 124.703 41.0566 124.208 41.0566C123.7 41.0566 123.256 41.2129 122.875 41.5254C122.497 41.8346 122.255 42.2448 122.147 42.7559L121.884 42.751C121.985 42.1715 122.253 41.7012 122.689 41.3398C123.126 40.9753 123.632 40.793 124.208 40.793C124.774 40.793 125.215 40.9736 125.531 41.335C125.847 41.693 125.963 42.1553 125.878 42.7217C125.826 43.0895 125.665 43.4183 125.395 43.708C125.128 43.9977 124.773 44.2174 124.33 44.3672C124.75 44.4844 125.066 44.6992 125.277 45.0117C125.492 45.321 125.567 45.6888 125.502 46.1152C125.414 46.6979 125.152 47.1748 124.716 47.5459C124.28 47.9137 123.759 48.0977 123.153 48.0977C122.753 48.0977 122.395 48.0098 122.079 47.834C121.767 47.6582 121.534 47.4108 121.381 47.0918C121.228 46.7695 121.174 46.4131 121.22 46.0225H121.483C121.415 46.5368 121.54 46.9681 121.859 47.3164C122.178 47.6615 122.608 47.834 123.148 47.834C123.692 47.834 124.153 47.6794 124.53 47.3701C124.911 47.0609 125.146 46.6491 125.233 46.1348C125.318 45.6204 125.199 45.2217 124.877 44.9385C124.558 44.6553 124.068 44.5137 123.407 44.5137H122.953L122.987 44.2402ZM130.102 45.7979H131.288L131.254 46.0615H130.058L129.721 48H129.462L129.794 46.0615L126.454 46.0566L126.474 45.915L130.624 40.8955L130.946 40.8906L130.102 45.7979ZM126.913 45.7979H129.838L130.629 41.2471L130.131 41.8965L126.913 45.7979ZM131.498 49.2451L131.332 49.0791C131.68 48.6885 131.89 48.2881 131.962 47.8779L132.074 47.2236H132.338L132.235 47.8389C132.141 48.3988 131.895 48.8675 131.498 49.2451ZM140.941 42.6973C140.876 43.0846 140.705 43.4248 140.429 43.7178C140.152 44.0075 139.799 44.224 139.369 44.3672C139.779 44.5039 140.092 44.7334 140.307 45.0557C140.525 45.3747 140.603 45.7393 140.541 46.1494C140.45 46.7321 140.17 47.2025 139.701 47.5605C139.232 47.9186 138.676 48.0977 138.031 48.0977C137.618 48.0977 137.253 48.0163 136.938 47.8535C136.625 47.6875 136.397 47.458 136.254 47.165C136.111 46.8688 136.072 46.5303 136.137 46.1494C136.208 45.7262 136.397 45.36 136.703 45.0508C137.009 44.7383 137.41 44.5072 137.904 44.3574C137.543 44.2174 137.274 43.9977 137.099 43.6982C136.926 43.3988 136.869 43.0651 136.928 42.6973C137.016 42.1406 137.274 41.6849 137.704 41.3301C138.134 40.972 138.642 40.793 139.228 40.793C139.595 40.793 139.923 40.876 140.209 41.042C140.499 41.2048 140.707 41.4326 140.834 41.7256C140.964 42.0153 141 42.3392 140.941 42.6973ZM140.268 46.1738C140.326 45.8613 140.294 45.5781 140.17 45.3242C140.049 45.0703 139.851 44.8685 139.574 44.7188C139.298 44.569 138.988 44.4941 138.646 44.4941C138.1 44.4941 137.61 44.6504 137.177 44.9629C136.747 45.2754 136.487 45.679 136.396 46.1738C136.308 46.6654 136.418 47.0658 136.728 47.375C137.04 47.681 137.473 47.834 138.026 47.834C138.586 47.834 139.076 47.681 139.496 47.375C139.919 47.0658 140.176 46.6654 140.268 46.1738ZM140.683 42.6729C140.764 42.2204 140.66 41.8379 140.37 41.5254C140.08 41.2129 139.701 41.0566 139.232 41.0566C138.728 41.0566 138.284 41.2096 137.899 41.5156C137.519 41.8184 137.284 42.2041 137.196 42.6729C137.112 43.1221 137.209 43.4948 137.489 43.791C137.772 44.084 138.157 44.2305 138.642 44.2305C139.136 44.2305 139.577 44.0856 139.965 43.7959C140.355 43.5062 140.595 43.1318 140.683 42.6729ZM145.595 48H141.469L141.498 47.7363L144.687 44.5186C145.325 43.861 145.689 43.2555 145.78 42.7021C145.865 42.2204 145.78 41.8265 145.526 41.5205C145.272 41.2113 144.892 41.0566 144.384 41.0566C143.889 41.0566 143.453 41.2324 143.075 41.584C142.698 41.9323 142.457 42.3701 142.353 42.8975H142.089C142.193 42.292 142.46 41.7907 142.89 41.3936C143.323 40.9932 143.819 40.793 144.379 40.793C144.958 40.793 145.403 40.9688 145.712 41.3203C146.024 41.6686 146.138 42.1292 146.054 42.7021C145.969 43.2848 145.591 43.9294 144.921 44.6357L141.859 47.7363H145.629L145.595 48ZM151.234 40.793L151.2 41.0566C150.282 41.0566 149.507 41.3545 148.876 41.9502C148.244 42.5426 147.799 43.3662 147.538 44.4209C147.746 44.141 147.997 43.9082 148.29 43.7227C148.707 43.459 149.158 43.3271 149.643 43.3271C150.036 43.3271 150.37 43.4297 150.644 43.6348C150.917 43.8398 151.109 44.1198 151.22 44.4746C151.334 44.8294 151.36 45.2233 151.298 45.6562C151.229 46.1055 151.08 46.5221 150.849 46.9062C150.621 47.2904 150.344 47.585 150.019 47.79C149.693 47.9951 149.35 48.0977 148.988 48.0977C148.559 48.0977 148.189 47.9886 147.88 47.7705C147.574 47.5492 147.353 47.2432 147.216 46.8525C147.079 46.4619 147.043 46.0436 147.108 45.5977L147.221 44.8701C147.416 43.6136 147.859 42.6208 148.549 41.8916C149.239 41.1592 150.134 40.793 151.234 40.793ZM149.608 43.5908C149.153 43.5908 148.71 43.7275 148.28 44.001C147.854 44.2712 147.585 44.5934 147.475 44.9678L147.372 45.5928C147.31 45.9997 147.336 46.3789 147.45 46.7305C147.564 47.082 147.753 47.3555 148.017 47.5508C148.28 47.7461 148.603 47.8421 148.983 47.8389C149.381 47.8356 149.745 47.6956 150.077 47.4189C150.412 47.1423 150.673 46.7646 150.858 46.2861C151.044 45.8076 151.107 45.3438 151.049 44.8945C150.993 44.4844 150.839 44.1654 150.585 43.9375C150.331 43.7064 150.006 43.5908 149.608 43.5908ZM154.096 48.0977C153.725 48.0977 153.412 48.0049 153.158 47.8193C152.904 47.6338 152.717 47.3604 152.597 46.999C152.479 46.6344 152.431 46.2194 152.45 45.7539L152.489 45.2852L152.724 43.8984C152.89 42.9316 153.194 42.1715 153.637 41.6182C154.079 41.0648 154.634 40.7881 155.302 40.7881C155.679 40.7881 155.995 40.8825 156.249 41.0713C156.503 41.2568 156.688 41.5335 156.806 41.9014C156.923 42.2692 156.97 42.681 156.947 43.1367L156.898 43.6641L156.659 45.0508C156.49 46.0111 156.184 46.7598 155.741 47.2969C155.299 47.8307 154.75 48.0977 154.096 48.0977ZM156.684 42.5996C156.641 42.0853 156.503 41.6995 156.269 41.4424C156.034 41.182 155.714 41.0518 155.307 41.0518C154.721 41.0518 154.226 41.3024 153.822 41.8037C153.422 42.3018 153.142 43.0098 152.982 43.9277L152.758 45.2461L152.719 45.6611C152.686 46.0648 152.714 46.4375 152.802 46.7793C152.89 47.1211 153.043 47.3831 153.261 47.5654C153.479 47.7445 153.756 47.834 154.091 47.834C154.674 47.834 155.163 47.5882 155.561 47.0967C155.961 46.6019 156.239 45.915 156.396 45.0361L156.601 43.874C156.685 43.3955 156.713 42.9707 156.684 42.5996ZM162.064 47.3066L162.128 47.7217L162.338 47.2871L165.648 40.8955H165.941L162.265 48H161.947L160.468 40.8857H160.746L162.064 47.3066ZM166.127 48H165.863L166.771 42.7168H167.035L166.127 48ZM166.928 41.0566C166.938 40.9915 166.972 40.9313 167.03 40.876C167.092 40.8206 167.157 40.793 167.226 40.793C167.3 40.793 167.361 40.8223 167.406 40.8809C167.455 40.9395 167.473 41.0046 167.46 41.0762C167.45 41.1413 167.414 41.2015 167.353 41.2568C167.291 41.3089 167.226 41.335 167.157 41.335C167.082 41.3317 167.022 41.3024 166.977 41.2471C166.931 41.1917 166.915 41.1283 166.928 41.0566ZM169.853 48.0977C169.488 48.0977 169.164 48.0179 168.881 47.8584C168.601 47.6989 168.393 47.4678 168.256 47.165L168.104 48H167.841L169.135 40.5H169.398L168.832 43.6787C169.076 43.3369 169.361 43.0749 169.687 42.8926C170.015 42.7103 170.368 42.6191 170.746 42.6191C171.088 42.6191 171.379 42.7038 171.62 42.873C171.861 43.0423 172.037 43.2913 172.147 43.6201C172.261 43.9456 172.312 44.307 172.299 44.7041C172.289 44.9124 172.27 45.1126 172.24 45.3047L172.177 45.627C172.007 46.3919 171.718 46.9958 171.308 47.4385C170.897 47.8779 170.412 48.0977 169.853 48.0977ZM171.967 45.3047L172.025 44.7822C172.051 44.4274 172.021 44.0986 171.933 43.7959C171.848 43.4932 171.703 43.2653 171.498 43.1123C171.296 42.9593 171.047 42.8828 170.751 42.8828C170.318 42.8828 169.91 43.013 169.525 43.2734C169.145 43.5339 168.889 43.8561 168.759 44.2402L168.324 46.6621C168.402 47.0397 168.576 47.3294 168.847 47.5312C169.12 47.7331 169.455 47.834 169.853 47.834C170.377 47.834 170.821 47.6191 171.186 47.1895C171.55 46.7565 171.804 46.1624 171.947 45.4072L171.967 45.3047ZM174.779 47.5898L174.828 47.4873L177.431 42.7217H177.729L174.389 48.8887C174.148 49.3444 173.904 49.6634 173.656 49.8457C173.409 50.0312 173.134 50.1273 172.831 50.1338C172.707 50.1338 172.577 50.1159 172.44 50.0801L172.47 49.8311C172.636 49.8604 172.746 49.875 172.802 49.875C173.235 49.875 173.609 49.6341 173.925 49.1523L174.12 48.8301L174.594 47.9463L173.451 42.7119H173.729L174.779 47.5898ZM184.848 40.8906H185.111L184.271 45.7588C184.148 46.4749 183.869 47.0446 183.437 47.4678C183.007 47.8877 182.494 48.0977 181.898 48.0977C181.28 48.0977 180.824 47.9089 180.531 47.5312C180.238 47.1504 180.139 46.654 180.233 46.042H180.497C180.455 46.3024 180.451 46.5417 180.487 46.7598C180.543 47.1081 180.691 47.375 180.932 47.5605C181.176 47.7428 181.496 47.834 181.894 47.834C182.424 47.834 182.882 47.6419 183.266 47.2578C183.65 46.8737 183.896 46.374 184.003 45.7588L184.848 40.8906Z" fill="#707070"/>
<path d="M76.752 119.736H80.2822L80.248 120H76.4346L77.665 112.891H77.9336L76.752 119.736ZM84.584 120L84.75 119.146C84.5189 119.465 84.2389 119.704 83.9102 119.863C83.5814 120.02 83.2201 120.098 82.8262 120.098C82.416 120.098 82.0905 119.989 81.8496 119.771C81.612 119.552 81.4736 119.242 81.4346 118.838C81.4118 118.581 81.4232 118.315 81.4688 118.042L82.04 114.717H82.3037L81.7227 118.081C81.6868 118.302 81.6755 118.517 81.6885 118.726C81.7048 119.077 81.8105 119.351 82.0059 119.546C82.2012 119.738 82.4714 119.834 82.8164 119.834C83.2917 119.834 83.7197 119.705 84.1006 119.448C84.4814 119.188 84.7321 118.849 84.8525 118.433L85.4922 114.717H85.7607L84.8525 120H84.584ZM86.9033 120L87.7627 114.985H86.8838L86.918 114.717H87.8164L87.9385 113.965C88.0264 113.486 88.2103 113.107 88.4902 112.827C88.7702 112.547 89.1201 112.404 89.54 112.397C89.7451 112.397 89.9502 112.427 90.1553 112.485L90.082 112.729C89.877 112.677 89.6963 112.655 89.54 112.661C89.1982 112.668 88.9085 112.791 88.6709 113.032C88.4333 113.27 88.277 113.597 88.2021 114.014L88.0752 114.717H89.4277L89.3887 114.985H88.0312L87.167 120H86.9033ZM91.3564 113.291L91.1123 114.717H92.2695L92.2354 114.985H91.0635L90.3945 118.853L90.375 119.121C90.3652 119.342 90.4108 119.517 90.5117 119.644C90.6126 119.767 90.7656 119.831 90.9707 119.834C91.0618 119.834 91.2393 119.819 91.5029 119.79L91.5127 120.039C91.363 120.078 91.1855 120.098 90.9805 120.098C90.4271 120.098 90.139 119.813 90.1162 119.243C90.1097 119.077 90.1211 118.908 90.1504 118.735L90.7949 114.985H89.8525L89.8916 114.717H90.8438L91.0879 113.291H91.3564ZM93.6855 115.947C93.9492 115.521 94.2601 115.194 94.6182 114.966C94.9762 114.735 95.3457 114.619 95.7266 114.619C96.1302 114.619 96.4476 114.723 96.6787 114.932C96.9098 115.14 97.0433 115.441 97.0791 115.835C97.0986 116.082 97.0856 116.341 97.04 116.611L96.4541 120H96.1904L96.7764 116.611C96.8154 116.383 96.8317 116.159 96.8252 115.938C96.8089 115.592 96.7064 115.329 96.5176 115.146C96.332 114.964 96.0651 114.875 95.7168 114.878C95.2708 114.884 94.8411 115.059 94.4277 115.4C94.0176 115.739 93.7393 116.144 93.5928 116.616L93.0068 120H92.7432L94.0371 112.5H94.3008L93.6855 115.947ZM101.459 120C101.449 119.714 101.48 119.391 101.552 119.033C101.278 119.368 100.953 119.631 100.575 119.819C100.201 120.008 99.7939 120.101 99.3545 120.098C98.9118 120.098 98.5586 119.961 98.2949 119.688C98.0312 119.414 97.932 119.072 97.9971 118.662C98.0785 118.164 98.3535 117.775 98.8223 117.495C99.2943 117.215 99.8916 117.067 100.614 117.051H101.869L102.011 116.279C102.079 115.846 101.993 115.506 101.752 115.259C101.511 115.008 101.164 114.883 100.712 114.883C100.269 114.883 99.8688 115.002 99.5107 115.239C99.1527 115.474 98.9281 115.783 98.8369 116.167L98.5732 116.157C98.6644 115.705 98.915 115.335 99.3252 115.049C99.7354 114.762 100.198 114.619 100.712 114.619C101.249 114.619 101.661 114.772 101.947 115.078C102.234 115.381 102.34 115.785 102.265 116.289L101.781 119.111L101.747 119.443C101.731 119.616 101.737 119.787 101.767 119.956L101.762 120H101.459ZM99.3496 119.839C99.7858 119.845 100.201 119.741 100.595 119.526C100.989 119.308 101.324 118.991 101.601 118.574L101.825 117.319H100.644C99.986 117.332 99.4424 117.459 99.0127 117.7C98.5863 117.938 98.334 118.265 98.2559 118.682C98.1973 119.004 98.2738 119.276 98.4854 119.497C98.7002 119.718 98.9883 119.832 99.3496 119.839ZM104.813 119.57L107.416 114.722H107.704L104.896 120H104.638L103.461 114.712H103.734L104.813 119.57ZM108.832 115.947C109.096 115.521 109.407 115.194 109.765 114.966C110.123 114.735 110.492 114.619 110.873 114.619C111.277 114.619 111.594 114.723 111.825 114.932C112.056 115.14 112.19 115.441 112.226 115.835C112.245 116.082 112.232 116.341 112.187 116.611L111.601 120H111.337L111.923 116.611C111.962 116.383 111.978 116.159 111.972 115.938C111.955 115.592 111.853 115.329 111.664 115.146C111.479 114.964 111.212 114.875 110.863 114.878C110.417 114.884 109.988 115.059 109.574 115.4C109.164 115.739 108.886 116.144 108.739 116.616L108.153 120H107.89L108.798 114.717H109.062L108.832 115.947ZM116.688 118.706C116.806 118.094 116.36 117.66 115.351 117.402L114.809 117.246C114.06 117.002 113.731 116.571 113.822 115.952C113.881 115.552 114.092 115.229 114.457 114.985C114.822 114.741 115.245 114.619 115.727 114.619C116.257 114.619 116.672 114.756 116.972 115.029C117.271 115.303 117.398 115.669 117.353 116.128H117.089C117.128 115.757 117.019 115.457 116.762 115.229C116.505 114.998 116.161 114.883 115.731 114.883C115.315 114.883 114.952 114.979 114.643 115.171C114.333 115.363 114.148 115.62 114.086 115.942C113.988 116.46 114.288 116.828 114.984 117.046L115.712 117.256L115.956 117.339C116.715 117.616 117.047 118.073 116.952 118.711C116.89 119.131 116.672 119.468 116.298 119.722C115.924 119.972 115.476 120.098 114.955 120.098C114.411 120.098 113.977 119.966 113.651 119.702C113.326 119.435 113.186 119.087 113.231 118.657H113.49C113.474 119.022 113.594 119.31 113.852 119.521C114.112 119.73 114.478 119.834 114.95 119.834C115.399 119.824 115.787 119.717 116.112 119.512C116.438 119.303 116.63 119.035 116.688 118.706ZM120.126 120.098C119.761 120.098 119.438 120.018 119.154 119.858C118.874 119.699 118.666 119.468 118.529 119.165L118.378 120H118.114L119.408 112.5H119.672L119.105 115.679C119.35 115.337 119.634 115.075 119.96 114.893C120.289 114.71 120.642 114.619 121.02 114.619C121.361 114.619 121.653 114.704 121.894 114.873C122.134 115.042 122.31 115.291 122.421 115.62C122.535 115.946 122.585 116.307 122.572 116.704C122.562 116.912 122.543 117.113 122.514 117.305L122.45 117.627C122.281 118.392 121.991 118.996 121.581 119.438C121.171 119.878 120.686 120.098 120.126 120.098ZM122.24 117.305L122.299 116.782C122.325 116.427 122.294 116.099 122.206 115.796C122.121 115.493 121.977 115.265 121.771 115.112C121.57 114.959 121.321 114.883 121.024 114.883C120.591 114.883 120.183 115.013 119.799 115.273C119.418 115.534 119.162 115.856 119.032 116.24L118.598 118.662C118.676 119.04 118.85 119.329 119.12 119.531C119.394 119.733 119.729 119.834 120.126 119.834C120.65 119.834 121.094 119.619 121.459 119.189C121.824 118.757 122.077 118.162 122.221 117.407L122.24 117.305ZM123.568 117.256C123.65 116.764 123.814 116.317 124.062 115.913C124.309 115.509 124.618 115.194 124.989 114.966C125.36 114.735 125.766 114.619 126.205 114.619C126.563 114.619 126.881 114.699 127.157 114.858C127.434 115.018 127.654 115.256 127.816 115.571C127.979 115.884 128.072 116.23 128.095 116.611C128.104 116.833 128.085 117.116 128.036 117.461C127.955 117.952 127.789 118.402 127.538 118.809C127.291 119.215 126.981 119.533 126.61 119.761C126.243 119.985 125.84 120.098 125.404 120.098C125.043 120.098 124.724 120.018 124.447 119.858C124.174 119.696 123.954 119.46 123.788 119.15C123.625 118.838 123.534 118.488 123.515 118.101C123.502 117.882 123.52 117.601 123.568 117.256ZM123.798 118.301C123.863 118.773 124.037 119.147 124.32 119.424C124.604 119.697 124.963 119.834 125.399 119.834C125.91 119.834 126.371 119.655 126.781 119.297C127.195 118.939 127.493 118.455 127.675 117.847C127.825 117.342 127.868 116.865 127.807 116.416C127.735 115.944 127.558 115.571 127.274 115.298C126.994 115.021 126.64 114.883 126.21 114.883C125.699 114.883 125.237 115.065 124.823 115.43C124.41 115.791 124.112 116.271 123.93 116.87C123.78 117.368 123.736 117.845 123.798 118.301ZM132.309 120L132.475 119.146C132.243 119.465 131.964 119.704 131.635 119.863C131.306 120.02 130.945 120.098 130.551 120.098C130.141 120.098 129.815 119.989 129.574 119.771C129.337 119.552 129.198 119.242 129.159 118.838C129.136 118.581 129.148 118.315 129.193 118.042L129.765 114.717H130.028L129.447 118.081C129.411 118.302 129.4 118.517 129.413 118.726C129.429 119.077 129.535 119.351 129.73 119.546C129.926 119.738 130.196 119.834 130.541 119.834C131.016 119.834 131.444 119.705 131.825 119.448C132.206 119.188 132.457 118.849 132.577 118.433L133.217 114.717H133.485L132.577 120H132.309ZM134.564 120H134.301L135.59 112.5H135.854L134.564 120ZM138.217 120.098C137.794 120.098 137.429 119.979 137.123 119.741C136.817 119.504 136.596 119.18 136.459 118.77C136.326 118.356 136.291 117.923 136.356 117.471L136.396 117.227C136.474 116.751 136.64 116.307 136.894 115.894C137.151 115.48 137.455 115.164 137.807 114.946C138.158 114.728 138.534 114.619 138.935 114.619C139.468 114.619 139.887 114.816 140.189 115.21C140.492 115.604 140.621 116.108 140.575 116.724L140.561 116.875L140.517 117.183H136.679L136.625 117.471C136.579 117.744 136.578 118.021 136.62 118.301C136.692 118.766 136.869 119.139 137.152 119.419C137.439 119.696 137.792 119.836 138.212 119.839C138.821 119.845 139.369 119.604 139.857 119.116L140.033 119.253C139.551 119.816 138.946 120.098 138.217 120.098ZM138.935 114.883C138.433 114.883 137.984 115.072 137.587 115.449C137.193 115.824 136.9 116.313 136.708 116.919H140.272L140.287 116.855C140.329 116.621 140.333 116.387 140.297 116.152C140.238 115.768 140.085 115.461 139.838 115.229C139.594 114.998 139.293 114.883 138.935 114.883ZM142.772 119.57L145.375 114.722H145.663L142.855 120H142.597L141.42 114.712H141.693L142.772 119.57ZM149.125 120C149.115 119.714 149.146 119.391 149.218 119.033C148.944 119.368 148.619 119.631 148.241 119.819C147.867 120.008 147.46 120.101 147.021 120.098C146.578 120.098 146.225 119.961 145.961 119.688C145.697 119.414 145.598 119.072 145.663 118.662C145.744 118.164 146.02 117.775 146.488 117.495C146.96 117.215 147.558 117.067 148.28 117.051H149.535L149.677 116.279C149.745 115.846 149.659 115.506 149.418 115.259C149.177 115.008 148.83 114.883 148.378 114.883C147.935 114.883 147.535 115.002 147.177 115.239C146.819 115.474 146.594 115.783 146.503 116.167L146.239 116.157C146.33 115.705 146.581 115.335 146.991 115.049C147.401 114.762 147.864 114.619 148.378 114.619C148.915 114.619 149.327 114.772 149.613 115.078C149.9 115.381 150.006 115.785 149.931 116.289L149.447 119.111L149.413 119.443C149.397 119.616 149.403 119.787 149.433 119.956L149.428 120H149.125ZM147.016 119.839C147.452 119.845 147.867 119.741 148.261 119.526C148.655 119.308 148.99 118.991 149.267 118.574L149.491 117.319H148.31C147.652 117.332 147.108 117.459 146.679 117.7C146.252 117.938 146 118.265 145.922 118.682C145.863 119.004 145.94 119.276 146.151 119.497C146.366 119.718 146.654 119.832 147.016 119.839ZM154.096 114.902L153.778 114.878C153.342 114.878 152.937 115.039 152.562 115.361C152.188 115.684 151.938 116.076 151.811 116.538L151.21 120H150.946L151.854 114.717H152.118L151.913 115.815C152.134 115.438 152.405 115.145 152.724 114.937C153.043 114.725 153.397 114.619 153.788 114.619C153.912 114.619 154.035 114.639 154.159 114.678L154.096 114.902ZM154.374 117.305C154.465 116.774 154.625 116.299 154.853 115.879C155.084 115.459 155.362 115.145 155.688 114.937C156.013 114.725 156.368 114.619 156.752 114.619C157.123 114.619 157.445 114.712 157.719 114.897C157.995 115.083 158.196 115.347 158.319 115.688L158.876 112.5H159.14L157.846 120H157.582L157.748 119.155C157.514 119.451 157.234 119.683 156.908 119.849C156.583 120.015 156.228 120.098 155.844 120.098C155.499 120.098 155.209 120.013 154.975 119.844C154.74 119.671 154.566 119.421 154.452 119.092C154.341 118.76 154.293 118.395 154.306 117.998C154.312 117.812 154.335 117.581 154.374 117.305ZM154.574 117.925C154.548 118.283 154.576 118.612 154.657 118.911C154.739 119.211 154.879 119.44 155.077 119.6C155.279 119.756 155.531 119.834 155.834 119.834C156.257 119.837 156.636 119.736 156.972 119.531C157.31 119.326 157.587 119.046 157.802 118.691L158.241 116.216C158.173 115.793 158.008 115.465 157.748 115.234C157.491 115 157.159 114.883 156.752 114.883C156.339 114.883 155.971 115.021 155.648 115.298C155.326 115.571 155.074 115.952 154.892 116.44C154.709 116.929 154.604 117.424 154.574 117.925ZM161.43 120.098C161.007 120.098 160.642 119.979 160.336 119.741C160.03 119.504 159.809 119.18 159.672 118.77C159.538 118.356 159.504 117.923 159.569 117.471L159.608 117.227C159.687 116.751 159.853 116.307 160.106 115.894C160.364 115.48 160.668 115.164 161.02 114.946C161.371 114.728 161.747 114.619 162.147 114.619C162.681 114.619 163.1 114.816 163.402 115.21C163.705 115.604 163.834 116.108 163.788 116.724L163.773 116.875L163.729 117.183H159.892L159.838 117.471C159.792 117.744 159.791 118.021 159.833 118.301C159.905 118.766 160.082 119.139 160.365 119.419C160.652 119.696 161.005 119.836 161.425 119.839C162.034 119.845 162.582 119.604 163.07 119.116L163.246 119.253C162.764 119.816 162.159 120.098 161.43 120.098ZM162.147 114.883C161.646 114.883 161.197 115.072 160.8 115.449C160.406 115.824 160.113 116.313 159.921 116.919H163.485L163.5 116.855C163.542 116.621 163.546 116.387 163.51 116.152C163.451 115.768 163.298 115.461 163.051 115.229C162.807 114.998 162.506 114.883 162.147 114.883ZM165.385 115.947C165.648 115.521 165.959 115.194 166.317 114.966C166.675 114.735 167.045 114.619 167.426 114.619C167.829 114.619 168.147 114.723 168.378 114.932C168.609 115.14 168.743 115.441 168.778 115.835C168.798 116.082 168.785 116.341 168.739 116.611L168.153 120H167.89L168.476 116.611C168.515 116.383 168.531 116.159 168.524 115.938C168.508 115.592 168.406 115.329 168.217 115.146C168.031 114.964 167.764 114.875 167.416 114.878C166.97 114.884 166.54 115.059 166.127 115.4C165.717 115.739 165.438 116.144 165.292 116.616L164.706 120H164.442L165.351 114.717H165.614L165.385 115.947ZM176.547 112.793L176.513 113.057C175.595 113.057 174.82 113.354 174.188 113.95C173.557 114.543 173.111 115.366 172.851 116.421C173.059 116.141 173.31 115.908 173.603 115.723C174.019 115.459 174.47 115.327 174.955 115.327C175.349 115.327 175.683 115.43 175.956 115.635C176.229 115.84 176.422 116.12 176.532 116.475C176.646 116.829 176.672 117.223 176.61 117.656C176.542 118.105 176.392 118.522 176.161 118.906C175.933 119.29 175.657 119.585 175.331 119.79C175.006 119.995 174.662 120.098 174.301 120.098C173.871 120.098 173.502 119.989 173.192 119.771C172.886 119.549 172.665 119.243 172.528 118.853C172.392 118.462 172.356 118.044 172.421 117.598L172.533 116.87C172.729 115.614 173.171 114.621 173.861 113.892C174.551 113.159 175.447 112.793 176.547 112.793ZM174.921 115.591C174.465 115.591 174.022 115.728 173.593 116.001C173.166 116.271 172.898 116.593 172.787 116.968L172.685 117.593C172.623 118 172.649 118.379 172.763 118.73C172.877 119.082 173.065 119.355 173.329 119.551C173.593 119.746 173.915 119.842 174.296 119.839C174.693 119.836 175.058 119.696 175.39 119.419C175.725 119.142 175.985 118.765 176.171 118.286C176.356 117.808 176.42 117.344 176.361 116.895C176.306 116.484 176.151 116.165 175.897 115.938C175.644 115.706 175.318 115.591 174.921 115.591ZM177.133 121.245L176.967 121.079C177.315 120.688 177.525 120.288 177.597 119.878L177.709 119.224H177.973L177.87 119.839C177.776 120.399 177.53 120.868 177.133 121.245ZM185.868 120H181.742L181.771 119.736L184.96 116.519C185.598 115.861 185.963 115.256 186.054 114.702C186.138 114.22 186.054 113.826 185.8 113.521C185.546 113.211 185.165 113.057 184.657 113.057C184.162 113.057 183.726 113.232 183.349 113.584C182.971 113.932 182.73 114.37 182.626 114.897H182.362C182.466 114.292 182.733 113.791 183.163 113.394C183.596 112.993 184.092 112.793 184.652 112.793C185.232 112.793 185.676 112.969 185.985 113.32C186.298 113.669 186.412 114.129 186.327 114.702C186.243 115.285 185.865 115.929 185.194 116.636L182.133 119.736H185.902L185.868 120ZM192.23 113.057L188.119 120H187.846L191.908 113.154H187.807L187.841 112.891H192.25L192.23 113.057ZM197.592 113.057L193.48 120H193.207L197.27 113.154H193.168L193.202 112.891H197.611L197.592 113.057ZM199.73 120.098C199.359 120.098 199.047 120.005 198.793 119.819C198.539 119.634 198.352 119.36 198.231 118.999C198.114 118.634 198.065 118.219 198.085 117.754L198.124 117.285L198.358 115.898C198.524 114.932 198.829 114.172 199.271 113.618C199.714 113.065 200.269 112.788 200.937 112.788C201.314 112.788 201.63 112.882 201.884 113.071C202.138 113.257 202.323 113.534 202.44 113.901C202.558 114.269 202.605 114.681 202.582 115.137L202.533 115.664L202.294 117.051C202.125 118.011 201.819 118.76 201.376 119.297C200.933 119.831 200.385 120.098 199.73 120.098ZM202.318 114.6C202.276 114.085 202.138 113.7 201.903 113.442C201.669 113.182 201.348 113.052 200.941 113.052C200.355 113.052 199.861 113.302 199.457 113.804C199.057 114.302 198.777 115.01 198.617 115.928L198.393 117.246L198.354 117.661C198.321 118.065 198.349 118.438 198.437 118.779C198.524 119.121 198.677 119.383 198.896 119.565C199.114 119.744 199.39 119.834 199.726 119.834C200.308 119.834 200.798 119.588 201.195 119.097C201.596 118.602 201.874 117.915 202.03 117.036L202.235 115.874C202.32 115.396 202.348 114.971 202.318 114.6ZM207.753 116.265L206.449 117.324L205.99 120H205.727L206.952 112.891H207.216L206.508 116.973L207.816 115.859L211.195 112.891L211.605 112.896L207.953 116.099L210.595 120H210.272L207.753 116.265ZM215.16 120C215.15 119.714 215.181 119.391 215.253 119.033C214.979 119.368 214.654 119.631 214.276 119.819C213.902 120.008 213.495 120.101 213.056 120.098C212.613 120.098 212.26 119.961 211.996 119.688C211.732 119.414 211.633 119.072 211.698 118.662C211.78 118.164 212.055 117.775 212.523 117.495C212.995 117.215 213.593 117.067 214.315 117.051H215.57L215.712 116.279C215.78 115.846 215.694 115.506 215.453 115.259C215.212 115.008 214.866 114.883 214.413 114.883C213.97 114.883 213.57 115.002 213.212 115.239C212.854 115.474 212.629 115.783 212.538 116.167L212.274 116.157C212.366 115.705 212.616 115.335 213.026 115.049C213.437 114.762 213.899 114.619 214.413 114.619C214.95 114.619 215.362 114.772 215.648 115.078C215.935 115.381 216.041 115.785 215.966 116.289L215.482 119.111L215.448 119.443C215.432 119.616 215.438 119.787 215.468 119.956L215.463 120H215.16ZM213.051 119.839C213.487 119.845 213.902 119.741 214.296 119.526C214.69 119.308 215.025 118.991 215.302 118.574L215.526 117.319H214.345C213.687 117.332 213.144 117.459 212.714 117.7C212.287 117.938 212.035 118.265 211.957 118.682C211.898 119.004 211.975 119.276 212.187 119.497C212.401 119.718 212.689 119.832 213.051 119.839ZM220.419 118.706C220.536 118.094 220.09 117.66 219.081 117.402L218.539 117.246C217.79 117.002 217.462 116.571 217.553 115.952C217.611 115.552 217.823 115.229 218.188 114.985C218.552 114.741 218.975 114.619 219.457 114.619C219.988 114.619 220.403 114.756 220.702 115.029C221.002 115.303 221.129 115.669 221.083 116.128H220.819C220.858 115.757 220.749 115.457 220.492 115.229C220.235 114.998 219.892 114.883 219.462 114.883C219.045 114.883 218.682 114.979 218.373 115.171C218.064 115.363 217.878 115.62 217.816 115.942C217.719 116.46 218.018 116.828 218.715 117.046L219.442 117.256L219.687 117.339C220.445 117.616 220.777 118.073 220.683 118.711C220.621 119.131 220.403 119.468 220.028 119.722C219.654 119.972 219.206 120.098 218.686 120.098C218.142 120.098 217.707 119.966 217.382 119.702C217.056 119.435 216.916 119.087 216.962 118.657H217.221C217.204 119.022 217.325 119.31 217.582 119.521C217.842 119.73 218.209 119.834 218.681 119.834C219.13 119.824 219.517 119.717 219.843 119.512C220.168 119.303 220.36 119.035 220.419 118.706ZM223.593 113.291L223.349 114.717H224.506L224.472 114.985H223.3L222.631 118.853L222.611 119.121C222.602 119.342 222.647 119.517 222.748 119.644C222.849 119.767 223.002 119.831 223.207 119.834C223.298 119.834 223.476 119.819 223.739 119.79L223.749 120.039C223.599 120.078 223.422 120.098 223.217 120.098C222.663 120.098 222.375 119.813 222.353 119.243C222.346 119.077 222.357 118.908 222.387 118.735L223.031 114.985H222.089L222.128 114.717H223.08L223.324 113.291H223.593ZM228.129 114.902L227.812 114.878C227.375 114.878 226.97 115.039 226.596 115.361C226.221 115.684 225.971 116.076 225.844 116.538L225.243 120H224.979L225.888 114.717H226.151L225.946 115.815C226.168 115.438 226.438 115.145 226.757 114.937C227.076 114.725 227.431 114.619 227.821 114.619C227.945 114.619 228.069 114.639 228.192 114.678L228.129 114.902ZM231.703 120L231.869 119.146C231.638 119.465 231.358 119.704 231.029 119.863C230.701 120.02 230.339 120.098 229.945 120.098C229.535 120.098 229.21 119.989 228.969 119.771C228.731 119.552 228.593 119.242 228.554 118.838C228.531 118.581 228.542 118.315 228.588 118.042L229.159 114.717H229.423L228.842 118.081C228.806 118.302 228.795 118.517 228.808 118.726C228.824 119.077 228.93 119.351 229.125 119.546C229.32 119.738 229.59 119.834 229.936 119.834C230.411 119.834 230.839 119.705 231.22 119.448C231.601 119.188 231.851 118.849 231.972 118.433L232.611 114.717H232.88L231.972 120H231.703ZM235.634 120.098C235.259 120.098 234.932 120.016 234.652 119.854C234.372 119.691 234.167 119.466 234.037 119.18L233.534 122.031H233.271L234.53 114.717H234.794L234.613 115.659C234.844 115.347 235.121 115.096 235.443 114.907C235.769 114.715 236.13 114.619 236.527 114.619C236.869 114.619 237.16 114.704 237.401 114.873C237.642 115.042 237.818 115.291 237.929 115.62C238.043 115.946 238.093 116.307 238.08 116.704C238.07 116.912 238.051 117.113 238.021 117.305L237.958 117.627C237.789 118.392 237.499 118.996 237.089 119.438C236.679 119.878 236.194 120.098 235.634 120.098ZM237.753 117.305L237.812 116.782C237.844 116.164 237.748 115.693 237.523 115.371C237.299 115.046 236.968 114.883 236.532 114.883C236.103 114.883 235.696 115.011 235.312 115.269C234.931 115.522 234.675 115.838 234.545 116.216L234.105 118.687C234.18 119.054 234.354 119.338 234.628 119.536C234.905 119.735 235.24 119.834 235.634 119.834C236.161 119.834 236.607 119.619 236.972 119.189C237.336 118.757 237.592 118.156 237.738 117.388L237.753 117.305Z" fill="#707070"/>
<path d="M14.083 104H13.2041V94.3906L10.3037 95.4673V94.647L13.9365 93.2993H14.083V104ZM24.8936 93.8413L20.3379 104H19.4224L23.9487 94.083H17.8843V93.3359H24.8936V93.8413ZM26.7026 103.473C26.7026 103.302 26.7563 103.158 26.8638 103.041C26.9761 102.918 27.1299 102.857 27.3252 102.857C27.5205 102.857 27.6743 102.918 27.7866 103.041C27.8989 103.158 27.9551 103.302 27.9551 103.473C27.9551 103.644 27.8989 103.785 27.7866 103.897C27.6743 104.005 27.5205 104.059 27.3252 104.059C27.1299 104.059 26.9761 104.005 26.8638 103.897C26.7563 103.785 26.7026 103.644 26.7026 103.473ZM36.6636 99.5542C36.6636 101.058 36.3877 102.201 35.8359 102.982C35.2842 103.758 34.4712 104.146 33.397 104.146C32.3423 104.146 31.5342 103.766 30.9727 103.004C30.4111 102.237 30.123 101.124 30.1084 99.6641V97.7524C30.1084 96.2534 30.3867 95.1182 30.9434 94.3467C31.5 93.5752 32.313 93.1895 33.3823 93.1895C34.437 93.1895 35.2427 93.563 35.7993 94.3101C36.356 95.0522 36.644 96.1484 36.6636 97.5986V99.5542ZM35.7847 97.6426C35.7847 96.4219 35.5845 95.499 35.1841 94.874C34.7886 94.249 34.188 93.9365 33.3823 93.9365C32.5913 93.9365 31.9956 94.2417 31.5952 94.8521C31.1948 95.4624 30.9897 96.3633 30.98 97.5547V99.6494C30.98 100.865 31.1851 101.795 31.5952 102.44C32.0103 103.084 32.6108 103.407 33.397 103.407C34.1782 103.407 34.769 103.092 35.1694 102.462C35.5747 101.832 35.7798 100.909 35.7847 99.6934V97.6426ZM40.5015 98.1919H41.4097C41.9126 98.1919 42.3521 98.104 42.728 97.9282C43.104 97.7476 43.3896 97.5034 43.585 97.1958C43.7852 96.8833 43.8853 96.5244 43.8853 96.1191C43.8853 95.4355 43.6924 94.9009 43.3066 94.5151C42.9209 94.1294 42.3667 93.9365 41.644 93.9365C40.9604 93.9365 40.3989 94.1392 39.9595 94.5444C39.5249 94.9448 39.3076 95.4746 39.3076 96.1338H38.4287C38.4287 95.582 38.5679 95.0791 38.8462 94.625C39.1245 94.166 39.5103 93.812 40.0034 93.563C40.4966 93.314 41.0435 93.1895 41.644 93.1895C42.6108 93.1895 43.3726 93.4531 43.9292 93.9805C44.4858 94.5078 44.7642 95.2305 44.7642 96.1484C44.7642 96.6611 44.6006 97.1348 44.2734 97.5693C43.9512 97.999 43.5068 98.3213 42.9404 98.5361C43.6045 98.7217 44.1074 99.0415 44.4492 99.4956C44.791 99.9448 44.9619 100.482 44.9619 101.107C44.9619 102.02 44.6641 102.755 44.0684 103.312C43.4727 103.868 42.6768 104.146 41.6807 104.146C41.0459 104.146 40.4624 104.02 39.9302 103.766C39.4028 103.512 38.9927 103.158 38.6997 102.704C38.4116 102.245 38.2676 101.712 38.2676 101.107H39.1465C39.1465 101.786 39.3833 102.34 39.8569 102.77C40.3306 103.194 40.9385 103.407 41.6807 103.407C42.4375 103.407 43.0259 103.214 43.4458 102.828C43.8706 102.438 44.083 101.874 44.083 101.136C44.083 100.423 43.8535 99.8789 43.3945 99.5029C42.9404 99.127 42.269 98.939 41.3804 98.939H40.5015V98.1919Z" fill="#333333"/>
<circle cx="59" cy="28" r="3" fill="#B32B32"/>
<circle cx="59" cy="98" r="3" fill="#B32B32"/>
<g clip-path="url(#clip0)">
<path d="M184.748 74.6415C184.252 74.6415 183.851 74.2397 183.851 73.7439V72.8464H185.646V73.7439C185.646 74.2397 185.244 74.6415 184.748 74.6415Z" fill="#4980A8"/>
<path d="M197.462 74.6415C196.966 74.6415 196.564 74.2397 196.564 73.7439V72.8464H198.359V73.7439C198.359 74.2397 197.957 74.6415 197.462 74.6415Z" fill="#4980A8"/>
<path d="M201.099 72.7709C201.099 72.1187 200.84 71.4933 200.379 71.0319L196.296 66.949C194.932 65.5852 193.082 64.8188 191.153 64.8188H181.404V72.8464H201.024C201.048 72.8464 201.073 72.8451 201.097 72.8444C201.098 72.82 201.099 72.7956 201.099 72.7709Z" fill="#4980A8"/>
<path d="M199.96 65.8458H193.706C193.012 65.8458 192.449 66.4083 192.449 67.1022C192.449 67.7962 193.012 68.3588 193.706 68.3588H202.473L199.96 65.8458Z" fill="white"/>
<path d="M181.404 65.8458H188.405C189.099 65.8458 189.661 66.4083 189.661 67.1022C189.661 67.7962 189.099 68.3588 188.405 68.3588H181.404" fill="white"/>
<path d="M203.506 74.1926H198.73C198.78 74.0522 198.807 73.9013 198.807 73.7439V73.2952H201.024C202.627 73.2952 203.932 71.9906 203.932 70.3871C203.932 69.6104 203.629 68.8801 203.08 68.3308L202.791 68.0415L200.278 65.5283H200.277L198.997 64.2479C197.539 62.7895 195.6 61.9863 193.537 61.9863H181.404C181.156 61.9863 180.955 62.1872 180.955 62.435C180.955 62.683 181.156 62.8839 181.404 62.8839H193.537C195.36 62.8839 197.074 63.5937 198.362 64.8826L198.877 65.3969H193.706C192.765 65.3969 192 66.162 192 67.1022C192 68.0425 192.765 68.8076 193.706 68.8076H202.287L202.445 68.9655C202.825 69.3453 203.034 69.8501 203.034 70.3872C203.034 71.4957 202.132 72.3977 201.024 72.3977H181.404C181.156 72.3977 180.955 72.5986 180.955 72.8464C180.955 73.0943 181.156 73.2952 181.404 73.2952H183.402V73.7439C183.402 73.9013 183.429 74.0522 183.479 74.1928H181.427C181.179 74.1928 180.978 74.3937 180.978 74.6415C180.978 74.8893 181.179 75.0902 181.427 75.0902H188.966C189.214 75.0902 189.415 74.8893 189.415 74.6415C189.415 74.3937 189.214 74.1928 188.966 74.1928H186.017C186.067 74.0522 186.094 73.9013 186.094 73.7439V73.2952H196.115V73.7439C196.115 73.9013 196.142 74.0522 196.192 74.1928H192.469C192.221 74.1928 192.02 74.3937 192.02 74.6415C192.02 74.8893 192.221 75.0902 192.469 75.0902H203.506C203.754 75.0902 203.955 74.8893 203.955 74.6415C203.955 74.3937 203.754 74.1926 203.506 74.1926ZM193.706 67.9101C193.26 67.9101 192.898 67.5477 192.898 67.1022C192.898 66.6568 193.26 66.2944 193.706 66.2944H199.774L201.39 67.9101H193.706ZM185.197 73.7439C185.197 73.9914 184.995 74.1926 184.748 74.1926C184.5 74.1926 184.299 73.9914 184.299 73.7439V73.2952H185.197V73.7439ZM197.012 73.7439V73.2952H197.91V73.7439C197.91 73.9914 197.709 74.1926 197.461 74.1926C197.214 74.1926 197.012 73.9914 197.012 73.7439Z" fill="#333333"/>
<path d="M190.716 74.1926C190.598 74.1926 190.483 74.2407 190.399 74.3242C190.316 74.4076 190.268 74.5234 190.268 74.6415C190.268 74.7594 190.316 74.8752 190.399 74.9588C190.483 75.0421 190.598 75.0902 190.716 75.0902C190.834 75.0902 190.95 75.0423 191.034 74.9588C191.117 74.8752 191.165 74.7594 191.165 74.6415C191.165 74.5234 191.117 74.4076 191.034 74.3242C190.95 74.2407 190.834 74.1926 190.716 74.1926Z" fill="#333333"/>
<path d="M188.405 67.9101H181.404C181.156 67.9101 180.955 68.111 180.955 68.3588C180.955 68.6065 181.156 68.8076 181.404 68.8076H188.405C189.345 68.8076 190.11 68.0426 190.11 67.1022C190.11 66.162 189.345 65.3969 188.405 65.3969H183.117C182.87 65.3969 182.669 65.5978 182.669 65.8458C182.669 66.0936 182.87 66.2945 183.117 66.2945H188.405C188.85 66.2945 189.212 66.6568 189.212 67.1022C189.212 67.5477 188.85 67.9101 188.405 67.9101Z" fill="#333333"/>
<path d="M181.404 65.3969C181.286 65.3969 181.17 65.445 181.087 65.5285C181.003 65.6119 180.955 65.7277 180.955 65.8458C180.955 65.9637 181.003 66.0795 181.087 66.1629C181.17 66.2464 181.286 66.2945 181.404 66.2945C181.522 66.2945 181.638 66.2464 181.721 66.1629C181.805 66.0795 181.853 65.9637 181.853 65.8458C181.853 65.7277 181.805 65.6119 181.721 65.5285C181.638 65.445 181.522 65.3969 181.404 65.3969Z" fill="#333333"/>
</g>
<g clip-path="url(#clip1)">
<path d="M127.198 66.2092C127.198 65.8051 127.466 65.2858 127 65L126.494 61.9026C125.114 61.0578 119.088 61.2832 117.137 61.2832L108 61.5L106 64V66.2559H127.121C127.146 66.2559 127.171 66.2552 127.196 66.2547C127.196 66.2396 127.198 66.2245 127.198 66.2092Z" fill="#4980A8"/>
<path d="M110.527 72.4291C109.89 72.4291 109.372 72.9473 109.372 73.5842C109.372 74.2212 109.89 74.7394 110.527 74.7394C111.164 74.7394 111.682 74.2212 111.682 73.5842C111.682 72.9473 111.164 72.4291 110.527 72.4291ZM110.527 73.899C110.353 73.899 110.212 73.7577 110.212 73.5842C110.212 73.4107 110.353 73.2695 110.527 73.2695C110.7 73.2695 110.842 73.4107 110.842 73.5842C110.842 73.7578 110.7 73.899 110.527 73.899Z" fill="#333333"/>
<path d="M122.473 72.4291C121.836 72.4291 121.318 72.9473 121.318 73.5842C121.318 74.2212 121.836 74.7394 122.473 74.7394C123.11 74.7394 123.628 74.2212 123.628 73.5842C123.628 72.9473 123.11 72.4291 122.473 72.4291ZM122.473 73.899C122.299 73.899 122.158 73.7577 122.158 73.5842C122.158 73.4107 122.3 73.2695 122.473 73.2695C122.647 73.2695 122.788 73.4107 122.788 73.5842C122.788 73.7578 122.647 73.899 122.473 73.899Z" fill="#333333"/>
<path d="M127.467 71.5572V67.6144V63.3203C127.467 61.9829 126.378 60.8948 125.041 60.8948H109.301C107.224 60.8948 105.533 62.5851 105.533 64.6627V71.5571C105.21 71.8002 105 72.1872 105 72.6222V72.6738C105 73.4075 105.597 74.0044 106.331 74.0044H108.041C108.242 75.1952 109.28 76.1052 110.527 76.1052C111.774 76.1052 112.811 75.1952 113.012 74.0044H119.988C120.189 75.1952 121.226 76.1052 122.473 76.1052C123.72 76.1052 124.758 75.1952 124.959 74.0044H126.669C127.403 74.0044 128 73.4075 128 72.6738V72.6222C128 72.1872 127.79 71.8002 127.467 71.5572ZM126.626 67.1942H125.473C125.414 67.1942 125.366 67.1462 125.366 67.0872V63.8475C125.366 63.7885 125.414 63.7405 125.473 63.7405H126.626V67.1942ZM105.84 72.6738V72.6222C105.84 72.3516 106.06 72.1315 106.331 72.1315H108.468C108.254 72.4336 108.105 72.7844 108.041 73.164H106.331C106.06 73.164 105.84 72.9441 105.84 72.6738ZM110.527 75.2648C109.6 75.2648 108.846 74.5108 108.846 73.5841C108.846 72.6574 109.6 71.9034 110.527 71.9034C111.453 71.9034 112.207 72.6574 112.207 73.5841C112.207 74.5108 111.453 75.2648 110.527 75.2648ZM119.988 73.164H113.012C112.811 71.9732 111.774 71.063 110.527 71.063C110.154 71.063 109.8 71.1451 109.481 71.2911H106.374V64.6628C106.374 63.0485 107.687 61.7352 109.301 61.7352H125.041C125.77 61.7352 126.385 62.2294 126.569 62.9001H125.473C124.951 62.9001 124.526 63.3251 124.526 63.8475V67.0872C124.526 67.6096 124.95 68.0346 125.473 68.0346H126.626V71.2912H123.519C123.2 71.1452 122.846 71.0631 122.473 71.0631C121.226 71.0631 120.189 71.9733 119.988 73.164ZM122.473 75.2648C121.547 75.2648 120.793 74.5108 120.793 73.5841C120.793 72.6574 121.547 71.9034 122.473 71.9034C123.4 71.9034 124.154 72.6574 124.154 73.5841C124.154 74.5108 123.4 75.2648 122.473 75.2648ZM127.16 72.6738C127.16 72.9441 126.94 73.164 126.669 73.164H124.959C124.895 72.7844 124.746 72.4336 124.532 72.1315H126.669C126.94 72.1315 127.16 72.3516 127.16 72.6222V72.6738Z" fill="#333333"/>
<path d="M125.704 70.6377C125.936 70.6377 126.124 70.4496 126.124 70.2175V69.844C126.124 69.6119 125.936 69.4238 125.704 69.4238C125.472 69.4238 125.284 69.6119 125.284 69.844V70.2175C125.284 70.4496 125.472 70.6377 125.704 70.6377Z" fill="#333333"/>
<path d="M123.286 67.0872V63.8475C123.286 63.3251 122.861 62.9001 122.339 62.9001H109.401C108.283 62.9001 107.374 63.8095 107.374 64.9273V67.0872C107.374 67.6096 107.798 68.0346 108.321 68.0346H122.339C122.861 68.0346 123.286 67.6096 123.286 67.0872ZM115.75 63.7405H119.053V67.1942H115.75V63.7405ZM114.91 67.1942H111.606V63.7405H114.91V67.1942ZM108.214 67.0872V64.9273C108.214 64.2729 108.746 63.7405 109.401 63.7405H110.766V67.1942H108.321C108.262 67.1942 108.214 67.1462 108.214 67.0872ZM122.446 67.0872C122.446 67.1462 122.398 67.1942 122.339 67.1942H119.894V63.7405H122.339C122.398 63.7405 122.446 63.7884 122.446 63.8475V67.0872Z" fill="#333333"/>
</g>
<rect x="134" y="60" width="23" height="17" rx="8.5" fill="#4980A8"/>
<rect x="211" y="61" width="60" height="16" rx="8" fill="#4980A8"/>
<line x1="59.25" y1="36" x2="59.25" y2="41" stroke="#333333" stroke-width="0.5"/>
<line x1="59.25" y1="43" x2="59.25" y2="48" stroke="#333333" stroke-width="0.5"/>
<line x1="59.25" y1="50" x2="59.25" y2="55" stroke="#333333" stroke-width="0.5"/>
<line x1="59.25" y1="57" x2="59.25" y2="62" stroke="#333333" stroke-width="0.5"/>
<line x1="59.25" y1="64" x2="59.25" y2="69" stroke="#333333" stroke-width="0.5"/>
<line x1="59.25" y1="71" x2="59.25" y2="76" stroke="#333333" stroke-width="0.5"/>
<line x1="59.25" y1="78" x2="59.25" y2="83" stroke="#333333" stroke-width="0.5"/>
<line x1="59.25" y1="85" x2="59.25" y2="90" stroke="#333333" stroke-width="0.5"/>
<path d="M142.56 72H141.651V65.9795L139.83 66.6484V65.8281L142.418 64.8564H142.56V72ZM149.366 70.1445H146.388L145.719 72H144.752L147.467 64.8906H148.287L151.007 72H150.045L149.366 70.1445ZM146.671 69.373H149.088L147.877 66.0479L146.671 69.373Z" fill="#E9EDEB"/>
<path d="M218.831 72H217.894V64.8906H218.831V72ZM221.263 66.7168L221.292 67.3809C221.696 66.873 222.223 66.6191 222.874 66.6191C223.991 66.6191 224.554 67.249 224.563 68.5088V72H223.66V68.5039C223.657 68.123 223.569 67.8415 223.396 67.6592C223.227 67.4769 222.962 67.3857 222.601 67.3857C222.308 67.3857 222.05 67.4639 221.829 67.6201C221.608 67.7764 221.435 67.9814 221.312 68.2354V72H220.408V66.7168H221.263ZM227.151 65.4375V66.7168H228.138V67.415H227.151V70.6914C227.151 70.903 227.195 71.0625 227.283 71.1699C227.371 71.2741 227.521 71.3262 227.732 71.3262C227.837 71.3262 227.98 71.3066 228.162 71.2676V72C227.924 72.0651 227.693 72.0977 227.469 72.0977C227.065 72.0977 226.761 71.9756 226.556 71.7314C226.351 71.4873 226.248 71.1406 226.248 70.6914V67.415H225.286V66.7168H226.248V65.4375H227.151ZM231.39 72.0977C230.674 72.0977 230.091 71.8633 229.642 71.3945C229.192 70.9225 228.968 70.2926 228.968 69.5049V69.3389C228.968 68.8148 229.067 68.3477 229.266 67.9375C229.467 67.5241 229.747 67.2018 230.105 66.9707C230.467 66.7363 230.857 66.6191 231.277 66.6191C231.964 66.6191 232.498 66.8454 232.879 67.2979C233.26 67.7503 233.45 68.3981 233.45 69.2412V69.6172H229.871C229.884 70.138 230.035 70.5596 230.325 70.8818C230.618 71.2008 230.989 71.3604 231.438 71.3604C231.757 71.3604 232.028 71.2952 232.249 71.165C232.47 71.0348 232.664 70.8623 232.83 70.6475L233.382 71.0771C232.939 71.7575 232.275 72.0977 231.39 72.0977ZM231.277 67.3613C230.913 67.3613 230.607 67.4948 230.359 67.7617C230.112 68.0254 229.959 68.3965 229.9 68.875H232.547V68.8066C232.521 68.3477 232.397 67.9928 232.176 67.7422C231.954 67.4883 231.655 67.3613 231.277 67.3613ZM237.054 67.5273C236.917 67.5046 236.769 67.4932 236.609 67.4932C236.017 67.4932 235.615 67.7454 235.403 68.25V72H234.5V66.7168H235.379L235.394 67.3271C235.69 66.8551 236.11 66.6191 236.653 66.6191C236.829 66.6191 236.963 66.6419 237.054 66.6875V67.5273ZM239.91 71.3604C240.232 71.3604 240.514 71.2627 240.755 71.0674C240.996 70.8721 241.129 70.6279 241.155 70.335H242.01C241.993 70.6377 241.889 70.9258 241.697 71.1992C241.505 71.4727 241.248 71.6908 240.926 71.8535C240.607 72.0163 240.268 72.0977 239.91 72.0977C239.191 72.0977 238.618 71.8584 238.191 71.3799C237.768 70.8981 237.557 70.2406 237.557 69.4072V69.2559C237.557 68.7415 237.651 68.2842 237.84 67.8838C238.029 67.4834 238.299 67.1725 238.65 66.9512C239.005 66.7298 239.424 66.6191 239.905 66.6191C240.498 66.6191 240.989 66.7965 241.38 67.1514C241.774 67.5062 241.984 67.9668 242.01 68.5332H241.155C241.129 68.1914 240.999 67.9115 240.765 67.6934C240.534 67.472 240.247 67.3613 239.905 67.3613C239.446 67.3613 239.09 67.5273 238.836 67.8594C238.585 68.1882 238.46 68.665 238.46 69.29V69.4609C238.46 70.0697 238.585 70.5384 238.836 70.8672C239.087 71.196 239.445 71.3604 239.91 71.3604ZM244.007 72H243.104V66.7168H244.007V72ZM243.03 65.3154C243.03 65.1689 243.074 65.0452 243.162 64.9443C243.253 64.8434 243.387 64.793 243.562 64.793C243.738 64.793 243.872 64.8434 243.963 64.9443C244.054 65.0452 244.1 65.1689 244.1 65.3154C244.1 65.4619 244.054 65.584 243.963 65.6816C243.872 65.7793 243.738 65.8281 243.562 65.8281C243.387 65.8281 243.253 65.7793 243.162 65.6816C243.074 65.584 243.03 65.4619 243.03 65.3154ZM246.683 65.4375V66.7168H247.669V67.415H246.683V70.6914C246.683 70.903 246.727 71.0625 246.814 71.1699C246.902 71.2741 247.052 71.3262 247.264 71.3262C247.368 71.3262 247.511 71.3066 247.693 71.2676V72C247.456 72.0651 247.225 72.0977 247 72.0977C246.596 72.0977 246.292 71.9756 246.087 71.7314C245.882 71.4873 245.779 71.1406 245.779 70.6914V67.415H244.817V66.7168H245.779V65.4375H246.683ZM250.457 70.6768L251.688 66.7168H252.654L250.53 72.8154C250.201 73.6943 249.679 74.1338 248.963 74.1338L248.792 74.1191L248.455 74.0557V73.3232L248.699 73.3428C249.005 73.3428 249.243 73.2809 249.412 73.1572C249.585 73.0335 249.726 72.8073 249.837 72.4785L250.037 71.9414L248.152 66.7168H249.139L250.457 70.6768ZM257.166 68.0059H257.845C258.271 67.9993 258.606 67.887 258.851 67.6689C259.095 67.4508 259.217 67.1562 259.217 66.7852C259.217 65.9518 258.802 65.5352 257.972 65.5352C257.581 65.5352 257.269 65.6475 257.034 65.8721C256.803 66.0934 256.688 66.388 256.688 66.7559H255.784C255.784 66.1927 255.989 65.7256 256.399 65.3545C256.813 64.9801 257.337 64.793 257.972 64.793C258.642 64.793 259.168 64.9704 259.549 65.3252C259.93 65.68 260.12 66.1732 260.12 66.8047C260.12 67.1139 260.019 67.4134 259.817 67.7031C259.619 67.9928 259.347 68.2093 259.002 68.3525C259.393 68.4762 259.694 68.6813 259.905 68.9678C260.12 69.2542 260.228 69.6042 260.228 70.0176C260.228 70.6556 260.019 71.1618 259.603 71.5361C259.186 71.9105 258.644 72.0977 257.977 72.0977C257.309 72.0977 256.766 71.917 256.346 71.5557C255.929 71.1943 255.721 70.7174 255.721 70.125H256.629C256.629 70.4993 256.751 70.7988 256.995 71.0234C257.239 71.248 257.566 71.3604 257.977 71.3604C258.413 71.3604 258.746 71.2464 258.978 71.0186C259.209 70.7907 259.324 70.4635 259.324 70.0371C259.324 69.6237 259.197 69.3063 258.943 69.085C258.689 68.8636 258.323 68.7497 257.845 68.7432H257.166V68.0059ZM261.883 68.4355L262.244 64.8906H265.887V65.7256H263.011L262.796 67.6641C263.144 67.459 263.54 67.3564 263.982 67.3564C264.63 67.3564 265.145 67.5713 265.525 68.001C265.906 68.4274 266.097 69.0052 266.097 69.7344C266.097 70.4668 265.898 71.0446 265.501 71.4678C265.107 71.8877 264.555 72.0977 263.846 72.0977C263.217 72.0977 262.705 71.9235 262.308 71.5752C261.91 71.2269 261.684 70.7451 261.629 70.1299H262.483C262.539 70.5368 262.684 70.8444 262.918 71.0527C263.152 71.2578 263.462 71.3604 263.846 71.3604C264.266 71.3604 264.594 71.2171 264.832 70.9307C265.073 70.6442 265.193 70.2487 265.193 69.7441C265.193 69.2689 265.063 68.888 264.803 68.6016C264.546 68.3118 264.202 68.167 263.772 68.167C263.379 68.167 263.069 68.2533 262.845 68.4258L262.605 68.6211L261.883 68.4355Z" fill="#E9EDEB"/>
<path d="M82.6845 63.6884C83.4269 63.6884 84.0287 63.0866 84.0287 62.3442C84.0287 61.6018 83.4269 61 82.6845 61C81.9422 61 81.3403 61.6018 81.3403 62.3442C81.3403 63.0866 81.9422 63.6884 82.6845 63.6884Z" fill="#333333"/>
<path d="M86.3836 67.0145C85.2766 66.3738 84.3683 65.5082 83.6038 64.49C83.1234 63.8144 81.8532 63.8496 81.3371 64.4687C80.552 65.2326 79.8858 66.02 79.3574 66.8077C79.1414 67.1304 79.2272 67.567 79.5497 67.783C79.67 67.8636 79.8056 67.9022 79.9403 67.9022C80.1668 67.9022 80.3894 67.7929 80.5248 67.5905C80.7568 67.245 81.0199 66.8984 81.3112 66.5534C81.3001 67.2835 81.3367 68.601 81.3551 69.1932C81.3612 69.3903 81.3163 69.5831 81.2247 69.7581C80.5 71.142 80.0365 72.4514 79.5659 74.0532C79.4507 74.4442 79.6748 74.8545 80.0656 74.9696C80.1541 74.9956 80.2435 75.0044 80.3298 74.9978C80.6273 74.975 80.8933 74.7724 80.9822 74.4696C81.4164 72.9927 81.8359 71.7968 82.4903 70.5306C82.5236 70.5319 82.5569 70.5319 82.5906 70.5304C83.0084 71.7769 83.4264 73.024 83.8448 74.2705C84.1486 75.179 85.5583 74.7071 85.2536 73.7984C84.7964 72.4356 84.3399 71.0734 83.8842 69.7108C83.8577 69.6326 83.7935 69.3264 83.7845 69.2265C83.7092 68.387 83.6818 67.5502 83.6899 66.7122C84.3313 67.3267 85.0426 67.8597 85.8328 68.3175C86.6208 68.775 87.161 67.4652 86.3836 67.0145Z" fill="#333333"/>
<g clip-path="url(#clip2)">
<path d="M98.5598 68.8006L93.8425 64.0833C93.7314 63.9722 93.5533 63.9722 93.4422 64.0833C93.3311 64.1944 93.3311 64.3725 93.4422 64.4836L97.9584 68.9997L93.4422 73.5159C93.3311 73.627 93.3311 73.8051 93.4422 73.9162C93.4967 73.9707 93.57 74 93.6413 74C93.7125 74 93.7859 73.9728 93.8404 73.9162L98.5577 69.1988C98.6688 69.0899 98.6688 68.9096 98.5598 68.8006Z" fill="#B32B32"/>
</g>
<g clip-path="url(#clip3)">
<path d="M172.56 68.8006L167.842 64.0833C167.731 63.9722 167.553 63.9722 167.442 64.0833C167.331 64.1944 167.331 64.3725 167.442 64.4836L171.958 68.9997L167.442 73.5159C167.331 73.627 167.331 73.8051 167.442 73.9162C167.497 73.9707 167.57 74 167.641 74C167.713 74 167.786 73.9728 167.84 73.9162L172.558 69.1988C172.669 69.0899 172.669 68.9096 172.56 68.8006Z" fill="#B32B32"/>
</g>
<defs>
<clipPath id="clip0">
<rect width="23" height="23" fill="white" transform="translate(181 57)"/>
</clipPath>
<clipPath id="clip1">
<rect width="23" height="23" fill="white" transform="translate(105 57)"/>
</clipPath>
<clipPath id="clip2">
<rect width="10" height="10" fill="white" transform="translate(91 64)"/>
</clipPath>
<clipPath id="clip3">
<rect width="10" height="10" fill="white" transform="translate(165 64)"/>
</clipPath>
</defs>
</svg>
