<svg width="205" height="20" viewBox="0 0 205 20" fill="none" xmlns="http://www.w3.org/2000/svg">
<path d="M64.2197 4.2959H61.9316V10H61.2925V4.2959H59.0098V3.74268H64.2197V4.2959ZM70.2998 7.18555C70.2998 8.06641 70.0617 8.77002 69.5854 9.29639C69.1092 9.82275 68.4701 10.0859 67.668 10.0859C66.8695 10.0859 66.2285 9.82096 65.7451 9.29102C65.2653 8.76107 65.0254 8.05029 65.0254 7.15869V6.56787C65.0254 5.99137 65.1328 5.48291 65.3477 5.04248C65.5625 4.60205 65.8704 4.26188 66.2715 4.02197C66.6761 3.77848 67.138 3.65674 67.6572 3.65674C68.4342 3.65674 69.0627 3.91097 69.5425 4.41943C70.0259 4.92432 70.2783 5.60465 70.2998 6.46045V7.18555ZM69.666 6.55713C69.666 5.82666 69.4852 5.25553 69.1235 4.84375C68.7655 4.42839 68.2767 4.2207 67.6572 4.2207C67.0449 4.2207 66.5579 4.42839 66.1963 4.84375C65.8382 5.25553 65.6592 5.8374 65.6592 6.58936V7.18555C65.6592 7.91243 65.84 8.48535 66.2017 8.9043C66.5633 9.32324 67.0521 9.53271 67.668 9.53271C68.291 9.53271 68.7798 9.32503 69.1343 8.90967C69.4888 8.4943 69.666 7.91243 69.666 7.16406V6.55713ZM71.7017 10V3.74268H73.603C74.1545 3.74268 74.6486 3.86084 75.0854 4.09717C75.5223 4.3335 75.8625 4.66829 76.106 5.10156C76.353 5.53125 76.4801 6.01644 76.4873 6.55713V7.14258C76.4873 7.69759 76.3674 8.19173 76.1274 8.625C75.8911 9.05469 75.5527 9.38949 75.1123 9.62939C74.6755 9.8693 74.1759 9.99284 73.6138 10H71.7017ZM72.3408 4.2959V9.45752H73.5654C74.2601 9.45752 74.8133 9.24805 75.2251 8.8291C75.6405 8.41016 75.8481 7.83724 75.8481 7.11035V6.6001C75.8481 5.90186 75.6458 5.34326 75.2412 4.92432C74.8366 4.50537 74.2852 4.2959 73.5869 4.2959H72.3408ZM81.5522 8.32959H78.5176L77.8516 10H77.1855L79.7314 3.74268H80.3491L82.8735 10H82.2129L81.5522 8.32959ZM78.7324 7.78174H81.332L80.0376 4.51074L78.7324 7.78174ZM85.4946 7.15869L87.4873 3.74268H88.2231L85.8115 7.72803V10H85.167V7.70117L82.7715 3.74268H83.5073L85.4946 7.15869ZM89.0664 4.09717L88.6851 3.81787C89.0073 3.3846 89.1738 2.92985 89.1846 2.45361V1.75H89.8184V2.29248C89.8184 3.04085 89.5677 3.64242 89.0664 4.09717ZM94.9155 8.44775C94.9155 8.12907 94.7974 7.87305 94.561 7.67969C94.3247 7.48633 93.8843 7.30908 93.2397 7.14795C92.5988 6.98324 92.1261 6.81852 91.8218 6.65381C91.5174 6.4891 91.29 6.29753 91.1396 6.0791C90.9928 5.8571 90.9194 5.5957 90.9194 5.29492C90.9194 4.81152 91.1307 4.41764 91.5532 4.11328C91.9757 3.80892 92.5254 3.65674 93.2021 3.65674C93.8825 3.65674 94.4393 3.83398 94.8726 4.18848C95.3058 4.53939 95.5225 4.99056 95.5225 5.54199H94.8779C94.8779 5.13737 94.724 4.81331 94.416 4.56982C94.1081 4.32633 93.7017 4.20459 93.1968 4.20459C92.6991 4.20459 92.3016 4.30485 92.0044 4.50537C91.7072 4.70589 91.5586 4.96729 91.5586 5.28955C91.5586 5.58675 91.6893 5.83024 91.9507 6.02002C92.2121 6.20622 92.6453 6.3763 93.2505 6.53027C93.8592 6.68424 94.3175 6.84538 94.6255 7.01367C94.937 7.18197 95.1715 7.38428 95.3291 7.62061C95.4867 7.85335 95.5654 8.12728 95.5654 8.44238C95.5654 8.94368 95.3488 9.34294 94.9155 9.64014C94.4858 9.93734 93.9255 10.0859 93.2344 10.0859C92.7617 10.0859 92.332 10.0107 91.9453 9.86035C91.5586 9.70638 91.2542 9.48796 91.0322 9.20508C90.8138 8.91862 90.7046 8.57845 90.7046 8.18457H91.3491C91.3491 8.61068 91.5174 8.94548 91.854 9.18896C92.1942 9.42887 92.6543 9.54883 93.2344 9.54883C93.7428 9.54883 94.1493 9.44857 94.4536 9.24805C94.7616 9.04395 94.9155 8.77718 94.9155 8.44775ZM103.219 8.44775C103.219 8.12907 103.101 7.87305 102.865 7.67969C102.628 7.48633 102.188 7.30908 101.543 7.14795C100.903 6.98324 100.43 6.81852 100.125 6.65381C99.8211 6.4891 99.5938 6.29753 99.4434 6.0791C99.2965 5.8571 99.2231 5.5957 99.2231 5.29492C99.2231 4.81152 99.4344 4.41764 99.8569 4.11328C100.279 3.80892 100.829 3.65674 101.506 3.65674C102.186 3.65674 102.743 3.83398 103.176 4.18848C103.61 4.53939 103.826 4.99056 103.826 5.54199H103.182C103.182 5.13737 103.028 4.81331 102.72 4.56982C102.412 4.32633 102.005 4.20459 101.5 4.20459C101.003 4.20459 100.605 4.30485 100.308 4.50537C100.011 4.70589 99.8623 4.96729 99.8623 5.28955C99.8623 5.58675 99.993 5.83024 100.254 6.02002C100.516 6.20622 100.949 6.3763 101.554 6.53027C102.163 6.68424 102.621 6.84538 102.929 7.01367C103.241 7.18197 103.475 7.38428 103.633 7.62061C103.79 7.85335 103.869 8.12728 103.869 8.44238C103.869 8.94368 103.653 9.34294 103.219 9.64014C102.79 9.93734 102.229 10.0859 101.538 10.0859C101.065 10.0859 100.636 10.0107 100.249 9.86035C99.8623 9.70638 99.5579 9.48796 99.3359 9.20508C99.1175 8.91862 99.0083 8.57845 99.0083 8.18457H99.6528C99.6528 8.61068 99.8211 8.94548 100.158 9.18896C100.498 9.42887 100.958 9.54883 101.538 9.54883C102.047 9.54883 102.453 9.44857 102.757 9.24805C103.065 9.04395 103.219 8.77718 103.219 8.44775ZM109.874 8.02881C109.799 8.69124 109.543 9.19971 109.106 9.5542C108.673 9.90869 108.096 10.0859 107.376 10.0859C106.617 10.0859 106.001 9.82992 105.529 9.31787C105.06 8.80583 104.825 8.10042 104.825 7.20166V6.51416C104.825 5.9484 104.931 5.44889 105.142 5.01562C105.357 4.57878 105.66 4.24398 106.05 4.01123C106.44 3.7749 106.893 3.65674 107.409 3.65674C108.125 3.65674 108.696 3.83757 109.122 4.19922C109.548 4.55729 109.799 5.06755 109.874 5.72998H109.229C109.165 5.243 108.988 4.86882 108.698 4.60742C108.408 4.34245 107.978 4.20996 107.409 4.20996C106.807 4.20996 106.333 4.41406 105.985 4.82227C105.638 5.23047 105.464 5.7998 105.464 6.53027V7.23926C105.464 7.95182 105.634 8.514 105.975 8.92578C106.318 9.33757 106.786 9.54346 107.376 9.54346C107.953 9.54346 108.388 9.41813 108.682 9.16748C108.979 8.91683 109.161 8.53727 109.229 8.02881H109.874ZM116.233 10H115.594V7.18555H111.851V10H111.211V3.74268H111.851V6.6377H115.594V3.74268H116.233V10ZM121.631 7.02979H118.532V9.45752H122.104V10H117.893V3.74268H122.083V4.2959H118.532V6.48193H121.631V7.02979ZM123.264 10V3.74268H125.166C125.717 3.74268 126.211 3.86084 126.648 4.09717C127.085 4.3335 127.425 4.66829 127.668 5.10156C127.916 5.53125 128.043 6.01644 128.05 6.55713V7.14258C128.05 7.69759 127.93 8.19173 127.69 8.625C127.454 9.05469 127.115 9.38949 126.675 9.62939C126.238 9.8693 125.738 9.99284 125.176 10H123.264ZM123.903 4.2959V9.45752H125.128C125.823 9.45752 126.376 9.24805 126.788 8.8291C127.203 8.41016 127.411 7.83724 127.411 7.11035V6.6001C127.411 5.90186 127.208 5.34326 126.804 4.92432C126.399 4.50537 125.848 4.2959 125.149 4.2959H123.903ZM134.125 3.74268V7.96436C134.125 8.61605 133.91 9.13346 133.48 9.5166C133.05 9.89616 132.47 10.0859 131.74 10.0859C131.013 10.0859 130.436 9.90153 130.01 9.53271C129.584 9.16032 129.366 8.65186 129.355 8.00732V3.74268H129.989V7.96436C129.989 8.4585 130.145 8.84521 130.456 9.12451C130.771 9.40381 131.199 9.54346 131.74 9.54346C132.277 9.54346 132.701 9.40739 133.013 9.13525C133.324 8.85954 133.482 8.47461 133.485 7.98047V3.74268H134.125ZM136.321 9.45752H139.608V10H135.682V3.74268H136.321V9.45752ZM144.416 7.02979H141.316V9.45752H144.888V10H140.677V3.74268H144.867V4.2959H141.316V6.48193H144.416V7.02979Z" fill="#333333" fill-opacity="0.4"/>
<line y1="6.85" x2="53" y2="6.85" stroke="#333333" stroke-opacity="0.4" stroke-width="0.3"/>
<line x1="152" y1="6.85" x2="205" y2="6.85" stroke="#333333" stroke-opacity="0.4" stroke-width="0.3"/>
</svg>
